G75*
G70*
%OFA0B0*%
%FSLAX24Y24*%
%IPPOS*%
%LPD*%
%AMOC8*
5,1,8,0,0,1.08239X$1,22.5*
%
%ADD10C,0.0100*%
%ADD11C,0.0660*%
%ADD12C,0.1300*%
%ADD13C,0.0886*%
%ADD14C,0.0594*%
%ADD15C,0.0740*%
%ADD16C,0.0000*%
%ADD17C,0.0700*%
%ADD18R,0.0740X0.0740*%
%ADD19R,0.0460X0.0630*%
%ADD20C,0.0669*%
%ADD21R,0.0250X0.0500*%
%ADD22R,0.0515X0.0515*%
%ADD23C,0.0515*%
%ADD24C,0.0825*%
%ADD25C,0.0400*%
%ADD26OC8,0.0630*%
%ADD27C,0.0630*%
%ADD28OC8,0.0520*%
%ADD29C,0.0520*%
%ADD30C,0.2250*%
%ADD31C,0.0420*%
%ADD32C,0.0317*%
%ADD33C,0.0277*%
%ADD34C,0.0240*%
%ADD35C,0.0160*%
%ADD36C,0.0080*%
%ADD37C,0.0120*%
%ADD38C,0.1000*%
D10*
X003344Y001458D02*
X003287Y001633D01*
X003280Y001725D01*
X011360Y001725D01*
X011360Y001634D02*
X011360Y001841D01*
X011439Y002032D01*
X011585Y002178D01*
X011728Y002237D01*
X011585Y002296D01*
X011439Y002443D01*
X011360Y002634D01*
X011360Y002841D01*
X011439Y003032D01*
X011585Y003178D01*
X011777Y003257D01*
X011983Y003257D01*
X012175Y003178D01*
X012321Y003032D01*
X012400Y002841D01*
X012400Y002837D01*
X012439Y002932D01*
X012585Y003078D01*
X012777Y003157D01*
X012983Y003157D01*
X013175Y003078D01*
X013321Y002932D01*
X013360Y002837D01*
X013360Y002841D01*
X013414Y002971D01*
X012898Y003487D01*
X012805Y003526D01*
X012719Y003613D01*
X012672Y003726D01*
X012672Y003849D01*
X012719Y003962D01*
X012805Y004049D01*
X012919Y004096D01*
X013041Y004096D01*
X013155Y004049D01*
X013241Y003962D01*
X013280Y003869D01*
X013892Y003257D01*
X013983Y003257D01*
X014175Y003178D01*
X014321Y003032D01*
X014400Y002841D01*
X014400Y002634D01*
X014321Y002443D01*
X014175Y002296D01*
X014032Y002237D01*
X014175Y002178D01*
X014321Y002032D01*
X014400Y001841D01*
X014400Y001634D01*
X014321Y001443D01*
X014175Y001296D01*
X013983Y001217D01*
X013777Y001217D01*
X013585Y001296D01*
X013439Y001443D01*
X013400Y001537D01*
X013400Y001534D01*
X013321Y001343D01*
X013175Y001196D01*
X013032Y001137D01*
X014630Y001137D01*
X014630Y004270D01*
X014727Y004367D01*
X013134Y004367D01*
X013041Y004329D01*
X012919Y004329D01*
X012805Y004376D01*
X012719Y004463D01*
X012672Y004576D01*
X012672Y004699D01*
X012692Y004747D01*
X012251Y004747D01*
X012140Y004859D01*
X011863Y005136D01*
X011846Y005143D01*
X011765Y005224D01*
X011721Y005330D01*
X011721Y005445D01*
X011765Y005551D01*
X011846Y005632D01*
X011953Y005676D01*
X012067Y005676D01*
X012174Y005632D01*
X012255Y005551D01*
X012299Y005445D01*
X012299Y005330D01*
X012272Y005264D01*
X012409Y005127D01*
X013159Y005127D01*
X013239Y005047D01*
X013740Y005047D01*
X013740Y005169D01*
X013685Y005224D01*
X013641Y005330D01*
X013641Y005445D01*
X013685Y005551D01*
X013766Y005632D01*
X013873Y005676D01*
X013987Y005676D01*
X014094Y005632D01*
X014175Y005551D01*
X014219Y005445D01*
X014219Y005330D01*
X014175Y005224D01*
X014138Y005187D01*
X023621Y005187D01*
X023690Y005256D01*
X023690Y005936D01*
X024250Y006496D01*
X024361Y006607D01*
X025241Y006607D01*
X025830Y007196D01*
X025941Y007307D01*
X027446Y007307D01*
X027485Y007401D01*
X027542Y007457D01*
X027495Y007504D01*
X027451Y007610D01*
X027451Y007725D01*
X027495Y007831D01*
X027576Y007912D01*
X027683Y007956D01*
X027797Y007956D01*
X027904Y007912D01*
X027945Y007871D01*
X028551Y008477D01*
X029012Y008477D01*
X029066Y008532D01*
X029173Y008576D01*
X029287Y008576D01*
X029394Y008532D01*
X029475Y008451D01*
X029519Y008345D01*
X029519Y008230D01*
X029475Y008124D01*
X029463Y008112D01*
X029475Y008101D01*
X029519Y007995D01*
X029519Y007880D01*
X029475Y007774D01*
X029394Y007693D01*
X029287Y007649D01*
X029173Y007649D01*
X029066Y007693D01*
X029012Y007747D01*
X028659Y007747D01*
X027999Y007087D01*
X028961Y007087D01*
X029190Y007316D01*
X029301Y007427D01*
X029650Y007427D01*
X029650Y008499D01*
X029461Y008687D01*
X029350Y008799D01*
X029350Y009494D01*
X029256Y009533D01*
X029175Y009614D01*
X029131Y009720D01*
X029131Y009835D01*
X029175Y009941D01*
X029256Y010022D01*
X029291Y010036D01*
X029291Y010145D01*
X029313Y010196D01*
X028970Y010196D01*
X028970Y010098D02*
X029291Y010098D01*
X029313Y010196D02*
X029235Y010274D01*
X029191Y010380D01*
X029191Y010495D01*
X029235Y010601D01*
X029316Y010682D01*
X029423Y010726D01*
X029537Y010726D01*
X029644Y010682D01*
X029725Y010601D01*
X029753Y010533D01*
X029770Y010516D01*
X029940Y010346D01*
X029940Y010509D01*
X029301Y011147D01*
X029120Y011147D01*
X029120Y010759D01*
X028970Y010609D01*
X028970Y009576D01*
X029037Y009576D01*
X029144Y009532D01*
X029225Y009451D01*
X029269Y009345D01*
X029269Y009230D01*
X029225Y009124D01*
X029144Y009043D01*
X029037Y008999D01*
X028923Y008999D01*
X028816Y009043D01*
X028735Y009124D01*
X028691Y009230D01*
X028691Y009307D01*
X028590Y009409D01*
X028590Y009919D01*
X027889Y009217D01*
X027919Y009145D01*
X027919Y009030D01*
X027875Y008924D01*
X027794Y008843D01*
X027687Y008799D01*
X027573Y008799D01*
X027466Y008843D01*
X027385Y008924D01*
X027355Y008997D01*
X021558Y008997D01*
X021590Y008919D01*
X021590Y008756D01*
X021541Y008637D01*
X023591Y008637D01*
X023591Y008645D01*
X023635Y008751D01*
X023716Y008832D01*
X023823Y008876D01*
X023937Y008876D01*
X024031Y008837D01*
X025213Y008837D01*
X025274Y008776D01*
X025337Y008776D01*
X025444Y008732D01*
X025525Y008651D01*
X025569Y008545D01*
X025569Y008430D01*
X025525Y008324D01*
X025444Y008243D01*
X025337Y008199D01*
X025230Y008199D01*
X025230Y007604D01*
X025080Y007454D01*
X024963Y007337D01*
X023927Y007337D01*
X023810Y007454D01*
X023810Y007454D01*
X023626Y007639D01*
X023563Y007639D01*
X023456Y007683D01*
X023402Y007737D01*
X022530Y007737D01*
X022530Y006354D01*
X022413Y006237D01*
X022247Y006237D01*
X017913Y006237D01*
X017747Y006237D01*
X017630Y006354D01*
X017630Y008270D01*
X017747Y008387D01*
X021197Y008387D01*
X021157Y008427D01*
X021098Y008427D01*
X020948Y008490D01*
X020832Y008605D01*
X020770Y008756D01*
X020770Y008919D01*
X020802Y008997D01*
X018901Y008997D01*
X018790Y009109D01*
X018431Y009467D01*
X011531Y009467D01*
X011420Y009579D01*
X011387Y009611D01*
X011341Y009499D01*
X011226Y009384D01*
X011076Y009322D01*
X010978Y009322D01*
X012413Y007887D01*
X012844Y007887D01*
X012905Y007949D01*
X013019Y007996D01*
X013141Y007996D01*
X013255Y007949D01*
X013341Y007862D01*
X013388Y007749D01*
X013388Y007626D01*
X013341Y007513D01*
X013255Y007426D01*
X013141Y007379D01*
X013019Y007379D01*
X012905Y007426D01*
X012844Y007487D01*
X012247Y007487D01*
X012130Y007604D01*
X010895Y008839D01*
X010895Y008426D01*
X010807Y008338D01*
X010168Y008338D01*
X010080Y008426D01*
X010080Y009065D01*
X010168Y009153D01*
X010582Y009153D01*
X010296Y009438D01*
X010242Y009384D01*
X010092Y009322D01*
X009930Y009322D01*
X009780Y009384D01*
X009666Y009499D01*
X009604Y009648D01*
X009604Y009810D01*
X009640Y009897D01*
X009398Y009897D01*
X009434Y009810D01*
X009434Y009648D01*
X009372Y009499D01*
X009258Y009384D01*
X009108Y009322D01*
X009064Y009322D01*
X009289Y009097D01*
X009422Y009153D01*
X009584Y009153D01*
X009734Y009091D01*
X009849Y008976D01*
X009911Y008826D01*
X009911Y008664D01*
X009849Y008514D01*
X009734Y008400D01*
X009584Y008338D01*
X009422Y008338D01*
X009272Y008400D01*
X009158Y008514D01*
X009096Y008664D01*
X009096Y008753D01*
X008551Y009297D01*
X008440Y009409D01*
X008440Y009624D01*
X008388Y009499D01*
X008273Y009384D01*
X008124Y009322D01*
X007962Y009322D01*
X007812Y009384D01*
X007697Y009499D01*
X007635Y009648D01*
X007635Y009810D01*
X007697Y009960D01*
X007812Y010075D01*
X007962Y010137D01*
X007962Y010137D01*
X007851Y010247D01*
X007740Y010359D01*
X007740Y011161D01*
X007655Y011076D01*
X007541Y011029D01*
X007419Y011029D01*
X007328Y011066D01*
X007328Y010036D01*
X007404Y009960D01*
X007466Y009810D01*
X007466Y009648D01*
X007404Y009499D01*
X007289Y009384D01*
X007139Y009322D01*
X006977Y009322D01*
X006828Y009384D01*
X006820Y009391D01*
X006820Y009051D01*
X006896Y008976D01*
X006958Y008826D01*
X006958Y008664D01*
X006896Y008514D01*
X006781Y008400D01*
X006632Y008338D01*
X006469Y008338D01*
X006320Y008400D01*
X006314Y008405D01*
X006303Y008378D01*
X006059Y008134D01*
X005983Y008058D01*
X005884Y008017D01*
X005276Y008017D01*
X005177Y008058D01*
X004927Y008308D01*
X004851Y008384D01*
X004810Y008484D01*
X004810Y012175D01*
X004443Y012543D01*
X004363Y012463D01*
X004179Y012387D01*
X003981Y012387D01*
X003797Y012463D01*
X003656Y012604D01*
X003580Y012788D01*
X003580Y012987D01*
X003656Y013171D01*
X003797Y013311D01*
X003981Y013387D01*
X004179Y013387D01*
X003981Y013387D01*
X003797Y013463D01*
X003656Y013604D01*
X003580Y013788D01*
X003580Y013987D01*
X003656Y014171D01*
X003797Y014311D01*
X003981Y014387D01*
X004179Y014387D01*
X003981Y014387D01*
X003797Y014463D01*
X003656Y014604D01*
X003580Y014788D01*
X003580Y014987D01*
X003656Y015171D01*
X003797Y015311D01*
X003981Y015387D01*
X004179Y015387D01*
X003981Y015387D01*
X003797Y015463D01*
X003656Y015604D01*
X003580Y015788D01*
X003580Y015987D01*
X003656Y016171D01*
X003797Y016311D01*
X003981Y016387D01*
X004179Y016387D01*
X003981Y016387D01*
X003797Y016463D01*
X003656Y016604D01*
X003580Y016788D01*
X003580Y016987D01*
X003656Y017171D01*
X003797Y017311D01*
X003981Y017387D01*
X004179Y017387D01*
X004363Y017311D01*
X004504Y017171D01*
X004580Y016987D01*
X004580Y016788D01*
X004504Y016604D01*
X004363Y016463D01*
X004179Y016387D01*
X004363Y016311D01*
X004504Y016171D01*
X004580Y015987D01*
X004580Y015819D01*
X004783Y015616D01*
X004859Y015540D01*
X004900Y015441D01*
X004900Y014977D01*
X006300Y013577D01*
X006300Y014014D01*
X006373Y014087D01*
X006300Y014160D01*
X006300Y014914D01*
X006373Y014987D01*
X006300Y015060D01*
X006300Y015814D01*
X006388Y015902D01*
X006972Y015902D01*
X006980Y015894D01*
X006988Y015902D01*
X007572Y015902D01*
X007660Y015814D01*
X007660Y015406D01*
X007740Y015406D01*
X007740Y017466D01*
X008041Y017767D01*
X008041Y017845D01*
X008085Y017951D01*
X008166Y018032D01*
X008273Y018076D01*
X008387Y018076D01*
X008494Y018032D01*
X008575Y017951D01*
X008580Y017938D01*
X008580Y017987D01*
X008656Y018171D01*
X008797Y018311D01*
X008981Y018387D01*
X009179Y018387D01*
X009363Y018311D01*
X009504Y018171D01*
X009580Y017987D01*
X009580Y017788D01*
X009504Y017604D01*
X009363Y017463D01*
X009179Y017387D01*
X009149Y017387D01*
X009149Y017387D01*
X009179Y017387D01*
X009363Y017311D01*
X009504Y017171D01*
X009580Y016987D01*
X009580Y016788D01*
X009656Y016604D01*
X009797Y016463D01*
X009981Y016387D01*
X010179Y016387D01*
X010363Y016463D01*
X010504Y016604D01*
X010580Y016788D01*
X010580Y016987D01*
X010504Y017171D01*
X010363Y017311D01*
X010179Y017387D01*
X009981Y017387D01*
X009797Y017311D01*
X009656Y017171D01*
X009580Y016987D01*
X009580Y016788D01*
X009504Y016604D01*
X009363Y016463D01*
X009179Y016387D01*
X008981Y016387D01*
X008797Y016463D01*
X008770Y016490D01*
X008770Y016284D01*
X008797Y016311D01*
X008981Y016387D01*
X009179Y016387D01*
X009363Y016311D01*
X009504Y016171D01*
X009580Y015987D01*
X009580Y015788D01*
X009656Y015604D01*
X009797Y015463D01*
X009981Y015387D01*
X010179Y015387D01*
X010363Y015463D01*
X010504Y015604D01*
X010580Y015788D01*
X010580Y015987D01*
X010504Y016171D01*
X010363Y016311D01*
X010179Y016387D01*
X009981Y016387D01*
X009797Y016311D01*
X009656Y016171D01*
X009580Y015987D01*
X009580Y015788D01*
X009504Y015604D01*
X009363Y015463D01*
X009290Y015433D01*
X009290Y015342D01*
X009363Y015311D01*
X009504Y015171D01*
X009580Y014987D01*
X009580Y014788D01*
X009656Y014604D01*
X009797Y014463D01*
X009981Y014387D01*
X010179Y014387D01*
X010363Y014463D01*
X010504Y014604D01*
X010580Y014788D01*
X010580Y014987D01*
X010504Y015171D01*
X010363Y015311D01*
X010179Y015387D01*
X009981Y015387D01*
X009797Y015311D01*
X009656Y015171D01*
X009580Y014987D01*
X009580Y014788D01*
X009504Y014604D01*
X009363Y014463D01*
X009179Y014387D01*
X008981Y014387D01*
X008797Y014463D01*
X008770Y014490D01*
X008770Y014284D01*
X008797Y014311D01*
X008981Y014387D01*
X009179Y014387D01*
X009363Y014311D01*
X009504Y014171D01*
X009580Y013987D01*
X009580Y013788D01*
X009656Y013604D01*
X009797Y013463D01*
X009981Y013387D01*
X010179Y013387D01*
X010363Y013463D01*
X010504Y013604D01*
X010580Y013788D01*
X010580Y013987D01*
X010504Y014171D01*
X010363Y014311D01*
X010179Y014387D01*
X009981Y014387D01*
X009797Y014311D01*
X009656Y014171D01*
X009580Y013987D01*
X009580Y013788D01*
X009504Y013604D01*
X009363Y013463D01*
X009179Y013387D01*
X008981Y013387D01*
X008797Y013463D01*
X008770Y013490D01*
X008770Y013284D01*
X008797Y013311D01*
X008981Y013387D01*
X009179Y013387D01*
X009363Y013311D01*
X009504Y013171D01*
X009580Y012987D01*
X009580Y012788D01*
X009656Y012604D01*
X009797Y012463D01*
X009981Y012387D01*
X010179Y012387D01*
X010363Y012463D01*
X010504Y012604D01*
X010580Y012788D01*
X010580Y012987D01*
X010504Y013171D01*
X010363Y013311D01*
X010179Y013387D01*
X009981Y013387D01*
X009797Y013311D01*
X009656Y013171D01*
X009580Y012987D01*
X009580Y012788D01*
X009504Y012604D01*
X009363Y012463D01*
X009179Y012387D01*
X008981Y012387D01*
X008797Y012463D01*
X008770Y012490D01*
X008770Y012284D01*
X008797Y012311D01*
X008981Y012387D01*
X009179Y012387D01*
X009363Y012311D01*
X009504Y012171D01*
X009580Y011987D01*
X009580Y011788D01*
X009504Y011604D01*
X009363Y011463D01*
X009179Y011387D01*
X008981Y011387D01*
X008797Y011463D01*
X008770Y011490D01*
X008770Y011284D01*
X008797Y011311D01*
X008981Y011387D01*
X009179Y011387D01*
X009363Y011311D01*
X009504Y011171D01*
X009580Y010987D01*
X009580Y010788D01*
X009518Y010637D01*
X009642Y010637D01*
X009580Y010788D01*
X009580Y010987D01*
X009656Y011171D01*
X009797Y011311D01*
X009981Y011387D01*
X010179Y011387D01*
X010363Y011311D01*
X010504Y011171D01*
X010580Y010987D01*
X010580Y010788D01*
X010518Y010637D01*
X011399Y010637D01*
X011899Y010137D01*
X013347Y010137D01*
X012380Y011104D01*
X012380Y011606D01*
X012341Y011513D01*
X012255Y011426D01*
X012141Y011379D01*
X012019Y011379D01*
X011905Y011426D01*
X011819Y011513D01*
X011772Y011626D01*
X011772Y011749D01*
X011819Y011862D01*
X011880Y011923D01*
X011880Y012104D01*
X011856Y012129D01*
X011769Y012129D01*
X011655Y012176D01*
X011569Y012263D01*
X011522Y012376D01*
X011522Y012499D01*
X011569Y012612D01*
X011655Y012699D01*
X011769Y012746D01*
X011891Y012746D01*
X012005Y012699D01*
X012091Y012612D01*
X012138Y012499D01*
X012138Y012412D01*
X012280Y012270D01*
X012280Y011923D01*
X012341Y011862D01*
X012380Y011769D01*
X012380Y013354D01*
X012356Y013379D01*
X012269Y013379D01*
X012155Y013426D01*
X012069Y013513D01*
X012022Y013626D01*
X012022Y013749D01*
X012069Y013862D01*
X012155Y013949D01*
X012269Y013996D01*
X012391Y013996D01*
X012505Y013949D01*
X012580Y013873D01*
X012655Y013949D01*
X012769Y013996D01*
X012891Y013996D01*
X013005Y013949D01*
X013091Y013862D01*
X013138Y013749D01*
X013138Y013626D01*
X013091Y013513D01*
X013030Y013451D01*
X013030Y011270D01*
X013823Y010477D01*
X014783Y010477D01*
X014656Y010604D01*
X014580Y010788D01*
X014580Y010987D01*
X014656Y011171D01*
X014797Y011311D01*
X014981Y011387D01*
X015179Y011387D01*
X015363Y011463D01*
X015504Y011604D01*
X015580Y011788D01*
X015580Y011987D01*
X015504Y012171D01*
X015363Y012311D01*
X015179Y012387D01*
X014981Y012387D01*
X014797Y012311D01*
X014660Y012174D01*
X014660Y012214D01*
X014572Y012302D01*
X013988Y012302D01*
X013980Y012294D01*
X013972Y012302D01*
X013880Y012302D01*
X013880Y012372D01*
X013972Y012372D01*
X013980Y012380D01*
X013988Y012372D01*
X014572Y012372D01*
X014660Y012460D01*
X014660Y012600D01*
X014797Y012463D01*
X014981Y012387D01*
X015179Y012387D01*
X015363Y012463D01*
X015504Y012604D01*
X015580Y012788D01*
X015580Y012987D01*
X015504Y013171D01*
X015363Y013311D01*
X015179Y013387D01*
X015363Y013463D01*
X015504Y013604D01*
X015580Y013788D01*
X015580Y013987D01*
X015504Y014171D01*
X015363Y014311D01*
X015179Y014387D01*
X014981Y014387D01*
X014797Y014311D01*
X014660Y014174D01*
X014660Y014214D01*
X014572Y014302D01*
X013988Y014302D01*
X013980Y014294D01*
X013972Y014302D01*
X013388Y014302D01*
X013300Y014214D01*
X013300Y013460D01*
X013388Y013372D01*
X013480Y013372D01*
X013480Y013302D01*
X013388Y013302D01*
X013300Y013214D01*
X013300Y012460D01*
X013388Y012372D01*
X013480Y012372D01*
X013480Y012302D01*
X013388Y012302D01*
X013300Y012214D01*
X013300Y011593D01*
X013219Y011512D01*
X013172Y011399D01*
X013172Y011276D01*
X013219Y011163D01*
X013305Y011076D01*
X013419Y011029D01*
X013541Y011029D01*
X013655Y011076D01*
X013741Y011163D01*
X013788Y011276D01*
X013788Y011363D01*
X013798Y011372D01*
X013972Y011372D01*
X013980Y011380D01*
X013988Y011372D01*
X014572Y011372D01*
X014660Y011460D01*
X014660Y011600D01*
X014797Y011463D01*
X014981Y011387D01*
X015179Y011387D01*
X015363Y011311D01*
X015504Y011171D01*
X015580Y010987D01*
X015580Y010788D01*
X015518Y010637D01*
X015642Y010637D01*
X015580Y010788D01*
X015580Y010987D01*
X015656Y011171D01*
X015797Y011311D01*
X015981Y011387D01*
X016179Y011387D01*
X016363Y011311D01*
X016504Y011171D01*
X016580Y010987D01*
X016580Y010788D01*
X016518Y010637D01*
X018597Y010637D01*
X018380Y010854D01*
X018380Y011606D01*
X018341Y011513D01*
X018255Y011426D01*
X018141Y011379D01*
X018019Y011379D01*
X017905Y011426D01*
X017819Y011513D01*
X017772Y011626D01*
X017772Y011749D01*
X017819Y011862D01*
X017880Y011923D01*
X017880Y012104D01*
X017856Y012129D01*
X017769Y012129D01*
X017655Y012176D01*
X017569Y012263D01*
X017522Y012376D01*
X017522Y012499D01*
X017569Y012612D01*
X017655Y012699D01*
X017769Y012746D01*
X017891Y012746D01*
X018005Y012699D01*
X018091Y012612D01*
X018138Y012499D01*
X018138Y012412D01*
X018280Y012270D01*
X018280Y011923D01*
X018341Y011862D01*
X018380Y011769D01*
X018380Y013354D01*
X018356Y013379D01*
X018269Y013379D01*
X018155Y013426D01*
X018069Y013513D01*
X018022Y013626D01*
X018022Y013749D01*
X018069Y013862D01*
X018155Y013949D01*
X018269Y013996D01*
X018391Y013996D01*
X018505Y013949D01*
X018580Y013873D01*
X018655Y013949D01*
X018769Y013996D01*
X018891Y013996D01*
X019005Y013949D01*
X019091Y013862D01*
X019138Y013749D01*
X019138Y013626D01*
X019091Y013513D01*
X019030Y013451D01*
X019030Y011020D01*
X019583Y010467D01*
X020793Y010467D01*
X020656Y010604D01*
X020580Y010788D01*
X020580Y010987D01*
X020656Y011171D01*
X020797Y011311D01*
X020981Y011387D01*
X021179Y011387D01*
X021363Y011463D01*
X021504Y011604D01*
X021580Y011788D01*
X021580Y011987D01*
X021504Y012171D01*
X021363Y012311D01*
X021179Y012387D01*
X021363Y012463D01*
X021504Y012604D01*
X021580Y012788D01*
X021580Y012987D01*
X021504Y013171D01*
X021363Y013311D01*
X021179Y013387D01*
X021363Y013463D01*
X021504Y013604D01*
X021580Y013788D01*
X021580Y013987D01*
X021504Y014171D01*
X021363Y014311D01*
X021179Y014387D01*
X020981Y014387D01*
X020797Y014311D01*
X020660Y014174D01*
X020660Y014214D01*
X020572Y014302D01*
X019988Y014302D01*
X019980Y014294D01*
X019972Y014302D01*
X019388Y014302D01*
X019300Y014214D01*
X019300Y013460D01*
X019388Y013372D01*
X019480Y013372D01*
X019480Y013302D01*
X019388Y013302D01*
X019300Y013214D01*
X019300Y012460D01*
X019388Y012372D01*
X019480Y012372D01*
X019480Y012302D01*
X019388Y012302D01*
X019300Y012214D01*
X019300Y011593D01*
X019219Y011512D01*
X019172Y011399D01*
X019172Y011276D01*
X019219Y011163D01*
X019305Y011076D01*
X019419Y011029D01*
X019541Y011029D01*
X019655Y011076D01*
X019741Y011163D01*
X019788Y011276D01*
X019788Y011363D01*
X019798Y011372D01*
X019972Y011372D01*
X019980Y011380D01*
X019988Y011372D01*
X020572Y011372D01*
X020660Y011460D01*
X020660Y011600D01*
X020797Y011463D01*
X020981Y011387D01*
X021179Y011387D01*
X021363Y011311D01*
X021504Y011171D01*
X021580Y010987D01*
X021580Y010788D01*
X021513Y010627D01*
X021647Y010627D01*
X021580Y010788D01*
X021580Y010987D01*
X021656Y011171D01*
X021797Y011311D01*
X021981Y011387D01*
X022179Y011387D01*
X022363Y011311D01*
X022504Y011171D01*
X022580Y010987D01*
X022580Y010788D01*
X022513Y010627D01*
X026647Y010627D01*
X026580Y010788D01*
X026580Y010987D01*
X026656Y011171D01*
X026797Y011311D01*
X026981Y011387D01*
X027179Y011387D01*
X027363Y011311D01*
X027390Y011284D01*
X027390Y011490D01*
X027363Y011463D01*
X027179Y011387D01*
X026981Y011387D01*
X026797Y011463D01*
X026660Y011600D01*
X026660Y011460D01*
X026572Y011372D01*
X025988Y011372D01*
X025980Y011380D01*
X025972Y011372D01*
X025798Y011372D01*
X025788Y011363D01*
X025788Y011276D01*
X025741Y011163D01*
X025655Y011076D01*
X025541Y011029D01*
X025419Y011029D01*
X025305Y011076D01*
X025219Y011163D01*
X025172Y011276D01*
X025172Y011399D01*
X025219Y011512D01*
X025300Y011593D01*
X025300Y012214D01*
X025388Y012302D01*
X025480Y012302D01*
X025480Y012372D01*
X025388Y012372D01*
X025300Y012460D01*
X025300Y013214D01*
X025388Y013302D01*
X025480Y013302D01*
X025480Y013372D01*
X025388Y013372D01*
X025300Y013460D01*
X025300Y014074D01*
X025180Y013954D01*
X025180Y012754D01*
X025063Y012637D01*
X024663Y012237D01*
X024280Y012237D01*
X024280Y011923D01*
X024341Y011862D01*
X024388Y011749D01*
X024388Y011626D01*
X024341Y011513D01*
X024255Y011426D01*
X024141Y011379D01*
X024019Y011379D01*
X023905Y011426D01*
X023819Y011513D01*
X023772Y011626D01*
X023772Y011749D01*
X023819Y011862D01*
X023880Y011923D01*
X023880Y012104D01*
X023856Y012129D01*
X023769Y012129D01*
X023655Y012176D01*
X023569Y012263D01*
X023522Y012376D01*
X023522Y012499D01*
X023569Y012612D01*
X023655Y012699D01*
X023769Y012746D01*
X023891Y012746D01*
X024005Y012699D01*
X024066Y012637D01*
X024497Y012637D01*
X024780Y012920D01*
X024780Y014120D01*
X025130Y014470D01*
X025247Y014587D01*
X026673Y014587D01*
X026656Y014604D01*
X026580Y014788D01*
X026580Y014987D01*
X026656Y015171D01*
X026797Y015311D01*
X026870Y015342D01*
X026870Y015433D01*
X026797Y015463D01*
X026718Y015542D01*
X026388Y015213D01*
X026388Y015126D01*
X026341Y015013D01*
X026255Y014926D01*
X026141Y014879D01*
X026019Y014879D01*
X025905Y014926D01*
X025819Y015013D01*
X025772Y015126D01*
X025772Y015249D01*
X025819Y015362D01*
X025905Y015449D01*
X026019Y015496D01*
X026106Y015496D01*
X026380Y015770D01*
X026380Y018270D01*
X026497Y018387D01*
X026497Y018387D01*
X026580Y018470D01*
X026580Y018470D01*
X026697Y018587D01*
X028455Y018587D01*
X028455Y018599D01*
X028543Y018687D01*
X028785Y018687D01*
X028365Y019106D01*
X028271Y019067D01*
X028064Y019067D01*
X027873Y019146D01*
X027727Y019293D01*
X027648Y019484D01*
X027648Y019691D01*
X027692Y019799D01*
X027623Y019799D01*
X027516Y019843D01*
X027435Y019924D01*
X027391Y020030D01*
X027391Y020145D01*
X003375Y020145D01*
X003344Y020102D02*
X003452Y020250D01*
X003601Y020358D01*
X003776Y020415D01*
X003867Y020422D01*
X041663Y020422D01*
X041755Y020415D01*
X041929Y020358D01*
X042078Y020250D01*
X042186Y020102D01*
X042243Y019927D01*
X042250Y019835D01*
X042250Y001725D01*
X040100Y001725D01*
X040100Y001741D02*
X040021Y001932D01*
X039875Y002078D01*
X039683Y002157D01*
X039477Y002157D01*
X039285Y002078D01*
X039139Y001932D01*
X039100Y001837D01*
X039100Y001841D01*
X039021Y002032D01*
X038875Y002178D01*
X038683Y002257D01*
X038477Y002257D01*
X038285Y002178D01*
X038139Y002032D01*
X038060Y001841D01*
X038060Y001837D01*
X038021Y001932D01*
X037875Y002078D01*
X037683Y002157D01*
X037558Y002157D01*
X037575Y002174D01*
X037619Y002280D01*
X037619Y002357D01*
X037759Y002497D01*
X038612Y002497D01*
X038666Y002443D01*
X038773Y002399D01*
X038887Y002399D01*
X038994Y002443D01*
X039075Y002524D01*
X039119Y002630D01*
X039119Y002745D01*
X039075Y002851D01*
X038994Y002932D01*
X038967Y002943D01*
X040250Y004225D01*
X040250Y003958D01*
X040372Y003664D01*
X040597Y003439D01*
X040891Y003317D01*
X041209Y003317D01*
X041503Y003439D01*
X041728Y003664D01*
X041850Y003958D01*
X041850Y004276D01*
X041728Y004570D01*
X041531Y004767D01*
X041784Y004767D01*
X041883Y004808D01*
X042209Y005134D01*
X042250Y005234D01*
X042250Y014341D01*
X042209Y014440D01*
X042133Y014516D01*
X041583Y015066D01*
X041484Y015107D01*
X040832Y015107D01*
X040848Y015123D01*
X040939Y015341D01*
X040939Y015577D01*
X040848Y015795D01*
X040682Y015962D01*
X040464Y016052D01*
X040228Y016052D01*
X040010Y015962D01*
X039843Y015795D01*
X039753Y015577D01*
X039753Y015341D01*
X039785Y015264D01*
X039098Y015951D01*
X039107Y015947D01*
X039313Y015947D01*
X039505Y016026D01*
X039651Y016173D01*
X039730Y016364D01*
X039730Y016571D01*
X039651Y016762D01*
X039505Y016908D01*
X039313Y016987D01*
X039107Y016987D01*
X038915Y016908D01*
X038900Y016893D01*
X038900Y017841D01*
X038859Y017940D01*
X038783Y018016D01*
X038283Y018516D01*
X038184Y018557D01*
X029705Y018557D01*
X029705Y018599D01*
X029617Y018687D01*
X029280Y018687D01*
X029280Y018758D01*
X028648Y019389D01*
X028687Y019484D01*
X028687Y019691D01*
X028608Y019882D01*
X028493Y019997D01*
X029501Y019997D01*
X029694Y019804D01*
X029648Y019691D01*
X029648Y019484D01*
X029727Y019293D01*
X029873Y019146D01*
X030064Y019067D01*
X030271Y019067D01*
X030462Y019146D01*
X030608Y019293D01*
X030668Y019436D01*
X030727Y019293D01*
X030873Y019146D01*
X031064Y019067D01*
X031271Y019067D01*
X031462Y019146D01*
X031608Y019293D01*
X031687Y019484D01*
X031687Y019691D01*
X031608Y019882D01*
X031462Y020028D01*
X031271Y020107D01*
X031064Y020107D01*
X030873Y020028D01*
X030727Y019882D01*
X030668Y019739D01*
X030608Y019882D01*
X030462Y020028D01*
X030271Y020107D01*
X030064Y020107D01*
X029968Y020068D01*
X029659Y020377D01*
X027701Y020377D01*
X027700Y020376D01*
X027623Y020376D01*
X027516Y020332D01*
X027435Y020251D01*
X027391Y020145D01*
X027391Y020046D02*
X003326Y020046D01*
X003344Y020102D02*
X003287Y019927D01*
X003280Y019835D01*
X003280Y007095D01*
X003349Y007164D01*
X003556Y007250D01*
X004604Y007250D01*
X004811Y007164D01*
X004969Y007006D01*
X005055Y006799D01*
X005055Y006575D01*
X004969Y006369D01*
X004811Y006210D01*
X004604Y006125D01*
X003556Y006125D01*
X003349Y006210D01*
X003280Y006279D01*
X003280Y001725D01*
X003289Y001627D02*
X011363Y001627D01*
X011360Y001634D02*
X011439Y001443D01*
X011585Y001296D01*
X011777Y001217D01*
X011983Y001217D01*
X012175Y001296D01*
X012321Y001443D01*
X012360Y001537D01*
X012360Y001534D01*
X012439Y001343D01*
X012585Y001196D01*
X012728Y001137D01*
X003867Y001137D01*
X003776Y001145D01*
X003601Y001201D01*
X003452Y001309D01*
X003344Y001458D01*
X003365Y001430D02*
X011452Y001430D01*
X011404Y001528D02*
X003321Y001528D01*
X003436Y001331D02*
X011551Y001331D01*
X011739Y001233D02*
X003557Y001233D01*
X003867Y000937D02*
X041663Y000937D01*
X041663Y001137D02*
X039732Y001137D01*
X039875Y001196D01*
X040021Y001343D01*
X040100Y001534D01*
X040100Y001741D01*
X040066Y001824D02*
X042250Y001824D01*
X042250Y001922D02*
X040025Y001922D01*
X039932Y002021D02*
X042250Y002021D01*
X042250Y002119D02*
X039775Y002119D01*
X039385Y002119D02*
X038933Y002119D01*
X039025Y002021D02*
X039228Y002021D01*
X039135Y001922D02*
X039066Y001922D01*
X038779Y002218D02*
X042250Y002218D01*
X042250Y002316D02*
X037619Y002316D01*
X037593Y002218D02*
X038381Y002218D01*
X038227Y002119D02*
X037775Y002119D01*
X037932Y002021D02*
X038135Y002021D01*
X038094Y001922D02*
X038025Y001922D01*
X038580Y001737D02*
X038580Y001437D01*
X038280Y001137D01*
X036880Y001137D01*
X036580Y001437D01*
X036580Y001737D01*
X037030Y002187D01*
X037030Y002537D01*
X036815Y002316D02*
X029238Y002316D01*
X029238Y002349D02*
X029191Y002462D01*
X029105Y002549D01*
X028991Y002596D01*
X028869Y002596D01*
X028755Y002549D01*
X028694Y002487D01*
X026847Y002487D01*
X026730Y002370D01*
X026643Y002283D01*
X026583Y002307D01*
X026377Y002307D01*
X026185Y002228D01*
X026039Y002082D01*
X025960Y001891D01*
X025960Y001684D01*
X026039Y001493D01*
X026185Y001346D01*
X026377Y001267D01*
X026583Y001267D01*
X026775Y001346D01*
X026921Y001493D01*
X026980Y001636D01*
X027039Y001493D01*
X027185Y001346D01*
X027377Y001267D01*
X027583Y001267D01*
X027775Y001346D01*
X027921Y001493D01*
X027980Y001636D01*
X028039Y001493D01*
X028185Y001346D01*
X028377Y001267D01*
X028583Y001267D01*
X028775Y001346D01*
X028921Y001493D01*
X028980Y001636D01*
X029039Y001493D01*
X029185Y001346D01*
X029377Y001267D01*
X029583Y001267D01*
X029775Y001346D01*
X029921Y001493D01*
X030000Y001684D01*
X030000Y001891D01*
X029921Y002082D01*
X029775Y002228D01*
X029583Y002307D01*
X029377Y002307D01*
X029238Y002250D01*
X029238Y002349D01*
X029211Y002415D02*
X036747Y002415D01*
X036769Y002363D02*
X036830Y002301D01*
X036830Y002270D01*
X036817Y002257D01*
X036148Y002257D01*
X036060Y002169D01*
X036060Y001305D01*
X036148Y001217D01*
X036517Y001217D01*
X036597Y001137D01*
X023780Y001137D01*
X023780Y003855D01*
X023910Y003725D01*
X023910Y003384D01*
X023951Y003284D01*
X024027Y003208D01*
X024527Y002708D01*
X024626Y002667D01*
X036750Y002667D01*
X036722Y002599D01*
X036722Y002476D01*
X036769Y002363D01*
X036722Y002513D02*
X029140Y002513D01*
X028930Y002287D02*
X026930Y002287D01*
X026480Y001837D01*
X026480Y001787D01*
X026014Y002021D02*
X023780Y002021D01*
X023780Y002119D02*
X026077Y002119D01*
X026175Y002218D02*
X023780Y002218D01*
X023780Y002316D02*
X026676Y002316D01*
X026775Y002415D02*
X023780Y002415D01*
X023780Y002513D02*
X028720Y002513D01*
X029785Y002218D02*
X036108Y002218D01*
X036060Y002119D02*
X029883Y002119D01*
X029946Y002021D02*
X036060Y002021D01*
X036060Y001922D02*
X029987Y001922D01*
X030000Y001824D02*
X036060Y001824D01*
X036060Y001725D02*
X030000Y001725D01*
X029976Y001627D02*
X036060Y001627D01*
X036060Y001528D02*
X029936Y001528D01*
X029858Y001430D02*
X036060Y001430D01*
X036060Y001331D02*
X029738Y001331D01*
X030330Y001137D02*
X030630Y001437D01*
X030330Y001137D02*
X025730Y001137D01*
X025430Y001437D01*
X025430Y001737D01*
X025480Y001787D01*
X025430Y001737D02*
X025280Y001737D01*
X023930Y003087D01*
X023930Y003737D01*
X023300Y004367D01*
X014660Y004367D01*
X014294Y004001D01*
X013564Y004001D01*
X013560Y003997D01*
X013355Y003794D02*
X014630Y003794D01*
X014630Y003892D02*
X013270Y003892D01*
X013213Y003991D02*
X014630Y003991D01*
X014630Y004089D02*
X013057Y004089D01*
X012903Y004089D02*
X006604Y004089D01*
X006572Y004102D02*
X006388Y004102D01*
X006217Y004032D01*
X006086Y003901D01*
X006015Y003730D01*
X006015Y003545D01*
X006086Y003374D01*
X006217Y003243D01*
X006388Y003172D01*
X006572Y003172D01*
X006743Y003243D01*
X006874Y003374D01*
X006945Y003545D01*
X006945Y003730D01*
X006874Y003901D01*
X006743Y004032D01*
X006572Y004102D01*
X006356Y004089D02*
X003280Y004089D01*
X003280Y003991D02*
X006176Y003991D01*
X006082Y003892D02*
X003280Y003892D01*
X003280Y003794D02*
X006042Y003794D01*
X006015Y003695D02*
X003280Y003695D01*
X003280Y003597D02*
X006015Y003597D01*
X006034Y003498D02*
X003280Y003498D01*
X003280Y003400D02*
X006075Y003400D01*
X006158Y003301D02*
X003280Y003301D01*
X003280Y003203D02*
X006314Y003203D01*
X006646Y003203D02*
X011645Y003203D01*
X011512Y003104D02*
X003280Y003104D01*
X003280Y003006D02*
X011428Y003006D01*
X011388Y002907D02*
X003280Y002907D01*
X003280Y002809D02*
X011360Y002809D01*
X011360Y002710D02*
X003280Y002710D01*
X003280Y002612D02*
X011369Y002612D01*
X011410Y002513D02*
X003280Y002513D01*
X003280Y002415D02*
X011467Y002415D01*
X011566Y002316D02*
X003280Y002316D01*
X003280Y002218D02*
X011681Y002218D01*
X011527Y002119D02*
X003280Y002119D01*
X003280Y002021D02*
X011435Y002021D01*
X011394Y001922D02*
X003280Y001922D01*
X003280Y001824D02*
X011360Y001824D01*
X012209Y001331D02*
X012451Y001331D01*
X012403Y001430D02*
X012308Y001430D01*
X012356Y001528D02*
X012362Y001528D01*
X012549Y001233D02*
X012021Y001233D01*
X013211Y001233D02*
X013739Y001233D01*
X013551Y001331D02*
X013309Y001331D01*
X013357Y001430D02*
X013452Y001430D01*
X013404Y001528D02*
X013398Y001528D01*
X014021Y001233D02*
X014630Y001233D01*
X014630Y001331D02*
X014209Y001331D01*
X014308Y001430D02*
X014630Y001430D01*
X014630Y001528D02*
X014356Y001528D01*
X014397Y001627D02*
X014630Y001627D01*
X014630Y001725D02*
X014400Y001725D01*
X014400Y001824D02*
X014630Y001824D01*
X014630Y001922D02*
X014366Y001922D01*
X014325Y002021D02*
X014630Y002021D01*
X014630Y002119D02*
X014233Y002119D01*
X014079Y002218D02*
X014630Y002218D01*
X014630Y002316D02*
X014194Y002316D01*
X014293Y002415D02*
X014630Y002415D01*
X014630Y002513D02*
X014350Y002513D01*
X014391Y002612D02*
X014630Y002612D01*
X014630Y002710D02*
X014400Y002710D01*
X014400Y002809D02*
X014630Y002809D01*
X014630Y002907D02*
X014372Y002907D01*
X014332Y003006D02*
X014630Y003006D01*
X014630Y003104D02*
X014248Y003104D01*
X014115Y003203D02*
X014630Y003203D01*
X014630Y003301D02*
X013848Y003301D01*
X013749Y003400D02*
X014630Y003400D01*
X014630Y003498D02*
X013651Y003498D01*
X013552Y003597D02*
X014630Y003597D01*
X014630Y003695D02*
X013454Y003695D01*
X012986Y003400D02*
X006885Y003400D01*
X006926Y003498D02*
X012872Y003498D01*
X012734Y003597D02*
X006945Y003597D01*
X006945Y003695D02*
X012684Y003695D01*
X012672Y003794D02*
X006918Y003794D01*
X006878Y003892D02*
X012690Y003892D01*
X012747Y003991D02*
X006784Y003991D01*
X006802Y003301D02*
X013084Y003301D01*
X013183Y003203D02*
X012115Y003203D01*
X012248Y003104D02*
X012649Y003104D01*
X012513Y003006D02*
X012332Y003006D01*
X012372Y002907D02*
X012429Y002907D01*
X013111Y003104D02*
X013281Y003104D01*
X013247Y003006D02*
X013380Y003006D01*
X013388Y002907D02*
X013331Y002907D01*
X014830Y002907D02*
X023580Y002907D01*
X023580Y002809D02*
X014830Y002809D01*
X014830Y002710D02*
X023580Y002710D01*
X023580Y002612D02*
X014830Y002612D01*
X014830Y002513D02*
X023580Y002513D01*
X023580Y002415D02*
X014830Y002415D01*
X014830Y002316D02*
X023580Y002316D01*
X023580Y002218D02*
X014830Y002218D01*
X014830Y002119D02*
X023580Y002119D01*
X023580Y002021D02*
X023134Y002021D01*
X023105Y002033D02*
X022933Y002033D01*
X022773Y001966D01*
X022651Y001844D01*
X022584Y001684D01*
X022584Y001511D01*
X022651Y001352D01*
X022773Y001229D01*
X022933Y001163D01*
X023105Y001163D01*
X023265Y001229D01*
X023387Y001352D01*
X023454Y001511D01*
X023454Y001684D01*
X023387Y001844D01*
X023265Y001966D01*
X023105Y002033D01*
X022904Y002021D02*
X020134Y002021D01*
X020105Y002033D02*
X019933Y002033D01*
X019773Y001966D01*
X019651Y001844D01*
X019584Y001684D01*
X019584Y001511D01*
X019651Y001352D01*
X019773Y001229D01*
X019933Y001163D01*
X020105Y001163D01*
X020265Y001229D01*
X020387Y001352D01*
X020454Y001511D01*
X020454Y001684D01*
X020387Y001844D01*
X020265Y001966D01*
X020105Y002033D01*
X019904Y002021D02*
X017134Y002021D01*
X017105Y002033D02*
X016933Y002033D01*
X016773Y001966D01*
X016651Y001844D01*
X016584Y001684D01*
X016584Y001511D01*
X016651Y001352D01*
X016773Y001229D01*
X016933Y001163D01*
X017105Y001163D01*
X017265Y001229D01*
X017387Y001352D01*
X017454Y001511D01*
X017454Y001684D01*
X017387Y001844D01*
X017265Y001966D01*
X017105Y002033D01*
X016904Y002021D02*
X014830Y002021D01*
X014830Y001922D02*
X016729Y001922D01*
X016642Y001824D02*
X014830Y001824D01*
X014830Y001725D02*
X016601Y001725D01*
X016584Y001627D02*
X014830Y001627D01*
X014830Y001528D02*
X016584Y001528D01*
X016618Y001430D02*
X014830Y001430D01*
X014830Y001331D02*
X016671Y001331D01*
X016769Y001233D02*
X014830Y001233D01*
X014830Y001137D02*
X014830Y004187D01*
X023254Y004187D01*
X023580Y003861D01*
X023580Y001137D01*
X014830Y001137D01*
X017269Y001233D02*
X019769Y001233D01*
X019671Y001331D02*
X017367Y001331D01*
X017420Y001430D02*
X019618Y001430D01*
X019584Y001528D02*
X017454Y001528D01*
X017454Y001627D02*
X019584Y001627D01*
X019601Y001725D02*
X017437Y001725D01*
X017396Y001824D02*
X019642Y001824D01*
X019729Y001922D02*
X017309Y001922D01*
X014830Y003006D02*
X023580Y003006D01*
X023580Y003104D02*
X014830Y003104D01*
X014830Y003203D02*
X023580Y003203D01*
X023580Y003301D02*
X014830Y003301D01*
X014830Y003400D02*
X023580Y003400D01*
X023580Y003498D02*
X014830Y003498D01*
X014830Y003597D02*
X023580Y003597D01*
X023580Y003695D02*
X014830Y003695D01*
X014830Y003794D02*
X023580Y003794D01*
X023549Y003892D02*
X014830Y003892D01*
X014830Y003991D02*
X023450Y003991D01*
X023352Y004089D02*
X014830Y004089D01*
X014630Y004188D02*
X003280Y004188D01*
X003280Y004286D02*
X014646Y004286D01*
X013740Y005074D02*
X013212Y005074D01*
X013666Y005271D02*
X012274Y005271D01*
X012299Y005370D02*
X013641Y005370D01*
X013651Y005468D02*
X012289Y005468D01*
X012239Y005567D02*
X013701Y005567D01*
X013847Y005665D02*
X012093Y005665D01*
X011927Y005665D02*
X003280Y005665D01*
X003280Y005567D02*
X011781Y005567D01*
X011731Y005468D02*
X003280Y005468D01*
X003280Y005370D02*
X011721Y005370D01*
X011746Y005271D02*
X003280Y005271D01*
X003280Y005173D02*
X011816Y005173D01*
X011924Y005074D02*
X003280Y005074D01*
X003280Y004976D02*
X012023Y004976D01*
X012121Y004877D02*
X003280Y004877D01*
X003280Y004779D02*
X012220Y004779D01*
X012672Y004680D02*
X003280Y004680D01*
X003280Y004582D02*
X012672Y004582D01*
X012710Y004483D02*
X003280Y004483D01*
X003280Y004385D02*
X012796Y004385D01*
X012363Y005173D02*
X013736Y005173D01*
X014194Y005271D02*
X023690Y005271D01*
X023690Y005370D02*
X014219Y005370D01*
X014209Y005468D02*
X023690Y005468D01*
X023690Y005567D02*
X014159Y005567D01*
X014013Y005665D02*
X023690Y005665D01*
X023690Y005764D02*
X003280Y005764D01*
X003280Y005862D02*
X023690Y005862D01*
X023715Y005961D02*
X003280Y005961D01*
X003280Y006059D02*
X023813Y006059D01*
X023912Y006158D02*
X004684Y006158D01*
X004857Y006256D02*
X017728Y006256D01*
X017630Y006355D02*
X004956Y006355D01*
X005004Y006453D02*
X017630Y006453D01*
X017630Y006552D02*
X005045Y006552D01*
X005055Y006650D02*
X017630Y006650D01*
X017630Y006749D02*
X005055Y006749D01*
X005035Y006847D02*
X017630Y006847D01*
X017630Y006946D02*
X004994Y006946D01*
X004931Y007044D02*
X017630Y007044D01*
X017630Y007143D02*
X004832Y007143D01*
X004625Y007241D02*
X017630Y007241D01*
X017630Y007340D02*
X003280Y007340D01*
X003280Y007438D02*
X012893Y007438D01*
X013080Y007687D02*
X012330Y007687D01*
X010288Y009729D01*
X010011Y009729D01*
X009604Y009704D02*
X009434Y009704D01*
X009434Y009802D02*
X009604Y009802D01*
X009621Y009605D02*
X009416Y009605D01*
X009376Y009507D02*
X009662Y009507D01*
X009756Y009408D02*
X009282Y009408D01*
X009175Y009211D02*
X010523Y009211D01*
X010425Y009310D02*
X009076Y009310D01*
X009273Y009113D02*
X009326Y009113D01*
X009680Y009113D02*
X010128Y009113D01*
X010080Y009014D02*
X009810Y009014D01*
X009874Y008916D02*
X010080Y008916D01*
X010080Y008817D02*
X009911Y008817D01*
X009911Y008719D02*
X010080Y008719D01*
X010080Y008620D02*
X009893Y008620D01*
X009852Y008522D02*
X010080Y008522D01*
X010082Y008423D02*
X009758Y008423D01*
X009249Y008423D02*
X007789Y008423D01*
X007766Y008400D02*
X007880Y008514D01*
X007942Y008664D01*
X007942Y008826D01*
X007880Y008976D01*
X007766Y009091D01*
X007616Y009153D01*
X007454Y009153D01*
X007304Y009091D01*
X007189Y008976D01*
X007127Y008826D01*
X007127Y008664D01*
X007189Y008514D01*
X007304Y008400D01*
X007454Y008338D01*
X007616Y008338D01*
X007766Y008400D01*
X007883Y008522D02*
X009155Y008522D01*
X009114Y008620D02*
X007924Y008620D01*
X007942Y008719D02*
X009096Y008719D01*
X009031Y008817D02*
X007942Y008817D01*
X007905Y008916D02*
X008933Y008916D01*
X008834Y009014D02*
X007842Y009014D01*
X007712Y009113D02*
X008736Y009113D01*
X008637Y009211D02*
X006820Y009211D01*
X006820Y009113D02*
X007358Y009113D01*
X007228Y009014D02*
X006858Y009014D01*
X006921Y008916D02*
X007164Y008916D01*
X007127Y008817D02*
X006958Y008817D01*
X006958Y008719D02*
X007127Y008719D01*
X007145Y008620D02*
X006940Y008620D01*
X006899Y008522D02*
X007186Y008522D01*
X007280Y008423D02*
X006805Y008423D01*
X006249Y008325D02*
X011410Y008325D01*
X011508Y008226D02*
X006151Y008226D01*
X006052Y008128D02*
X011607Y008128D01*
X011705Y008029D02*
X005913Y008029D01*
X005247Y008029D02*
X003280Y008029D01*
X003280Y007931D02*
X011804Y007931D01*
X011902Y007832D02*
X003280Y007832D01*
X003280Y007734D02*
X012001Y007734D01*
X012099Y007635D02*
X003280Y007635D01*
X003280Y007537D02*
X012198Y007537D01*
X012369Y007931D02*
X012887Y007931D01*
X013273Y007931D02*
X017630Y007931D01*
X017630Y008029D02*
X012271Y008029D01*
X012172Y008128D02*
X017630Y008128D01*
X017630Y008226D02*
X012074Y008226D01*
X011975Y008325D02*
X017685Y008325D01*
X017672Y008472D02*
X017488Y008472D01*
X017317Y008543D01*
X017186Y008674D01*
X017115Y008845D01*
X017115Y009030D01*
X017186Y009201D01*
X017317Y009332D01*
X017488Y009402D01*
X017672Y009402D01*
X017843Y009332D01*
X017974Y009201D01*
X018045Y009030D01*
X018045Y008845D01*
X017974Y008674D01*
X017843Y008543D01*
X017672Y008472D01*
X017792Y008522D02*
X020916Y008522D01*
X020826Y008620D02*
X017921Y008620D01*
X017993Y008719D02*
X020785Y008719D01*
X020770Y008817D02*
X018034Y008817D01*
X018045Y008916D02*
X020770Y008916D01*
X021180Y008837D02*
X021180Y008687D01*
X021430Y008437D01*
X023630Y008437D01*
X024180Y007887D01*
X024780Y007887D01*
X025030Y007687D02*
X024880Y007537D01*
X024010Y007537D01*
X023620Y007927D01*
X023610Y007937D01*
X022130Y007937D01*
X022080Y007987D01*
X022330Y008029D02*
X017830Y008029D01*
X017830Y007931D02*
X022330Y007931D01*
X022330Y007832D02*
X017830Y007832D01*
X017830Y007734D02*
X022330Y007734D01*
X022330Y007635D02*
X017830Y007635D01*
X017830Y007537D02*
X022330Y007537D01*
X022330Y007438D02*
X017830Y007438D01*
X017830Y007340D02*
X022330Y007340D01*
X022330Y007241D02*
X017830Y007241D01*
X017830Y007143D02*
X022330Y007143D01*
X022330Y007044D02*
X017830Y007044D01*
X017830Y006946D02*
X022330Y006946D01*
X022330Y006847D02*
X017830Y006847D01*
X017830Y006749D02*
X022330Y006749D01*
X022330Y006650D02*
X017830Y006650D01*
X017830Y006552D02*
X022330Y006552D01*
X022330Y006453D02*
X017830Y006453D01*
X017830Y006437D02*
X017830Y008187D01*
X022330Y008187D01*
X022330Y006437D01*
X017830Y006437D01*
X017630Y007438D02*
X013267Y007438D01*
X013352Y007537D02*
X017630Y007537D01*
X017630Y007635D02*
X013388Y007635D01*
X013388Y007734D02*
X017630Y007734D01*
X017630Y007832D02*
X013354Y007832D01*
X011877Y008423D02*
X021161Y008423D01*
X021575Y008719D02*
X023622Y008719D01*
X023702Y008817D02*
X021590Y008817D01*
X021590Y008916D02*
X027393Y008916D01*
X027527Y008817D02*
X025233Y008817D01*
X025280Y008887D02*
X025680Y008487D01*
X025680Y007537D01*
X025875Y007241D02*
X022530Y007241D01*
X022530Y007143D02*
X025777Y007143D01*
X025678Y007044D02*
X022530Y007044D01*
X022530Y006946D02*
X025580Y006946D01*
X025481Y006847D02*
X022530Y006847D01*
X022530Y006749D02*
X025383Y006749D01*
X025284Y006650D02*
X022530Y006650D01*
X022530Y006552D02*
X024306Y006552D01*
X024207Y006453D02*
X022530Y006453D01*
X022530Y006355D02*
X024109Y006355D01*
X024010Y006256D02*
X022432Y006256D01*
X022530Y007340D02*
X023925Y007340D01*
X023826Y007438D02*
X022530Y007438D01*
X022530Y007537D02*
X023728Y007537D01*
X023629Y007635D02*
X022530Y007635D01*
X022530Y007734D02*
X023405Y007734D01*
X022330Y008128D02*
X017830Y008128D01*
X017368Y008522D02*
X011778Y008522D01*
X011680Y008620D02*
X017239Y008620D01*
X017167Y008719D02*
X011581Y008719D01*
X011483Y008817D02*
X017126Y008817D01*
X017115Y008916D02*
X011384Y008916D01*
X011286Y009014D02*
X017115Y009014D01*
X017149Y009113D02*
X011187Y009113D01*
X011089Y009211D02*
X017196Y009211D01*
X017295Y009310D02*
X010990Y009310D01*
X011251Y009408D02*
X018490Y009408D01*
X018589Y009310D02*
X017865Y009310D01*
X017964Y009211D02*
X018687Y009211D01*
X018786Y009113D02*
X018011Y009113D01*
X018045Y009014D02*
X018884Y009014D01*
X019170Y009617D02*
X018670Y010117D01*
X013650Y010117D01*
X012580Y011187D01*
X012580Y013437D01*
X012330Y013687D01*
X012055Y013545D02*
X010445Y013545D01*
X010520Y013644D02*
X012022Y013644D01*
X012022Y013742D02*
X010561Y013742D01*
X010580Y013841D02*
X012060Y013841D01*
X012146Y013939D02*
X010580Y013939D01*
X010559Y014038D02*
X013300Y014038D01*
X013300Y014136D02*
X010518Y014136D01*
X010440Y014235D02*
X013320Y014235D01*
X013300Y013939D02*
X013014Y013939D01*
X013100Y013841D02*
X013300Y013841D01*
X013300Y013742D02*
X013138Y013742D01*
X013138Y013644D02*
X013300Y013644D01*
X013300Y013545D02*
X013105Y013545D01*
X013030Y013447D02*
X013313Y013447D01*
X013480Y013348D02*
X013030Y013348D01*
X013030Y013250D02*
X013335Y013250D01*
X013300Y013151D02*
X013030Y013151D01*
X013030Y013053D02*
X013300Y013053D01*
X013300Y012954D02*
X013030Y012954D01*
X013030Y012856D02*
X013300Y012856D01*
X013300Y012757D02*
X013030Y012757D01*
X013030Y012659D02*
X013300Y012659D01*
X013300Y012560D02*
X013030Y012560D01*
X013030Y012462D02*
X013300Y012462D01*
X013350Y012265D02*
X013030Y012265D01*
X013030Y012363D02*
X013480Y012363D01*
X013300Y012166D02*
X013030Y012166D01*
X013030Y012068D02*
X013300Y012068D01*
X013300Y011969D02*
X013030Y011969D01*
X013030Y011871D02*
X013300Y011871D01*
X013300Y011772D02*
X013030Y011772D01*
X013030Y011674D02*
X013300Y011674D01*
X013282Y011575D02*
X013030Y011575D01*
X013030Y011477D02*
X013204Y011477D01*
X013172Y011378D02*
X013030Y011378D01*
X013030Y011280D02*
X013172Y011280D01*
X013211Y011181D02*
X013119Y011181D01*
X013217Y011083D02*
X013298Y011083D01*
X013316Y010984D02*
X014580Y010984D01*
X014580Y010886D02*
X013414Y010886D01*
X013513Y010787D02*
X014580Y010787D01*
X014621Y010689D02*
X013611Y010689D01*
X013710Y010590D02*
X014670Y010590D01*
X014768Y010492D02*
X013808Y010492D01*
X013740Y010277D02*
X018740Y010277D01*
X019240Y009777D01*
X019330Y009937D02*
X018830Y010437D01*
X015330Y010437D01*
X015080Y010687D01*
X015080Y010887D01*
X015539Y010689D02*
X015621Y010689D01*
X015580Y010787D02*
X015580Y010787D01*
X015580Y010886D02*
X015580Y010886D01*
X015580Y010984D02*
X015580Y010984D01*
X015540Y011083D02*
X015620Y011083D01*
X015667Y011181D02*
X015493Y011181D01*
X015395Y011280D02*
X015765Y011280D01*
X015959Y011378D02*
X015201Y011378D01*
X015377Y011477D02*
X017854Y011477D01*
X017793Y011575D02*
X015475Y011575D01*
X015533Y011674D02*
X017772Y011674D01*
X017781Y011772D02*
X015574Y011772D01*
X015580Y011871D02*
X017827Y011871D01*
X017880Y011969D02*
X015580Y011969D01*
X015546Y012068D02*
X017880Y012068D01*
X017678Y012166D02*
X015506Y012166D01*
X015410Y012265D02*
X017568Y012265D01*
X017527Y012363D02*
X015237Y012363D01*
X015359Y012462D02*
X015801Y012462D01*
X015797Y012463D02*
X015981Y012387D01*
X016179Y012387D01*
X016363Y012463D01*
X016504Y012604D01*
X016580Y012788D01*
X016580Y012987D01*
X016504Y013171D01*
X016363Y013311D01*
X016179Y013387D01*
X016363Y013463D01*
X016504Y013604D01*
X016580Y013788D01*
X016580Y013987D01*
X016504Y014171D01*
X016363Y014311D01*
X016179Y014387D01*
X016363Y014463D01*
X016504Y014604D01*
X016580Y014788D01*
X016580Y014987D01*
X016504Y015171D01*
X016363Y015311D01*
X016179Y015387D01*
X016363Y015463D01*
X016504Y015604D01*
X016580Y015788D01*
X016580Y015987D01*
X016504Y016171D01*
X016363Y016311D01*
X016179Y016387D01*
X016363Y016463D01*
X016504Y016604D01*
X016580Y016788D01*
X016580Y016987D01*
X016504Y017171D01*
X016363Y017311D01*
X016179Y017387D01*
X015981Y017387D01*
X015797Y017311D01*
X015656Y017171D01*
X015580Y016987D01*
X015504Y017171D01*
X015363Y017311D01*
X015179Y017387D01*
X014981Y017387D01*
X014797Y017311D01*
X014656Y017171D01*
X014580Y016987D01*
X014580Y016788D01*
X014656Y016604D01*
X014797Y016463D01*
X014981Y016387D01*
X014797Y016311D01*
X014656Y016171D01*
X014580Y015987D01*
X014580Y015788D01*
X014656Y015604D01*
X014797Y015463D01*
X014981Y015387D01*
X014797Y015311D01*
X014656Y015171D01*
X014580Y014987D01*
X014580Y014788D01*
X014656Y014604D01*
X014797Y014463D01*
X014981Y014387D01*
X015179Y014387D01*
X015363Y014463D01*
X015504Y014604D01*
X015580Y014788D01*
X015580Y014987D01*
X015504Y015171D01*
X015363Y015311D01*
X015179Y015387D01*
X014981Y015387D01*
X015179Y015387D01*
X015363Y015463D01*
X015504Y015604D01*
X015580Y015788D01*
X015580Y015987D01*
X015504Y016171D01*
X015363Y016311D01*
X015179Y016387D01*
X014981Y016387D01*
X015179Y016387D01*
X015363Y016463D01*
X015504Y016604D01*
X015580Y016788D01*
X015580Y016987D01*
X015580Y016788D01*
X015656Y016604D01*
X015797Y016463D01*
X015981Y016387D01*
X016179Y016387D01*
X015981Y016387D01*
X015797Y016311D01*
X015656Y016171D01*
X015580Y015987D01*
X015580Y015788D01*
X015656Y015604D01*
X015797Y015463D01*
X015981Y015387D01*
X016179Y015387D01*
X015981Y015387D01*
X015797Y015311D01*
X015656Y015171D01*
X015580Y014987D01*
X015580Y014788D01*
X015656Y014604D01*
X015797Y014463D01*
X015981Y014387D01*
X016179Y014387D01*
X015981Y014387D01*
X015797Y014311D01*
X015656Y014171D01*
X015580Y013987D01*
X015580Y013788D01*
X015656Y013604D01*
X015797Y013463D01*
X015981Y013387D01*
X016179Y013387D01*
X015981Y013387D01*
X015797Y013311D01*
X015656Y013171D01*
X015580Y012987D01*
X015580Y012788D01*
X015656Y012604D01*
X015797Y012463D01*
X015700Y012560D02*
X015460Y012560D01*
X015527Y012659D02*
X015633Y012659D01*
X015593Y012757D02*
X015567Y012757D01*
X015580Y012856D02*
X015580Y012856D01*
X015580Y012954D02*
X015580Y012954D01*
X015553Y013053D02*
X015607Y013053D01*
X015648Y013151D02*
X015512Y013151D01*
X015425Y013250D02*
X015735Y013250D01*
X015886Y013348D02*
X015274Y013348D01*
X015179Y013387D02*
X014981Y013387D01*
X014797Y013463D01*
X014660Y013600D01*
X014660Y013460D01*
X014572Y013372D01*
X013988Y013372D01*
X013980Y013380D01*
X013972Y013372D01*
X013880Y013372D01*
X013880Y013302D01*
X013972Y013302D01*
X013980Y013294D01*
X013988Y013302D01*
X014572Y013302D01*
X014660Y013214D01*
X014660Y013174D01*
X014797Y013311D01*
X014981Y013387D01*
X015179Y013387D01*
X015323Y013447D02*
X015837Y013447D01*
X015715Y013545D02*
X015445Y013545D01*
X015520Y013644D02*
X015640Y013644D01*
X015599Y013742D02*
X015561Y013742D01*
X015580Y013841D02*
X015580Y013841D01*
X015580Y013939D02*
X015580Y013939D01*
X015559Y014038D02*
X015601Y014038D01*
X015642Y014136D02*
X015518Y014136D01*
X015440Y014235D02*
X015720Y014235D01*
X015850Y014333D02*
X015310Y014333D01*
X015287Y014432D02*
X015873Y014432D01*
X015730Y014530D02*
X015430Y014530D01*
X015514Y014629D02*
X015646Y014629D01*
X015605Y014727D02*
X015555Y014727D01*
X015580Y014826D02*
X015580Y014826D01*
X015580Y014924D02*
X015580Y014924D01*
X015565Y015023D02*
X015595Y015023D01*
X015636Y015121D02*
X015524Y015121D01*
X015455Y015220D02*
X015705Y015220D01*
X015814Y015318D02*
X015346Y015318D01*
X015251Y015417D02*
X015909Y015417D01*
X015745Y015515D02*
X015415Y015515D01*
X015508Y015614D02*
X015652Y015614D01*
X015611Y015712D02*
X015549Y015712D01*
X015580Y015811D02*
X015580Y015811D01*
X015580Y015909D02*
X015580Y015909D01*
X015571Y016008D02*
X015589Y016008D01*
X015630Y016106D02*
X015530Y016106D01*
X015470Y016205D02*
X015690Y016205D01*
X015789Y016303D02*
X015371Y016303D01*
X015215Y016402D02*
X015945Y016402D01*
X015760Y016500D02*
X015400Y016500D01*
X015499Y016599D02*
X015661Y016599D01*
X015617Y016697D02*
X015543Y016697D01*
X015580Y016796D02*
X015580Y016796D01*
X015580Y016894D02*
X015580Y016894D01*
X015577Y016993D02*
X015583Y016993D01*
X015623Y017091D02*
X015537Y017091D01*
X015485Y017190D02*
X015675Y017190D01*
X015774Y017288D02*
X015386Y017288D01*
X015363Y017463D02*
X015504Y017604D01*
X015580Y017788D01*
X015580Y017987D01*
X015504Y018171D01*
X015363Y018311D01*
X015179Y018387D01*
X014981Y018387D01*
X014797Y018311D01*
X014656Y018171D01*
X014580Y017987D01*
X014580Y017788D01*
X014656Y017604D01*
X014797Y017463D01*
X014981Y017387D01*
X015179Y017387D01*
X015363Y017463D01*
X015385Y017485D02*
X020775Y017485D01*
X020797Y017463D02*
X020981Y017387D01*
X020797Y017311D01*
X020656Y017171D01*
X020580Y016987D01*
X020580Y016788D01*
X020656Y016604D01*
X020797Y016463D01*
X020981Y016387D01*
X020797Y016311D01*
X020656Y016171D01*
X020580Y015987D01*
X020580Y015788D01*
X020656Y015604D01*
X020797Y015463D01*
X020981Y015387D01*
X020797Y015311D01*
X020656Y015171D01*
X020580Y014987D01*
X020580Y014788D01*
X020656Y014604D01*
X020797Y014463D01*
X020981Y014387D01*
X021179Y014387D01*
X021363Y014463D01*
X021504Y014604D01*
X021580Y014788D01*
X021580Y014987D01*
X021504Y015171D01*
X021363Y015311D01*
X021179Y015387D01*
X020981Y015387D01*
X021179Y015387D01*
X021363Y015463D01*
X021504Y015604D01*
X021580Y015788D01*
X021580Y015987D01*
X021504Y016171D01*
X021363Y016311D01*
X021179Y016387D01*
X020981Y016387D01*
X021179Y016387D01*
X021363Y016463D01*
X021504Y016604D01*
X021580Y016788D01*
X021580Y016987D01*
X021504Y017171D01*
X021363Y017311D01*
X021179Y017387D01*
X020981Y017387D01*
X021179Y017387D01*
X021363Y017463D01*
X021504Y017604D01*
X021580Y017788D01*
X021580Y017987D01*
X021504Y018171D01*
X021363Y018311D01*
X021179Y018387D01*
X020981Y018387D01*
X020797Y018311D01*
X020656Y018171D01*
X020580Y017987D01*
X020580Y017788D01*
X020656Y017604D01*
X020797Y017463D01*
X020676Y017584D02*
X015484Y017584D01*
X015536Y017682D02*
X020624Y017682D01*
X020583Y017781D02*
X015577Y017781D01*
X015580Y017879D02*
X020580Y017879D01*
X020580Y017978D02*
X015580Y017978D01*
X015543Y018076D02*
X020617Y018076D01*
X020660Y018175D02*
X015500Y018175D01*
X015401Y018273D02*
X020759Y018273D01*
X020943Y018372D02*
X015217Y018372D01*
X014943Y018372D02*
X009217Y018372D01*
X009401Y018273D02*
X014759Y018273D01*
X014660Y018175D02*
X009500Y018175D01*
X009543Y018076D02*
X014617Y018076D01*
X014580Y017978D02*
X009580Y017978D01*
X009580Y017879D02*
X014580Y017879D01*
X014583Y017781D02*
X009577Y017781D01*
X009536Y017682D02*
X014624Y017682D01*
X014676Y017584D02*
X009484Y017584D01*
X009385Y017485D02*
X014775Y017485D01*
X014774Y017288D02*
X010386Y017288D01*
X010485Y017190D02*
X014675Y017190D01*
X014623Y017091D02*
X010537Y017091D01*
X010577Y016993D02*
X014583Y016993D01*
X014580Y016894D02*
X010580Y016894D01*
X010580Y016796D02*
X014580Y016796D01*
X014617Y016697D02*
X010543Y016697D01*
X010499Y016599D02*
X014661Y016599D01*
X014760Y016500D02*
X010400Y016500D01*
X010371Y016303D02*
X014789Y016303D01*
X014690Y016205D02*
X010470Y016205D01*
X010530Y016106D02*
X014630Y016106D01*
X014589Y016008D02*
X010571Y016008D01*
X010580Y015909D02*
X014580Y015909D01*
X014580Y015811D02*
X010580Y015811D01*
X010549Y015712D02*
X014611Y015712D01*
X014652Y015614D02*
X010508Y015614D01*
X010415Y015515D02*
X014745Y015515D01*
X014909Y015417D02*
X010251Y015417D01*
X010346Y015318D02*
X014814Y015318D01*
X014705Y015220D02*
X010455Y015220D01*
X010524Y015121D02*
X014636Y015121D01*
X014595Y015023D02*
X010565Y015023D01*
X010580Y014924D02*
X014580Y014924D01*
X014580Y014826D02*
X010580Y014826D01*
X010555Y014727D02*
X014605Y014727D01*
X014646Y014629D02*
X010514Y014629D01*
X010430Y014530D02*
X014730Y014530D01*
X014873Y014432D02*
X010287Y014432D01*
X010310Y014333D02*
X014850Y014333D01*
X014720Y014235D02*
X014640Y014235D01*
X015030Y013837D02*
X015080Y013887D01*
X015030Y013837D02*
X014280Y013837D01*
X014660Y013545D02*
X014715Y013545D01*
X014647Y013447D02*
X014837Y013447D01*
X014886Y013348D02*
X013880Y013348D01*
X013680Y013837D02*
X013680Y012837D01*
X013680Y011837D01*
X013680Y011537D01*
X013480Y011337D01*
X013749Y011181D02*
X014667Y011181D01*
X014620Y011083D02*
X013662Y011083D01*
X013788Y011280D02*
X014765Y011280D01*
X014783Y011477D02*
X014660Y011477D01*
X014660Y011575D02*
X014685Y011575D01*
X014578Y011378D02*
X014959Y011378D01*
X015030Y011837D02*
X014280Y011837D01*
X014610Y012265D02*
X014750Y012265D01*
X014923Y012363D02*
X013880Y012363D01*
X014660Y012462D02*
X014801Y012462D01*
X014700Y012560D02*
X014660Y012560D01*
X015030Y012837D02*
X014280Y012837D01*
X014625Y013250D02*
X014735Y013250D01*
X015080Y012887D02*
X015030Y012837D01*
X016274Y013348D02*
X018380Y013348D01*
X018380Y013250D02*
X016425Y013250D01*
X016512Y013151D02*
X018380Y013151D01*
X018380Y013053D02*
X016553Y013053D01*
X016580Y012954D02*
X018380Y012954D01*
X018380Y012856D02*
X016580Y012856D01*
X016567Y012757D02*
X018380Y012757D01*
X018380Y012659D02*
X018045Y012659D01*
X018113Y012560D02*
X018380Y012560D01*
X018380Y012462D02*
X018138Y012462D01*
X018187Y012363D02*
X018380Y012363D01*
X018380Y012265D02*
X018280Y012265D01*
X018280Y012166D02*
X018380Y012166D01*
X018380Y012068D02*
X018280Y012068D01*
X018280Y011969D02*
X018380Y011969D01*
X018380Y011871D02*
X018333Y011871D01*
X018379Y011772D02*
X018380Y011772D01*
X018367Y011575D02*
X018380Y011575D01*
X018380Y011477D02*
X018306Y011477D01*
X018380Y011378D02*
X016201Y011378D01*
X016395Y011280D02*
X018380Y011280D01*
X018380Y011181D02*
X016493Y011181D01*
X016540Y011083D02*
X018380Y011083D01*
X018380Y010984D02*
X016580Y010984D01*
X016580Y010886D02*
X018380Y010886D01*
X018447Y010787D02*
X016580Y010787D01*
X016539Y010689D02*
X018546Y010689D01*
X018580Y010937D02*
X019400Y010117D01*
X019490Y010277D02*
X018830Y010937D01*
X018830Y013687D01*
X019105Y013545D02*
X019300Y013545D01*
X019300Y013644D02*
X019138Y013644D01*
X019138Y013742D02*
X019300Y013742D01*
X019300Y013841D02*
X019100Y013841D01*
X019014Y013939D02*
X019300Y013939D01*
X019300Y014038D02*
X016559Y014038D01*
X016580Y013939D02*
X018146Y013939D01*
X018060Y013841D02*
X016580Y013841D01*
X016561Y013742D02*
X018022Y013742D01*
X018022Y013644D02*
X016520Y013644D01*
X016445Y013545D02*
X018055Y013545D01*
X018134Y013447D02*
X016323Y013447D01*
X016527Y012659D02*
X017615Y012659D01*
X017547Y012560D02*
X016460Y012560D01*
X016359Y012462D02*
X017522Y012462D01*
X017830Y012437D02*
X018080Y012187D01*
X018080Y011687D01*
X017580Y011687D02*
X017380Y011887D01*
X016080Y011887D01*
X015080Y011887D02*
X015030Y011837D01*
X013982Y011378D02*
X013978Y011378D01*
X013740Y010277D02*
X012830Y011187D01*
X012830Y013687D01*
X012646Y013939D02*
X012514Y013939D01*
X012380Y013348D02*
X010274Y013348D01*
X010323Y013447D02*
X012134Y013447D01*
X012380Y013250D02*
X010425Y013250D01*
X010512Y013151D02*
X012380Y013151D01*
X012380Y013053D02*
X010553Y013053D01*
X010580Y012954D02*
X012380Y012954D01*
X012380Y012856D02*
X010580Y012856D01*
X010567Y012757D02*
X012380Y012757D01*
X012380Y012659D02*
X012045Y012659D01*
X012113Y012560D02*
X012380Y012560D01*
X012380Y012462D02*
X012138Y012462D01*
X012187Y012363D02*
X012380Y012363D01*
X012380Y012265D02*
X012280Y012265D01*
X012280Y012166D02*
X012380Y012166D01*
X012380Y012068D02*
X012280Y012068D01*
X012280Y011969D02*
X012380Y011969D01*
X012380Y011871D02*
X012333Y011871D01*
X012379Y011772D02*
X012380Y011772D01*
X012367Y011575D02*
X012380Y011575D01*
X012380Y011477D02*
X012306Y011477D01*
X012380Y011378D02*
X010201Y011378D01*
X010395Y011280D02*
X012380Y011280D01*
X012380Y011181D02*
X010493Y011181D01*
X010540Y011083D02*
X012402Y011083D01*
X012500Y010984D02*
X010580Y010984D01*
X010580Y010886D02*
X012599Y010886D01*
X012697Y010787D02*
X010580Y010787D01*
X010539Y010689D02*
X012796Y010689D01*
X012894Y010590D02*
X011446Y010590D01*
X011544Y010492D02*
X012993Y010492D01*
X013091Y010393D02*
X011643Y010393D01*
X011741Y010295D02*
X013190Y010295D01*
X013288Y010196D02*
X011840Y010196D01*
X011393Y009605D02*
X011385Y009605D01*
X011344Y009507D02*
X011492Y009507D01*
X010326Y009408D02*
X010266Y009408D01*
X010895Y008817D02*
X010917Y008817D01*
X010895Y008719D02*
X011016Y008719D01*
X011114Y008620D02*
X010895Y008620D01*
X010895Y008522D02*
X011213Y008522D01*
X011311Y008423D02*
X010893Y008423D01*
X008539Y009310D02*
X006820Y009310D01*
X007314Y009408D02*
X007787Y009408D01*
X007694Y009507D02*
X007407Y009507D01*
X007448Y009605D02*
X007653Y009605D01*
X007635Y009704D02*
X007466Y009704D01*
X007466Y009802D02*
X007635Y009802D01*
X007673Y009901D02*
X007428Y009901D01*
X007365Y009999D02*
X007736Y009999D01*
X007867Y010098D02*
X007328Y010098D01*
X007328Y010196D02*
X007902Y010196D01*
X007804Y010295D02*
X007328Y010295D01*
X007328Y010393D02*
X007740Y010393D01*
X007740Y010492D02*
X007328Y010492D01*
X007328Y010590D02*
X007740Y010590D01*
X007740Y010689D02*
X007328Y010689D01*
X007328Y010787D02*
X007740Y010787D01*
X007740Y010886D02*
X007328Y010886D01*
X007328Y010984D02*
X007740Y010984D01*
X007740Y011083D02*
X007662Y011083D01*
X007480Y011337D02*
X007330Y011487D01*
X007330Y012687D01*
X006680Y013337D01*
X006680Y013637D01*
X006680Y014537D01*
X006680Y015437D01*
X006300Y015417D02*
X004900Y015417D01*
X004900Y015318D02*
X006300Y015318D01*
X006300Y015220D02*
X004900Y015220D01*
X004900Y015121D02*
X006300Y015121D01*
X006337Y015023D02*
X004900Y015023D01*
X004953Y014924D02*
X006310Y014924D01*
X006300Y014826D02*
X005052Y014826D01*
X005150Y014727D02*
X006300Y014727D01*
X006300Y014629D02*
X005249Y014629D01*
X005347Y014530D02*
X006300Y014530D01*
X006300Y014432D02*
X005446Y014432D01*
X005544Y014333D02*
X006300Y014333D01*
X006300Y014235D02*
X005643Y014235D01*
X005741Y014136D02*
X006324Y014136D01*
X006323Y014038D02*
X005840Y014038D01*
X005938Y013939D02*
X006300Y013939D01*
X006300Y013841D02*
X006037Y013841D01*
X006135Y013742D02*
X006300Y013742D01*
X006300Y013644D02*
X006234Y013644D01*
X005533Y013053D02*
X005296Y013053D01*
X005198Y013151D02*
X005434Y013151D01*
X005336Y013250D02*
X005099Y013250D01*
X005001Y013348D02*
X005237Y013348D01*
X005139Y013447D02*
X004902Y013447D01*
X004804Y013545D02*
X005040Y013545D01*
X004942Y013644D02*
X004705Y013644D01*
X004607Y013742D02*
X004843Y013742D01*
X004745Y013841D02*
X004580Y013841D01*
X004580Y013788D02*
X004580Y013987D01*
X004567Y014019D01*
X006280Y012305D01*
X006280Y010085D01*
X006155Y010137D01*
X005993Y010137D01*
X005843Y010075D01*
X005836Y010068D01*
X005836Y012455D01*
X005795Y012554D01*
X004575Y013775D01*
X004580Y013788D01*
X004580Y013939D02*
X004646Y013939D01*
X004211Y014374D02*
X004179Y014387D01*
X004193Y014393D01*
X004211Y014374D01*
X003873Y014432D02*
X003280Y014432D01*
X003280Y014530D02*
X003730Y014530D01*
X003646Y014629D02*
X003280Y014629D01*
X003280Y014727D02*
X003605Y014727D01*
X003580Y014826D02*
X003280Y014826D01*
X003280Y014924D02*
X003580Y014924D01*
X003595Y015023D02*
X003280Y015023D01*
X003280Y015121D02*
X003636Y015121D01*
X003705Y015220D02*
X003280Y015220D01*
X003280Y015318D02*
X003814Y015318D01*
X003909Y015417D02*
X003280Y015417D01*
X003280Y015515D02*
X003745Y015515D01*
X003652Y015614D02*
X003280Y015614D01*
X003280Y015712D02*
X003611Y015712D01*
X003580Y015811D02*
X003280Y015811D01*
X003280Y015909D02*
X003580Y015909D01*
X003589Y016008D02*
X003280Y016008D01*
X003280Y016106D02*
X003630Y016106D01*
X003690Y016205D02*
X003280Y016205D01*
X003280Y016303D02*
X003789Y016303D01*
X003945Y016402D02*
X003280Y016402D01*
X003280Y016500D02*
X003760Y016500D01*
X003661Y016599D02*
X003280Y016599D01*
X003280Y016697D02*
X003617Y016697D01*
X003580Y016796D02*
X003280Y016796D01*
X003280Y016894D02*
X003580Y016894D01*
X003583Y016993D02*
X003280Y016993D01*
X003280Y017091D02*
X003623Y017091D01*
X003675Y017190D02*
X003280Y017190D01*
X003280Y017288D02*
X003774Y017288D01*
X003979Y017387D02*
X003280Y017387D01*
X003280Y017485D02*
X007759Y017485D01*
X007740Y017387D02*
X004181Y017387D01*
X004386Y017288D02*
X007740Y017288D01*
X007740Y017190D02*
X004485Y017190D01*
X004537Y017091D02*
X007740Y017091D01*
X007740Y016993D02*
X004577Y016993D01*
X004580Y016894D02*
X007740Y016894D01*
X007740Y016796D02*
X004580Y016796D01*
X004543Y016697D02*
X007740Y016697D01*
X007740Y016599D02*
X004499Y016599D01*
X004400Y016500D02*
X007740Y016500D01*
X007740Y016402D02*
X004215Y016402D01*
X004371Y016303D02*
X007740Y016303D01*
X007740Y016205D02*
X004470Y016205D01*
X004530Y016106D02*
X007740Y016106D01*
X007740Y016008D02*
X004571Y016008D01*
X004580Y015909D02*
X007740Y015909D01*
X007740Y015811D02*
X007660Y015811D01*
X007660Y015712D02*
X007740Y015712D01*
X007740Y015614D02*
X007660Y015614D01*
X007660Y015515D02*
X007740Y015515D01*
X007740Y015417D02*
X007660Y015417D01*
X007390Y015387D02*
X007680Y015097D01*
X007390Y015387D02*
X007280Y015437D01*
X006300Y015515D02*
X004869Y015515D01*
X004785Y015614D02*
X006300Y015614D01*
X006300Y015712D02*
X004687Y015712D01*
X004588Y015811D02*
X006300Y015811D01*
X004297Y015339D02*
X004179Y015387D01*
X004228Y015407D01*
X004297Y015339D01*
X003850Y014333D02*
X003280Y014333D01*
X003280Y014235D02*
X003720Y014235D01*
X003642Y014136D02*
X003280Y014136D01*
X003280Y014038D02*
X003601Y014038D01*
X003580Y013939D02*
X003280Y013939D01*
X003280Y013841D02*
X003580Y013841D01*
X003599Y013742D02*
X003280Y013742D01*
X003280Y013644D02*
X003640Y013644D01*
X003715Y013545D02*
X003280Y013545D01*
X003280Y013447D02*
X003837Y013447D01*
X003886Y013348D02*
X003280Y013348D01*
X003280Y013250D02*
X003735Y013250D01*
X003648Y013151D02*
X003280Y013151D01*
X003280Y013053D02*
X003607Y013053D01*
X003580Y012954D02*
X003280Y012954D01*
X003280Y012856D02*
X003580Y012856D01*
X003593Y012757D02*
X003280Y012757D01*
X003280Y012659D02*
X003633Y012659D01*
X003700Y012560D02*
X003280Y012560D01*
X003280Y012462D02*
X003801Y012462D01*
X003280Y012363D02*
X004622Y012363D01*
X004721Y012265D02*
X003280Y012265D01*
X003280Y012166D02*
X004810Y012166D01*
X004810Y012068D02*
X003280Y012068D01*
X003280Y011969D02*
X004810Y011969D01*
X004810Y011871D02*
X003280Y011871D01*
X003280Y011772D02*
X004810Y011772D01*
X004810Y011674D02*
X003280Y011674D01*
X003280Y011575D02*
X004810Y011575D01*
X004810Y011477D02*
X003280Y011477D01*
X003280Y011378D02*
X003959Y011378D01*
X003981Y011387D02*
X003797Y011311D01*
X003656Y011171D01*
X003580Y010987D01*
X003580Y010788D01*
X003656Y010604D01*
X003797Y010463D01*
X003981Y010387D01*
X004179Y010387D01*
X004363Y010463D01*
X004504Y010604D01*
X004580Y010788D01*
X004580Y010987D01*
X004504Y011171D01*
X004363Y011311D01*
X004179Y011387D01*
X003981Y011387D01*
X004201Y011378D02*
X004810Y011378D01*
X004810Y011280D02*
X004395Y011280D01*
X004493Y011181D02*
X004810Y011181D01*
X004810Y011083D02*
X004540Y011083D01*
X004580Y010984D02*
X004810Y010984D01*
X004810Y010886D02*
X004580Y010886D01*
X004580Y010787D02*
X004810Y010787D01*
X004810Y010689D02*
X004539Y010689D01*
X004490Y010590D02*
X004810Y010590D01*
X004810Y010492D02*
X004392Y010492D01*
X004194Y010393D02*
X004810Y010393D01*
X004810Y010295D02*
X003280Y010295D01*
X003280Y010393D02*
X003966Y010393D01*
X003768Y010492D02*
X003280Y010492D01*
X003280Y010590D02*
X003670Y010590D01*
X003621Y010689D02*
X003280Y010689D01*
X003280Y010787D02*
X003580Y010787D01*
X003580Y010886D02*
X003280Y010886D01*
X003280Y010984D02*
X003580Y010984D01*
X003620Y011083D02*
X003280Y011083D01*
X003280Y011181D02*
X003667Y011181D01*
X003765Y011280D02*
X003280Y011280D01*
X003280Y010196D02*
X004810Y010196D01*
X004810Y010098D02*
X003280Y010098D01*
X003280Y009999D02*
X004810Y009999D01*
X004810Y009901D02*
X003280Y009901D01*
X003280Y009802D02*
X004810Y009802D01*
X004810Y009704D02*
X003280Y009704D01*
X003280Y009605D02*
X004810Y009605D01*
X004810Y009507D02*
X003280Y009507D01*
X003280Y009408D02*
X004810Y009408D01*
X004810Y009310D02*
X003280Y009310D01*
X003280Y009211D02*
X004810Y009211D01*
X004810Y009113D02*
X003280Y009113D01*
X003280Y009014D02*
X004810Y009014D01*
X004810Y008916D02*
X003280Y008916D01*
X003280Y008817D02*
X004810Y008817D01*
X004810Y008719D02*
X003280Y008719D01*
X003280Y008620D02*
X004810Y008620D01*
X004810Y008522D02*
X003280Y008522D01*
X003280Y008423D02*
X004835Y008423D01*
X004911Y008325D02*
X003280Y008325D01*
X003280Y008226D02*
X005009Y008226D01*
X005108Y008128D02*
X003280Y008128D01*
X003280Y007241D02*
X003535Y007241D01*
X003328Y007143D02*
X003280Y007143D01*
X003280Y006256D02*
X003303Y006256D01*
X003280Y006158D02*
X003476Y006158D01*
X004680Y005287D02*
X004080Y004687D01*
X004680Y005287D02*
X006080Y005287D01*
X007480Y005287D01*
X007630Y005137D01*
X007980Y005487D01*
X009830Y005487D01*
X008440Y009408D02*
X008298Y009408D01*
X008391Y009507D02*
X008440Y009507D01*
X008432Y009605D02*
X008440Y009605D01*
X009539Y010689D02*
X009621Y010689D01*
X009580Y010787D02*
X009580Y010787D01*
X009580Y010886D02*
X009580Y010886D01*
X009580Y010984D02*
X009580Y010984D01*
X009540Y011083D02*
X009620Y011083D01*
X009667Y011181D02*
X009493Y011181D01*
X009395Y011280D02*
X009765Y011280D01*
X009959Y011378D02*
X009201Y011378D01*
X009377Y011477D02*
X011854Y011477D01*
X011793Y011575D02*
X009475Y011575D01*
X009533Y011674D02*
X011772Y011674D01*
X011781Y011772D02*
X009574Y011772D01*
X009580Y011871D02*
X011827Y011871D01*
X011880Y011969D02*
X009580Y011969D01*
X009546Y012068D02*
X011880Y012068D01*
X011678Y012166D02*
X009506Y012166D01*
X009410Y012265D02*
X011568Y012265D01*
X011527Y012363D02*
X009237Y012363D01*
X009359Y012462D02*
X009801Y012462D01*
X009700Y012560D02*
X009460Y012560D01*
X009527Y012659D02*
X009633Y012659D01*
X009593Y012757D02*
X009567Y012757D01*
X009580Y012856D02*
X009580Y012856D01*
X009580Y012954D02*
X009580Y012954D01*
X009553Y013053D02*
X009607Y013053D01*
X009648Y013151D02*
X009512Y013151D01*
X009425Y013250D02*
X009735Y013250D01*
X009886Y013348D02*
X009274Y013348D01*
X009323Y013447D02*
X009837Y013447D01*
X009715Y013545D02*
X009445Y013545D01*
X009520Y013644D02*
X009640Y013644D01*
X009599Y013742D02*
X009561Y013742D01*
X009580Y013841D02*
X009580Y013841D01*
X009580Y013939D02*
X009580Y013939D01*
X009559Y014038D02*
X009601Y014038D01*
X009642Y014136D02*
X009518Y014136D01*
X009440Y014235D02*
X009720Y014235D01*
X009850Y014333D02*
X009310Y014333D01*
X009287Y014432D02*
X009873Y014432D01*
X009730Y014530D02*
X009430Y014530D01*
X009514Y014629D02*
X009646Y014629D01*
X009605Y014727D02*
X009555Y014727D01*
X009580Y014826D02*
X009580Y014826D01*
X009580Y014924D02*
X009580Y014924D01*
X009565Y015023D02*
X009595Y015023D01*
X009636Y015121D02*
X009524Y015121D01*
X009455Y015220D02*
X009705Y015220D01*
X009814Y015318D02*
X009346Y015318D01*
X009290Y015417D02*
X009909Y015417D01*
X009745Y015515D02*
X009415Y015515D01*
X009508Y015614D02*
X009652Y015614D01*
X009611Y015712D02*
X009549Y015712D01*
X009580Y015811D02*
X009580Y015811D01*
X009580Y015909D02*
X009580Y015909D01*
X009571Y016008D02*
X009589Y016008D01*
X009630Y016106D02*
X009530Y016106D01*
X009470Y016205D02*
X009690Y016205D01*
X009789Y016303D02*
X009371Y016303D01*
X009215Y016402D02*
X009945Y016402D01*
X009760Y016500D02*
X009400Y016500D01*
X009499Y016599D02*
X009661Y016599D01*
X009617Y016697D02*
X009543Y016697D01*
X009580Y016796D02*
X009580Y016796D01*
X009580Y016894D02*
X009580Y016894D01*
X009577Y016993D02*
X009583Y016993D01*
X009623Y017091D02*
X009537Y017091D01*
X009485Y017190D02*
X009675Y017190D01*
X009774Y017288D02*
X009386Y017288D01*
X009181Y017387D02*
X009979Y017387D01*
X010181Y017387D02*
X014979Y017387D01*
X015181Y017387D02*
X015979Y017387D01*
X016181Y017387D02*
X020979Y017387D01*
X021181Y017387D02*
X021979Y017387D01*
X021981Y017387D02*
X021797Y017311D01*
X021656Y017171D01*
X021580Y016987D01*
X021580Y016788D01*
X021656Y016604D01*
X021797Y016463D01*
X021981Y016387D01*
X022179Y016387D01*
X022363Y016463D01*
X022504Y016604D01*
X022580Y016788D01*
X022580Y016987D01*
X022504Y017171D01*
X022363Y017311D01*
X022179Y017387D01*
X021981Y017387D01*
X022181Y017387D02*
X026380Y017387D01*
X026380Y017485D02*
X021385Y017485D01*
X021484Y017584D02*
X026380Y017584D01*
X026380Y017682D02*
X021536Y017682D01*
X021577Y017781D02*
X026380Y017781D01*
X026380Y017879D02*
X021580Y017879D01*
X021580Y017978D02*
X026380Y017978D01*
X026380Y018076D02*
X021543Y018076D01*
X021500Y018175D02*
X026380Y018175D01*
X026383Y018273D02*
X021401Y018273D01*
X021217Y018372D02*
X026482Y018372D01*
X026580Y018470D02*
X003280Y018470D01*
X003280Y018372D02*
X008943Y018372D01*
X008759Y018273D02*
X003280Y018273D01*
X003280Y018175D02*
X008660Y018175D01*
X008617Y018076D02*
X003280Y018076D01*
X003280Y017978D02*
X008112Y017978D01*
X008056Y017879D02*
X003280Y017879D01*
X003280Y017781D02*
X008041Y017781D01*
X007956Y017682D02*
X003280Y017682D01*
X003280Y017584D02*
X007858Y017584D01*
X008548Y017978D02*
X008580Y017978D01*
X008827Y018867D02*
X009033Y018867D01*
X009225Y018946D01*
X009371Y019093D01*
X009450Y019284D01*
X009450Y019491D01*
X009371Y019682D01*
X009225Y019828D01*
X009033Y019907D01*
X008827Y019907D01*
X008635Y019828D01*
X008489Y019682D01*
X008450Y019587D01*
X008450Y019591D01*
X008371Y019782D01*
X008225Y019928D01*
X008033Y020007D01*
X007827Y020007D01*
X007635Y019928D01*
X007489Y019782D01*
X007410Y019591D01*
X007410Y019587D01*
X007371Y019682D01*
X007225Y019828D01*
X007033Y019907D01*
X006827Y019907D01*
X006635Y019828D01*
X006489Y019682D01*
X006450Y019587D01*
X006450Y019919D01*
X006362Y020007D01*
X005498Y020007D01*
X005410Y019919D01*
X005410Y019055D01*
X005498Y018967D01*
X006362Y018967D01*
X006450Y019055D01*
X006450Y019187D01*
X006489Y019093D01*
X006635Y018946D01*
X006827Y018867D01*
X007033Y018867D01*
X007225Y018946D01*
X007371Y019093D01*
X007450Y019284D01*
X007450Y019287D01*
X007489Y019193D01*
X007635Y019046D01*
X007827Y018967D01*
X008033Y018967D01*
X008225Y019046D01*
X008371Y019193D01*
X008410Y019287D01*
X008410Y019284D01*
X008489Y019093D01*
X008635Y018946D01*
X008827Y018867D01*
X008619Y018963D02*
X007241Y018963D01*
X007339Y019061D02*
X007621Y019061D01*
X007522Y019160D02*
X007399Y019160D01*
X007439Y019258D02*
X007462Y019258D01*
X008239Y019061D02*
X008521Y019061D01*
X008461Y019160D02*
X008338Y019160D01*
X008398Y019258D02*
X008421Y019258D01*
X009241Y018963D02*
X012619Y018963D01*
X012635Y018946D02*
X012827Y018867D01*
X013033Y018867D01*
X013225Y018946D01*
X013371Y019093D01*
X013450Y019284D01*
X013450Y019287D01*
X013489Y019193D01*
X013635Y019046D01*
X013827Y018967D01*
X014033Y018967D01*
X014225Y019046D01*
X014371Y019193D01*
X014410Y019287D01*
X014410Y019284D01*
X014489Y019093D01*
X014635Y018946D01*
X014827Y018867D01*
X015033Y018867D01*
X015225Y018946D01*
X015371Y019093D01*
X015450Y019284D01*
X015450Y019491D01*
X015371Y019682D01*
X015225Y019828D01*
X015033Y019907D01*
X014827Y019907D01*
X014635Y019828D01*
X014489Y019682D01*
X014450Y019587D01*
X014450Y019591D01*
X014371Y019782D01*
X014225Y019928D01*
X014033Y020007D01*
X013827Y020007D01*
X013635Y019928D01*
X013489Y019782D01*
X013410Y019591D01*
X013410Y019587D01*
X013371Y019682D01*
X013225Y019828D01*
X013033Y019907D01*
X012827Y019907D01*
X012635Y019828D01*
X012489Y019682D01*
X012450Y019587D01*
X012450Y019919D01*
X012362Y020007D01*
X011498Y020007D01*
X011410Y019919D01*
X011410Y019055D01*
X011498Y018967D01*
X012362Y018967D01*
X012450Y019055D01*
X012450Y019187D01*
X012489Y019093D01*
X012635Y018946D01*
X012521Y019061D02*
X012450Y019061D01*
X012450Y019160D02*
X012461Y019160D01*
X012450Y019652D02*
X012477Y019652D01*
X012450Y019751D02*
X012558Y019751D01*
X012450Y019849D02*
X012687Y019849D01*
X012422Y019948D02*
X013683Y019948D01*
X013557Y019849D02*
X013173Y019849D01*
X013302Y019751D02*
X013476Y019751D01*
X013436Y019652D02*
X013383Y019652D01*
X013439Y019258D02*
X013462Y019258D01*
X013522Y019160D02*
X013399Y019160D01*
X013339Y019061D02*
X013621Y019061D01*
X013241Y018963D02*
X014619Y018963D01*
X014521Y019061D02*
X014239Y019061D01*
X014338Y019160D02*
X014461Y019160D01*
X014421Y019258D02*
X014398Y019258D01*
X015241Y018963D02*
X018619Y018963D01*
X018635Y018946D02*
X018827Y018867D01*
X019033Y018867D01*
X019225Y018946D01*
X019371Y019093D01*
X019450Y019284D01*
X019450Y019287D01*
X019489Y019193D01*
X019635Y019046D01*
X019827Y018967D01*
X020033Y018967D01*
X020225Y019046D01*
X020371Y019193D01*
X020410Y019287D01*
X020410Y019284D01*
X020489Y019093D01*
X020635Y018946D01*
X020827Y018867D01*
X021033Y018867D01*
X021225Y018946D01*
X021371Y019093D01*
X021450Y019284D01*
X021450Y019491D01*
X021371Y019682D01*
X021225Y019828D01*
X021033Y019907D01*
X020827Y019907D01*
X020635Y019828D01*
X020489Y019682D01*
X020450Y019587D01*
X020450Y019591D01*
X020371Y019782D01*
X020225Y019928D01*
X020033Y020007D01*
X019827Y020007D01*
X019635Y019928D01*
X019489Y019782D01*
X019410Y019591D01*
X019410Y019587D01*
X019371Y019682D01*
X019225Y019828D01*
X019033Y019907D01*
X018827Y019907D01*
X018635Y019828D01*
X018489Y019682D01*
X018450Y019587D01*
X018450Y019919D01*
X018362Y020007D01*
X017498Y020007D01*
X017410Y019919D01*
X017410Y019055D01*
X017498Y018967D01*
X018362Y018967D01*
X018450Y019055D01*
X018450Y019187D01*
X018489Y019093D01*
X018635Y018946D01*
X018521Y019061D02*
X018450Y019061D01*
X018450Y019160D02*
X018461Y019160D01*
X018450Y019652D02*
X018477Y019652D01*
X018450Y019751D02*
X018558Y019751D01*
X018450Y019849D02*
X018687Y019849D01*
X018422Y019948D02*
X019683Y019948D01*
X019557Y019849D02*
X019173Y019849D01*
X019302Y019751D02*
X019476Y019751D01*
X019436Y019652D02*
X019383Y019652D01*
X019439Y019258D02*
X019462Y019258D01*
X019522Y019160D02*
X019399Y019160D01*
X019339Y019061D02*
X019621Y019061D01*
X019241Y018963D02*
X020619Y018963D01*
X020521Y019061D02*
X020239Y019061D01*
X020338Y019160D02*
X020461Y019160D01*
X020421Y019258D02*
X020398Y019258D01*
X020424Y019652D02*
X020477Y019652D01*
X020558Y019751D02*
X020384Y019751D01*
X020303Y019849D02*
X020687Y019849D01*
X021173Y019849D02*
X023410Y019849D01*
X023410Y019919D02*
X023410Y019055D01*
X023498Y018967D01*
X024362Y018967D01*
X024450Y019055D01*
X024450Y019187D01*
X024489Y019093D01*
X024635Y018946D01*
X024827Y018867D01*
X025033Y018867D01*
X025225Y018946D01*
X025371Y019093D01*
X025450Y019284D01*
X025450Y019287D01*
X025489Y019193D01*
X025635Y019046D01*
X025827Y018967D01*
X026033Y018967D01*
X026225Y019046D01*
X026371Y019193D01*
X026410Y019287D01*
X026410Y019284D01*
X026489Y019093D01*
X026635Y018946D01*
X026827Y018867D01*
X027033Y018867D01*
X027225Y018946D01*
X027371Y019093D01*
X027450Y019284D01*
X027450Y019491D01*
X027371Y019682D01*
X027225Y019828D01*
X027033Y019907D01*
X026827Y019907D01*
X026635Y019828D01*
X026489Y019682D01*
X026450Y019587D01*
X026450Y019591D01*
X026371Y019782D01*
X026225Y019928D01*
X026033Y020007D01*
X025827Y020007D01*
X025635Y019928D01*
X025489Y019782D01*
X025410Y019591D01*
X025410Y019587D01*
X025371Y019682D01*
X025225Y019828D01*
X025033Y019907D01*
X024827Y019907D01*
X024635Y019828D01*
X024489Y019682D01*
X024450Y019587D01*
X024450Y019919D01*
X024362Y020007D01*
X023498Y020007D01*
X023410Y019919D01*
X023438Y019948D02*
X020177Y019948D01*
X021302Y019751D02*
X023410Y019751D01*
X023410Y019652D02*
X021383Y019652D01*
X021424Y019554D02*
X023410Y019554D01*
X023410Y019455D02*
X021450Y019455D01*
X021450Y019357D02*
X023410Y019357D01*
X023410Y019258D02*
X021439Y019258D01*
X021399Y019160D02*
X023410Y019160D01*
X023410Y019061D02*
X021339Y019061D01*
X021241Y018963D02*
X024619Y018963D01*
X024521Y019061D02*
X024450Y019061D01*
X024450Y019160D02*
X024461Y019160D01*
X024450Y019652D02*
X024477Y019652D01*
X024450Y019751D02*
X024558Y019751D01*
X024450Y019849D02*
X024687Y019849D01*
X024422Y019948D02*
X025683Y019948D01*
X025557Y019849D02*
X025173Y019849D01*
X025302Y019751D02*
X025476Y019751D01*
X025436Y019652D02*
X025383Y019652D01*
X025439Y019258D02*
X025462Y019258D01*
X025522Y019160D02*
X025399Y019160D01*
X025339Y019061D02*
X025621Y019061D01*
X025241Y018963D02*
X026619Y018963D01*
X026521Y019061D02*
X026239Y019061D01*
X026338Y019160D02*
X026461Y019160D01*
X026421Y019258D02*
X026398Y019258D01*
X026424Y019652D02*
X026477Y019652D01*
X026558Y019751D02*
X026384Y019751D01*
X026303Y019849D02*
X026687Y019849D01*
X027173Y019849D02*
X027510Y019849D01*
X027425Y019948D02*
X026177Y019948D01*
X027302Y019751D02*
X027672Y019751D01*
X027648Y019652D02*
X027383Y019652D01*
X027424Y019554D02*
X027648Y019554D01*
X027659Y019455D02*
X027450Y019455D01*
X027450Y019357D02*
X027700Y019357D01*
X027761Y019258D02*
X027439Y019258D01*
X027399Y019160D02*
X027860Y019160D01*
X027339Y019061D02*
X028411Y019061D01*
X028509Y018963D02*
X027241Y018963D01*
X026679Y018569D02*
X003280Y018569D01*
X003280Y018667D02*
X028523Y018667D01*
X028706Y018766D02*
X003280Y018766D01*
X003280Y018864D02*
X028608Y018864D01*
X028976Y019061D02*
X042250Y019061D01*
X042250Y018963D02*
X029075Y018963D01*
X029173Y018864D02*
X042250Y018864D01*
X042250Y018766D02*
X040566Y018766D01*
X040464Y018808D02*
X040228Y018808D01*
X040010Y018718D01*
X039843Y018551D01*
X039753Y018333D01*
X039753Y018097D01*
X039843Y017879D01*
X038884Y017879D01*
X038900Y017781D02*
X039942Y017781D01*
X040010Y017713D02*
X040228Y017622D01*
X040464Y017622D01*
X040682Y017713D01*
X040848Y017879D01*
X042250Y017879D01*
X042250Y017781D02*
X040750Y017781D01*
X040848Y017879D02*
X040939Y018097D01*
X040939Y018333D01*
X040848Y018551D01*
X040682Y018718D01*
X040464Y018808D01*
X040732Y018667D02*
X042250Y018667D01*
X042250Y018569D02*
X040831Y018569D01*
X040882Y018470D02*
X042250Y018470D01*
X042250Y018372D02*
X040923Y018372D01*
X040939Y018273D02*
X042250Y018273D01*
X042250Y018175D02*
X040939Y018175D01*
X040930Y018076D02*
X042250Y018076D01*
X042250Y017978D02*
X040889Y017978D01*
X040609Y017682D02*
X042250Y017682D01*
X042250Y017584D02*
X038900Y017584D01*
X038900Y017682D02*
X040083Y017682D01*
X040010Y017713D02*
X039843Y017879D01*
X039802Y017978D02*
X038821Y017978D01*
X038723Y018076D02*
X039762Y018076D01*
X039753Y018175D02*
X038624Y018175D01*
X038526Y018273D02*
X039753Y018273D01*
X039769Y018372D02*
X038427Y018372D01*
X038329Y018470D02*
X039810Y018470D01*
X039861Y018569D02*
X029705Y018569D01*
X029637Y018667D02*
X039959Y018667D01*
X040126Y018766D02*
X029272Y018766D01*
X029080Y018675D02*
X028168Y019587D01*
X028542Y019948D02*
X029551Y019948D01*
X029649Y019849D02*
X028622Y019849D01*
X028663Y019751D02*
X029672Y019751D01*
X029648Y019652D02*
X028687Y019652D01*
X028687Y019554D02*
X029648Y019554D01*
X029659Y019455D02*
X028676Y019455D01*
X028681Y019357D02*
X029700Y019357D01*
X029761Y019258D02*
X028779Y019258D01*
X028878Y019160D02*
X029860Y019160D01*
X030475Y019160D02*
X030860Y019160D01*
X030761Y019258D02*
X030574Y019258D01*
X030635Y019357D02*
X030700Y019357D01*
X030672Y019751D02*
X030663Y019751D01*
X030622Y019849D02*
X030713Y019849D01*
X030793Y019948D02*
X030542Y019948D01*
X030418Y020046D02*
X030917Y020046D01*
X031418Y020046D02*
X032917Y020046D01*
X032873Y020028D02*
X032727Y019882D01*
X032648Y019691D01*
X032648Y019484D01*
X032727Y019293D01*
X032873Y019146D01*
X033064Y019067D01*
X033271Y019067D01*
X033462Y019146D01*
X033608Y019293D01*
X033668Y019436D01*
X033727Y019293D01*
X033873Y019146D01*
X034064Y019067D01*
X034271Y019067D01*
X034462Y019146D01*
X034608Y019293D01*
X034687Y019484D01*
X034687Y019691D01*
X034608Y019882D01*
X034462Y020028D01*
X034271Y020107D01*
X034064Y020107D01*
X033873Y020028D01*
X033727Y019882D01*
X033668Y019739D01*
X033608Y019882D01*
X033462Y020028D01*
X033271Y020107D01*
X033064Y020107D01*
X032873Y020028D01*
X032793Y019948D02*
X031542Y019948D01*
X031622Y019849D02*
X032713Y019849D01*
X032672Y019751D02*
X031663Y019751D01*
X031687Y019652D02*
X032648Y019652D01*
X032648Y019554D02*
X031687Y019554D01*
X031676Y019455D02*
X032659Y019455D01*
X032700Y019357D02*
X031635Y019357D01*
X031574Y019258D02*
X032761Y019258D01*
X032860Y019160D02*
X031475Y019160D01*
X029891Y020145D02*
X042155Y020145D01*
X042204Y020046D02*
X039418Y020046D01*
X039462Y020028D02*
X039271Y020107D01*
X039064Y020107D01*
X038873Y020028D01*
X038727Y019882D01*
X038648Y019691D01*
X038648Y019484D01*
X038727Y019293D01*
X038873Y019146D01*
X039064Y019067D01*
X039271Y019067D01*
X039462Y019146D01*
X039608Y019293D01*
X039687Y019484D01*
X039687Y019691D01*
X039608Y019882D01*
X039462Y020028D01*
X039542Y019948D02*
X042236Y019948D01*
X042249Y019849D02*
X039622Y019849D01*
X039663Y019751D02*
X042250Y019751D01*
X042250Y019652D02*
X039687Y019652D01*
X039687Y019554D02*
X042250Y019554D01*
X042250Y019455D02*
X039676Y019455D01*
X039635Y019357D02*
X042250Y019357D01*
X042250Y019258D02*
X039574Y019258D01*
X039475Y019160D02*
X042250Y019160D01*
X041380Y019537D02*
X041380Y017773D01*
X041330Y017723D01*
X041330Y017447D01*
X040350Y016467D01*
X039730Y016500D02*
X042250Y016500D01*
X042250Y016402D02*
X039730Y016402D01*
X039705Y016303D02*
X041050Y016303D01*
X041077Y016330D02*
X040951Y016205D01*
X040883Y016040D01*
X040883Y015863D01*
X040951Y015698D01*
X041077Y015573D01*
X041241Y015505D01*
X041419Y015505D01*
X041583Y015573D01*
X041709Y015698D01*
X041777Y015863D01*
X041777Y016040D01*
X041709Y016205D01*
X041583Y016330D01*
X041419Y016398D01*
X041241Y016398D01*
X041077Y016330D01*
X040951Y016205D02*
X039664Y016205D01*
X039584Y016106D02*
X040910Y016106D01*
X040883Y016008D02*
X040571Y016008D01*
X040734Y015909D02*
X040883Y015909D01*
X040905Y015811D02*
X040833Y015811D01*
X040883Y015712D02*
X040945Y015712D01*
X040924Y015614D02*
X041036Y015614D01*
X040939Y015515D02*
X041215Y015515D01*
X041445Y015515D02*
X042250Y015515D01*
X042250Y015417D02*
X040939Y015417D01*
X040929Y015318D02*
X042250Y015318D01*
X042250Y015220D02*
X040888Y015220D01*
X040846Y015121D02*
X042250Y015121D01*
X042250Y015023D02*
X041626Y015023D01*
X041725Y014924D02*
X042250Y014924D01*
X042250Y014826D02*
X041823Y014826D01*
X041922Y014727D02*
X042250Y014727D01*
X042250Y014629D02*
X042020Y014629D01*
X042119Y014530D02*
X042250Y014530D01*
X042250Y014432D02*
X042212Y014432D01*
X042250Y014333D02*
X042250Y014333D01*
X042250Y014235D02*
X042250Y014235D01*
X042250Y014136D02*
X042250Y014136D01*
X042250Y014038D02*
X042250Y014038D01*
X042250Y013939D02*
X042250Y013939D01*
X042250Y013841D02*
X042250Y013841D01*
X042250Y013742D02*
X042250Y013742D01*
X042250Y013644D02*
X042250Y013644D01*
X042250Y013545D02*
X042250Y013545D01*
X042250Y013447D02*
X042250Y013447D01*
X042250Y013348D02*
X042250Y013348D01*
X042250Y013250D02*
X042250Y013250D01*
X042250Y013151D02*
X042250Y013151D01*
X042250Y013053D02*
X042250Y013053D01*
X042250Y012954D02*
X042250Y012954D01*
X042250Y012856D02*
X042250Y012856D01*
X042250Y012757D02*
X042250Y012757D01*
X042250Y012659D02*
X042250Y012659D01*
X042250Y012560D02*
X042250Y012560D01*
X042250Y012462D02*
X042250Y012462D01*
X042250Y012363D02*
X042250Y012363D01*
X042250Y012265D02*
X042250Y012265D01*
X042250Y012166D02*
X042250Y012166D01*
X042250Y012068D02*
X042250Y012068D01*
X042250Y011969D02*
X042250Y011969D01*
X042250Y011871D02*
X042250Y011871D01*
X042250Y011772D02*
X042250Y011772D01*
X042250Y011674D02*
X042250Y011674D01*
X042250Y011575D02*
X042250Y011575D01*
X042250Y011477D02*
X042250Y011477D01*
X042250Y011378D02*
X042250Y011378D01*
X042250Y011280D02*
X042250Y011280D01*
X042250Y011181D02*
X042250Y011181D01*
X042250Y011083D02*
X042250Y011083D01*
X042250Y010984D02*
X042250Y010984D01*
X042250Y010886D02*
X042250Y010886D01*
X042250Y010787D02*
X042250Y010787D01*
X042250Y010689D02*
X042250Y010689D01*
X042250Y010590D02*
X042250Y010590D01*
X042250Y010492D02*
X042250Y010492D01*
X042250Y010393D02*
X042250Y010393D01*
X042250Y010295D02*
X042250Y010295D01*
X042250Y010196D02*
X042250Y010196D01*
X042250Y010098D02*
X042250Y010098D01*
X042250Y009999D02*
X042250Y009999D01*
X042250Y009901D02*
X042250Y009901D01*
X042250Y009802D02*
X042250Y009802D01*
X042250Y009704D02*
X042250Y009704D01*
X042250Y009605D02*
X042250Y009605D01*
X042250Y009507D02*
X042250Y009507D01*
X042250Y009408D02*
X042250Y009408D01*
X042250Y009310D02*
X042250Y009310D01*
X042250Y009211D02*
X042250Y009211D01*
X042250Y009113D02*
X042250Y009113D01*
X042250Y009014D02*
X042250Y009014D01*
X042250Y008916D02*
X042250Y008916D01*
X042250Y008817D02*
X042250Y008817D01*
X042250Y008719D02*
X042250Y008719D01*
X042250Y008620D02*
X042250Y008620D01*
X042250Y008522D02*
X042250Y008522D01*
X042250Y008423D02*
X042250Y008423D01*
X042250Y008325D02*
X042250Y008325D01*
X042250Y008226D02*
X042250Y008226D01*
X042250Y008128D02*
X042250Y008128D01*
X042250Y008029D02*
X042250Y008029D01*
X042250Y007931D02*
X042250Y007931D01*
X042250Y007832D02*
X042250Y007832D01*
X042250Y007734D02*
X042250Y007734D01*
X042250Y007635D02*
X042250Y007635D01*
X042250Y007537D02*
X042250Y007537D01*
X042250Y007438D02*
X042250Y007438D01*
X042250Y007340D02*
X042250Y007340D01*
X042250Y007241D02*
X042250Y007241D01*
X042250Y007143D02*
X042250Y007143D01*
X042250Y007044D02*
X042250Y007044D01*
X042250Y006946D02*
X042250Y006946D01*
X042250Y006847D02*
X042250Y006847D01*
X042250Y006749D02*
X042250Y006749D01*
X042250Y006650D02*
X042250Y006650D01*
X042250Y006552D02*
X042250Y006552D01*
X042250Y006453D02*
X042250Y006453D01*
X042250Y006355D02*
X042250Y006355D01*
X042250Y006256D02*
X042250Y006256D01*
X042250Y006158D02*
X042250Y006158D01*
X042250Y006059D02*
X042250Y006059D01*
X042250Y005961D02*
X042250Y005961D01*
X042250Y005862D02*
X042250Y005862D01*
X042250Y005764D02*
X042250Y005764D01*
X042250Y005665D02*
X042250Y005665D01*
X042250Y005567D02*
X042250Y005567D01*
X042250Y005468D02*
X042250Y005468D01*
X042250Y005370D02*
X042250Y005370D01*
X042250Y005271D02*
X042250Y005271D01*
X042250Y005173D02*
X042225Y005173D01*
X042250Y005074D02*
X042149Y005074D01*
X042050Y004976D02*
X042250Y004976D01*
X042250Y004877D02*
X041952Y004877D01*
X041811Y004779D02*
X042250Y004779D01*
X042250Y004680D02*
X041618Y004680D01*
X041717Y004582D02*
X042250Y004582D01*
X042250Y004483D02*
X041764Y004483D01*
X041805Y004385D02*
X042250Y004385D01*
X042250Y004286D02*
X041846Y004286D01*
X041850Y004188D02*
X042250Y004188D01*
X042250Y004089D02*
X041850Y004089D01*
X041850Y003991D02*
X042250Y003991D01*
X042250Y003892D02*
X041823Y003892D01*
X041782Y003794D02*
X042250Y003794D01*
X042250Y003695D02*
X041741Y003695D01*
X041661Y003597D02*
X042250Y003597D01*
X042250Y003498D02*
X041562Y003498D01*
X041408Y003400D02*
X042250Y003400D01*
X042250Y003301D02*
X039326Y003301D01*
X039227Y003203D02*
X042250Y003203D01*
X042250Y003104D02*
X039129Y003104D01*
X039030Y003006D02*
X042250Y003006D01*
X042250Y002907D02*
X039018Y002907D01*
X039092Y002809D02*
X042250Y002809D01*
X042250Y002710D02*
X039119Y002710D01*
X039111Y002612D02*
X042250Y002612D01*
X042250Y002513D02*
X039064Y002513D01*
X038927Y002415D02*
X042250Y002415D01*
X042250Y001725D02*
X042243Y001633D01*
X042186Y001458D01*
X042078Y001309D01*
X041929Y001201D01*
X041755Y001145D01*
X041663Y001137D01*
X041973Y001233D02*
X039911Y001233D01*
X040009Y001331D02*
X042094Y001331D01*
X042166Y001430D02*
X040057Y001430D01*
X040098Y001528D02*
X042209Y001528D01*
X042241Y001627D02*
X040100Y001627D01*
X041663Y000938D02*
X041717Y000940D01*
X041770Y000945D01*
X041823Y000954D01*
X041875Y000967D01*
X041927Y000983D01*
X041977Y001003D01*
X042025Y001026D01*
X042072Y001053D01*
X042117Y001082D01*
X042160Y001115D01*
X042200Y001150D01*
X042238Y001188D01*
X042273Y001228D01*
X042306Y001271D01*
X042335Y001316D01*
X042362Y001363D01*
X042385Y001411D01*
X042405Y001461D01*
X042421Y001513D01*
X042434Y001565D01*
X042443Y001618D01*
X042448Y001671D01*
X042450Y001725D01*
X042450Y019835D01*
X042083Y020243D02*
X029793Y020243D01*
X029694Y020342D02*
X041952Y020342D01*
X041663Y020622D02*
X003867Y020622D01*
X003578Y020342D02*
X027540Y020342D01*
X027432Y020243D02*
X003447Y020243D01*
X003294Y019948D02*
X005438Y019948D01*
X005410Y019849D02*
X003281Y019849D01*
X003280Y019751D02*
X005410Y019751D01*
X005410Y019652D02*
X003280Y019652D01*
X003280Y019554D02*
X005410Y019554D01*
X005410Y019455D02*
X003280Y019455D01*
X003280Y019357D02*
X005410Y019357D01*
X005410Y019258D02*
X003280Y019258D01*
X003280Y019160D02*
X005410Y019160D01*
X005410Y019061D02*
X003280Y019061D01*
X003280Y018963D02*
X006619Y018963D01*
X006521Y019061D02*
X006450Y019061D01*
X006450Y019160D02*
X006461Y019160D01*
X006450Y019652D02*
X006477Y019652D01*
X006450Y019751D02*
X006558Y019751D01*
X006450Y019849D02*
X006687Y019849D01*
X006422Y019948D02*
X007683Y019948D01*
X007557Y019849D02*
X007173Y019849D01*
X007302Y019751D02*
X007476Y019751D01*
X007436Y019652D02*
X007383Y019652D01*
X008177Y019948D02*
X011438Y019948D01*
X011410Y019849D02*
X009173Y019849D01*
X009302Y019751D02*
X011410Y019751D01*
X011410Y019652D02*
X009383Y019652D01*
X009424Y019554D02*
X011410Y019554D01*
X011410Y019455D02*
X009450Y019455D01*
X009450Y019357D02*
X011410Y019357D01*
X011410Y019258D02*
X009439Y019258D01*
X009399Y019160D02*
X011410Y019160D01*
X011410Y019061D02*
X009339Y019061D01*
X008558Y019751D02*
X008384Y019751D01*
X008424Y019652D02*
X008477Y019652D01*
X008303Y019849D02*
X008687Y019849D01*
X004180Y019537D02*
X004180Y017987D01*
X004080Y017887D01*
X003080Y019835D02*
X003082Y019889D01*
X003087Y019942D01*
X003096Y019995D01*
X003109Y020047D01*
X003125Y020099D01*
X003145Y020149D01*
X003168Y020197D01*
X003195Y020244D01*
X003224Y020289D01*
X003257Y020332D01*
X003292Y020372D01*
X003330Y020410D01*
X003370Y020445D01*
X003413Y020478D01*
X003458Y020507D01*
X003505Y020534D01*
X003553Y020557D01*
X003603Y020577D01*
X003655Y020593D01*
X003707Y020606D01*
X003760Y020615D01*
X003813Y020620D01*
X003867Y020622D01*
X003080Y019835D02*
X003080Y001725D01*
X003082Y001671D01*
X003087Y001618D01*
X003096Y001565D01*
X003109Y001513D01*
X003125Y001461D01*
X003145Y001411D01*
X003168Y001363D01*
X003195Y001316D01*
X003224Y001271D01*
X003257Y001228D01*
X003292Y001188D01*
X003330Y001150D01*
X003370Y001115D01*
X003413Y001082D01*
X003458Y001053D01*
X003505Y001026D01*
X003553Y001003D01*
X003603Y000983D01*
X003655Y000967D01*
X003707Y000954D01*
X003760Y000945D01*
X003813Y000940D01*
X003867Y000938D01*
X020269Y001233D02*
X022769Y001233D01*
X022671Y001331D02*
X020367Y001331D01*
X020420Y001430D02*
X022618Y001430D01*
X022584Y001528D02*
X020454Y001528D01*
X020454Y001627D02*
X022584Y001627D01*
X022601Y001725D02*
X020437Y001725D01*
X020396Y001824D02*
X022642Y001824D01*
X022729Y001922D02*
X020309Y001922D01*
X023309Y001922D02*
X023580Y001922D01*
X023580Y001824D02*
X023396Y001824D01*
X023437Y001725D02*
X023580Y001725D01*
X023580Y001627D02*
X023454Y001627D01*
X023454Y001528D02*
X023580Y001528D01*
X023580Y001430D02*
X023420Y001430D01*
X023367Y001331D02*
X023580Y001331D01*
X023580Y001233D02*
X023269Y001233D01*
X023780Y001233D02*
X036132Y001233D01*
X034630Y002537D02*
X034280Y002187D01*
X031830Y002187D01*
X030719Y003207D02*
X031071Y003559D01*
X031085Y003524D01*
X031166Y003443D01*
X031273Y003399D01*
X031387Y003399D01*
X031494Y003443D01*
X031548Y003497D01*
X034009Y003497D01*
X034620Y004109D01*
X034620Y004119D01*
X034675Y004174D01*
X034719Y004280D01*
X034719Y004387D01*
X034797Y004387D01*
X035241Y003943D01*
X035241Y003880D01*
X035285Y003774D01*
X035366Y003693D01*
X035473Y003649D01*
X035587Y003649D01*
X035694Y003693D01*
X035775Y003774D01*
X035819Y003880D01*
X035819Y003995D01*
X035775Y004101D01*
X035694Y004182D01*
X035587Y004226D01*
X035524Y004226D01*
X035203Y004547D01*
X036159Y004547D01*
X036310Y004699D01*
X036387Y004699D01*
X036494Y004743D01*
X036548Y004797D01*
X036912Y004797D01*
X036966Y004743D01*
X037073Y004699D01*
X037187Y004699D01*
X037294Y004743D01*
X037375Y004824D01*
X037419Y004930D01*
X037419Y005045D01*
X037375Y005151D01*
X037294Y005232D01*
X037187Y005276D01*
X037073Y005276D01*
X036966Y005232D01*
X036912Y005177D01*
X036707Y005177D01*
X036744Y005193D01*
X036825Y005274D01*
X036869Y005380D01*
X036869Y005447D01*
X037551Y005447D01*
X038541Y004457D01*
X038541Y004380D01*
X038585Y004274D01*
X038666Y004193D01*
X038773Y004149D01*
X038887Y004149D01*
X038994Y004193D01*
X039075Y004274D01*
X039119Y004380D01*
X039119Y004495D01*
X039075Y004601D01*
X038994Y004682D01*
X038887Y004726D01*
X038810Y004726D01*
X037937Y005599D01*
X037987Y005599D01*
X038094Y005643D01*
X038175Y005724D01*
X038219Y005830D01*
X038219Y005945D01*
X038175Y006051D01*
X038094Y006132D01*
X037987Y006176D01*
X037873Y006176D01*
X037766Y006132D01*
X037722Y006087D01*
X037438Y006087D01*
X037394Y006132D01*
X037287Y006176D01*
X037173Y006176D01*
X037066Y006132D01*
X036985Y006051D01*
X036941Y005945D01*
X036941Y005830D01*
X036942Y005827D01*
X036920Y005827D01*
X036920Y006762D01*
X036994Y006793D01*
X037075Y006874D01*
X037119Y006980D01*
X037119Y007095D01*
X037075Y007201D01*
X036994Y007282D01*
X036887Y007326D01*
X036780Y007326D01*
X036780Y008045D01*
X036603Y008221D01*
X036603Y008227D01*
X036673Y008199D01*
X036787Y008199D01*
X036894Y008243D01*
X036975Y008324D01*
X036991Y008362D01*
X037023Y008349D01*
X037137Y008349D01*
X037244Y008393D01*
X037325Y008474D01*
X037369Y008580D01*
X037369Y008695D01*
X037325Y008801D01*
X037244Y008882D01*
X037137Y008926D01*
X037087Y008926D01*
X039759Y011597D01*
X039870Y011709D01*
X039870Y013729D01*
X039961Y013691D01*
X040146Y013691D01*
X040317Y013762D01*
X040448Y013892D01*
X040519Y014063D01*
X040519Y014248D01*
X040448Y014419D01*
X040317Y014550D01*
X040275Y014567D01*
X041318Y014567D01*
X041710Y014175D01*
X041710Y009329D01*
X041503Y009536D01*
X041209Y009657D01*
X040891Y009657D01*
X040597Y009536D01*
X040372Y009310D01*
X040250Y009016D01*
X040250Y008698D01*
X040372Y008404D01*
X040597Y008179D01*
X040891Y008057D01*
X041209Y008057D01*
X041503Y008179D01*
X041710Y008386D01*
X041710Y005399D01*
X041618Y005307D01*
X040626Y005307D01*
X040527Y005266D01*
X040451Y005190D01*
X038498Y003237D01*
X038426Y003207D01*
X030719Y003207D01*
X030813Y003301D02*
X038562Y003301D01*
X038661Y003400D02*
X031390Y003400D01*
X031270Y003400D02*
X030911Y003400D01*
X031010Y003498D02*
X031111Y003498D01*
X030430Y003437D02*
X027180Y003437D01*
X026680Y003937D01*
X026680Y003437D02*
X026930Y003187D01*
X030430Y003187D01*
X031830Y004187D02*
X032230Y004587D01*
X034880Y004587D01*
X035530Y003937D01*
X035783Y003794D02*
X039055Y003794D01*
X039153Y003892D02*
X035819Y003892D01*
X035819Y003991D02*
X039252Y003991D01*
X039350Y004089D02*
X035780Y004089D01*
X035680Y004188D02*
X038678Y004188D01*
X038580Y004286D02*
X035464Y004286D01*
X035365Y004385D02*
X038541Y004385D01*
X038515Y004483D02*
X035267Y004483D01*
X034898Y004286D02*
X034719Y004286D01*
X034719Y004385D02*
X034800Y004385D01*
X034681Y004188D02*
X034997Y004188D01*
X035095Y004089D02*
X034601Y004089D01*
X034502Y003991D02*
X035194Y003991D01*
X035241Y003892D02*
X034404Y003892D01*
X034305Y003794D02*
X035277Y003794D01*
X035364Y003695D02*
X034207Y003695D01*
X034108Y003597D02*
X038858Y003597D01*
X038956Y003695D02*
X035696Y003695D01*
X034010Y003498D02*
X038759Y003498D01*
X039424Y003400D02*
X040692Y003400D01*
X040538Y003498D02*
X039523Y003498D01*
X039621Y003597D02*
X040439Y003597D01*
X040359Y003695D02*
X039720Y003695D01*
X039818Y003794D02*
X040318Y003794D01*
X040277Y003892D02*
X039917Y003892D01*
X040015Y003991D02*
X040250Y003991D01*
X040250Y004089D02*
X040114Y004089D01*
X040212Y004188D02*
X040250Y004188D01*
X039646Y004385D02*
X039119Y004385D01*
X039119Y004483D02*
X039744Y004483D01*
X039843Y004582D02*
X039083Y004582D01*
X038995Y004680D02*
X039941Y004680D01*
X040040Y004779D02*
X038757Y004779D01*
X038659Y004877D02*
X040138Y004877D01*
X040237Y004976D02*
X038560Y004976D01*
X038462Y005074D02*
X040335Y005074D01*
X040434Y005173D02*
X038363Y005173D01*
X038265Y005271D02*
X040539Y005271D01*
X040252Y005588D02*
X040387Y005723D01*
X040460Y005900D01*
X040460Y006091D01*
X040387Y006267D01*
X040252Y006402D01*
X040075Y006475D01*
X039885Y006475D01*
X039708Y006402D01*
X039590Y006284D01*
X039472Y006402D01*
X039295Y006475D01*
X039105Y006475D01*
X038928Y006402D01*
X038793Y006267D01*
X038720Y006091D01*
X038720Y005900D01*
X038793Y005723D01*
X038928Y005588D01*
X039105Y005515D01*
X039295Y005515D01*
X039472Y005588D01*
X039590Y005706D01*
X039708Y005588D01*
X039885Y005515D01*
X040075Y005515D01*
X040252Y005588D01*
X040200Y005567D02*
X041710Y005567D01*
X041710Y005665D02*
X040329Y005665D01*
X040404Y005764D02*
X041710Y005764D01*
X041710Y005862D02*
X040445Y005862D01*
X040460Y005961D02*
X041710Y005961D01*
X041710Y006059D02*
X040460Y006059D01*
X040432Y006158D02*
X041710Y006158D01*
X041710Y006256D02*
X040391Y006256D01*
X040299Y006355D02*
X041710Y006355D01*
X041710Y006453D02*
X040128Y006453D01*
X039832Y006453D02*
X039348Y006453D01*
X039295Y006499D02*
X039472Y006572D01*
X039607Y006708D01*
X039680Y006884D01*
X039680Y007075D01*
X039607Y007251D01*
X039472Y007386D01*
X039295Y007459D01*
X039105Y007459D01*
X038928Y007386D01*
X038793Y007251D01*
X038720Y007075D01*
X038720Y006884D01*
X038793Y006708D01*
X038928Y006572D01*
X039105Y006499D01*
X039295Y006499D01*
X039422Y006552D02*
X041710Y006552D01*
X041710Y006650D02*
X039550Y006650D01*
X039624Y006749D02*
X041710Y006749D01*
X041710Y006847D02*
X039665Y006847D01*
X039680Y006946D02*
X041710Y006946D01*
X041710Y007044D02*
X039680Y007044D01*
X039652Y007143D02*
X041710Y007143D01*
X041710Y007241D02*
X039611Y007241D01*
X039518Y007340D02*
X041710Y007340D01*
X041710Y007438D02*
X039346Y007438D01*
X039054Y007438D02*
X036780Y007438D01*
X036780Y007340D02*
X038882Y007340D01*
X038789Y007241D02*
X037034Y007241D01*
X037099Y007143D02*
X038748Y007143D01*
X038720Y007044D02*
X037119Y007044D01*
X037105Y006946D02*
X038720Y006946D01*
X038735Y006847D02*
X037048Y006847D01*
X036920Y006749D02*
X038776Y006749D01*
X038850Y006650D02*
X036920Y006650D01*
X036920Y006552D02*
X038978Y006552D01*
X039052Y006453D02*
X036920Y006453D01*
X036920Y006355D02*
X038881Y006355D01*
X038789Y006256D02*
X036920Y006256D01*
X036920Y006158D02*
X037129Y006158D01*
X036994Y006059D02*
X036920Y006059D01*
X036920Y005961D02*
X036948Y005961D01*
X036941Y005862D02*
X036920Y005862D01*
X037230Y005887D02*
X037930Y005887D01*
X038191Y005764D02*
X038776Y005764D01*
X038735Y005862D02*
X038219Y005862D01*
X038212Y005961D02*
X038720Y005961D01*
X038720Y006059D02*
X038166Y006059D01*
X038031Y006158D02*
X038748Y006158D01*
X039519Y006355D02*
X039661Y006355D01*
X039631Y005665D02*
X039549Y005665D01*
X039420Y005567D02*
X039760Y005567D01*
X038980Y005567D02*
X037969Y005567D01*
X038068Y005468D02*
X041710Y005468D01*
X041681Y005370D02*
X038166Y005370D01*
X038116Y005665D02*
X038851Y005665D01*
X037924Y005074D02*
X037406Y005074D01*
X037419Y004976D02*
X038023Y004976D01*
X038121Y004877D02*
X037397Y004877D01*
X037330Y004779D02*
X038220Y004779D01*
X038318Y004680D02*
X036292Y004680D01*
X036193Y004582D02*
X038417Y004582D01*
X038982Y004188D02*
X039449Y004188D01*
X039547Y004286D02*
X039080Y004286D01*
X037826Y005173D02*
X037353Y005173D01*
X037199Y005271D02*
X037727Y005271D01*
X037629Y005370D02*
X036865Y005370D01*
X036822Y005271D02*
X037061Y005271D01*
X036580Y005437D02*
X036580Y006137D01*
X035580Y006137D01*
X035788Y005937D02*
X035744Y005893D01*
X035637Y005849D01*
X035523Y005849D01*
X035416Y005893D01*
X035335Y005974D01*
X035291Y006080D01*
X035291Y006195D01*
X035335Y006301D01*
X035416Y006382D01*
X035523Y006426D01*
X035637Y006426D01*
X035744Y006382D01*
X035788Y006337D01*
X036380Y006337D01*
X036380Y006749D01*
X036273Y006749D01*
X036166Y006793D01*
X036085Y006874D01*
X036041Y006980D01*
X036041Y007095D01*
X036074Y007174D01*
X035751Y007497D01*
X033959Y007497D01*
X032789Y006327D01*
X033209Y006327D01*
X034609Y004927D01*
X036001Y004927D01*
X036041Y004967D01*
X036041Y005045D01*
X036085Y005151D01*
X036166Y005232D01*
X036273Y005276D01*
X036334Y005276D01*
X036291Y005380D01*
X036291Y005495D01*
X036293Y005499D01*
X036273Y005499D01*
X036166Y005543D01*
X036085Y005624D01*
X036041Y005730D01*
X036041Y005845D01*
X036080Y005937D01*
X035788Y005937D01*
X035671Y005862D02*
X036049Y005862D01*
X036041Y005764D02*
X033772Y005764D01*
X033674Y005862D02*
X035489Y005862D01*
X035348Y005961D02*
X033575Y005961D01*
X033477Y006059D02*
X035300Y006059D01*
X035291Y006158D02*
X033378Y006158D01*
X033280Y006256D02*
X035317Y006256D01*
X035389Y006355D02*
X032816Y006355D01*
X032915Y006453D02*
X036380Y006453D01*
X036380Y006355D02*
X035771Y006355D01*
X036380Y006552D02*
X033013Y006552D01*
X033112Y006650D02*
X036380Y006650D01*
X036272Y006749D02*
X033210Y006749D01*
X033309Y006847D02*
X036112Y006847D01*
X036055Y006946D02*
X033407Y006946D01*
X033506Y007044D02*
X036041Y007044D01*
X036061Y007143D02*
X033604Y007143D01*
X033703Y007241D02*
X036007Y007241D01*
X035909Y007340D02*
X033801Y007340D01*
X033900Y007438D02*
X035810Y007438D01*
X035505Y007062D02*
X035480Y007037D01*
X036780Y007537D02*
X041710Y007537D01*
X041710Y007635D02*
X036780Y007635D01*
X036780Y007734D02*
X041710Y007734D01*
X041710Y007832D02*
X036780Y007832D01*
X036780Y007931D02*
X041710Y007931D01*
X041710Y008029D02*
X036780Y008029D01*
X036697Y008128D02*
X040721Y008128D01*
X040550Y008226D02*
X036854Y008226D01*
X036975Y008325D02*
X040451Y008325D01*
X040364Y008423D02*
X037274Y008423D01*
X037345Y008522D02*
X040323Y008522D01*
X040282Y008620D02*
X037369Y008620D01*
X037359Y008719D02*
X040250Y008719D01*
X040250Y008817D02*
X037308Y008817D01*
X037162Y008916D02*
X040250Y008916D01*
X040250Y009014D02*
X037176Y009014D01*
X037274Y009113D02*
X040290Y009113D01*
X040331Y009211D02*
X037373Y009211D01*
X037471Y009310D02*
X040372Y009310D01*
X040470Y009408D02*
X037570Y009408D01*
X037668Y009507D02*
X040568Y009507D01*
X040765Y009605D02*
X037767Y009605D01*
X037865Y009704D02*
X041710Y009704D01*
X041710Y009802D02*
X040263Y009802D01*
X040317Y009825D02*
X040448Y009955D01*
X040519Y010126D01*
X040519Y010311D01*
X040448Y010482D01*
X040317Y010613D01*
X040146Y010684D01*
X039961Y010684D01*
X039790Y010613D01*
X039659Y010482D01*
X039589Y010311D01*
X039589Y010126D01*
X039659Y009955D01*
X039790Y009825D01*
X039961Y009754D01*
X040146Y009754D01*
X040317Y009825D01*
X040393Y009901D02*
X041710Y009901D01*
X041710Y009999D02*
X040466Y009999D01*
X040507Y010098D02*
X041710Y010098D01*
X041710Y010196D02*
X040519Y010196D01*
X040519Y010295D02*
X041710Y010295D01*
X041710Y010393D02*
X040485Y010393D01*
X040438Y010492D02*
X041710Y010492D01*
X041710Y010590D02*
X040340Y010590D01*
X039768Y010590D02*
X038752Y010590D01*
X038653Y010492D02*
X039669Y010492D01*
X039623Y010393D02*
X038555Y010393D01*
X038456Y010295D02*
X039589Y010295D01*
X039589Y010196D02*
X038358Y010196D01*
X038259Y010098D02*
X039600Y010098D01*
X039641Y009999D02*
X038161Y009999D01*
X038062Y009901D02*
X039714Y009901D01*
X039844Y009802D02*
X037964Y009802D01*
X037069Y010295D02*
X035746Y010295D01*
X035775Y010324D02*
X035694Y010243D01*
X035587Y010199D01*
X035473Y010199D01*
X035366Y010243D01*
X035312Y010297D01*
X034851Y010297D01*
X034740Y010409D01*
X034701Y010447D01*
X034451Y010447D01*
X034340Y010559D01*
X034340Y010559D01*
X033551Y011347D01*
X033251Y011347D01*
X033140Y011459D01*
X033140Y011966D01*
X033251Y012077D01*
X034151Y012977D01*
X034155Y012977D01*
X034185Y013051D01*
X034266Y013132D01*
X034373Y013176D01*
X034487Y013176D01*
X034594Y013132D01*
X034675Y013051D01*
X034719Y012945D01*
X034719Y012830D01*
X034675Y012724D01*
X034633Y012682D01*
X034669Y012595D01*
X034669Y012480D01*
X034625Y012374D01*
X034570Y012319D01*
X034570Y012316D01*
X034709Y012177D01*
X036309Y012177D01*
X036420Y012066D01*
X036809Y011677D01*
X037012Y011677D01*
X037066Y011732D01*
X037173Y011776D01*
X037287Y011776D01*
X037394Y011732D01*
X037475Y011651D01*
X037519Y011545D01*
X037519Y011430D01*
X037475Y011324D01*
X037394Y011243D01*
X037287Y011199D01*
X037173Y011199D01*
X037066Y011243D01*
X037012Y011297D01*
X036989Y011297D01*
X037070Y011216D01*
X037070Y010976D01*
X037137Y010976D01*
X037244Y010932D01*
X037325Y010851D01*
X037369Y010745D01*
X037369Y010711D01*
X037385Y010751D01*
X037466Y010832D01*
X037573Y010876D01*
X037687Y010876D01*
X037794Y010832D01*
X037875Y010751D01*
X037875Y010751D01*
X038190Y011066D01*
X038190Y011359D01*
X038150Y011399D01*
X038073Y011399D01*
X037966Y011443D01*
X037885Y011524D01*
X037841Y011630D01*
X037841Y011745D01*
X037885Y011851D01*
X037966Y011932D01*
X038073Y011976D01*
X038187Y011976D01*
X038294Y011932D01*
X038375Y011851D01*
X038419Y011745D01*
X038419Y011667D01*
X038540Y011546D01*
X038540Y011716D01*
X038991Y012167D01*
X038991Y012245D01*
X039035Y012351D01*
X039116Y012432D01*
X039223Y012476D01*
X039337Y012476D01*
X039444Y012432D01*
X039490Y012386D01*
X039490Y013659D01*
X039251Y013897D01*
X038318Y013897D01*
X038319Y013895D01*
X038319Y013780D01*
X038275Y013674D01*
X038194Y013593D01*
X038087Y013549D01*
X038010Y013549D01*
X037709Y013247D01*
X034359Y013247D01*
X034009Y012897D01*
X032918Y012897D01*
X032919Y012895D01*
X032919Y012780D01*
X032875Y012674D01*
X032794Y012593D01*
X032687Y012549D01*
X032573Y012549D01*
X032466Y012593D01*
X032422Y012637D01*
X030238Y012637D01*
X030194Y012593D01*
X030157Y012577D01*
X032109Y012577D01*
X032220Y012466D01*
X032490Y012196D01*
X032567Y012196D01*
X032674Y012152D01*
X032755Y012071D01*
X032799Y011965D01*
X032799Y011850D01*
X032755Y011744D01*
X032674Y011663D01*
X032567Y011619D01*
X032453Y011619D01*
X032445Y011622D01*
X032425Y011574D01*
X032344Y011493D01*
X032237Y011449D01*
X032123Y011449D01*
X032016Y011493D01*
X031962Y011547D01*
X029670Y011547D01*
X029670Y011516D01*
X030470Y010716D01*
X030470Y010527D01*
X033001Y010527D01*
X033190Y010716D01*
X033301Y010827D01*
X034059Y010827D01*
X034259Y010627D01*
X034370Y010516D01*
X034370Y010209D01*
X034169Y010007D01*
X034169Y009930D01*
X034130Y009837D01*
X034144Y009832D01*
X034198Y009777D01*
X035062Y009777D01*
X035116Y009832D01*
X035223Y009876D01*
X035337Y009876D01*
X035444Y009832D01*
X035525Y009751D01*
X035569Y009645D01*
X035569Y009530D01*
X035568Y009527D01*
X036301Y009527D01*
X037197Y010423D01*
X037137Y010399D01*
X037023Y010399D01*
X036916Y010443D01*
X036905Y010454D01*
X036894Y010443D01*
X036787Y010399D01*
X036673Y010399D01*
X036566Y010443D01*
X036485Y010524D01*
X036441Y010630D01*
X036441Y010745D01*
X036485Y010851D01*
X036540Y010906D01*
X036540Y011009D01*
X036253Y011295D01*
X036247Y011281D01*
X036166Y011200D01*
X036060Y011156D01*
X035983Y011156D01*
X035924Y011097D01*
X035289Y011097D01*
X035310Y011076D01*
X035387Y011076D01*
X035494Y011032D01*
X035575Y010951D01*
X035619Y010845D01*
X035619Y010763D01*
X035694Y010732D01*
X035775Y010651D01*
X035819Y010545D01*
X035819Y010430D01*
X035775Y010324D01*
X035804Y010393D02*
X037167Y010393D01*
X036970Y010196D02*
X034358Y010196D01*
X034370Y010295D02*
X035314Y010295D01*
X035819Y010492D02*
X036517Y010492D01*
X036458Y010590D02*
X035800Y010590D01*
X035737Y010689D02*
X036441Y010689D01*
X036459Y010787D02*
X035619Y010787D01*
X035602Y010886D02*
X036520Y010886D01*
X036540Y010984D02*
X035541Y010984D01*
X035303Y011083D02*
X036466Y011083D01*
X036367Y011181D02*
X036122Y011181D01*
X036246Y011280D02*
X036269Y011280D01*
X037006Y011280D02*
X037029Y011280D01*
X037070Y011181D02*
X038190Y011181D01*
X038190Y011083D02*
X037070Y011083D01*
X037070Y010984D02*
X038108Y010984D01*
X038010Y010886D02*
X037290Y010886D01*
X037351Y010787D02*
X037422Y010787D01*
X037838Y010787D02*
X037911Y010787D01*
X038190Y011280D02*
X037431Y011280D01*
X037497Y011378D02*
X038170Y011378D01*
X037932Y011477D02*
X037519Y011477D01*
X037506Y011575D02*
X037864Y011575D01*
X037841Y011674D02*
X037452Y011674D01*
X037296Y011772D02*
X037853Y011772D01*
X037905Y011871D02*
X036615Y011871D01*
X036517Y011969D02*
X038056Y011969D01*
X038204Y011969D02*
X038793Y011969D01*
X038695Y011871D02*
X038355Y011871D01*
X038407Y011772D02*
X038596Y011772D01*
X038540Y011674D02*
X038419Y011674D01*
X038511Y011575D02*
X038540Y011575D01*
X038892Y012068D02*
X036418Y012068D01*
X036320Y012166D02*
X038990Y012166D01*
X039000Y012265D02*
X034621Y012265D01*
X034614Y012363D02*
X039048Y012363D01*
X039188Y012462D02*
X034661Y012462D01*
X034669Y012560D02*
X039490Y012560D01*
X039490Y012462D02*
X039372Y012462D01*
X039490Y012659D02*
X034642Y012659D01*
X034689Y012757D02*
X039490Y012757D01*
X039490Y012856D02*
X034719Y012856D01*
X034715Y012954D02*
X039490Y012954D01*
X039490Y013053D02*
X034673Y013053D01*
X034780Y013137D02*
X034680Y013237D01*
X034330Y013237D01*
X033530Y012437D01*
X032630Y012437D01*
X032716Y012560D02*
X033734Y012560D01*
X033636Y012462D02*
X032224Y012462D01*
X032126Y012560D02*
X032544Y012560D01*
X032323Y012363D02*
X033537Y012363D01*
X033439Y012265D02*
X032421Y012265D01*
X032639Y012166D02*
X033340Y012166D01*
X033242Y012068D02*
X032756Y012068D01*
X032797Y011969D02*
X033143Y011969D01*
X033140Y011871D02*
X032799Y011871D01*
X032767Y011772D02*
X033140Y011772D01*
X033140Y011674D02*
X032685Y011674D01*
X032425Y011575D02*
X033140Y011575D01*
X033140Y011477D02*
X032306Y011477D01*
X032054Y011477D02*
X029709Y011477D01*
X029808Y011378D02*
X033220Y011378D01*
X033619Y011280D02*
X029906Y011280D01*
X030005Y011181D02*
X033717Y011181D01*
X033816Y011083D02*
X030103Y011083D01*
X030202Y010984D02*
X033914Y010984D01*
X034013Y010886D02*
X030300Y010886D01*
X030399Y010787D02*
X033261Y010787D01*
X033163Y010689D02*
X030470Y010689D01*
X030470Y010590D02*
X033064Y010590D01*
X034099Y010787D02*
X034111Y010787D01*
X034197Y010689D02*
X034210Y010689D01*
X034296Y010590D02*
X034308Y010590D01*
X034370Y010492D02*
X034407Y010492D01*
X034370Y010393D02*
X034755Y010393D01*
X034259Y010098D02*
X036872Y010098D01*
X036773Y009999D02*
X034169Y009999D01*
X034157Y009901D02*
X036675Y009901D01*
X036576Y009802D02*
X035473Y009802D01*
X035544Y009704D02*
X036478Y009704D01*
X036379Y009605D02*
X035569Y009605D01*
X035087Y009802D02*
X034173Y009802D01*
X036315Y008227D02*
X036580Y007962D01*
X036580Y006137D01*
X037331Y006158D02*
X037829Y006158D01*
X036291Y005468D02*
X034068Y005468D01*
X034166Y005370D02*
X036295Y005370D01*
X036261Y005271D02*
X034265Y005271D01*
X034363Y005173D02*
X036107Y005173D01*
X036054Y005074D02*
X034462Y005074D01*
X034560Y004976D02*
X036041Y004976D01*
X036530Y004779D02*
X036930Y004779D01*
X036142Y005567D02*
X033969Y005567D01*
X033871Y005665D02*
X036068Y005665D01*
X041379Y008128D02*
X041710Y008128D01*
X041710Y008226D02*
X041550Y008226D01*
X041649Y008325D02*
X041710Y008325D01*
X041710Y009408D02*
X041630Y009408D01*
X041710Y009507D02*
X041532Y009507D01*
X041710Y009605D02*
X041335Y009605D01*
X041710Y010689D02*
X038850Y010689D01*
X038949Y010787D02*
X041710Y010787D01*
X041710Y010886D02*
X039047Y010886D01*
X039146Y010984D02*
X041710Y010984D01*
X041710Y011083D02*
X039244Y011083D01*
X039343Y011181D02*
X041710Y011181D01*
X041710Y011280D02*
X039441Y011280D01*
X039540Y011378D02*
X041710Y011378D01*
X041710Y011477D02*
X039638Y011477D01*
X039737Y011575D02*
X041710Y011575D01*
X041710Y011674D02*
X039835Y011674D01*
X039870Y011772D02*
X041710Y011772D01*
X041710Y011871D02*
X039870Y011871D01*
X039870Y011969D02*
X041710Y011969D01*
X041710Y012068D02*
X039870Y012068D01*
X039870Y012166D02*
X041710Y012166D01*
X041710Y012265D02*
X039870Y012265D01*
X039870Y012363D02*
X041710Y012363D01*
X041710Y012462D02*
X039870Y012462D01*
X039870Y012560D02*
X041710Y012560D01*
X041710Y012659D02*
X039870Y012659D01*
X039870Y012757D02*
X041710Y012757D01*
X041710Y012856D02*
X039870Y012856D01*
X039870Y012954D02*
X041710Y012954D01*
X041710Y013053D02*
X039870Y013053D01*
X039870Y013151D02*
X041710Y013151D01*
X041710Y013250D02*
X039870Y013250D01*
X039870Y013348D02*
X041710Y013348D01*
X041710Y013447D02*
X039870Y013447D01*
X039870Y013545D02*
X041710Y013545D01*
X041710Y013644D02*
X039870Y013644D01*
X039490Y013644D02*
X038245Y013644D01*
X038303Y013742D02*
X039406Y013742D01*
X039308Y013841D02*
X038319Y013841D01*
X038007Y013545D02*
X039490Y013545D01*
X039490Y013447D02*
X037908Y013447D01*
X037810Y013348D02*
X039490Y013348D01*
X039490Y013250D02*
X037711Y013250D01*
X037301Y013927D02*
X034051Y013927D01*
X033940Y013816D01*
X033940Y013816D01*
X033701Y013577D01*
X030859Y013577D01*
X030770Y013666D01*
X030659Y013777D01*
X030251Y013777D01*
X029901Y013427D01*
X028951Y013427D01*
X028451Y012927D01*
X027969Y012927D01*
X027969Y012995D01*
X027925Y013101D01*
X027844Y013182D01*
X027737Y013226D01*
X027623Y013226D01*
X027516Y013182D01*
X027504Y013170D01*
X027504Y013171D01*
X027363Y013311D01*
X027179Y013387D01*
X026981Y013387D01*
X026797Y013311D01*
X026660Y013174D01*
X026660Y013214D01*
X026572Y013302D01*
X025988Y013302D01*
X025980Y013294D01*
X025972Y013302D01*
X025880Y013302D01*
X025880Y013372D01*
X025972Y013372D01*
X025980Y013380D01*
X025988Y013372D01*
X026572Y013372D01*
X026660Y013460D01*
X026660Y013600D01*
X026797Y013463D01*
X026981Y013387D01*
X027179Y013387D01*
X027363Y013463D01*
X027504Y013604D01*
X027580Y013788D01*
X027580Y013849D01*
X027637Y013849D01*
X027744Y013893D01*
X027825Y013974D01*
X027869Y014080D01*
X027869Y014195D01*
X027825Y014301D01*
X027744Y014382D01*
X027683Y014407D01*
X027713Y014437D01*
X027830Y014554D01*
X027830Y015149D01*
X027887Y015149D01*
X027994Y015193D01*
X028075Y015274D01*
X028119Y015380D01*
X028119Y015495D01*
X028075Y015601D01*
X027994Y015682D01*
X027887Y015726D01*
X027830Y015726D01*
X027830Y015939D01*
X027873Y015896D01*
X028064Y015817D01*
X028271Y015817D01*
X028462Y015896D01*
X028608Y016043D01*
X028687Y016234D01*
X028687Y016441D01*
X028608Y016632D01*
X028462Y016778D01*
X028271Y016857D01*
X028064Y016857D01*
X027873Y016778D01*
X027830Y016735D01*
X027830Y017387D01*
X027923Y017349D01*
X028037Y017349D01*
X028144Y017393D01*
X028225Y017474D01*
X028269Y017580D01*
X028269Y017695D01*
X028225Y017801D01*
X028144Y017882D01*
X028037Y017926D01*
X027923Y017926D01*
X027816Y017882D01*
X027772Y017837D01*
X027647Y017837D01*
X027567Y017758D01*
X027580Y017788D01*
X027580Y017987D01*
X027504Y018171D01*
X027487Y018187D01*
X028455Y018187D01*
X028455Y017975D01*
X028530Y017900D01*
X028530Y017804D01*
X028630Y017704D01*
X028747Y017587D01*
X029563Y017587D01*
X029813Y017837D01*
X034247Y017837D01*
X034530Y017554D01*
X034530Y016496D01*
X034485Y016451D01*
X034441Y016345D01*
X034441Y016230D01*
X034485Y016124D01*
X034566Y016043D01*
X034673Y015999D01*
X034787Y015999D01*
X034894Y016043D01*
X034975Y016124D01*
X035019Y016230D01*
X035019Y016345D01*
X034975Y016451D01*
X034930Y016496D01*
X034930Y017720D01*
X034813Y017837D01*
X034633Y018017D01*
X038018Y018017D01*
X038360Y017675D01*
X038360Y015984D01*
X038401Y015884D01*
X039601Y014684D01*
X039677Y014608D01*
X039776Y014567D01*
X039832Y014567D01*
X039790Y014550D01*
X039659Y014419D01*
X039589Y014248D01*
X039589Y014097D01*
X039520Y014166D01*
X039450Y014236D01*
X039469Y014280D01*
X039469Y014395D01*
X039425Y014501D01*
X039344Y014582D01*
X039237Y014626D01*
X039123Y014626D01*
X039016Y014582D01*
X038935Y014501D01*
X038905Y014427D01*
X037801Y014427D01*
X037301Y013927D01*
X037313Y013939D02*
X027790Y013939D01*
X027851Y014038D02*
X037412Y014038D01*
X037510Y014136D02*
X027869Y014136D01*
X027852Y014235D02*
X037609Y014235D01*
X037707Y014333D02*
X027792Y014333D01*
X027707Y014432D02*
X036977Y014432D01*
X037016Y014393D02*
X037123Y014349D01*
X037237Y014349D01*
X037344Y014393D01*
X037425Y014474D01*
X037469Y014580D01*
X037469Y014695D01*
X037425Y014801D01*
X037380Y014846D01*
X037380Y014929D01*
X037425Y014974D01*
X037469Y015080D01*
X037469Y015195D01*
X037425Y015301D01*
X037344Y015382D01*
X037237Y015426D01*
X037123Y015426D01*
X037016Y015382D01*
X036935Y015301D01*
X036891Y015195D01*
X036891Y015080D01*
X036935Y014974D01*
X036980Y014929D01*
X036980Y014846D01*
X036935Y014801D01*
X036891Y014695D01*
X036891Y014580D01*
X036935Y014474D01*
X037016Y014393D01*
X036912Y014530D02*
X027806Y014530D01*
X027830Y014629D02*
X036891Y014629D01*
X036905Y014727D02*
X027830Y014727D01*
X027830Y014826D02*
X036960Y014826D01*
X036980Y014924D02*
X027830Y014924D01*
X027830Y015023D02*
X036915Y015023D01*
X036891Y015121D02*
X027830Y015121D01*
X028021Y015220D02*
X036902Y015220D01*
X036953Y015318D02*
X028093Y015318D01*
X028119Y015417D02*
X037100Y015417D01*
X037260Y015417D02*
X038869Y015417D01*
X038967Y015318D02*
X037407Y015318D01*
X037458Y015220D02*
X039066Y015220D01*
X039164Y015121D02*
X037469Y015121D01*
X037445Y015023D02*
X039263Y015023D01*
X039361Y014924D02*
X037380Y014924D01*
X037400Y014826D02*
X039460Y014826D01*
X039558Y014727D02*
X037455Y014727D01*
X037469Y014629D02*
X039657Y014629D01*
X039771Y014530D02*
X039395Y014530D01*
X039453Y014432D02*
X039672Y014432D01*
X039624Y014333D02*
X039469Y014333D01*
X039451Y014235D02*
X039589Y014235D01*
X039589Y014136D02*
X039550Y014136D01*
X038965Y014530D02*
X037448Y014530D01*
X037383Y014432D02*
X038907Y014432D01*
X040337Y014530D02*
X041355Y014530D01*
X041454Y014432D02*
X040435Y014432D01*
X040483Y014333D02*
X041552Y014333D01*
X041651Y014235D02*
X040519Y014235D01*
X040519Y014136D02*
X041710Y014136D01*
X041710Y014038D02*
X040508Y014038D01*
X040467Y013939D02*
X041710Y013939D01*
X041710Y013841D02*
X040396Y013841D01*
X040270Y013742D02*
X041710Y013742D01*
X039490Y013151D02*
X034547Y013151D01*
X034313Y013151D02*
X034263Y013151D01*
X034187Y013053D02*
X034164Y013053D01*
X034128Y012954D02*
X034066Y012954D01*
X034030Y012856D02*
X032919Y012856D01*
X032909Y012757D02*
X033931Y012757D01*
X033833Y012659D02*
X032860Y012659D01*
X032630Y012837D02*
X030030Y012837D01*
X029921Y013447D02*
X027323Y013447D01*
X027274Y013348D02*
X028872Y013348D01*
X028774Y013250D02*
X027425Y013250D01*
X027445Y013545D02*
X030019Y013545D01*
X030118Y013644D02*
X027520Y013644D01*
X027561Y013742D02*
X030216Y013742D01*
X030694Y013742D02*
X033866Y013742D01*
X033768Y013644D02*
X030792Y013644D01*
X028675Y013151D02*
X027874Y013151D01*
X027945Y013053D02*
X028577Y013053D01*
X028478Y012954D02*
X027969Y012954D01*
X027080Y012887D02*
X027030Y012837D01*
X026280Y012837D01*
X025680Y012837D02*
X025680Y011837D01*
X025680Y011537D01*
X025480Y011337D01*
X025204Y011477D02*
X024306Y011477D01*
X024367Y011575D02*
X025282Y011575D01*
X025300Y011674D02*
X024388Y011674D01*
X024379Y011772D02*
X025300Y011772D01*
X025300Y011871D02*
X024333Y011871D01*
X024280Y011969D02*
X025300Y011969D01*
X025300Y012068D02*
X024280Y012068D01*
X024280Y012166D02*
X025300Y012166D01*
X025350Y012265D02*
X024690Y012265D01*
X024789Y012363D02*
X025480Y012363D01*
X025300Y012462D02*
X024887Y012462D01*
X024986Y012560D02*
X025300Y012560D01*
X025300Y012659D02*
X025084Y012659D01*
X025180Y012757D02*
X025300Y012757D01*
X025300Y012856D02*
X025180Y012856D01*
X025180Y012954D02*
X025300Y012954D01*
X025300Y013053D02*
X025180Y013053D01*
X025180Y013151D02*
X025300Y013151D01*
X025335Y013250D02*
X025180Y013250D01*
X025180Y013348D02*
X025480Y013348D01*
X025313Y013447D02*
X025180Y013447D01*
X025180Y013545D02*
X025300Y013545D01*
X025300Y013644D02*
X025180Y013644D01*
X025180Y013742D02*
X025300Y013742D01*
X025300Y013841D02*
X025180Y013841D01*
X025180Y013939D02*
X025300Y013939D01*
X025300Y014038D02*
X025263Y014038D01*
X024980Y014037D02*
X025330Y014387D01*
X027380Y014387D01*
X027630Y014637D01*
X027630Y015237D01*
X027830Y015437D01*
X027630Y015637D01*
X027630Y017537D01*
X027730Y017637D01*
X027980Y017637D01*
X028233Y017781D02*
X028554Y017781D01*
X028530Y017879D02*
X028146Y017879D01*
X028269Y017682D02*
X028652Y017682D01*
X028830Y017787D02*
X028730Y017887D01*
X028730Y018287D01*
X028730Y018387D01*
X026780Y018387D01*
X026580Y018187D01*
X026580Y015687D01*
X026080Y015187D01*
X025800Y015318D02*
X022346Y015318D01*
X022363Y015311D02*
X022179Y015387D01*
X022363Y015463D01*
X022504Y015604D01*
X022580Y015788D01*
X022580Y015987D01*
X022504Y016171D01*
X022363Y016311D01*
X022179Y016387D01*
X021981Y016387D01*
X021797Y016311D01*
X021656Y016171D01*
X021580Y015987D01*
X021580Y015788D01*
X021656Y015604D01*
X021797Y015463D01*
X021981Y015387D01*
X022179Y015387D01*
X021981Y015387D01*
X021797Y015311D01*
X021656Y015171D01*
X021580Y014987D01*
X021580Y014788D01*
X021656Y014604D01*
X021797Y014463D01*
X021981Y014387D01*
X022179Y014387D01*
X022363Y014463D01*
X022504Y014604D01*
X022580Y014788D01*
X022580Y014987D01*
X022504Y015171D01*
X022363Y015311D01*
X022455Y015220D02*
X025772Y015220D01*
X025773Y015121D02*
X022524Y015121D01*
X022565Y015023D02*
X025814Y015023D01*
X025909Y014924D02*
X022580Y014924D01*
X022580Y014826D02*
X026580Y014826D01*
X026580Y014924D02*
X026251Y014924D01*
X026346Y015023D02*
X026595Y015023D01*
X026636Y015121D02*
X026387Y015121D01*
X026395Y015220D02*
X026705Y015220D01*
X026814Y015318D02*
X026494Y015318D01*
X026592Y015417D02*
X026870Y015417D01*
X026745Y015515D02*
X026691Y015515D01*
X026322Y015712D02*
X022549Y015712D01*
X022580Y015811D02*
X026380Y015811D01*
X026380Y015909D02*
X022580Y015909D01*
X022571Y016008D02*
X026380Y016008D01*
X026380Y016106D02*
X022530Y016106D01*
X022470Y016205D02*
X026380Y016205D01*
X026380Y016303D02*
X022371Y016303D01*
X022215Y016402D02*
X026380Y016402D01*
X026380Y016500D02*
X022400Y016500D01*
X022499Y016599D02*
X026380Y016599D01*
X026380Y016697D02*
X022543Y016697D01*
X022580Y016796D02*
X026380Y016796D01*
X026380Y016894D02*
X022580Y016894D01*
X022577Y016993D02*
X026380Y016993D01*
X026380Y017091D02*
X022537Y017091D01*
X022485Y017190D02*
X026380Y017190D01*
X026380Y017288D02*
X022386Y017288D01*
X021774Y017288D02*
X021386Y017288D01*
X021485Y017190D02*
X021675Y017190D01*
X021623Y017091D02*
X021537Y017091D01*
X021577Y016993D02*
X021583Y016993D01*
X021580Y016894D02*
X021580Y016894D01*
X021580Y016796D02*
X021580Y016796D01*
X021543Y016697D02*
X021617Y016697D01*
X021661Y016599D02*
X021499Y016599D01*
X021400Y016500D02*
X021760Y016500D01*
X021789Y016303D02*
X021371Y016303D01*
X021470Y016205D02*
X021690Y016205D01*
X021630Y016106D02*
X021530Y016106D01*
X021571Y016008D02*
X021589Y016008D01*
X021580Y015909D02*
X021580Y015909D01*
X021580Y015811D02*
X021580Y015811D01*
X021549Y015712D02*
X021611Y015712D01*
X021652Y015614D02*
X021508Y015614D01*
X021415Y015515D02*
X021745Y015515D01*
X021909Y015417D02*
X021251Y015417D01*
X021346Y015318D02*
X021814Y015318D01*
X021705Y015220D02*
X021455Y015220D01*
X021524Y015121D02*
X021636Y015121D01*
X021595Y015023D02*
X021565Y015023D01*
X021580Y014924D02*
X021580Y014924D01*
X021580Y014826D02*
X021580Y014826D01*
X021555Y014727D02*
X021605Y014727D01*
X021646Y014629D02*
X021514Y014629D01*
X021430Y014530D02*
X021730Y014530D01*
X021873Y014432D02*
X021287Y014432D01*
X021310Y014333D02*
X021850Y014333D01*
X021797Y014311D02*
X021981Y014387D01*
X022179Y014387D01*
X022363Y014311D01*
X022504Y014171D01*
X022580Y013987D01*
X022580Y013788D01*
X022504Y013604D01*
X022363Y013463D01*
X022179Y013387D01*
X021981Y013387D01*
X021797Y013463D01*
X021656Y013604D01*
X021580Y013788D01*
X021580Y013987D01*
X021656Y014171D01*
X021797Y014311D01*
X021720Y014235D02*
X021440Y014235D01*
X021518Y014136D02*
X021642Y014136D01*
X021601Y014038D02*
X021559Y014038D01*
X021580Y013939D02*
X021580Y013939D01*
X021580Y013841D02*
X021580Y013841D01*
X021561Y013742D02*
X021599Y013742D01*
X021640Y013644D02*
X021520Y013644D01*
X021445Y013545D02*
X021715Y013545D01*
X021837Y013447D02*
X021323Y013447D01*
X021274Y013348D02*
X021886Y013348D01*
X021797Y013311D02*
X021981Y013387D01*
X022179Y013387D01*
X022363Y013311D01*
X022504Y013171D01*
X022580Y012987D01*
X022580Y012788D01*
X022504Y012604D01*
X022363Y012463D01*
X022179Y012387D01*
X021981Y012387D01*
X021797Y012463D01*
X021656Y012604D01*
X021580Y012788D01*
X021580Y012987D01*
X021656Y013171D01*
X021797Y013311D01*
X021735Y013250D02*
X021425Y013250D01*
X021512Y013151D02*
X021648Y013151D01*
X021607Y013053D02*
X021553Y013053D01*
X021580Y012954D02*
X021580Y012954D01*
X021580Y012856D02*
X021580Y012856D01*
X021567Y012757D02*
X021593Y012757D01*
X021633Y012659D02*
X021527Y012659D01*
X021460Y012560D02*
X021700Y012560D01*
X021801Y012462D02*
X021359Y012462D01*
X021237Y012363D02*
X023527Y012363D01*
X023522Y012462D02*
X022359Y012462D01*
X022460Y012560D02*
X023547Y012560D01*
X023615Y012659D02*
X022527Y012659D01*
X022567Y012757D02*
X024617Y012757D01*
X024519Y012659D02*
X024045Y012659D01*
X023830Y012437D02*
X024580Y012437D01*
X024980Y012837D01*
X024980Y014037D01*
X024780Y014038D02*
X022559Y014038D01*
X022580Y013939D02*
X024780Y013939D01*
X024780Y013841D02*
X022580Y013841D01*
X022561Y013742D02*
X024780Y013742D01*
X024780Y013644D02*
X022520Y013644D01*
X022445Y013545D02*
X024780Y013545D01*
X024780Y013447D02*
X022323Y013447D01*
X022274Y013348D02*
X024780Y013348D01*
X024780Y013250D02*
X022425Y013250D01*
X022512Y013151D02*
X024780Y013151D01*
X024780Y013053D02*
X022553Y013053D01*
X022580Y012954D02*
X024780Y012954D01*
X024716Y012856D02*
X022580Y012856D01*
X023568Y012265D02*
X021410Y012265D01*
X021506Y012166D02*
X023678Y012166D01*
X023880Y012068D02*
X021546Y012068D01*
X021580Y011969D02*
X023880Y011969D01*
X023827Y011871D02*
X021580Y011871D01*
X021574Y011772D02*
X023781Y011772D01*
X023772Y011674D02*
X021533Y011674D01*
X021475Y011575D02*
X023793Y011575D01*
X023854Y011477D02*
X021377Y011477D01*
X021395Y011280D02*
X021765Y011280D01*
X021667Y011181D02*
X021493Y011181D01*
X021540Y011083D02*
X021620Y011083D01*
X021580Y010984D02*
X021580Y010984D01*
X021580Y010886D02*
X021580Y010886D01*
X021580Y010787D02*
X021580Y010787D01*
X021539Y010689D02*
X021621Y010689D01*
X021330Y010437D02*
X021080Y010687D01*
X021080Y010887D01*
X020621Y010689D02*
X019361Y010689D01*
X019263Y010787D02*
X020580Y010787D01*
X020580Y010886D02*
X019164Y010886D01*
X019066Y010984D02*
X020580Y010984D01*
X020620Y011083D02*
X019662Y011083D01*
X019749Y011181D02*
X020667Y011181D01*
X020765Y011280D02*
X019788Y011280D01*
X019978Y011378D02*
X019982Y011378D01*
X019680Y011537D02*
X019480Y011337D01*
X019680Y011537D02*
X019680Y011837D01*
X019680Y012837D01*
X019680Y013837D01*
X020280Y013837D02*
X021030Y013837D01*
X021080Y013887D01*
X020720Y014235D02*
X020640Y014235D01*
X020850Y014333D02*
X016310Y014333D01*
X016287Y014432D02*
X020873Y014432D01*
X020730Y014530D02*
X016430Y014530D01*
X016514Y014629D02*
X020646Y014629D01*
X020605Y014727D02*
X016555Y014727D01*
X016580Y014826D02*
X020580Y014826D01*
X020580Y014924D02*
X016580Y014924D01*
X016565Y015023D02*
X020595Y015023D01*
X020636Y015121D02*
X016524Y015121D01*
X016455Y015220D02*
X020705Y015220D01*
X020814Y015318D02*
X016346Y015318D01*
X016251Y015417D02*
X020909Y015417D01*
X020745Y015515D02*
X016415Y015515D01*
X016508Y015614D02*
X020652Y015614D01*
X020611Y015712D02*
X016549Y015712D01*
X016580Y015811D02*
X020580Y015811D01*
X020580Y015909D02*
X016580Y015909D01*
X016571Y016008D02*
X020589Y016008D01*
X020630Y016106D02*
X016530Y016106D01*
X016470Y016205D02*
X020690Y016205D01*
X020789Y016303D02*
X016371Y016303D01*
X016215Y016402D02*
X020945Y016402D01*
X020760Y016500D02*
X016400Y016500D01*
X016499Y016599D02*
X020661Y016599D01*
X020617Y016697D02*
X016543Y016697D01*
X016580Y016796D02*
X020580Y016796D01*
X020580Y016894D02*
X016580Y016894D01*
X016577Y016993D02*
X020583Y016993D01*
X020623Y017091D02*
X016537Y017091D01*
X016485Y017190D02*
X020675Y017190D01*
X020774Y017288D02*
X016386Y017288D01*
X014945Y016402D02*
X010215Y016402D01*
X008945Y016402D02*
X008770Y016402D01*
X008770Y016303D02*
X008789Y016303D01*
X007580Y014537D02*
X007280Y014537D01*
X007580Y014537D02*
X007680Y014437D01*
X008770Y014432D02*
X008873Y014432D01*
X008850Y014333D02*
X008770Y014333D01*
X007280Y013637D02*
X007280Y013087D01*
X007630Y012737D01*
X007630Y011887D01*
X008770Y011477D02*
X008783Y011477D01*
X008770Y011378D02*
X008959Y011378D01*
X010080Y011887D02*
X011380Y011887D01*
X011580Y011687D01*
X012080Y011687D02*
X012080Y012187D01*
X011830Y012437D01*
X011547Y012560D02*
X010460Y012560D01*
X010527Y012659D02*
X011615Y012659D01*
X011522Y012462D02*
X010359Y012462D01*
X008923Y012363D02*
X008770Y012363D01*
X008770Y012462D02*
X008801Y012462D01*
X008770Y013348D02*
X008886Y013348D01*
X008837Y013447D02*
X008770Y013447D01*
X006280Y012265D02*
X005836Y012265D01*
X005836Y012363D02*
X006222Y012363D01*
X006124Y012462D02*
X005833Y012462D01*
X005789Y012560D02*
X006025Y012560D01*
X005927Y012659D02*
X005690Y012659D01*
X005592Y012757D02*
X005828Y012757D01*
X005730Y012856D02*
X005493Y012856D01*
X005395Y012954D02*
X005631Y012954D01*
X005980Y012337D02*
X005980Y011537D01*
X005836Y011575D02*
X006280Y011575D01*
X006280Y011477D02*
X005836Y011477D01*
X005836Y011378D02*
X006280Y011378D01*
X006280Y011280D02*
X005836Y011280D01*
X005836Y011181D02*
X006280Y011181D01*
X006280Y011083D02*
X005836Y011083D01*
X005836Y010984D02*
X006280Y010984D01*
X006280Y010886D02*
X005836Y010886D01*
X005836Y010787D02*
X006280Y010787D01*
X006280Y010689D02*
X005836Y010689D01*
X005836Y010590D02*
X006280Y010590D01*
X006280Y010492D02*
X005836Y010492D01*
X005836Y010393D02*
X006280Y010393D01*
X006280Y010295D02*
X005836Y010295D01*
X005836Y010196D02*
X006280Y010196D01*
X006280Y010098D02*
X006249Y010098D01*
X005899Y010098D02*
X005836Y010098D01*
X005836Y011674D02*
X006280Y011674D01*
X006280Y011772D02*
X005836Y011772D01*
X005836Y011871D02*
X006280Y011871D01*
X006280Y011969D02*
X005836Y011969D01*
X005836Y012068D02*
X006280Y012068D01*
X006280Y012166D02*
X005836Y012166D01*
X004524Y012462D02*
X004359Y012462D01*
X004211Y013374D02*
X004179Y013387D01*
X004193Y013393D01*
X004211Y013374D01*
X016440Y014235D02*
X019320Y014235D01*
X019300Y014136D02*
X016518Y014136D01*
X018330Y013687D02*
X018580Y013437D01*
X018580Y010937D01*
X019030Y011083D02*
X019298Y011083D01*
X019211Y011181D02*
X019030Y011181D01*
X019030Y011280D02*
X019172Y011280D01*
X019172Y011378D02*
X019030Y011378D01*
X019030Y011477D02*
X019204Y011477D01*
X019282Y011575D02*
X019030Y011575D01*
X019030Y011674D02*
X019300Y011674D01*
X019300Y011772D02*
X019030Y011772D01*
X019030Y011871D02*
X019300Y011871D01*
X019300Y011969D02*
X019030Y011969D01*
X019030Y012068D02*
X019300Y012068D01*
X019300Y012166D02*
X019030Y012166D01*
X019030Y012265D02*
X019350Y012265D01*
X019480Y012363D02*
X019030Y012363D01*
X019030Y012462D02*
X019300Y012462D01*
X019300Y012560D02*
X019030Y012560D01*
X019030Y012659D02*
X019300Y012659D01*
X019300Y012757D02*
X019030Y012757D01*
X019030Y012856D02*
X019300Y012856D01*
X019300Y012954D02*
X019030Y012954D01*
X019030Y013053D02*
X019300Y013053D01*
X019300Y013151D02*
X019030Y013151D01*
X019030Y013250D02*
X019335Y013250D01*
X019480Y013348D02*
X019030Y013348D01*
X019030Y013447D02*
X019313Y013447D01*
X019880Y013372D02*
X019972Y013372D01*
X019980Y013380D01*
X019988Y013372D01*
X020572Y013372D01*
X020660Y013460D01*
X020660Y013600D01*
X020797Y013463D01*
X020981Y013387D01*
X021179Y013387D01*
X020981Y013387D01*
X020797Y013311D01*
X020660Y013174D01*
X020660Y013214D01*
X020572Y013302D01*
X019988Y013302D01*
X019980Y013294D01*
X019972Y013302D01*
X019880Y013302D01*
X019880Y013372D01*
X019880Y013348D02*
X020886Y013348D01*
X020837Y013447D02*
X020647Y013447D01*
X020660Y013545D02*
X020715Y013545D01*
X020735Y013250D02*
X020625Y013250D01*
X020280Y012837D02*
X021030Y012837D01*
X021080Y012887D01*
X020700Y012560D02*
X020660Y012560D01*
X020660Y012600D02*
X020797Y012463D01*
X020981Y012387D01*
X021179Y012387D01*
X020981Y012387D01*
X020797Y012311D01*
X020660Y012174D01*
X020660Y012214D01*
X020572Y012302D01*
X019988Y012302D01*
X019980Y012294D01*
X019972Y012302D01*
X019880Y012302D01*
X019880Y012372D01*
X019972Y012372D01*
X019980Y012380D01*
X019988Y012372D01*
X020572Y012372D01*
X020660Y012460D01*
X020660Y012600D01*
X020660Y012462D02*
X020801Y012462D01*
X020923Y012363D02*
X019880Y012363D01*
X020280Y011837D02*
X021030Y011837D01*
X021080Y011887D01*
X020685Y011575D02*
X020660Y011575D01*
X020660Y011477D02*
X020783Y011477D01*
X020959Y011378D02*
X020578Y011378D01*
X021201Y011378D02*
X021959Y011378D01*
X022201Y011378D02*
X025172Y011378D01*
X025172Y011280D02*
X022395Y011280D01*
X022493Y011181D02*
X025211Y011181D01*
X025298Y011083D02*
X022540Y011083D01*
X022580Y010984D02*
X026580Y010984D01*
X026580Y010886D02*
X022580Y010886D01*
X022580Y010787D02*
X026580Y010787D01*
X026621Y010689D02*
X022539Y010689D01*
X020768Y010492D02*
X019558Y010492D01*
X019460Y010590D02*
X020670Y010590D01*
X022080Y011887D02*
X023380Y011887D01*
X023580Y011687D01*
X024080Y011687D02*
X024080Y012187D01*
X023830Y012437D01*
X025680Y012837D02*
X025680Y013837D01*
X026280Y013837D02*
X027030Y013837D01*
X027080Y013887D01*
X027580Y013841D02*
X033965Y013841D01*
X037180Y014637D02*
X037180Y015137D01*
X038573Y015712D02*
X027921Y015712D01*
X027830Y015811D02*
X038475Y015811D01*
X038391Y015909D02*
X033475Y015909D01*
X033462Y015896D02*
X033608Y016043D01*
X033687Y016234D01*
X033687Y016441D01*
X033608Y016632D01*
X033462Y016778D01*
X033271Y016857D01*
X033064Y016857D01*
X032873Y016778D01*
X032727Y016632D01*
X032648Y016441D01*
X032648Y016234D01*
X032727Y016043D01*
X032873Y015896D01*
X033064Y015817D01*
X033271Y015817D01*
X033462Y015896D01*
X033573Y016008D02*
X034650Y016008D01*
X034810Y016008D02*
X038360Y016008D01*
X038360Y016106D02*
X034957Y016106D01*
X035008Y016205D02*
X038360Y016205D01*
X038360Y016303D02*
X035019Y016303D01*
X034995Y016402D02*
X038360Y016402D01*
X038360Y016500D02*
X034930Y016500D01*
X034930Y016599D02*
X038360Y016599D01*
X038360Y016697D02*
X034930Y016697D01*
X034930Y016796D02*
X038360Y016796D01*
X038360Y016894D02*
X034930Y016894D01*
X034930Y016993D02*
X038360Y016993D01*
X038360Y017091D02*
X034930Y017091D01*
X034930Y017190D02*
X038360Y017190D01*
X038360Y017288D02*
X034930Y017288D01*
X034930Y017387D02*
X038360Y017387D01*
X038360Y017485D02*
X034930Y017485D01*
X034930Y017584D02*
X038360Y017584D01*
X038353Y017682D02*
X034930Y017682D01*
X034869Y017781D02*
X038255Y017781D01*
X038156Y017879D02*
X034771Y017879D01*
X034672Y017978D02*
X038058Y017978D01*
X038900Y017485D02*
X042250Y017485D01*
X042250Y017387D02*
X038900Y017387D01*
X038900Y017288D02*
X042250Y017288D01*
X042250Y017190D02*
X038900Y017190D01*
X038900Y017091D02*
X042250Y017091D01*
X042250Y016993D02*
X038900Y016993D01*
X038900Y016894D02*
X038902Y016894D01*
X039518Y016894D02*
X042250Y016894D01*
X042250Y016796D02*
X039617Y016796D01*
X039678Y016697D02*
X042250Y016697D01*
X042250Y016599D02*
X039718Y016599D01*
X039460Y016008D02*
X040121Y016008D01*
X039957Y015909D02*
X039140Y015909D01*
X039238Y015811D02*
X039859Y015811D01*
X039809Y015712D02*
X039337Y015712D01*
X039435Y015614D02*
X039768Y015614D01*
X039753Y015515D02*
X039534Y015515D01*
X039632Y015417D02*
X039753Y015417D01*
X039762Y015318D02*
X039731Y015318D01*
X038770Y015515D02*
X028110Y015515D01*
X028062Y015614D02*
X038672Y015614D01*
X041624Y015614D02*
X042250Y015614D01*
X042250Y015712D02*
X041715Y015712D01*
X041755Y015811D02*
X042250Y015811D01*
X042250Y015909D02*
X041777Y015909D01*
X041777Y016008D02*
X042250Y016008D01*
X042250Y016106D02*
X041750Y016106D01*
X041709Y016205D02*
X042250Y016205D01*
X042250Y016303D02*
X041610Y016303D01*
X037462Y019146D02*
X037271Y019067D01*
X037064Y019067D01*
X036873Y019146D01*
X036727Y019293D01*
X036668Y019436D01*
X036608Y019293D01*
X036462Y019146D01*
X036271Y019067D01*
X036064Y019067D01*
X035873Y019146D01*
X035727Y019293D01*
X035648Y019484D01*
X035648Y019691D01*
X035727Y019882D01*
X035873Y020028D01*
X036064Y020107D01*
X036271Y020107D01*
X036462Y020028D01*
X036608Y019882D01*
X036668Y019739D01*
X036727Y019882D01*
X036873Y020028D01*
X037064Y020107D01*
X037271Y020107D01*
X037462Y020028D01*
X037608Y019882D01*
X037687Y019691D01*
X037687Y019484D01*
X037608Y019293D01*
X037462Y019146D01*
X037475Y019160D02*
X038860Y019160D01*
X038761Y019258D02*
X037574Y019258D01*
X037635Y019357D02*
X038700Y019357D01*
X038659Y019455D02*
X037676Y019455D01*
X037687Y019554D02*
X038648Y019554D01*
X038648Y019652D02*
X037687Y019652D01*
X037663Y019751D02*
X038672Y019751D01*
X038713Y019849D02*
X037622Y019849D01*
X037542Y019948D02*
X038793Y019948D01*
X038917Y020046D02*
X037418Y020046D01*
X036917Y020046D02*
X036418Y020046D01*
X036542Y019948D02*
X036793Y019948D01*
X036713Y019849D02*
X036622Y019849D01*
X036663Y019751D02*
X036672Y019751D01*
X036700Y019357D02*
X036635Y019357D01*
X036574Y019258D02*
X036761Y019258D01*
X036860Y019160D02*
X036475Y019160D01*
X035860Y019160D02*
X034475Y019160D01*
X034574Y019258D02*
X035761Y019258D01*
X035700Y019357D02*
X034635Y019357D01*
X034676Y019455D02*
X035659Y019455D01*
X035648Y019554D02*
X034687Y019554D01*
X034687Y019652D02*
X035648Y019652D01*
X035672Y019751D02*
X034663Y019751D01*
X034622Y019849D02*
X035713Y019849D01*
X035793Y019948D02*
X034542Y019948D01*
X034418Y020046D02*
X035917Y020046D01*
X033917Y020046D02*
X033418Y020046D01*
X033542Y019948D02*
X033793Y019948D01*
X033713Y019849D02*
X033622Y019849D01*
X033663Y019751D02*
X033672Y019751D01*
X033700Y019357D02*
X033635Y019357D01*
X033574Y019258D02*
X033761Y019258D01*
X033860Y019160D02*
X033475Y019160D01*
X034330Y018037D02*
X034730Y017637D01*
X034730Y016287D01*
X034465Y016402D02*
X033687Y016402D01*
X033687Y016303D02*
X034441Y016303D01*
X034452Y016205D02*
X033675Y016205D01*
X033635Y016106D02*
X034503Y016106D01*
X034530Y016500D02*
X033663Y016500D01*
X033622Y016599D02*
X034530Y016599D01*
X034530Y016697D02*
X033543Y016697D01*
X033419Y016796D02*
X034530Y016796D01*
X034530Y016894D02*
X027830Y016894D01*
X027830Y016796D02*
X027916Y016796D01*
X027830Y016993D02*
X034530Y016993D01*
X034530Y017091D02*
X027830Y017091D01*
X027830Y017190D02*
X034530Y017190D01*
X034530Y017288D02*
X027830Y017288D01*
X027830Y017387D02*
X027830Y017387D01*
X028130Y017387D02*
X034530Y017387D01*
X034530Y017485D02*
X028230Y017485D01*
X028269Y017584D02*
X034501Y017584D01*
X034402Y017682D02*
X029658Y017682D01*
X029756Y017781D02*
X034304Y017781D01*
X034330Y018037D02*
X029730Y018037D01*
X029480Y017787D01*
X028830Y017787D01*
X028455Y017978D02*
X027580Y017978D01*
X027580Y017879D02*
X027814Y017879D01*
X027591Y017781D02*
X027577Y017781D01*
X027543Y018076D02*
X028455Y018076D01*
X028455Y018175D02*
X027500Y018175D01*
X028680Y018287D02*
X028730Y018287D01*
X029080Y018287D02*
X029080Y018675D01*
X029873Y016778D02*
X030064Y016857D01*
X030271Y016857D01*
X030462Y016778D01*
X030608Y016632D01*
X030668Y016489D01*
X030727Y016632D01*
X030873Y016778D01*
X031064Y016857D01*
X031271Y016857D01*
X031462Y016778D01*
X031608Y016632D01*
X031687Y016441D01*
X031687Y016234D01*
X031608Y016043D01*
X031462Y015896D01*
X031271Y015817D01*
X031064Y015817D01*
X030873Y015896D01*
X030727Y016043D01*
X030668Y016186D01*
X030608Y016043D01*
X030462Y015896D01*
X030271Y015817D01*
X030064Y015817D01*
X029873Y015896D01*
X029727Y016043D01*
X029648Y016234D01*
X029648Y016441D01*
X029727Y016632D01*
X029873Y016778D01*
X029916Y016796D02*
X028419Y016796D01*
X028543Y016697D02*
X029792Y016697D01*
X029713Y016599D02*
X028622Y016599D01*
X028663Y016500D02*
X029672Y016500D01*
X029648Y016402D02*
X028687Y016402D01*
X028687Y016303D02*
X029648Y016303D01*
X029660Y016205D02*
X028675Y016205D01*
X028635Y016106D02*
X029700Y016106D01*
X029762Y016008D02*
X028573Y016008D01*
X028475Y015909D02*
X029860Y015909D01*
X030475Y015909D02*
X030860Y015909D01*
X030762Y016008D02*
X030573Y016008D01*
X030635Y016106D02*
X030700Y016106D01*
X031475Y015909D02*
X032860Y015909D01*
X032762Y016008D02*
X031573Y016008D01*
X031635Y016106D02*
X032700Y016106D01*
X032660Y016205D02*
X031675Y016205D01*
X031687Y016303D02*
X032648Y016303D01*
X032648Y016402D02*
X031687Y016402D01*
X031663Y016500D02*
X032672Y016500D01*
X032713Y016599D02*
X031622Y016599D01*
X031543Y016697D02*
X032792Y016697D01*
X032916Y016796D02*
X031419Y016796D01*
X030916Y016796D02*
X030419Y016796D01*
X030543Y016697D02*
X030792Y016697D01*
X030713Y016599D02*
X030622Y016599D01*
X030663Y016500D02*
X030672Y016500D01*
X033580Y015437D02*
X034730Y015437D01*
X027860Y015909D02*
X027830Y015909D01*
X026224Y015614D02*
X022508Y015614D01*
X022415Y015515D02*
X026125Y015515D01*
X025873Y015417D02*
X022251Y015417D01*
X022555Y014727D02*
X026605Y014727D01*
X026646Y014629D02*
X022514Y014629D01*
X022430Y014530D02*
X025190Y014530D01*
X025092Y014432D02*
X022287Y014432D01*
X022310Y014333D02*
X024993Y014333D01*
X024895Y014235D02*
X022440Y014235D01*
X022518Y014136D02*
X024796Y014136D01*
X025880Y013348D02*
X026886Y013348D01*
X026837Y013447D02*
X026647Y013447D01*
X026660Y013545D02*
X026715Y013545D01*
X026735Y013250D02*
X026625Y013250D01*
X027080Y011887D02*
X027030Y011837D01*
X026280Y011837D01*
X026660Y011575D02*
X026685Y011575D01*
X026660Y011477D02*
X026783Y011477D01*
X026765Y011280D02*
X025788Y011280D01*
X025749Y011181D02*
X026667Y011181D01*
X026620Y011083D02*
X025662Y011083D01*
X025978Y011378D02*
X025982Y011378D01*
X026578Y011378D02*
X026959Y011378D01*
X027201Y011378D02*
X027390Y011378D01*
X027377Y011477D02*
X027390Y011477D01*
X029120Y011083D02*
X029366Y011083D01*
X029464Y010984D02*
X029120Y010984D01*
X029120Y010886D02*
X029563Y010886D01*
X029661Y010787D02*
X029120Y010787D01*
X029050Y010689D02*
X029333Y010689D01*
X029330Y010687D02*
X029180Y010537D01*
X029180Y009587D01*
X029280Y009487D01*
X029280Y008987D01*
X028980Y008687D01*
X029056Y008522D02*
X025569Y008522D01*
X025566Y008423D02*
X028497Y008423D01*
X028399Y008325D02*
X025525Y008325D01*
X025404Y008226D02*
X028300Y008226D01*
X028202Y008128D02*
X025230Y008128D01*
X025230Y008029D02*
X028103Y008029D01*
X028005Y007931D02*
X027858Y007931D01*
X027622Y007931D02*
X025230Y007931D01*
X025230Y007832D02*
X027497Y007832D01*
X027455Y007734D02*
X025230Y007734D01*
X025230Y007635D02*
X027451Y007635D01*
X027482Y007537D02*
X025162Y007537D01*
X025064Y007438D02*
X027523Y007438D01*
X027460Y007340D02*
X024965Y007340D01*
X025030Y007687D02*
X025030Y008187D01*
X024930Y008287D01*
X025280Y008487D02*
X025130Y008637D01*
X023930Y008637D01*
X023880Y008587D01*
X025280Y008887D02*
X022030Y008887D01*
X021980Y008837D01*
X025457Y008719D02*
X029430Y008719D01*
X029350Y008817D02*
X027733Y008817D01*
X027867Y008916D02*
X029350Y008916D01*
X029350Y009014D02*
X029075Y009014D01*
X029214Y009113D02*
X029350Y009113D01*
X029350Y009211D02*
X029261Y009211D01*
X029269Y009310D02*
X029350Y009310D01*
X029350Y009408D02*
X029242Y009408D01*
X029169Y009507D02*
X029318Y009507D01*
X029184Y009605D02*
X028970Y009605D01*
X028970Y009704D02*
X029138Y009704D01*
X029131Y009802D02*
X028970Y009802D01*
X028970Y009901D02*
X029159Y009901D01*
X029234Y009999D02*
X028970Y009999D01*
X028970Y010295D02*
X029226Y010295D01*
X029191Y010393D02*
X028970Y010393D01*
X028970Y010492D02*
X029191Y010492D01*
X029231Y010590D02*
X028970Y010590D01*
X029330Y010687D02*
X029680Y010687D01*
X029880Y010487D01*
X029940Y010492D02*
X029794Y010492D01*
X029729Y010590D02*
X029858Y010590D01*
X029760Y010689D02*
X029627Y010689D01*
X029893Y010393D02*
X029940Y010393D01*
X028590Y009901D02*
X028572Y009901D01*
X028590Y009802D02*
X028474Y009802D01*
X028375Y009704D02*
X028590Y009704D01*
X028590Y009605D02*
X028277Y009605D01*
X028178Y009507D02*
X028590Y009507D01*
X028590Y009408D02*
X028080Y009408D01*
X027981Y009310D02*
X028689Y009310D01*
X028699Y009211D02*
X027891Y009211D01*
X027919Y009113D02*
X028746Y009113D01*
X028885Y009014D02*
X027912Y009014D01*
X029404Y008522D02*
X029627Y008522D01*
X029650Y008423D02*
X029486Y008423D01*
X029519Y008325D02*
X029650Y008325D01*
X029650Y008226D02*
X029517Y008226D01*
X029476Y008128D02*
X029650Y008128D01*
X029650Y008029D02*
X029504Y008029D01*
X029519Y007931D02*
X029650Y007931D01*
X029650Y007832D02*
X029499Y007832D01*
X029435Y007734D02*
X029650Y007734D01*
X029650Y007635D02*
X028547Y007635D01*
X028448Y007537D02*
X029650Y007537D01*
X029650Y007438D02*
X028350Y007438D01*
X028251Y007340D02*
X029214Y007340D01*
X029115Y007241D02*
X028153Y007241D01*
X028054Y007143D02*
X029017Y007143D01*
X029025Y007734D02*
X028645Y007734D01*
X029528Y008620D02*
X025537Y008620D01*
X024930Y005437D02*
X025180Y005187D01*
X025180Y003037D01*
X025080Y002937D01*
X024525Y002710D02*
X023780Y002710D01*
X023780Y002612D02*
X036727Y002612D01*
X037676Y002415D02*
X038733Y002415D01*
X030230Y004937D02*
X027180Y004937D01*
X026680Y004437D01*
X026680Y004937D02*
X026930Y005187D01*
X030230Y005187D01*
X024980Y005104D02*
X024980Y004754D01*
X024900Y004787D01*
X024760Y004787D01*
X024752Y004784D01*
X024670Y004866D01*
X024670Y005125D01*
X024760Y005087D01*
X024900Y005087D01*
X024969Y005116D01*
X024980Y005104D01*
X024980Y005074D02*
X024670Y005074D01*
X024670Y004976D02*
X024980Y004976D01*
X024980Y004877D02*
X024670Y004877D01*
X024920Y004779D02*
X024980Y004779D01*
X024930Y005437D02*
X024830Y005437D01*
X023842Y003794D02*
X023780Y003794D01*
X023780Y003695D02*
X023910Y003695D01*
X023910Y003597D02*
X023780Y003597D01*
X023780Y003498D02*
X023910Y003498D01*
X023910Y003400D02*
X023780Y003400D01*
X023780Y003301D02*
X023944Y003301D01*
X024033Y003203D02*
X023780Y003203D01*
X023780Y003104D02*
X024131Y003104D01*
X024230Y003006D02*
X023780Y003006D01*
X023780Y002907D02*
X024328Y002907D01*
X024427Y002809D02*
X023780Y002809D01*
X023780Y001922D02*
X025973Y001922D01*
X025960Y001824D02*
X023780Y001824D01*
X023780Y001725D02*
X025960Y001725D01*
X025984Y001627D02*
X023780Y001627D01*
X023780Y001528D02*
X026024Y001528D01*
X026102Y001430D02*
X023780Y001430D01*
X023780Y001331D02*
X026222Y001331D01*
X026738Y001331D02*
X027222Y001331D01*
X027102Y001430D02*
X026858Y001430D01*
X026936Y001528D02*
X027024Y001528D01*
X026984Y001627D02*
X026976Y001627D01*
X027738Y001331D02*
X028222Y001331D01*
X028102Y001430D02*
X027858Y001430D01*
X027936Y001528D02*
X028024Y001528D01*
X027984Y001627D02*
X027976Y001627D01*
X028738Y001331D02*
X029222Y001331D01*
X029102Y001430D02*
X028858Y001430D01*
X028936Y001528D02*
X029024Y001528D01*
X028984Y001627D02*
X028976Y001627D01*
X036603Y008226D02*
X036606Y008226D01*
X036714Y011772D02*
X037164Y011772D01*
X021945Y016402D02*
X021215Y016402D01*
X018646Y013939D02*
X018514Y013939D01*
X020610Y012265D02*
X020750Y012265D01*
X017410Y019061D02*
X015339Y019061D01*
X015399Y019160D02*
X017410Y019160D01*
X017410Y019258D02*
X015439Y019258D01*
X015450Y019357D02*
X017410Y019357D01*
X017410Y019455D02*
X015450Y019455D01*
X015424Y019554D02*
X017410Y019554D01*
X017410Y019652D02*
X015383Y019652D01*
X015302Y019751D02*
X017410Y019751D01*
X017410Y019849D02*
X015173Y019849D01*
X014687Y019849D02*
X014303Y019849D01*
X014384Y019751D02*
X014558Y019751D01*
X014477Y019652D02*
X014424Y019652D01*
X014177Y019948D02*
X017438Y019948D01*
X041663Y020622D02*
X041717Y020620D01*
X041770Y020615D01*
X041823Y020606D01*
X041875Y020593D01*
X041927Y020577D01*
X041977Y020557D01*
X042025Y020534D01*
X042072Y020507D01*
X042117Y020478D01*
X042160Y020445D01*
X042200Y020410D01*
X042238Y020372D01*
X042273Y020332D01*
X042306Y020289D01*
X042335Y020244D01*
X042362Y020197D01*
X042385Y020149D01*
X042405Y020099D01*
X042421Y020047D01*
X042434Y019995D01*
X042443Y019942D01*
X042448Y019889D01*
X042450Y019835D01*
D11*
X039980Y006979D03*
X039200Y006979D03*
X039200Y005995D03*
X039980Y005995D03*
D12*
X041050Y004117D03*
X041050Y008857D03*
D13*
X040346Y015459D03*
X040346Y018215D03*
D14*
X041330Y017723D03*
X041330Y015951D03*
D15*
X040350Y016467D03*
X039210Y016467D03*
X033168Y016337D03*
X032168Y016237D03*
X031168Y016337D03*
X030168Y016337D03*
X029168Y016237D03*
X028168Y016337D03*
X026930Y019387D03*
X025930Y019487D03*
X024930Y019387D03*
X028168Y019587D03*
X029168Y019487D03*
X030168Y019587D03*
X031168Y019587D03*
X032168Y019487D03*
X033168Y019587D03*
X034168Y019587D03*
X035168Y019487D03*
X036168Y019587D03*
X037168Y019587D03*
X038168Y019487D03*
X039168Y019587D03*
X020930Y019387D03*
X019930Y019487D03*
X018930Y019387D03*
X014930Y019387D03*
X013930Y019487D03*
X012930Y019387D03*
X008930Y019387D03*
X007930Y019487D03*
X006930Y019387D03*
X011880Y002737D03*
X012880Y002637D03*
X013880Y002737D03*
X013880Y001737D03*
X012880Y001637D03*
X011880Y001737D03*
X025480Y001787D03*
X026480Y001787D03*
X027480Y001787D03*
X028480Y001787D03*
X029480Y001787D03*
X037580Y001637D03*
X038580Y001737D03*
X039580Y001637D03*
D16*
X039739Y010219D02*
X039741Y010254D01*
X039747Y010289D01*
X039757Y010323D01*
X039770Y010356D01*
X039787Y010387D01*
X039808Y010415D01*
X039831Y010442D01*
X039858Y010465D01*
X039886Y010486D01*
X039917Y010503D01*
X039950Y010516D01*
X039984Y010526D01*
X040019Y010532D01*
X040054Y010534D01*
X040089Y010532D01*
X040124Y010526D01*
X040158Y010516D01*
X040191Y010503D01*
X040222Y010486D01*
X040250Y010465D01*
X040277Y010442D01*
X040300Y010415D01*
X040321Y010387D01*
X040338Y010356D01*
X040351Y010323D01*
X040361Y010289D01*
X040367Y010254D01*
X040369Y010219D01*
X040367Y010184D01*
X040361Y010149D01*
X040351Y010115D01*
X040338Y010082D01*
X040321Y010051D01*
X040300Y010023D01*
X040277Y009996D01*
X040250Y009973D01*
X040222Y009952D01*
X040191Y009935D01*
X040158Y009922D01*
X040124Y009912D01*
X040089Y009906D01*
X040054Y009904D01*
X040019Y009906D01*
X039984Y009912D01*
X039950Y009922D01*
X039917Y009935D01*
X039886Y009952D01*
X039858Y009973D01*
X039831Y009996D01*
X039808Y010023D01*
X039787Y010051D01*
X039770Y010082D01*
X039757Y010115D01*
X039747Y010149D01*
X039741Y010184D01*
X039739Y010219D01*
X039739Y014156D02*
X039741Y014191D01*
X039747Y014226D01*
X039757Y014260D01*
X039770Y014293D01*
X039787Y014324D01*
X039808Y014352D01*
X039831Y014379D01*
X039858Y014402D01*
X039886Y014423D01*
X039917Y014440D01*
X039950Y014453D01*
X039984Y014463D01*
X040019Y014469D01*
X040054Y014471D01*
X040089Y014469D01*
X040124Y014463D01*
X040158Y014453D01*
X040191Y014440D01*
X040222Y014423D01*
X040250Y014402D01*
X040277Y014379D01*
X040300Y014352D01*
X040321Y014324D01*
X040338Y014293D01*
X040351Y014260D01*
X040361Y014226D01*
X040367Y014191D01*
X040369Y014156D01*
X040367Y014121D01*
X040361Y014086D01*
X040351Y014052D01*
X040338Y014019D01*
X040321Y013988D01*
X040300Y013960D01*
X040277Y013933D01*
X040250Y013910D01*
X040222Y013889D01*
X040191Y013872D01*
X040158Y013859D01*
X040124Y013849D01*
X040089Y013843D01*
X040054Y013841D01*
X040019Y013843D01*
X039984Y013849D01*
X039950Y013859D01*
X039917Y013872D01*
X039886Y013889D01*
X039858Y013910D01*
X039831Y013933D01*
X039808Y013960D01*
X039787Y013988D01*
X039770Y014019D01*
X039757Y014052D01*
X039747Y014086D01*
X039741Y014121D01*
X039739Y014156D01*
D17*
X027080Y013887D03*
X027080Y014887D03*
X027080Y015887D03*
X027080Y016887D03*
X027080Y017887D03*
X022080Y017887D03*
X021080Y017887D03*
X021080Y016887D03*
X022080Y016887D03*
X022080Y015887D03*
X021080Y015887D03*
X021080Y014887D03*
X022080Y014887D03*
X022080Y013887D03*
X021080Y013887D03*
X021080Y012887D03*
X022080Y012887D03*
X022080Y011887D03*
X021080Y011887D03*
X021080Y010887D03*
X022080Y010887D03*
X027080Y010887D03*
X027080Y011887D03*
X027080Y012887D03*
X016080Y012887D03*
X015080Y012887D03*
X015080Y011887D03*
X016080Y011887D03*
X016080Y010887D03*
X015080Y010887D03*
X010080Y010887D03*
X009080Y010887D03*
X009080Y011887D03*
X010080Y011887D03*
X010080Y012887D03*
X009080Y012887D03*
X009080Y013887D03*
X010080Y013887D03*
X010080Y014887D03*
X009080Y014887D03*
X009080Y015887D03*
X010080Y015887D03*
X010080Y016887D03*
X009080Y016887D03*
X009080Y017887D03*
X010080Y017887D03*
X015080Y017887D03*
X016080Y017887D03*
X016080Y016887D03*
X015080Y016887D03*
X015080Y015887D03*
X016080Y015887D03*
X016080Y014887D03*
X015080Y014887D03*
X015080Y013887D03*
X016080Y013887D03*
X004080Y013887D03*
X004080Y014887D03*
X004080Y015887D03*
X004080Y016887D03*
X004080Y017887D03*
X004080Y012887D03*
X004080Y011887D03*
X004080Y010887D03*
D18*
X005930Y019487D03*
X011930Y019487D03*
X017930Y019487D03*
X023930Y019487D03*
X036580Y001737D03*
D19*
X026280Y011837D03*
X025680Y011837D03*
X025680Y012837D03*
X026280Y012837D03*
X026280Y013837D03*
X025680Y013837D03*
X020280Y013837D03*
X019680Y013837D03*
X019680Y012837D03*
X020280Y012837D03*
X020280Y011837D03*
X019680Y011837D03*
X014280Y011837D03*
X013680Y011837D03*
X013680Y012837D03*
X014280Y012837D03*
X014280Y013837D03*
X013680Y013837D03*
X007280Y013637D03*
X006680Y013637D03*
X006680Y014537D03*
X007280Y014537D03*
X007280Y015437D03*
X006680Y015437D03*
D20*
X015641Y001598D03*
X017019Y001598D03*
X018641Y001598D03*
X020019Y001598D03*
X021641Y001598D03*
X023019Y001598D03*
D21*
X028730Y018287D03*
X029080Y018287D03*
X029430Y018287D03*
D22*
X010487Y008745D03*
D23*
X009503Y008745D03*
X008519Y008745D03*
X007535Y008745D03*
X006550Y008745D03*
X005566Y008745D03*
X006074Y009729D03*
X007058Y009729D03*
X008043Y009729D03*
X009027Y009729D03*
X010011Y009729D03*
X010995Y009729D03*
D24*
X004493Y006687D02*
X003668Y006687D01*
X003668Y004687D02*
X004493Y004687D01*
D25*
X024830Y004437D03*
X025530Y004437D03*
X025530Y004937D03*
X024830Y004937D03*
X024830Y005437D03*
X025530Y005437D03*
X026680Y005437D03*
X026680Y004937D03*
X026680Y004437D03*
X026680Y003937D03*
X026680Y003437D03*
X025530Y003437D03*
X024830Y003437D03*
X024830Y003937D03*
X025530Y003937D03*
D26*
X018580Y008937D03*
X006480Y002637D03*
D27*
X006480Y003637D03*
X017580Y008937D03*
D28*
X021980Y008837D03*
D29*
X021180Y008837D03*
D30*
X004180Y002037D03*
X041380Y002037D03*
X041380Y019537D03*
X004180Y019537D03*
D31*
X004330Y018587D02*
X010080Y018587D01*
X016080Y018587D01*
X022080Y018587D01*
X022080Y017887D01*
X016080Y017887D02*
X016080Y018587D01*
X010080Y018587D02*
X010080Y017887D01*
X004330Y018587D02*
X004080Y018337D01*
X004080Y017887D01*
X003780Y017887D01*
X003455Y017562D01*
X003455Y011887D01*
X004080Y011887D01*
X004080Y004687D02*
X003455Y004562D01*
X003455Y002762D01*
X004180Y002037D01*
D32*
X007630Y005137D03*
X006080Y005287D03*
X009830Y005487D03*
X009830Y005937D03*
X009830Y006387D03*
X009830Y006837D03*
X013080Y007687D03*
X014430Y008887D03*
X018080Y007987D03*
X018080Y007537D03*
X018080Y007087D03*
X018080Y006637D03*
X018580Y006637D03*
X019080Y006637D03*
X019080Y007087D03*
X019080Y007537D03*
X019080Y007987D03*
X018580Y007987D03*
X021080Y007987D03*
X021580Y007987D03*
X022080Y007987D03*
X022080Y007537D03*
X022080Y007087D03*
X022080Y006637D03*
X021580Y006637D03*
X021080Y006637D03*
X021080Y007087D03*
X021080Y007537D03*
X019480Y011337D03*
X018080Y011687D03*
X017580Y011687D03*
X017830Y012437D03*
X018330Y013687D03*
X018830Y013687D03*
X023580Y011687D03*
X024080Y011687D03*
X025480Y011337D03*
X023830Y012437D03*
X026080Y015187D03*
X030580Y015437D03*
X033580Y015437D03*
X034730Y015437D03*
X033580Y018687D03*
X036580Y018687D03*
X039580Y018687D03*
X030580Y018687D03*
X013480Y011337D03*
X012080Y011687D03*
X011580Y011687D03*
X011830Y012437D03*
X012330Y013687D03*
X012830Y013687D03*
X007680Y014437D03*
X007680Y015097D03*
X005980Y012337D03*
X005980Y011537D03*
X007480Y011337D03*
X007630Y011887D03*
X012980Y004637D03*
X012980Y003787D03*
X028930Y002287D03*
X030630Y001437D03*
X037030Y002537D03*
X038580Y002937D03*
D33*
X038830Y002687D03*
X037330Y002337D03*
X034630Y002537D03*
X034620Y003277D03*
X035530Y003937D03*
X034430Y004337D03*
X034080Y004187D03*
X035530Y004477D03*
X035830Y004987D03*
X036330Y004987D03*
X037130Y004987D03*
X036580Y005437D03*
X036330Y005787D03*
X035580Y006137D03*
X035505Y007062D03*
X036330Y007037D03*
X036830Y007037D03*
X036330Y007837D03*
X036315Y008227D03*
X036730Y008487D03*
X037080Y008637D03*
X035280Y009587D03*
X033980Y009587D03*
X033880Y009987D03*
X033580Y010187D03*
X033910Y010347D03*
X034980Y010787D03*
X035330Y010787D03*
X035530Y010487D03*
X036730Y010687D03*
X037080Y010687D03*
X037630Y010587D03*
X038080Y011187D03*
X038130Y011687D03*
X037230Y011487D03*
X036003Y011445D03*
X034930Y011287D03*
X034280Y011787D03*
X033930Y011787D03*
X033580Y011787D03*
X034130Y012287D03*
X034380Y012537D03*
X034430Y012887D03*
X034780Y013137D03*
X032630Y012837D03*
X032630Y012437D03*
X031880Y011987D03*
X032180Y011737D03*
X032510Y011907D03*
X030530Y012137D03*
X029230Y011587D03*
X029030Y012237D03*
X030030Y012837D03*
X030430Y013337D03*
X027680Y012937D03*
X027680Y012587D03*
X027580Y012237D03*
X028680Y010937D03*
X029480Y010437D03*
X029880Y010487D03*
X029580Y010087D03*
X029420Y009777D03*
X028980Y009287D03*
X028980Y008687D03*
X029230Y008287D03*
X029230Y007937D03*
X028980Y007187D03*
X029580Y006687D03*
X030330Y006537D03*
X031580Y006687D03*
X031930Y006837D03*
X031680Y007087D03*
X033580Y007887D03*
X033880Y008137D03*
X035030Y008337D03*
X032330Y009587D03*
X032630Y009787D03*
X031130Y009187D03*
X031130Y008837D03*
X031480Y008787D03*
X030530Y009387D03*
X030880Y009487D03*
X027630Y009087D03*
X025280Y008487D03*
X024930Y008287D03*
X024780Y007887D03*
X025680Y007537D03*
X027740Y007667D03*
X027730Y007237D03*
X031280Y005637D03*
X031530Y005887D03*
X032880Y005737D03*
X033230Y005637D03*
X031830Y004187D03*
X031580Y003937D03*
X031330Y003687D03*
X031830Y002187D03*
X038830Y004437D03*
X038630Y005487D03*
X037930Y005887D03*
X037230Y005887D03*
X039280Y012187D03*
X037530Y013077D03*
X038030Y013837D03*
X039180Y014337D03*
X037180Y014637D03*
X037180Y015137D03*
X034730Y016287D03*
X027980Y017637D03*
X027830Y015437D03*
X027580Y014137D03*
X023880Y008587D03*
X023620Y007927D03*
X013930Y005387D03*
X012010Y005387D03*
X011660Y003997D03*
X013560Y003997D03*
X008430Y017387D03*
X008330Y017787D03*
X027680Y020087D03*
D34*
X029430Y018287D02*
X038130Y018287D01*
X038630Y017787D01*
X038630Y016037D01*
X039830Y014837D01*
X041430Y014837D01*
X041980Y014287D01*
X041980Y005287D01*
X041730Y005037D01*
X040680Y005037D01*
X038580Y002937D01*
X025080Y002937D01*
X024680Y002937D01*
X024180Y003437D01*
X024180Y003837D01*
X023380Y004637D01*
X012980Y004637D01*
X012980Y003787D02*
X013880Y002887D01*
X013880Y002737D01*
X006480Y002637D02*
X004780Y002637D01*
X004180Y002037D01*
X005330Y008287D02*
X005080Y008537D01*
X005080Y012287D01*
X004480Y012887D01*
X004080Y012887D01*
X004080Y013887D02*
X005566Y012401D01*
X005566Y008745D01*
X005330Y008287D02*
X005830Y008287D01*
X006074Y008531D01*
X006074Y009729D01*
X007058Y009729D02*
X007058Y012437D01*
X004630Y014866D01*
X004630Y015387D01*
X004130Y015887D01*
X004080Y015887D01*
X004080Y014887D02*
X006550Y012417D01*
X006550Y008745D01*
D35*
X009830Y005487D02*
X011320Y003997D01*
X011660Y003997D01*
X011750Y004087D01*
X013480Y004087D01*
X013560Y004007D01*
X013560Y003997D01*
D36*
X013160Y004857D02*
X023800Y004857D01*
X024020Y005077D01*
X024020Y005787D01*
X024500Y006267D01*
X025380Y006267D01*
X026080Y006967D01*
X027400Y006967D01*
X027610Y006757D01*
X029100Y006757D01*
X029430Y007087D01*
X029830Y007087D01*
X029980Y007237D01*
X029980Y008637D01*
X029680Y008937D01*
X029680Y009987D01*
X029580Y010087D01*
X029830Y010187D02*
X029580Y010437D01*
X029480Y010437D01*
X029830Y010187D02*
X029830Y008987D01*
X030130Y008687D01*
X030130Y007137D01*
X029930Y006937D01*
X029480Y006937D01*
X029330Y006787D01*
X029330Y006687D01*
X029260Y006617D01*
X027550Y006617D01*
X027340Y006827D01*
X026150Y006827D01*
X025440Y006117D01*
X024560Y006117D01*
X024160Y005717D01*
X024160Y004177D01*
X024830Y003507D01*
X024830Y003437D01*
X025530Y003437D02*
X026330Y004237D01*
X026330Y005587D01*
X026530Y005787D01*
X026830Y005787D01*
X027030Y005587D01*
X030130Y005587D01*
X030880Y006337D01*
X030880Y009487D01*
X030930Y009437D01*
X031230Y009437D01*
X031330Y009337D01*
X036380Y009337D01*
X037630Y010587D01*
X037080Y010687D02*
X036880Y010887D01*
X036880Y011137D01*
X036180Y011837D01*
X034580Y011837D01*
X034130Y012287D01*
X034380Y012237D02*
X034630Y011987D01*
X036230Y011987D01*
X036730Y011487D01*
X037230Y011487D01*
X036730Y011087D02*
X036730Y010687D01*
X036730Y011087D02*
X036130Y011687D01*
X034380Y011687D01*
X034280Y011787D01*
X033930Y011787D02*
X033930Y011637D01*
X034530Y011037D01*
X035080Y011037D01*
X035330Y010787D01*
X034980Y010787D02*
X034580Y010787D01*
X033580Y011787D01*
X033330Y011887D02*
X033330Y011537D01*
X033630Y011537D01*
X034530Y010637D01*
X034780Y010637D01*
X034930Y010487D01*
X035530Y010487D01*
X034180Y010437D02*
X034180Y010287D01*
X033880Y009987D01*
X033580Y010187D02*
X033430Y010037D01*
X030330Y010037D01*
X029980Y009687D01*
X029980Y009087D01*
X030280Y008787D01*
X030280Y007037D01*
X029930Y006687D01*
X029930Y006537D01*
X029730Y006337D01*
X027430Y006337D01*
X027230Y006537D01*
X026280Y006537D01*
X025580Y005837D01*
X024790Y005837D01*
X024480Y005527D01*
X024480Y004787D01*
X024830Y004437D01*
X024710Y003937D02*
X024320Y004327D01*
X024320Y005657D01*
X024640Y005977D01*
X025500Y005977D01*
X026200Y006677D01*
X027290Y006677D01*
X027490Y006477D01*
X029370Y006477D01*
X029580Y006687D01*
X030080Y006637D02*
X030080Y006487D01*
X029780Y006187D01*
X027330Y006187D01*
X027130Y006387D01*
X026330Y006387D01*
X025530Y005587D01*
X025530Y005437D01*
X025880Y005187D02*
X025880Y005737D01*
X026390Y006247D01*
X027020Y006247D01*
X027230Y006037D01*
X029930Y006037D01*
X030330Y006437D01*
X030330Y006537D01*
X030580Y006437D02*
X030580Y008937D01*
X030280Y009237D01*
X030280Y009587D01*
X030430Y009737D01*
X032180Y009737D01*
X032330Y009587D01*
X032530Y009887D02*
X032630Y009787D01*
X032530Y009887D02*
X030380Y009887D01*
X030130Y009637D01*
X030130Y009137D01*
X030430Y008837D01*
X030430Y006987D01*
X030080Y006637D01*
X030580Y006437D02*
X030030Y005887D01*
X027130Y005887D01*
X026930Y006087D01*
X026430Y006087D01*
X026030Y005687D01*
X026030Y004937D01*
X025530Y004437D01*
X025530Y003937D02*
X026180Y004587D01*
X026180Y005637D01*
X026480Y005937D01*
X026880Y005937D01*
X027080Y005737D01*
X030080Y005737D01*
X030730Y006387D01*
X030730Y009187D01*
X030530Y009387D01*
X031130Y009187D02*
X036580Y009187D01*
X038380Y010987D01*
X038380Y011437D01*
X038130Y011687D01*
X038730Y011637D02*
X039280Y012187D01*
X039680Y011787D02*
X039680Y013737D01*
X039330Y014087D01*
X037930Y014087D01*
X037430Y013587D01*
X034180Y013587D01*
X033830Y013237D01*
X030530Y013237D01*
X030430Y013337D01*
X030330Y013587D02*
X029980Y013237D01*
X029030Y013237D01*
X028530Y012737D01*
X027880Y012737D01*
X027680Y012937D01*
X027680Y012587D02*
X028580Y012587D01*
X029080Y013087D01*
X033930Y013087D01*
X034280Y013437D01*
X037630Y013437D01*
X038030Y013837D01*
X037880Y014237D02*
X037380Y013737D01*
X034130Y013737D01*
X033780Y013387D01*
X030780Y013387D01*
X030580Y013587D01*
X030330Y013587D01*
X029180Y012637D02*
X028880Y012637D01*
X028480Y012237D01*
X027580Y012237D01*
X027730Y012537D02*
X027680Y012587D01*
X027980Y012087D02*
X028530Y012087D01*
X028930Y012487D01*
X029130Y012487D01*
X029730Y011887D01*
X031780Y011887D01*
X031880Y011987D01*
X032030Y012387D02*
X029430Y012387D01*
X029180Y012637D01*
X029030Y012237D02*
X028730Y011937D01*
X028030Y011937D01*
X027720Y011627D01*
X027720Y010577D01*
X027420Y010277D01*
X019490Y010277D01*
X019400Y010117D02*
X027510Y010117D01*
X027870Y010477D01*
X027870Y011527D01*
X028130Y011787D01*
X028780Y011787D01*
X028980Y011987D01*
X029380Y011987D01*
X029630Y011737D01*
X032180Y011737D01*
X032510Y011907D02*
X032030Y012387D01*
X033330Y011887D02*
X034230Y012787D01*
X034330Y012787D01*
X034430Y012887D01*
X034380Y012537D02*
X034380Y012237D01*
X035845Y011287D02*
X036003Y011445D01*
X035845Y011287D02*
X034930Y011287D01*
X034180Y010437D02*
X033980Y010637D01*
X033380Y010637D01*
X033080Y010337D01*
X030330Y010337D01*
X030280Y010387D01*
X030280Y010637D01*
X029480Y011437D01*
X029480Y011687D01*
X029330Y011837D01*
X029080Y011837D01*
X028880Y011637D01*
X028230Y011637D01*
X028010Y011417D01*
X028010Y010407D01*
X027540Y009937D01*
X019330Y009937D01*
X019240Y009777D02*
X027580Y009777D01*
X028150Y010347D01*
X028150Y011257D01*
X028380Y011487D01*
X029180Y011487D01*
X029230Y011537D01*
X029230Y011587D01*
X029380Y011337D02*
X028480Y011337D01*
X028290Y011147D01*
X028290Y010287D01*
X027620Y009617D01*
X019170Y009617D01*
X019100Y009467D02*
X027670Y009467D01*
X028440Y010237D01*
X028440Y011047D01*
X028580Y011187D01*
X028830Y011187D01*
X028930Y011087D01*
X028930Y010837D01*
X028780Y010687D01*
X028780Y009487D01*
X028980Y009287D01*
X029420Y009777D02*
X029540Y009657D01*
X029540Y008877D01*
X029840Y008577D01*
X029840Y007297D01*
X029780Y007237D01*
X029380Y007237D01*
X029040Y006897D01*
X027680Y006897D01*
X027460Y007117D01*
X026020Y007117D01*
X025320Y006417D01*
X024440Y006417D01*
X023880Y005857D01*
X023880Y005177D01*
X023700Y004997D01*
X014000Y004997D01*
X013930Y005067D01*
X013930Y005387D01*
X013160Y004857D02*
X013080Y004937D01*
X012330Y004937D01*
X012010Y005257D01*
X012010Y005387D01*
X009503Y008745D02*
X009372Y008745D01*
X008630Y009487D01*
X008630Y009737D01*
X007930Y010437D01*
X007930Y017387D01*
X008330Y017787D01*
X008430Y017387D02*
X008130Y017087D01*
X008130Y010487D01*
X008888Y009729D01*
X009027Y009729D01*
X008830Y010087D02*
X011180Y010087D01*
X011610Y009657D01*
X018510Y009657D01*
X018980Y009187D01*
X027540Y009187D01*
X027630Y009097D01*
X027630Y009087D01*
X027730Y009327D02*
X028580Y010177D01*
X028580Y010837D01*
X028680Y010937D01*
X029380Y011337D02*
X030130Y010587D01*
X030130Y010337D01*
X030280Y010187D01*
X033130Y010187D01*
X033430Y010487D01*
X033770Y010487D01*
X033910Y010347D01*
X033980Y009587D02*
X035280Y009587D01*
X036680Y009037D02*
X038730Y011087D01*
X038730Y011637D01*
X039680Y011787D02*
X036780Y008887D01*
X031580Y008887D01*
X031480Y008787D01*
X031330Y009037D02*
X036680Y009037D01*
X036980Y008737D02*
X034130Y008737D01*
X033880Y008487D01*
X033880Y008137D01*
X033630Y007837D02*
X033580Y007887D01*
X033630Y007837D02*
X036330Y007837D01*
X035830Y007687D02*
X033880Y007687D01*
X032080Y005887D01*
X031530Y005887D01*
X031080Y006287D02*
X031080Y006537D01*
X031630Y007087D01*
X031680Y007087D01*
X031930Y006837D02*
X031930Y006637D01*
X030230Y004937D01*
X030230Y005187D02*
X031580Y006537D01*
X031580Y006687D01*
X031080Y006287D02*
X030230Y005437D01*
X026680Y005437D01*
X025880Y005187D02*
X025630Y004937D01*
X025530Y004937D01*
X024830Y003937D02*
X024710Y003937D01*
X030430Y003437D02*
X032430Y005437D01*
X032430Y005837D01*
X032580Y005987D01*
X033080Y005987D01*
X033230Y005837D01*
X033230Y005637D01*
X032880Y005637D02*
X032880Y005737D01*
X032880Y005637D02*
X030430Y003187D01*
X031330Y003687D02*
X033930Y003687D01*
X034430Y004187D01*
X034430Y004337D01*
X034080Y004187D02*
X033830Y003937D01*
X031580Y003937D01*
X033130Y006137D02*
X034530Y004737D01*
X036080Y004737D01*
X036330Y004987D01*
X037130Y004987D01*
X036730Y005637D02*
X037630Y005637D01*
X038830Y004437D01*
X036730Y005637D02*
X036730Y006937D01*
X036830Y007037D01*
X036330Y007037D02*
X036330Y007187D01*
X035830Y007687D01*
X035030Y008337D02*
X035180Y008487D01*
X036730Y008487D01*
X036980Y008737D02*
X037080Y008637D01*
X033130Y006137D02*
X032530Y006137D01*
X032030Y005637D01*
X031280Y005637D01*
X028580Y007937D02*
X027880Y007237D01*
X027730Y007237D01*
X027740Y007667D02*
X028010Y007667D01*
X028630Y008287D01*
X029230Y008287D01*
X029230Y007937D02*
X028580Y007937D01*
X031130Y008837D02*
X031330Y009037D01*
X027730Y009327D02*
X019040Y009327D01*
X018560Y009807D01*
X011710Y009807D01*
X011230Y010287D01*
X008940Y010287D01*
X008580Y010647D01*
X008580Y016687D01*
X008780Y016887D01*
X009080Y016887D01*
X009080Y017587D02*
X008330Y016837D01*
X008330Y010587D01*
X008830Y010087D01*
X009320Y010447D02*
X011320Y010447D01*
X011820Y009947D01*
X018620Y009947D01*
X019100Y009467D01*
X021330Y010437D02*
X027330Y010437D01*
X027580Y010687D01*
X027580Y011687D01*
X027980Y012087D01*
X027580Y014137D02*
X027580Y014187D01*
X027380Y014387D01*
X037880Y014237D02*
X039080Y014237D01*
X039180Y014337D01*
X030180Y019587D02*
X030168Y019587D01*
X030180Y019587D02*
X029580Y020187D01*
X027780Y020187D01*
X027680Y020087D01*
X009080Y017887D02*
X009080Y017587D01*
X009080Y010887D02*
X009080Y010687D01*
X009320Y010447D01*
X037330Y002337D02*
X037680Y002687D01*
X038830Y002687D01*
D37*
X027080Y014887D02*
X027080Y015887D01*
X029080Y018287D02*
X029430Y018287D01*
X009080Y015887D02*
X009080Y014887D01*
D38*
X015641Y002687D02*
X015641Y001598D01*
X015641Y002687D02*
X018580Y002687D01*
X021641Y002687D01*
X021641Y001598D01*
X018641Y001598D02*
X018641Y002626D01*
X018580Y002687D01*
M02*
