G75*
G70*
%OFA0B0*%
%FSLAX24Y24*%
%IPPOS*%
%LPD*%
%AMOC8*
5,1,8,0,0,1.08239X$1,22.5*
%
%ADD10C,0.0100*%
%ADD11C,0.0700*%
%ADD12C,0.1340*%
%ADD13C,0.0926*%
%ADD14C,0.0634*%
%ADD15C,0.0780*%
%ADD16C,0.0000*%
%ADD17C,0.0670*%
%ADD18C,0.0740*%
%ADD19R,0.0780X0.0780*%
%ADD20R,0.0500X0.0670*%
%ADD21R,0.0060X0.0720*%
%ADD22C,0.0709*%
%ADD23R,0.0290X0.0540*%
%ADD24R,0.0555X0.0555*%
%ADD25C,0.0555*%
%ADD26C,0.0865*%
%ADD27C,0.0440*%
%ADD28OC8,0.0670*%
%ADD29C,0.0670*%
%ADD30OC8,0.0560*%
%ADD31C,0.0560*%
%ADD32C,0.2290*%
D10*
X003080Y001725D02*
X003080Y019835D01*
X003082Y019889D01*
X003087Y019942D01*
X003096Y019995D01*
X003109Y020047D01*
X003125Y020099D01*
X003145Y020149D01*
X003168Y020197D01*
X003195Y020244D01*
X003224Y020289D01*
X003257Y020332D01*
X003292Y020372D01*
X003330Y020410D01*
X003370Y020445D01*
X003413Y020478D01*
X003458Y020507D01*
X003505Y020534D01*
X003553Y020557D01*
X003603Y020577D01*
X003655Y020593D01*
X003707Y020606D01*
X003760Y020615D01*
X003813Y020620D01*
X003867Y020622D01*
X041663Y020622D01*
X041717Y020620D01*
X041770Y020615D01*
X041823Y020606D01*
X041875Y020593D01*
X041927Y020577D01*
X041977Y020557D01*
X042025Y020534D01*
X042072Y020507D01*
X042117Y020478D01*
X042160Y020445D01*
X042200Y020410D01*
X042238Y020372D01*
X042273Y020332D01*
X042306Y020289D01*
X042335Y020244D01*
X042362Y020197D01*
X042385Y020149D01*
X042405Y020099D01*
X042421Y020047D01*
X042434Y019995D01*
X042443Y019942D01*
X042448Y019889D01*
X042450Y019835D01*
X042450Y001725D01*
X042448Y001671D01*
X042443Y001618D01*
X042434Y001565D01*
X042421Y001513D01*
X042405Y001461D01*
X042385Y001411D01*
X042362Y001363D01*
X042335Y001316D01*
X042306Y001271D01*
X042273Y001228D01*
X042238Y001188D01*
X042200Y001150D01*
X042160Y001115D01*
X042117Y001082D01*
X042072Y001053D01*
X042025Y001026D01*
X041977Y001003D01*
X041927Y000983D01*
X041875Y000967D01*
X041823Y000954D01*
X041770Y000945D01*
X041717Y000940D01*
X041663Y000938D01*
X041663Y000937D02*
X003867Y000937D01*
X003867Y000938D02*
X003813Y000940D01*
X003760Y000945D01*
X003707Y000954D01*
X003655Y000967D01*
X003603Y000983D01*
X003553Y001003D01*
X003505Y001026D01*
X003458Y001053D01*
X003413Y001082D01*
X003370Y001115D01*
X003330Y001150D01*
X003292Y001188D01*
X003257Y001228D01*
X003224Y001271D01*
X003195Y001316D01*
X003168Y001363D01*
X003145Y001411D01*
X003125Y001461D01*
X003109Y001513D01*
X003096Y001565D01*
X003087Y001618D01*
X003082Y001671D01*
X003080Y001725D01*
D11*
X039200Y005995D03*
X039980Y005995D03*
X039980Y006979D03*
X039200Y006979D03*
D12*
X041050Y008857D03*
X041050Y004117D03*
D13*
X040346Y015459D03*
X040346Y018215D03*
D14*
X041330Y017723D03*
X041330Y015951D03*
D15*
X040350Y016467D03*
X039210Y016467D03*
X033168Y016337D03*
X032168Y016237D03*
X031168Y016337D03*
X030168Y016337D03*
X029168Y016237D03*
X028168Y016337D03*
X026930Y019387D03*
X025930Y019487D03*
X024930Y019387D03*
X028168Y019587D03*
X029168Y019487D03*
X030168Y019587D03*
X031168Y019587D03*
X032168Y019487D03*
X033168Y019587D03*
X034168Y019587D03*
X035168Y019487D03*
X036168Y019587D03*
X037168Y019587D03*
X038168Y019487D03*
X039168Y019587D03*
X020930Y019387D03*
X019930Y019487D03*
X018930Y019387D03*
X014930Y019387D03*
X013930Y019487D03*
X012930Y019387D03*
X008930Y019387D03*
X007930Y019487D03*
X006930Y019387D03*
X011880Y002737D03*
X012880Y002637D03*
X013880Y002737D03*
X013880Y001737D03*
X012880Y001637D03*
X011880Y001737D03*
X025480Y001787D03*
X026480Y001787D03*
X027480Y001787D03*
X028480Y001787D03*
X029480Y001787D03*
X037580Y001637D03*
X038580Y001737D03*
X039580Y001637D03*
D16*
X039739Y010219D02*
X039741Y010254D01*
X039747Y010289D01*
X039757Y010323D01*
X039770Y010356D01*
X039787Y010387D01*
X039808Y010415D01*
X039831Y010442D01*
X039858Y010465D01*
X039886Y010486D01*
X039917Y010503D01*
X039950Y010516D01*
X039984Y010526D01*
X040019Y010532D01*
X040054Y010534D01*
X040089Y010532D01*
X040124Y010526D01*
X040158Y010516D01*
X040191Y010503D01*
X040222Y010486D01*
X040250Y010465D01*
X040277Y010442D01*
X040300Y010415D01*
X040321Y010387D01*
X040338Y010356D01*
X040351Y010323D01*
X040361Y010289D01*
X040367Y010254D01*
X040369Y010219D01*
X040367Y010184D01*
X040361Y010149D01*
X040351Y010115D01*
X040338Y010082D01*
X040321Y010051D01*
X040300Y010023D01*
X040277Y009996D01*
X040250Y009973D01*
X040222Y009952D01*
X040191Y009935D01*
X040158Y009922D01*
X040124Y009912D01*
X040089Y009906D01*
X040054Y009904D01*
X040019Y009906D01*
X039984Y009912D01*
X039950Y009922D01*
X039917Y009935D01*
X039886Y009952D01*
X039858Y009973D01*
X039831Y009996D01*
X039808Y010023D01*
X039787Y010051D01*
X039770Y010082D01*
X039757Y010115D01*
X039747Y010149D01*
X039741Y010184D01*
X039739Y010219D01*
X039739Y014156D02*
X039741Y014191D01*
X039747Y014226D01*
X039757Y014260D01*
X039770Y014293D01*
X039787Y014324D01*
X039808Y014352D01*
X039831Y014379D01*
X039858Y014402D01*
X039886Y014423D01*
X039917Y014440D01*
X039950Y014453D01*
X039984Y014463D01*
X040019Y014469D01*
X040054Y014471D01*
X040089Y014469D01*
X040124Y014463D01*
X040158Y014453D01*
X040191Y014440D01*
X040222Y014423D01*
X040250Y014402D01*
X040277Y014379D01*
X040300Y014352D01*
X040321Y014324D01*
X040338Y014293D01*
X040351Y014260D01*
X040361Y014226D01*
X040367Y014191D01*
X040369Y014156D01*
X040367Y014121D01*
X040361Y014086D01*
X040351Y014052D01*
X040338Y014019D01*
X040321Y013988D01*
X040300Y013960D01*
X040277Y013933D01*
X040250Y013910D01*
X040222Y013889D01*
X040191Y013872D01*
X040158Y013859D01*
X040124Y013849D01*
X040089Y013843D01*
X040054Y013841D01*
X040019Y013843D01*
X039984Y013849D01*
X039950Y013859D01*
X039917Y013872D01*
X039886Y013889D01*
X039858Y013910D01*
X039831Y013933D01*
X039808Y013960D01*
X039787Y013988D01*
X039770Y014019D01*
X039757Y014052D01*
X039747Y014086D01*
X039741Y014121D01*
X039739Y014156D01*
D17*
X040054Y014156D03*
X040054Y010219D03*
D18*
X027080Y010887D03*
X027080Y011887D03*
X027080Y012887D03*
X027080Y013887D03*
X027080Y014887D03*
X027080Y015887D03*
X027080Y016887D03*
X027080Y017887D03*
X022080Y017887D03*
X021080Y017887D03*
X021080Y016887D03*
X022080Y016887D03*
X022080Y015887D03*
X021080Y015887D03*
X021080Y014887D03*
X022080Y014887D03*
X022080Y013887D03*
X021080Y013887D03*
X021080Y012887D03*
X022080Y012887D03*
X022080Y011887D03*
X021080Y011887D03*
X021080Y010887D03*
X022080Y010887D03*
X016080Y010887D03*
X015080Y010887D03*
X015080Y011887D03*
X016080Y011887D03*
X016080Y012887D03*
X015080Y012887D03*
X015080Y013887D03*
X016080Y013887D03*
X016080Y014887D03*
X015080Y014887D03*
X015080Y015887D03*
X016080Y015887D03*
X016080Y016887D03*
X015080Y016887D03*
X015080Y017887D03*
X016080Y017887D03*
X010080Y017887D03*
X009080Y017887D03*
X009080Y016887D03*
X010080Y016887D03*
X010080Y015887D03*
X009080Y015887D03*
X009080Y014887D03*
X010080Y014887D03*
X010080Y013887D03*
X009080Y013887D03*
X009080Y012887D03*
X010080Y012887D03*
X010080Y011887D03*
X009080Y011887D03*
X009080Y010887D03*
X010080Y010887D03*
X004080Y010887D03*
X004080Y011887D03*
X004080Y012887D03*
X004080Y013887D03*
X004080Y014887D03*
X004080Y015887D03*
X004080Y016887D03*
X004080Y017887D03*
D19*
X005930Y019487D03*
X011930Y019487D03*
X017930Y019487D03*
X023930Y019487D03*
X036580Y001737D03*
D20*
X026280Y011837D03*
X025680Y011837D03*
X025680Y012837D03*
X026280Y012837D03*
X026280Y013837D03*
X025680Y013837D03*
X020280Y013837D03*
X019680Y013837D03*
X019680Y012837D03*
X020280Y012837D03*
X020280Y011837D03*
X019680Y011837D03*
X014280Y011837D03*
X013680Y011837D03*
X013680Y012837D03*
X014280Y012837D03*
X014280Y013837D03*
X013680Y013837D03*
X007280Y013637D03*
X006680Y013637D03*
X006680Y014537D03*
X007280Y014537D03*
X007280Y015437D03*
X006680Y015437D03*
D21*
X006980Y015437D03*
X006980Y014537D03*
X006980Y013637D03*
X013980Y013837D03*
X013980Y012837D03*
X013980Y011837D03*
X019980Y011837D03*
X019980Y012837D03*
X019980Y013837D03*
X025980Y013837D03*
X025980Y012837D03*
X025980Y011837D03*
D22*
X023019Y001598D03*
X021641Y001598D03*
X020019Y001598D03*
X018641Y001598D03*
X017019Y001598D03*
X015641Y001598D03*
D23*
X028730Y018287D03*
X029080Y018287D03*
X029430Y018287D03*
D24*
X010487Y008745D03*
D25*
X009503Y008745D03*
X008519Y008745D03*
X007535Y008745D03*
X006550Y008745D03*
X005566Y008745D03*
X006074Y009729D03*
X007058Y009729D03*
X008043Y009729D03*
X009027Y009729D03*
X010011Y009729D03*
X010995Y009729D03*
D26*
X004493Y006687D02*
X003668Y006687D01*
X003668Y004687D02*
X004493Y004687D01*
D27*
X024830Y004437D03*
X025530Y004437D03*
X025530Y004937D03*
X024830Y004937D03*
X024830Y005437D03*
X025530Y005437D03*
X026680Y005437D03*
X026680Y004937D03*
X026680Y004437D03*
X026680Y003937D03*
X026680Y003437D03*
X025530Y003437D03*
X024830Y003437D03*
X024830Y003937D03*
X025530Y003937D03*
D28*
X018580Y008937D03*
X006480Y002637D03*
D29*
X006480Y003637D03*
X017580Y008937D03*
D30*
X021980Y008837D03*
D31*
X021180Y008837D03*
D32*
X004180Y002037D03*
X041380Y002037D03*
X041380Y019537D03*
X004180Y019537D03*
M02*
