  0
SECTION
  2
HEADER
  9
$ACADVER
  1
AC1009
  9
$MEASUREMENT
 70
     1
  0
ENDSEC
  0
SECTION
  2
ENTITIES
  0
LWPOLYLINE
  8
0
 62
7
 90
5
 70
1
 10
87.792562
 20
30.722000
 10
87.792562
 20
30.223562
 10
88.889437
 20
30.223562
 10
88.889437
 20
31.220438
 10
87.792562
 20
31.220438
  0
LWPOLYLINE
  8
0
 62
7
 90
5
 70
1
 10
86.092562
 20
30.722000
 10
86.092562
 20
30.223562
 10
87.189438
 20
30.223562
 10
87.189438
 20
31.220438
 10
86.092562
 20
31.220438
  0
LWPOLYLINE
  8
0
 62
7
 90
5
 70
1
 10
78.299438
 20
4.179000
 10
78.299438
 20
4.677437
 10
77.202562
 20
4.677437
 10
77.202562
 20
3.680563
 10
78.299438
 20
3.680563
  0
LWPOLYLINE
  8
0
 62
7
 90
5
 70
1
 10
79.999437
 20
4.179000
 10
79.999437
 20
4.677437
 10
78.902562
 20
4.677437
 10
78.902562
 20
3.680563
 10
79.999437
 20
3.680563
  0
LWPOLYLINE
  8
0
 62
7
 90
5
 70
1
 10
81.522000
 20
7.147562
 10
82.020437
 20
7.147562
 10
82.020437
 20
8.244438
 10
81.023563
 20
8.244438
 10
81.023563
 20
7.147562
  0
LWPOLYLINE
  8
0
 62
7
 90
5
 70
1
 10
81.522000
 20
5.447563
 10
82.020437
 20
5.447563
 10
82.020437
 20
6.544438
 10
81.023563
 20
6.544438
 10
81.023563
 20
5.447563
  0
LWPOLYLINE
  8
0
 62
7
 90
5
 70
1
 10
89.443562
 20
18.403000
 10
89.443562
 20
17.904562
 10
90.540438
 20
17.904562
 10
90.540438
 20
18.901438
 10
89.443562
 20
18.901438
  0
LWPOLYLINE
  8
0
 62
7
 90
5
 70
1
 10
87.743562
 20
18.403000
 10
87.743562
 20
17.904562
 10
88.840438
 20
17.904562
 10
88.840438
 20
18.901438
 10
87.743562
 20
18.901438
  0
LWPOLYLINE
  8
0
 62
7
 90
5
 70
1
 10
89.443562
 20
12.307000
 10
89.443562
 20
11.808563
 10
90.540438
 20
11.808563
 10
90.540438
 20
12.805438
 10
89.443562
 20
12.805438
  0
LWPOLYLINE
  8
0
 62
7
 90
5
 70
1
 10
87.743562
 20
12.307000
 10
87.743562
 20
11.808563
 10
88.840438
 20
11.808563
 10
88.840438
 20
12.805438
 10
87.743562
 20
12.805438
  0
LWPOLYLINE
  8
0
 62
7
 90
5
 70
1
 10
83.427000
 20
2.480437
 10
82.928563
 20
2.480437
 10
82.928563
 20
1.383563
 10
83.925438
 20
1.383563
 10
83.925438
 20
2.480437
  0
LWPOLYLINE
  8
0
 62
7
 90
5
 70
1
 10
83.427000
 20
4.180438
 10
82.928563
 20
4.180438
 10
82.928563
 20
3.083563
 10
83.925438
 20
3.083563
 10
83.925438
 20
4.180438
  0
LWPOLYLINE
  8
0
 62
7
 90
5
 70
1
 10
75.743500
 20
2.289938
 10
75.245063
 20
2.289938
 10
75.245063
 20
1.193062
 10
76.241937
 20
1.193062
 10
76.241937
 20
2.289938
  0
LWPOLYLINE
  8
0
 62
7
 90
5
 70
1
 10
75.743500
 20
3.989937
 10
75.245063
 20
3.989937
 10
75.245063
 20
2.893063
 10
76.241937
 20
2.893063
 10
76.241937
 20
3.989937
  0
LWPOLYLINE
  8
0
 62
7
 90
5
 70
1
 10
68.250500
 20
30.420437
 10
67.752063
 20
30.420437
 10
67.752063
 20
29.323563
 10
68.748937
 20
29.323563
 10
68.748937
 20
30.420437
  0
LWPOLYLINE
  8
0
 62
7
 90
5
 70
1
 10
68.250500
 20
32.120438
 10
67.752063
 20
32.120438
 10
67.752063
 20
31.023563
 10
68.748937
 20
31.023563
 10
68.748937
 20
32.120438
  0
LWPOLYLINE
  8
0
 62
7
 90
5
 70
1
 10
76.759500
 20
30.420437
 10
76.261063
 20
30.420437
 10
76.261063
 20
29.323563
 10
77.257937
 20
29.323563
 10
77.257937
 20
30.420437
  0
LWPOLYLINE
  8
0
 62
7
 90
5
 70
1
 10
76.759500
 20
32.120438
 10
76.261063
 20
32.120438
 10
76.261063
 20
31.023563
 10
77.257937
 20
31.023563
 10
77.257937
 20
32.120438
  0
LWPOLYLINE
  8
0
 62
7
 90
5
 70
1
 10
84.014437
 20
20.181000
 10
84.014437
 20
20.679438
 10
82.917562
 20
20.679438
 10
82.917562
 20
19.682562
 10
84.014437
 20
19.682562
  0
LWPOLYLINE
  8
0
 62
7
 90
5
 70
1
 10
85.714438
 20
20.181000
 10
85.714438
 20
20.679438
 10
84.617562
 20
20.679438
 10
84.617562
 20
19.682562
 10
85.714438
 20
19.682562
  0
LWPOLYLINE
  8
0
 62
7
 90
5
 70
1
 10
75.426000
 20
5.274438
 10
74.927563
 20
5.274438
 10
74.927563
 20
4.177562
 10
75.924437
 20
4.177562
 10
75.924437
 20
5.274438
  0
LWPOLYLINE
  8
0
 62
7
 90
5
 70
1
 10
75.426000
 20
6.974438
 10
74.927563
 20
6.974438
 10
74.927563
 20
5.877562
 10
75.924437
 20
5.877562
 10
75.924437
 20
6.974438
  0
LWPOLYLINE
  8
0
 62
7
 90
5
 70
1
 10
61.630563
 20
14.034200
 10
61.630563
 20
13.535763
 10
62.727438
 20
13.535763
 10
62.727438
 20
14.532637
 10
61.630563
 20
14.532637
  0
LWPOLYLINE
  8
0
 62
7
 90
5
 70
1
 10
59.930563
 20
14.034200
 10
59.930563
 20
13.535763
 10
61.027437
 20
13.535763
 10
61.027437
 20
14.532637
 10
59.930563
 20
14.532637
  0
LWPOLYLINE
  8
0
 62
7
 90
5
 70
1
 10
78.902562
 20
2.147000
 10
78.902562
 20
1.648562
 10
79.999437
 20
1.648562
 10
79.999437
 20
2.645437
 10
78.902562
 20
2.645437
  0
LWPOLYLINE
  8
0
 62
7
 90
5
 70
1
 10
77.202562
 20
2.147000
 10
77.202562
 20
1.648562
 10
78.299438
 20
1.648562
 10
78.299438
 20
2.645437
 10
77.202562
 20
2.645437
  0
LWPOLYLINE
  8
0
 62
7
 90
5
 70
1
 10
62.011563
 20
19.469800
 10
62.011563
 20
18.971362
 10
63.108438
 20
18.971362
 10
63.108438
 20
19.968238
 10
62.011563
 20
19.968238
  0
LWPOLYLINE
  8
0
 62
7
 90
5
 70
1
 10
60.311563
 20
19.469800
 10
60.311563
 20
18.971362
 10
61.408437
 20
18.971362
 10
61.408437
 20
19.968238
 10
60.311563
 20
19.968238
  0
LWPOLYLINE
  8
0
 62
7
 90
5
 70
1
 10
69.584000
 20
45.374563
 10
70.082437
 20
45.374563
 10
70.082437
 20
46.471438
 10
69.085563
 20
46.471438
 10
69.085563
 20
45.374563
  0
LWPOLYLINE
  8
0
 62
7
 90
5
 70
1
 10
69.584000
 20
43.674563
 10
70.082437
 20
43.674563
 10
70.082437
 20
44.771437
 10
69.085563
 20
44.771437
 10
69.085563
 20
43.674563
  0
LWPOLYLINE
  8
0
 62
7
 90
5
 70
1
 10
77.204000
 20
45.374563
 10
77.702437
 20
45.374563
 10
77.702437
 20
46.471438
 10
76.705562
 20
46.471438
 10
76.705562
 20
45.374563
  0
LWPOLYLINE
  8
0
 62
7
 90
5
 70
1
 10
77.204000
 20
43.674563
 10
77.702437
 20
43.674563
 10
77.702437
 20
44.771437
 10
76.705562
 20
44.771437
 10
76.705562
 20
43.674563
  0
LWPOLYLINE
  8
0
 62
7
 90
5
 70
1
 10
84.824000
 20
45.374563
 10
85.322437
 20
45.374563
 10
85.322437
 20
46.471438
 10
84.325563
 20
46.471438
 10
84.325563
 20
45.374563
  0
LWPOLYLINE
  8
0
 62
7
 90
5
 70
1
 10
84.824000
 20
43.674563
 10
85.322437
 20
43.674563
 10
85.322437
 20
44.771437
 10
84.325563
 20
44.771437
 10
84.325563
 20
43.674563
  0
LWPOLYLINE
  8
0
 62
7
 90
5
 70
1
 10
92.444000
 20
45.374563
 10
92.942437
 20
45.374563
 10
92.942437
 20
46.471438
 10
91.945563
 20
46.471438
 10
91.945563
 20
45.374563
  0
LWPOLYLINE
  8
0
 62
7
 90
5
 70
1
 10
92.444000
 20
43.674563
 10
92.942437
 20
43.674563
 10
92.942437
 20
44.771437
 10
91.945563
 20
44.771437
 10
91.945563
 20
43.674563
  0
LWPOLYLINE
  8
0
 62
7
 90
5
 70
1
 10
69.584000
 20
37.119563
 10
70.082437
 20
37.119563
 10
70.082437
 20
38.216437
 10
69.085563
 20
38.216437
 10
69.085563
 20
37.119563
  0
LWPOLYLINE
  8
0
 62
7
 90
5
 70
1
 10
69.584000
 20
35.419563
 10
70.082437
 20
35.419563
 10
70.082437
 20
36.516438
 10
69.085563
 20
36.516438
 10
69.085563
 20
35.419563
  0
LWPOLYLINE
  8
0
 62
7
 90
5
 70
1
 10
77.204000
 20
37.119563
 10
77.702437
 20
37.119563
 10
77.702437
 20
38.216437
 10
76.705562
 20
38.216437
 10
76.705562
 20
37.119563
  0
LWPOLYLINE
  8
0
 62
7
 90
5
 70
1
 10
77.204000
 20
35.419563
 10
77.702437
 20
35.419563
 10
77.702437
 20
36.516438
 10
76.705562
 20
36.516438
 10
76.705562
 20
35.419563
  0
LWPOLYLINE
  8
0
 62
7
 90
5
 70
1
 10
6.036438
 20
26.658000
 10
6.036438
 20
27.156438
 10
4.939563
 20
27.156438
 10
4.939563
 20
26.159562
 10
6.036438
 20
26.159562
  0
LWPOLYLINE
  8
0
 62
7
 90
5
 70
1
 10
7.736438
 20
26.658000
 10
7.736438
 20
27.156438
 10
6.639562
 20
27.156438
 10
6.639562
 20
26.159562
 10
7.736438
 20
26.159562
  0
LWPOLYLINE
  8
0
 62
7
 90
5
 70
1
 10
5.576000
 20
43.120438
 10
5.077562
 20
43.120438
 10
5.077562
 20
42.023563
 10
6.074437
 20
42.023563
 10
6.074437
 20
43.120438
  0
LWPOLYLINE
  8
0
 62
7
 90
5
 70
1
 10
5.576000
 20
44.820437
 10
5.077562
 20
44.820437
 10
5.077562
 20
43.723562
 10
6.074437
 20
43.723562
 10
6.074437
 20
44.820437
  0
LWPOLYLINE
  8
0
 62
7
 90
5
 70
1
 10
14.850437
 20
31.357000
 10
14.850437
 20
32.155437
 10
11.353563
 20
32.155437
 10
11.353563
 20
30.558563
 10
14.850437
 20
30.558563
  0
LWPOLYLINE
  8
0
 62
7
 90
5
 70
1
 10
9.450437
 20
31.357000
 10
9.450437
 20
32.155437
 10
5.953563
 20
32.155437
 10
5.953563
 20
30.558563
 10
9.450437
 20
30.558563
  0
LWPOLYLINE
  8
0
 62
7
 90
5
 70
1
 10
21.276438
 20
26.658000
 10
21.276438
 20
27.156438
 10
20.179563
 20
27.156438
 10
20.179563
 20
26.159562
 10
21.276438
 20
26.159562
  0
LWPOLYLINE
  8
0
 62
7
 90
5
 70
1
 10
22.976437
 20
26.658000
 10
22.976437
 20
27.156438
 10
21.879563
 20
27.156438
 10
21.879563
 20
26.159562
 10
22.976437
 20
26.159562
  0
LWPOLYLINE
  8
0
 62
7
 90
5
 70
1
 10
20.816000
 20
43.120438
 10
20.317562
 20
43.120438
 10
20.317562
 20
42.023563
 10
21.314438
 20
42.023563
 10
21.314438
 20
43.120438
  0
LWPOLYLINE
  8
0
 62
7
 90
5
 70
1
 10
20.816000
 20
44.820437
 10
20.317562
 20
44.820437
 10
20.317562
 20
43.723562
 10
21.314438
 20
43.723562
 10
21.314438
 20
44.820437
  0
LWPOLYLINE
  8
0
 62
7
 90
5
 70
1
 10
30.090438
 20
31.357000
 10
30.090438
 20
32.155437
 10
26.593562
 20
32.155437
 10
26.593562
 20
30.558563
 10
30.090438
 20
30.558563
  0
LWPOLYLINE
  8
0
 62
7
 90
5
 70
1
 10
24.690438
 20
31.357000
 10
24.690438
 20
32.155437
 10
21.193562
 20
32.155437
 10
21.193562
 20
30.558563
 10
24.690438
 20
30.558563
  0
LWPOLYLINE
  8
0
 62
7
 90
5
 70
1
 10
36.516438
 20
26.658000
 10
36.516438
 20
27.156438
 10
35.419563
 20
27.156438
 10
35.419563
 20
26.159562
 10
36.516438
 20
26.159562
  0
LWPOLYLINE
  8
0
 62
7
 90
5
 70
1
 10
38.216437
 20
26.658000
 10
38.216437
 20
27.156438
 10
37.119563
 20
27.156438
 10
37.119563
 20
26.159562
 10
38.216437
 20
26.159562
  0
LWPOLYLINE
  8
0
 62
7
 90
5
 70
1
 10
36.056000
 20
43.120438
 10
35.557562
 20
43.120438
 10
35.557562
 20
42.023563
 10
36.554437
 20
42.023563
 10
36.554437
 20
43.120438
  0
LWPOLYLINE
  8
0
 62
7
 90
5
 70
1
 10
36.056000
 20
44.820437
 10
35.557562
 20
44.820437
 10
35.557562
 20
43.723562
 10
36.554437
 20
43.723562
 10
36.554437
 20
44.820437
  0
LWPOLYLINE
  8
0
 62
7
 90
5
 70
1
 10
45.330438
 20
31.357000
 10
45.330438
 20
32.155437
 10
41.833562
 20
32.155437
 10
41.833562
 20
30.558563
 10
45.330438
 20
30.558563
  0
LWPOLYLINE
  8
0
 62
7
 90
5
 70
1
 10
39.930438
 20
31.357000
 10
39.930438
 20
32.155437
 10
36.433563
 20
32.155437
 10
36.433563
 20
30.558563
 10
39.930438
 20
30.558563
  0
LWPOLYLINE
  8
0
 62
7
 90
5
 70
1
 10
51.756437
 20
26.658000
 10
51.756437
 20
27.156438
 10
50.659562
 20
27.156438
 10
50.659562
 20
26.159562
 10
51.756437
 20
26.159562
  0
LWPOLYLINE
  8
0
 62
7
 90
5
 70
1
 10
53.456437
 20
26.658000
 10
53.456437
 20
27.156438
 10
52.359563
 20
27.156438
 10
52.359563
 20
26.159562
 10
53.456437
 20
26.159562
  0
LWPOLYLINE
  8
0
 62
7
 90
5
 70
1
 10
51.296000
 20
43.120438
 10
50.797562
 20
43.120438
 10
50.797562
 20
42.023563
 10
51.794438
 20
42.023563
 10
51.794438
 20
43.120438
  0
LWPOLYLINE
  8
0
 62
7
 90
5
 70
1
 10
51.296000
 20
44.820437
 10
50.797562
 20
44.820437
 10
50.797562
 20
43.723562
 10
51.794438
 20
43.723562
 10
51.794438
 20
44.820437
  0
LWPOLYLINE
  8
0
 62
7
 90
5
 70
1
 10
60.570438
 20
31.357000
 10
60.570438
 20
32.155437
 10
57.073563
 20
32.155437
 10
57.073563
 20
30.558563
 10
60.570438
 20
30.558563
  0
LWPOLYLINE
  8
0
 62
7
 90
5
 70
1
 10
55.170437
 20
31.357000
 10
55.170437
 20
32.155437
 10
51.673562
 20
32.155437
 10
51.673562
 20
30.558563
 10
55.170437
 20
30.558563
  0
LWPOLYLINE
  8
0
 62
7
 90
5
 70
1
 10
83.935000
 20
6.131562
 10
84.433437
 20
6.131562
 10
84.433437
 20
7.228438
 10
83.436563
 20
7.228438
 10
83.436563
 20
6.131562
  0
LWPOLYLINE
  8
0
 62
7
 90
5
 70
1
 10
83.935000
 20
4.431563
 10
84.433437
 20
4.431563
 10
84.433437
 20
5.528438
 10
83.436563
 20
5.528438
 10
83.436563
 20
4.431563
  0
LWPOLYLINE
  8
0
 62
7
 90
5
 70
1
 10
86.094000
 20
6.131562
 10
86.592437
 20
6.131562
 10
86.592437
 20
7.228438
 10
85.595562
 20
7.228438
 10
85.595562
 20
6.131562
  0
LWPOLYLINE
  8
0
 62
7
 90
5
 70
1
 10
86.094000
 20
4.431563
 10
86.592437
 20
4.431563
 10
86.592437
 20
5.528438
 10
85.595562
 20
5.528438
 10
85.595562
 20
4.431563
  0
LWPOLYLINE
  8
0
 62
7
 90
5
 70
1
 10
8.163562
 20
1.893000
 10
8.163562
 20
1.394563
 10
9.260438
 20
1.394563
 10
9.260438
 20
2.391437
 10
8.163562
 20
2.391437
  0
LWPOLYLINE
  8
0
 62
7
 90
5
 70
1
 10
6.463562
 20
1.893000
 10
6.463562
 20
1.394563
 10
7.560437
 20
1.394563
 10
7.560437
 20
2.391437
 10
6.463562
 20
2.391437
  0
LWPOLYLINE
  8
0
 62
7
 90
5
 70
1
 10
83.046000
 20
12.100562
 10
83.544438
 20
12.100562
 10
83.544438
 20
13.197437
 10
82.547563
 20
13.197437
 10
82.547563
 20
12.100562
  0
LWPOLYLINE
  8
0
 62
7
 90
5
 70
1
 10
83.046000
 20
10.400562
 10
83.544438
 20
10.400562
 10
83.544438
 20
11.497438
 10
82.547563
 20
11.497438
 10
82.547563
 20
10.400562
  0
LWPOLYLINE
  8
0
 62
7
 90
5
 70
1
 10
87.792562
 20
28.690000
 10
87.792562
 20
28.191562
 10
88.889437
 20
28.191562
 10
88.889437
 20
29.188438
 10
87.792562
 20
29.188438
  0
LWPOLYLINE
  8
0
 62
7
 90
5
 70
1
 10
86.092562
 20
28.690000
 10
86.092562
 20
28.191562
 10
87.189438
 20
28.191562
 10
87.189438
 20
29.188438
 10
86.092562
 20
29.188438
  0
LWPOLYLINE
  8
0
 62
7
 90
5
 70
1
 10
92.636062
 20
6.973000
 10
92.636062
 20
5.704562
 10
95.172938
 20
5.704562
 10
95.172938
 20
8.241437
 10
92.636062
 20
8.241437
  0
LWPOLYLINE
  8
0
 62
7
 90
5
 70
1
 10
90.473938
 20
6.973000
 10
90.473938
 20
8.241437
 10
87.937062
 20
8.241437
 10
87.937062
 20
5.704562
 10
90.473938
 20
5.704562
  0
LWPOLYLINE
  8
0
 62
7
 90
5
 70
1
 10
7.735000
 20
13.907563
 10
8.783437
 20
13.907563
 10
8.783437
 20
15.174437
 10
6.686562
 20
15.174437
 10
6.686562
 20
13.907563
  0
LWPOLYLINE
  8
0
 62
7
 90
5
 70
1
 10
7.735000
 20
9.947563
 10
8.783437
 20
9.947563
 10
8.783437
 20
11.214437
 10
6.686562
 20
11.214437
 10
6.686562
 20
9.947563
  0
LWPOLYLINE
  8
0
 62
7
 90
5
 70
1
 10
21.893937
 20
14.974000
 10
21.893937
 20
16.242438
 10
19.357062
 20
16.242438
 10
19.357062
 20
13.705562
 10
21.893937
 20
13.705562
  0
LWPOLYLINE
  8
0
 62
7
 90
5
 70
1
 10
24.056062
 20
14.974000
 10
24.056062
 20
13.705562
 10
26.592938
 20
13.705562
 10
26.592938
 20
16.242438
 10
24.056062
 20
16.242438
  0
LWPOLYLINE
  8
0
 62
7
 90
5
 70
1
 10
67.044000
 20
43.609563
 10
67.457437
 20
43.609563
 10
67.457437
 20
44.236438
 10
66.630562
 20
44.236438
 10
66.630562
 20
43.609563
  0
LWPOLYLINE
  8
0
 62
7
 90
5
 70
1
 10
67.044000
 20
45.909562
 10
67.457437
 20
45.909562
 10
67.457437
 20
46.536437
 10
66.630562
 20
46.536437
 10
66.630562
 20
45.909562
  0
LWPOLYLINE
  8
0
 62
7
 90
5
 70
1
 10
74.664000
 20
43.609563
 10
75.077438
 20
43.609563
 10
75.077438
 20
44.236438
 10
74.250563
 20
44.236438
 10
74.250563
 20
43.609563
  0
LWPOLYLINE
  8
0
 62
7
 90
5
 70
1
 10
74.664000
 20
45.909562
 10
75.077438
 20
45.909562
 10
75.077438
 20
46.536437
 10
74.250563
 20
46.536437
 10
74.250563
 20
45.909562
  0
LWPOLYLINE
  8
0
 62
7
 90
5
 70
1
 10
82.284000
 20
43.609563
 10
82.697438
 20
43.609563
 10
82.697438
 20
44.236438
 10
81.870563
 20
44.236438
 10
81.870563
 20
43.609563
  0
LWPOLYLINE
  8
0
 62
7
 90
5
 70
1
 10
82.284000
 20
45.909562
 10
82.697438
 20
45.909562
 10
82.697438
 20
46.536437
 10
81.870563
 20
46.536437
 10
81.870563
 20
45.909562
  0
LWPOLYLINE
  8
0
 62
7
 90
5
 70
1
 10
89.904000
 20
43.609563
 10
90.317437
 20
43.609563
 10
90.317437
 20
44.236438
 10
89.490562
 20
44.236438
 10
89.490562
 20
43.609563
  0
LWPOLYLINE
  8
0
 62
7
 90
5
 70
1
 10
89.904000
 20
45.909562
 10
90.317437
 20
45.909562
 10
90.317437
 20
46.536437
 10
89.490562
 20
46.536437
 10
89.490562
 20
45.909562
  0
LWPOLYLINE
  8
0
 62
7
 90
5
 70
1
 10
67.044000
 20
35.354563
 10
67.457437
 20
35.354563
 10
67.457437
 20
35.981437
 10
66.630562
 20
35.981437
 10
66.630562
 20
35.354563
  0
LWPOLYLINE
  8
0
 62
7
 90
5
 70
1
 10
67.044000
 20
37.654563
 10
67.457437
 20
37.654563
 10
67.457437
 20
38.281438
 10
66.630562
 20
38.281438
 10
66.630562
 20
37.654563
  0
LWPOLYLINE
  8
0
 62
7
 90
5
 70
1
 10
74.664000
 20
35.354563
 10
75.077438
 20
35.354563
 10
75.077438
 20
35.981437
 10
74.250563
 20
35.981437
 10
74.250563
 20
35.354563
  0
LWPOLYLINE
  8
0
 62
7
 90
5
 70
1
 10
74.664000
 20
37.654563
 10
75.077438
 20
37.654563
 10
75.077438
 20
38.281438
 10
74.250563
 20
38.281438
 10
74.250563
 20
37.654563
  0
LWPOLYLINE
  8
0
 62
7
 90
5
 70
1
 10
66.892437
 20
10.907000
 10
66.892437
 20
11.655437
 10
66.625563
 20
11.655437
 10
66.625563
 20
10.158563
 10
66.892437
 20
10.158563
  0
LWPOLYLINE
  8
0
 62
7
 90
5
 70
1
 10
67.392437
 20
10.907000
 10
67.392437
 20
11.655437
 10
67.125563
 20
11.655437
 10
67.125563
 20
10.158563
 10
67.392437
 20
10.158563
  0
LWPOLYLINE
  8
0
 62
7
 90
5
 70
1
 10
67.892437
 20
10.907000
 10
67.892437
 20
11.655437
 10
67.625563
 20
11.655437
 10
67.625563
 20
10.158563
 10
67.892437
 20
10.158563
  0
LWPOLYLINE
  8
0
 62
7
 90
5
 70
1
 10
68.392437
 20
10.907000
 10
68.392437
 20
11.655437
 10
68.125563
 20
11.655437
 10
68.125563
 20
10.158563
 10
68.392437
 20
10.158563
  0
LWPOLYLINE
  8
0
 62
7
 90
5
 70
1
 10
68.892437
 20
10.907000
 10
68.892437
 20
11.655437
 10
68.625563
 20
11.655437
 10
68.625563
 20
10.158563
 10
68.892437
 20
10.158563
  0
LWPOLYLINE
  8
0
 62
7
 90
5
 70
1
 10
69.392437
 20
10.907000
 10
69.392437
 20
11.655437
 10
69.125563
 20
11.655437
 10
69.125563
 20
10.158563
 10
69.392437
 20
10.158563
  0
LWPOLYLINE
  8
0
 62
7
 90
5
 70
1
 10
69.892437
 20
10.907000
 10
69.892437
 20
11.655437
 10
69.625563
 20
11.655437
 10
69.625563
 20
10.158563
 10
69.892437
 20
10.158563
  0
LWPOLYLINE
  8
0
 62
7
 90
5
 70
1
 10
70.392437
 20
10.907000
 10
70.392437
 20
11.655437
 10
70.125563
 20
11.655437
 10
70.125563
 20
10.158563
 10
70.392437
 20
10.158563
  0
LWPOLYLINE
  8
0
 62
7
 90
5
 70
1
 10
70.892437
 20
10.907000
 10
70.892437
 20
11.655437
 10
70.625563
 20
11.655437
 10
70.625563
 20
10.158563
 10
70.892437
 20
10.158563
  0
LWPOLYLINE
  8
0
 62
7
 90
5
 70
1
 10
71.392437
 20
10.907000
 10
71.392437
 20
11.655437
 10
71.125563
 20
11.655437
 10
71.125563
 20
10.158563
 10
71.392437
 20
10.158563
  0
LWPOLYLINE
  8
0
 62
7
 90
5
 70
1
 10
71.892437
 20
10.907000
 10
71.892437
 20
11.655437
 10
71.625563
 20
11.655437
 10
71.625563
 20
10.158563
 10
71.892437
 20
10.158563
  0
LWPOLYLINE
  8
0
 62
7
 90
5
 70
1
 10
72.392437
 20
10.907000
 10
72.392437
 20
11.655437
 10
72.125563
 20
11.655437
 10
72.125563
 20
10.158563
 10
72.392437
 20
10.158563
  0
LWPOLYLINE
  8
0
 62
7
 90
5
 70
1
 10
72.892437
 20
10.907000
 10
72.892437
 20
11.655437
 10
72.625563
 20
11.655437
 10
72.625563
 20
10.158563
 10
72.892437
 20
10.158563
  0
LWPOLYLINE
  8
0
 62
7
 90
5
 70
1
 10
73.392437
 20
10.907000
 10
73.392437
 20
11.655437
 10
73.125563
 20
11.655437
 10
73.125563
 20
10.158563
 10
73.392437
 20
10.158563
  0
LWPOLYLINE
  8
0
 62
7
 90
5
 70
1
 10
73.892437
 20
10.907000
 10
73.892437
 20
11.655437
 10
73.625563
 20
11.655437
 10
73.625563
 20
10.158563
 10
73.892437
 20
10.158563
  0
LWPOLYLINE
  8
0
 62
7
 90
5
 70
1
 10
74.392437
 20
10.907000
 10
74.392437
 20
11.655437
 10
74.125563
 20
11.655437
 10
74.125563
 20
10.158563
 10
74.392437
 20
10.158563
  0
LWPOLYLINE
  8
0
 62
7
 90
5
 70
1
 10
74.892437
 20
10.907000
 10
74.892437
 20
11.655437
 10
74.625563
 20
11.655437
 10
74.625563
 20
10.158563
 10
74.892437
 20
10.158563
  0
LWPOLYLINE
  8
0
 62
7
 90
5
 70
1
 10
75.392437
 20
10.907000
 10
75.392437
 20
11.655437
 10
75.125563
 20
11.655437
 10
75.125563
 20
10.158563
 10
75.392437
 20
10.158563
  0
LWPOLYLINE
  8
0
 62
7
 90
5
 70
1
 10
75.892437
 20
10.907000
 10
75.892437
 20
11.655437
 10
75.625563
 20
11.655437
 10
75.625563
 20
10.158563
 10
75.892437
 20
10.158563
  0
LWPOLYLINE
  8
0
 62
7
 90
5
 70
1
 10
76.392437
 20
10.907000
 10
76.392437
 20
11.655437
 10
76.125563
 20
11.655437
 10
76.125563
 20
10.158563
 10
76.392437
 20
10.158563
  0
LWPOLYLINE
  8
0
 62
7
 90
5
 70
1
 10
76.892437
 20
10.907000
 10
76.892437
 20
11.655437
 10
76.625563
 20
11.655437
 10
76.625563
 20
10.158563
 10
76.892437
 20
10.158563
  0
LWPOLYLINE
  8
0
 62
7
 90
5
 70
1
 10
77.392437
 20
10.907000
 10
77.392437
 20
11.655437
 10
77.125563
 20
11.655437
 10
77.125563
 20
10.158563
 10
77.392437
 20
10.158563
  0
LWPOLYLINE
  8
0
 62
7
 90
5
 70
1
 10
77.892437
 20
10.907000
 10
77.892437
 20
11.655437
 10
77.625563
 20
11.655437
 10
77.625563
 20
10.158563
 10
77.892437
 20
10.158563
  0
LWPOLYLINE
  8
0
 62
7
 90
5
 70
1
 10
78.392437
 20
10.907000
 10
78.392437
 20
11.655437
 10
78.125563
 20
11.655437
 10
78.125563
 20
10.158563
 10
78.392437
 20
10.158563
  0
LWPOLYLINE
  8
0
 62
7
 90
5
 70
1
 10
78.892437
 20
10.907000
 10
78.892437
 20
11.655437
 10
78.625563
 20
11.655437
 10
78.625563
 20
10.158563
 10
78.892437
 20
10.158563
  0
LWPOLYLINE
  8
0
 62
7
 90
5
 70
1
 10
81.257437
 20
12.657000
 10
81.257437
 20
12.790437
 10
79.760563
 20
12.790437
 10
79.760563
 20
12.523563
 10
81.257437
 20
12.523563
  0
LWPOLYLINE
  8
0
 62
7
 90
5
 70
1
 10
81.257437
 20
13.157000
 10
81.257437
 20
13.290437
 10
79.760563
 20
13.290437
 10
79.760563
 20
13.023563
 10
81.257437
 20
13.023563
  0
LWPOLYLINE
  8
0
 62
7
 90
5
 70
1
 10
81.257437
 20
13.657000
 10
81.257437
 20
13.790437
 10
79.760563
 20
13.790437
 10
79.760563
 20
13.523563
 10
81.257437
 20
13.523563
  0
LWPOLYLINE
  8
0
 62
7
 90
5
 70
1
 10
81.257437
 20
14.157000
 10
81.257437
 20
14.290437
 10
79.760563
 20
14.290437
 10
79.760563
 20
14.023563
 10
81.257437
 20
14.023563
  0
LWPOLYLINE
  8
0
 62
7
 90
5
 70
1
 10
81.257437
 20
14.657000
 10
81.257437
 20
14.790437
 10
79.760563
 20
14.790437
 10
79.760563
 20
14.523563
 10
81.257437
 20
14.523563
  0
LWPOLYLINE
  8
0
 62
7
 90
5
 70
1
 10
81.257437
 20
15.157000
 10
81.257437
 20
15.290437
 10
79.760563
 20
15.290437
 10
79.760563
 20
15.023563
 10
81.257437
 20
15.023563
  0
LWPOLYLINE
  8
0
 62
7
 90
5
 70
1
 10
81.257437
 20
15.657000
 10
81.257437
 20
15.790437
 10
79.760563
 20
15.790437
 10
79.760563
 20
15.523563
 10
81.257437
 20
15.523563
  0
LWPOLYLINE
  8
0
 62
7
 90
5
 70
1
 10
81.257437
 20
16.157000
 10
81.257437
 20
16.290437
 10
79.760563
 20
16.290437
 10
79.760563
 20
16.023563
 10
81.257437
 20
16.023563
  0
LWPOLYLINE
  8
0
 62
7
 90
5
 70
1
 10
81.257437
 20
16.657000
 10
81.257437
 20
16.790437
 10
79.760563
 20
16.790437
 10
79.760563
 20
16.523563
 10
81.257437
 20
16.523563
  0
LWPOLYLINE
  8
0
 62
7
 90
5
 70
1
 10
81.257437
 20
17.157000
 10
81.257437
 20
17.290437
 10
79.760563
 20
17.290437
 10
79.760563
 20
17.023563
 10
81.257437
 20
17.023563
  0
LWPOLYLINE
  8
0
 62
7
 90
5
 70
1
 10
81.257437
 20
17.657000
 10
81.257437
 20
17.790437
 10
79.760563
 20
17.790437
 10
79.760563
 20
17.523563
 10
81.257437
 20
17.523563
  0
LWPOLYLINE
  8
0
 62
7
 90
5
 70
1
 10
81.257437
 20
18.157000
 10
81.257437
 20
18.290437
 10
79.760563
 20
18.290437
 10
79.760563
 20
18.023563
 10
81.257437
 20
18.023563
  0
LWPOLYLINE
  8
0
 62
7
 90
5
 70
1
 10
81.257437
 20
18.657000
 10
81.257437
 20
18.790437
 10
79.760563
 20
18.790437
 10
79.760563
 20
18.523563
 10
81.257437
 20
18.523563
  0
LWPOLYLINE
  8
0
 62
7
 90
5
 70
1
 10
81.257437
 20
19.157000
 10
81.257437
 20
19.290437
 10
79.760563
 20
19.290437
 10
79.760563
 20
19.023563
 10
81.257437
 20
19.023563
  0
LWPOLYLINE
  8
0
 62
7
 90
5
 70
1
 10
81.257437
 20
19.657000
 10
81.257437
 20
19.790437
 10
79.760563
 20
19.790437
 10
79.760563
 20
19.523563
 10
81.257437
 20
19.523563
  0
LWPOLYLINE
  8
0
 62
7
 90
5
 70
1
 10
81.257437
 20
20.157000
 10
81.257437
 20
20.290437
 10
79.760563
 20
20.290437
 10
79.760563
 20
20.023563
 10
81.257437
 20
20.023563
  0
LWPOLYLINE
  8
0
 62
7
 90
5
 70
1
 10
81.257437
 20
20.657000
 10
81.257437
 20
20.790437
 10
79.760563
 20
20.790437
 10
79.760563
 20
20.523563
 10
81.257437
 20
20.523563
  0
LWPOLYLINE
  8
0
 62
7
 90
5
 70
1
 10
81.257437
 20
21.157000
 10
81.257437
 20
21.290437
 10
79.760563
 20
21.290437
 10
79.760563
 20
21.023563
 10
81.257437
 20
21.023563
  0
LWPOLYLINE
  8
0
 62
7
 90
5
 70
1
 10
81.257437
 20
21.657000
 10
81.257437
 20
21.790437
 10
79.760563
 20
21.790437
 10
79.760563
 20
21.523563
 10
81.257437
 20
21.523563
  0
LWPOLYLINE
  8
0
 62
7
 90
5
 70
1
 10
81.257437
 20
22.157000
 10
81.257437
 20
22.290437
 10
79.760563
 20
22.290437
 10
79.760563
 20
22.023563
 10
81.257437
 20
22.023563
  0
LWPOLYLINE
  8
0
 62
7
 90
5
 70
1
 10
81.257437
 20
22.657000
 10
81.257437
 20
22.790437
 10
79.760563
 20
22.790437
 10
79.760563
 20
22.523563
 10
81.257437
 20
22.523563
  0
LWPOLYLINE
  8
0
 62
7
 90
5
 70
1
 10
81.257437
 20
23.157000
 10
81.257437
 20
23.290437
 10
79.760563
 20
23.290437
 10
79.760563
 20
23.023563
 10
81.257437
 20
23.023563
  0
LWPOLYLINE
  8
0
 62
7
 90
5
 70
1
 10
81.257437
 20
23.657000
 10
81.257437
 20
23.790437
 10
79.760563
 20
23.790437
 10
79.760563
 20
23.523563
 10
81.257437
 20
23.523563
  0
LWPOLYLINE
  8
0
 62
7
 90
5
 70
1
 10
81.257437
 20
24.157000
 10
81.257437
 20
24.290437
 10
79.760563
 20
24.290437
 10
79.760563
 20
24.023563
 10
81.257437
 20
24.023563
  0
LWPOLYLINE
  8
0
 62
7
 90
5
 70
1
 10
81.257437
 20
24.657000
 10
81.257437
 20
24.790437
 10
79.760563
 20
24.790437
 10
79.760563
 20
24.523563
 10
81.257437
 20
24.523563
  0
LWPOLYLINE
  8
0
 62
7
 90
5
 70
1
 10
78.892437
 20
26.407000
 10
78.892437
 20
27.155438
 10
78.625563
 20
27.155438
 10
78.625563
 20
25.658562
 10
78.892437
 20
25.658562
  0
LWPOLYLINE
  8
0
 62
7
 90
5
 70
1
 10
78.392437
 20
26.407000
 10
78.392437
 20
27.155438
 10
78.125563
 20
27.155438
 10
78.125563
 20
25.658562
 10
78.392437
 20
25.658562
  0
LWPOLYLINE
  8
0
 62
7
 90
5
 70
1
 10
77.892437
 20
26.407000
 10
77.892437
 20
27.155438
 10
77.625563
 20
27.155438
 10
77.625563
 20
25.658562
 10
77.892437
 20
25.658562
  0
LWPOLYLINE
  8
0
 62
7
 90
5
 70
1
 10
77.392437
 20
26.407000
 10
77.392437
 20
27.155438
 10
77.125563
 20
27.155438
 10
77.125563
 20
25.658562
 10
77.392437
 20
25.658562
  0
LWPOLYLINE
  8
0
 62
7
 90
5
 70
1
 10
76.892437
 20
26.407000
 10
76.892437
 20
27.155438
 10
76.625563
 20
27.155438
 10
76.625563
 20
25.658562
 10
76.892437
 20
25.658562
  0
LWPOLYLINE
  8
0
 62
7
 90
5
 70
1
 10
76.392437
 20
26.407000
 10
76.392437
 20
27.155438
 10
76.125563
 20
27.155438
 10
76.125563
 20
25.658562
 10
76.392437
 20
25.658562
  0
LWPOLYLINE
  8
0
 62
7
 90
5
 70
1
 10
75.892437
 20
26.407000
 10
75.892437
 20
27.155438
 10
75.625563
 20
27.155438
 10
75.625563
 20
25.658562
 10
75.892437
 20
25.658562
  0
LWPOLYLINE
  8
0
 62
7
 90
5
 70
1
 10
75.392437
 20
26.407000
 10
75.392437
 20
27.155438
 10
75.125563
 20
27.155438
 10
75.125563
 20
25.658562
 10
75.392437
 20
25.658562
  0
LWPOLYLINE
  8
0
 62
7
 90
5
 70
1
 10
74.892437
 20
26.407000
 10
74.892437
 20
27.155438
 10
74.625563
 20
27.155438
 10
74.625563
 20
25.658562
 10
74.892437
 20
25.658562
  0
LWPOLYLINE
  8
0
 62
7
 90
5
 70
1
 10
74.392437
 20
26.407000
 10
74.392437
 20
27.155438
 10
74.125563
 20
27.155438
 10
74.125563
 20
25.658562
 10
74.392437
 20
25.658562
  0
LWPOLYLINE
  8
0
 62
7
 90
5
 70
1
 10
73.892437
 20
26.407000
 10
73.892437
 20
27.155438
 10
73.625563
 20
27.155438
 10
73.625563
 20
25.658562
 10
73.892437
 20
25.658562
  0
LWPOLYLINE
  8
0
 62
7
 90
5
 70
1
 10
73.392437
 20
26.407000
 10
73.392437
 20
27.155438
 10
73.125563
 20
27.155438
 10
73.125563
 20
25.658562
 10
73.392437
 20
25.658562
  0
LWPOLYLINE
  8
0
 62
7
 90
5
 70
1
 10
72.892437
 20
26.407000
 10
72.892437
 20
27.155438
 10
72.625563
 20
27.155438
 10
72.625563
 20
25.658562
 10
72.892437
 20
25.658562
  0
LWPOLYLINE
  8
0
 62
7
 90
5
 70
1
 10
72.392437
 20
26.407000
 10
72.392437
 20
27.155438
 10
72.125563
 20
27.155438
 10
72.125563
 20
25.658562
 10
72.392437
 20
25.658562
  0
LWPOLYLINE
  8
0
 62
7
 90
5
 70
1
 10
71.892437
 20
26.407000
 10
71.892437
 20
27.155438
 10
71.625563
 20
27.155438
 10
71.625563
 20
25.658562
 10
71.892437
 20
25.658562
  0
LWPOLYLINE
  8
0
 62
7
 90
5
 70
1
 10
71.392437
 20
26.407000
 10
71.392437
 20
27.155438
 10
71.125563
 20
27.155438
 10
71.125563
 20
25.658562
 10
71.392437
 20
25.658562
  0
LWPOLYLINE
  8
0
 62
7
 90
5
 70
1
 10
70.892437
 20
26.407000
 10
70.892437
 20
27.155438
 10
70.625563
 20
27.155438
 10
70.625563
 20
25.658562
 10
70.892437
 20
25.658562
  0
LWPOLYLINE
  8
0
 62
7
 90
5
 70
1
 10
70.392437
 20
26.407000
 10
70.392437
 20
27.155438
 10
70.125563
 20
27.155438
 10
70.125563
 20
25.658562
 10
70.392437
 20
25.658562
  0
LWPOLYLINE
  8
0
 62
7
 90
5
 70
1
 10
69.892437
 20
26.407000
 10
69.892437
 20
27.155438
 10
69.625563
 20
27.155438
 10
69.625563
 20
25.658562
 10
69.892437
 20
25.658562
  0
LWPOLYLINE
  8
0
 62
7
 90
5
 70
1
 10
69.392437
 20
26.407000
 10
69.392437
 20
27.155438
 10
69.125563
 20
27.155438
 10
69.125563
 20
25.658562
 10
69.392437
 20
25.658562
  0
LWPOLYLINE
  8
0
 62
7
 90
5
 70
1
 10
68.892437
 20
26.407000
 10
68.892437
 20
27.155438
 10
68.625563
 20
27.155438
 10
68.625563
 20
25.658562
 10
68.892437
 20
25.658562
  0
LWPOLYLINE
  8
0
 62
7
 90
5
 70
1
 10
68.392437
 20
26.407000
 10
68.392437
 20
27.155438
 10
68.125563
 20
27.155438
 10
68.125563
 20
25.658562
 10
68.392437
 20
25.658562
  0
LWPOLYLINE
  8
0
 62
7
 90
5
 70
1
 10
67.892437
 20
26.407000
 10
67.892437
 20
27.155438
 10
67.625563
 20
27.155438
 10
67.625563
 20
25.658562
 10
67.892437
 20
25.658562
  0
LWPOLYLINE
  8
0
 62
7
 90
5
 70
1
 10
67.392437
 20
26.407000
 10
67.392437
 20
27.155438
 10
67.125563
 20
27.155438
 10
67.125563
 20
25.658562
 10
67.392437
 20
25.658562
  0
LWPOLYLINE
  8
0
 62
7
 90
5
 70
1
 10
66.892437
 20
26.407000
 10
66.892437
 20
27.155438
 10
66.625563
 20
27.155438
 10
66.625563
 20
25.658562
 10
66.892437
 20
25.658562
  0
LWPOLYLINE
  8
0
 62
7
 90
5
 70
1
 10
65.757437
 20
24.657000
 10
65.757437
 20
24.790437
 10
64.260563
 20
24.790437
 10
64.260563
 20
24.523563
 10
65.757437
 20
24.523563
  0
LWPOLYLINE
  8
0
 62
7
 90
5
 70
1
 10
65.757437
 20
24.157000
 10
65.757437
 20
24.290437
 10
64.260563
 20
24.290437
 10
64.260563
 20
24.023563
 10
65.757437
 20
24.023563
  0
LWPOLYLINE
  8
0
 62
7
 90
5
 70
1
 10
65.757437
 20
23.657000
 10
65.757437
 20
23.790437
 10
64.260563
 20
23.790437
 10
64.260563
 20
23.523563
 10
65.757437
 20
23.523563
  0
LWPOLYLINE
  8
0
 62
7
 90
5
 70
1
 10
65.757437
 20
23.157000
 10
65.757437
 20
23.290437
 10
64.260563
 20
23.290437
 10
64.260563
 20
23.023563
 10
65.757437
 20
23.023563
  0
LWPOLYLINE
  8
0
 62
7
 90
5
 70
1
 10
65.757437
 20
22.657000
 10
65.757437
 20
22.790437
 10
64.260563
 20
22.790437
 10
64.260563
 20
22.523563
 10
65.757437
 20
22.523563
  0
LWPOLYLINE
  8
0
 62
7
 90
5
 70
1
 10
65.757437
 20
22.157000
 10
65.757437
 20
22.290437
 10
64.260563
 20
22.290437
 10
64.260563
 20
22.023563
 10
65.757437
 20
22.023563
  0
LWPOLYLINE
  8
0
 62
7
 90
5
 70
1
 10
65.757437
 20
21.657000
 10
65.757437
 20
21.790437
 10
64.260563
 20
21.790437
 10
64.260563
 20
21.523563
 10
65.757437
 20
21.523563
  0
LWPOLYLINE
  8
0
 62
7
 90
5
 70
1
 10
65.757437
 20
21.157000
 10
65.757437
 20
21.290437
 10
64.260563
 20
21.290437
 10
64.260563
 20
21.023563
 10
65.757437
 20
21.023563
  0
LWPOLYLINE
  8
0
 62
7
 90
5
 70
1
 10
65.757437
 20
20.657000
 10
65.757437
 20
20.790437
 10
64.260563
 20
20.790437
 10
64.260563
 20
20.523563
 10
65.757437
 20
20.523563
  0
LWPOLYLINE
  8
0
 62
7
 90
5
 70
1
 10
65.757437
 20
20.157000
 10
65.757437
 20
20.290437
 10
64.260563
 20
20.290437
 10
64.260563
 20
20.023563
 10
65.757437
 20
20.023563
  0
LWPOLYLINE
  8
0
 62
7
 90
5
 70
1
 10
65.757437
 20
19.657000
 10
65.757437
 20
19.790437
 10
64.260563
 20
19.790437
 10
64.260563
 20
19.523563
 10
65.757437
 20
19.523563
  0
LWPOLYLINE
  8
0
 62
7
 90
5
 70
1
 10
65.757437
 20
19.157000
 10
65.757437
 20
19.290437
 10
64.260563
 20
19.290437
 10
64.260563
 20
19.023563
 10
65.757437
 20
19.023563
  0
LWPOLYLINE
  8
0
 62
7
 90
5
 70
1
 10
65.757437
 20
18.657000
 10
65.757437
 20
18.790437
 10
64.260563
 20
18.790437
 10
64.260563
 20
18.523563
 10
65.757437
 20
18.523563
  0
LWPOLYLINE
  8
0
 62
7
 90
5
 70
1
 10
65.757437
 20
18.157000
 10
65.757437
 20
18.290437
 10
64.260563
 20
18.290437
 10
64.260563
 20
18.023563
 10
65.757437
 20
18.023563
  0
LWPOLYLINE
  8
0
 62
7
 90
5
 70
1
 10
65.757437
 20
17.657000
 10
65.757437
 20
17.790437
 10
64.260563
 20
17.790437
 10
64.260563
 20
17.523563
 10
65.757437
 20
17.523563
  0
LWPOLYLINE
  8
0
 62
7
 90
5
 70
1
 10
65.757437
 20
17.157000
 10
65.757437
 20
17.290437
 10
64.260563
 20
17.290437
 10
64.260563
 20
17.023563
 10
65.757437
 20
17.023563
  0
LWPOLYLINE
  8
0
 62
7
 90
5
 70
1
 10
65.757437
 20
16.657000
 10
65.757437
 20
16.790437
 10
64.260563
 20
16.790437
 10
64.260563
 20
16.523563
 10
65.757437
 20
16.523563
  0
LWPOLYLINE
  8
0
 62
7
 90
5
 70
1
 10
65.757437
 20
16.157000
 10
65.757437
 20
16.290437
 10
64.260563
 20
16.290437
 10
64.260563
 20
16.023563
 10
65.757437
 20
16.023563
  0
LWPOLYLINE
  8
0
 62
7
 90
5
 70
1
 10
65.757437
 20
15.657000
 10
65.757437
 20
15.790437
 10
64.260563
 20
15.790437
 10
64.260563
 20
15.523563
 10
65.757437
 20
15.523563
  0
LWPOLYLINE
  8
0
 62
7
 90
5
 70
1
 10
65.757437
 20
15.157000
 10
65.757437
 20
15.290437
 10
64.260563
 20
15.290437
 10
64.260563
 20
15.023563
 10
65.757437
 20
15.023563
  0
LWPOLYLINE
  8
0
 62
7
 90
5
 70
1
 10
65.757437
 20
14.657000
 10
65.757437
 20
14.790437
 10
64.260563
 20
14.790437
 10
64.260563
 20
14.523563
 10
65.757437
 20
14.523563
  0
LWPOLYLINE
  8
0
 62
7
 90
5
 70
1
 10
65.757437
 20
14.157000
 10
65.757437
 20
14.290437
 10
64.260563
 20
14.290437
 10
64.260563
 20
14.023563
 10
65.757437
 20
14.023563
  0
LWPOLYLINE
  8
0
 62
7
 90
5
 70
1
 10
65.757437
 20
13.657000
 10
65.757437
 20
13.790437
 10
64.260563
 20
13.790437
 10
64.260563
 20
13.523563
 10
65.757437
 20
13.523563
  0
LWPOLYLINE
  8
0
 62
7
 90
5
 70
1
 10
65.757437
 20
13.157000
 10
65.757437
 20
13.290437
 10
64.260563
 20
13.290437
 10
64.260563
 20
13.023563
 10
65.757437
 20
13.023563
  0
LWPOLYLINE
  8
0
 62
7
 90
5
 70
1
 10
65.757437
 20
12.657000
 10
65.757437
 20
12.790437
 10
64.260563
 20
12.790437
 10
64.260563
 20
12.523563
 10
65.757437
 20
12.523563
  0
LWPOLYLINE
  8
0
 62
7
 90
5
 70
1
 10
81.395000
 20
2.480437
 10
80.896563
 20
2.480437
 10
80.896563
 20
1.383563
 10
81.893437
 20
1.383563
 10
81.893437
 20
2.480437
  0
LWPOLYLINE
  8
0
 62
7
 90
5
 70
1
 10
81.395000
 20
4.180438
 10
80.896563
 20
4.180438
 10
80.896563
 20
3.083563
 10
81.893437
 20
3.083563
 10
81.893437
 20
4.180438
  0
LWPOLYLINE
  8
0
 62
7
 90
5
 70
1
 10
20.123438
 20
9.894000
 10
20.123438
 20
11.317438
 10
13.126563
 20
11.317438
 10
13.126563
 20
8.470562
 10
20.123438
 20
8.470562
  0
LWPOLYLINE
  8
0
 62
7
 90
5
 70
1
 10
20.123438
 20
4.814000
 10
20.123438
 20
6.237438
 10
13.126563
 20
6.237438
 10
13.126563
 20
3.390562
 10
20.123438
 20
3.390562
  0
LWPOLYLINE
  8
0
 62
7
 90
5
 70
1
 10
85.552000
 20
38.251562
 10
86.150438
 20
38.251562
 10
86.150438
 20
39.448438
 10
84.953563
 20
39.448438
 10
84.953563
 20
38.251562
  0
LWPOLYLINE
  8
0
 62
7
 90
5
 70
1
 10
87.652000
 20
38.251562
 10
88.250438
 20
38.251562
 10
88.250438
 20
39.448438
 10
87.053562
 20
39.448438
 10
87.053562
 20
38.251562
  0
LWPOLYLINE
  8
0
 62
7
 90
5
 70
1
 10
91.694000
 20
36.292563
 10
92.092438
 20
36.292563
 10
92.092438
 20
37.089438
 10
91.295563
 20
37.089438
 10
91.295563
 20
36.292563
  0
LWPOLYLINE
  8
0
 62
7
 90
5
 70
1
 10
93.194000
 20
36.292563
 10
93.592438
 20
36.292563
 10
93.592438
 20
37.089438
 10
92.795563
 20
37.089438
 10
92.795563
 20
36.292563
  0
LWPOLYLINE
  8
0
 62
7
 90
5
 70
1
 10
85.552000
 20
40.283562
 10
86.150438
 20
40.283562
 10
86.150438
 20
41.480438
 10
84.953563
 20
41.480438
 10
84.953563
 20
40.283562
  0
LWPOLYLINE
  8
0
 62
7
 90
5
 70
1
 10
87.652000
 20
40.283562
 10
88.250438
 20
40.283562
 10
88.250438
 20
41.480438
 10
87.053562
 20
41.480438
 10
87.053562
 20
40.283562
  0
LWPOLYLINE
  8
0
 62
7
 90
5
 70
1
 10
84.386000
 20
13.516563
 10
84.634437
 20
13.516563
 10
84.634437
 20
14.013438
 10
84.137563
 20
14.013438
 10
84.137563
 20
13.516563
  0
LWPOLYLINE
  8
0
 62
7
 90
5
 70
1
 10
84.386000
 20
12.566562
 10
84.634437
 20
12.566562
 10
84.634437
 20
13.063437
 10
84.137563
 20
13.063437
 10
84.137563
 20
12.566562
  0
LWPOLYLINE
  8
0
 62
7
 90
5
 70
1
 10
84.386000
 20
11.616563
 10
84.634437
 20
11.616563
 10
84.634437
 20
12.113437
 10
84.137563
 20
12.113437
 10
84.137563
 20
11.616563
  0
LWPOLYLINE
  8
0
 62
7
 90
5
 70
1
 10
86.786000
 20
11.616563
 10
87.034437
 20
11.616563
 10
87.034437
 20
12.113437
 10
86.537563
 20
12.113437
 10
86.537563
 20
11.616563
  0
LWPOLYLINE
  8
0
 62
7
 90
5
 70
1
 10
86.786000
 20
12.566562
 10
87.034437
 20
12.566562
 10
87.034437
 20
13.063437
 10
86.537563
 20
13.063437
 10
86.537563
 20
12.566562
  0
LWPOLYLINE
  8
0
 62
7
 90
5
 70
1
 10
86.786000
 20
13.516563
 10
87.034437
 20
13.516563
 10
87.034437
 20
14.013438
 10
86.537563
 20
14.013438
 10
86.537563
 20
13.516563
  0
LWPOLYLINE
  8
0
 62
7
 90
5
 70
1
 10
78.875563
 20
7.646000
 10
78.875563
 20
7.047562
 10
80.272437
 20
7.047562
 10
80.272437
 20
8.244438
 10
78.875563
 20
8.244438
  0
LWPOLYLINE
  8
0
 62
7
 90
5
 70
1
 10
76.675562
 20
6.046000
 10
76.675562
 20
5.447563
 10
78.072437
 20
5.447563
 10
78.072437
 20
6.644438
 10
76.675562
 20
6.644438
  0
LWPOLYLINE
  8
0
 62
7
 90
5
 70
1
 10
78.875563
 20
6.046000
 10
78.875563
 20
5.447563
 10
80.272437
 20
5.447563
 10
80.272437
 20
6.644438
 10
78.875563
 20
6.644438
  0
LWPOLYLINE
  8
0
 62
7
 90
5
 70
1
 10
76.675562
 20
7.646000
 10
76.675562
 20
7.047562
 10
78.072437
 20
7.047562
 10
78.072437
 20
8.244438
 10
76.675562
 20
8.244438
  0
LWPOLYLINE
  8
0
 62
7
 90
5
 70
1
 10
87.842562
 20
34.786000
 10
87.842562
 20
34.237563
 10
88.839437
 20
34.237563
 10
88.839437
 20
35.334437
 10
87.842562
 20
35.334437
  0
LWPOLYLINE
  8
0
 62
7
 90
5
 70
1
 10
86.142563
 20
34.786000
 10
86.142563
 20
34.237563
 10
87.139437
 20
34.237563
 10
87.139437
 20
35.334437
 10
86.142563
 20
35.334437
  0
LWPOLYLINE
  8
0
 62
7
 90
5
 70
1
 10
87.842562
 20
26.658000
 10
87.842562
 20
26.109563
 10
88.839437
 20
26.109563
 10
88.839437
 20
27.206437
 10
87.842562
 20
27.206437
  0
LWPOLYLINE
  8
0
 62
7
 90
5
 70
1
 10
86.142563
 20
26.658000
 10
86.142563
 20
26.109563
 10
87.139437
 20
26.109563
 10
87.139437
 20
27.206437
 10
86.142563
 20
27.206437
  0
LWPOLYLINE
  8
0
 62
7
 90
5
 70
1
 10
87.842562
 20
32.754000
 10
87.842562
 20
32.205562
 10
88.839437
 20
32.205562
 10
88.839437
 20
33.302437
 10
87.842562
 20
33.302437
  0
LWPOLYLINE
  8
0
 62
7
 90
5
 70
1
 10
86.142563
 20
32.754000
 10
86.142563
 20
32.205562
 10
87.139437
 20
32.205562
 10
87.139437
 20
33.302437
 10
86.142563
 20
33.302437
  0
LWPOLYLINE
  8
0
 62
7
 90
5
 70
1
 10
62.061563
 20
15.863000
 10
62.061563
 20
15.314562
 10
63.058438
 20
15.314562
 10
63.058438
 20
16.411437
 10
62.061563
 20
16.411437
  0
LWPOLYLINE
  8
0
 62
7
 90
5
 70
1
 10
60.361562
 20
15.863000
 10
60.361562
 20
15.314562
 10
61.358438
 20
15.314562
 10
61.358438
 20
16.411437
 10
60.361562
 20
16.411437
  0
LWPOLYLINE
  8
0
 62
7
 90
5
 70
1
 10
72.251000
 20
37.169562
 10
72.799438
 20
37.169562
 10
72.799438
 20
38.166438
 10
71.702562
 20
38.166438
 10
71.702562
 20
37.169562
  0
LWPOLYLINE
  8
0
 62
7
 90
5
 70
1
 10
72.251000
 20
35.469563
 10
72.799438
 20
35.469563
 10
72.799438
 20
36.466438
 10
71.702562
 20
36.466438
 10
71.702562
 20
35.469563
  0
LWPOLYLINE
  8
0
 62
7
 90
5
 70
1
 10
64.631000
 20
37.169562
 10
65.179438
 20
37.169562
 10
65.179438
 20
38.166438
 10
64.082562
 20
38.166438
 10
64.082562
 20
37.169562
  0
LWPOLYLINE
  8
0
 62
7
 90
5
 70
1
 10
64.631000
 20
35.469563
 10
65.179438
 20
35.469563
 10
65.179438
 20
36.466438
 10
64.082562
 20
36.466438
 10
64.082562
 20
35.469563
  0
LWPOLYLINE
  8
0
 62
7
 90
5
 70
1
 10
88.790437
 20
14.339000
 10
88.790437
 20
14.887438
 10
87.793563
 20
14.887438
 10
87.793563
 20
13.790563
 10
88.790437
 20
13.790563
  0
LWPOLYLINE
  8
0
 62
7
 90
5
 70
1
 10
90.490437
 20
14.339000
 10
90.490437
 20
14.887438
 10
89.493563
 20
14.887438
 10
89.493563
 20
13.790563
 10
90.490437
 20
13.790563
  0
LWPOLYLINE
  8
0
 62
7
 90
5
 70
1
 10
89.493563
 20
10.275000
 10
89.493563
 20
9.726562
 10
90.490437
 20
9.726562
 10
90.490437
 20
10.823438
 10
89.493563
 20
10.823438
  0
LWPOLYLINE
  8
0
 62
7
 90
5
 70
1
 10
87.793563
 20
10.275000
 10
87.793563
 20
9.726562
 10
88.790437
 20
9.726562
 10
88.790437
 20
10.823438
 10
87.793563
 20
10.823438
  0
LWPOLYLINE
  8
0
 62
7
 90
5
 70
1
 10
89.493563
 20
16.371000
 10
89.493563
 20
15.822562
 10
90.490437
 20
15.822562
 10
90.490437
 20
16.919437
 10
89.493563
 20
16.919437
  0
LWPOLYLINE
  8
0
 62
7
 90
5
 70
1
 10
87.793563
 20
16.371000
 10
87.793563
 20
15.822562
 10
88.790437
 20
15.822562
 10
88.790437
 20
16.919437
 10
87.793563
 20
16.919437
  0
LWPOLYLINE
  8
0
 62
7
 90
5
 70
1
 10
83.651563
 20
38.850000
 10
83.651563
 20
38.301563
 10
84.648438
 20
38.301563
 10
84.648438
 20
39.398438
 10
83.651563
 20
39.398438
  0
LWPOLYLINE
  8
0
 62
7
 90
5
 70
1
 10
81.951563
 20
38.850000
 10
81.951563
 20
38.301563
 10
82.948437
 20
38.301563
 10
82.948437
 20
39.398438
 10
81.951563
 20
39.398438
  0
LWPOLYLINE
  8
0
 62
7
 90
5
 70
1
 10
67.522563
 20
5.576000
 10
67.522563
 20
5.027562
 10
68.519437
 20
5.027562
 10
68.519437
 20
6.124437
 10
67.522563
 20
6.124437
  0
LWPOLYLINE
  8
0
 62
7
 90
5
 70
1
 10
65.822563
 20
5.576000
 10
65.822563
 20
5.027562
 10
66.819437
 20
5.027562
 10
66.819437
 20
6.124437
 10
65.822563
 20
6.124437
  0
LWPOLYLINE
  8
0
 62
7
 90
5
 70
1
 10
84.091437
 20
26.658000
 10
84.091437
 20
27.206437
 10
83.094563
 20
27.206437
 10
83.094563
 20
26.109563
 10
84.091437
 20
26.109563
  0
LWPOLYLINE
  8
0
 62
7
 90
5
 70
1
 10
85.791438
 20
26.658000
 10
85.791438
 20
27.206437
 10
84.794563
 20
27.206437
 10
84.794563
 20
26.109563
 10
85.791438
 20
26.109563
  0
LWPOLYLINE
  8
0
 62
7
 90
5
 70
1
 10
53.836000
 20
21.734438
 10
53.287562
 20
21.734438
 10
53.287562
 20
20.737562
 10
54.384437
 20
20.737562
 10
54.384437
 20
21.734438
  0
LWPOLYLINE
  8
0
 62
7
 90
5
 70
1
 10
53.836000
 20
23.434438
 10
53.287562
 20
23.434438
 10
53.287562
 20
22.437562
 10
54.384437
 20
22.437562
 10
54.384437
 20
23.434438
  0
LWPOLYLINE
  8
0
 62
7
 90
5
 70
1
 10
94.827562
 20
42.533000
 10
94.827562
 20
41.984563
 10
95.824437
 20
41.984563
 10
95.824437
 20
43.081437
 10
94.827562
 20
43.081437
  0
LWPOLYLINE
  8
0
 62
7
 90
5
 70
1
 10
93.127563
 20
42.533000
 10
93.127563
 20
41.984563
 10
94.124437
 20
41.984563
 10
94.124437
 20
43.081437
 10
93.127563
 20
43.081437
  0
LWPOLYLINE
  8
0
 62
7
 90
5
 70
1
 10
92.795563
 20
37.961000
 10
92.795563
 20
37.412562
 10
93.792437
 20
37.412562
 10
93.792437
 20
38.509437
 10
92.795563
 20
38.509437
  0
LWPOLYLINE
  8
0
 62
7
 90
5
 70
1
 10
91.095562
 20
37.961000
 10
91.095562
 20
37.412562
 10
92.092437
 20
37.412562
 10
92.092437
 20
38.509437
 10
91.095562
 20
38.509437
  0
LWPOLYLINE
  8
0
 62
7
 90
5
 70
1
 10
9.415437
 20
26.658000
 10
9.415437
 20
27.206437
 10
8.418563
 20
27.206437
 10
8.418563
 20
26.109563
 10
9.415437
 20
26.109563
  0
LWPOLYLINE
  8
0
 62
7
 90
5
 70
1
 10
11.115438
 20
26.658000
 10
11.115438
 20
27.206437
 10
10.118563
 20
27.206437
 10
10.118563
 20
26.109563
 10
11.115438
 20
26.109563
  0
LWPOLYLINE
  8
0
 62
7
 90
5
 70
1
 10
13.547562
 20
26.023000
 10
13.547562
 20
25.474563
 10
14.544437
 20
25.474563
 10
14.544437
 20
26.571437
 10
13.547562
 20
26.571437
  0
LWPOLYLINE
  8
0
 62
7
 90
5
 70
1
 10
11.847563
 20
26.023000
 10
11.847563
 20
25.474563
 10
12.844437
 20
25.474563
 10
12.844437
 20
26.571437
 10
11.847563
 20
26.571437
  0
LWPOLYLINE
  8
0
 62
7
 90
5
 70
1
 10
87.364000
 20
45.424563
 10
87.912438
 20
45.424563
 10
87.912438
 20
46.421438
 10
86.815562
 20
46.421438
 10
86.815562
 20
45.424563
  0
LWPOLYLINE
  8
0
 62
7
 90
5
 70
1
 10
87.364000
 20
43.724562
 10
87.912438
 20
43.724562
 10
87.912438
 20
44.721438
 10
86.815562
 20
44.721438
 10
86.815562
 20
43.724562
  0
LWPOLYLINE
  8
0
 62
7
 90
5
 70
1
 10
79.871000
 20
45.424563
 10
80.419438
 20
45.424563
 10
80.419438
 20
46.421438
 10
79.322562
 20
46.421438
 10
79.322562
 20
45.424563
  0
LWPOLYLINE
  8
0
 62
7
 90
5
 70
1
 10
79.871000
 20
43.724562
 10
80.419438
 20
43.724562
 10
80.419438
 20
44.721438
 10
79.322562
 20
44.721438
 10
79.322562
 20
43.724562
  0
LWPOLYLINE
  8
0
 62
7
 90
5
 70
1
 10
72.251000
 20
45.424563
 10
72.799438
 20
45.424563
 10
72.799438
 20
46.421438
 10
71.702562
 20
46.421438
 10
71.702562
 20
45.424563
  0
LWPOLYLINE
  8
0
 62
7
 90
5
 70
1
 10
72.251000
 20
43.724562
 10
72.799438
 20
43.724562
 10
72.799438
 20
44.721438
 10
71.702562
 20
44.721438
 10
71.702562
 20
43.724562
  0
LWPOLYLINE
  8
0
 62
7
 90
5
 70
1
 10
64.631000
 20
45.424563
 10
65.179438
 20
45.424563
 10
65.179438
 20
46.421438
 10
64.082562
 20
46.421438
 10
64.082562
 20
45.424563
  0
LWPOLYLINE
  8
0
 62
7
 90
5
 70
1
 10
64.631000
 20
43.724562
 10
65.179438
 20
43.724562
 10
65.179438
 20
44.721438
 10
64.082562
 20
44.721438
 10
64.082562
 20
43.724562
  0
LWPOLYLINE
  8
0
 62
7
 90
5
 70
1
 10
24.655438
 20
26.658000
 10
24.655438
 20
27.206437
 10
23.658562
 20
27.206437
 10
23.658562
 20
26.109563
 10
24.655438
 20
26.109563
  0
LWPOLYLINE
  8
0
 62
7
 90
5
 70
1
 10
26.355438
 20
26.658000
 10
26.355438
 20
27.206437
 10
25.358562
 20
27.206437
 10
25.358562
 20
26.109563
 10
26.355438
 20
26.109563
  0
LWPOLYLINE
  8
0
 62
7
 90
5
 70
1
 10
28.787562
 20
26.023000
 10
28.787562
 20
25.474563
 10
29.784438
 20
25.474563
 10
29.784438
 20
26.571437
 10
28.787562
 20
26.571437
  0
LWPOLYLINE
  8
0
 62
7
 90
5
 70
1
 10
27.087562
 20
26.023000
 10
27.087562
 20
25.474563
 10
28.084437
 20
25.474563
 10
28.084437
 20
26.571437
 10
27.087562
 20
26.571437
  0
LWPOLYLINE
  8
0
 62
7
 90
5
 70
1
 10
61.358438
 20
17.691800
 10
61.358438
 20
18.240237
 10
60.361562
 20
18.240237
 10
60.361562
 20
17.143363
 10
61.358438
 20
17.143363
  0
LWPOLYLINE
  8
0
 62
7
 90
5
 70
1
 10
63.058438
 20
17.691800
 10
63.058438
 20
18.240237
 10
62.061563
 20
18.240237
 10
62.061563
 20
17.143363
 10
63.058438
 20
17.143363
  0
LWPOLYLINE
  8
0
 62
7
 90
5
 70
1
 10
51.804000
 20
21.734438
 10
51.255563
 20
21.734438
 10
51.255563
 20
20.737562
 10
52.352438
 20
20.737562
 10
52.352438
 20
21.734438
  0
LWPOLYLINE
  8
0
 62
7
 90
5
 70
1
 10
51.804000
 20
23.434438
 10
51.255563
 20
23.434438
 10
51.255563
 20
22.437562
 10
52.352438
 20
22.437562
 10
52.352438
 20
23.434438
  0
LWPOLYLINE
  8
0
 62
7
 90
5
 70
1
 10
55.868000
 20
21.734438
 10
55.319563
 20
21.734438
 10
55.319563
 20
20.737562
 10
56.416438
 20
20.737562
 10
56.416438
 20
21.734438
  0
LWPOLYLINE
  8
0
 62
7
 90
5
 70
1
 10
55.868000
 20
23.434438
 10
55.319563
 20
23.434438
 10
55.319563
 20
22.437562
 10
56.416438
 20
22.437562
 10
56.416438
 20
23.434438
  0
LWPOLYLINE
  8
0
 62
7
 90
5
 70
1
 10
57.900000
 20
21.734438
 10
57.351562
 20
21.734438
 10
57.351562
 20
20.737562
 10
58.448437
 20
20.737562
 10
58.448437
 20
21.734438
  0
LWPOLYLINE
  8
0
 62
7
 90
5
 70
1
 10
57.900000
 20
23.434438
 10
57.351562
 20
23.434438
 10
57.351562
 20
22.437562
 10
58.448437
 20
22.437562
 10
58.448437
 20
23.434438
  0
LWPOLYLINE
  8
0
 62
7
 90
5
 70
1
 10
61.964000
 20
22.437562
 10
62.512437
 20
22.437562
 10
62.512437
 20
23.434438
 10
61.415563
 20
23.434438
 10
61.415563
 20
22.437562
  0
LWPOLYLINE
  8
0
 62
7
 90
5
 70
1
 10
61.964000
 20
20.737562
 10
62.512437
 20
20.737562
 10
62.512437
 20
21.734438
 10
61.415563
 20
21.734438
 10
61.415563
 20
20.737562
  0
LWPOLYLINE
  8
0
 62
7
 90
5
 70
1
 10
59.932000
 20
22.437562
 10
60.480438
 20
22.437562
 10
60.480438
 20
23.434438
 10
59.383563
 20
23.434438
 10
59.383563
 20
22.437562
  0
LWPOLYLINE
  8
0
 62
7
 90
5
 70
1
 10
59.932000
 20
20.737562
 10
60.480438
 20
20.737562
 10
60.480438
 20
21.734438
 10
59.383563
 20
21.734438
 10
59.383563
 20
20.737562
  0
LWPOLYLINE
  8
0
 62
7
 90
5
 70
1
 10
39.895437
 20
26.658000
 10
39.895437
 20
27.206437
 10
38.898562
 20
27.206437
 10
38.898562
 20
26.109563
 10
39.895437
 20
26.109563
  0
LWPOLYLINE
  8
0
 62
7
 90
5
 70
1
 10
41.595438
 20
26.658000
 10
41.595438
 20
27.206437
 10
40.598562
 20
27.206437
 10
40.598562
 20
26.109563
 10
41.595438
 20
26.109563
  0
LWPOLYLINE
  8
0
 62
7
 90
5
 70
1
 10
44.027563
 20
26.023000
 10
44.027563
 20
25.474563
 10
45.024438
 20
25.474563
 10
45.024438
 20
26.571437
 10
44.027563
 20
26.571437
  0
LWPOLYLINE
  8
0
 62
7
 90
5
 70
1
 10
42.327562
 20
26.023000
 10
42.327562
 20
25.474563
 10
43.324438
 20
25.474563
 10
43.324438
 20
26.571437
 10
42.327562
 20
26.571437
  0
LWPOLYLINE
  8
0
 62
7
 90
5
 70
1
 10
43.578437
 20
19.546000
 10
43.578437
 20
20.094437
 10
42.581562
 20
20.094437
 10
42.581562
 20
18.997563
 10
43.578437
 20
18.997563
  0
LWPOLYLINE
  8
0
 62
7
 90
5
 70
1
 10
45.278438
 20
19.546000
 10
45.278438
 20
20.094437
 10
44.281562
 20
20.094437
 10
44.281562
 20
18.997563
 10
45.278438
 20
18.997563
  0
LWPOLYLINE
  8
0
 62
7
 90
5
 70
1
 10
43.295000
 20
16.654438
 10
42.746563
 20
16.654438
 10
42.746563
 20
15.657562
 10
43.843438
 20
15.657562
 10
43.843438
 20
16.654438
  0
LWPOLYLINE
  8
0
 62
7
 90
5
 70
1
 10
43.295000
 20
18.354438
 10
42.746563
 20
18.354438
 10
42.746563
 20
17.357563
 10
43.843438
 20
17.357563
 10
43.843438
 20
18.354438
  0
LWPOLYLINE
  8
0
 62
7
 90
5
 70
1
 10
29.325000
 20
12.150562
 10
29.873437
 20
12.150562
 10
29.873437
 20
13.147437
 10
28.776563
 20
13.147437
 10
28.776563
 20
12.150562
  0
LWPOLYLINE
  8
0
 62
7
 90
5
 70
1
 10
29.325000
 20
10.450563
 10
29.873437
 20
10.450563
 10
29.873437
 20
11.447437
 10
28.776563
 20
11.447437
 10
28.776563
 20
10.450563
  0
LWPOLYLINE
  8
0
 62
7
 90
5
 70
1
 10
55.135438
 20
26.658000
 10
55.135438
 20
27.206437
 10
54.138562
 20
27.206437
 10
54.138562
 20
26.109563
 10
55.135438
 20
26.109563
  0
LWPOLYLINE
  8
0
 62
7
 90
5
 70
1
 10
56.835438
 20
26.658000
 10
56.835438
 20
27.206437
 10
55.838563
 20
27.206437
 10
55.838563
 20
26.109563
 10
56.835438
 20
26.109563
  0
LWPOLYLINE
  8
0
 62
7
 90
5
 70
1
 10
59.267562
 20
26.023000
 10
59.267562
 20
25.474563
 10
60.264437
 20
25.474563
 10
60.264437
 20
26.571437
 10
59.267562
 20
26.571437
  0
LWPOLYLINE
  8
0
 62
7
 90
5
 70
1
 10
57.567563
 20
26.023000
 10
57.567563
 20
25.474563
 10
58.564438
 20
25.474563
 10
58.564438
 20
26.571437
 10
57.567563
 20
26.571437
  0
LWPOLYLINE
  8
0
 62
7
 90
5
 70
1
 10
51.198438
 20
19.546000
 10
51.198438
 20
20.094437
 10
50.201563
 20
20.094437
 10
50.201563
 20
18.997563
 10
51.198438
 20
18.997563
  0
LWPOLYLINE
  8
0
 62
7
 90
5
 70
1
 10
52.898438
 20
19.546000
 10
52.898438
 20
20.094437
 10
51.901562
 20
20.094437
 10
51.901562
 20
18.997563
 10
52.898438
 20
18.997563
  0
LWPOLYLINE
  8
0
 62
7
 90
5
 70
1
 10
50.915000
 20
16.654438
 10
50.366563
 20
16.654438
 10
50.366563
 20
15.657562
 10
51.463437
 20
15.657562
 10
51.463437
 20
16.654438
  0
LWPOLYLINE
  8
0
 62
7
 90
5
 70
1
 10
50.915000
 20
18.354438
 10
50.366563
 20
18.354438
 10
50.366563
 20
17.357563
 10
51.463437
 20
17.357563
 10
51.463437
 20
18.354438
  0
LWPOLYLINE
  8
0
 62
7
 90
5
 70
1
 10
27.293000
 20
11.447437
 10
26.744563
 20
11.447437
 10
26.744563
 20
10.450563
 10
27.841437
 20
10.450563
 10
27.841437
 20
11.447437
  0
LWPOLYLINE
  8
0
 62
7
 90
5
 70
1
 10
27.293000
 20
13.147437
 10
26.744563
 20
13.147437
 10
26.744563
 20
12.150562
 10
27.841437
 20
12.150562
 10
27.841437
 20
13.147437
  0
LWPOLYLINE
  8
0
 62
7
 90
5
 70
1
 10
24.435500
 20
12.150562
 10
24.983937
 20
12.150562
 10
24.983937
 20
13.147437
 10
23.887063
 20
13.147437
 10
23.887063
 20
12.150562
  0
LWPOLYLINE
  8
0
 62
7
 90
5
 70
1
 10
24.435500
 20
10.450563
 10
24.983937
 20
10.450563
 10
24.983937
 20
11.447437
 10
23.887063
 20
11.447437
 10
23.887063
 20
10.450563
  0
LWPOLYLINE
  8
0
 62
7
 90
5
 70
1
 10
22.403500
 20
11.447437
 10
21.855063
 20
11.447437
 10
21.855063
 20
10.450563
 10
22.951937
 20
10.450563
 10
22.951937
 20
11.447437
  0
LWPOLYLINE
  8
0
 62
7
 90
5
 70
1
 10
22.403500
 20
13.147437
 10
21.855063
 20
13.147437
 10
21.855063
 20
12.150562
 10
22.951937
 20
12.150562
 10
22.951937
 20
13.147437
  0
LWPOLYLINE
  8
0
 62
7
 90
5
 70
1
 10
83.651563
 20
40.882000
 10
83.651563
 20
40.333562
 10
84.648438
 20
40.333562
 10
84.648438
 20
41.430437
 10
83.651563
 20
41.430437
  0
LWPOLYLINE
  8
0
 62
7
 90
5
 70
1
 10
81.951563
 20
40.882000
 10
81.951563
 20
40.333562
 10
82.948437
 20
40.333562
 10
82.948437
 20
41.430437
 10
81.951563
 20
41.430437
  0
LWPOLYLINE
  8
0
 62
7
 90
5
 70
1
 10
84.253437
 20
7.872000
 10
84.253437
 20
8.195438
 10
83.756563
 20
8.195438
 10
83.756563
 20
7.548563
 10
84.253437
 20
7.548563
  0
LWPOLYLINE
  8
0
 62
7
 90
5
 70
1
 10
85.053438
 20
7.872000
 10
85.053438
 20
8.195438
 10
84.556563
 20
8.195438
 10
84.556563
 20
7.548563
 10
85.053438
 20
7.548563
  0
LWPOLYLINE
  8
0
 62
7
 90
5
 70
1
 10
85.853437
 20
7.872000
 10
85.853437
 20
8.195438
 10
85.356563
 20
8.195438
 10
85.356563
 20
7.548563
 10
85.853437
 20
7.548563
  0
LWPOLYLINE
  8
0
 62
7
 90
5
 70
1
 10
86.653437
 20
7.872000
 10
86.653437
 20
8.195438
 10
86.156563
 20
8.195438
 10
86.156563
 20
7.548563
 10
86.653437
 20
7.548563
  0
LWPOLYLINE
  8
0
 62
7
 90
5
 70
1
 10
86.653437
 20
9.122000
 10
86.653437
 20
9.445438
 10
86.156563
 20
9.445438
 10
86.156563
 20
8.798562
 10
86.653437
 20
8.798562
  0
LWPOLYLINE
  8
0
 62
7
 90
5
 70
1
 10
85.853437
 20
9.122000
 10
85.853437
 20
9.445438
 10
85.356563
 20
9.445438
 10
85.356563
 20
8.798562
 10
85.853437
 20
8.798562
  0
LWPOLYLINE
  8
0
 62
7
 90
5
 70
1
 10
85.053438
 20
9.122000
 10
85.053438
 20
9.445438
 10
84.556563
 20
9.445438
 10
84.556563
 20
8.798562
 10
85.053438
 20
8.798562
  0
LWPOLYLINE
  8
0
 62
7
 90
5
 70
1
 10
84.253437
 20
9.122000
 10
84.253437
 20
9.445438
 10
83.756563
 20
9.445438
 10
83.756563
 20
8.798562
 10
84.253437
 20
8.798562
  0
LWPOLYLINE
  8
0
 62
7
 90
5
 70
1
 10
74.027437
 20
6.973000
 10
74.027437
 20
7.733437
 10
73.268563
 20
7.733437
 10
73.268563
 20
6.212562
 10
74.027437
 20
6.212562
  0
LWPOLYLINE
  8
0
 62
7
 90
5
 70
1
 10
74.027437
 20
1.893000
 10
74.027437
 20
2.653437
 10
73.268563
 20
2.653437
 10
73.268563
 20
1.132563
 10
74.027437
 20
1.132563
  0
LWPOLYLINE
  8
0
 62
7
 90
5
 70
1
 10
70.217437
 20
6.973000
 10
70.217437
 20
7.733437
 10
69.458562
 20
7.733437
 10
69.458562
 20
6.212562
 10
70.217437
 20
6.212562
  0
LWPOLYLINE
  8
0
 62
7
 90
5
 70
1
 10
70.217437
 20
1.893000
 10
70.217437
 20
2.653437
 10
69.458562
 20
2.653437
 10
69.458562
 20
1.132563
 10
70.217437
 20
1.132563
  0
LWPOLYLINE
  8
0
 62
7
 90
5
 70
1
 10
85.203437
 20
33.770000
 10
85.203437
 20
34.530438
 10
84.444563
 20
34.530438
 10
84.444563
 20
33.009563
 10
85.203437
 20
33.009563
  0
LWPOLYLINE
  8
0
 62
7
 90
5
 70
1
 10
85.203437
 20
28.690000
 10
85.203437
 20
29.450437
 10
84.444563
 20
29.450437
 10
84.444563
 20
27.929563
 10
85.203437
 20
27.929563
  0
LWPOLYLINE
  8
0
 62
7
 90
5
 70
1
 10
81.393437
 20
33.770000
 10
81.393437
 20
34.530438
 10
80.634563
 20
34.530438
 10
80.634563
 20
33.009563
 10
81.393437
 20
33.009563
  0
LWPOLYLINE
  8
0
 62
7
 90
5
 70
1
 10
81.393437
 20
28.690000
 10
81.393437
 20
29.450437
 10
80.634563
 20
29.450437
 10
80.634563
 20
27.929563
 10
81.393437
 20
27.929563
  0
LWPOLYLINE
  8
0
 62
7
 90
5
 70
1
 10
23.934562
 20
9.597000
 10
23.934562
 20
8.898562
 10
24.931438
 20
8.898562
 10
24.931438
 20
10.295438
 10
23.934562
 20
10.295438
  0
LWPOLYLINE
  8
0
 62
7
 90
5
 70
1
 10
22.984562
 20
7.397000
 10
22.984562
 20
6.698563
 10
23.981438
 20
6.698563
 10
23.981438
 20
8.095438
 10
22.984562
 20
8.095438
  0
LWPOLYLINE
  8
0
 62
7
 90
5
 70
1
 10
22.034562
 20
9.597000
 10
22.034562
 20
8.898562
 10
23.031438
 20
8.898562
 10
23.031438
 20
10.295438
 10
22.034562
 20
10.295438
  0
LWPOLYLINE
  8
0
 62
7
 90
5
 70
1
 10
28.760562
 20
9.597000
 10
28.760562
 20
8.898562
 10
29.757438
 20
8.898562
 10
29.757438
 20
10.295438
 10
28.760562
 20
10.295438
  0
LWPOLYLINE
  8
0
 62
7
 90
5
 70
1
 10
27.810562
 20
7.397000
 10
27.810562
 20
6.698563
 10
28.807438
 20
6.698563
 10
28.807438
 20
8.095438
 10
27.810562
 20
8.095438
  0
LWPOLYLINE
  8
0
 62
7
 90
5
 70
1
 10
26.860563
 20
9.597000
 10
26.860563
 20
8.898562
 10
27.857438
 20
8.898562
 10
27.857438
 20
10.295438
 10
26.860563
 20
10.295438
  0
LWPOLYLINE
  8
0
 62
7
 90
5
 70
1
 10
11.468800
 20
15.686763
 10
12.572138
 20
15.686763
 10
12.572138
 20
16.293238
 10
10.365462
 20
16.293238
 10
10.365462
 20
15.686763
  0
LWPOLYLINE
  8
0
 62
7
 90
5
 70
1
 10
11.468800
 20
14.416763
 10
12.572138
 20
14.416763
 10
12.572138
 20
15.023238
 10
10.365462
 20
15.023238
 10
10.365462
 20
14.416763
  0
LWPOLYLINE
  8
0
 62
7
 90
5
 70
1
 10
11.468800
 20
13.146762
 10
12.572138
 20
13.146762
 10
12.572138
 20
13.753237
 10
10.365462
 20
13.753237
 10
10.365462
 20
13.146762
  0
LWPOLYLINE
  8
0
 62
7
 90
5
 70
1
 10
11.468800
 20
11.876762
 10
12.572138
 20
11.876762
 10
12.572138
 20
12.483237
 10
10.365462
 20
12.483237
 10
10.365462
 20
11.876762
  0
LWPOLYLINE
  8
0
 62
7
 90
5
 70
1
 10
16.701200
 20
11.876762
 10
17.804537
 20
11.876762
 10
17.804537
 20
12.483237
 10
15.597862
 20
12.483237
 10
15.597862
 20
11.876762
  0
LWPOLYLINE
  8
0
 62
7
 90
5
 70
1
 10
16.701200
 20
13.146762
 10
17.804537
 20
13.146762
 10
17.804537
 20
13.753237
 10
15.597862
 20
13.753237
 10
15.597862
 20
13.146762
  0
LWPOLYLINE
  8
0
 62
7
 90
5
 70
1
 10
16.701200
 20
14.416763
 10
17.804537
 20
14.416763
 10
17.804537
 20
15.023238
 10
15.597862
 20
15.023238
 10
15.597862
 20
14.416763
  0
LWPOLYLINE
  8
0
 62
7
 90
5
 70
1
 10
16.701200
 20
15.686763
 10
17.804537
 20
15.686763
 10
17.804537
 20
16.293238
 10
15.597862
 20
16.293238
 10
15.597862
 20
15.686763
  0
LWPOLYLINE
  8
0
 62
7
 90
5
 70
1
 10
44.314563
 20
16.980000
 10
44.314563
 20
16.181563
 10
45.311438
 20
16.181563
 10
45.311438
 20
17.778437
 10
44.314563
 20
17.778437
  0
LWPOLYLINE
  8
0
 62
7
 90
5
 70
1
 10
39.754562
 20
16.980000
 10
39.754562
 20
16.181563
 10
40.751438
 20
16.181563
 10
40.751438
 20
17.778437
 10
39.754562
 20
17.778437
  0
LWPOLYLINE
  8
0
 62
7
 90
5
 70
1
 10
39.834563
 20
9.680000
 10
39.834563
 20
6.581562
 10
45.231437
 20
6.581562
 10
45.231437
 20
12.778437
 10
39.834563
 20
12.778437
  0
LWPOLYLINE
  8
0
 62
7
 90
5
 70
1
 10
51.934562
 20
16.980000
 10
51.934562
 20
16.181563
 10
52.931438
 20
16.181563
 10
52.931438
 20
17.778437
 10
51.934562
 20
17.778437
  0
LWPOLYLINE
  8
0
 62
7
 90
5
 70
1
 10
47.374562
 20
16.980000
 10
47.374562
 20
16.181563
 10
48.371437
 20
16.181563
 10
48.371437
 20
17.778437
 10
47.374562
 20
17.778437
  0
LWPOLYLINE
  8
0
 62
7
 90
5
 70
1
 10
47.454563
 20
9.680000
 10
47.454563
 20
6.581562
 10
52.851437
 20
6.581562
 10
52.851437
 20
12.778437
 10
47.454563
 20
12.778437
  0
LWPOLYLINE
  8
0
 62
7
 90
5
 70
1
 10
28.004200
 20
20.106363
 10
29.120238
 20
20.106363
 10
29.120238
 20
21.322437
 10
26.888162
 20
21.322437
 10
26.888162
 20
20.106363
  0
LWPOLYLINE
  8
0
 62
7
 90
5
 70
1
 10
28.004200
 20
17.794962
 10
29.120238
 20
17.794962
 10
29.120238
 20
19.011038
 10
26.888162
 20
19.011038
 10
26.888162
 20
17.794962
  0
LWPOLYLINE
  8
0
 62
7
 90
5
 70
1
 10
28.004200
 20
15.483562
 10
29.120238
 20
15.483562
 10
29.120238
 20
16.699638
 10
26.888162
 20
16.699638
 10
26.888162
 20
15.483562
  0
LWPOLYLINE
  8
0
 62
7
 90
5
 70
1
 10
34.202000
 20
16.604563
 10
35.300438
 20
16.604563
 10
35.300438
 20
20.201437
 10
33.103562
 20
20.201437
 10
33.103562
 20
16.604563
  0
LWPOLYLINE
  8
0
 62
7
 90
5
 70
1
 10
59.233500
 20
15.556638
 10
58.663562
 20
15.556638
 10
58.663562
 20
14.645363
 10
59.803438
 20
14.645363
 10
59.803438
 20
15.556638
  0
LWPOLYLINE
  8
0
 62
7
 90
5
 70
1
 10
59.233500
 20
16.826638
 10
58.663562
 20
16.826638
 10
58.663562
 20
15.915362
 10
59.803438
 20
15.915362
 10
59.803438
 20
16.826638
  0
LWPOLYLINE
  8
0
 62
7
 90
5
 70
1
 10
59.233500
 20
18.096637
 10
58.663562
 20
18.096637
 10
58.663562
 20
17.185362
 10
59.803438
 20
17.185362
 10
59.803438
 20
18.096637
  0
LWPOLYLINE
  8
0
 62
7
 90
5
 70
1
 10
59.233500
 20
19.366638
 10
58.663562
 20
19.366638
 10
58.663562
 20
18.455362
 10
59.803438
 20
18.455362
 10
59.803438
 20
19.366638
  0
LWPOLYLINE
  8
0
 62
7
 90
5
 70
1
 10
53.772500
 20
19.366638
 10
53.202562
 20
19.366638
 10
53.202562
 20
18.455362
 10
54.342438
 20
18.455362
 10
54.342438
 20
19.366638
  0
LWPOLYLINE
  8
0
 62
7
 90
5
 70
1
 10
53.772500
 20
18.096637
 10
53.202562
 20
18.096637
 10
53.202562
 20
17.185362
 10
54.342438
 20
17.185362
 10
54.342438
 20
18.096637
  0
LWPOLYLINE
  8
0
 62
7
 90
5
 70
1
 10
53.772500
 20
16.826638
 10
53.202562
 20
16.826638
 10
53.202562
 20
15.915362
 10
54.342438
 20
15.915362
 10
54.342438
 20
16.826638
  0
LWPOLYLINE
  8
0
 62
7
 90
5
 70
1
 10
53.772500
 20
15.556638
 10
53.202562
 20
15.556638
 10
53.202562
 20
14.645363
 10
54.342438
 20
14.645363
 10
54.342438
 20
15.556638
  0
LWPOLYLINE
  8
0
 62
7
 90
5
 70
1
 10
90.938000
 20
32.623438
 10
90.189563
 20
32.623438
 10
90.189563
 20
31.876562
 10
91.686437
 20
31.876562
 10
91.686437
 20
32.623438
  0
LWPOLYLINE
  8
0
 62
7
 90
5
 70
1
 10
90.938000
 20
31.523438
 10
90.189563
 20
31.523438
 10
90.189563
 20
30.776562
 10
91.686437
 20
30.776562
 10
91.686437
 20
31.523438
  0
LWPOLYLINE
  8
0
 62
7
 90
5
 70
1
 10
90.938000
 20
30.423438
 10
90.189563
 20
30.423438
 10
90.189563
 20
29.676562
 10
91.686437
 20
29.676562
 10
91.686437
 20
30.423438
  0
LWPOLYLINE
  8
0
 62
7
 90
5
 70
1
 10
90.938000
 20
29.323438
 10
90.189563
 20
29.323438
 10
90.189563
 20
28.576562
 10
91.686437
 20
28.576562
 10
91.686437
 20
29.323438
  0
LWPOLYLINE
  8
0
 62
7
 90
5
 70
1
 10
90.938000
 20
28.223438
 10
90.189563
 20
28.223438
 10
90.189563
 20
27.476562
 10
91.686437
 20
27.476562
 10
91.686437
 20
28.223438
  0
LWPOLYLINE
  8
0
 62
7
 90
5
 70
1
 10
90.938000
 20
27.123438
 10
90.189563
 20
27.123438
 10
90.189563
 20
26.376562
 10
91.686437
 20
26.376562
 10
91.686437
 20
27.123438
  0
LWPOLYLINE
  8
0
 62
7
 90
5
 70
1
 10
90.938000
 20
26.023438
 10
90.189563
 20
26.023438
 10
90.189563
 20
25.276562
 10
91.686437
 20
25.276562
 10
91.686437
 20
26.023438
  0
LWPOLYLINE
  8
0
 62
7
 90
5
 70
1
 10
90.938000
 20
24.923438
 10
90.189563
 20
24.923438
 10
90.189563
 20
24.176562
 10
91.686437
 20
24.176562
 10
91.686437
 20
24.923438
  0
LWPOLYLINE
  8
0
 62
7
 90
5
 70
1
 10
90.938000
 20
35.023438
 10
90.189563
 20
35.023438
 10
90.189563
 20
34.276562
 10
91.686437
 20
34.276562
 10
91.686437
 20
35.023438
  0
LWPOLYLINE
  8
0
 62
7
 90
5
 70
1
 10
90.938000
 20
33.923437
 10
90.189563
 20
33.923437
 10
90.189563
 20
33.176562
 10
91.686437
 20
33.176562
 10
91.686437
 20
33.923437
  0
LWPOLYLINE
  8
0
 62
7
 90
5
 70
1
 10
99.713000
 20
25.473437
 10
99.214562
 20
25.473437
 10
99.214562
 20
24.076562
 10
100.211437
 20
24.076562
 10
100.211437
 20
25.473437
  0
LWPOLYLINE
  8
0
 62
7
 90
5
 70
1
 10
99.214562
 20
34.100000
 10
99.214562
 20
33.451563
 10
100.211437
 20
33.451563
 10
100.211437
 20
34.748438
 10
99.214562
 20
34.748438
  0
LWPOLYLINE
  8
0
 62
7
 90
5
 70
1
 10
99.613000
 20
22.998438
 10
98.939562
 20
22.998438
 10
98.939562
 20
21.501562
 10
100.286438
 20
21.501562
 10
100.286438
 20
22.998438
  0
LWPOLYLINE
  8
0
 62
7
 90
5
 70
1
 10
99.563000
 20
37.148438
 10
98.889562
 20
37.148438
 10
98.889562
 20
35.651562
 10
100.236438
 20
35.651562
 10
100.236438
 20
37.148438
  0
ENDSEC
  0
EOF
