  0
SECTION
  2
HEADER
  9
$ACADVER
  1
AC1009
  9
$MEASUREMENT
 70
     1
  0
ENDSEC
  0
SECTION
  2
ENTITIES
  0
LWPOLYLINE
  8
0
 62
7
 90
5
 70
1
 10
10.476638
 20
33.008000
 10
10.476638
 20
33.806538
 10
9.311362
 20
33.806538
 10
9.311362
 20
32.209463
 10
10.476638
 20
32.209463
  0
LWPOLYLINE
  8
0
 62
7
 90
5
 70
1
 10
12.000637
 20
33.008000
 10
12.000637
 20
33.806538
 10
10.835362
 20
33.806538
 10
10.835362
 20
32.209463
 10
12.000637
 20
32.209463
  0
LWPOLYLINE
  8
0
 62
7
 90
5
 70
1
 10
10.476638
 20
35.294000
 10
10.476638
 20
36.092537
 10
9.311362
 20
36.092537
 10
9.311362
 20
34.495462
 10
10.476638
 20
34.495462
  0
LWPOLYLINE
  8
0
 62
7
 90
5
 70
1
 10
12.000637
 20
35.294000
 10
12.000637
 20
36.092537
 10
10.835362
 20
36.092537
 10
10.835362
 20
34.495462
 10
12.000637
 20
34.495462
  0
LWPOLYLINE
  8
0
 62
7
 90
5
 70
1
 10
10.476638
 20
37.580000
 10
10.476638
 20
38.378538
 10
9.311362
 20
38.378538
 10
9.311362
 20
36.781462
 10
10.476638
 20
36.781462
  0
LWPOLYLINE
  8
0
 62
7
 90
5
 70
1
 10
12.000637
 20
37.580000
 10
12.000637
 20
38.378538
 10
10.835362
 20
38.378538
 10
10.835362
 20
36.781462
 10
12.000637
 20
36.781462
  0
LWPOLYLINE
  8
0
 62
7
 90
5
 70
1
 10
28.256638
 20
28.436000
 10
28.256638
 20
29.234537
 10
27.091362
 20
29.234537
 10
27.091362
 20
27.637463
 10
28.256638
 20
27.637463
  0
LWPOLYLINE
  8
0
 62
7
 90
5
 70
1
 10
29.780638
 20
28.436000
 10
29.780638
 20
29.234537
 10
28.615362
 20
29.234537
 10
28.615362
 20
27.637463
 10
29.780638
 20
27.637463
  0
LWPOLYLINE
  8
0
 62
7
 90
5
 70
1
 10
28.256638
 20
30.976000
 10
28.256638
 20
31.774537
 10
27.091362
 20
31.774537
 10
27.091362
 20
30.177463
 10
28.256638
 20
30.177463
  0
LWPOLYLINE
  8
0
 62
7
 90
5
 70
1
 10
29.780638
 20
30.976000
 10
29.780638
 20
31.774537
 10
28.615362
 20
31.774537
 10
28.615362
 20
30.177463
 10
29.780638
 20
30.177463
  0
LWPOLYLINE
  8
0
 62
7
 90
5
 70
1
 10
28.256638
 20
33.516000
 10
28.256638
 20
34.314538
 10
27.091362
 20
34.314538
 10
27.091362
 20
32.717462
 10
28.256638
 20
32.717462
  0
LWPOLYLINE
  8
0
 62
7
 90
5
 70
1
 10
29.780638
 20
33.516000
 10
29.780638
 20
34.314538
 10
28.615362
 20
34.314538
 10
28.615362
 20
32.717462
 10
29.780638
 20
32.717462
  0
LWPOLYLINE
  8
0
 62
7
 90
5
 70
1
 10
43.496637
 20
28.436000
 10
43.496637
 20
29.234537
 10
42.331363
 20
29.234537
 10
42.331363
 20
27.637463
 10
43.496637
 20
27.637463
  0
LWPOLYLINE
  8
0
 62
7
 90
5
 70
1
 10
45.020637
 20
28.436000
 10
45.020637
 20
29.234537
 10
43.855363
 20
29.234537
 10
43.855363
 20
27.637463
 10
45.020637
 20
27.637463
  0
LWPOLYLINE
  8
0
 62
7
 90
5
 70
1
 10
43.496637
 20
30.976000
 10
43.496637
 20
31.774537
 10
42.331363
 20
31.774537
 10
42.331363
 20
30.177463
 10
43.496637
 20
30.177463
  0
LWPOLYLINE
  8
0
 62
7
 90
5
 70
1
 10
45.020637
 20
30.976000
 10
45.020637
 20
31.774537
 10
43.855363
 20
31.774537
 10
43.855363
 20
30.177463
 10
45.020637
 20
30.177463
  0
LWPOLYLINE
  8
0
 62
7
 90
5
 70
1
 10
43.496637
 20
33.516000
 10
43.496637
 20
34.314538
 10
42.331363
 20
34.314538
 10
42.331363
 20
32.717462
 10
43.496637
 20
32.717462
  0
LWPOLYLINE
  8
0
 62
7
 90
5
 70
1
 10
45.020637
 20
33.516000
 10
45.020637
 20
34.314538
 10
43.855363
 20
34.314538
 10
43.855363
 20
32.717462
 10
45.020637
 20
32.717462
  0
LWPOLYLINE
  8
0
 62
7
 90
5
 70
1
 10
58.736638
 20
28.436000
 10
58.736638
 20
29.234537
 10
57.571363
 20
29.234537
 10
57.571363
 20
27.637463
 10
58.736638
 20
27.637463
  0
LWPOLYLINE
  8
0
 62
7
 90
5
 70
1
 10
60.260637
 20
28.436000
 10
60.260637
 20
29.234537
 10
59.095363
 20
29.234537
 10
59.095363
 20
27.637463
 10
60.260637
 20
27.637463
  0
LWPOLYLINE
  8
0
 62
7
 90
5
 70
1
 10
58.736638
 20
30.976000
 10
58.736638
 20
31.774537
 10
57.571363
 20
31.774537
 10
57.571363
 20
30.177463
 10
58.736638
 20
30.177463
  0
LWPOLYLINE
  8
0
 62
7
 90
5
 70
1
 10
60.260637
 20
30.976000
 10
60.260637
 20
31.774537
 10
59.095363
 20
31.774537
 10
59.095363
 20
30.177463
 10
60.260637
 20
30.177463
  0
LWPOLYLINE
  8
0
 62
7
 90
5
 70
1
 10
58.736638
 20
33.516000
 10
58.736638
 20
34.314538
 10
57.571363
 20
34.314538
 10
57.571363
 20
32.717462
 10
58.736638
 20
32.717462
  0
LWPOLYLINE
  8
0
 62
7
 90
5
 70
1
 10
60.260637
 20
33.516000
 10
60.260637
 20
34.314538
 10
59.095363
 20
34.314538
 10
59.095363
 20
32.717462
 10
60.260637
 20
32.717462
  0
ENDSEC
  0
EOF
