G75*
G70*
%OFA0B0*%
%FSLAX24Y24*%
%IPPOS*%
%LPD*%
%AMOC8*
5,1,8,0,0,1.08239X$1,22.5*
%
%ADD10C,0.0100*%
%ADD11R,0.0106X0.0591*%
%ADD12R,0.0591X0.0106*%
%ADD13R,0.0551X0.0472*%
%ADD14R,0.0433X0.0394*%
%ADD15R,0.0394X0.0433*%
%ADD16R,0.0300X0.0600*%
%ADD17R,0.0197X0.0197*%
%ADD18R,0.0327X0.0248*%
%ADD19R,0.0472X0.0472*%
%ADD20R,0.1000X0.1000*%
%ADD21R,0.0315X0.0315*%
%ADD22R,0.0531X0.0591*%
%ADD23R,0.0394X0.0551*%
%ADD24R,0.0394X0.0512*%
%ADD25R,0.0591X0.0295*%
%ADD26C,0.0000*%
%ADD27R,0.1378X0.0630*%
%ADD28R,0.2126X0.2441*%
%ADD29R,0.0394X0.0630*%
%ADD30R,0.0880X0.0480*%
%ADD31R,0.0866X0.1417*%
%ADD32R,0.0197X0.0256*%
%ADD33R,0.2756X0.1122*%
%ADD34R,0.0870X0.0240*%
%ADD35R,0.0827X0.0500*%
%ADD36R,0.0450X0.0360*%
D10*
X002785Y001429D02*
X002785Y019835D01*
X002787Y019889D01*
X002792Y019942D01*
X002801Y019995D01*
X002814Y020047D01*
X002830Y020099D01*
X002850Y020149D01*
X002873Y020197D01*
X002900Y020244D01*
X002929Y020289D01*
X002962Y020332D01*
X002997Y020372D01*
X003035Y020410D01*
X003075Y020445D01*
X003118Y020478D01*
X003163Y020507D01*
X003210Y020534D01*
X003258Y020557D01*
X003308Y020577D01*
X003360Y020593D01*
X003412Y020606D01*
X003465Y020615D01*
X003518Y020620D01*
X003572Y020622D01*
X041663Y020622D01*
X041717Y020620D01*
X041770Y020615D01*
X041823Y020606D01*
X041875Y020593D01*
X041927Y020577D01*
X041977Y020557D01*
X042025Y020534D01*
X042072Y020507D01*
X042117Y020478D01*
X042160Y020445D01*
X042200Y020410D01*
X042238Y020372D01*
X042273Y020332D01*
X042306Y020289D01*
X042335Y020244D01*
X042362Y020197D01*
X042385Y020149D01*
X042405Y020099D01*
X042421Y020047D01*
X042434Y019995D01*
X042443Y019942D01*
X042448Y019889D01*
X042450Y019835D01*
X042450Y001429D01*
X042448Y001375D01*
X042443Y001322D01*
X042434Y001269D01*
X042421Y001217D01*
X042405Y001165D01*
X042385Y001115D01*
X042362Y001067D01*
X042335Y001020D01*
X042306Y000975D01*
X042273Y000932D01*
X042238Y000892D01*
X042200Y000854D01*
X042160Y000819D01*
X042117Y000786D01*
X042072Y000757D01*
X042025Y000730D01*
X041977Y000707D01*
X041927Y000687D01*
X041875Y000671D01*
X041823Y000658D01*
X041770Y000649D01*
X041717Y000644D01*
X041663Y000642D01*
X003572Y000642D01*
X003518Y000644D01*
X003465Y000649D01*
X003412Y000658D01*
X003360Y000671D01*
X003308Y000687D01*
X003258Y000707D01*
X003210Y000730D01*
X003163Y000757D01*
X003118Y000786D01*
X003075Y000819D01*
X003035Y000854D01*
X002997Y000892D01*
X002962Y000932D01*
X002929Y000975D01*
X002900Y001020D01*
X002873Y001067D01*
X002850Y001115D01*
X002830Y001165D01*
X002814Y001217D01*
X002801Y001269D01*
X002792Y001322D01*
X002787Y001375D01*
X002785Y001429D01*
D11*
X029068Y004936D03*
X029265Y004936D03*
X029461Y004936D03*
X029658Y004936D03*
X029855Y004936D03*
X030052Y004936D03*
X030249Y004936D03*
X030446Y004936D03*
X030643Y004936D03*
X030839Y004936D03*
X031036Y004936D03*
X031233Y004936D03*
X031430Y004936D03*
X031627Y004936D03*
X031824Y004936D03*
X032021Y004936D03*
X032217Y004936D03*
X032414Y004936D03*
X032611Y004936D03*
X032808Y004936D03*
X033005Y004936D03*
X033202Y004936D03*
X033399Y004936D03*
X033595Y004936D03*
X033792Y004936D03*
X033792Y011038D03*
X033595Y011038D03*
X033399Y011038D03*
X033202Y011038D03*
X033005Y011038D03*
X032808Y011038D03*
X032611Y011038D03*
X032414Y011038D03*
X032217Y011038D03*
X032021Y011038D03*
X031824Y011038D03*
X031627Y011038D03*
X031430Y011038D03*
X031233Y011038D03*
X031036Y011038D03*
X030839Y011038D03*
X030643Y011038D03*
X030446Y011038D03*
X030249Y011038D03*
X030052Y011038D03*
X029855Y011038D03*
X029658Y011038D03*
X029461Y011038D03*
X029265Y011038D03*
X029068Y011038D03*
D12*
X028379Y010350D03*
X028379Y010153D03*
X028379Y009956D03*
X028379Y009759D03*
X028379Y009562D03*
X028379Y009365D03*
X028379Y009168D03*
X028379Y008972D03*
X028379Y008775D03*
X028379Y008578D03*
X028379Y008381D03*
X028379Y008184D03*
X028379Y007987D03*
X028379Y007790D03*
X028379Y007594D03*
X028379Y007397D03*
X028379Y007200D03*
X028379Y007003D03*
X028379Y006806D03*
X028379Y006609D03*
X028379Y006412D03*
X028379Y006216D03*
X028379Y006019D03*
X028379Y005822D03*
X028379Y005625D03*
X034481Y005625D03*
X034481Y005822D03*
X034481Y006019D03*
X034481Y006216D03*
X034481Y006412D03*
X034481Y006609D03*
X034481Y006806D03*
X034481Y007003D03*
X034481Y007200D03*
X034481Y007397D03*
X034481Y007594D03*
X034481Y007790D03*
X034481Y007987D03*
X034481Y008184D03*
X034481Y008381D03*
X034481Y008578D03*
X034481Y008775D03*
X034481Y008972D03*
X034481Y009168D03*
X034481Y009365D03*
X034481Y009562D03*
X034481Y009759D03*
X034481Y009956D03*
X034481Y010153D03*
X034481Y010350D03*
D13*
X034113Y003652D03*
X033247Y003652D03*
X033247Y003022D03*
X034113Y003022D03*
D14*
X034065Y002287D03*
X033395Y002287D03*
X033395Y001487D03*
X034065Y001487D03*
X037545Y005487D03*
X038215Y005487D03*
X038215Y007887D03*
X037545Y007887D03*
X036315Y008587D03*
X035645Y008587D03*
X036895Y011937D03*
X037565Y011937D03*
X037565Y012737D03*
X036895Y012737D03*
X031230Y014803D03*
X031230Y015472D03*
X028230Y015472D03*
X028230Y014803D03*
X028230Y018053D03*
X028230Y018722D03*
X031230Y018722D03*
X031230Y018053D03*
X034230Y018053D03*
X034230Y018722D03*
X037180Y018722D03*
X037180Y018053D03*
X023615Y011137D03*
X022945Y011137D03*
X023180Y009672D03*
X023980Y009672D03*
X024780Y009672D03*
X025580Y009672D03*
X026380Y009672D03*
X027180Y009672D03*
X027180Y009003D03*
X026380Y009003D03*
X025580Y009003D03*
X024780Y009003D03*
X023980Y009003D03*
X023180Y009003D03*
X022830Y007672D03*
X022830Y007003D03*
X019830Y007003D03*
X019830Y007672D03*
X014330Y005622D03*
X013530Y005622D03*
X013530Y004953D03*
X014330Y004953D03*
X012405Y004953D03*
X011605Y004953D03*
X011605Y005622D03*
X012405Y005622D03*
X006215Y001387D03*
X005545Y001387D03*
X005615Y011137D03*
X004945Y011137D03*
X010945Y011137D03*
X011615Y011137D03*
X016945Y011137D03*
X017615Y011137D03*
X026745Y008307D03*
X027415Y008307D03*
X027265Y006167D03*
X026595Y006167D03*
D15*
X026745Y006887D03*
X027415Y006887D03*
X027415Y007607D03*
X026745Y007607D03*
X023415Y008337D03*
X022745Y008337D03*
X020415Y008337D03*
X019745Y008337D03*
X019645Y010887D03*
X020315Y010887D03*
X018965Y011137D03*
X018295Y011137D03*
X014315Y010887D03*
X013645Y010887D03*
X012965Y011137D03*
X012295Y011137D03*
X008315Y010887D03*
X007645Y010887D03*
X006965Y011137D03*
X006295Y011137D03*
X004980Y017403D03*
X004980Y018072D03*
X010980Y018072D03*
X010980Y017403D03*
X016980Y017403D03*
X016980Y018072D03*
X022980Y018072D03*
X022980Y017403D03*
X030180Y018053D03*
X030180Y018722D03*
X033180Y018722D03*
X033180Y018053D03*
X035245Y016737D03*
X035915Y016737D03*
X035915Y015937D03*
X035245Y015937D03*
X033180Y015472D03*
X033180Y014803D03*
X030180Y014803D03*
X030180Y015472D03*
X029655Y013072D03*
X029655Y012403D03*
X026315Y010887D03*
X025645Y010887D03*
X024965Y011137D03*
X024295Y011137D03*
X033005Y012403D03*
X033005Y013072D03*
X036895Y013537D03*
X037565Y013537D03*
X037565Y014337D03*
X036895Y014337D03*
X038845Y015587D03*
X039515Y015587D03*
X039645Y017387D03*
X040315Y017387D03*
X039180Y018053D03*
X039180Y018722D03*
X036180Y018722D03*
X036180Y018053D03*
X036365Y011137D03*
X036895Y011137D03*
X037565Y011137D03*
X035695Y011137D03*
X037545Y007087D03*
X038215Y007087D03*
X038215Y006287D03*
X037545Y006287D03*
X035480Y005622D03*
X035480Y004953D03*
X037545Y004687D03*
X038215Y004687D03*
X036680Y003272D03*
X035830Y003272D03*
X034880Y003003D03*
X035830Y002603D03*
X036680Y002603D03*
X035630Y002072D03*
X034830Y002072D03*
X034830Y001403D03*
X035630Y001403D03*
X032605Y001328D03*
X032605Y001997D03*
X032480Y002503D03*
X032480Y003172D03*
X034880Y003672D03*
X029565Y002837D03*
X028895Y002837D03*
D16*
X030280Y003387D03*
X031780Y003387D03*
X031780Y001387D03*
X030280Y001387D03*
X034680Y011937D03*
X036180Y011937D03*
X036180Y013937D03*
X034680Y013937D03*
D17*
X036008Y006061D03*
X036008Y005687D03*
X036008Y005313D03*
X036952Y005313D03*
X036952Y005687D03*
X036952Y006061D03*
D18*
X032180Y014685D03*
X032180Y015590D03*
X029180Y015590D03*
X029180Y014685D03*
X029180Y017935D03*
X029180Y018840D03*
X032180Y018840D03*
X032180Y017935D03*
X035180Y017935D03*
X035180Y018840D03*
X038180Y018840D03*
X038180Y017935D03*
D19*
X037293Y016737D03*
X036467Y016737D03*
X036467Y015937D03*
X037293Y015937D03*
D20*
X012755Y006537D03*
X010905Y006537D03*
X037905Y003387D03*
X039755Y003387D03*
D21*
X039475Y015087D03*
X038885Y015087D03*
D22*
X041983Y014973D03*
X042002Y009402D03*
D23*
X042042Y010396D03*
X014304Y004420D03*
X013556Y004420D03*
X012404Y004420D03*
X011656Y004420D03*
X012030Y003554D03*
X013930Y003554D03*
D24*
X042042Y014067D03*
D25*
X038587Y013851D03*
X038587Y014284D03*
X038587Y013339D03*
X038587Y012906D03*
X038587Y012473D03*
X038587Y012040D03*
X038587Y011607D03*
X038587Y011174D03*
X038587Y010740D03*
X038587Y010307D03*
D26*
X039739Y010219D02*
X039741Y010254D01*
X039747Y010289D01*
X039757Y010323D01*
X039770Y010356D01*
X039787Y010387D01*
X039808Y010415D01*
X039831Y010442D01*
X039858Y010465D01*
X039886Y010486D01*
X039917Y010503D01*
X039950Y010516D01*
X039984Y010526D01*
X040019Y010532D01*
X040054Y010534D01*
X040089Y010532D01*
X040124Y010526D01*
X040158Y010516D01*
X040191Y010503D01*
X040222Y010486D01*
X040250Y010465D01*
X040277Y010442D01*
X040300Y010415D01*
X040321Y010387D01*
X040338Y010356D01*
X040351Y010323D01*
X040361Y010289D01*
X040367Y010254D01*
X040369Y010219D01*
X040367Y010184D01*
X040361Y010149D01*
X040351Y010115D01*
X040338Y010082D01*
X040321Y010051D01*
X040300Y010023D01*
X040277Y009996D01*
X040250Y009973D01*
X040222Y009952D01*
X040191Y009935D01*
X040158Y009922D01*
X040124Y009912D01*
X040089Y009906D01*
X040054Y009904D01*
X040019Y009906D01*
X039984Y009912D01*
X039950Y009922D01*
X039917Y009935D01*
X039886Y009952D01*
X039858Y009973D01*
X039831Y009996D01*
X039808Y010023D01*
X039787Y010051D01*
X039770Y010082D01*
X039757Y010115D01*
X039747Y010149D01*
X039741Y010184D01*
X039739Y010219D01*
X039739Y014156D02*
X039741Y014191D01*
X039747Y014226D01*
X039757Y014260D01*
X039770Y014293D01*
X039787Y014324D01*
X039808Y014352D01*
X039831Y014379D01*
X039858Y014402D01*
X039886Y014423D01*
X039917Y014440D01*
X039950Y014453D01*
X039984Y014463D01*
X040019Y014469D01*
X040054Y014471D01*
X040089Y014469D01*
X040124Y014463D01*
X040158Y014453D01*
X040191Y014440D01*
X040222Y014423D01*
X040250Y014402D01*
X040277Y014379D01*
X040300Y014352D01*
X040321Y014324D01*
X040338Y014293D01*
X040351Y014260D01*
X040361Y014226D01*
X040367Y014191D01*
X040369Y014156D01*
X040367Y014121D01*
X040361Y014086D01*
X040351Y014052D01*
X040338Y014019D01*
X040321Y013988D01*
X040300Y013960D01*
X040277Y013933D01*
X040250Y013910D01*
X040222Y013889D01*
X040191Y013872D01*
X040158Y013859D01*
X040124Y013849D01*
X040089Y013843D01*
X040054Y013841D01*
X040019Y013843D01*
X039984Y013849D01*
X039950Y013859D01*
X039917Y013872D01*
X039886Y013889D01*
X039858Y013910D01*
X039831Y013933D01*
X039808Y013960D01*
X039787Y013988D01*
X039770Y014019D01*
X039757Y014052D01*
X039747Y014086D01*
X039741Y014121D01*
X039739Y014156D01*
D27*
X025943Y012987D03*
X023817Y012987D03*
X019943Y012987D03*
X017817Y012987D03*
X013943Y012987D03*
X011817Y012987D03*
X007943Y012987D03*
X005817Y012987D03*
D28*
X019530Y004453D03*
X022530Y004453D03*
D29*
X021632Y007327D03*
X020428Y007327D03*
X018632Y007327D03*
X023428Y007327D03*
D30*
X013810Y006977D03*
X013810Y007887D03*
X013810Y008797D03*
D31*
X016250Y007887D03*
D32*
X035858Y004233D03*
X036173Y004233D03*
X036487Y004233D03*
X036802Y004233D03*
X036802Y003741D03*
X036487Y003741D03*
X036173Y003741D03*
X035858Y003741D03*
D33*
X009330Y004537D03*
X009330Y002537D03*
D34*
X009360Y005437D03*
X009360Y005937D03*
X009360Y006437D03*
X009360Y006937D03*
X007300Y006937D03*
X007300Y006437D03*
X007300Y005937D03*
X007300Y005437D03*
D35*
X005830Y004808D03*
X005830Y006367D03*
D36*
X023955Y006587D03*
X023955Y007087D03*
X023955Y007587D03*
X023955Y008087D03*
X026105Y008087D03*
X026105Y007587D03*
X026105Y007087D03*
X026105Y006587D03*
M02*
