%
M48
M72
T01C0.0157
T02C0.0197
T03C0.0200
T04C0.0315
T05C0.0320
T06C0.0354
T07C0.0360
T08C0.0394
T09C0.0400
T10C0.0433
T11C0.0550
T12C0.0591
T13C0.0630
T14C0.0900
T15C0.1260
%
T01
X11660Y3997
X13560Y3997
X13930Y5387
X12010Y5387
X23620Y7927
X23880Y8587
X24930Y8287
X25280Y8487
X24780Y7887
X25680Y7537
X27740Y7667
X27730Y7237
X28980Y7187
X29580Y6687
X30330Y6537
X31580Y6687
X31930Y6837
X31680Y7087
X33580Y7887
X33880Y8137
X35030Y8337
X36315Y8227
X36730Y8487
X37080Y8637
X36330Y7837
X36330Y7037
X36830Y7037
X35505Y7062
X35580Y6137
X36330Y5787
X36580Y5437
X36330Y4987
X35830Y4987
X35530Y4477
X34430Y4337
X34080Y4187
X35530Y3937
X34620Y3277
X34630Y2537
X37330Y2337
X38830Y2687
X38830Y4437
X37130Y4987
X38630Y5487
X37930Y5887
X37230Y5887
X33230Y5637
X32880Y5737
X31530Y5887
X31280Y5637
X31830Y4187
X31580Y3937
X31330Y3687
X31830Y2187
X29230Y7937
X29230Y8287
X28980Y8687
X28980Y9287
X29420Y9777
X29580Y10087
X29480Y10437
X29880Y10487
X28680Y10937
X29230Y11587
X29030Y12237
X30030Y12837
X30430Y13337
X32630Y12837
X32630Y12437
X31880Y11987
X32180Y11737
X32510Y11907
X33580Y11787
X33930Y11787
X34280Y11787
X34130Y12287
X34380Y12537
X34430Y12887
X34780Y13137
X37530Y13077
X38030Y13837
X39180Y14337
X37180Y14637
X37180Y15137
X34730Y16287
X27980Y17637
X27830Y15437
X27580Y14137
X27680Y12937
X27680Y12587
X27580Y12237
X30530Y12137
X33910Y10347
X33580Y10187
X33880Y9987
X33980Y9587
X35280Y9587
X35530Y10487
X35330Y10787
X34980Y10787
X34930Y11287
X36003Y11445
X37230Y11487
X38080Y11187
X38130Y11687
X39280Y12187
X37630Y10587
X37080Y10687
X36730Y10687
X32630Y9787
X32330Y9587
X31130Y9187
X31130Y8837
X31480Y8787
X30530Y9387
X30880Y9487
X27630Y9087
X8430Y17387
X8330Y17787
X27680Y20087
T02
X12980Y3787
X12980Y4637
X9830Y5487
X9830Y5937
X9830Y6387
X9830Y6837
X13080Y7687
X14430Y8887
X18080Y7987
X18080Y7537
X18080Y7087
X18080Y6637
X18580Y6637
X19080Y6637
X19080Y7087
X19080Y7537
X19080Y7987
X18580Y7987
X21080Y7987
X21580Y7987
X22080Y7987
X22080Y7537
X22080Y7087
X22080Y6637
X21580Y6637
X21080Y6637
X21080Y7087
X21080Y7537
X19480Y11337
X18080Y11687
X17580Y11687
X17830Y12437
X18330Y13687
X18830Y13687
X23580Y11687
X24080Y11687
X25480Y11337
X23830Y12437
X26080Y15187
X30580Y15437
X33580Y15437
X34730Y15437
X38580Y2937
X37030Y2537
X30630Y1437
X28930Y2287
X13480Y11337
X12080Y11687
X11580Y11687
X11830Y12437
X12330Y13687
X12830Y13687
X7680Y14437
X7680Y15097
X5980Y12337
X5980Y11537
X7480Y11337
X7630Y11887
X6080Y5287
X7630Y5137
X30580Y18687
X33580Y18687
X36580Y18687
X39580Y18687
T03
X24830Y3437
X25530Y3437
X25530Y3937
X24830Y3937
X24830Y4437
X25530Y4437
X25530Y4937
X24830Y4937
X24830Y5437
X25530Y5437
X26680Y5437
X26680Y4937
X26680Y4437
X26680Y3937
X26680Y3437
T04
X5566Y8745
X6550Y8745
X7535Y8745
X8519Y8745
X9503Y8745
X10487Y8745
X10011Y9729
X9027Y9729
X8043Y9729
X7058Y9729
X6074Y9729
X10995Y9729
T05
X6480Y2637
X6480Y3637
X17580Y8937
X18580Y8937
X21180Y8837
X21980Y8837
T06
X4080Y10887
X4080Y11887
X4080Y12887
X4080Y13887
X4080Y14887
X4080Y15887
X4080Y16887
X4080Y17887
X9080Y17887
X10080Y17887
X10080Y16887
X9080Y16887
X9080Y15887
X10080Y15887
X10080Y14887
X9080Y14887
X9080Y13887
X10080Y13887
X10080Y12887
X9080Y12887
X9080Y11887
X10080Y11887
X10080Y10887
X9080Y10887
X15080Y10887
X16080Y10887
X16080Y11887
X15080Y11887
X15080Y12887
X16080Y12887
X16080Y13887
X15080Y13887
X15080Y14887
X16080Y14887
X16080Y15887
X15080Y15887
X15080Y16887
X16080Y16887
X16080Y17887
X15080Y17887
X21080Y17887
X22080Y17887
X22080Y16887
X21080Y16887
X21080Y15887
X22080Y15887
X22080Y14887
X21080Y14887
X21080Y13887
X22080Y13887
X22080Y12887
X21080Y12887
X21080Y11887
X22080Y11887
X22080Y10887
X21080Y10887
X27080Y10887
X27080Y11887
X27080Y12887
X27080Y13887
X27080Y14887
X27080Y15887
X27080Y16887
X27080Y17887
T07
X39200Y5995
X39980Y5995
X39980Y6979
X39200Y6979
T08
X41330Y15951
X41330Y17723
T09
X11880Y1737
X12880Y1637
X13880Y1737
X12880Y2637
X11880Y2737
X13880Y2737
X25480Y1787
X26480Y1787
X27480Y1787
X28480Y1787
X29480Y1787
X36580Y1737
X37580Y1637
X38580Y1737
X39580Y1637
X39210Y16467
X40350Y16467
X38168Y19487
X39168Y19587
X37168Y19587
X36168Y19587
X35168Y19487
X34168Y19587
X33168Y19587
X32168Y19487
X31168Y19587
X30168Y19587
X29168Y19487
X28168Y19587
X26930Y19387
X25930Y19487
X24930Y19387
X23930Y19487
X20930Y19387
X19930Y19487
X18930Y19387
X17930Y19487
X14930Y19387
X13930Y19487
X12930Y19387
X11930Y19487
X8930Y19387
X7930Y19487
X6930Y19387
X5930Y19487
X28168Y16337
X29168Y16237
X30168Y16337
X31168Y16337
X32168Y16237
X33168Y16337
T10
X15641Y1598
X17019Y1598
X18641Y1598
X20019Y1598
X21641Y1598
X23019Y1598
T11
X4080Y4687
X4080Y6687
T12
X40346Y15459
X40346Y18215
T13
X40054Y10219
X40054Y14156
T14
X41050Y8857
X41050Y4117
T15
X3966Y1823
X41367Y19540
X41367Y1823
X3966Y19540
M30
