G75*
G70*
%OFA0B0*%
%FSLAX24Y24*%
%IPPOS*%
%LPD*%
%AMOC8*
5,1,8,0,0,1.08239X$1,22.5*
%
%ADD10C,0.0100*%
%ADD11C,0.0000*%
%ADD12R,0.0460X0.0630*%
D10*
X003080Y001725D02*
X003080Y019835D01*
X003082Y019889D01*
X003087Y019942D01*
X003096Y019995D01*
X003109Y020047D01*
X003125Y020099D01*
X003145Y020149D01*
X003168Y020197D01*
X003195Y020244D01*
X003224Y020289D01*
X003257Y020332D01*
X003292Y020372D01*
X003330Y020410D01*
X003370Y020445D01*
X003413Y020478D01*
X003458Y020507D01*
X003505Y020534D01*
X003553Y020557D01*
X003603Y020577D01*
X003655Y020593D01*
X003707Y020606D01*
X003760Y020615D01*
X003813Y020620D01*
X003867Y020622D01*
X041663Y020622D01*
X041717Y020620D01*
X041770Y020615D01*
X041823Y020606D01*
X041875Y020593D01*
X041927Y020577D01*
X041977Y020557D01*
X042025Y020534D01*
X042072Y020507D01*
X042117Y020478D01*
X042160Y020445D01*
X042200Y020410D01*
X042238Y020372D01*
X042273Y020332D01*
X042306Y020289D01*
X042335Y020244D01*
X042362Y020197D01*
X042385Y020149D01*
X042405Y020099D01*
X042421Y020047D01*
X042434Y019995D01*
X042443Y019942D01*
X042448Y019889D01*
X042450Y019835D01*
X042450Y001725D01*
X042448Y001671D01*
X042443Y001618D01*
X042434Y001565D01*
X042421Y001513D01*
X042405Y001461D01*
X042385Y001411D01*
X042362Y001363D01*
X042335Y001316D01*
X042306Y001271D01*
X042273Y001228D01*
X042238Y001188D01*
X042200Y001150D01*
X042160Y001115D01*
X042117Y001082D01*
X042072Y001053D01*
X042025Y001026D01*
X041977Y001003D01*
X041927Y000983D01*
X041875Y000967D01*
X041823Y000954D01*
X041770Y000945D01*
X041717Y000940D01*
X041663Y000938D01*
X041663Y000937D02*
X003867Y000937D01*
X003867Y000938D02*
X003813Y000940D01*
X003760Y000945D01*
X003707Y000954D01*
X003655Y000967D01*
X003603Y000983D01*
X003553Y001003D01*
X003505Y001026D01*
X003458Y001053D01*
X003413Y001082D01*
X003370Y001115D01*
X003330Y001150D01*
X003292Y001188D01*
X003257Y001228D01*
X003224Y001271D01*
X003195Y001316D01*
X003168Y001363D01*
X003145Y001411D01*
X003125Y001461D01*
X003109Y001513D01*
X003096Y001565D01*
X003087Y001618D01*
X003082Y001671D01*
X003080Y001725D01*
D11*
X039739Y010219D02*
X039741Y010254D01*
X039747Y010289D01*
X039757Y010323D01*
X039770Y010356D01*
X039787Y010387D01*
X039808Y010415D01*
X039831Y010442D01*
X039858Y010465D01*
X039886Y010486D01*
X039917Y010503D01*
X039950Y010516D01*
X039984Y010526D01*
X040019Y010532D01*
X040054Y010534D01*
X040089Y010532D01*
X040124Y010526D01*
X040158Y010516D01*
X040191Y010503D01*
X040222Y010486D01*
X040250Y010465D01*
X040277Y010442D01*
X040300Y010415D01*
X040321Y010387D01*
X040338Y010356D01*
X040351Y010323D01*
X040361Y010289D01*
X040367Y010254D01*
X040369Y010219D01*
X040367Y010184D01*
X040361Y010149D01*
X040351Y010115D01*
X040338Y010082D01*
X040321Y010051D01*
X040300Y010023D01*
X040277Y009996D01*
X040250Y009973D01*
X040222Y009952D01*
X040191Y009935D01*
X040158Y009922D01*
X040124Y009912D01*
X040089Y009906D01*
X040054Y009904D01*
X040019Y009906D01*
X039984Y009912D01*
X039950Y009922D01*
X039917Y009935D01*
X039886Y009952D01*
X039858Y009973D01*
X039831Y009996D01*
X039808Y010023D01*
X039787Y010051D01*
X039770Y010082D01*
X039757Y010115D01*
X039747Y010149D01*
X039741Y010184D01*
X039739Y010219D01*
X039739Y014156D02*
X039741Y014191D01*
X039747Y014226D01*
X039757Y014260D01*
X039770Y014293D01*
X039787Y014324D01*
X039808Y014352D01*
X039831Y014379D01*
X039858Y014402D01*
X039886Y014423D01*
X039917Y014440D01*
X039950Y014453D01*
X039984Y014463D01*
X040019Y014469D01*
X040054Y014471D01*
X040089Y014469D01*
X040124Y014463D01*
X040158Y014453D01*
X040191Y014440D01*
X040222Y014423D01*
X040250Y014402D01*
X040277Y014379D01*
X040300Y014352D01*
X040321Y014324D01*
X040338Y014293D01*
X040351Y014260D01*
X040361Y014226D01*
X040367Y014191D01*
X040369Y014156D01*
X040367Y014121D01*
X040361Y014086D01*
X040351Y014052D01*
X040338Y014019D01*
X040321Y013988D01*
X040300Y013960D01*
X040277Y013933D01*
X040250Y013910D01*
X040222Y013889D01*
X040191Y013872D01*
X040158Y013859D01*
X040124Y013849D01*
X040089Y013843D01*
X040054Y013841D01*
X040019Y013843D01*
X039984Y013849D01*
X039950Y013859D01*
X039917Y013872D01*
X039886Y013889D01*
X039858Y013910D01*
X039831Y013933D01*
X039808Y013960D01*
X039787Y013988D01*
X039770Y014019D01*
X039757Y014052D01*
X039747Y014086D01*
X039741Y014121D01*
X039739Y014156D01*
D12*
X026280Y013837D03*
X025680Y013837D03*
X025680Y012837D03*
X026280Y012837D03*
X026280Y011837D03*
X025680Y011837D03*
X020280Y011837D03*
X019680Y011837D03*
X019680Y012837D03*
X020280Y012837D03*
X020280Y013837D03*
X019680Y013837D03*
X014280Y013837D03*
X013680Y013837D03*
X013680Y012837D03*
X014280Y012837D03*
X014280Y011837D03*
X013680Y011837D03*
X007280Y013637D03*
X006680Y013637D03*
X006680Y014537D03*
X007280Y014537D03*
X007280Y015437D03*
X006680Y015437D03*
M02*
