G75*
G70*
%OFA0B0*%
%FSLAX24Y24*%
%IPPOS*%
%LPD*%
%AMOC8*
5,1,8,0,0,1.08239X$1,22.5*
%
%ADD10C,0.0100*%
%ADD11R,0.0106X0.0591*%
%ADD12R,0.0591X0.0106*%
%ADD13R,0.0551X0.0472*%
%ADD14R,0.0433X0.0394*%
%ADD15R,0.0394X0.0433*%
%ADD16R,0.0300X0.0600*%
%ADD17C,0.0660*%
%ADD18C,0.1300*%
%ADD19R,0.0197X0.0197*%
%ADD20R,0.0327X0.0248*%
%ADD21R,0.0472X0.0472*%
%ADD22R,0.1000X0.1000*%
%ADD23C,0.0886*%
%ADD24C,0.0594*%
%ADD25C,0.0740*%
%ADD26R,0.0315X0.0315*%
%ADD27R,0.0531X0.0591*%
%ADD28R,0.0394X0.0551*%
%ADD29R,0.0394X0.0512*%
%ADD30R,0.0591X0.0295*%
%ADD31C,0.0000*%
%ADD32C,0.0700*%
%ADD33R,0.1378X0.0630*%
%ADD34R,0.0740X0.0740*%
%ADD35R,0.2126X0.2441*%
%ADD36R,0.0394X0.0630*%
%ADD37C,0.0669*%
%ADD38R,0.0880X0.0480*%
%ADD39R,0.0866X0.1417*%
%ADD40R,0.0197X0.0256*%
%ADD41R,0.0515X0.0515*%
%ADD42C,0.0515*%
%ADD43C,0.0825*%
%ADD44R,0.2756X0.1122*%
%ADD45C,0.0400*%
%ADD46R,0.0870X0.0240*%
%ADD47R,0.0827X0.0500*%
%ADD48OC8,0.0630*%
%ADD49C,0.0630*%
%ADD50OC8,0.0520*%
%ADD51C,0.0520*%
%ADD52R,0.0450X0.0360*%
%ADD53C,0.2250*%
%ADD54C,0.0317*%
%ADD55C,0.0277*%
%ADD56C,0.0120*%
%ADD57C,0.0080*%
%ADD58C,0.0200*%
%ADD59C,0.0240*%
%ADD60C,0.0160*%
%ADD61C,0.0420*%
%ADD62C,0.0460*%
%ADD63C,0.0500*%
%ADD64C,0.1000*%
D10*
X002785Y001429D02*
X002785Y019835D01*
X002985Y019835D02*
X002992Y019927D01*
X003049Y020102D01*
X003157Y020250D01*
X003305Y020358D01*
X003480Y020415D01*
X003572Y020422D01*
X010646Y020422D01*
X009409Y019185D01*
X009450Y019284D01*
X009450Y019491D01*
X009371Y019682D01*
X009225Y019828D01*
X009033Y019907D01*
X008827Y019907D01*
X008635Y019828D01*
X008489Y019682D01*
X008450Y019587D01*
X008450Y019591D01*
X008371Y019782D01*
X008225Y019928D01*
X008033Y020007D01*
X007827Y020007D01*
X007635Y019928D01*
X007489Y019782D01*
X007410Y019591D01*
X007410Y019587D01*
X007371Y019682D01*
X007225Y019828D01*
X007033Y019907D01*
X006827Y019907D01*
X006635Y019828D01*
X006489Y019682D01*
X006450Y019587D01*
X006450Y019919D01*
X006362Y020007D01*
X005498Y020007D01*
X005410Y019919D01*
X005410Y019055D01*
X005498Y018967D01*
X005570Y018967D01*
X005570Y017536D01*
X005327Y017293D01*
X005327Y017681D01*
X005239Y017769D01*
X004721Y017769D01*
X004633Y017681D01*
X004633Y017603D01*
X004513Y017603D01*
X004263Y017353D01*
X004179Y017387D01*
X003981Y017387D01*
X003797Y017311D01*
X003656Y017171D01*
X003580Y016987D01*
X003580Y016788D01*
X003614Y016705D01*
X003447Y016537D01*
X003330Y016420D01*
X003330Y011404D01*
X003430Y011304D01*
X003547Y011187D01*
X003673Y011187D01*
X003656Y011171D01*
X003580Y010987D01*
X003580Y010887D01*
X002997Y010887D01*
X002985Y010875D01*
X002985Y019835D01*
X002986Y019850D02*
X005410Y019850D01*
X005410Y019751D02*
X002985Y019751D01*
X002985Y019653D02*
X005410Y019653D01*
X005410Y019554D02*
X002985Y019554D01*
X002985Y019456D02*
X005410Y019456D01*
X005410Y019357D02*
X002985Y019357D01*
X002985Y019259D02*
X005410Y019259D01*
X005410Y019160D02*
X002985Y019160D01*
X002985Y019062D02*
X005410Y019062D01*
X005570Y018963D02*
X002985Y018963D01*
X002985Y018865D02*
X005570Y018865D01*
X005570Y018766D02*
X002985Y018766D01*
X002985Y018668D02*
X005570Y018668D01*
X005570Y018569D02*
X002985Y018569D01*
X002985Y018471D02*
X005570Y018471D01*
X005570Y018372D02*
X002985Y018372D01*
X002985Y018274D02*
X005570Y018274D01*
X005570Y018175D02*
X002985Y018175D01*
X002985Y018077D02*
X005570Y018077D01*
X005570Y017978D02*
X002985Y017978D01*
X002985Y017880D02*
X005570Y017880D01*
X005570Y017781D02*
X002985Y017781D01*
X002985Y017683D02*
X004634Y017683D01*
X004494Y017584D02*
X002985Y017584D01*
X002985Y017486D02*
X004395Y017486D01*
X004297Y017387D02*
X004180Y017387D01*
X003980Y017387D02*
X002985Y017387D01*
X002985Y017289D02*
X003774Y017289D01*
X003676Y017190D02*
X002985Y017190D01*
X002985Y017092D02*
X003623Y017092D01*
X003583Y016993D02*
X002985Y016993D01*
X002985Y016895D02*
X003580Y016895D01*
X003580Y016796D02*
X002985Y016796D01*
X002985Y016698D02*
X003607Y016698D01*
X003509Y016599D02*
X002985Y016599D01*
X002985Y016501D02*
X003410Y016501D01*
X003330Y016402D02*
X002985Y016402D01*
X002985Y016304D02*
X003330Y016304D01*
X003330Y016205D02*
X002985Y016205D01*
X002985Y016107D02*
X003330Y016107D01*
X003330Y016008D02*
X002985Y016008D01*
X002985Y015910D02*
X003330Y015910D01*
X003330Y015811D02*
X002985Y015811D01*
X002985Y015713D02*
X003330Y015713D01*
X003330Y015614D02*
X002985Y015614D01*
X002985Y015516D02*
X003330Y015516D01*
X003330Y015417D02*
X002985Y015417D01*
X002985Y015319D02*
X003330Y015319D01*
X003330Y015220D02*
X002985Y015220D01*
X002985Y015122D02*
X003330Y015122D01*
X003330Y015023D02*
X002985Y015023D01*
X002985Y014925D02*
X003330Y014925D01*
X003330Y014826D02*
X002985Y014826D01*
X002985Y014728D02*
X003330Y014728D01*
X003330Y014629D02*
X002985Y014629D01*
X002985Y014531D02*
X003330Y014531D01*
X003330Y014432D02*
X002985Y014432D01*
X002985Y014334D02*
X003330Y014334D01*
X003330Y014235D02*
X002985Y014235D01*
X002985Y014137D02*
X003330Y014137D01*
X003330Y014038D02*
X002985Y014038D01*
X002985Y013940D02*
X003330Y013940D01*
X003330Y013841D02*
X002985Y013841D01*
X002985Y013743D02*
X003330Y013743D01*
X003330Y013644D02*
X002985Y013644D01*
X002985Y013546D02*
X003330Y013546D01*
X003330Y013447D02*
X002985Y013447D01*
X002985Y013349D02*
X003330Y013349D01*
X003330Y013250D02*
X002985Y013250D01*
X002985Y013152D02*
X003330Y013152D01*
X003330Y013053D02*
X002985Y013053D01*
X002985Y012955D02*
X003330Y012955D01*
X003330Y012856D02*
X002985Y012856D01*
X002985Y012758D02*
X003330Y012758D01*
X003330Y012659D02*
X002985Y012659D01*
X002985Y012561D02*
X003330Y012561D01*
X003330Y012462D02*
X002985Y012462D01*
X002985Y012364D02*
X003330Y012364D01*
X003330Y012265D02*
X002985Y012265D01*
X002985Y012167D02*
X003330Y012167D01*
X003330Y012068D02*
X002985Y012068D01*
X002985Y011970D02*
X003330Y011970D01*
X003330Y011871D02*
X002985Y011871D01*
X002985Y011773D02*
X003330Y011773D01*
X003330Y011674D02*
X002985Y011674D01*
X002985Y011576D02*
X003330Y011576D01*
X003330Y011477D02*
X002985Y011477D01*
X002985Y011379D02*
X003356Y011379D01*
X003454Y011280D02*
X002985Y011280D01*
X002985Y011182D02*
X003667Y011182D01*
X003620Y011083D02*
X002985Y011083D01*
X002985Y010985D02*
X003580Y010985D01*
X004080Y010887D02*
X004330Y011137D01*
X004945Y011137D01*
X004945Y011553D01*
X005230Y011837D01*
X007180Y011837D01*
X007943Y012600D01*
X007943Y012987D01*
X007080Y012437D02*
X007080Y015137D01*
X007330Y015387D01*
X009580Y015387D01*
X009580Y016387D01*
X010080Y016887D01*
X010595Y017403D01*
X010980Y017403D01*
X011327Y017387D02*
X011421Y017387D01*
X011327Y017293D02*
X011327Y017681D01*
X011239Y017769D01*
X010721Y017769D01*
X010633Y017681D01*
X010633Y017603D01*
X010513Y017603D01*
X010263Y017353D01*
X010179Y017387D01*
X009981Y017387D01*
X009797Y017311D01*
X009656Y017171D01*
X009580Y016987D01*
X009504Y017171D01*
X009468Y017206D01*
X009659Y017397D01*
X009770Y017509D01*
X009770Y018709D01*
X011109Y020047D01*
X027391Y020047D01*
X027391Y020030D01*
X027435Y019924D01*
X027516Y019843D01*
X027623Y019799D01*
X027692Y019799D01*
X027648Y019691D01*
X027648Y019484D01*
X027683Y019399D01*
X027420Y019137D01*
X027420Y018254D01*
X027363Y018311D01*
X027179Y018387D01*
X026981Y018387D01*
X026797Y018311D01*
X026656Y018171D01*
X026580Y017987D01*
X026580Y017788D01*
X026656Y017604D01*
X026797Y017463D01*
X026981Y017387D01*
X026797Y017311D01*
X026656Y017171D01*
X026580Y016987D01*
X026580Y016788D01*
X026619Y016695D01*
X026390Y016466D01*
X026390Y014559D01*
X026501Y014447D01*
X026717Y014231D01*
X026656Y014171D01*
X026580Y013987D01*
X026580Y013788D01*
X026656Y013604D01*
X026797Y013463D01*
X026981Y013387D01*
X026797Y013311D01*
X026782Y013296D01*
X026782Y013364D01*
X026694Y013452D01*
X026280Y013452D01*
X026280Y014951D01*
X026341Y015013D01*
X026388Y015126D01*
X026388Y015249D01*
X026341Y015362D01*
X026255Y015449D01*
X026141Y015496D01*
X026019Y015496D01*
X025905Y015449D01*
X025819Y015362D01*
X025772Y015249D01*
X025772Y015126D01*
X025819Y015013D01*
X025880Y014951D01*
X025880Y013452D01*
X025192Y013452D01*
X025104Y013364D01*
X025104Y012610D01*
X025192Y012522D01*
X025632Y012522D01*
X025347Y012237D01*
X024066Y012237D01*
X024091Y012263D01*
X024138Y012376D01*
X024138Y012499D01*
X024091Y012612D01*
X024005Y012699D01*
X023891Y012746D01*
X023769Y012746D01*
X023655Y012699D01*
X023594Y012637D01*
X023247Y012637D01*
X022197Y011587D01*
X021787Y011587D01*
X021787Y012473D01*
X021797Y012463D01*
X021981Y012387D01*
X022179Y012387D01*
X022363Y012463D01*
X022504Y012604D01*
X022580Y012788D01*
X022580Y012878D01*
X026135Y016433D01*
X026190Y016566D01*
X026190Y017788D01*
X027235Y018833D01*
X027290Y018966D01*
X027290Y019012D01*
X027371Y019093D01*
X027450Y019284D01*
X027450Y019491D01*
X027371Y019682D01*
X027225Y019828D01*
X027033Y019907D01*
X026827Y019907D01*
X026635Y019828D01*
X026489Y019682D01*
X026450Y019587D01*
X026450Y019591D01*
X026371Y019782D01*
X026225Y019928D01*
X026033Y020007D01*
X025827Y020007D01*
X025635Y019928D01*
X025489Y019782D01*
X025410Y019591D01*
X025410Y019587D01*
X025371Y019682D01*
X025225Y019828D01*
X025033Y019907D01*
X024827Y019907D01*
X024635Y019828D01*
X024489Y019682D01*
X024450Y019587D01*
X024450Y019919D01*
X024362Y020007D01*
X023498Y020007D01*
X023410Y019919D01*
X023410Y019055D01*
X023498Y018967D01*
X023570Y018967D01*
X023570Y017536D01*
X023327Y017293D01*
X023327Y017681D01*
X023239Y017769D01*
X022721Y017769D01*
X022633Y017681D01*
X022633Y017593D01*
X022517Y017593D01*
X022273Y017349D01*
X022179Y017387D01*
X021981Y017387D01*
X021797Y017311D01*
X021656Y017171D01*
X021580Y016987D01*
X021504Y017171D01*
X021363Y017311D01*
X021179Y017387D01*
X021363Y017463D01*
X021504Y017604D01*
X021580Y017788D01*
X021580Y017987D01*
X021504Y018171D01*
X021363Y018311D01*
X021179Y018387D01*
X020981Y018387D01*
X020797Y018311D01*
X020656Y018171D01*
X020580Y017987D01*
X020580Y017788D01*
X020600Y017740D01*
X020247Y017387D01*
X020190Y017387D01*
X020190Y017330D02*
X020190Y017788D01*
X021235Y018833D01*
X021290Y018966D01*
X021290Y019012D01*
X021371Y019093D01*
X021450Y019284D01*
X021450Y019491D01*
X021371Y019682D01*
X021225Y019828D01*
X021033Y019907D01*
X020827Y019907D01*
X020635Y019828D01*
X020489Y019682D01*
X020450Y019587D01*
X020450Y019591D01*
X020371Y019782D01*
X020225Y019928D01*
X020033Y020007D01*
X019827Y020007D01*
X019635Y019928D01*
X019489Y019782D01*
X019410Y019591D01*
X019410Y019587D01*
X019371Y019682D01*
X019225Y019828D01*
X019033Y019907D01*
X018827Y019907D01*
X018635Y019828D01*
X018489Y019682D01*
X018450Y019587D01*
X018450Y019919D01*
X018362Y020007D01*
X017498Y020007D01*
X017410Y019919D01*
X017410Y019055D01*
X017498Y018967D01*
X017570Y018967D01*
X017570Y017536D01*
X017327Y017293D01*
X017327Y017681D01*
X017239Y017769D01*
X016721Y017769D01*
X016633Y017681D01*
X016633Y017593D01*
X016517Y017593D01*
X016273Y017349D01*
X016179Y017387D01*
X015981Y017387D01*
X015797Y017311D01*
X015656Y017171D01*
X015580Y016987D01*
X015504Y017171D01*
X015363Y017311D01*
X015179Y017387D01*
X015363Y017463D01*
X015504Y017604D01*
X015580Y017788D01*
X015580Y017987D01*
X015504Y018171D01*
X015363Y018311D01*
X015179Y018387D01*
X014981Y018387D01*
X014797Y018311D01*
X014656Y018171D01*
X014580Y017987D01*
X014580Y017788D01*
X014600Y017740D01*
X014247Y017387D01*
X014190Y017387D01*
X014190Y017330D02*
X014190Y017788D01*
X015235Y018833D01*
X015290Y018966D01*
X015290Y019012D01*
X015371Y019093D01*
X015450Y019284D01*
X015450Y019491D01*
X015371Y019682D01*
X015225Y019828D01*
X015033Y019907D01*
X014827Y019907D01*
X014635Y019828D01*
X014489Y019682D01*
X014450Y019587D01*
X014450Y019591D01*
X014371Y019782D01*
X014225Y019928D01*
X014033Y020007D01*
X013827Y020007D01*
X013635Y019928D01*
X013489Y019782D01*
X013410Y019591D01*
X013410Y019587D01*
X013371Y019682D01*
X013225Y019828D01*
X013033Y019907D01*
X012827Y019907D01*
X012635Y019828D01*
X012489Y019682D01*
X012450Y019587D01*
X012450Y019919D01*
X012362Y020007D01*
X011498Y020007D01*
X011410Y019919D01*
X011410Y019055D01*
X011498Y018967D01*
X011570Y018967D01*
X011570Y017536D01*
X011327Y017293D01*
X011327Y017486D02*
X011519Y017486D01*
X011570Y017584D02*
X011327Y017584D01*
X011326Y017683D02*
X011570Y017683D01*
X011570Y017781D02*
X009770Y017781D01*
X009770Y017683D02*
X010634Y017683D01*
X010494Y017584D02*
X009770Y017584D01*
X009747Y017486D02*
X010395Y017486D01*
X010297Y017387D02*
X010180Y017387D01*
X009980Y017387D02*
X009648Y017387D01*
X009550Y017289D02*
X009774Y017289D01*
X009676Y017190D02*
X009484Y017190D01*
X009537Y017092D02*
X009623Y017092D01*
X009583Y016993D02*
X009577Y016993D01*
X009580Y016987D02*
X009580Y016788D01*
X009504Y016604D01*
X009363Y016463D01*
X009179Y016387D01*
X008981Y016387D01*
X008797Y016463D01*
X008656Y016604D01*
X008580Y016788D01*
X008580Y016987D01*
X008656Y017171D01*
X008683Y017197D01*
X008648Y017197D01*
X008594Y017143D01*
X008487Y017099D01*
X008373Y017099D01*
X008266Y017143D01*
X008190Y017219D01*
X008190Y016616D01*
X008135Y016483D01*
X004580Y012928D01*
X004580Y012788D01*
X004504Y012604D01*
X004363Y012463D01*
X004179Y012387D01*
X003981Y012387D01*
X003797Y012463D01*
X003730Y012530D01*
X003730Y011587D01*
X004247Y011587D01*
X004780Y012120D01*
X004897Y012237D01*
X006597Y012237D01*
X006880Y012520D01*
X006880Y015220D01*
X006872Y015220D01*
X006880Y015220D02*
X007130Y015470D01*
X007247Y015587D01*
X008673Y015587D01*
X008656Y015604D01*
X008580Y015788D01*
X008580Y015987D01*
X008656Y016171D01*
X008797Y016311D01*
X008981Y016387D01*
X009179Y016387D01*
X009363Y016311D01*
X009380Y016294D01*
X009380Y016470D01*
X009614Y016705D01*
X009580Y016788D01*
X009580Y016987D01*
X009580Y016895D02*
X009580Y016895D01*
X009580Y016796D02*
X009580Y016796D01*
X009607Y016698D02*
X009543Y016698D01*
X009509Y016599D02*
X009499Y016599D01*
X009410Y016501D02*
X009400Y016501D01*
X009380Y016402D02*
X009215Y016402D01*
X009371Y016304D02*
X009380Y016304D01*
X008945Y016402D02*
X008054Y016402D01*
X008142Y016501D02*
X008760Y016501D01*
X008661Y016599D02*
X008183Y016599D01*
X008190Y016698D02*
X008617Y016698D01*
X008580Y016796D02*
X008190Y016796D01*
X008190Y016895D02*
X008580Y016895D01*
X008583Y016993D02*
X008190Y016993D01*
X008190Y017092D02*
X008623Y017092D01*
X008641Y017190D02*
X008676Y017190D01*
X008219Y017190D02*
X008190Y017190D01*
X007955Y016304D02*
X008789Y016304D01*
X008691Y016205D02*
X007857Y016205D01*
X007758Y016107D02*
X008630Y016107D01*
X008589Y016008D02*
X007660Y016008D01*
X007561Y015910D02*
X008580Y015910D01*
X008580Y015811D02*
X007463Y015811D01*
X007364Y015713D02*
X008611Y015713D01*
X008652Y015614D02*
X007266Y015614D01*
X007175Y015516D02*
X007167Y015516D01*
X007077Y015417D02*
X007069Y015417D01*
X006978Y015319D02*
X006970Y015319D01*
X006880Y015122D02*
X006773Y015122D01*
X006675Y015023D02*
X006880Y015023D01*
X006880Y014925D02*
X006576Y014925D01*
X006478Y014826D02*
X006880Y014826D01*
X006880Y014728D02*
X006379Y014728D01*
X006281Y014629D02*
X006880Y014629D01*
X006880Y014531D02*
X006182Y014531D01*
X006084Y014432D02*
X006880Y014432D01*
X006880Y014334D02*
X005985Y014334D01*
X005887Y014235D02*
X006880Y014235D01*
X006880Y014137D02*
X005788Y014137D01*
X005690Y014038D02*
X006880Y014038D01*
X006880Y013940D02*
X005591Y013940D01*
X005493Y013841D02*
X006880Y013841D01*
X006880Y013743D02*
X005394Y013743D01*
X005296Y013644D02*
X006880Y013644D01*
X006880Y013546D02*
X005197Y013546D01*
X005099Y013447D02*
X006880Y013447D01*
X006880Y013349D02*
X005000Y013349D01*
X004902Y013250D02*
X006880Y013250D01*
X006880Y013152D02*
X004803Y013152D01*
X004705Y013053D02*
X006880Y013053D01*
X006880Y012955D02*
X004606Y012955D01*
X004580Y012856D02*
X006880Y012856D01*
X006880Y012758D02*
X004567Y012758D01*
X004527Y012659D02*
X006880Y012659D01*
X006880Y012561D02*
X004460Y012561D01*
X004360Y012462D02*
X006822Y012462D01*
X006723Y012364D02*
X003730Y012364D01*
X003730Y012462D02*
X003800Y012462D01*
X003730Y012265D02*
X006625Y012265D01*
X006680Y012037D02*
X007080Y012437D01*
X006680Y012037D02*
X004980Y012037D01*
X004330Y011387D01*
X003630Y011387D01*
X003530Y011487D01*
X003530Y016337D01*
X004080Y016887D01*
X004595Y017403D01*
X004980Y017403D01*
X005327Y017387D02*
X005421Y017387D01*
X005327Y017486D02*
X005519Y017486D01*
X005570Y017584D02*
X005327Y017584D01*
X005326Y017683D02*
X005570Y017683D01*
X004980Y018072D02*
X004265Y018072D01*
X004080Y017887D01*
X006450Y019653D02*
X006477Y019653D01*
X006450Y019751D02*
X006558Y019751D01*
X006450Y019850D02*
X006687Y019850D01*
X006421Y019948D02*
X007684Y019948D01*
X007557Y019850D02*
X007173Y019850D01*
X007302Y019751D02*
X007476Y019751D01*
X007436Y019653D02*
X007383Y019653D01*
X008176Y019948D02*
X010172Y019948D01*
X010074Y019850D02*
X009173Y019850D01*
X009302Y019751D02*
X009975Y019751D01*
X009877Y019653D02*
X009383Y019653D01*
X009424Y019554D02*
X009778Y019554D01*
X009680Y019456D02*
X009450Y019456D01*
X009450Y019357D02*
X009581Y019357D01*
X009483Y019259D02*
X009440Y019259D01*
X010024Y018963D02*
X011570Y018963D01*
X011570Y018865D02*
X009926Y018865D01*
X009827Y018766D02*
X011570Y018766D01*
X011570Y018668D02*
X009770Y018668D01*
X009770Y018569D02*
X011570Y018569D01*
X011570Y018471D02*
X009770Y018471D01*
X009770Y018372D02*
X011570Y018372D01*
X011570Y018274D02*
X009770Y018274D01*
X009770Y018175D02*
X011570Y018175D01*
X011570Y018077D02*
X009770Y018077D01*
X009770Y017978D02*
X011570Y017978D01*
X011570Y017880D02*
X009770Y017880D01*
X010080Y017887D02*
X010265Y018072D01*
X010980Y018072D01*
X011410Y019062D02*
X010123Y019062D01*
X010221Y019160D02*
X011410Y019160D01*
X011410Y019259D02*
X010320Y019259D01*
X010418Y019357D02*
X011410Y019357D01*
X011410Y019456D02*
X010517Y019456D01*
X010615Y019554D02*
X011410Y019554D01*
X011410Y019653D02*
X010714Y019653D01*
X010812Y019751D02*
X011410Y019751D01*
X011410Y019850D02*
X010911Y019850D01*
X011009Y019948D02*
X011439Y019948D01*
X011108Y020047D02*
X027391Y020047D01*
X027425Y019948D02*
X026176Y019948D01*
X026303Y019850D02*
X026687Y019850D01*
X026558Y019751D02*
X026384Y019751D01*
X026424Y019653D02*
X026477Y019653D01*
X027173Y019850D02*
X027509Y019850D01*
X027672Y019751D02*
X027302Y019751D01*
X027383Y019653D02*
X027648Y019653D01*
X027648Y019554D02*
X027424Y019554D01*
X027450Y019456D02*
X027659Y019456D01*
X027640Y019357D02*
X027450Y019357D01*
X027440Y019259D02*
X027542Y019259D01*
X027443Y019160D02*
X027399Y019160D01*
X027420Y019062D02*
X027340Y019062D01*
X027289Y018963D02*
X027420Y018963D01*
X027420Y018865D02*
X027248Y018865D01*
X027168Y018766D02*
X027420Y018766D01*
X027420Y018668D02*
X027069Y018668D01*
X026971Y018569D02*
X027420Y018569D01*
X027420Y018471D02*
X026872Y018471D01*
X026944Y018372D02*
X026774Y018372D01*
X026759Y018274D02*
X026675Y018274D01*
X026661Y018175D02*
X026577Y018175D01*
X026617Y018077D02*
X026478Y018077D01*
X026380Y017978D02*
X026580Y017978D01*
X026580Y017880D02*
X026281Y017880D01*
X026190Y017781D02*
X026583Y017781D01*
X026624Y017683D02*
X026190Y017683D01*
X026190Y017584D02*
X026676Y017584D01*
X026775Y017486D02*
X026190Y017486D01*
X026190Y017387D02*
X026980Y017387D01*
X026981Y017387D02*
X027011Y017387D01*
X027011Y017387D01*
X026981Y017387D01*
X026774Y017289D02*
X026190Y017289D01*
X026190Y017190D02*
X026676Y017190D01*
X026623Y017092D02*
X026190Y017092D01*
X026190Y016993D02*
X026583Y016993D01*
X026580Y016895D02*
X026190Y016895D01*
X026190Y016796D02*
X026580Y016796D01*
X026617Y016698D02*
X026190Y016698D01*
X026190Y016599D02*
X026523Y016599D01*
X026425Y016501D02*
X026163Y016501D01*
X026104Y016402D02*
X026390Y016402D01*
X026390Y016304D02*
X026005Y016304D01*
X025907Y016205D02*
X026390Y016205D01*
X026390Y016107D02*
X025808Y016107D01*
X025710Y016008D02*
X026390Y016008D01*
X026390Y015910D02*
X025611Y015910D01*
X025513Y015811D02*
X026390Y015811D01*
X026390Y015713D02*
X025414Y015713D01*
X025316Y015614D02*
X026390Y015614D01*
X026390Y015516D02*
X025217Y015516D01*
X025119Y015417D02*
X025874Y015417D01*
X025801Y015319D02*
X025020Y015319D01*
X024922Y015220D02*
X025772Y015220D01*
X025773Y015122D02*
X024823Y015122D01*
X024725Y015023D02*
X025814Y015023D01*
X025880Y014925D02*
X024626Y014925D01*
X024528Y014826D02*
X025880Y014826D01*
X025880Y014728D02*
X024429Y014728D01*
X024331Y014629D02*
X025880Y014629D01*
X025880Y014531D02*
X024232Y014531D01*
X024134Y014432D02*
X025880Y014432D01*
X025880Y014334D02*
X024035Y014334D01*
X023937Y014235D02*
X025880Y014235D01*
X025880Y014137D02*
X023838Y014137D01*
X023740Y014038D02*
X025880Y014038D01*
X025880Y013940D02*
X023641Y013940D01*
X023543Y013841D02*
X025880Y013841D01*
X025880Y013743D02*
X023444Y013743D01*
X023346Y013644D02*
X025880Y013644D01*
X025880Y013546D02*
X023247Y013546D01*
X023149Y013447D02*
X025187Y013447D01*
X025104Y013349D02*
X023050Y013349D01*
X022952Y013250D02*
X025104Y013250D01*
X025104Y013152D02*
X022853Y013152D01*
X022755Y013053D02*
X025104Y013053D01*
X025104Y012955D02*
X022656Y012955D01*
X022580Y012856D02*
X025104Y012856D01*
X025104Y012758D02*
X022567Y012758D01*
X022527Y012659D02*
X023616Y012659D01*
X023830Y012437D02*
X023330Y012437D01*
X022280Y011387D01*
X021587Y011387D01*
X021587Y016394D01*
X022080Y016887D01*
X021614Y016705D02*
X021387Y016477D01*
X021387Y016287D01*
X021363Y016311D01*
X021179Y016387D01*
X021363Y016463D01*
X021504Y016604D01*
X021580Y016788D01*
X021580Y016987D01*
X021580Y016788D01*
X021614Y016705D01*
X021607Y016698D02*
X021543Y016698D01*
X021509Y016599D02*
X021499Y016599D01*
X021410Y016501D02*
X021400Y016501D01*
X021387Y016402D02*
X021215Y016402D01*
X021179Y016387D02*
X020981Y016387D01*
X020797Y016463D01*
X020780Y016480D01*
X020780Y016294D01*
X020797Y016311D01*
X020981Y016387D01*
X021179Y016387D01*
X021371Y016304D02*
X021387Y016304D01*
X020945Y016402D02*
X020780Y016402D01*
X020780Y016304D02*
X020789Y016304D01*
X020330Y016187D02*
X018330Y014187D01*
X018330Y013687D01*
X018055Y013546D02*
X017247Y013546D01*
X017346Y013644D02*
X018022Y013644D01*
X018022Y013626D02*
X018069Y013513D01*
X018155Y013426D01*
X018269Y013379D01*
X018391Y013379D01*
X018505Y013426D01*
X018580Y013501D01*
X018655Y013426D01*
X018769Y013379D01*
X018891Y013379D01*
X019005Y013426D01*
X019091Y013513D01*
X019138Y013626D01*
X019138Y013749D01*
X019091Y013862D01*
X019030Y013923D01*
X019030Y014104D01*
X020619Y015694D01*
X020656Y015604D01*
X020797Y015463D01*
X020870Y015433D01*
X020870Y015342D01*
X020797Y015311D01*
X020656Y015171D01*
X020580Y014987D01*
X020580Y014788D01*
X020656Y014604D01*
X020797Y014463D01*
X020981Y014387D01*
X020797Y014311D01*
X020656Y014171D01*
X020580Y013987D01*
X020580Y013788D01*
X020656Y013604D01*
X020797Y013463D01*
X020981Y013387D01*
X020797Y013311D01*
X020782Y013296D01*
X020782Y013364D01*
X020694Y013452D01*
X019192Y013452D01*
X019104Y013364D01*
X019104Y012610D01*
X019192Y012522D01*
X019632Y012522D01*
X019347Y012237D01*
X018066Y012237D01*
X018091Y012263D01*
X018138Y012376D01*
X018138Y012499D01*
X018091Y012612D01*
X018005Y012699D01*
X017891Y012746D01*
X017769Y012746D01*
X017655Y012699D01*
X017594Y012637D01*
X017247Y012637D01*
X016197Y011587D01*
X015784Y011587D01*
X015784Y012476D01*
X015797Y012463D01*
X015981Y012387D01*
X016179Y012387D01*
X016363Y012463D01*
X016504Y012604D01*
X016580Y012788D01*
X016580Y012878D01*
X020130Y016428D01*
X020130Y016270D01*
X018247Y014387D01*
X018130Y014270D01*
X018130Y013923D01*
X018069Y013862D01*
X018022Y013749D01*
X018022Y013626D01*
X018022Y013743D02*
X017444Y013743D01*
X017543Y013841D02*
X018060Y013841D01*
X018130Y013940D02*
X017641Y013940D01*
X017740Y014038D02*
X018130Y014038D01*
X018130Y014137D02*
X017838Y014137D01*
X017937Y014235D02*
X018130Y014235D01*
X018193Y014334D02*
X018035Y014334D01*
X018134Y014432D02*
X018292Y014432D01*
X018232Y014531D02*
X018390Y014531D01*
X018331Y014629D02*
X018489Y014629D01*
X018429Y014728D02*
X018587Y014728D01*
X018528Y014826D02*
X018686Y014826D01*
X018626Y014925D02*
X018784Y014925D01*
X018725Y015023D02*
X018883Y015023D01*
X018823Y015122D02*
X018981Y015122D01*
X018922Y015220D02*
X019080Y015220D01*
X019020Y015319D02*
X019178Y015319D01*
X019119Y015417D02*
X019277Y015417D01*
X019217Y015516D02*
X019375Y015516D01*
X019316Y015614D02*
X019474Y015614D01*
X019414Y015713D02*
X019572Y015713D01*
X019513Y015811D02*
X019671Y015811D01*
X019611Y015910D02*
X019769Y015910D01*
X019710Y016008D02*
X019868Y016008D01*
X019808Y016107D02*
X019966Y016107D01*
X019907Y016205D02*
X020065Y016205D01*
X020005Y016304D02*
X020130Y016304D01*
X020130Y016402D02*
X020104Y016402D01*
X020580Y016687D02*
X020580Y015937D01*
X018830Y014187D01*
X018830Y013687D01*
X019105Y013546D02*
X020715Y013546D01*
X020699Y013447D02*
X020836Y013447D01*
X020887Y013349D02*
X020782Y013349D01*
X020981Y013387D02*
X021179Y013387D01*
X021363Y013311D01*
X021387Y013287D01*
X021387Y013487D01*
X021363Y013463D01*
X021179Y013387D01*
X020981Y013387D01*
X021273Y013349D02*
X021387Y013349D01*
X021387Y013447D02*
X021324Y013447D01*
X020640Y013644D02*
X019138Y013644D01*
X019138Y013743D02*
X020599Y013743D01*
X020580Y013841D02*
X019100Y013841D01*
X019030Y013940D02*
X020580Y013940D01*
X020601Y014038D02*
X019030Y014038D01*
X019062Y014137D02*
X020642Y014137D01*
X020721Y014235D02*
X019161Y014235D01*
X019259Y014334D02*
X020851Y014334D01*
X020872Y014432D02*
X019358Y014432D01*
X019456Y014531D02*
X020730Y014531D01*
X020646Y014629D02*
X019555Y014629D01*
X019653Y014728D02*
X020605Y014728D01*
X020580Y014826D02*
X019752Y014826D01*
X019850Y014925D02*
X020580Y014925D01*
X020595Y015023D02*
X019949Y015023D01*
X020047Y015122D02*
X020636Y015122D01*
X020706Y015220D02*
X020146Y015220D01*
X020244Y015319D02*
X020815Y015319D01*
X020870Y015417D02*
X020343Y015417D01*
X020441Y015516D02*
X020745Y015516D01*
X020652Y015614D02*
X020540Y015614D01*
X020330Y016187D02*
X020330Y017187D01*
X021030Y017887D01*
X021080Y017887D01*
X021580Y017880D02*
X023570Y017880D01*
X023570Y017978D02*
X021580Y017978D01*
X021543Y018077D02*
X023570Y018077D01*
X023570Y018175D02*
X021499Y018175D01*
X021401Y018274D02*
X023570Y018274D01*
X023570Y018372D02*
X021216Y018372D01*
X020944Y018372D02*
X020774Y018372D01*
X020759Y018274D02*
X020675Y018274D01*
X020661Y018175D02*
X020577Y018175D01*
X020617Y018077D02*
X020478Y018077D01*
X020380Y017978D02*
X020580Y017978D01*
X020580Y017880D02*
X020281Y017880D01*
X020190Y017781D02*
X020583Y017781D01*
X020542Y017683D02*
X020190Y017683D01*
X020190Y017584D02*
X020444Y017584D01*
X020345Y017486D02*
X020190Y017486D01*
X020247Y017387D02*
X020190Y017330D01*
X020530Y017104D02*
X020862Y017436D01*
X020981Y017387D01*
X021179Y017387D01*
X020981Y017387D01*
X020797Y017311D01*
X020656Y017171D01*
X020580Y016987D01*
X020580Y016970D01*
X020530Y016920D01*
X020530Y017104D01*
X020530Y017092D02*
X020623Y017092D01*
X020616Y017190D02*
X020676Y017190D01*
X020714Y017289D02*
X020774Y017289D01*
X020813Y017387D02*
X020980Y017387D01*
X021180Y017387D02*
X021980Y017387D01*
X022180Y017387D02*
X022311Y017387D01*
X022410Y017486D02*
X021385Y017486D01*
X021484Y017584D02*
X022508Y017584D01*
X022634Y017683D02*
X021536Y017683D01*
X021577Y017781D02*
X023570Y017781D01*
X023570Y017683D02*
X023326Y017683D01*
X023327Y017584D02*
X023570Y017584D01*
X023519Y017486D02*
X023327Y017486D01*
X023327Y017387D02*
X023421Y017387D01*
X021774Y017289D02*
X021386Y017289D01*
X021484Y017190D02*
X021676Y017190D01*
X021623Y017092D02*
X021537Y017092D01*
X021577Y016993D02*
X021583Y016993D01*
X021580Y016895D02*
X021580Y016895D01*
X021580Y016796D02*
X021580Y016796D01*
X021080Y016887D02*
X020780Y016887D01*
X020580Y016687D01*
X020583Y016993D02*
X020530Y016993D01*
X020872Y018471D02*
X023570Y018471D01*
X023570Y018569D02*
X020971Y018569D01*
X021069Y018668D02*
X023570Y018668D01*
X023570Y018766D02*
X021168Y018766D01*
X021248Y018865D02*
X023570Y018865D01*
X023570Y018963D02*
X021289Y018963D01*
X021340Y019062D02*
X023410Y019062D01*
X023410Y019160D02*
X021399Y019160D01*
X021440Y019259D02*
X023410Y019259D01*
X023410Y019357D02*
X021450Y019357D01*
X021450Y019456D02*
X023410Y019456D01*
X023410Y019554D02*
X021424Y019554D01*
X021383Y019653D02*
X023410Y019653D01*
X023410Y019751D02*
X021302Y019751D01*
X021173Y019850D02*
X023410Y019850D01*
X023439Y019948D02*
X020176Y019948D01*
X020303Y019850D02*
X020687Y019850D01*
X020558Y019751D02*
X020384Y019751D01*
X020424Y019653D02*
X020477Y019653D01*
X019684Y019948D02*
X018421Y019948D01*
X018450Y019850D02*
X018687Y019850D01*
X018558Y019751D02*
X018450Y019751D01*
X018450Y019653D02*
X018477Y019653D01*
X019173Y019850D02*
X019557Y019850D01*
X019476Y019751D02*
X019302Y019751D01*
X019383Y019653D02*
X019436Y019653D01*
X017570Y018963D02*
X015289Y018963D01*
X015248Y018865D02*
X017570Y018865D01*
X017570Y018766D02*
X015168Y018766D01*
X015069Y018668D02*
X017570Y018668D01*
X017570Y018569D02*
X014971Y018569D01*
X014872Y018471D02*
X017570Y018471D01*
X017570Y018372D02*
X015216Y018372D01*
X015401Y018274D02*
X017570Y018274D01*
X017570Y018175D02*
X015499Y018175D01*
X015543Y018077D02*
X017570Y018077D01*
X017570Y017978D02*
X015580Y017978D01*
X015580Y017880D02*
X017570Y017880D01*
X017570Y017781D02*
X015577Y017781D01*
X015536Y017683D02*
X016634Y017683D01*
X016508Y017584D02*
X015484Y017584D01*
X015385Y017486D02*
X016410Y017486D01*
X016311Y017387D02*
X016180Y017387D01*
X015980Y017387D02*
X015180Y017387D01*
X015179Y017387D02*
X014981Y017387D01*
X014862Y017436D01*
X014530Y017104D01*
X014530Y016920D01*
X014580Y016970D01*
X014580Y016987D01*
X014656Y017171D01*
X014797Y017311D01*
X014981Y017387D01*
X015179Y017387D01*
X014980Y017387D02*
X014813Y017387D01*
X014774Y017289D02*
X014714Y017289D01*
X014676Y017190D02*
X014616Y017190D01*
X014623Y017092D02*
X014530Y017092D01*
X014530Y016993D02*
X014583Y016993D01*
X014780Y016887D02*
X014580Y016687D01*
X014580Y015937D01*
X012830Y014187D01*
X012830Y013687D01*
X013105Y013546D02*
X014715Y013546D01*
X014656Y013604D02*
X014797Y013463D01*
X014981Y013387D01*
X014797Y013311D01*
X014782Y013296D01*
X014782Y013364D01*
X014694Y013452D01*
X013192Y013452D01*
X013104Y013364D01*
X013104Y012610D01*
X013192Y012522D01*
X013632Y012522D01*
X013347Y012237D01*
X012066Y012237D01*
X012091Y012263D01*
X012138Y012376D01*
X012138Y012499D01*
X012091Y012612D01*
X012005Y012699D01*
X011891Y012746D01*
X011769Y012746D01*
X011655Y012699D01*
X011594Y012637D01*
X011247Y012637D01*
X011130Y012520D01*
X010197Y011587D01*
X009780Y011587D01*
X009780Y012480D01*
X009797Y012463D01*
X009981Y012387D01*
X010179Y012387D01*
X010363Y012463D01*
X010504Y012604D01*
X010580Y012788D01*
X010580Y012878D01*
X014130Y016428D01*
X014130Y016270D01*
X012247Y014387D01*
X012130Y014270D01*
X012130Y013923D01*
X012069Y013862D01*
X012022Y013749D01*
X012022Y013626D01*
X012069Y013513D01*
X012155Y013426D01*
X012269Y013379D01*
X012391Y013379D01*
X012505Y013426D01*
X012580Y013501D01*
X012655Y013426D01*
X012769Y013379D01*
X012891Y013379D01*
X013005Y013426D01*
X013091Y013513D01*
X013138Y013626D01*
X013138Y013749D01*
X013091Y013862D01*
X013030Y013923D01*
X013030Y014104D01*
X014619Y015694D01*
X014656Y015604D01*
X014797Y015463D01*
X014870Y015433D01*
X014870Y015342D01*
X014797Y015311D01*
X014656Y015171D01*
X014580Y014987D01*
X014580Y014788D01*
X014656Y014604D01*
X014797Y014463D01*
X014981Y014387D01*
X014797Y014311D01*
X014656Y014171D01*
X014580Y013987D01*
X014580Y013788D01*
X014656Y013604D01*
X014640Y013644D02*
X013138Y013644D01*
X013138Y013743D02*
X014599Y013743D01*
X014580Y013841D02*
X013100Y013841D01*
X013030Y013940D02*
X014580Y013940D01*
X014601Y014038D02*
X013030Y014038D01*
X013062Y014137D02*
X014642Y014137D01*
X014721Y014235D02*
X013161Y014235D01*
X013259Y014334D02*
X014851Y014334D01*
X014872Y014432D02*
X013358Y014432D01*
X013456Y014531D02*
X014730Y014531D01*
X014646Y014629D02*
X013555Y014629D01*
X013653Y014728D02*
X014605Y014728D01*
X014580Y014826D02*
X013752Y014826D01*
X013850Y014925D02*
X014580Y014925D01*
X014595Y015023D02*
X013949Y015023D01*
X014047Y015122D02*
X014636Y015122D01*
X014706Y015220D02*
X014146Y015220D01*
X014244Y015319D02*
X014815Y015319D01*
X014870Y015417D02*
X014343Y015417D01*
X014441Y015516D02*
X014745Y015516D01*
X014652Y015614D02*
X014540Y015614D01*
X014330Y016187D02*
X012330Y014187D01*
X012330Y013687D01*
X012055Y013546D02*
X011247Y013546D01*
X011346Y013644D02*
X012022Y013644D01*
X012022Y013743D02*
X011444Y013743D01*
X011543Y013841D02*
X012060Y013841D01*
X012130Y013940D02*
X011641Y013940D01*
X011740Y014038D02*
X012130Y014038D01*
X012130Y014137D02*
X011838Y014137D01*
X011937Y014235D02*
X012130Y014235D01*
X012193Y014334D02*
X012035Y014334D01*
X012134Y014432D02*
X012292Y014432D01*
X012232Y014531D02*
X012390Y014531D01*
X012331Y014629D02*
X012489Y014629D01*
X012429Y014728D02*
X012587Y014728D01*
X012528Y014826D02*
X012686Y014826D01*
X012626Y014925D02*
X012784Y014925D01*
X012725Y015023D02*
X012883Y015023D01*
X012823Y015122D02*
X012981Y015122D01*
X012922Y015220D02*
X013080Y015220D01*
X013020Y015319D02*
X013178Y015319D01*
X013119Y015417D02*
X013277Y015417D01*
X013217Y015516D02*
X013375Y015516D01*
X013316Y015614D02*
X013474Y015614D01*
X013414Y015713D02*
X013572Y015713D01*
X013513Y015811D02*
X013671Y015811D01*
X013611Y015910D02*
X013769Y015910D01*
X013710Y016008D02*
X013868Y016008D01*
X013808Y016107D02*
X013966Y016107D01*
X013907Y016205D02*
X014065Y016205D01*
X014005Y016304D02*
X014130Y016304D01*
X014130Y016402D02*
X014104Y016402D01*
X014780Y016402D02*
X014945Y016402D01*
X014981Y016387D02*
X015179Y016387D01*
X015363Y016463D01*
X015504Y016604D01*
X015580Y016788D01*
X015580Y016987D01*
X015580Y016788D01*
X015614Y016705D01*
X015384Y016474D01*
X015384Y016291D01*
X015363Y016311D01*
X015179Y016387D01*
X014981Y016387D01*
X014797Y016463D01*
X014780Y016480D01*
X014780Y016294D01*
X014797Y016311D01*
X014981Y016387D01*
X014789Y016304D02*
X014780Y016304D01*
X015215Y016402D02*
X015384Y016402D01*
X015371Y016304D02*
X015384Y016304D01*
X015400Y016501D02*
X015410Y016501D01*
X015499Y016599D02*
X015509Y016599D01*
X015543Y016698D02*
X015607Y016698D01*
X015580Y016796D02*
X015580Y016796D01*
X015580Y016895D02*
X015580Y016895D01*
X015577Y016993D02*
X015583Y016993D01*
X015623Y017092D02*
X015537Y017092D01*
X015484Y017190D02*
X015676Y017190D01*
X015774Y017289D02*
X015386Y017289D01*
X015080Y016887D02*
X014780Y016887D01*
X014330Y017187D02*
X014330Y016187D01*
X015584Y016391D02*
X016080Y016887D01*
X015584Y016391D02*
X015584Y011387D01*
X014145Y011387D01*
X013645Y010887D01*
X013645Y010853D01*
X013580Y010787D01*
X012645Y010787D01*
X012295Y011137D01*
X012295Y011472D01*
X012080Y011687D01*
X011792Y011576D02*
X011145Y011576D01*
X011145Y011484D02*
X011145Y011670D01*
X011313Y011837D01*
X011808Y011837D01*
X011772Y011749D01*
X011772Y011626D01*
X011819Y011513D01*
X011905Y011426D01*
X011949Y011408D01*
X011949Y010887D01*
X011446Y010887D01*
X011312Y011021D01*
X011312Y011396D01*
X011224Y011484D01*
X011145Y011484D01*
X011231Y011477D02*
X011854Y011477D01*
X011949Y011379D02*
X011312Y011379D01*
X011312Y011280D02*
X011949Y011280D01*
X011949Y011182D02*
X011312Y011182D01*
X011312Y011083D02*
X011949Y011083D01*
X011949Y010985D02*
X011348Y010985D01*
X011615Y011137D02*
X011615Y011653D01*
X011580Y011687D01*
X011772Y011674D02*
X011150Y011674D01*
X011248Y011773D02*
X011781Y011773D01*
X011230Y012037D02*
X010945Y011753D01*
X010945Y011137D01*
X010945Y011003D01*
X010830Y010887D01*
X010280Y011387D02*
X009580Y011387D01*
X009580Y015387D01*
X009080Y013887D02*
X007870Y015097D01*
X007680Y015097D01*
X007680Y014437D02*
X007830Y014437D01*
X009080Y013187D01*
X009080Y012887D01*
X009780Y012462D02*
X009800Y012462D01*
X009780Y012364D02*
X010973Y012364D01*
X011072Y012462D02*
X010360Y012462D01*
X010460Y012561D02*
X011170Y012561D01*
X011330Y012437D02*
X011830Y012437D01*
X012113Y012561D02*
X013154Y012561D01*
X013104Y012659D02*
X012044Y012659D01*
X012138Y012462D02*
X013572Y012462D01*
X013473Y012364D02*
X012133Y012364D01*
X012092Y012265D02*
X013375Y012265D01*
X013430Y012037D02*
X011230Y012037D01*
X010875Y012265D02*
X009780Y012265D01*
X009780Y012167D02*
X010776Y012167D01*
X010678Y012068D02*
X009780Y012068D01*
X009780Y011970D02*
X010579Y011970D01*
X010481Y011871D02*
X009780Y011871D01*
X009780Y011773D02*
X010382Y011773D01*
X010284Y011674D02*
X009780Y011674D01*
X009580Y011387D02*
X008080Y011387D01*
X007645Y010953D01*
X007645Y010887D01*
X007645Y010853D01*
X007580Y010787D01*
X006480Y010787D01*
X006330Y010937D01*
X006330Y011103D01*
X006295Y011137D01*
X005949Y011182D02*
X005312Y011182D01*
X005312Y011280D02*
X005949Y011280D01*
X005949Y011379D02*
X005312Y011379D01*
X005312Y011396D02*
X005312Y010887D01*
X005949Y010887D01*
X005949Y011416D01*
X006036Y011504D01*
X006554Y011504D01*
X006630Y011428D01*
X006706Y011504D01*
X007048Y011504D01*
X007082Y011537D01*
X007244Y011537D01*
X007305Y011599D01*
X007419Y011646D01*
X007435Y011646D01*
X007369Y011713D01*
X007360Y011734D01*
X007263Y011637D01*
X005313Y011637D01*
X005160Y011484D01*
X005224Y011484D01*
X005312Y011396D01*
X005231Y011477D02*
X006010Y011477D01*
X005980Y011537D02*
X005615Y011172D01*
X005615Y011137D01*
X005312Y011083D02*
X005949Y011083D01*
X005949Y010985D02*
X005312Y010985D01*
X006297Y010687D02*
X006397Y010587D01*
X007320Y010587D01*
X007386Y010521D01*
X007904Y010521D01*
X007980Y010596D01*
X008056Y010521D01*
X008574Y010521D01*
X008657Y010604D01*
X008797Y010463D01*
X008981Y010387D01*
X009179Y010387D01*
X009363Y010463D01*
X009504Y010604D01*
X009538Y010687D01*
X012463Y010687D01*
X012563Y010587D01*
X013320Y010587D01*
X013386Y010521D01*
X013904Y010521D01*
X013980Y010596D01*
X014056Y010521D01*
X014574Y010521D01*
X014657Y010604D01*
X014797Y010463D01*
X014981Y010387D01*
X015179Y010387D01*
X015363Y010463D01*
X015504Y010604D01*
X015538Y010687D01*
X018463Y010687D01*
X018563Y010587D01*
X019320Y010587D01*
X019386Y010521D01*
X019904Y010521D01*
X019980Y010596D01*
X020056Y010521D01*
X020574Y010521D01*
X020657Y010604D01*
X020797Y010463D01*
X020981Y010387D01*
X021179Y010387D01*
X021363Y010463D01*
X021504Y010604D01*
X021538Y010687D01*
X021680Y010687D01*
X021680Y011187D01*
X022480Y011187D01*
X022480Y010620D01*
X022430Y010570D01*
X022430Y010270D01*
X021547Y009387D01*
X018788Y009387D01*
X018773Y009402D01*
X018387Y009402D01*
X018372Y009387D01*
X017709Y009387D01*
X017672Y009402D01*
X017488Y009402D01*
X017451Y009387D01*
X013530Y009387D01*
X013330Y009187D01*
X013308Y009187D01*
X013220Y009099D01*
X013220Y009077D01*
X011380Y007237D01*
X010263Y007237D01*
X010163Y007337D01*
X008747Y007337D01*
X008647Y007237D01*
X005730Y007237D01*
X005484Y006767D01*
X005354Y006767D01*
X005275Y006687D01*
X004830Y006687D01*
X004830Y007437D01*
X007830Y007437D01*
X007830Y006687D01*
X007817Y006687D01*
X007797Y006707D01*
X006803Y006707D01*
X006783Y006687D01*
X006385Y006687D01*
X006306Y006767D01*
X005354Y006767D01*
X005267Y006679D01*
X005267Y006353D01*
X005180Y006187D01*
X003080Y006187D01*
X003080Y010687D01*
X006297Y010687D01*
X006394Y010591D02*
X003080Y010591D01*
X003080Y010492D02*
X008768Y010492D01*
X008670Y010591D02*
X008643Y010591D01*
X008965Y010394D02*
X003080Y010394D01*
X003080Y010295D02*
X022430Y010295D01*
X022430Y010394D02*
X021195Y010394D01*
X021392Y010492D02*
X022430Y010492D01*
X022450Y010591D02*
X021490Y010591D01*
X021680Y010689D02*
X022480Y010689D01*
X022480Y010788D02*
X021680Y010788D01*
X021680Y010886D02*
X022480Y010886D01*
X022480Y010985D02*
X021680Y010985D01*
X021680Y011083D02*
X022480Y011083D01*
X022480Y011182D02*
X021680Y011182D01*
X021587Y011387D02*
X020145Y011387D01*
X019645Y010887D01*
X019645Y010853D01*
X019580Y010787D01*
X018645Y010787D01*
X018295Y011137D01*
X018295Y011472D01*
X018080Y011687D01*
X017792Y011576D02*
X017145Y011576D01*
X017145Y011484D02*
X017145Y011670D01*
X017313Y011837D01*
X017808Y011837D01*
X017772Y011749D01*
X017772Y011626D01*
X017819Y011513D01*
X017905Y011426D01*
X017949Y011408D01*
X017949Y010887D01*
X017312Y010887D01*
X017312Y011396D01*
X017224Y011484D01*
X017145Y011484D01*
X017231Y011477D02*
X017854Y011477D01*
X017949Y011379D02*
X017312Y011379D01*
X017312Y011280D02*
X017949Y011280D01*
X017949Y011182D02*
X017312Y011182D01*
X017312Y011083D02*
X017949Y011083D01*
X017949Y010985D02*
X017312Y010985D01*
X017615Y011137D02*
X017615Y011653D01*
X017580Y011687D01*
X017772Y011674D02*
X017150Y011674D01*
X017248Y011773D02*
X017781Y011773D01*
X017230Y012037D02*
X016945Y011753D01*
X016945Y011137D01*
X016330Y011137D01*
X016080Y010887D01*
X015490Y010591D02*
X018559Y010591D01*
X018965Y011137D02*
X019165Y011337D01*
X019480Y011337D01*
X020315Y010887D02*
X021080Y010887D01*
X020670Y010591D02*
X020643Y010591D01*
X020768Y010492D02*
X015392Y010492D01*
X015195Y010394D02*
X020965Y010394D01*
X019986Y010591D02*
X019974Y010591D01*
X021864Y009704D02*
X011403Y009704D01*
X011403Y009648D02*
X011403Y009810D01*
X011341Y009960D01*
X011226Y010075D01*
X011076Y010137D01*
X010914Y010137D01*
X010765Y010075D01*
X010650Y009960D01*
X010588Y009810D01*
X010588Y009648D01*
X010650Y009499D01*
X010765Y009384D01*
X010914Y009322D01*
X011076Y009322D01*
X011226Y009384D01*
X011341Y009499D01*
X011403Y009648D01*
X011385Y009606D02*
X021765Y009606D01*
X021667Y009507D02*
X011344Y009507D01*
X011251Y009409D02*
X021568Y009409D01*
X021630Y009187D02*
X021180Y009187D01*
X021180Y008837D01*
X021180Y009187D02*
X019580Y009187D01*
X018830Y008437D01*
X017080Y008437D01*
X016530Y007887D01*
X016250Y007887D01*
X017081Y007439D02*
X019330Y007439D01*
X019330Y007537D02*
X017180Y007537D01*
X017278Y007636D02*
X019330Y007636D01*
X019330Y007734D02*
X017377Y007734D01*
X017475Y007833D02*
X019330Y007833D01*
X019330Y007931D02*
X017574Y007931D01*
X017672Y008030D02*
X019330Y008030D01*
X019330Y008128D02*
X017771Y008128D01*
X017830Y008187D02*
X019330Y008187D01*
X019330Y006487D01*
X018147Y006487D01*
X018097Y006437D01*
X018080Y006437D01*
X018080Y006420D01*
X018030Y006370D01*
X018030Y002954D01*
X018080Y002904D01*
X018080Y001187D01*
X017830Y000937D01*
X014830Y000937D01*
X014830Y005187D01*
X016671Y007029D01*
X016745Y007029D01*
X016833Y007117D01*
X016833Y007190D01*
X017830Y008187D01*
X017938Y008637D02*
X017974Y008674D01*
X018045Y008845D01*
X018045Y009030D01*
X017980Y009187D01*
X019297Y009187D01*
X018747Y008637D01*
X017938Y008637D01*
X017993Y008719D02*
X018829Y008719D01*
X018927Y008818D02*
X018034Y008818D01*
X018045Y008916D02*
X019026Y008916D01*
X019124Y009015D02*
X018045Y009015D01*
X018011Y009113D02*
X019223Y009113D01*
X019745Y008403D02*
X020080Y008737D01*
X020630Y008737D01*
X021030Y008337D01*
X022030Y008337D01*
X022430Y008737D01*
X022430Y009737D01*
X022980Y010287D01*
X025080Y010287D01*
X025330Y010037D01*
X026630Y010037D01*
X026780Y009887D01*
X026780Y009272D01*
X027180Y009672D01*
X026780Y009272D02*
X026511Y009003D01*
X026380Y009003D01*
X026680Y008637D02*
X025430Y008637D01*
X025280Y008487D01*
X024930Y008537D02*
X024930Y008287D01*
X024930Y008537D02*
X025395Y009003D01*
X025580Y009003D01*
X025445Y009003D01*
X025580Y009003D02*
X025711Y009003D01*
X026380Y009672D01*
X025580Y009672D02*
X025180Y009272D01*
X025180Y009887D01*
X024980Y010087D01*
X023030Y010087D01*
X022630Y009687D01*
X022630Y008437D01*
X022730Y008337D01*
X022745Y008337D01*
X022745Y007787D01*
X022845Y007687D01*
X022830Y007672D01*
X022330Y007636D02*
X020830Y007636D01*
X020830Y007734D02*
X022330Y007734D01*
X022330Y007833D02*
X020830Y007833D01*
X020830Y007931D02*
X022330Y007931D01*
X022330Y008030D02*
X020830Y008030D01*
X020830Y008128D02*
X022330Y008128D01*
X022330Y008187D02*
X022330Y006487D01*
X021147Y006487D01*
X021097Y006437D01*
X020963Y006437D01*
X020913Y006487D01*
X020830Y006487D01*
X020830Y008187D01*
X020897Y008187D01*
X020947Y008137D01*
X022113Y008137D01*
X022163Y008187D01*
X022330Y008187D01*
X021947Y008537D02*
X021460Y008537D01*
X021528Y008605D01*
X021590Y008756D01*
X021590Y008919D01*
X021562Y008987D01*
X021713Y008987D01*
X022230Y009504D01*
X022230Y008820D01*
X021947Y008537D01*
X022030Y008621D02*
X021534Y008621D01*
X021575Y008719D02*
X022129Y008719D01*
X022227Y008818D02*
X021590Y008818D01*
X021590Y008916D02*
X022230Y008916D01*
X022230Y009015D02*
X021740Y009015D01*
X021839Y009113D02*
X022230Y009113D01*
X022230Y009212D02*
X021937Y009212D01*
X022036Y009310D02*
X022230Y009310D01*
X022230Y009409D02*
X022134Y009409D01*
X021630Y009187D02*
X022630Y010187D01*
X022630Y010487D01*
X022880Y010737D01*
X024130Y010737D01*
X025530Y010737D01*
X025645Y010853D01*
X025645Y010887D01*
X026315Y010887D02*
X027080Y010887D01*
X028070Y010886D02*
X028391Y010886D01*
X028391Y010880D02*
X028435Y010774D01*
X028516Y010693D01*
X028623Y010649D01*
X028737Y010649D01*
X028844Y010693D01*
X028865Y010714D01*
X028865Y010681D01*
X028953Y010593D01*
X029232Y010593D01*
X029210Y010539D01*
X028749Y010539D01*
X028736Y010553D01*
X028410Y010553D01*
X028409Y010553D01*
X028408Y010553D01*
X028070Y010553D01*
X028070Y011909D01*
X028170Y012009D01*
X028170Y012716D01*
X027969Y012917D01*
X027969Y012995D01*
X027925Y013101D01*
X027844Y013182D01*
X027737Y013226D01*
X027623Y013226D01*
X027516Y013182D01*
X027504Y013170D01*
X027504Y013171D01*
X027363Y013311D01*
X027179Y013387D01*
X026981Y013387D01*
X027179Y013387D01*
X027363Y013463D01*
X027504Y013604D01*
X027580Y013788D01*
X027580Y013849D01*
X027637Y013849D01*
X027646Y013852D01*
X028617Y012882D01*
X029308Y012882D01*
X029308Y012793D01*
X029396Y012705D01*
X029739Y012705D01*
X029880Y012564D01*
X029880Y012270D01*
X029655Y012045D01*
X029655Y011405D01*
X029651Y011409D01*
X029651Y011884D01*
X029319Y012217D01*
X029319Y012295D01*
X029275Y012401D01*
X029194Y012482D01*
X029087Y012526D01*
X028973Y012526D01*
X028866Y012482D01*
X028785Y012401D01*
X028741Y012295D01*
X028741Y012180D01*
X028785Y012074D01*
X028866Y011993D01*
X028973Y011949D01*
X029050Y011949D01*
X029137Y011861D01*
X029066Y011832D01*
X028985Y011751D01*
X028941Y011645D01*
X028941Y011530D01*
X028960Y011484D01*
X028953Y011484D01*
X028865Y011396D01*
X028865Y011228D01*
X028702Y011228D01*
X028700Y011226D01*
X028623Y011226D01*
X028516Y011182D01*
X028435Y011101D01*
X028391Y010995D01*
X028391Y010880D01*
X028429Y010788D02*
X028070Y010788D01*
X028070Y010689D02*
X028525Y010689D01*
X028835Y010689D02*
X028865Y010689D01*
X029231Y010591D02*
X028070Y010591D01*
X028070Y010985D02*
X028391Y010985D01*
X028428Y011083D02*
X028070Y011083D01*
X028070Y011182D02*
X028516Y011182D01*
X028865Y011280D02*
X028070Y011280D01*
X028070Y011379D02*
X028865Y011379D01*
X028946Y011477D02*
X028070Y011477D01*
X028070Y011576D02*
X028941Y011576D01*
X028953Y011674D02*
X028070Y011674D01*
X028070Y011773D02*
X029007Y011773D01*
X029128Y011871D02*
X028070Y011871D01*
X028131Y011970D02*
X028922Y011970D01*
X028791Y012068D02*
X028170Y012068D01*
X028170Y012167D02*
X028747Y012167D01*
X028741Y012265D02*
X028170Y012265D01*
X028170Y012364D02*
X028770Y012364D01*
X028846Y012462D02*
X028170Y012462D01*
X028170Y012561D02*
X029880Y012561D01*
X029880Y012462D02*
X029214Y012462D01*
X029290Y012364D02*
X029880Y012364D01*
X029875Y012265D02*
X029319Y012265D01*
X029369Y012167D02*
X029776Y012167D01*
X029678Y012068D02*
X029468Y012068D01*
X029566Y011970D02*
X029655Y011970D01*
X029651Y011871D02*
X029655Y011871D01*
X029651Y011773D02*
X029655Y011773D01*
X029651Y011674D02*
X029655Y011674D01*
X029651Y011576D02*
X029655Y011576D01*
X029651Y011477D02*
X029655Y011477D01*
X029658Y011038D02*
X029658Y010709D01*
X029880Y010487D01*
X029918Y010394D02*
X029769Y010394D01*
X029769Y010380D02*
X029747Y010328D01*
X029798Y010277D01*
X029801Y010277D01*
X030059Y010535D01*
X030059Y010593D01*
X029740Y010593D01*
X029658Y010675D01*
X029655Y010671D01*
X029725Y010601D01*
X029769Y010495D01*
X029769Y010380D01*
X029781Y010295D02*
X029819Y010295D01*
X029769Y010492D02*
X030016Y010492D01*
X030059Y010591D02*
X029729Y010591D01*
X029658Y011038D02*
X029658Y012399D01*
X029655Y012403D01*
X030080Y012187D02*
X030080Y012647D01*
X030010Y012717D01*
X030010Y012817D01*
X030030Y012837D01*
X030010Y012717D02*
X029655Y013072D01*
X029308Y012856D02*
X028030Y012856D01*
X027969Y012955D02*
X028544Y012955D01*
X028446Y013053D02*
X027945Y013053D01*
X027874Y013152D02*
X028347Y013152D01*
X028249Y013250D02*
X027424Y013250D01*
X027273Y013349D02*
X028150Y013349D01*
X028052Y013447D02*
X027324Y013447D01*
X027445Y013546D02*
X027953Y013546D01*
X027855Y013644D02*
X027520Y013644D01*
X027561Y013743D02*
X027756Y013743D01*
X027658Y013841D02*
X027580Y013841D01*
X026836Y013447D02*
X026699Y013447D01*
X026715Y013546D02*
X026280Y013546D01*
X026280Y013644D02*
X026640Y013644D01*
X026599Y013743D02*
X026280Y013743D01*
X026280Y013841D02*
X026580Y013841D01*
X026580Y013940D02*
X026280Y013940D01*
X026280Y014038D02*
X026601Y014038D01*
X026642Y014137D02*
X026280Y014137D01*
X026280Y014235D02*
X026714Y014235D01*
X026615Y014334D02*
X026280Y014334D01*
X026280Y014432D02*
X026517Y014432D01*
X026418Y014531D02*
X026280Y014531D01*
X026280Y014629D02*
X026390Y014629D01*
X026390Y014728D02*
X026280Y014728D01*
X026280Y014826D02*
X026390Y014826D01*
X026390Y014925D02*
X026280Y014925D01*
X026346Y015023D02*
X026390Y015023D01*
X026387Y015122D02*
X026390Y015122D01*
X026388Y015220D02*
X026390Y015220D01*
X026390Y015319D02*
X026359Y015319D01*
X026390Y015417D02*
X026286Y015417D01*
X026080Y015187D02*
X026080Y013124D01*
X025943Y012987D01*
X025943Y012550D01*
X025430Y012037D01*
X023230Y012037D01*
X022945Y011753D01*
X022945Y011137D01*
X022330Y011137D01*
X022080Y010887D01*
X022356Y010197D02*
X003080Y010197D01*
X003080Y010098D02*
X005899Y010098D01*
X005843Y010075D02*
X005993Y010137D01*
X006155Y010137D01*
X006305Y010075D01*
X006420Y009960D01*
X006482Y009810D01*
X006482Y009648D01*
X006420Y009499D01*
X006305Y009384D01*
X006155Y009322D01*
X005993Y009322D01*
X005843Y009384D01*
X005729Y009499D01*
X005667Y009648D01*
X005667Y009810D01*
X005729Y009960D01*
X005843Y010075D01*
X005768Y010000D02*
X003080Y010000D01*
X003080Y009901D02*
X005704Y009901D01*
X005667Y009803D02*
X003080Y009803D01*
X003080Y009704D02*
X005667Y009704D01*
X005684Y009606D02*
X003080Y009606D01*
X003080Y009507D02*
X005725Y009507D01*
X005819Y009409D02*
X003080Y009409D01*
X003080Y009310D02*
X013453Y009310D01*
X013354Y009212D02*
X003080Y009212D01*
X003080Y009113D02*
X005390Y009113D01*
X005335Y009091D02*
X005221Y008976D01*
X005159Y008826D01*
X005159Y008664D01*
X005221Y008514D01*
X005335Y008400D01*
X005485Y008338D01*
X005647Y008338D01*
X005797Y008400D01*
X005912Y008514D01*
X005974Y008664D01*
X005974Y008826D01*
X005912Y008976D01*
X005797Y009091D01*
X005647Y009153D01*
X005485Y009153D01*
X005335Y009091D01*
X005259Y009015D02*
X003080Y009015D01*
X003080Y008916D02*
X005196Y008916D01*
X005159Y008818D02*
X003080Y008818D01*
X003080Y008719D02*
X005159Y008719D01*
X005177Y008621D02*
X003080Y008621D01*
X003080Y008522D02*
X005218Y008522D01*
X005312Y008424D02*
X003080Y008424D01*
X003080Y008325D02*
X012468Y008325D01*
X012566Y008424D02*
X010893Y008424D01*
X010895Y008426D02*
X010807Y008338D01*
X010168Y008338D01*
X010080Y008426D01*
X010080Y009065D01*
X010168Y009153D01*
X010807Y009153D01*
X010895Y009065D01*
X010895Y008426D01*
X010895Y008522D02*
X012665Y008522D01*
X012763Y008621D02*
X010895Y008621D01*
X010895Y008719D02*
X012862Y008719D01*
X012960Y008818D02*
X010895Y008818D01*
X010895Y008916D02*
X013059Y008916D01*
X013157Y009015D02*
X010895Y009015D01*
X010847Y009113D02*
X013234Y009113D01*
X013342Y008916D02*
X014955Y008916D01*
X014857Y008818D02*
X013243Y008818D01*
X013145Y008719D02*
X014758Y008719D01*
X014660Y008621D02*
X013046Y008621D01*
X013013Y008587D02*
X013613Y009187D01*
X017180Y009187D01*
X015280Y009187D01*
X015188Y009149D01*
X014626Y008587D01*
X013013Y008587D01*
X013440Y009015D02*
X015054Y009015D01*
X015152Y009113D02*
X013539Y009113D01*
X012369Y008227D02*
X003080Y008227D01*
X003080Y008128D02*
X012271Y008128D01*
X012172Y008030D02*
X003080Y008030D01*
X003080Y007931D02*
X012074Y007931D01*
X011975Y007833D02*
X003080Y007833D01*
X003080Y007734D02*
X011877Y007734D01*
X011778Y007636D02*
X003080Y007636D01*
X003080Y007537D02*
X011680Y007537D01*
X011581Y007439D02*
X003080Y007439D01*
X003080Y007340D02*
X011483Y007340D01*
X011384Y007242D02*
X010259Y007242D01*
X010255Y007037D02*
X010255Y005975D01*
X010343Y005887D01*
X010655Y005887D01*
X010655Y005616D01*
X010287Y005248D01*
X008580Y005248D01*
X008580Y005437D01*
X008542Y005529D01*
X007922Y006149D01*
X007830Y006187D01*
X007817Y006187D01*
X007817Y006187D01*
X007885Y006255D01*
X007885Y006487D01*
X007913Y006487D01*
X008030Y006604D01*
X008030Y007037D01*
X010255Y007037D01*
X010255Y006946D02*
X008030Y006946D01*
X008030Y006848D02*
X010255Y006848D01*
X010255Y006749D02*
X008030Y006749D01*
X008030Y006651D02*
X010255Y006651D01*
X010255Y006552D02*
X007978Y006552D01*
X007885Y006454D02*
X010255Y006454D01*
X010255Y006355D02*
X007885Y006355D01*
X007885Y006257D02*
X010255Y006257D01*
X010255Y006158D02*
X007900Y006158D01*
X008011Y006060D02*
X010255Y006060D01*
X010269Y005961D02*
X008110Y005961D01*
X008208Y005863D02*
X010655Y005863D01*
X010655Y005764D02*
X008307Y005764D01*
X008405Y005666D02*
X010655Y005666D01*
X010606Y005567D02*
X008504Y005567D01*
X008567Y005469D02*
X010508Y005469D01*
X010409Y005370D02*
X008580Y005370D01*
X008580Y005272D02*
X010311Y005272D01*
X010080Y005272D02*
X008830Y005272D01*
X008830Y005248D02*
X008830Y007137D01*
X010080Y007137D01*
X010080Y005248D01*
X008830Y005248D01*
X008830Y005370D02*
X010080Y005370D01*
X010080Y005469D02*
X008830Y005469D01*
X008830Y005567D02*
X010080Y005567D01*
X010080Y005666D02*
X008830Y005666D01*
X008830Y005764D02*
X010080Y005764D01*
X010080Y005863D02*
X008830Y005863D01*
X008830Y005961D02*
X010080Y005961D01*
X010080Y006060D02*
X008830Y006060D01*
X008830Y006158D02*
X010080Y006158D01*
X010080Y006257D02*
X008830Y006257D01*
X008830Y006355D02*
X010080Y006355D01*
X010080Y006454D02*
X008830Y006454D01*
X008830Y006552D02*
X010080Y006552D01*
X010080Y006651D02*
X008830Y006651D01*
X008830Y006749D02*
X010080Y006749D01*
X010080Y006848D02*
X008830Y006848D01*
X008830Y006946D02*
X010080Y006946D01*
X010080Y007045D02*
X008830Y007045D01*
X008651Y007242D02*
X003080Y007242D01*
X003080Y007143D02*
X005681Y007143D01*
X005629Y007045D02*
X003080Y007045D01*
X003080Y006946D02*
X005577Y006946D01*
X005526Y006848D02*
X003080Y006848D01*
X003080Y006749D02*
X005337Y006749D01*
X004830Y006749D01*
X004830Y006848D02*
X007830Y006848D01*
X007830Y006946D02*
X004830Y006946D01*
X004830Y007045D02*
X007830Y007045D01*
X007830Y007143D02*
X004830Y007143D01*
X004830Y007242D02*
X007830Y007242D01*
X007830Y007340D02*
X004830Y007340D01*
X005267Y006651D02*
X003080Y006651D01*
X003080Y006552D02*
X005267Y006552D01*
X005267Y006454D02*
X003080Y006454D01*
X003080Y006355D02*
X005267Y006355D01*
X005216Y006257D02*
X003080Y006257D01*
X002985Y006000D02*
X002997Y005987D01*
X004830Y005987D01*
X004830Y004388D01*
X004868Y004296D01*
X005738Y003425D01*
X005830Y003387D01*
X006080Y003387D01*
X006086Y003374D01*
X006217Y003243D01*
X006388Y003172D01*
X006572Y003172D01*
X006743Y003243D01*
X006768Y003268D01*
X006960Y003075D01*
X006960Y001984D01*
X007001Y001884D01*
X007077Y001808D01*
X007527Y001358D01*
X007578Y001337D01*
X006581Y001337D01*
X006581Y001646D01*
X006493Y001734D01*
X005936Y001734D01*
X005848Y001646D01*
X005848Y001128D01*
X005936Y001040D01*
X006244Y001040D01*
X006347Y000937D01*
X013763Y000937D01*
X013880Y001054D01*
X013880Y001054D01*
X013963Y001137D01*
X014080Y001254D01*
X014080Y001257D01*
X014175Y001296D01*
X014321Y001443D01*
X014400Y001634D01*
X014400Y001841D01*
X014321Y002032D01*
X014240Y002113D01*
X014240Y002362D01*
X014321Y002443D01*
X014400Y002634D01*
X014400Y002841D01*
X014321Y003032D01*
X014207Y003146D01*
X014277Y003217D01*
X014277Y003892D01*
X014189Y003980D01*
X013671Y003980D01*
X013583Y003892D01*
X013583Y003637D01*
X013068Y003122D01*
X012983Y003157D01*
X012777Y003157D01*
X012590Y003080D01*
X012590Y003291D01*
X012377Y003504D01*
X012377Y003892D01*
X012289Y003980D01*
X011771Y003980D01*
X011683Y003892D01*
X011683Y003219D01*
X011585Y003178D01*
X011439Y003032D01*
X011360Y002841D01*
X011360Y002634D01*
X011439Y002443D01*
X011585Y002296D01*
X011610Y002286D01*
X011610Y002188D01*
X011585Y002178D01*
X011439Y002032D01*
X011367Y001857D01*
X010801Y001857D01*
X010858Y001914D01*
X010858Y003160D01*
X010770Y003248D01*
X008623Y003248D01*
X008045Y003826D01*
X010770Y003826D01*
X010858Y003914D01*
X010858Y005112D01*
X011117Y005371D01*
X011155Y005463D01*
X011155Y005887D01*
X011245Y005887D01*
X011238Y005881D01*
X011238Y005363D01*
X011326Y005275D01*
X011744Y005275D01*
X011765Y005224D01*
X011846Y005143D01*
X011953Y005099D01*
X012038Y005099D01*
X012038Y004694D01*
X012057Y004675D01*
X012057Y004083D01*
X012145Y003995D01*
X012663Y003995D01*
X012710Y004042D01*
X012710Y003941D01*
X012672Y003849D01*
X012672Y003726D01*
X012719Y003613D01*
X012805Y003526D01*
X012919Y003479D01*
X013041Y003479D01*
X013155Y003526D01*
X013241Y003613D01*
X013288Y003726D01*
X013288Y003849D01*
X013250Y003941D01*
X013250Y004483D01*
X013288Y004576D01*
X013288Y004699D01*
X013250Y004791D01*
X013250Y005276D01*
X013251Y005275D01*
X013664Y005275D01*
X013685Y005224D01*
X013766Y005143D01*
X013873Y005099D01*
X013963Y005099D01*
X013963Y004764D01*
X013957Y004758D01*
X013957Y004083D01*
X014045Y003995D01*
X014563Y003995D01*
X014630Y004062D01*
X014630Y000854D01*
X014642Y000842D01*
X003655Y000842D01*
X003572Y000842D01*
X003480Y000849D01*
X003305Y000906D01*
X003157Y001014D01*
X003049Y001163D01*
X002992Y001338D01*
X002985Y001429D01*
X002985Y006000D01*
X002985Y005961D02*
X004830Y005961D01*
X004830Y005863D02*
X002985Y005863D01*
X002985Y005764D02*
X004830Y005764D01*
X004830Y005666D02*
X002985Y005666D01*
X002985Y005567D02*
X004830Y005567D01*
X004830Y005469D02*
X002985Y005469D01*
X002985Y005370D02*
X004830Y005370D01*
X004830Y005272D02*
X002985Y005272D01*
X002985Y005173D02*
X004830Y005173D01*
X004830Y005075D02*
X002985Y005075D01*
X002985Y004976D02*
X004830Y004976D01*
X004830Y004878D02*
X002985Y004878D01*
X002985Y004779D02*
X004830Y004779D01*
X004830Y004681D02*
X002985Y004681D01*
X002985Y004582D02*
X004830Y004582D01*
X004830Y004484D02*
X002985Y004484D01*
X002985Y004385D02*
X004831Y004385D01*
X004877Y004287D02*
X002985Y004287D01*
X002985Y004188D02*
X004976Y004188D01*
X005074Y004090D02*
X002985Y004090D01*
X002985Y003991D02*
X005173Y003991D01*
X005271Y003893D02*
X002985Y003893D01*
X002985Y003794D02*
X005370Y003794D01*
X005468Y003696D02*
X002985Y003696D01*
X002985Y003597D02*
X005567Y003597D01*
X005665Y003499D02*
X002985Y003499D01*
X002985Y003400D02*
X005800Y003400D01*
X006158Y003302D02*
X002985Y003302D01*
X002985Y003203D02*
X006313Y003203D01*
X006647Y003203D02*
X006832Y003203D01*
X006931Y003105D02*
X002985Y003105D01*
X002985Y003006D02*
X006960Y003006D01*
X006960Y002908D02*
X002985Y002908D01*
X002985Y002809D02*
X006960Y002809D01*
X006960Y002711D02*
X002985Y002711D01*
X002985Y002612D02*
X006960Y002612D01*
X006960Y002514D02*
X002985Y002514D01*
X002985Y002415D02*
X006960Y002415D01*
X006960Y002317D02*
X002985Y002317D01*
X002985Y002218D02*
X006960Y002218D01*
X006960Y002120D02*
X002985Y002120D01*
X002985Y002021D02*
X006960Y002021D01*
X006985Y001923D02*
X002985Y001923D01*
X002985Y001824D02*
X007061Y001824D01*
X007160Y001726D02*
X006502Y001726D01*
X006581Y001627D02*
X007258Y001627D01*
X007357Y001529D02*
X006581Y001529D01*
X006581Y001430D02*
X007455Y001430D01*
X007792Y001857D02*
X007500Y002149D01*
X007500Y003241D01*
X007459Y003340D01*
X007383Y003416D01*
X006933Y003866D01*
X006879Y003888D01*
X006874Y003901D01*
X006743Y004032D01*
X006572Y004102D01*
X006388Y004102D01*
X006217Y004032D01*
X006086Y003901D01*
X006080Y003887D01*
X005984Y003887D01*
X005330Y004541D01*
X005330Y005991D01*
X005354Y005967D01*
X006303Y005967D01*
X006303Y004914D01*
X006342Y004822D01*
X007915Y003248D01*
X007890Y003248D01*
X007802Y003160D01*
X007802Y001914D01*
X007859Y001857D01*
X007792Y001857D01*
X007802Y001923D02*
X007727Y001923D01*
X007802Y002021D02*
X007628Y002021D01*
X007530Y002120D02*
X007802Y002120D01*
X007802Y002218D02*
X007500Y002218D01*
X007500Y002317D02*
X007802Y002317D01*
X007802Y002415D02*
X007500Y002415D01*
X007500Y002514D02*
X007802Y002514D01*
X007802Y002612D02*
X007500Y002612D01*
X007500Y002711D02*
X007802Y002711D01*
X007802Y002809D02*
X007500Y002809D01*
X007500Y002908D02*
X007802Y002908D01*
X007802Y003006D02*
X007500Y003006D01*
X007500Y003105D02*
X007802Y003105D01*
X007845Y003203D02*
X007500Y003203D01*
X007475Y003302D02*
X007862Y003302D01*
X007764Y003400D02*
X007399Y003400D01*
X007301Y003499D02*
X007665Y003499D01*
X007567Y003597D02*
X007202Y003597D01*
X007104Y003696D02*
X007468Y003696D01*
X007370Y003794D02*
X007005Y003794D01*
X006878Y003893D02*
X007271Y003893D01*
X007173Y003991D02*
X006784Y003991D01*
X006603Y004090D02*
X007074Y004090D01*
X006976Y004188D02*
X005683Y004188D01*
X005781Y004090D02*
X006357Y004090D01*
X006176Y003991D02*
X005880Y003991D01*
X005978Y003893D02*
X006082Y003893D01*
X005584Y004287D02*
X006877Y004287D01*
X006779Y004385D02*
X005486Y004385D01*
X005387Y004484D02*
X006680Y004484D01*
X006582Y004582D02*
X005330Y004582D01*
X005330Y004681D02*
X006483Y004681D01*
X006385Y004779D02*
X005330Y004779D01*
X005330Y004878D02*
X006319Y004878D01*
X006303Y004976D02*
X005330Y004976D01*
X005330Y005075D02*
X006303Y005075D01*
X006303Y005173D02*
X005330Y005173D01*
X005330Y005272D02*
X006303Y005272D01*
X006303Y005370D02*
X005330Y005370D01*
X005330Y005469D02*
X006303Y005469D01*
X006303Y005567D02*
X005330Y005567D01*
X005330Y005666D02*
X006303Y005666D01*
X006303Y005764D02*
X005330Y005764D01*
X005330Y005863D02*
X006303Y005863D01*
X006303Y005961D02*
X005330Y005961D01*
X006803Y005667D02*
X006803Y005067D01*
X007802Y004069D01*
X007802Y005160D01*
X007890Y005248D01*
X008080Y005248D01*
X008080Y005284D01*
X007696Y005667D01*
X006803Y005667D01*
X006803Y005666D02*
X007698Y005666D01*
X007797Y005567D02*
X006803Y005567D01*
X006803Y005469D02*
X007895Y005469D01*
X007994Y005370D02*
X006803Y005370D01*
X006803Y005272D02*
X008080Y005272D01*
X007815Y005173D02*
X006803Y005173D01*
X006803Y005075D02*
X007802Y005075D01*
X007802Y004976D02*
X006895Y004976D01*
X006993Y004878D02*
X007802Y004878D01*
X007802Y004779D02*
X007092Y004779D01*
X007190Y004681D02*
X007802Y004681D01*
X007802Y004582D02*
X007289Y004582D01*
X007387Y004484D02*
X007802Y004484D01*
X007802Y004385D02*
X007486Y004385D01*
X007584Y004287D02*
X007802Y004287D01*
X007802Y004188D02*
X007683Y004188D01*
X007781Y004090D02*
X007802Y004090D01*
X008077Y003794D02*
X011683Y003794D01*
X011683Y003696D02*
X008175Y003696D01*
X008274Y003597D02*
X011683Y003597D01*
X011683Y003499D02*
X008372Y003499D01*
X008471Y003400D02*
X011683Y003400D01*
X011683Y003302D02*
X008569Y003302D01*
X010815Y003203D02*
X011646Y003203D01*
X011512Y003105D02*
X010858Y003105D01*
X010858Y003006D02*
X011428Y003006D01*
X011388Y002908D02*
X010858Y002908D01*
X010858Y002809D02*
X011360Y002809D01*
X011360Y002711D02*
X010858Y002711D01*
X010858Y002612D02*
X011369Y002612D01*
X011410Y002514D02*
X010858Y002514D01*
X010858Y002415D02*
X011467Y002415D01*
X011565Y002317D02*
X010858Y002317D01*
X010858Y002218D02*
X011610Y002218D01*
X011527Y002120D02*
X010858Y002120D01*
X010858Y002021D02*
X011435Y002021D01*
X011394Y001923D02*
X010858Y001923D01*
X012590Y003105D02*
X012649Y003105D01*
X012590Y003203D02*
X013149Y003203D01*
X013247Y003302D02*
X012580Y003302D01*
X012481Y003400D02*
X013346Y003400D01*
X013444Y003499D02*
X013089Y003499D01*
X013226Y003597D02*
X013543Y003597D01*
X013583Y003696D02*
X013276Y003696D01*
X013288Y003794D02*
X013583Y003794D01*
X013584Y003893D02*
X013270Y003893D01*
X013250Y003991D02*
X014630Y003991D01*
X014630Y003893D02*
X014276Y003893D01*
X014277Y003794D02*
X014630Y003794D01*
X014630Y003696D02*
X014277Y003696D01*
X014277Y003597D02*
X014630Y003597D01*
X014630Y003499D02*
X014277Y003499D01*
X014277Y003400D02*
X014630Y003400D01*
X014630Y003302D02*
X014277Y003302D01*
X014263Y003203D02*
X014630Y003203D01*
X014630Y003105D02*
X014248Y003105D01*
X014332Y003006D02*
X014630Y003006D01*
X014630Y002908D02*
X014372Y002908D01*
X014400Y002809D02*
X014630Y002809D01*
X014630Y002711D02*
X014400Y002711D01*
X014391Y002612D02*
X014630Y002612D01*
X014630Y002514D02*
X014350Y002514D01*
X014293Y002415D02*
X014630Y002415D01*
X014630Y002317D02*
X014240Y002317D01*
X014240Y002218D02*
X014630Y002218D01*
X014630Y002120D02*
X014240Y002120D01*
X014325Y002021D02*
X014630Y002021D01*
X014630Y001923D02*
X014366Y001923D01*
X014400Y001824D02*
X014630Y001824D01*
X014630Y001726D02*
X014400Y001726D01*
X014397Y001627D02*
X014630Y001627D01*
X014630Y001529D02*
X014356Y001529D01*
X014308Y001430D02*
X014630Y001430D01*
X014630Y001332D02*
X014210Y001332D01*
X014059Y001233D02*
X014630Y001233D01*
X014630Y001135D02*
X013960Y001135D01*
X013963Y001137D02*
X013963Y001137D01*
X013862Y001036D02*
X014630Y001036D01*
X014630Y000938D02*
X013763Y000938D01*
X013680Y001137D02*
X013880Y001337D01*
X013880Y001737D01*
X014830Y001726D02*
X015278Y001726D01*
X015230Y001773D02*
X015366Y001637D01*
X015545Y001563D01*
X015737Y001563D01*
X015916Y001637D01*
X016052Y001773D01*
X016126Y001952D01*
X016126Y002144D01*
X016052Y002322D01*
X015916Y002459D01*
X015737Y002533D01*
X015545Y002533D01*
X015366Y002459D01*
X015230Y002322D01*
X015156Y002144D01*
X015156Y001952D01*
X015230Y001773D01*
X015209Y001824D02*
X014830Y001824D01*
X014830Y001923D02*
X015168Y001923D01*
X015156Y002021D02*
X014830Y002021D01*
X014830Y002120D02*
X015156Y002120D01*
X015187Y002218D02*
X014830Y002218D01*
X014830Y002317D02*
X015228Y002317D01*
X015323Y002415D02*
X014830Y002415D01*
X014830Y002514D02*
X015499Y002514D01*
X015783Y002514D02*
X018080Y002514D01*
X018080Y002612D02*
X014830Y002612D01*
X014830Y002711D02*
X018080Y002711D01*
X018080Y002809D02*
X014830Y002809D01*
X014830Y002908D02*
X018077Y002908D01*
X018030Y003006D02*
X014830Y003006D01*
X014830Y003105D02*
X018030Y003105D01*
X018030Y003203D02*
X014830Y003203D01*
X014830Y003302D02*
X018030Y003302D01*
X018030Y003400D02*
X014830Y003400D01*
X014830Y003499D02*
X018030Y003499D01*
X018030Y003597D02*
X014830Y003597D01*
X014830Y003696D02*
X018030Y003696D01*
X018030Y003794D02*
X014830Y003794D01*
X014830Y003893D02*
X018030Y003893D01*
X018030Y003991D02*
X014830Y003991D01*
X014830Y004090D02*
X018030Y004090D01*
X018030Y004188D02*
X014830Y004188D01*
X014830Y004287D02*
X018030Y004287D01*
X018030Y004385D02*
X014830Y004385D01*
X014830Y004484D02*
X018030Y004484D01*
X018030Y004582D02*
X014830Y004582D01*
X014830Y004681D02*
X018030Y004681D01*
X018030Y004779D02*
X014830Y004779D01*
X014830Y004878D02*
X018030Y004878D01*
X018030Y004976D02*
X014830Y004976D01*
X014830Y005075D02*
X018030Y005075D01*
X018030Y005173D02*
X014830Y005173D01*
X014914Y005272D02*
X018030Y005272D01*
X018030Y005370D02*
X015013Y005370D01*
X015111Y005469D02*
X018030Y005469D01*
X018030Y005567D02*
X015210Y005567D01*
X015308Y005666D02*
X018030Y005666D01*
X018030Y005764D02*
X015407Y005764D01*
X015505Y005863D02*
X018030Y005863D01*
X018030Y005961D02*
X015604Y005961D01*
X015702Y006060D02*
X018030Y006060D01*
X018030Y006158D02*
X015801Y006158D01*
X015899Y006257D02*
X018030Y006257D01*
X018030Y006355D02*
X015998Y006355D01*
X016096Y006454D02*
X018113Y006454D01*
X018230Y006287D02*
X020830Y006287D01*
X020830Y000937D01*
X019180Y000937D01*
X019180Y002087D01*
X019126Y002142D01*
X019126Y002144D01*
X019052Y002322D01*
X018916Y002459D01*
X018737Y002533D01*
X018735Y002533D01*
X018230Y003037D01*
X018230Y006287D01*
X018230Y006257D02*
X020830Y006257D01*
X020830Y006158D02*
X018230Y006158D01*
X018230Y006060D02*
X020830Y006060D01*
X020830Y005961D02*
X018230Y005961D01*
X018230Y005863D02*
X020830Y005863D01*
X020830Y005764D02*
X018230Y005764D01*
X018230Y005666D02*
X020830Y005666D01*
X020830Y005567D02*
X018230Y005567D01*
X018230Y005469D02*
X020830Y005469D01*
X020830Y005370D02*
X018230Y005370D01*
X018230Y005272D02*
X020830Y005272D01*
X020830Y005173D02*
X018230Y005173D01*
X018230Y005075D02*
X020830Y005075D01*
X020830Y004976D02*
X018230Y004976D01*
X018230Y004878D02*
X020830Y004878D01*
X020830Y004779D02*
X018230Y004779D01*
X018230Y004681D02*
X020830Y004681D01*
X020830Y004582D02*
X018230Y004582D01*
X018230Y004484D02*
X020830Y004484D01*
X020830Y004385D02*
X018230Y004385D01*
X018230Y004287D02*
X020830Y004287D01*
X020830Y004188D02*
X018230Y004188D01*
X018230Y004090D02*
X020830Y004090D01*
X020830Y003991D02*
X018230Y003991D01*
X018230Y003893D02*
X020830Y003893D01*
X020830Y003794D02*
X018230Y003794D01*
X018230Y003696D02*
X020830Y003696D01*
X020830Y003597D02*
X018230Y003597D01*
X018230Y003499D02*
X020830Y003499D01*
X020830Y003400D02*
X018230Y003400D01*
X018230Y003302D02*
X020830Y003302D01*
X020830Y003203D02*
X018230Y003203D01*
X018230Y003105D02*
X020830Y003105D01*
X020830Y003006D02*
X018261Y003006D01*
X018360Y002908D02*
X020830Y002908D01*
X020830Y002809D02*
X018458Y002809D01*
X018557Y002711D02*
X020830Y002711D01*
X020830Y002612D02*
X018655Y002612D01*
X018783Y002514D02*
X020830Y002514D01*
X020830Y002415D02*
X018959Y002415D01*
X019054Y002317D02*
X020830Y002317D01*
X020830Y002218D02*
X019095Y002218D01*
X019148Y002120D02*
X020830Y002120D01*
X020830Y002021D02*
X019180Y002021D01*
X019180Y001923D02*
X020830Y001923D01*
X020830Y001824D02*
X019180Y001824D01*
X019180Y001726D02*
X020830Y001726D01*
X020830Y001627D02*
X019180Y001627D01*
X019180Y001529D02*
X020830Y001529D01*
X020830Y001430D02*
X019180Y001430D01*
X019180Y001332D02*
X020830Y001332D01*
X020830Y001233D02*
X019180Y001233D01*
X019180Y001135D02*
X020830Y001135D01*
X020830Y001036D02*
X019180Y001036D01*
X019180Y000938D02*
X020830Y000938D01*
X022180Y000938D02*
X023830Y000938D01*
X023830Y000937D02*
X022180Y000937D01*
X022180Y002087D01*
X022126Y002142D01*
X022126Y002144D01*
X022052Y002322D01*
X021916Y002459D01*
X021737Y002533D01*
X021735Y002533D01*
X021230Y003037D01*
X021230Y006287D01*
X023638Y006287D01*
X023668Y006257D01*
X023830Y006257D01*
X023830Y000937D01*
X023830Y001036D02*
X022180Y001036D01*
X022180Y001135D02*
X023830Y001135D01*
X023830Y001233D02*
X022180Y001233D01*
X022180Y001332D02*
X023830Y001332D01*
X023830Y001430D02*
X022180Y001430D01*
X022180Y001529D02*
X023830Y001529D01*
X023830Y001627D02*
X022180Y001627D01*
X022180Y001726D02*
X023830Y001726D01*
X023830Y001824D02*
X022180Y001824D01*
X022180Y001923D02*
X023830Y001923D01*
X023830Y002021D02*
X022180Y002021D01*
X022148Y002120D02*
X023830Y002120D01*
X023830Y002218D02*
X022095Y002218D01*
X022054Y002317D02*
X023830Y002317D01*
X023830Y002415D02*
X021959Y002415D01*
X021783Y002514D02*
X023830Y002514D01*
X023830Y002612D02*
X021655Y002612D01*
X021557Y002711D02*
X023830Y002711D01*
X023830Y002809D02*
X021458Y002809D01*
X021360Y002908D02*
X023830Y002908D01*
X023830Y003006D02*
X021261Y003006D01*
X021230Y003105D02*
X023830Y003105D01*
X023830Y003203D02*
X021230Y003203D01*
X021230Y003302D02*
X023830Y003302D01*
X023830Y003400D02*
X021230Y003400D01*
X021230Y003499D02*
X023830Y003499D01*
X023830Y003597D02*
X021230Y003597D01*
X021230Y003696D02*
X023830Y003696D01*
X023830Y003794D02*
X021230Y003794D01*
X021230Y003893D02*
X023830Y003893D01*
X023830Y003991D02*
X021230Y003991D01*
X021230Y004090D02*
X023830Y004090D01*
X023830Y004188D02*
X021230Y004188D01*
X021230Y004287D02*
X023830Y004287D01*
X023830Y004385D02*
X021230Y004385D01*
X021230Y004484D02*
X023830Y004484D01*
X023830Y004582D02*
X021230Y004582D01*
X021230Y004681D02*
X023830Y004681D01*
X023830Y004779D02*
X021230Y004779D01*
X021230Y004878D02*
X023830Y004878D01*
X023830Y004976D02*
X021230Y004976D01*
X021230Y005075D02*
X023830Y005075D01*
X023830Y005173D02*
X021230Y005173D01*
X021230Y005272D02*
X023830Y005272D01*
X023830Y005370D02*
X021230Y005370D01*
X021230Y005469D02*
X023830Y005469D01*
X023830Y005567D02*
X021230Y005567D01*
X021230Y005666D02*
X023830Y005666D01*
X023830Y005764D02*
X021230Y005764D01*
X021230Y005863D02*
X023830Y005863D01*
X023830Y005961D02*
X021230Y005961D01*
X021230Y006060D02*
X023830Y006060D01*
X023830Y006158D02*
X021230Y006158D01*
X021230Y006257D02*
X023830Y006257D01*
X024030Y005937D02*
X024030Y001687D01*
X024530Y001187D01*
X025880Y001187D01*
X026480Y001787D01*
X026014Y002021D02*
X024230Y002021D01*
X024230Y001923D02*
X025973Y001923D01*
X025960Y001891D02*
X025960Y001684D01*
X025999Y001589D01*
X025797Y001387D01*
X024613Y001387D01*
X024230Y001770D01*
X024230Y005854D01*
X024713Y006337D01*
X025297Y006337D01*
X025667Y005967D01*
X026229Y005967D01*
X026229Y005908D01*
X026317Y005820D01*
X026874Y005820D01*
X026962Y005908D01*
X026962Y006256D01*
X027018Y006312D01*
X027422Y006312D01*
X027522Y006212D01*
X027592Y006212D01*
X027047Y005667D01*
X026988Y005608D01*
X026977Y005636D01*
X026878Y005734D01*
X026750Y005787D01*
X026610Y005787D01*
X026482Y005734D01*
X026383Y005636D01*
X026330Y005507D01*
X026330Y005368D01*
X026383Y005239D01*
X026435Y005187D01*
X026383Y005136D01*
X026330Y005007D01*
X026330Y004868D01*
X026383Y004739D01*
X026435Y004687D01*
X026383Y004636D01*
X026330Y004507D01*
X026330Y004368D01*
X026383Y004239D01*
X026435Y004187D01*
X026383Y004136D01*
X026330Y004007D01*
X026330Y003868D01*
X026383Y003739D01*
X026435Y003687D01*
X026383Y003636D01*
X026330Y003507D01*
X026330Y003368D01*
X026383Y003239D01*
X026482Y003141D01*
X026610Y003087D01*
X026750Y003087D01*
X026878Y003141D01*
X026930Y003192D01*
X026930Y002320D01*
X026806Y002196D01*
X026775Y002228D01*
X026583Y002307D01*
X026377Y002307D01*
X026185Y002228D01*
X026039Y002082D01*
X025960Y001891D01*
X025960Y001824D02*
X024230Y001824D01*
X024275Y001726D02*
X025960Y001726D01*
X025984Y001627D02*
X024373Y001627D01*
X024472Y001529D02*
X025938Y001529D01*
X025840Y001430D02*
X024570Y001430D01*
X024300Y001135D02*
X024030Y001135D01*
X024030Y001233D02*
X024201Y001233D01*
X024103Y001332D02*
X024030Y001332D01*
X024030Y001404D02*
X024330Y001104D01*
X024447Y000987D01*
X025963Y000987D01*
X026282Y001306D01*
X026377Y001267D01*
X026583Y001267D01*
X026775Y001346D01*
X026806Y001378D01*
X026897Y001287D01*
X026897Y001287D01*
X027130Y001054D01*
X027247Y000937D01*
X028113Y000937D01*
X028443Y001267D01*
X028583Y001267D01*
X028775Y001346D01*
X028921Y001493D01*
X028980Y001636D01*
X029039Y001493D01*
X029185Y001346D01*
X029377Y001267D01*
X029583Y001267D01*
X029775Y001346D01*
X029921Y001493D01*
X030000Y001684D01*
X030000Y001891D01*
X029921Y002082D01*
X029775Y002228D01*
X029632Y002287D01*
X031913Y002287D01*
X032431Y002805D01*
X032579Y002805D01*
X032630Y002754D01*
X032630Y002304D01*
X032780Y002154D01*
X032780Y001694D01*
X032346Y001694D01*
X032258Y001606D01*
X032258Y001049D01*
X032346Y000961D01*
X032864Y000961D01*
X032952Y001049D01*
X032952Y001187D01*
X033070Y001187D01*
X033117Y001140D01*
X033344Y001140D01*
X033430Y001054D01*
X033547Y000937D01*
X034413Y000937D01*
X034530Y001054D01*
X034541Y001066D01*
X034571Y001036D01*
X035089Y001036D01*
X035177Y001124D01*
X035177Y001203D01*
X035283Y001203D01*
X035283Y001124D01*
X035371Y001036D01*
X035889Y001036D01*
X035977Y001124D01*
X035977Y001537D01*
X036060Y001537D01*
X036060Y001305D01*
X036148Y001217D01*
X037012Y001217D01*
X037100Y001305D01*
X037100Y001437D01*
X037139Y001343D01*
X037285Y001196D01*
X037477Y001117D01*
X037683Y001117D01*
X037875Y001196D01*
X038021Y001343D01*
X038100Y001534D01*
X038100Y001537D01*
X038139Y001443D01*
X038285Y001296D01*
X038477Y001217D01*
X038683Y001217D01*
X038875Y001296D01*
X039021Y001443D01*
X039060Y001537D01*
X039060Y001534D01*
X039139Y001343D01*
X039285Y001196D01*
X039477Y001117D01*
X039683Y001117D01*
X039875Y001196D01*
X040021Y001343D01*
X040100Y001534D01*
X040100Y001741D01*
X040021Y001932D01*
X039875Y002078D01*
X039683Y002157D01*
X039643Y002157D01*
X039163Y002637D01*
X039119Y002637D01*
X039119Y002745D01*
X039075Y002851D01*
X039020Y002906D01*
X039020Y004219D01*
X039075Y004274D01*
X039119Y004380D01*
X039119Y004495D01*
X039075Y004601D01*
X038997Y004679D01*
X039848Y005530D01*
X039885Y005515D01*
X040075Y005515D01*
X040252Y005588D01*
X040360Y005696D01*
X040360Y005599D01*
X039526Y004765D01*
X039485Y004666D01*
X039485Y004037D01*
X039193Y004037D01*
X039105Y003949D01*
X039105Y002825D01*
X039193Y002737D01*
X040317Y002737D01*
X040405Y002825D01*
X040405Y003631D01*
X040597Y003439D01*
X040891Y003317D01*
X041209Y003317D01*
X041503Y003439D01*
X041728Y003664D01*
X041850Y003958D01*
X041850Y004276D01*
X041728Y004570D01*
X041503Y004796D01*
X041209Y004917D01*
X040891Y004917D01*
X040597Y004796D01*
X040372Y004570D01*
X040250Y004276D01*
X040250Y004037D01*
X040025Y004037D01*
X040025Y004500D01*
X040783Y005258D01*
X040859Y005334D01*
X040900Y005434D01*
X040900Y007441D01*
X040859Y007540D01*
X040559Y007840D01*
X040483Y007916D01*
X040384Y007957D01*
X039526Y007957D01*
X039427Y007916D01*
X039047Y007536D01*
X038971Y007460D01*
X038943Y007393D01*
X038928Y007386D01*
X038793Y007251D01*
X038720Y007075D01*
X038720Y006884D01*
X038793Y006708D01*
X038928Y006572D01*
X039105Y006499D01*
X039295Y006499D01*
X039472Y006572D01*
X039607Y006708D01*
X039680Y006884D01*
X039680Y007075D01*
X039607Y007251D01*
X039566Y007292D01*
X039692Y007417D01*
X040218Y007417D01*
X040360Y007275D01*
X040360Y006294D01*
X040252Y006402D01*
X040075Y006475D01*
X039885Y006475D01*
X039708Y006402D01*
X039590Y006284D01*
X039472Y006402D01*
X039295Y006475D01*
X039105Y006475D01*
X039033Y006445D01*
X038561Y006917D01*
X038561Y007366D01*
X038474Y007454D01*
X037956Y007454D01*
X037880Y007378D01*
X037804Y007454D01*
X037745Y007454D01*
X037745Y007540D01*
X037824Y007540D01*
X037912Y007628D01*
X037912Y008146D01*
X037824Y008234D01*
X037320Y008234D01*
X037320Y008259D01*
X037409Y008347D01*
X037520Y008459D01*
X037520Y008816D01*
X037420Y008916D01*
X037420Y010389D01*
X037466Y010343D01*
X037573Y010299D01*
X037687Y010299D01*
X037794Y010343D01*
X037875Y010424D01*
X037919Y010530D01*
X037919Y010540D01*
X038142Y010540D01*
X038142Y010531D01*
X038149Y010524D01*
X038142Y010517D01*
X038142Y010098D01*
X037420Y010098D01*
X037420Y010000D02*
X039641Y010000D01*
X039659Y009955D02*
X039790Y009825D01*
X039961Y009754D01*
X040146Y009754D01*
X040317Y009825D01*
X040448Y009955D01*
X040519Y010126D01*
X040519Y010311D01*
X040448Y010482D01*
X040317Y010613D01*
X040146Y010684D01*
X039961Y010684D01*
X039790Y010613D01*
X039659Y010482D01*
X039589Y010311D01*
X039589Y010126D01*
X039659Y009955D01*
X039714Y009901D02*
X037420Y009901D01*
X037420Y009803D02*
X039844Y009803D01*
X040264Y009803D02*
X042250Y009803D01*
X042250Y009901D02*
X040393Y009901D01*
X040466Y010000D02*
X042250Y010000D01*
X042250Y010098D02*
X040507Y010098D01*
X040519Y010197D02*
X042250Y010197D01*
X042250Y010295D02*
X040519Y010295D01*
X040485Y010394D02*
X042250Y010394D01*
X042250Y010492D02*
X040438Y010492D01*
X040339Y010591D02*
X042250Y010591D01*
X042250Y010689D02*
X039032Y010689D01*
X039032Y010591D02*
X039768Y010591D01*
X039669Y010492D02*
X039032Y010492D01*
X039032Y010517D02*
X039032Y010098D01*
X039600Y010098D01*
X039589Y010197D02*
X039032Y010197D01*
X039032Y010295D02*
X039589Y010295D01*
X039623Y010394D02*
X039032Y010394D01*
X039032Y010517D02*
X039026Y010524D01*
X039032Y010531D01*
X039032Y010950D01*
X038944Y011038D01*
X038230Y011038D01*
X038142Y010950D01*
X038142Y010940D01*
X038044Y010940D01*
X037911Y011073D01*
X037911Y011416D01*
X037824Y011504D01*
X037519Y011504D01*
X037519Y011545D01*
X037475Y011651D01*
X037394Y011732D01*
X037287Y011776D01*
X037262Y011776D01*
X037262Y012137D01*
X037797Y012137D01*
X037992Y011943D01*
X037966Y011932D01*
X037885Y011851D01*
X037841Y011745D01*
X037841Y011630D01*
X037885Y011524D01*
X037966Y011443D01*
X038073Y011399D01*
X038142Y011399D01*
X038142Y011397D01*
X038230Y011309D01*
X038944Y011309D01*
X039032Y011397D01*
X039032Y011816D01*
X039026Y011823D01*
X039032Y011830D01*
X039032Y012031D01*
X039035Y012024D01*
X039116Y011943D01*
X039223Y011899D01*
X039337Y011899D01*
X039444Y011943D01*
X039525Y012024D01*
X039569Y012130D01*
X039569Y012207D01*
X039620Y012259D01*
X039620Y013988D01*
X039659Y013892D01*
X039790Y013762D01*
X039961Y013691D01*
X040146Y013691D01*
X040317Y013762D01*
X040448Y013892D01*
X040519Y014063D01*
X040519Y014248D01*
X040448Y014419D01*
X040317Y014550D01*
X040146Y014621D01*
X039961Y014621D01*
X039790Y014550D01*
X039659Y014419D01*
X039620Y014324D01*
X039620Y014666D01*
X039509Y014777D01*
X039359Y014927D01*
X039192Y014927D01*
X039192Y015067D01*
X039346Y015221D01*
X039774Y015221D01*
X039794Y015241D01*
X039843Y015123D01*
X040010Y014957D01*
X040228Y014866D01*
X040464Y014866D01*
X040682Y014957D01*
X040848Y015123D01*
X040939Y015341D01*
X040939Y015577D01*
X040848Y015795D01*
X040682Y015962D01*
X040464Y016052D01*
X040228Y016052D01*
X040010Y015962D01*
X039861Y015814D01*
X039861Y015866D01*
X039774Y015954D01*
X039329Y015954D01*
X039505Y016026D01*
X039651Y016173D01*
X039730Y016364D01*
X039730Y016504D01*
X040246Y017021D01*
X040398Y017021D01*
X041085Y016334D01*
X041077Y016330D01*
X040951Y016205D01*
X040883Y016040D01*
X040883Y015863D01*
X040951Y015698D01*
X041077Y015573D01*
X041241Y015505D01*
X041419Y015505D01*
X041583Y015573D01*
X041709Y015698D01*
X041777Y015863D01*
X041777Y016040D01*
X041709Y016205D01*
X041583Y016330D01*
X041530Y016352D01*
X041530Y016455D01*
X040661Y017323D01*
X040661Y017666D01*
X040634Y017693D01*
X040682Y017713D01*
X040848Y017879D01*
X040939Y018097D01*
X040939Y018333D01*
X040848Y018551D01*
X040682Y018718D01*
X040464Y018808D01*
X040228Y018808D01*
X040010Y018718D01*
X039843Y018551D01*
X039805Y018459D01*
X039790Y018474D01*
X039667Y018597D01*
X038437Y018597D01*
X038470Y018630D01*
X038507Y018630D01*
X038980Y019102D01*
X039064Y019067D01*
X039271Y019067D01*
X039462Y019146D01*
X039608Y019293D01*
X039687Y019484D01*
X039687Y019691D01*
X039608Y019882D01*
X039462Y020028D01*
X039271Y020107D01*
X039064Y020107D01*
X038873Y020028D01*
X038727Y019882D01*
X038648Y019691D01*
X038648Y019484D01*
X038683Y019399D01*
X038397Y019114D01*
X037954Y019114D01*
X037867Y019026D01*
X037867Y018654D01*
X037923Y018597D01*
X037547Y018597D01*
X037547Y018935D01*
X037620Y019009D01*
X037870Y019259D01*
X037870Y020166D01*
X037759Y020277D01*
X037614Y020422D01*
X041663Y020422D01*
X041755Y020415D01*
X041929Y020358D01*
X042078Y020250D01*
X042186Y020102D01*
X042243Y019927D01*
X042250Y019835D01*
X042250Y001429D01*
X042243Y001338D01*
X042186Y001163D01*
X042078Y001014D01*
X041929Y000906D01*
X041755Y000849D01*
X041663Y000842D01*
X024018Y000842D01*
X024030Y000854D01*
X024030Y001404D01*
X024030Y001036D02*
X024398Y001036D01*
X024030Y000938D02*
X027247Y000938D01*
X027148Y001036D02*
X026012Y001036D01*
X026110Y001135D02*
X027050Y001135D01*
X026951Y001233D02*
X026209Y001233D01*
X026738Y001332D02*
X026853Y001332D01*
X026980Y001487D02*
X027330Y001137D01*
X028030Y001137D01*
X028480Y001587D01*
X028480Y001787D01*
X028976Y001627D02*
X028984Y001627D01*
X029024Y001529D02*
X028936Y001529D01*
X028858Y001430D02*
X029102Y001430D01*
X029222Y001332D02*
X028738Y001332D01*
X028409Y001233D02*
X031480Y001233D01*
X031480Y001135D02*
X028310Y001135D01*
X028212Y001036D02*
X031480Y001036D01*
X031480Y001025D02*
X031568Y000937D01*
X031992Y000937D01*
X032080Y001025D01*
X032080Y001749D01*
X031992Y001837D01*
X031568Y001837D01*
X031480Y001749D01*
X031480Y001025D01*
X031568Y000938D02*
X028113Y000938D01*
X026980Y001487D02*
X026980Y002087D01*
X027130Y002237D01*
X027130Y005467D01*
X027681Y006019D01*
X028379Y006019D01*
X028379Y006216D02*
X028758Y006216D01*
X028880Y006337D01*
X028880Y007087D01*
X028980Y007187D01*
X028980Y008687D01*
X028980Y008737D01*
X028746Y008972D01*
X028379Y008972D01*
X027914Y008972D01*
X027415Y008472D01*
X027415Y008307D01*
X027617Y008157D02*
X027680Y008220D01*
X027680Y008770D01*
X027723Y008813D01*
X027687Y008799D01*
X027573Y008799D01*
X027547Y008809D01*
X027547Y008744D01*
X027459Y008656D01*
X026981Y008656D01*
X026980Y008654D01*
X027024Y008654D01*
X027112Y008566D01*
X027112Y008157D01*
X027617Y008157D01*
X027680Y008227D02*
X027112Y008227D01*
X027112Y008325D02*
X027680Y008325D01*
X027680Y008424D02*
X027112Y008424D01*
X027112Y008522D02*
X027680Y008522D01*
X027680Y008621D02*
X027058Y008621D01*
X026680Y008637D02*
X027045Y009003D01*
X027180Y009003D01*
X027522Y008719D02*
X027680Y008719D01*
X027880Y008687D02*
X027880Y008137D01*
X027700Y007957D01*
X026860Y007957D01*
X026730Y008087D01*
X026730Y008292D01*
X026745Y008307D01*
X026665Y008387D01*
X025680Y008387D01*
X025380Y008087D01*
X025380Y007887D01*
X024780Y007887D01*
X024310Y007667D02*
X024310Y008327D01*
X024200Y008437D01*
X023880Y008437D01*
X023880Y008587D01*
X023880Y008437D02*
X023315Y009003D01*
X023180Y009003D01*
X023980Y009003D02*
X024111Y009003D01*
X024780Y009672D01*
X025180Y009272D02*
X024911Y009003D01*
X024780Y009003D01*
X024480Y008387D02*
X023980Y008887D01*
X023980Y009003D01*
X024480Y008387D02*
X024480Y006887D01*
X024180Y006587D01*
X023955Y006587D01*
X024130Y006587D01*
X023705Y006887D02*
X023905Y007087D01*
X023955Y007087D01*
X023705Y006887D02*
X022930Y006887D01*
X022830Y006987D01*
X022830Y007003D01*
X022765Y006937D01*
X022080Y006937D01*
X022330Y006946D02*
X020830Y006946D01*
X020830Y006848D02*
X022330Y006848D01*
X022330Y006749D02*
X020830Y006749D01*
X020830Y006651D02*
X022330Y006651D01*
X022330Y006552D02*
X020830Y006552D01*
X020947Y006454D02*
X021113Y006454D01*
X020830Y007045D02*
X022330Y007045D01*
X022330Y007143D02*
X020830Y007143D01*
X020830Y007242D02*
X022330Y007242D01*
X022330Y007340D02*
X020830Y007340D01*
X020830Y007439D02*
X022330Y007439D01*
X022330Y007537D02*
X020830Y007537D01*
X020515Y007414D02*
X020428Y007327D01*
X020428Y008324D01*
X020415Y008337D01*
X019745Y008337D02*
X019745Y008403D01*
X019745Y008337D02*
X019745Y007787D01*
X019845Y007687D01*
X019830Y007672D01*
X019330Y007340D02*
X016983Y007340D01*
X016884Y007242D02*
X019330Y007242D01*
X019330Y007143D02*
X016833Y007143D01*
X016761Y007045D02*
X019330Y007045D01*
X019330Y006946D02*
X016589Y006946D01*
X016490Y006848D02*
X019330Y006848D01*
X019330Y006749D02*
X016392Y006749D01*
X016293Y006651D02*
X019330Y006651D01*
X019330Y006552D02*
X016195Y006552D01*
X013665Y005272D02*
X013250Y005272D01*
X013250Y005173D02*
X013736Y005173D01*
X013963Y005075D02*
X013250Y005075D01*
X013250Y004976D02*
X013963Y004976D01*
X013963Y004878D02*
X013250Y004878D01*
X013255Y004779D02*
X013963Y004779D01*
X013957Y004681D02*
X013288Y004681D01*
X013288Y004582D02*
X013957Y004582D01*
X013957Y004484D02*
X013250Y004484D01*
X013250Y004385D02*
X013957Y004385D01*
X013957Y004287D02*
X013250Y004287D01*
X013250Y004188D02*
X013957Y004188D01*
X013957Y004090D02*
X013250Y004090D01*
X012710Y003991D02*
X010858Y003991D01*
X010858Y004090D02*
X012057Y004090D01*
X012057Y004188D02*
X010858Y004188D01*
X010858Y004287D02*
X012057Y004287D01*
X012057Y004385D02*
X010858Y004385D01*
X010858Y004484D02*
X012057Y004484D01*
X012057Y004582D02*
X010858Y004582D01*
X010858Y004681D02*
X012052Y004681D01*
X012038Y004779D02*
X010858Y004779D01*
X010858Y004878D02*
X012038Y004878D01*
X012038Y004976D02*
X010858Y004976D01*
X010858Y005075D02*
X012038Y005075D01*
X011816Y005173D02*
X010919Y005173D01*
X011018Y005272D02*
X011745Y005272D01*
X011238Y005370D02*
X011116Y005370D01*
X011155Y005469D02*
X011238Y005469D01*
X011238Y005567D02*
X011155Y005567D01*
X011155Y005666D02*
X011238Y005666D01*
X011238Y005764D02*
X011155Y005764D01*
X011155Y005863D02*
X011238Y005863D01*
X011605Y004953D02*
X011656Y004952D01*
X011656Y004420D01*
X012404Y004420D02*
X012404Y005002D01*
X012405Y004953D01*
X013530Y004953D02*
X013556Y004977D01*
X013556Y004420D01*
X014304Y004420D02*
X014304Y004977D01*
X014330Y004953D01*
X012690Y003893D02*
X012376Y003893D01*
X012377Y003794D02*
X012672Y003794D01*
X012684Y003696D02*
X012377Y003696D01*
X012377Y003597D02*
X012734Y003597D01*
X012871Y003499D02*
X012383Y003499D01*
X011684Y003893D02*
X010836Y003893D01*
X009360Y005437D02*
X009360Y005937D01*
X009360Y006437D01*
X009360Y006937D01*
X007830Y006749D02*
X006323Y006749D01*
X006469Y008338D02*
X006632Y008338D01*
X006781Y008400D01*
X006896Y008514D01*
X006958Y008664D01*
X006958Y008826D01*
X006896Y008976D01*
X006781Y009091D01*
X006632Y009153D01*
X006469Y009153D01*
X006320Y009091D01*
X006205Y008976D01*
X006143Y008826D01*
X006143Y008664D01*
X006205Y008514D01*
X006320Y008400D01*
X006469Y008338D01*
X006296Y008424D02*
X005821Y008424D01*
X005915Y008522D02*
X006202Y008522D01*
X006161Y008621D02*
X005956Y008621D01*
X005974Y008719D02*
X006143Y008719D01*
X006143Y008818D02*
X005974Y008818D01*
X005936Y008916D02*
X006180Y008916D01*
X006244Y009015D02*
X005873Y009015D01*
X005743Y009113D02*
X006374Y009113D01*
X006329Y009409D02*
X006803Y009409D01*
X006828Y009384D02*
X006977Y009322D01*
X007139Y009322D01*
X007289Y009384D01*
X007404Y009499D01*
X007466Y009648D01*
X007466Y009810D01*
X007404Y009960D01*
X007289Y010075D01*
X007139Y010137D01*
X006977Y010137D01*
X006828Y010075D01*
X006713Y009960D01*
X006651Y009810D01*
X006651Y009648D01*
X006713Y009499D01*
X006828Y009384D01*
X006709Y009507D02*
X006423Y009507D01*
X006464Y009606D02*
X006669Y009606D01*
X006651Y009704D02*
X006482Y009704D01*
X006482Y009803D02*
X006651Y009803D01*
X006688Y009901D02*
X006444Y009901D01*
X006380Y010000D02*
X006752Y010000D01*
X006883Y010098D02*
X006249Y010098D01*
X007233Y010098D02*
X007868Y010098D01*
X007812Y010075D02*
X007697Y009960D01*
X007635Y009810D01*
X007635Y009648D01*
X007697Y009499D01*
X007812Y009384D01*
X007962Y009322D01*
X008124Y009322D01*
X008273Y009384D01*
X008388Y009499D01*
X008450Y009648D01*
X008450Y009810D01*
X008388Y009960D01*
X008273Y010075D01*
X008124Y010137D01*
X007962Y010137D01*
X007812Y010075D01*
X007736Y010000D02*
X007364Y010000D01*
X007428Y009901D02*
X007673Y009901D01*
X007635Y009803D02*
X007466Y009803D01*
X007466Y009704D02*
X007635Y009704D01*
X007653Y009606D02*
X007448Y009606D01*
X007407Y009507D02*
X007694Y009507D01*
X007787Y009409D02*
X007314Y009409D01*
X007454Y009153D02*
X007304Y009091D01*
X007189Y008976D01*
X007127Y008826D01*
X007127Y008664D01*
X007189Y008514D01*
X007304Y008400D01*
X007454Y008338D01*
X007616Y008338D01*
X007766Y008400D01*
X007880Y008514D01*
X007942Y008664D01*
X007942Y008826D01*
X007880Y008976D01*
X007766Y009091D01*
X007616Y009153D01*
X007454Y009153D01*
X007358Y009113D02*
X006727Y009113D01*
X006857Y009015D02*
X007228Y009015D01*
X007164Y008916D02*
X006921Y008916D01*
X006958Y008818D02*
X007127Y008818D01*
X007127Y008719D02*
X006958Y008719D01*
X006940Y008621D02*
X007145Y008621D01*
X007186Y008522D02*
X006899Y008522D01*
X006805Y008424D02*
X007280Y008424D01*
X007789Y008424D02*
X008264Y008424D01*
X008288Y008400D02*
X008174Y008514D01*
X008111Y008664D01*
X008111Y008826D01*
X008174Y008976D01*
X008288Y009091D01*
X008438Y009153D01*
X008600Y009153D01*
X008750Y009091D01*
X008864Y008976D01*
X008926Y008826D01*
X008926Y008664D01*
X008864Y008514D01*
X008750Y008400D01*
X008600Y008338D01*
X008438Y008338D01*
X008288Y008400D01*
X008170Y008522D02*
X007883Y008522D01*
X007924Y008621D02*
X008130Y008621D01*
X008111Y008719D02*
X007942Y008719D01*
X007942Y008818D02*
X008111Y008818D01*
X008149Y008916D02*
X007905Y008916D01*
X007842Y009015D02*
X008212Y009015D01*
X008342Y009113D02*
X007711Y009113D01*
X008298Y009409D02*
X008771Y009409D01*
X008796Y009384D02*
X008946Y009322D01*
X009108Y009322D01*
X009258Y009384D01*
X009372Y009499D01*
X009434Y009648D01*
X009434Y009810D01*
X009372Y009960D01*
X009258Y010075D01*
X009108Y010137D01*
X008946Y010137D01*
X008796Y010075D01*
X008681Y009960D01*
X008619Y009810D01*
X008619Y009648D01*
X008681Y009499D01*
X008796Y009384D01*
X008678Y009507D02*
X008392Y009507D01*
X008432Y009606D02*
X008637Y009606D01*
X008619Y009704D02*
X008450Y009704D01*
X008450Y009803D02*
X008619Y009803D01*
X008657Y009901D02*
X008413Y009901D01*
X008349Y010000D02*
X008721Y010000D01*
X008852Y010098D02*
X008217Y010098D01*
X007986Y010591D02*
X007974Y010591D01*
X008315Y010887D02*
X009080Y010887D01*
X009490Y010591D02*
X012559Y010591D01*
X012965Y011137D02*
X013165Y011337D01*
X013480Y011337D01*
X014315Y010887D02*
X015080Y010887D01*
X014670Y010591D02*
X014643Y010591D01*
X014768Y010492D02*
X009392Y010492D01*
X009195Y010394D02*
X014965Y010394D01*
X013986Y010591D02*
X013974Y010591D01*
X015584Y011387D02*
X016280Y011387D01*
X017330Y012437D01*
X017830Y012437D01*
X018113Y012561D02*
X019154Y012561D01*
X019104Y012659D02*
X018044Y012659D01*
X018138Y012462D02*
X019572Y012462D01*
X019473Y012364D02*
X018133Y012364D01*
X018092Y012265D02*
X019375Y012265D01*
X019430Y012037D02*
X017230Y012037D01*
X016973Y012364D02*
X015784Y012364D01*
X015784Y012462D02*
X015800Y012462D01*
X015784Y012265D02*
X016875Y012265D01*
X016776Y012167D02*
X015784Y012167D01*
X015784Y012068D02*
X016678Y012068D01*
X016579Y011970D02*
X015784Y011970D01*
X015784Y011871D02*
X016481Y011871D01*
X016382Y011773D02*
X015784Y011773D01*
X015784Y011674D02*
X016284Y011674D01*
X016080Y011887D02*
X017180Y012987D01*
X017817Y012987D01*
X017616Y012659D02*
X016527Y012659D01*
X016567Y012758D02*
X019104Y012758D01*
X019104Y012856D02*
X016580Y012856D01*
X016656Y012955D02*
X019104Y012955D01*
X019104Y013053D02*
X016755Y013053D01*
X016853Y013152D02*
X019104Y013152D01*
X019104Y013250D02*
X016952Y013250D01*
X017050Y013349D02*
X019104Y013349D01*
X019026Y013447D02*
X019187Y013447D01*
X018634Y013447D02*
X018526Y013447D01*
X018134Y013447D02*
X017149Y013447D01*
X015384Y013447D02*
X015324Y013447D01*
X015363Y013463D02*
X015179Y013387D01*
X014981Y013387D01*
X015179Y013387D01*
X015363Y013311D01*
X015384Y013291D01*
X015384Y013484D01*
X015363Y013463D01*
X015384Y013349D02*
X015273Y013349D01*
X014887Y013349D02*
X014782Y013349D01*
X014836Y013447D02*
X014699Y013447D01*
X013943Y012987D02*
X013943Y012550D01*
X013430Y012037D01*
X013104Y012758D02*
X010567Y012758D01*
X010580Y012856D02*
X013104Y012856D01*
X013104Y012955D02*
X010656Y012955D01*
X010755Y013053D02*
X013104Y013053D01*
X013104Y013152D02*
X010853Y013152D01*
X010952Y013250D02*
X013104Y013250D01*
X013104Y013349D02*
X011050Y013349D01*
X011149Y013447D02*
X012134Y013447D01*
X012526Y013447D02*
X012634Y013447D01*
X013026Y013447D02*
X013187Y013447D01*
X011817Y012987D02*
X011180Y012987D01*
X010080Y011887D01*
X010280Y011387D02*
X011330Y012437D01*
X011616Y012659D02*
X010527Y012659D01*
X009080Y011887D02*
X007630Y011887D01*
X007407Y011674D02*
X007300Y011674D01*
X007282Y011576D02*
X005251Y011576D01*
X004728Y012068D02*
X003730Y012068D01*
X003730Y011970D02*
X004629Y011970D01*
X004531Y011871D02*
X003730Y011871D01*
X003730Y011773D02*
X004432Y011773D01*
X004334Y011674D02*
X003730Y011674D01*
X004080Y011887D02*
X004530Y012337D01*
X005980Y012337D01*
X005980Y012824D01*
X005817Y012987D01*
X005930Y012874D01*
X004826Y012167D02*
X003730Y012167D01*
X002996Y010886D02*
X002985Y010886D01*
X006581Y011477D02*
X006679Y011477D01*
X006965Y011137D02*
X007165Y011337D01*
X007480Y011337D01*
X009202Y010098D02*
X009836Y010098D01*
X009780Y010075D02*
X009930Y010137D01*
X010092Y010137D01*
X010242Y010075D01*
X010357Y009960D01*
X010419Y009810D01*
X010419Y009648D01*
X010357Y009499D01*
X010242Y009384D01*
X010092Y009322D01*
X009930Y009322D01*
X009780Y009384D01*
X009666Y009499D01*
X009604Y009648D01*
X009604Y009810D01*
X009666Y009960D01*
X009780Y010075D01*
X009705Y010000D02*
X009333Y010000D01*
X009397Y009901D02*
X009641Y009901D01*
X009604Y009803D02*
X009434Y009803D01*
X009434Y009704D02*
X009604Y009704D01*
X009621Y009606D02*
X009417Y009606D01*
X009376Y009507D02*
X009662Y009507D01*
X009756Y009409D02*
X009282Y009409D01*
X009422Y009153D02*
X009272Y009091D01*
X009158Y008976D01*
X009096Y008826D01*
X009096Y008664D01*
X009158Y008514D01*
X009272Y008400D01*
X009422Y008338D01*
X009584Y008338D01*
X009734Y008400D01*
X009849Y008514D01*
X009911Y008664D01*
X009911Y008826D01*
X009849Y008976D01*
X009734Y009091D01*
X009584Y009153D01*
X009422Y009153D01*
X009327Y009113D02*
X008696Y009113D01*
X008826Y009015D02*
X009196Y009015D01*
X009133Y008916D02*
X008889Y008916D01*
X008926Y008818D02*
X009096Y008818D01*
X009096Y008719D02*
X008926Y008719D01*
X008908Y008621D02*
X009114Y008621D01*
X009155Y008522D02*
X008868Y008522D01*
X008774Y008424D02*
X009249Y008424D01*
X009758Y008424D02*
X010082Y008424D01*
X010080Y008522D02*
X009852Y008522D01*
X009893Y008621D02*
X010080Y008621D01*
X010080Y008719D02*
X009911Y008719D01*
X009911Y008818D02*
X010080Y008818D01*
X010080Y008916D02*
X009874Y008916D01*
X009810Y009015D02*
X010080Y009015D01*
X010128Y009113D02*
X009680Y009113D01*
X010266Y009409D02*
X010740Y009409D01*
X010646Y009507D02*
X010360Y009507D01*
X010401Y009606D02*
X010606Y009606D01*
X010588Y009704D02*
X010419Y009704D01*
X010419Y009803D02*
X010588Y009803D01*
X010625Y009901D02*
X010381Y009901D01*
X010317Y010000D02*
X010689Y010000D01*
X010820Y010098D02*
X010186Y010098D01*
X011170Y010098D02*
X022258Y010098D01*
X022159Y010000D02*
X011301Y010000D01*
X011365Y009901D02*
X022061Y009901D01*
X021962Y009803D02*
X011403Y009803D01*
X017180Y009187D02*
X017180Y009187D01*
X019765Y006937D02*
X019830Y007003D01*
X019765Y006937D02*
X019080Y006937D01*
X023330Y007487D02*
X023330Y008253D01*
X023415Y008337D01*
X023780Y008087D02*
X023955Y008087D01*
X023780Y008087D02*
X023620Y007927D01*
X023955Y007587D02*
X024230Y007587D01*
X024310Y007667D01*
X023515Y007414D02*
X023428Y007327D01*
X023403Y007414D02*
X023330Y007487D01*
X023403Y007414D02*
X023515Y007414D01*
X024630Y006537D02*
X024030Y005937D01*
X024238Y005863D02*
X026275Y005863D01*
X026229Y005961D02*
X024337Y005961D01*
X024435Y006060D02*
X025575Y006060D01*
X025476Y006158D02*
X024534Y006158D01*
X024632Y006257D02*
X025378Y006257D01*
X025380Y006537D02*
X025750Y006167D01*
X026595Y006167D01*
X026610Y006187D01*
X026935Y006512D01*
X027505Y006512D01*
X027605Y006412D01*
X028379Y006412D01*
X028379Y006216D02*
X027193Y006216D01*
X027265Y006167D01*
X027165Y006022D02*
X026930Y005787D01*
X025380Y005787D01*
X025180Y005587D01*
X025180Y005287D01*
X024830Y004937D01*
X024900Y004787D02*
X024760Y004787D01*
X024632Y004734D01*
X024533Y004636D01*
X024480Y004507D01*
X024480Y004368D01*
X024533Y004239D01*
X024585Y004187D01*
X024533Y004136D01*
X024480Y004007D01*
X024480Y003868D01*
X024533Y003739D01*
X024585Y003687D01*
X024533Y003636D01*
X024480Y003507D01*
X024480Y003368D01*
X024533Y003239D01*
X024632Y003141D01*
X024760Y003087D01*
X024900Y003087D01*
X025028Y003141D01*
X025127Y003239D01*
X025180Y003368D01*
X025180Y003507D01*
X025127Y003636D01*
X025075Y003687D01*
X025127Y003739D01*
X025180Y003868D01*
X025180Y004007D01*
X025127Y004136D01*
X025075Y004187D01*
X025127Y004239D01*
X025180Y004368D01*
X025180Y004507D01*
X025127Y004636D01*
X025028Y004734D01*
X024900Y004787D01*
X024920Y004779D02*
X025217Y004779D01*
X025233Y004739D02*
X025285Y004687D01*
X025233Y004636D01*
X025180Y004507D01*
X025180Y004368D01*
X025233Y004239D01*
X025285Y004187D01*
X025233Y004136D01*
X025180Y004007D01*
X025180Y003868D01*
X025233Y003739D01*
X025285Y003687D01*
X025233Y003636D01*
X025180Y003507D01*
X025180Y003368D01*
X025233Y003239D01*
X025332Y003141D01*
X025460Y003087D01*
X025600Y003087D01*
X025728Y003141D01*
X025827Y003239D01*
X025880Y003368D01*
X025880Y003507D01*
X025827Y003636D01*
X025775Y003687D01*
X025827Y003739D01*
X025880Y003868D01*
X025880Y004007D01*
X025827Y004136D01*
X025775Y004187D01*
X025827Y004239D01*
X025880Y004368D01*
X025880Y004507D01*
X025827Y004636D01*
X025775Y004687D01*
X025827Y004739D01*
X025880Y004868D01*
X025880Y005007D01*
X025827Y005136D01*
X025775Y005187D01*
X025827Y005239D01*
X025880Y005368D01*
X025880Y005507D01*
X025827Y005636D01*
X025728Y005734D01*
X025600Y005787D01*
X025460Y005787D01*
X025332Y005734D01*
X025233Y005636D01*
X025180Y005507D01*
X025127Y005636D01*
X025028Y005734D01*
X024900Y005787D01*
X024760Y005787D01*
X024632Y005734D01*
X024533Y005636D01*
X024480Y005507D01*
X024480Y005368D01*
X024533Y005239D01*
X024632Y005141D01*
X024760Y005087D01*
X024900Y005087D01*
X025028Y005141D01*
X025127Y005239D01*
X025180Y005368D01*
X025180Y005507D01*
X025180Y005368D01*
X025233Y005239D01*
X025285Y005187D01*
X025233Y005136D01*
X025180Y005007D01*
X025180Y004868D01*
X025233Y004739D01*
X025278Y004681D02*
X025082Y004681D01*
X025149Y004582D02*
X025211Y004582D01*
X025180Y004484D02*
X025180Y004484D01*
X025180Y004385D02*
X025180Y004385D01*
X025146Y004287D02*
X025214Y004287D01*
X025284Y004188D02*
X025076Y004188D01*
X025146Y004090D02*
X025214Y004090D01*
X025180Y003991D02*
X025180Y003991D01*
X025180Y003893D02*
X025180Y003893D01*
X025149Y003794D02*
X025211Y003794D01*
X025277Y003696D02*
X025083Y003696D01*
X025143Y003597D02*
X025217Y003597D01*
X025180Y003499D02*
X025180Y003499D01*
X025180Y003400D02*
X025180Y003400D01*
X025153Y003302D02*
X025207Y003302D01*
X025269Y003203D02*
X025091Y003203D01*
X024941Y003105D02*
X025419Y003105D01*
X025641Y003105D02*
X026569Y003105D01*
X026419Y003203D02*
X025791Y003203D01*
X025853Y003302D02*
X026357Y003302D01*
X026330Y003400D02*
X025880Y003400D01*
X025880Y003499D02*
X026330Y003499D01*
X026367Y003597D02*
X025843Y003597D01*
X025783Y003696D02*
X026427Y003696D01*
X026361Y003794D02*
X025849Y003794D01*
X025880Y003893D02*
X026330Y003893D01*
X026330Y003991D02*
X025880Y003991D01*
X025846Y004090D02*
X026364Y004090D01*
X026434Y004188D02*
X025776Y004188D01*
X025846Y004287D02*
X026364Y004287D01*
X026330Y004385D02*
X025880Y004385D01*
X025880Y004484D02*
X026330Y004484D01*
X026361Y004582D02*
X025849Y004582D01*
X025782Y004681D02*
X026428Y004681D01*
X026367Y004779D02*
X025843Y004779D01*
X025880Y004878D02*
X026330Y004878D01*
X026330Y004976D02*
X025880Y004976D01*
X025852Y005075D02*
X026358Y005075D01*
X026421Y005173D02*
X025789Y005173D01*
X025840Y005272D02*
X026370Y005272D01*
X026330Y005370D02*
X025880Y005370D01*
X025880Y005469D02*
X026330Y005469D01*
X026355Y005567D02*
X025855Y005567D01*
X025797Y005666D02*
X026413Y005666D01*
X026554Y005764D02*
X025656Y005764D01*
X025404Y005764D02*
X024956Y005764D01*
X025097Y005666D02*
X025263Y005666D01*
X025205Y005567D02*
X025155Y005567D01*
X025180Y005469D02*
X025180Y005469D01*
X025180Y005370D02*
X025180Y005370D01*
X025140Y005272D02*
X025220Y005272D01*
X025271Y005173D02*
X025061Y005173D01*
X025208Y005075D02*
X024230Y005075D01*
X024230Y005173D02*
X024599Y005173D01*
X024520Y005272D02*
X024230Y005272D01*
X024230Y005370D02*
X024480Y005370D01*
X024480Y005469D02*
X024230Y005469D01*
X024230Y005567D02*
X024505Y005567D01*
X024563Y005666D02*
X024230Y005666D01*
X024230Y005764D02*
X024704Y005764D01*
X025580Y006620D02*
X025730Y006470D01*
X025730Y006829D01*
X025818Y006917D01*
X026392Y006917D01*
X026399Y006911D01*
X026399Y007166D01*
X026480Y007247D01*
X026431Y007296D01*
X026392Y007257D01*
X025818Y007257D01*
X025730Y007345D01*
X025730Y007829D01*
X025818Y007917D01*
X026392Y007917D01*
X026411Y007898D01*
X026473Y007960D01*
X026467Y007960D01*
X026379Y008048D01*
X026379Y008187D01*
X025763Y008187D01*
X025580Y008004D01*
X025580Y006620D01*
X025580Y006651D02*
X025730Y006651D01*
X025730Y006749D02*
X025580Y006749D01*
X025580Y006848D02*
X025748Y006848D01*
X025580Y006946D02*
X026399Y006946D01*
X026399Y007045D02*
X025580Y007045D01*
X025580Y007143D02*
X026399Y007143D01*
X026474Y007242D02*
X025580Y007242D01*
X025580Y007340D02*
X025735Y007340D01*
X025780Y007287D02*
X025780Y007537D01*
X025680Y007537D01*
X025730Y007537D02*
X025580Y007537D01*
X025580Y007439D02*
X025730Y007439D01*
X025780Y007537D02*
X025780Y007887D01*
X025980Y008087D01*
X026105Y008087D02*
X026105Y008112D01*
X026379Y008128D02*
X025704Y008128D01*
X025605Y008030D02*
X026398Y008030D01*
X026444Y007931D02*
X025580Y007931D01*
X025580Y007833D02*
X025733Y007833D01*
X025730Y007734D02*
X025580Y007734D01*
X025580Y007636D02*
X025730Y007636D01*
X026105Y007587D02*
X026625Y007587D01*
X026745Y007607D01*
X025980Y007087D02*
X025780Y007287D01*
X026395Y006587D02*
X026695Y006887D01*
X026745Y006887D01*
X026395Y006587D02*
X026105Y006587D01*
X025730Y006552D02*
X025648Y006552D01*
X025380Y006537D02*
X024630Y006537D01*
X025380Y006537D02*
X025380Y007887D01*
X027630Y009087D02*
X027630Y009237D01*
X027955Y009562D01*
X028379Y009562D01*
X028824Y008847D02*
X030841Y008847D01*
X030841Y008780D01*
X030885Y008674D01*
X030966Y008593D01*
X031037Y008563D01*
X030951Y008477D01*
X029448Y008477D01*
X029394Y008532D01*
X029287Y008576D01*
X029173Y008576D01*
X029066Y008532D01*
X028985Y008451D01*
X028941Y008345D01*
X028941Y008230D01*
X028985Y008124D01*
X028997Y008112D01*
X028985Y008101D01*
X028941Y007995D01*
X028941Y007880D01*
X028985Y007774D01*
X029066Y007693D01*
X029173Y007649D01*
X029287Y007649D01*
X029394Y007693D01*
X029475Y007774D01*
X029519Y007880D01*
X029519Y007897D01*
X031040Y007897D01*
X031040Y006559D01*
X031151Y006447D01*
X031401Y006197D01*
X033001Y006197D01*
X033011Y006187D01*
X032697Y006187D01*
X032580Y006070D01*
X032430Y005920D01*
X032430Y005587D01*
X031569Y005587D01*
X031569Y005599D01*
X031587Y005599D01*
X031694Y005643D01*
X031775Y005724D01*
X031819Y005830D01*
X031819Y005945D01*
X031775Y006051D01*
X031694Y006132D01*
X031587Y006176D01*
X031473Y006176D01*
X031366Y006132D01*
X031312Y006077D01*
X031101Y006077D01*
X030990Y005966D01*
X030901Y005877D01*
X030501Y005877D01*
X030390Y005766D01*
X030240Y005616D01*
X030240Y005381D01*
X029243Y005381D01*
X029359Y005497D01*
X029659Y005497D01*
X029770Y005609D01*
X030426Y006264D01*
X030494Y006293D01*
X030575Y006374D01*
X030619Y006480D01*
X030619Y006595D01*
X030575Y006701D01*
X030494Y006782D01*
X030387Y006826D01*
X030273Y006826D01*
X030166Y006782D01*
X030085Y006701D01*
X030041Y006595D01*
X030041Y006480D01*
X030060Y006436D01*
X029770Y006146D01*
X029770Y006469D01*
X029825Y006524D01*
X029869Y006630D01*
X029869Y006745D01*
X029825Y006851D01*
X029744Y006932D01*
X029637Y006976D01*
X029523Y006976D01*
X029416Y006932D01*
X029335Y006851D01*
X029291Y006745D01*
X029291Y006630D01*
X029335Y006524D01*
X029390Y006469D01*
X029390Y006027D01*
X029151Y006027D01*
X028824Y005700D01*
X028824Y006134D01*
X028743Y006216D01*
X028824Y006297D01*
X028824Y008847D01*
X028824Y008818D02*
X030841Y008818D01*
X030866Y008719D02*
X028824Y008719D01*
X028824Y008621D02*
X030938Y008621D01*
X030996Y008522D02*
X029404Y008522D01*
X029056Y008522D02*
X028824Y008522D01*
X028824Y008424D02*
X028974Y008424D01*
X028941Y008325D02*
X028824Y008325D01*
X028824Y008227D02*
X028943Y008227D01*
X028983Y008128D02*
X028824Y008128D01*
X028824Y008030D02*
X028956Y008030D01*
X028941Y007931D02*
X028824Y007931D01*
X028824Y007833D02*
X028961Y007833D01*
X029025Y007734D02*
X028824Y007734D01*
X028824Y007636D02*
X031040Y007636D01*
X031040Y007734D02*
X029435Y007734D01*
X029499Y007833D02*
X031040Y007833D01*
X031040Y007537D02*
X028824Y007537D01*
X028824Y007439D02*
X031040Y007439D01*
X031040Y007340D02*
X028824Y007340D01*
X028824Y007242D02*
X031040Y007242D01*
X031040Y007143D02*
X028824Y007143D01*
X028824Y007045D02*
X031040Y007045D01*
X031040Y006946D02*
X029710Y006946D01*
X029826Y006848D02*
X031040Y006848D01*
X031040Y006749D02*
X030527Y006749D01*
X030596Y006651D02*
X031040Y006651D01*
X031047Y006552D02*
X030619Y006552D01*
X030608Y006454D02*
X031145Y006454D01*
X031244Y006355D02*
X030556Y006355D01*
X030418Y006257D02*
X031342Y006257D01*
X031429Y006158D02*
X030319Y006158D01*
X030221Y006060D02*
X031084Y006060D01*
X030985Y005961D02*
X030122Y005961D01*
X030024Y005863D02*
X030487Y005863D01*
X030388Y005764D02*
X029925Y005764D01*
X029827Y005666D02*
X030290Y005666D01*
X030240Y005567D02*
X029728Y005567D01*
X029330Y005469D02*
X030240Y005469D01*
X030839Y005337D02*
X030889Y005387D01*
X031230Y005387D01*
X032530Y005387D01*
X032630Y005487D01*
X032630Y005837D01*
X032780Y005987D01*
X033260Y005987D01*
X035014Y004233D01*
X035219Y004029D01*
X035219Y001403D01*
X035630Y001403D01*
X035977Y001430D02*
X036060Y001430D01*
X036060Y001332D02*
X035977Y001332D01*
X035977Y001233D02*
X036132Y001233D01*
X035977Y001135D02*
X037435Y001135D01*
X037249Y001233D02*
X037028Y001233D01*
X037100Y001332D02*
X037150Y001332D01*
X037103Y001430D02*
X037100Y001430D01*
X037580Y001637D02*
X037580Y001937D01*
X037305Y002212D01*
X037280Y002237D01*
X036430Y002237D01*
X036330Y002337D01*
X036330Y002772D01*
X035830Y003272D01*
X035858Y003300D01*
X035858Y003741D01*
X036173Y003741D02*
X036173Y003595D01*
X036495Y003272D01*
X036680Y003272D01*
X036765Y003187D01*
X036830Y003187D01*
X037105Y002912D01*
X037580Y002437D01*
X039080Y002437D01*
X039580Y001937D01*
X039580Y001637D01*
X040057Y001430D02*
X042250Y001430D01*
X042250Y001529D02*
X040098Y001529D01*
X040100Y001627D02*
X042250Y001627D01*
X042250Y001726D02*
X040100Y001726D01*
X040065Y001824D02*
X042250Y001824D01*
X042250Y001923D02*
X040025Y001923D01*
X039932Y002021D02*
X042250Y002021D01*
X042250Y002120D02*
X039775Y002120D01*
X039582Y002218D02*
X042250Y002218D01*
X042250Y002317D02*
X039484Y002317D01*
X039385Y002415D02*
X042250Y002415D01*
X042250Y002514D02*
X039287Y002514D01*
X039188Y002612D02*
X042250Y002612D01*
X042250Y002711D02*
X039119Y002711D01*
X039121Y002809D02*
X039092Y002809D01*
X039105Y002908D02*
X039020Y002908D01*
X039020Y003006D02*
X039105Y003006D01*
X039105Y003105D02*
X039020Y003105D01*
X039020Y003203D02*
X039105Y003203D01*
X039105Y003302D02*
X039020Y003302D01*
X039020Y003400D02*
X039105Y003400D01*
X039105Y003499D02*
X039020Y003499D01*
X039020Y003597D02*
X039105Y003597D01*
X039105Y003696D02*
X039020Y003696D01*
X039020Y003794D02*
X039105Y003794D01*
X039105Y003893D02*
X039020Y003893D01*
X039020Y003991D02*
X039147Y003991D01*
X039020Y004090D02*
X039485Y004090D01*
X039485Y004188D02*
X039020Y004188D01*
X039080Y004287D02*
X039485Y004287D01*
X039485Y004385D02*
X039119Y004385D01*
X039119Y004484D02*
X039485Y004484D01*
X039485Y004582D02*
X039083Y004582D01*
X038998Y004681D02*
X039491Y004681D01*
X039540Y004779D02*
X039097Y004779D01*
X039195Y004878D02*
X039638Y004878D01*
X039737Y004976D02*
X039294Y004976D01*
X039392Y005075D02*
X039835Y005075D01*
X039934Y005173D02*
X039491Y005173D01*
X039589Y005272D02*
X040032Y005272D01*
X040131Y005370D02*
X039688Y005370D01*
X039786Y005469D02*
X040229Y005469D01*
X040201Y005567D02*
X040328Y005567D01*
X040329Y005666D02*
X040360Y005666D01*
X040796Y005272D02*
X042250Y005272D01*
X042250Y005370D02*
X040874Y005370D01*
X040900Y005469D02*
X042250Y005469D01*
X042250Y005567D02*
X040900Y005567D01*
X040900Y005666D02*
X042250Y005666D01*
X042250Y005764D02*
X040900Y005764D01*
X040900Y005863D02*
X042250Y005863D01*
X042250Y005961D02*
X040900Y005961D01*
X040900Y006060D02*
X042250Y006060D01*
X042250Y006158D02*
X040900Y006158D01*
X040900Y006257D02*
X042250Y006257D01*
X042250Y006355D02*
X040900Y006355D01*
X040900Y006454D02*
X042250Y006454D01*
X042250Y006552D02*
X040900Y006552D01*
X040900Y006651D02*
X042250Y006651D01*
X042250Y006749D02*
X040900Y006749D01*
X040900Y006848D02*
X042250Y006848D01*
X042250Y006946D02*
X040900Y006946D01*
X040900Y007045D02*
X042250Y007045D01*
X042250Y007143D02*
X040900Y007143D01*
X040900Y007242D02*
X042250Y007242D01*
X042250Y007340D02*
X040900Y007340D01*
X040900Y007439D02*
X042250Y007439D01*
X042250Y007537D02*
X040860Y007537D01*
X040764Y007636D02*
X042250Y007636D01*
X042250Y007734D02*
X040665Y007734D01*
X040567Y007833D02*
X042250Y007833D01*
X042250Y007931D02*
X040447Y007931D01*
X040597Y008179D02*
X040891Y008057D01*
X041209Y008057D01*
X041503Y008179D01*
X041728Y008404D01*
X041850Y008698D01*
X041850Y009016D01*
X041728Y009310D01*
X042250Y009310D01*
X042250Y009212D02*
X041769Y009212D01*
X041728Y009310D02*
X041503Y009536D01*
X041209Y009657D01*
X040891Y009657D01*
X040597Y009536D01*
X040372Y009310D01*
X037420Y009310D01*
X037420Y009212D02*
X040331Y009212D01*
X040372Y009310D02*
X040250Y009016D01*
X040250Y008698D01*
X040372Y008404D01*
X040597Y008179D01*
X040549Y008227D02*
X037832Y008227D01*
X037912Y008128D02*
X040720Y008128D01*
X040451Y008325D02*
X037386Y008325D01*
X037485Y008424D02*
X040364Y008424D01*
X040323Y008522D02*
X037520Y008522D01*
X037520Y008621D02*
X040282Y008621D01*
X040250Y008719D02*
X037520Y008719D01*
X037518Y008818D02*
X040250Y008818D01*
X040250Y008916D02*
X037420Y008916D01*
X037420Y009015D02*
X040250Y009015D01*
X040290Y009113D02*
X037420Y009113D01*
X037420Y009409D02*
X040470Y009409D01*
X040568Y009507D02*
X037420Y009507D01*
X037420Y009606D02*
X040766Y009606D01*
X041334Y009606D02*
X042250Y009606D01*
X042250Y009704D02*
X037420Y009704D01*
X037420Y010197D02*
X038142Y010197D01*
X038142Y010295D02*
X037420Y010295D01*
X037845Y010394D02*
X038142Y010394D01*
X038142Y010492D02*
X037903Y010492D01*
X038142Y010098D02*
X038230Y010010D01*
X038944Y010010D01*
X039032Y010098D01*
X039032Y010788D02*
X042250Y010788D01*
X042250Y010886D02*
X039032Y010886D01*
X038998Y010985D02*
X042250Y010985D01*
X042250Y011083D02*
X037911Y011083D01*
X037911Y011182D02*
X042250Y011182D01*
X042250Y011280D02*
X037911Y011280D01*
X037911Y011379D02*
X038160Y011379D01*
X038080Y011337D02*
X038080Y011187D01*
X038080Y011337D02*
X038244Y011174D01*
X038587Y011174D01*
X038176Y010985D02*
X038000Y010985D01*
X037872Y010830D02*
X037565Y011137D01*
X037872Y010830D02*
X037961Y010740D01*
X038587Y010740D01*
X038080Y011337D02*
X037565Y011853D01*
X037565Y011937D01*
X037452Y011674D02*
X037841Y011674D01*
X037853Y011773D02*
X037296Y011773D01*
X037262Y011871D02*
X037905Y011871D01*
X037965Y011970D02*
X037262Y011970D01*
X037262Y012068D02*
X037866Y012068D01*
X037880Y012337D02*
X036895Y012337D01*
X036895Y012737D01*
X036895Y013537D01*
X036895Y014337D01*
X037180Y014622D01*
X037180Y014637D01*
X037565Y014337D02*
X037580Y014337D01*
X038055Y013862D01*
X038180Y013737D01*
X038180Y013087D01*
X038361Y012906D01*
X038587Y012906D01*
X038587Y012473D02*
X038195Y012473D01*
X037980Y012687D01*
X037980Y013187D01*
X037630Y013537D01*
X037565Y013537D01*
X037230Y013246D02*
X037306Y013171D01*
X037714Y013171D01*
X037780Y013104D01*
X037780Y012604D01*
X037847Y012537D01*
X037262Y012537D01*
X037262Y012996D01*
X037174Y013084D01*
X037095Y013084D01*
X037095Y013171D01*
X037154Y013171D01*
X037230Y013246D01*
X037095Y013152D02*
X037733Y013152D01*
X037780Y013053D02*
X037205Y013053D01*
X037262Y012955D02*
X037780Y012955D01*
X037780Y012856D02*
X037262Y012856D01*
X037262Y012758D02*
X037780Y012758D01*
X037780Y012659D02*
X037262Y012659D01*
X037262Y012561D02*
X037824Y012561D01*
X037880Y012337D02*
X038178Y012040D01*
X038587Y012040D01*
X039032Y011970D02*
X039089Y011970D01*
X039032Y011871D02*
X042250Y011871D01*
X042250Y011773D02*
X039032Y011773D01*
X039032Y011674D02*
X042250Y011674D01*
X042250Y011576D02*
X039032Y011576D01*
X039032Y011477D02*
X042250Y011477D01*
X042250Y011379D02*
X039014Y011379D01*
X039471Y011970D02*
X042250Y011970D01*
X042250Y012068D02*
X039543Y012068D01*
X039569Y012167D02*
X042250Y012167D01*
X042250Y012265D02*
X039620Y012265D01*
X039620Y012364D02*
X042250Y012364D01*
X042250Y012462D02*
X039620Y012462D01*
X039620Y012561D02*
X042250Y012561D01*
X042250Y012659D02*
X039620Y012659D01*
X039620Y012758D02*
X042250Y012758D01*
X042250Y012856D02*
X039620Y012856D01*
X039620Y012955D02*
X042250Y012955D01*
X042250Y013053D02*
X039620Y013053D01*
X039620Y013152D02*
X042250Y013152D01*
X042250Y013250D02*
X039620Y013250D01*
X039620Y013349D02*
X042250Y013349D01*
X042250Y013447D02*
X039620Y013447D01*
X039620Y013546D02*
X042250Y013546D01*
X042250Y013644D02*
X039620Y013644D01*
X039620Y013743D02*
X039836Y013743D01*
X039711Y013841D02*
X039620Y013841D01*
X039620Y013940D02*
X039640Y013940D01*
X040271Y013743D02*
X042250Y013743D01*
X042250Y013841D02*
X040396Y013841D01*
X040467Y013940D02*
X042250Y013940D01*
X042250Y014038D02*
X040508Y014038D01*
X040519Y014137D02*
X042250Y014137D01*
X042250Y014235D02*
X040519Y014235D01*
X040483Y014334D02*
X042250Y014334D01*
X042250Y014432D02*
X040435Y014432D01*
X040336Y014531D02*
X042250Y014531D01*
X042250Y014629D02*
X039620Y014629D01*
X039620Y014531D02*
X039771Y014531D01*
X039672Y014432D02*
X039620Y014432D01*
X039620Y014334D02*
X039624Y014334D01*
X039558Y014728D02*
X042250Y014728D01*
X042250Y014826D02*
X039460Y014826D01*
X039361Y014925D02*
X040087Y014925D01*
X039930Y014887D02*
X039730Y015087D01*
X039475Y015087D01*
X039346Y015220D02*
X039803Y015220D01*
X039845Y015122D02*
X039247Y015122D01*
X039192Y015023D02*
X039944Y015023D01*
X039930Y014887D02*
X041897Y014887D01*
X041983Y014973D01*
X041947Y014937D01*
X041947Y017106D01*
X041330Y017723D01*
X040848Y017880D02*
X042250Y017880D01*
X042250Y017978D02*
X040889Y017978D01*
X040930Y018077D02*
X042250Y018077D01*
X042250Y018175D02*
X040939Y018175D01*
X040939Y018274D02*
X042250Y018274D01*
X042250Y018372D02*
X040923Y018372D01*
X040882Y018471D02*
X042250Y018471D01*
X042250Y018569D02*
X040830Y018569D01*
X040732Y018668D02*
X042250Y018668D01*
X042250Y018766D02*
X040565Y018766D01*
X040126Y018766D02*
X038643Y018766D01*
X038545Y018668D02*
X039960Y018668D01*
X039861Y018569D02*
X039695Y018569D01*
X039794Y018471D02*
X039810Y018471D01*
X038742Y018865D02*
X042250Y018865D01*
X042250Y018963D02*
X038840Y018963D01*
X038939Y019062D02*
X042250Y019062D01*
X042250Y019160D02*
X039476Y019160D01*
X039574Y019259D02*
X042250Y019259D01*
X042250Y019357D02*
X039635Y019357D01*
X039676Y019456D02*
X042250Y019456D01*
X042250Y019554D02*
X039687Y019554D01*
X039687Y019653D02*
X042250Y019653D01*
X042250Y019751D02*
X039663Y019751D01*
X039622Y019850D02*
X042249Y019850D01*
X042236Y019948D02*
X039542Y019948D01*
X039418Y020047D02*
X042204Y020047D01*
X042154Y020145D02*
X037870Y020145D01*
X037870Y020047D02*
X038917Y020047D01*
X038793Y019948D02*
X037870Y019948D01*
X037870Y019850D02*
X038713Y019850D01*
X038672Y019751D02*
X037870Y019751D01*
X037870Y019653D02*
X038648Y019653D01*
X038648Y019554D02*
X037870Y019554D01*
X037870Y019456D02*
X038659Y019456D01*
X038640Y019357D02*
X037870Y019357D01*
X037870Y019259D02*
X038542Y019259D01*
X038443Y019160D02*
X037771Y019160D01*
X037673Y019062D02*
X037902Y019062D01*
X037867Y018963D02*
X037574Y018963D01*
X037547Y018865D02*
X037867Y018865D01*
X037867Y018766D02*
X037547Y018766D01*
X037547Y018668D02*
X037867Y018668D01*
X036813Y018668D02*
X035545Y018668D01*
X035507Y018630D02*
X035736Y018859D01*
X035774Y018897D01*
X036813Y018897D01*
X036813Y018597D01*
X035437Y018597D01*
X035470Y018630D01*
X035507Y018630D01*
X035643Y018766D02*
X036813Y018766D01*
X036813Y018865D02*
X035742Y018865D01*
X035439Y019156D02*
X035397Y019114D01*
X034954Y019114D01*
X034867Y019026D01*
X034867Y018654D01*
X034923Y018597D01*
X034597Y018597D01*
X034597Y018981D01*
X034509Y019069D01*
X034275Y019069D01*
X034462Y019146D01*
X034608Y019293D01*
X034687Y019484D01*
X034687Y019691D01*
X034610Y019877D01*
X035725Y019877D01*
X035648Y019691D01*
X035648Y019484D01*
X035683Y019399D01*
X035439Y019156D01*
X035443Y019160D02*
X034476Y019160D01*
X034516Y019062D02*
X034902Y019062D01*
X034867Y018963D02*
X034597Y018963D01*
X034597Y018865D02*
X034867Y018865D01*
X034867Y018766D02*
X034597Y018766D01*
X034597Y018668D02*
X034867Y018668D01*
X034060Y019069D02*
X033951Y019069D01*
X033863Y018981D01*
X033863Y018597D01*
X032437Y018597D01*
X032470Y018630D01*
X032507Y018630D01*
X032980Y019102D01*
X033064Y019067D01*
X033271Y019067D01*
X033462Y019146D01*
X033608Y019293D01*
X033667Y019436D01*
X033727Y019293D01*
X033873Y019146D01*
X034060Y019069D01*
X033944Y019062D02*
X032939Y019062D01*
X032840Y018963D02*
X033863Y018963D01*
X033863Y018865D02*
X032742Y018865D01*
X032643Y018766D02*
X033863Y018766D01*
X033863Y018668D02*
X032545Y018668D01*
X032397Y019114D02*
X031954Y019114D01*
X031867Y019026D01*
X031867Y018654D01*
X031923Y018597D01*
X031597Y018597D01*
X031597Y018981D01*
X031509Y019069D01*
X031275Y019069D01*
X031462Y019146D01*
X031608Y019293D01*
X031687Y019484D01*
X031687Y019691D01*
X031610Y019877D01*
X032725Y019877D01*
X032648Y019691D01*
X032648Y019484D01*
X032683Y019399D01*
X032397Y019114D01*
X032443Y019160D02*
X031476Y019160D01*
X031516Y019062D02*
X031902Y019062D01*
X031867Y018963D02*
X031597Y018963D01*
X031597Y018865D02*
X031867Y018865D01*
X031867Y018766D02*
X031597Y018766D01*
X031597Y018668D02*
X031867Y018668D01*
X031060Y019069D02*
X030951Y019069D01*
X030863Y018981D01*
X030863Y018597D01*
X029437Y018597D01*
X029470Y018630D01*
X029507Y018630D01*
X029980Y019102D01*
X030064Y019067D01*
X030271Y019067D01*
X030462Y019146D01*
X030608Y019293D01*
X030668Y019436D01*
X030727Y019293D01*
X030873Y019146D01*
X031060Y019069D01*
X030944Y019062D02*
X029939Y019062D01*
X029840Y018963D02*
X030863Y018963D01*
X030863Y018865D02*
X029742Y018865D01*
X029643Y018766D02*
X030863Y018766D01*
X030863Y018668D02*
X029545Y018668D01*
X028923Y018597D02*
X028597Y018597D01*
X028597Y018981D01*
X028509Y019069D01*
X028275Y019069D01*
X028462Y019146D01*
X028608Y019293D01*
X028687Y019484D01*
X028687Y019691D01*
X028610Y019877D01*
X029725Y019877D01*
X029648Y019691D01*
X029648Y019484D01*
X029683Y019399D01*
X029397Y019114D01*
X028954Y019114D01*
X028867Y019026D01*
X028867Y018654D01*
X028923Y018597D01*
X028867Y018668D02*
X028597Y018668D01*
X028597Y018766D02*
X028867Y018766D01*
X028867Y018865D02*
X028597Y018865D01*
X028597Y018963D02*
X028867Y018963D01*
X028902Y019062D02*
X028516Y019062D01*
X028476Y019160D02*
X029443Y019160D01*
X029542Y019259D02*
X028574Y019259D01*
X028635Y019357D02*
X029640Y019357D01*
X029659Y019456D02*
X028676Y019456D01*
X028687Y019554D02*
X029648Y019554D01*
X029648Y019653D02*
X028687Y019653D01*
X028663Y019751D02*
X029672Y019751D01*
X029713Y019850D02*
X028622Y019850D01*
X030476Y019160D02*
X030859Y019160D01*
X030761Y019259D02*
X030574Y019259D01*
X030635Y019357D02*
X030700Y019357D01*
X031574Y019259D02*
X032542Y019259D01*
X032640Y019357D02*
X031635Y019357D01*
X031676Y019456D02*
X032659Y019456D01*
X032648Y019554D02*
X031687Y019554D01*
X031687Y019653D02*
X032648Y019653D01*
X032672Y019751D02*
X031663Y019751D01*
X031622Y019850D02*
X032713Y019850D01*
X033635Y019357D02*
X033700Y019357D01*
X033761Y019259D02*
X033574Y019259D01*
X033476Y019160D02*
X033859Y019160D01*
X034574Y019259D02*
X035542Y019259D01*
X035640Y019357D02*
X034635Y019357D01*
X034676Y019456D02*
X035659Y019456D01*
X035648Y019554D02*
X034687Y019554D01*
X034687Y019653D02*
X035648Y019653D01*
X035672Y019751D02*
X034663Y019751D01*
X034622Y019850D02*
X035713Y019850D01*
X037694Y020342D02*
X041952Y020342D01*
X042083Y020244D02*
X037792Y020244D01*
X041663Y020622D02*
X003572Y020622D01*
X003283Y020342D02*
X010566Y020342D01*
X010468Y020244D02*
X003152Y020244D01*
X003080Y020145D02*
X010369Y020145D01*
X010271Y020047D02*
X003031Y020047D01*
X002999Y019948D02*
X005439Y019948D01*
X003572Y020622D02*
X003518Y020620D01*
X003465Y020615D01*
X003412Y020606D01*
X003360Y020593D01*
X003308Y020577D01*
X003258Y020557D01*
X003210Y020534D01*
X003163Y020507D01*
X003118Y020478D01*
X003075Y020445D01*
X003035Y020410D01*
X002997Y020372D01*
X002962Y020332D01*
X002929Y020289D01*
X002900Y020244D01*
X002873Y020197D01*
X002850Y020149D01*
X002830Y020099D01*
X002814Y020047D01*
X002801Y019995D01*
X002792Y019942D01*
X002787Y019889D01*
X002785Y019835D01*
X008303Y019850D02*
X008687Y019850D01*
X008558Y019751D02*
X008384Y019751D01*
X008424Y019653D02*
X008477Y019653D01*
X012421Y019948D02*
X013684Y019948D01*
X013557Y019850D02*
X013173Y019850D01*
X013302Y019751D02*
X013476Y019751D01*
X013436Y019653D02*
X013383Y019653D01*
X012687Y019850D02*
X012450Y019850D01*
X012450Y019751D02*
X012558Y019751D01*
X012477Y019653D02*
X012450Y019653D01*
X014176Y019948D02*
X017439Y019948D01*
X017410Y019850D02*
X015173Y019850D01*
X015302Y019751D02*
X017410Y019751D01*
X017410Y019653D02*
X015383Y019653D01*
X015424Y019554D02*
X017410Y019554D01*
X017410Y019456D02*
X015450Y019456D01*
X015450Y019357D02*
X017410Y019357D01*
X017410Y019259D02*
X015440Y019259D01*
X015399Y019160D02*
X017410Y019160D01*
X017410Y019062D02*
X015340Y019062D01*
X014944Y018372D02*
X014774Y018372D01*
X014759Y018274D02*
X014675Y018274D01*
X014661Y018175D02*
X014577Y018175D01*
X014617Y018077D02*
X014478Y018077D01*
X014380Y017978D02*
X014580Y017978D01*
X014580Y017880D02*
X014281Y017880D01*
X014190Y017781D02*
X014583Y017781D01*
X014542Y017683D02*
X014190Y017683D01*
X014190Y017584D02*
X014444Y017584D01*
X014345Y017486D02*
X014190Y017486D01*
X014247Y017387D02*
X014190Y017330D01*
X014330Y017187D02*
X015030Y017887D01*
X015080Y017887D01*
X017326Y017683D02*
X017570Y017683D01*
X017570Y017584D02*
X017327Y017584D01*
X017327Y017486D02*
X017519Y017486D01*
X017421Y017387D02*
X017327Y017387D01*
X014558Y019751D02*
X014384Y019751D01*
X014424Y019653D02*
X014477Y019653D01*
X014303Y019850D02*
X014687Y019850D01*
X024421Y019948D02*
X025684Y019948D01*
X025557Y019850D02*
X025173Y019850D01*
X025302Y019751D02*
X025476Y019751D01*
X025436Y019653D02*
X025383Y019653D01*
X024687Y019850D02*
X024450Y019850D01*
X024450Y019751D02*
X024558Y019751D01*
X024477Y019653D02*
X024450Y019653D01*
X027216Y018372D02*
X027420Y018372D01*
X027420Y018274D02*
X027401Y018274D01*
X027880Y018287D02*
X027980Y018387D01*
X028230Y018387D01*
X027880Y018287D02*
X027880Y017737D01*
X027980Y017637D01*
X028130Y017387D02*
X030112Y017387D01*
X030140Y017359D02*
X030251Y017247D01*
X033401Y017247D01*
X033690Y016959D01*
X033690Y014546D01*
X033527Y014709D01*
X033527Y015081D01*
X033439Y015169D01*
X032921Y015169D01*
X032833Y015081D01*
X032833Y014895D01*
X032470Y014895D01*
X032406Y014959D01*
X031954Y014959D01*
X031890Y014895D01*
X031597Y014895D01*
X031597Y015062D01*
X031521Y015137D01*
X031597Y015213D01*
X031597Y015731D01*
X031509Y015819D01*
X031275Y015819D01*
X031462Y015896D01*
X031608Y016043D01*
X031687Y016234D01*
X031687Y016441D01*
X031608Y016632D01*
X031462Y016778D01*
X031271Y016857D01*
X031257Y016857D01*
X031254Y016860D01*
X031190Y016924D01*
X031190Y016924D01*
X031067Y017047D01*
X028217Y017047D01*
X027911Y017353D01*
X027923Y017349D01*
X028037Y017349D01*
X028144Y017393D01*
X028225Y017474D01*
X028269Y017580D01*
X028269Y017695D01*
X028264Y017706D01*
X028509Y017706D01*
X028527Y017725D01*
X028890Y017725D01*
X028954Y017661D01*
X029406Y017661D01*
X029470Y017725D01*
X029872Y017725D01*
X029872Y017627D01*
X030140Y017359D01*
X030210Y017289D02*
X027976Y017289D01*
X028074Y017190D02*
X033459Y017190D01*
X033557Y017092D02*
X028173Y017092D01*
X028230Y017486D02*
X030013Y017486D01*
X029915Y017584D02*
X028269Y017584D01*
X028269Y017683D02*
X028932Y017683D01*
X029428Y017683D02*
X029872Y017683D01*
X031121Y016993D02*
X033656Y016993D01*
X033690Y016895D02*
X031220Y016895D01*
X031254Y016860D02*
X031254Y016860D01*
X031419Y016796D02*
X032916Y016796D01*
X032873Y016778D02*
X032727Y016632D01*
X032648Y016441D01*
X032648Y016234D01*
X032683Y016149D01*
X032397Y015864D01*
X031954Y015864D01*
X031867Y015776D01*
X031867Y015404D01*
X031954Y015316D01*
X032406Y015316D01*
X032470Y015380D01*
X032507Y015380D01*
X032980Y015852D01*
X033064Y015817D01*
X033271Y015817D01*
X033462Y015896D01*
X033608Y016043D01*
X033687Y016234D01*
X033687Y016441D01*
X033608Y016632D01*
X033462Y016778D01*
X033271Y016857D01*
X033064Y016857D01*
X032873Y016778D01*
X032792Y016698D02*
X031543Y016698D01*
X031622Y016599D02*
X032713Y016599D01*
X032672Y016501D02*
X031663Y016501D01*
X031687Y016402D02*
X032648Y016402D01*
X032648Y016304D02*
X031687Y016304D01*
X031676Y016205D02*
X032659Y016205D01*
X032640Y016107D02*
X031635Y016107D01*
X031574Y016008D02*
X032541Y016008D01*
X032443Y015910D02*
X031475Y015910D01*
X031516Y015811D02*
X031901Y015811D01*
X031867Y015713D02*
X031597Y015713D01*
X031597Y015614D02*
X031867Y015614D01*
X031867Y015516D02*
X031597Y015516D01*
X031597Y015417D02*
X031867Y015417D01*
X031952Y015319D02*
X031597Y015319D01*
X031597Y015220D02*
X033690Y015220D01*
X033690Y015122D02*
X033487Y015122D01*
X033527Y015023D02*
X033690Y015023D01*
X033690Y014925D02*
X033527Y014925D01*
X033527Y014826D02*
X033690Y014826D01*
X033690Y014728D02*
X033527Y014728D01*
X033607Y014629D02*
X033690Y014629D01*
X034520Y014629D02*
X035903Y014629D01*
X035805Y014531D02*
X034520Y014531D01*
X034520Y014432D02*
X035706Y014432D01*
X035690Y014416D02*
X035690Y011966D01*
X035175Y011451D01*
X035175Y011451D01*
X035094Y011532D01*
X034987Y011576D01*
X034910Y011576D01*
X034759Y011727D01*
X034568Y011727D01*
X034569Y011730D01*
X034569Y011845D01*
X034525Y011951D01*
X034444Y012032D01*
X034337Y012076D01*
X034327Y012076D01*
X034375Y012124D01*
X034419Y012230D01*
X034419Y012249D01*
X034437Y012249D01*
X034544Y012293D01*
X034625Y012374D01*
X034669Y012480D01*
X034669Y012595D01*
X034633Y012682D01*
X034675Y012724D01*
X034719Y012830D01*
X034719Y012945D01*
X034675Y013051D01*
X034594Y013132D01*
X034520Y013163D01*
X034520Y016089D01*
X034566Y016043D01*
X034673Y015999D01*
X034736Y015999D01*
X034880Y015854D01*
X034899Y015836D01*
X034899Y015659D01*
X034986Y015571D01*
X035504Y015571D01*
X035580Y015646D01*
X035656Y015571D01*
X036149Y015571D01*
X036168Y015551D01*
X036765Y015551D01*
X036853Y015639D01*
X036853Y016236D01*
X036765Y016324D01*
X036168Y016324D01*
X036149Y016304D01*
X035656Y016304D01*
X035580Y016228D01*
X035504Y016304D01*
X035019Y016304D01*
X035019Y016345D01*
X035008Y016371D01*
X035504Y016371D01*
X035580Y016446D01*
X035656Y016371D01*
X036149Y016371D01*
X036168Y016351D01*
X036765Y016351D01*
X036853Y016439D01*
X036853Y017036D01*
X036765Y017124D01*
X036168Y017124D01*
X036149Y017104D01*
X035656Y017104D01*
X035580Y017028D01*
X035504Y017104D01*
X035455Y017104D01*
X035455Y017166D01*
X035467Y017177D01*
X038937Y017177D01*
X038347Y016587D01*
X038230Y016470D01*
X038230Y016270D01*
X037342Y015383D01*
X037237Y015426D01*
X037123Y015426D01*
X037016Y015382D01*
X036935Y015301D01*
X036891Y015195D01*
X036891Y015080D01*
X036892Y015077D01*
X036351Y015077D01*
X036240Y014966D01*
X035690Y014416D01*
X035690Y014334D02*
X034520Y014334D01*
X034520Y014235D02*
X035690Y014235D01*
X035690Y014137D02*
X034520Y014137D01*
X034520Y014038D02*
X035690Y014038D01*
X035690Y013940D02*
X034520Y013940D01*
X034520Y013841D02*
X035690Y013841D01*
X035690Y013743D02*
X034520Y013743D01*
X034520Y013644D02*
X035690Y013644D01*
X035690Y013546D02*
X034520Y013546D01*
X034520Y013447D02*
X035690Y013447D01*
X035690Y013349D02*
X034520Y013349D01*
X034520Y013250D02*
X035690Y013250D01*
X035690Y013152D02*
X034547Y013152D01*
X034680Y013237D02*
X034780Y013137D01*
X034780Y012837D01*
X034680Y012737D01*
X034680Y011937D01*
X034558Y011871D02*
X035595Y011871D01*
X035690Y011970D02*
X034506Y011970D01*
X034357Y012068D02*
X035690Y012068D01*
X035690Y012167D02*
X034393Y012167D01*
X034477Y012265D02*
X035690Y012265D01*
X035690Y012364D02*
X034615Y012364D01*
X034661Y012462D02*
X035690Y012462D01*
X035690Y012561D02*
X034669Y012561D01*
X034642Y012659D02*
X035690Y012659D01*
X035690Y012758D02*
X034689Y012758D01*
X034719Y012856D02*
X035690Y012856D01*
X035690Y012955D02*
X034715Y012955D01*
X034673Y013053D02*
X035690Y013053D01*
X034680Y013237D02*
X034680Y013937D01*
X033390Y013859D02*
X033390Y012970D01*
X033352Y013008D01*
X033352Y013351D01*
X033264Y013438D01*
X032746Y013438D01*
X032658Y013351D01*
X032658Y013148D01*
X032636Y013126D01*
X032573Y013126D01*
X032466Y013082D01*
X032385Y013001D01*
X032341Y012895D01*
X032341Y012780D01*
X032385Y012674D01*
X032466Y012593D01*
X032573Y012549D01*
X032687Y012549D01*
X032794Y012593D01*
X032875Y012674D01*
X032888Y012705D01*
X033089Y012705D01*
X033205Y012589D01*
X033205Y012220D01*
X033002Y012017D01*
X033002Y011405D01*
X032998Y011409D01*
X032998Y012038D01*
X032770Y012266D01*
X032659Y012377D01*
X032509Y012377D01*
X032420Y012466D01*
X032309Y012577D01*
X031009Y012577D01*
X030970Y012616D01*
X030970Y013466D01*
X030859Y013577D01*
X030659Y013777D01*
X028809Y013777D01*
X028130Y014456D01*
X028509Y014456D01*
X028527Y014475D01*
X028890Y014475D01*
X028954Y014411D01*
X029406Y014411D01*
X029470Y014475D01*
X029883Y014475D01*
X029921Y014436D01*
X029990Y014436D01*
X029990Y014409D01*
X030101Y014297D01*
X030290Y014109D01*
X030401Y013997D01*
X033251Y013997D01*
X033390Y013859D01*
X033390Y013841D02*
X028745Y013841D01*
X028646Y013940D02*
X033309Y013940D01*
X033390Y013743D02*
X030693Y013743D01*
X030792Y013644D02*
X033390Y013644D01*
X033390Y013546D02*
X030890Y013546D01*
X030970Y013447D02*
X033390Y013447D01*
X033390Y013349D02*
X033352Y013349D01*
X033352Y013250D02*
X033390Y013250D01*
X033390Y013152D02*
X033352Y013152D01*
X033352Y013053D02*
X033390Y013053D01*
X033405Y012672D02*
X033005Y013072D01*
X032865Y013072D01*
X032630Y012837D01*
X032680Y012887D01*
X032658Y013152D02*
X030970Y013152D01*
X030970Y013250D02*
X032658Y013250D01*
X032658Y013349D02*
X030970Y013349D01*
X030970Y013053D02*
X032437Y013053D01*
X032366Y012955D02*
X030970Y012955D01*
X030970Y012856D02*
X032341Y012856D01*
X032351Y012758D02*
X030970Y012758D01*
X030970Y012659D02*
X032400Y012659D01*
X032325Y012561D02*
X032544Y012561D01*
X032630Y012437D02*
X032665Y012402D01*
X033005Y012402D01*
X033005Y011038D01*
X033202Y011038D02*
X033202Y011934D01*
X033405Y012137D01*
X033405Y012672D01*
X033205Y012561D02*
X032716Y012561D01*
X032860Y012659D02*
X033135Y012659D01*
X033205Y012462D02*
X032424Y012462D01*
X032420Y012466D02*
X032420Y012466D01*
X032672Y012364D02*
X033205Y012364D01*
X033205Y012265D02*
X032771Y012265D01*
X032869Y012167D02*
X033151Y012167D01*
X033053Y012068D02*
X032968Y012068D01*
X032998Y011970D02*
X033002Y011970D01*
X032998Y011871D02*
X033002Y011871D01*
X032998Y011773D02*
X033002Y011773D01*
X032998Y011674D02*
X033002Y011674D01*
X032998Y011576D02*
X033002Y011576D01*
X032998Y011477D02*
X033002Y011477D01*
X034569Y011773D02*
X035497Y011773D01*
X035398Y011674D02*
X034812Y011674D01*
X034989Y011576D02*
X035300Y011576D01*
X035201Y011477D02*
X035149Y011477D01*
X035695Y011137D02*
X036003Y011445D01*
X036180Y011622D01*
X036180Y011937D01*
X036180Y013937D01*
X036002Y014728D02*
X034520Y014728D01*
X034520Y014826D02*
X036100Y014826D01*
X036199Y014925D02*
X034520Y014925D01*
X034520Y015023D02*
X036297Y015023D01*
X036891Y015122D02*
X034520Y015122D01*
X034520Y015220D02*
X036902Y015220D01*
X036953Y015319D02*
X034520Y015319D01*
X034520Y015417D02*
X037101Y015417D01*
X037259Y015417D02*
X037377Y015417D01*
X037475Y015516D02*
X034520Y015516D01*
X034520Y015614D02*
X034943Y015614D01*
X034899Y015713D02*
X034520Y015713D01*
X034520Y015811D02*
X034899Y015811D01*
X034880Y015854D02*
X034880Y015854D01*
X034825Y015910D02*
X034520Y015910D01*
X034520Y016008D02*
X034650Y016008D01*
X034730Y016287D02*
X035080Y015937D01*
X035245Y015937D01*
X035548Y015614D02*
X035612Y015614D01*
X035655Y016304D02*
X035505Y016304D01*
X035536Y016402D02*
X035624Y016402D01*
X035643Y017092D02*
X035517Y017092D01*
X036797Y017092D02*
X038851Y017092D01*
X038753Y016993D02*
X036853Y016993D01*
X036853Y016895D02*
X038654Y016895D01*
X038556Y016796D02*
X036853Y016796D01*
X036853Y016698D02*
X038457Y016698D01*
X038359Y016599D02*
X036853Y016599D01*
X036853Y016501D02*
X038260Y016501D01*
X038230Y016402D02*
X036816Y016402D01*
X036785Y016304D02*
X038230Y016304D01*
X038165Y016205D02*
X036853Y016205D01*
X036853Y016107D02*
X038066Y016107D01*
X037968Y016008D02*
X036853Y016008D01*
X036853Y015910D02*
X037869Y015910D01*
X037771Y015811D02*
X036853Y015811D01*
X036853Y015713D02*
X037672Y015713D01*
X037574Y015614D02*
X036828Y015614D01*
X037180Y015137D02*
X037380Y015137D01*
X038430Y016187D01*
X038430Y016387D01*
X039430Y017387D01*
X040120Y016895D02*
X040525Y016895D01*
X040623Y016796D02*
X040022Y016796D01*
X039923Y016698D02*
X040722Y016698D01*
X040820Y016599D02*
X039825Y016599D01*
X039730Y016501D02*
X040919Y016501D01*
X041017Y016402D02*
X039730Y016402D01*
X039705Y016304D02*
X041050Y016304D01*
X040952Y016205D02*
X039664Y016205D01*
X039585Y016107D02*
X040911Y016107D01*
X040883Y016008D02*
X040570Y016008D01*
X040734Y015910D02*
X040883Y015910D01*
X040904Y015811D02*
X040833Y015811D01*
X040883Y015713D02*
X040945Y015713D01*
X040923Y015614D02*
X041035Y015614D01*
X040939Y015516D02*
X041215Y015516D01*
X041445Y015516D02*
X042250Y015516D01*
X042250Y015614D02*
X041625Y015614D01*
X041715Y015713D02*
X042250Y015713D01*
X042250Y015811D02*
X041756Y015811D01*
X041777Y015910D02*
X042250Y015910D01*
X042250Y016008D02*
X041777Y016008D01*
X041749Y016107D02*
X042250Y016107D01*
X042250Y016205D02*
X041708Y016205D01*
X041610Y016304D02*
X042250Y016304D01*
X042250Y016402D02*
X041530Y016402D01*
X041484Y016501D02*
X042250Y016501D01*
X042250Y016599D02*
X041386Y016599D01*
X041287Y016698D02*
X042250Y016698D01*
X042250Y016796D02*
X041189Y016796D01*
X041090Y016895D02*
X042250Y016895D01*
X042250Y016993D02*
X040992Y016993D01*
X040893Y017092D02*
X042250Y017092D01*
X042250Y017190D02*
X040795Y017190D01*
X040696Y017289D02*
X042250Y017289D01*
X042250Y017387D02*
X040661Y017387D01*
X040661Y017486D02*
X042250Y017486D01*
X042250Y017584D02*
X040661Y017584D01*
X040645Y017683D02*
X042250Y017683D01*
X042250Y017781D02*
X040750Y017781D01*
X040315Y017387D02*
X040315Y017372D01*
X039410Y016467D01*
X039210Y016467D01*
X039460Y016008D02*
X040121Y016008D01*
X039957Y015910D02*
X039818Y015910D01*
X039515Y015587D02*
X039430Y015587D01*
X038930Y015087D01*
X038885Y015087D01*
X040604Y014925D02*
X042250Y014925D01*
X042250Y015023D02*
X040748Y015023D01*
X040846Y015122D02*
X042250Y015122D01*
X042250Y015220D02*
X040888Y015220D01*
X040929Y015319D02*
X042250Y015319D01*
X042250Y015417D02*
X040939Y015417D01*
X041330Y015951D02*
X041330Y016372D01*
X040315Y017387D01*
X040219Y016993D02*
X040426Y016993D01*
X042450Y019835D02*
X042448Y019889D01*
X042443Y019942D01*
X042434Y019995D01*
X042421Y020047D01*
X042405Y020099D01*
X042385Y020149D01*
X042362Y020197D01*
X042335Y020244D01*
X042306Y020289D01*
X042273Y020332D01*
X042238Y020372D01*
X042200Y020410D01*
X042160Y020445D01*
X042117Y020478D01*
X042072Y020507D01*
X042025Y020534D01*
X041977Y020557D01*
X041927Y020577D01*
X041875Y020593D01*
X041823Y020606D01*
X041770Y020615D01*
X041717Y020620D01*
X041663Y020622D01*
X042450Y019835D02*
X042450Y001429D01*
X042241Y001332D02*
X040010Y001332D01*
X039911Y001233D02*
X042209Y001233D01*
X042166Y001135D02*
X039725Y001135D01*
X039435Y001135D02*
X037725Y001135D01*
X037911Y001233D02*
X038439Y001233D01*
X038250Y001332D02*
X038010Y001332D01*
X038057Y001430D02*
X038152Y001430D01*
X038104Y001529D02*
X038098Y001529D01*
X038910Y001332D02*
X039150Y001332D01*
X039103Y001430D02*
X039008Y001430D01*
X039056Y001529D02*
X039062Y001529D01*
X039249Y001233D02*
X038721Y001233D01*
X036580Y001737D02*
X035965Y001737D01*
X035630Y002072D01*
X035630Y002137D01*
X035530Y002237D01*
X035480Y002237D01*
X035480Y003887D01*
X035530Y003937D01*
X034880Y003672D02*
X034810Y003652D01*
X034113Y003652D01*
X033580Y004185D01*
X033580Y004187D01*
X033399Y004369D01*
X033399Y004936D01*
X033202Y004936D02*
X033202Y004309D01*
X032830Y003937D01*
X032830Y003237D01*
X033045Y003022D01*
X033247Y003022D01*
X033247Y002436D01*
X033395Y002287D01*
X033762Y002317D02*
X034483Y002317D01*
X034483Y002351D02*
X034483Y002123D01*
X034397Y002037D01*
X034280Y001920D01*
X034280Y001370D01*
X034247Y001337D01*
X033762Y001337D01*
X033762Y001746D01*
X033674Y001834D01*
X033180Y001834D01*
X033180Y001940D01*
X033674Y001940D01*
X033762Y002028D01*
X033762Y002546D01*
X033674Y002634D01*
X033447Y002634D01*
X033447Y002636D01*
X033585Y002636D01*
X033673Y002724D01*
X033673Y003321D01*
X033656Y003337D01*
X033673Y003354D01*
X033673Y003810D01*
X033687Y003795D01*
X033687Y003354D01*
X033704Y003337D01*
X033687Y003321D01*
X033687Y002724D01*
X033775Y002636D01*
X034451Y002636D01*
X034539Y002724D01*
X034539Y003321D01*
X034522Y003337D01*
X034539Y003354D01*
X034539Y003388D01*
X034621Y003305D01*
X035019Y003305D01*
X035019Y002438D01*
X034571Y002438D01*
X034483Y002351D01*
X034548Y002415D02*
X033762Y002415D01*
X033762Y002514D02*
X035019Y002514D01*
X035019Y002612D02*
X033696Y002612D01*
X033701Y002711D02*
X033659Y002711D01*
X033673Y002809D02*
X033687Y002809D01*
X033673Y002908D02*
X033687Y002908D01*
X033673Y003006D02*
X033687Y003006D01*
X033673Y003105D02*
X033687Y003105D01*
X033673Y003203D02*
X033687Y003203D01*
X033673Y003302D02*
X033687Y003302D01*
X033673Y003400D02*
X033687Y003400D01*
X033673Y003499D02*
X033687Y003499D01*
X033673Y003597D02*
X033687Y003597D01*
X033673Y003696D02*
X033687Y003696D01*
X033673Y003794D02*
X033687Y003794D01*
X034539Y003302D02*
X035019Y003302D01*
X035019Y003203D02*
X034539Y003203D01*
X034539Y003105D02*
X035019Y003105D01*
X035019Y003006D02*
X034539Y003006D01*
X034539Y002908D02*
X035019Y002908D01*
X035019Y002809D02*
X034539Y002809D01*
X034525Y002711D02*
X035019Y002711D01*
X034830Y002887D02*
X034880Y003003D01*
X034830Y002887D02*
X034552Y002610D01*
X034558Y002610D01*
X034630Y002537D01*
X034552Y002610D02*
X034230Y002287D01*
X034065Y002287D01*
X034065Y001487D01*
X034280Y001529D02*
X033762Y001529D01*
X033762Y001627D02*
X034280Y001627D01*
X034280Y001726D02*
X033762Y001726D01*
X033684Y001824D02*
X034280Y001824D01*
X034282Y001923D02*
X033180Y001923D01*
X032980Y002237D02*
X032980Y001387D01*
X032665Y001387D01*
X032605Y001328D01*
X032258Y001332D02*
X032080Y001332D01*
X032080Y001430D02*
X032258Y001430D01*
X032258Y001529D02*
X032080Y001529D01*
X032080Y001627D02*
X032279Y001627D01*
X032080Y001726D02*
X032780Y001726D01*
X032780Y001824D02*
X032005Y001824D01*
X031555Y001824D02*
X030000Y001824D01*
X030000Y001726D02*
X031480Y001726D01*
X031480Y001627D02*
X029976Y001627D01*
X029936Y001529D02*
X031480Y001529D01*
X031480Y001430D02*
X029858Y001430D01*
X029738Y001332D02*
X031480Y001332D01*
X032080Y001233D02*
X032258Y001233D01*
X032258Y001135D02*
X032080Y001135D01*
X032080Y001036D02*
X032271Y001036D01*
X031992Y000938D02*
X033547Y000938D01*
X033448Y001036D02*
X032939Y001036D01*
X032952Y001135D02*
X033350Y001135D01*
X033395Y001372D02*
X033630Y001137D01*
X034330Y001137D01*
X034480Y001287D01*
X034480Y001837D01*
X034715Y002072D01*
X034830Y002072D01*
X034479Y002120D02*
X033762Y002120D01*
X033762Y002218D02*
X034483Y002218D01*
X034381Y002021D02*
X033755Y002021D01*
X032980Y002237D02*
X032830Y002387D01*
X032830Y002837D01*
X032530Y003137D01*
X032480Y003137D01*
X031830Y002487D01*
X029180Y002487D01*
X029155Y002512D01*
X028930Y002287D01*
X029155Y002512D02*
X028895Y002772D01*
X028895Y002837D01*
X029565Y002837D02*
X031480Y002837D01*
X031830Y003187D01*
X031830Y003337D01*
X031780Y003387D01*
X032480Y003172D02*
X032480Y003137D01*
X032480Y003172D02*
X032611Y003303D01*
X032611Y004936D01*
X031824Y004936D02*
X031824Y004437D01*
X031080Y004437D01*
X031036Y004481D01*
X031036Y004936D01*
X030839Y004936D02*
X030839Y005337D01*
X031233Y005334D02*
X031230Y005387D01*
X031233Y005334D02*
X031233Y004936D01*
X031824Y004437D02*
X031824Y004194D01*
X031830Y004187D01*
X034407Y005123D02*
X035789Y005123D01*
X035847Y005065D01*
X036050Y005065D01*
X036041Y005045D01*
X036041Y004930D01*
X036085Y004824D01*
X036166Y004743D01*
X036273Y004699D01*
X036387Y004699D01*
X036494Y004743D01*
X036575Y004824D01*
X036619Y004930D01*
X036619Y005045D01*
X036576Y005149D01*
X036586Y005149D01*
X036621Y005113D01*
X036743Y005113D01*
X036792Y005065D01*
X036850Y005065D01*
X036841Y005045D01*
X036841Y004930D01*
X036885Y004824D01*
X036940Y004769D01*
X036940Y004511D01*
X036648Y004511D01*
X035697Y004511D01*
X035619Y004433D01*
X035097Y004433D01*
X034407Y005123D01*
X034456Y005075D02*
X035837Y005075D01*
X035830Y004987D02*
X035515Y004987D01*
X035480Y004953D01*
X036041Y004976D02*
X034554Y004976D01*
X034653Y004878D02*
X036063Y004878D01*
X036130Y004779D02*
X034751Y004779D01*
X034850Y004681D02*
X036940Y004681D01*
X036930Y004779D02*
X036530Y004779D01*
X036597Y004878D02*
X036863Y004878D01*
X036841Y004976D02*
X036619Y004976D01*
X036606Y005075D02*
X036782Y005075D01*
X036704Y005313D02*
X036580Y005437D01*
X036704Y005313D02*
X036952Y005313D01*
X037545Y005487D02*
X037545Y006287D01*
X037345Y006487D01*
X037080Y006597D02*
X035824Y006597D01*
X035750Y006777D02*
X037080Y006777D01*
X037119Y006983D02*
X037119Y007095D01*
X037075Y007201D01*
X036994Y007282D01*
X036887Y007326D01*
X036773Y007326D01*
X036666Y007282D01*
X036585Y007201D01*
X036580Y007188D01*
X036575Y007201D01*
X036494Y007282D01*
X036387Y007326D01*
X036273Y007326D01*
X036166Y007282D01*
X036085Y007201D01*
X036041Y007095D01*
X036041Y006980D01*
X036042Y006977D01*
X035611Y006977D01*
X035353Y006871D01*
X035313Y006831D01*
X035255Y006772D01*
X035196Y006714D01*
X035125Y006642D01*
X035109Y006630D01*
X035073Y006614D01*
X035053Y006612D01*
X034848Y006612D01*
X034926Y006691D01*
X034926Y007815D01*
X035020Y007909D01*
X035220Y008109D01*
X035220Y008119D01*
X035275Y008174D01*
X035319Y008280D01*
X035319Y008395D01*
X035275Y008501D01*
X035201Y008575D01*
X035325Y008575D01*
X035488Y008737D01*
X035948Y008737D01*
X035948Y008328D01*
X036026Y008251D01*
X036026Y008170D01*
X036070Y008064D01*
X036109Y008025D01*
X036085Y008001D01*
X036041Y007895D01*
X036041Y007780D01*
X036085Y007674D01*
X036166Y007593D01*
X036273Y007549D01*
X036387Y007549D01*
X036494Y007593D01*
X036575Y007674D01*
X036619Y007780D01*
X036619Y007857D01*
X036809Y008047D01*
X037179Y008047D01*
X037179Y007628D01*
X037267Y007540D01*
X037345Y007540D01*
X037345Y007454D01*
X037286Y007454D01*
X037199Y007366D01*
X037199Y007024D01*
X037177Y007007D01*
X037119Y006983D01*
X037119Y007045D02*
X037199Y007045D01*
X037199Y007143D02*
X037099Y007143D01*
X037345Y006887D02*
X037318Y006862D01*
X037288Y006840D01*
X037257Y006821D01*
X037224Y006806D01*
X037189Y006793D01*
X037153Y006784D01*
X037117Y006779D01*
X037080Y006777D01*
X037345Y006887D02*
X037545Y007087D01*
X037545Y007887D01*
X037179Y007931D02*
X036692Y007931D01*
X036619Y007833D02*
X037179Y007833D01*
X037179Y007734D02*
X036600Y007734D01*
X036537Y007636D02*
X037179Y007636D01*
X037345Y007537D02*
X034926Y007537D01*
X034926Y007439D02*
X037271Y007439D01*
X037199Y007340D02*
X034926Y007340D01*
X034926Y007242D02*
X036126Y007242D01*
X036061Y007143D02*
X034926Y007143D01*
X034926Y007045D02*
X036041Y007045D01*
X035535Y006946D02*
X034926Y006946D01*
X034926Y006848D02*
X035330Y006848D01*
X035353Y006871D02*
X035353Y006871D01*
X035232Y006749D02*
X034926Y006749D01*
X034886Y006651D02*
X035133Y006651D01*
X035052Y006609D02*
X035505Y007062D01*
X035396Y006631D02*
X035266Y006501D01*
X035382Y006362D02*
X035471Y006451D01*
X035396Y006631D02*
X035429Y006660D01*
X035463Y006687D01*
X035500Y006710D01*
X035539Y006730D01*
X035579Y006747D01*
X035621Y006760D01*
X035663Y006769D01*
X035706Y006775D01*
X035750Y006777D01*
X035267Y006500D02*
X035241Y006478D01*
X035214Y006458D01*
X035184Y006442D01*
X035153Y006429D01*
X035120Y006420D01*
X035087Y006414D01*
X035053Y006412D01*
X034481Y006412D01*
X034481Y006216D02*
X035029Y006216D01*
X035461Y006019D02*
X034481Y006019D01*
X035461Y006019D02*
X035580Y006137D01*
X035480Y006037D01*
X035480Y005622D01*
X036008Y005687D02*
X036008Y006061D01*
X036952Y006061D01*
X036952Y005887D01*
X037230Y005887D01*
X037130Y005887D01*
X036952Y005887D02*
X036952Y005687D01*
X036952Y005713D01*
X037545Y005487D02*
X037545Y004687D01*
X037880Y004978D02*
X037804Y005054D01*
X037745Y005054D01*
X037745Y005140D01*
X037824Y005140D01*
X037912Y005228D01*
X037912Y005599D01*
X037987Y005599D01*
X038094Y005643D01*
X038175Y005724D01*
X038193Y005767D01*
X038230Y005804D01*
X038230Y005804D01*
X038346Y005921D01*
X038474Y005921D01*
X038561Y006009D01*
X038561Y006351D01*
X038750Y006163D01*
X038720Y006091D01*
X038720Y005900D01*
X038793Y005723D01*
X038928Y005588D01*
X039105Y005515D01*
X039267Y005515D01*
X038639Y004887D01*
X038561Y004887D01*
X038561Y004966D01*
X038474Y005054D01*
X037956Y005054D01*
X037880Y004978D01*
X037745Y005075D02*
X038827Y005075D01*
X038925Y005173D02*
X037857Y005173D01*
X037912Y005272D02*
X039024Y005272D01*
X039122Y005370D02*
X037912Y005370D01*
X037912Y005469D02*
X039221Y005469D01*
X038979Y005567D02*
X037912Y005567D01*
X038117Y005666D02*
X038851Y005666D01*
X038776Y005764D02*
X038191Y005764D01*
X038288Y005863D02*
X038735Y005863D01*
X038720Y005961D02*
X038514Y005961D01*
X038561Y006060D02*
X038720Y006060D01*
X038748Y006158D02*
X038561Y006158D01*
X038561Y006257D02*
X038656Y006257D01*
X039024Y006454D02*
X039052Y006454D01*
X039030Y006487D02*
X038730Y006787D01*
X038730Y007372D01*
X038215Y007887D01*
X037912Y007931D02*
X039463Y007931D01*
X039343Y007833D02*
X037912Y007833D01*
X037912Y007734D02*
X039245Y007734D01*
X039146Y007636D02*
X037912Y007636D01*
X037745Y007537D02*
X039048Y007537D01*
X038962Y007439D02*
X038489Y007439D01*
X038561Y007340D02*
X038882Y007340D01*
X038789Y007242D02*
X038561Y007242D01*
X038561Y007143D02*
X038748Y007143D01*
X038720Y007045D02*
X038561Y007045D01*
X038561Y006946D02*
X038720Y006946D01*
X038735Y006848D02*
X038630Y006848D01*
X038729Y006749D02*
X038776Y006749D01*
X038827Y006651D02*
X038850Y006651D01*
X038926Y006552D02*
X038978Y006552D01*
X039030Y006487D02*
X039530Y006487D01*
X040022Y006979D01*
X039980Y006979D01*
X039680Y006946D02*
X040360Y006946D01*
X040360Y006848D02*
X039665Y006848D01*
X039624Y006749D02*
X040360Y006749D01*
X040360Y006651D02*
X039550Y006651D01*
X039422Y006552D02*
X040360Y006552D01*
X040360Y006454D02*
X040128Y006454D01*
X040299Y006355D02*
X040360Y006355D01*
X039832Y006454D02*
X039348Y006454D01*
X039519Y006355D02*
X039661Y006355D01*
X039980Y005995D02*
X039980Y005945D01*
X038722Y004687D01*
X038215Y004687D01*
X038551Y004976D02*
X038728Y004976D01*
X038630Y005487D02*
X038215Y005487D01*
X038030Y005887D02*
X037930Y005887D01*
X038030Y005887D02*
X038215Y006072D01*
X038215Y006287D01*
X038215Y006981D02*
X039200Y005995D01*
X040599Y005075D02*
X042250Y005075D01*
X042250Y005173D02*
X040698Y005173D01*
X040501Y004976D02*
X042250Y004976D01*
X042250Y004878D02*
X041305Y004878D01*
X041520Y004779D02*
X042250Y004779D01*
X042250Y004681D02*
X041618Y004681D01*
X041717Y004582D02*
X042250Y004582D01*
X042250Y004484D02*
X041764Y004484D01*
X041805Y004385D02*
X042250Y004385D01*
X042250Y004287D02*
X041846Y004287D01*
X041850Y004188D02*
X042250Y004188D01*
X042250Y004090D02*
X041850Y004090D01*
X041850Y003991D02*
X042250Y003991D01*
X042250Y003893D02*
X041823Y003893D01*
X041782Y003794D02*
X042250Y003794D01*
X042250Y003696D02*
X041741Y003696D01*
X041661Y003597D02*
X042250Y003597D01*
X042250Y003499D02*
X041563Y003499D01*
X041409Y003400D02*
X042250Y003400D01*
X042250Y003302D02*
X040405Y003302D01*
X040405Y003400D02*
X040691Y003400D01*
X040537Y003499D02*
X040405Y003499D01*
X040405Y003597D02*
X040439Y003597D01*
X040405Y003203D02*
X042250Y003203D01*
X042250Y003105D02*
X040405Y003105D01*
X040405Y003006D02*
X042250Y003006D01*
X042250Y002908D02*
X040405Y002908D01*
X040389Y002809D02*
X042250Y002809D01*
X040250Y004090D02*
X040025Y004090D01*
X040025Y004188D02*
X040250Y004188D01*
X040254Y004287D02*
X040025Y004287D01*
X040025Y004385D02*
X040295Y004385D01*
X040336Y004484D02*
X040025Y004484D01*
X040107Y004582D02*
X040383Y004582D01*
X040482Y004681D02*
X040205Y004681D01*
X040304Y004779D02*
X040580Y004779D01*
X040402Y004878D02*
X040795Y004878D01*
X036940Y004582D02*
X034948Y004582D01*
X035047Y004484D02*
X035669Y004484D01*
X035858Y004233D02*
X035014Y004233D01*
X035858Y004233D02*
X036173Y004233D01*
X036665Y002603D02*
X036680Y002603D01*
X036965Y002603D01*
X037030Y002537D01*
X035730Y002503D02*
X035730Y002087D01*
X035977Y001529D02*
X036060Y001529D01*
X035219Y001403D02*
X034830Y001403D01*
X035177Y001135D02*
X035283Y001135D01*
X034512Y001036D02*
X042094Y001036D01*
X041973Y000938D02*
X034413Y000938D01*
X034280Y001430D02*
X033762Y001430D01*
X033395Y001453D02*
X033395Y001487D01*
X033395Y001372D01*
X033330Y001387D02*
X032980Y001387D01*
X033330Y001387D02*
X033395Y001453D01*
X032780Y001923D02*
X029987Y001923D01*
X029946Y002021D02*
X032780Y002021D01*
X032780Y002120D02*
X029883Y002120D01*
X029785Y002218D02*
X032716Y002218D01*
X032630Y002317D02*
X031942Y002317D01*
X031980Y002337D02*
X031830Y002187D01*
X031980Y002337D02*
X032530Y002337D01*
X032580Y002337D01*
X032580Y002022D01*
X032605Y001997D01*
X032545Y001937D01*
X031080Y001937D01*
X030630Y001487D01*
X030630Y001437D01*
X032041Y002415D02*
X032630Y002415D01*
X032630Y002514D02*
X032139Y002514D01*
X032238Y002612D02*
X032630Y002612D01*
X032630Y002711D02*
X032336Y002711D01*
X032480Y002503D02*
X032480Y002387D01*
X032530Y002337D01*
X027480Y001787D02*
X027330Y001937D01*
X027330Y005387D01*
X027765Y005822D01*
X028379Y005822D01*
X028824Y005863D02*
X028987Y005863D01*
X029085Y005961D02*
X028824Y005961D01*
X028824Y006060D02*
X029390Y006060D01*
X029390Y006158D02*
X028800Y006158D01*
X028783Y006257D02*
X029390Y006257D01*
X029390Y006355D02*
X028824Y006355D01*
X028824Y006454D02*
X029390Y006454D01*
X029323Y006552D02*
X028824Y006552D01*
X028824Y006651D02*
X029291Y006651D01*
X029293Y006749D02*
X028824Y006749D01*
X028824Y006848D02*
X029334Y006848D01*
X029450Y006946D02*
X028824Y006946D01*
X029867Y006749D02*
X030133Y006749D01*
X030064Y006651D02*
X029869Y006651D01*
X029837Y006552D02*
X030041Y006552D01*
X030052Y006454D02*
X029770Y006454D01*
X029770Y006355D02*
X029979Y006355D01*
X029881Y006257D02*
X029770Y006257D01*
X029770Y006158D02*
X029782Y006158D01*
X028888Y005764D02*
X028824Y005764D01*
X027538Y006158D02*
X026962Y006158D01*
X026962Y006060D02*
X027439Y006060D01*
X027341Y005961D02*
X026962Y005961D01*
X026916Y005863D02*
X027242Y005863D01*
X027144Y005764D02*
X026806Y005764D01*
X026947Y005666D02*
X027045Y005666D01*
X027047Y005667D02*
X027047Y005667D01*
X026962Y006257D02*
X027478Y006257D01*
X025180Y004976D02*
X024230Y004976D01*
X024230Y004878D02*
X025180Y004878D01*
X024740Y004779D02*
X024230Y004779D01*
X024230Y004681D02*
X024578Y004681D01*
X024511Y004582D02*
X024230Y004582D01*
X024230Y004484D02*
X024480Y004484D01*
X024480Y004385D02*
X024230Y004385D01*
X024230Y004287D02*
X024514Y004287D01*
X024584Y004188D02*
X024230Y004188D01*
X024230Y004090D02*
X024514Y004090D01*
X024480Y003991D02*
X024230Y003991D01*
X024230Y003893D02*
X024480Y003893D01*
X024511Y003794D02*
X024230Y003794D01*
X024230Y003696D02*
X024577Y003696D01*
X024517Y003597D02*
X024230Y003597D01*
X024230Y003499D02*
X024480Y003499D01*
X024480Y003400D02*
X024230Y003400D01*
X024230Y003302D02*
X024507Y003302D01*
X024569Y003203D02*
X024230Y003203D01*
X024230Y003105D02*
X024719Y003105D01*
X024230Y003006D02*
X026930Y003006D01*
X026930Y002908D02*
X024230Y002908D01*
X024230Y002809D02*
X026930Y002809D01*
X026930Y002711D02*
X024230Y002711D01*
X024230Y002612D02*
X026930Y002612D01*
X026930Y002514D02*
X024230Y002514D01*
X024230Y002415D02*
X026930Y002415D01*
X026926Y002317D02*
X024230Y002317D01*
X024230Y002218D02*
X026175Y002218D01*
X026077Y002120D02*
X024230Y002120D01*
X026785Y002218D02*
X026828Y002218D01*
X026791Y003105D02*
X026930Y003105D01*
X031717Y005666D02*
X032430Y005666D01*
X032430Y005764D02*
X031791Y005764D01*
X031819Y005863D02*
X032430Y005863D01*
X032471Y005961D02*
X031812Y005961D01*
X031766Y006060D02*
X032569Y006060D01*
X032668Y006158D02*
X031631Y006158D01*
X034481Y006609D02*
X035052Y006609D01*
X035029Y006216D02*
X035073Y006218D01*
X035116Y006224D01*
X035158Y006233D01*
X035200Y006246D01*
X035240Y006263D01*
X035279Y006283D01*
X035316Y006306D01*
X035350Y006333D01*
X035383Y006362D01*
X035470Y006451D02*
X035503Y006480D01*
X035537Y006507D01*
X035574Y006530D01*
X035613Y006550D01*
X035653Y006567D01*
X035695Y006580D01*
X035737Y006589D01*
X035780Y006595D01*
X035824Y006597D01*
X037080Y006597D02*
X037117Y006595D01*
X037153Y006590D01*
X037189Y006581D01*
X037224Y006568D01*
X037257Y006553D01*
X037288Y006534D01*
X037318Y006512D01*
X037345Y006487D01*
X038215Y006981D02*
X038215Y007087D01*
X037940Y007439D02*
X037820Y007439D01*
X037199Y007242D02*
X037034Y007242D01*
X036626Y007242D02*
X036534Y007242D01*
X036123Y007636D02*
X034926Y007636D01*
X034926Y007734D02*
X036060Y007734D01*
X036041Y007833D02*
X034944Y007833D01*
X035042Y007931D02*
X036056Y007931D01*
X036104Y008030D02*
X035141Y008030D01*
X035229Y008128D02*
X036043Y008128D01*
X036026Y008227D02*
X035297Y008227D01*
X035319Y008325D02*
X035951Y008325D01*
X035948Y008424D02*
X035307Y008424D01*
X035254Y008522D02*
X035948Y008522D01*
X035948Y008621D02*
X035371Y008621D01*
X035470Y008719D02*
X035948Y008719D01*
X036080Y008937D02*
X035405Y008937D01*
X035242Y008775D01*
X034481Y008775D01*
X034481Y008578D02*
X035636Y008578D01*
X035645Y008587D01*
X036080Y008937D02*
X036315Y008703D01*
X036315Y008587D01*
X036365Y008637D01*
X036365Y011137D01*
X036895Y011137D01*
X036895Y011937D01*
X036895Y012337D01*
X037565Y012737D02*
X037565Y013043D01*
X037530Y013077D01*
X037506Y011576D02*
X037864Y011576D01*
X037850Y011477D02*
X037932Y011477D01*
X041532Y009507D02*
X042250Y009507D01*
X042250Y009409D02*
X041630Y009409D01*
X041810Y009113D02*
X042250Y009113D01*
X042250Y009015D02*
X041850Y009015D01*
X041850Y008916D02*
X042250Y008916D01*
X042250Y008818D02*
X041850Y008818D01*
X041850Y008719D02*
X042250Y008719D01*
X042250Y008621D02*
X041818Y008621D01*
X041777Y008522D02*
X042250Y008522D01*
X042250Y008424D02*
X041736Y008424D01*
X041649Y008325D02*
X042250Y008325D01*
X042250Y008227D02*
X041551Y008227D01*
X041380Y008128D02*
X042250Y008128D01*
X042250Y008030D02*
X037912Y008030D01*
X037179Y008030D02*
X036791Y008030D01*
X036315Y008227D02*
X036315Y008587D01*
X039615Y007340D02*
X040295Y007340D01*
X040360Y007242D02*
X039611Y007242D01*
X039652Y007143D02*
X040360Y007143D01*
X040360Y007045D02*
X039680Y007045D01*
X031233Y011038D02*
X031230Y011042D01*
X029855Y011038D02*
X029855Y011962D01*
X030080Y012187D01*
X029785Y012659D02*
X028170Y012659D01*
X028128Y012758D02*
X029344Y012758D01*
X028548Y014038D02*
X030361Y014038D01*
X030262Y014137D02*
X028449Y014137D01*
X028351Y014235D02*
X030164Y014235D01*
X030065Y014334D02*
X028252Y014334D01*
X028154Y014432D02*
X028933Y014432D01*
X029427Y014432D02*
X029990Y014432D01*
X031537Y015122D02*
X032873Y015122D01*
X032833Y015023D02*
X031597Y015023D01*
X031597Y014925D02*
X031920Y014925D01*
X032440Y014925D02*
X032833Y014925D01*
X032408Y015319D02*
X033690Y015319D01*
X033690Y015417D02*
X032544Y015417D01*
X032643Y015516D02*
X033690Y015516D01*
X033690Y015614D02*
X032741Y015614D01*
X032840Y015713D02*
X033690Y015713D01*
X033690Y015811D02*
X032938Y015811D01*
X033475Y015910D02*
X033690Y015910D01*
X033690Y016008D02*
X033574Y016008D01*
X033635Y016107D02*
X033690Y016107D01*
X033676Y016205D02*
X033690Y016205D01*
X033687Y016304D02*
X033690Y016304D01*
X033687Y016402D02*
X033690Y016402D01*
X033690Y016501D02*
X033663Y016501D01*
X033690Y016599D02*
X033622Y016599D01*
X033690Y016698D02*
X033543Y016698D01*
X033419Y016796D02*
X033690Y016796D01*
X031060Y015819D02*
X030951Y015819D01*
X030863Y015731D01*
X030863Y015347D01*
X029437Y015347D01*
X029470Y015380D01*
X029507Y015380D01*
X029980Y015852D01*
X030064Y015817D01*
X030271Y015817D01*
X030462Y015896D01*
X030608Y016043D01*
X030668Y016186D01*
X030727Y016043D01*
X030873Y015896D01*
X031060Y015819D01*
X030944Y015811D02*
X029938Y015811D01*
X029840Y015713D02*
X030863Y015713D01*
X030863Y015614D02*
X029741Y015614D01*
X029643Y015516D02*
X030863Y015516D01*
X030863Y015417D02*
X029544Y015417D01*
X028923Y015347D02*
X028597Y015347D01*
X028597Y015731D01*
X028509Y015819D01*
X028275Y015819D01*
X028462Y015896D01*
X028608Y016043D01*
X028687Y016234D01*
X028687Y016441D01*
X028610Y016627D01*
X029725Y016627D01*
X029648Y016441D01*
X029648Y016234D01*
X029683Y016149D01*
X029397Y015864D01*
X028954Y015864D01*
X028867Y015776D01*
X028867Y015404D01*
X028923Y015347D01*
X028867Y015417D02*
X028597Y015417D01*
X028597Y015516D02*
X028867Y015516D01*
X028867Y015614D02*
X028597Y015614D01*
X028597Y015713D02*
X028867Y015713D01*
X028901Y015811D02*
X028516Y015811D01*
X028475Y015910D02*
X029443Y015910D01*
X029541Y016008D02*
X028574Y016008D01*
X028635Y016107D02*
X029640Y016107D01*
X029659Y016205D02*
X028676Y016205D01*
X028687Y016304D02*
X029648Y016304D01*
X029648Y016402D02*
X028687Y016402D01*
X028663Y016501D02*
X029672Y016501D01*
X029713Y016599D02*
X028622Y016599D01*
X030475Y015910D02*
X030860Y015910D01*
X030761Y016008D02*
X030574Y016008D01*
X030635Y016107D02*
X030700Y016107D01*
X028230Y015472D02*
X027865Y015472D01*
X027830Y015437D01*
X026887Y013349D02*
X026782Y013349D01*
X025104Y012659D02*
X024044Y012659D01*
X024113Y012561D02*
X025154Y012561D01*
X025375Y012265D02*
X024092Y012265D01*
X024133Y012364D02*
X025473Y012364D01*
X025572Y012462D02*
X024138Y012462D01*
X023817Y012987D02*
X023180Y012987D01*
X022080Y011887D01*
X021787Y011871D02*
X022481Y011871D01*
X022579Y011970D02*
X021787Y011970D01*
X021787Y012068D02*
X022678Y012068D01*
X022776Y012167D02*
X021787Y012167D01*
X021787Y012265D02*
X022875Y012265D01*
X022973Y012364D02*
X021787Y012364D01*
X021787Y012462D02*
X021800Y012462D01*
X022360Y012462D02*
X023072Y012462D01*
X023170Y012561D02*
X022460Y012561D01*
X023313Y011837D02*
X023808Y011837D01*
X023772Y011749D01*
X023772Y011626D01*
X023819Y011513D01*
X023905Y011426D01*
X023949Y011408D01*
X023949Y010937D01*
X023312Y010937D01*
X023312Y011396D01*
X023224Y011484D01*
X023145Y011484D01*
X023145Y011670D01*
X023313Y011837D01*
X023248Y011773D02*
X023781Y011773D01*
X023772Y011674D02*
X023150Y011674D01*
X023145Y011576D02*
X023792Y011576D01*
X023854Y011477D02*
X023231Y011477D01*
X023312Y011379D02*
X023949Y011379D01*
X023949Y011280D02*
X023312Y011280D01*
X023312Y011182D02*
X023949Y011182D01*
X023949Y011083D02*
X023312Y011083D01*
X023312Y010985D02*
X023949Y010985D01*
X024130Y010737D02*
X024295Y010903D01*
X024295Y011137D01*
X024295Y011472D01*
X024080Y011687D01*
X023615Y011653D02*
X023580Y011687D01*
X023615Y011653D02*
X023615Y011137D01*
X024965Y011137D02*
X025165Y011337D01*
X025480Y011337D01*
X022382Y011773D02*
X021787Y011773D01*
X021787Y011674D02*
X022284Y011674D01*
X019943Y012550D02*
X019430Y012037D01*
X019943Y012550D02*
X019943Y012987D01*
X021363Y014311D02*
X021387Y014287D01*
X021387Y014487D01*
X021363Y014463D01*
X021179Y014387D01*
X020981Y014387D01*
X021179Y014387D01*
X021363Y014311D01*
X021387Y014334D02*
X021309Y014334D01*
X021288Y014432D02*
X021387Y014432D01*
X017170Y012561D02*
X016460Y012561D01*
X016360Y012462D02*
X017072Y012462D01*
X015384Y014291D02*
X015363Y014311D01*
X015179Y014387D01*
X014981Y014387D01*
X015179Y014387D01*
X015363Y014463D01*
X015384Y014484D01*
X015384Y014291D01*
X015384Y014334D02*
X015309Y014334D01*
X015288Y014432D02*
X015384Y014432D01*
X023180Y009672D02*
X023980Y009672D01*
X027880Y008687D02*
X027967Y008775D01*
X028379Y008775D01*
X018080Y002415D02*
X015959Y002415D01*
X016054Y002317D02*
X018080Y002317D01*
X018080Y002218D02*
X016095Y002218D01*
X016126Y002120D02*
X018080Y002120D01*
X018080Y002021D02*
X016126Y002021D01*
X016114Y001923D02*
X018080Y001923D01*
X018080Y001824D02*
X016073Y001824D01*
X016004Y001726D02*
X018080Y001726D01*
X018080Y001627D02*
X015891Y001627D01*
X015391Y001627D02*
X014830Y001627D01*
X014830Y001529D02*
X018080Y001529D01*
X018080Y001430D02*
X014830Y001430D01*
X014830Y001332D02*
X018080Y001332D01*
X018080Y001233D02*
X014830Y001233D01*
X014830Y001135D02*
X018027Y001135D01*
X017929Y001036D02*
X014830Y001036D01*
X014830Y000938D02*
X017830Y000938D01*
X013680Y001137D02*
X006430Y001137D01*
X006215Y001353D01*
X006215Y001387D01*
X005848Y001430D02*
X002985Y001430D01*
X002985Y001529D02*
X005848Y001529D01*
X005848Y001627D02*
X002985Y001627D01*
X002985Y001726D02*
X005927Y001726D01*
X005848Y001332D02*
X002994Y001332D01*
X003026Y001233D02*
X005848Y001233D01*
X005848Y001135D02*
X003069Y001135D01*
X003141Y001036D02*
X006248Y001036D01*
X006347Y000938D02*
X003262Y000938D01*
X003572Y000642D02*
X041663Y000642D01*
X041717Y000644D01*
X041770Y000649D01*
X041823Y000658D01*
X041875Y000671D01*
X041927Y000687D01*
X041977Y000707D01*
X042025Y000730D01*
X042072Y000757D01*
X042117Y000786D01*
X042160Y000819D01*
X042200Y000854D01*
X042238Y000892D01*
X042273Y000932D01*
X042306Y000975D01*
X042335Y001020D01*
X042362Y001067D01*
X042385Y001115D01*
X042405Y001165D01*
X042421Y001217D01*
X042434Y001269D01*
X042443Y001322D01*
X042448Y001375D01*
X042450Y001429D01*
X007630Y005137D02*
X007330Y005437D01*
X007300Y005437D01*
X002785Y001429D02*
X002787Y001375D01*
X002792Y001322D01*
X002801Y001269D01*
X002814Y001217D01*
X002830Y001165D01*
X002850Y001115D01*
X002873Y001067D01*
X002900Y001020D01*
X002929Y000975D01*
X002962Y000932D01*
X002997Y000892D01*
X003035Y000854D01*
X003075Y000819D01*
X003118Y000786D01*
X003163Y000757D01*
X003210Y000730D01*
X003258Y000707D01*
X003308Y000687D01*
X003360Y000671D01*
X003412Y000658D01*
X003465Y000649D01*
X003518Y000644D01*
X003572Y000642D01*
D11*
X029068Y004936D03*
X029265Y004936D03*
X029461Y004936D03*
X029658Y004936D03*
X029855Y004936D03*
X030052Y004936D03*
X030249Y004936D03*
X030446Y004936D03*
X030643Y004936D03*
X030839Y004936D03*
X031036Y004936D03*
X031233Y004936D03*
X031430Y004936D03*
X031627Y004936D03*
X031824Y004936D03*
X032021Y004936D03*
X032217Y004936D03*
X032414Y004936D03*
X032611Y004936D03*
X032808Y004936D03*
X033005Y004936D03*
X033202Y004936D03*
X033399Y004936D03*
X033595Y004936D03*
X033792Y004936D03*
X033792Y011038D03*
X033595Y011038D03*
X033399Y011038D03*
X033202Y011038D03*
X033005Y011038D03*
X032808Y011038D03*
X032611Y011038D03*
X032414Y011038D03*
X032217Y011038D03*
X032021Y011038D03*
X031824Y011038D03*
X031627Y011038D03*
X031430Y011038D03*
X031233Y011038D03*
X031036Y011038D03*
X030839Y011038D03*
X030643Y011038D03*
X030446Y011038D03*
X030249Y011038D03*
X030052Y011038D03*
X029855Y011038D03*
X029658Y011038D03*
X029461Y011038D03*
X029265Y011038D03*
X029068Y011038D03*
D12*
X028379Y010350D03*
X028379Y010153D03*
X028379Y009956D03*
X028379Y009759D03*
X028379Y009562D03*
X028379Y009365D03*
X028379Y009168D03*
X028379Y008972D03*
X028379Y008775D03*
X028379Y008578D03*
X028379Y008381D03*
X028379Y008184D03*
X028379Y007987D03*
X028379Y007790D03*
X028379Y007594D03*
X028379Y007397D03*
X028379Y007200D03*
X028379Y007003D03*
X028379Y006806D03*
X028379Y006609D03*
X028379Y006412D03*
X028379Y006216D03*
X028379Y006019D03*
X028379Y005822D03*
X028379Y005625D03*
X034481Y005625D03*
X034481Y005822D03*
X034481Y006019D03*
X034481Y006216D03*
X034481Y006412D03*
X034481Y006609D03*
X034481Y006806D03*
X034481Y007003D03*
X034481Y007200D03*
X034481Y007397D03*
X034481Y007594D03*
X034481Y007790D03*
X034481Y007987D03*
X034481Y008184D03*
X034481Y008381D03*
X034481Y008578D03*
X034481Y008775D03*
X034481Y008972D03*
X034481Y009168D03*
X034481Y009365D03*
X034481Y009562D03*
X034481Y009759D03*
X034481Y009956D03*
X034481Y010153D03*
X034481Y010350D03*
D13*
X034113Y003652D03*
X033247Y003652D03*
X033247Y003022D03*
X034113Y003022D03*
D14*
X034065Y002287D03*
X033395Y002287D03*
X033395Y001487D03*
X034065Y001487D03*
X037545Y005487D03*
X038215Y005487D03*
X038215Y007887D03*
X037545Y007887D03*
X036315Y008587D03*
X035645Y008587D03*
X036895Y011937D03*
X037565Y011937D03*
X037565Y012737D03*
X036895Y012737D03*
X031230Y014803D03*
X031230Y015472D03*
X028230Y015472D03*
X028230Y014803D03*
X028230Y018053D03*
X028230Y018722D03*
X031230Y018722D03*
X031230Y018053D03*
X034230Y018053D03*
X034230Y018722D03*
X037180Y018722D03*
X037180Y018053D03*
X023615Y011137D03*
X022945Y011137D03*
X023180Y009672D03*
X023980Y009672D03*
X024780Y009672D03*
X025580Y009672D03*
X026380Y009672D03*
X027180Y009672D03*
X027180Y009003D03*
X026380Y009003D03*
X025580Y009003D03*
X024780Y009003D03*
X023980Y009003D03*
X023180Y009003D03*
X022830Y007672D03*
X022830Y007003D03*
X019830Y007003D03*
X019830Y007672D03*
X014330Y005622D03*
X013530Y005622D03*
X013530Y004953D03*
X014330Y004953D03*
X012405Y004953D03*
X011605Y004953D03*
X011605Y005622D03*
X012405Y005622D03*
X006215Y001387D03*
X005545Y001387D03*
X005615Y011137D03*
X004945Y011137D03*
X010945Y011137D03*
X011615Y011137D03*
X016945Y011137D03*
X017615Y011137D03*
X026745Y008307D03*
X027415Y008307D03*
X027265Y006167D03*
X026595Y006167D03*
D15*
X026745Y006887D03*
X027415Y006887D03*
X027415Y007607D03*
X026745Y007607D03*
X023415Y008337D03*
X022745Y008337D03*
X020415Y008337D03*
X019745Y008337D03*
X019645Y010887D03*
X020315Y010887D03*
X018965Y011137D03*
X018295Y011137D03*
X014315Y010887D03*
X013645Y010887D03*
X012965Y011137D03*
X012295Y011137D03*
X008315Y010887D03*
X007645Y010887D03*
X006965Y011137D03*
X006295Y011137D03*
X004980Y017403D03*
X004980Y018072D03*
X010980Y018072D03*
X010980Y017403D03*
X016980Y017403D03*
X016980Y018072D03*
X022980Y018072D03*
X022980Y017403D03*
X030180Y018053D03*
X030180Y018722D03*
X033180Y018722D03*
X033180Y018053D03*
X035245Y016737D03*
X035915Y016737D03*
X035915Y015937D03*
X035245Y015937D03*
X033180Y015472D03*
X033180Y014803D03*
X030180Y014803D03*
X030180Y015472D03*
X029655Y013072D03*
X029655Y012403D03*
X026315Y010887D03*
X025645Y010887D03*
X024965Y011137D03*
X024295Y011137D03*
X033005Y012403D03*
X033005Y013072D03*
X036895Y013537D03*
X037565Y013537D03*
X037565Y014337D03*
X036895Y014337D03*
X038845Y015587D03*
X039515Y015587D03*
X039645Y017387D03*
X040315Y017387D03*
X039180Y018053D03*
X039180Y018722D03*
X036180Y018722D03*
X036180Y018053D03*
X036365Y011137D03*
X036895Y011137D03*
X037565Y011137D03*
X035695Y011137D03*
X037545Y007087D03*
X038215Y007087D03*
X038215Y006287D03*
X037545Y006287D03*
X035480Y005622D03*
X035480Y004953D03*
X037545Y004687D03*
X038215Y004687D03*
X036680Y003272D03*
X035830Y003272D03*
X034880Y003003D03*
X035830Y002603D03*
X036680Y002603D03*
X035630Y002072D03*
X034830Y002072D03*
X034830Y001403D03*
X035630Y001403D03*
X032605Y001328D03*
X032605Y001997D03*
X032480Y002503D03*
X032480Y003172D03*
X034880Y003672D03*
X029565Y002837D03*
X028895Y002837D03*
D16*
X030280Y003387D03*
X031780Y003387D03*
X031780Y001387D03*
X030280Y001387D03*
X034680Y011937D03*
X036180Y011937D03*
X036180Y013937D03*
X034680Y013937D03*
D17*
X039200Y006979D03*
X039980Y006979D03*
X039980Y005995D03*
X039200Y005995D03*
D18*
X041050Y004117D03*
X041050Y008857D03*
D19*
X036952Y006061D03*
X036952Y005687D03*
X036952Y005313D03*
X036008Y005313D03*
X036008Y005687D03*
X036008Y006061D03*
D20*
X032180Y014685D03*
X032180Y015590D03*
X029180Y015590D03*
X029180Y014685D03*
X029180Y017935D03*
X029180Y018840D03*
X032180Y018840D03*
X032180Y017935D03*
X035180Y017935D03*
X035180Y018840D03*
X038180Y018840D03*
X038180Y017935D03*
D21*
X037293Y016737D03*
X036467Y016737D03*
X036467Y015937D03*
X037293Y015937D03*
D22*
X012755Y006537D03*
X010905Y006537D03*
X037905Y003387D03*
X039755Y003387D03*
D23*
X040346Y015459D03*
X040346Y018215D03*
D24*
X041330Y017723D03*
X041330Y015951D03*
D25*
X040350Y016467D03*
X039210Y016467D03*
X033168Y016337D03*
X032168Y016237D03*
X031168Y016337D03*
X030168Y016337D03*
X029168Y016237D03*
X028168Y016337D03*
X026930Y019387D03*
X025930Y019487D03*
X024930Y019387D03*
X028168Y019587D03*
X029168Y019487D03*
X030168Y019587D03*
X031168Y019587D03*
X032168Y019487D03*
X033168Y019587D03*
X034168Y019587D03*
X035168Y019487D03*
X036168Y019587D03*
X037168Y019587D03*
X038168Y019487D03*
X039168Y019587D03*
X020930Y019387D03*
X019930Y019487D03*
X018930Y019387D03*
X014930Y019387D03*
X013930Y019487D03*
X012930Y019387D03*
X008930Y019387D03*
X007930Y019487D03*
X006930Y019387D03*
X011880Y002737D03*
X012880Y002637D03*
X013880Y002737D03*
X013880Y001737D03*
X012880Y001637D03*
X011880Y001737D03*
X025480Y001787D03*
X026480Y001787D03*
X027480Y001787D03*
X028480Y001787D03*
X029480Y001787D03*
X037580Y001637D03*
X038580Y001737D03*
X039580Y001637D03*
D26*
X039475Y015087D03*
X038885Y015087D03*
D27*
X041983Y014973D03*
X042002Y009402D03*
D28*
X042042Y010396D03*
X014304Y004420D03*
X013556Y004420D03*
X012404Y004420D03*
X011656Y004420D03*
X012030Y003554D03*
X013930Y003554D03*
D29*
X042042Y014067D03*
D30*
X038587Y013851D03*
X038587Y014284D03*
X038587Y013339D03*
X038587Y012906D03*
X038587Y012473D03*
X038587Y012040D03*
X038587Y011607D03*
X038587Y011174D03*
X038587Y010740D03*
X038587Y010307D03*
D31*
X039739Y010219D02*
X039741Y010254D01*
X039747Y010289D01*
X039757Y010323D01*
X039770Y010356D01*
X039787Y010387D01*
X039808Y010415D01*
X039831Y010442D01*
X039858Y010465D01*
X039886Y010486D01*
X039917Y010503D01*
X039950Y010516D01*
X039984Y010526D01*
X040019Y010532D01*
X040054Y010534D01*
X040089Y010532D01*
X040124Y010526D01*
X040158Y010516D01*
X040191Y010503D01*
X040222Y010486D01*
X040250Y010465D01*
X040277Y010442D01*
X040300Y010415D01*
X040321Y010387D01*
X040338Y010356D01*
X040351Y010323D01*
X040361Y010289D01*
X040367Y010254D01*
X040369Y010219D01*
X040367Y010184D01*
X040361Y010149D01*
X040351Y010115D01*
X040338Y010082D01*
X040321Y010051D01*
X040300Y010023D01*
X040277Y009996D01*
X040250Y009973D01*
X040222Y009952D01*
X040191Y009935D01*
X040158Y009922D01*
X040124Y009912D01*
X040089Y009906D01*
X040054Y009904D01*
X040019Y009906D01*
X039984Y009912D01*
X039950Y009922D01*
X039917Y009935D01*
X039886Y009952D01*
X039858Y009973D01*
X039831Y009996D01*
X039808Y010023D01*
X039787Y010051D01*
X039770Y010082D01*
X039757Y010115D01*
X039747Y010149D01*
X039741Y010184D01*
X039739Y010219D01*
X039739Y014156D02*
X039741Y014191D01*
X039747Y014226D01*
X039757Y014260D01*
X039770Y014293D01*
X039787Y014324D01*
X039808Y014352D01*
X039831Y014379D01*
X039858Y014402D01*
X039886Y014423D01*
X039917Y014440D01*
X039950Y014453D01*
X039984Y014463D01*
X040019Y014469D01*
X040054Y014471D01*
X040089Y014469D01*
X040124Y014463D01*
X040158Y014453D01*
X040191Y014440D01*
X040222Y014423D01*
X040250Y014402D01*
X040277Y014379D01*
X040300Y014352D01*
X040321Y014324D01*
X040338Y014293D01*
X040351Y014260D01*
X040361Y014226D01*
X040367Y014191D01*
X040369Y014156D01*
X040367Y014121D01*
X040361Y014086D01*
X040351Y014052D01*
X040338Y014019D01*
X040321Y013988D01*
X040300Y013960D01*
X040277Y013933D01*
X040250Y013910D01*
X040222Y013889D01*
X040191Y013872D01*
X040158Y013859D01*
X040124Y013849D01*
X040089Y013843D01*
X040054Y013841D01*
X040019Y013843D01*
X039984Y013849D01*
X039950Y013859D01*
X039917Y013872D01*
X039886Y013889D01*
X039858Y013910D01*
X039831Y013933D01*
X039808Y013960D01*
X039787Y013988D01*
X039770Y014019D01*
X039757Y014052D01*
X039747Y014086D01*
X039741Y014121D01*
X039739Y014156D01*
D32*
X027080Y013887D03*
X027080Y014887D03*
X027080Y015887D03*
X027080Y016887D03*
X027080Y017887D03*
X022080Y017887D03*
X021080Y017887D03*
X021080Y016887D03*
X022080Y016887D03*
X022080Y015887D03*
X021080Y015887D03*
X021080Y014887D03*
X022080Y014887D03*
X022080Y013887D03*
X021080Y013887D03*
X021080Y012887D03*
X022080Y012887D03*
X022080Y011887D03*
X021080Y011887D03*
X021080Y010887D03*
X022080Y010887D03*
X027080Y010887D03*
X027080Y011887D03*
X027080Y012887D03*
X016080Y012887D03*
X015080Y012887D03*
X015080Y011887D03*
X016080Y011887D03*
X016080Y010887D03*
X015080Y010887D03*
X010080Y010887D03*
X009080Y010887D03*
X009080Y011887D03*
X010080Y011887D03*
X010080Y012887D03*
X009080Y012887D03*
X009080Y013887D03*
X010080Y013887D03*
X010080Y014887D03*
X009080Y014887D03*
X009080Y015887D03*
X010080Y015887D03*
X010080Y016887D03*
X009080Y016887D03*
X009080Y017887D03*
X010080Y017887D03*
X015080Y017887D03*
X016080Y017887D03*
X016080Y016887D03*
X015080Y016887D03*
X015080Y015887D03*
X016080Y015887D03*
X016080Y014887D03*
X015080Y014887D03*
X015080Y013887D03*
X016080Y013887D03*
X004080Y013887D03*
X004080Y014887D03*
X004080Y015887D03*
X004080Y016887D03*
X004080Y017887D03*
X004080Y012887D03*
X004080Y011887D03*
X004080Y010887D03*
D33*
X005817Y012987D03*
X007943Y012987D03*
X011817Y012987D03*
X013943Y012987D03*
X017817Y012987D03*
X019943Y012987D03*
X023817Y012987D03*
X025943Y012987D03*
D34*
X023930Y019487D03*
X017930Y019487D03*
X011930Y019487D03*
X005930Y019487D03*
X036580Y001737D03*
D35*
X022530Y004453D03*
X019530Y004453D03*
D36*
X018632Y007327D03*
X020428Y007327D03*
X021632Y007327D03*
X023428Y007327D03*
D37*
X023019Y002048D03*
X021641Y002048D03*
X020019Y002048D03*
X018641Y002048D03*
X017019Y002048D03*
X015641Y002048D03*
D38*
X013810Y006977D03*
X013810Y007887D03*
X013810Y008797D03*
D39*
X016250Y007887D03*
D40*
X035858Y004233D03*
X036173Y004233D03*
X036487Y004233D03*
X036802Y004233D03*
X036802Y003741D03*
X036487Y003741D03*
X036173Y003741D03*
X035858Y003741D03*
D41*
X010487Y008745D03*
D42*
X009503Y008745D03*
X008519Y008745D03*
X007535Y008745D03*
X006550Y008745D03*
X005566Y008745D03*
X006074Y009729D03*
X007058Y009729D03*
X008043Y009729D03*
X009027Y009729D03*
X010011Y009729D03*
X010995Y009729D03*
D43*
X004493Y006687D02*
X003668Y006687D01*
X003668Y004687D02*
X004493Y004687D01*
D44*
X009330Y004537D03*
X009330Y002537D03*
D45*
X024830Y003437D03*
X025530Y003437D03*
X025530Y003937D03*
X024830Y003937D03*
X024830Y004437D03*
X025530Y004437D03*
X025530Y004937D03*
X024830Y004937D03*
X024830Y005437D03*
X025530Y005437D03*
X026680Y005437D03*
X026680Y004937D03*
X026680Y004437D03*
X026680Y003937D03*
X026680Y003437D03*
D46*
X009360Y005437D03*
X009360Y005937D03*
X009360Y006437D03*
X009360Y006937D03*
X007300Y006937D03*
X007300Y006437D03*
X007300Y005937D03*
X007300Y005437D03*
D47*
X005830Y004808D03*
X005830Y006367D03*
D48*
X006480Y002637D03*
X018580Y008937D03*
D49*
X017580Y008937D03*
X006480Y003637D03*
D50*
X021980Y008837D03*
D51*
X021180Y008837D03*
D52*
X023955Y008087D03*
X023955Y007587D03*
X023955Y007087D03*
X023955Y006587D03*
X026105Y006587D03*
X026105Y007087D03*
X026105Y007587D03*
X026105Y008087D03*
D53*
X041367Y001823D03*
X003966Y001823D03*
X003966Y019540D03*
X041367Y019540D03*
D54*
X039580Y018687D03*
X036580Y018687D03*
X033580Y018687D03*
X030580Y018687D03*
X030580Y015437D03*
X033580Y015437D03*
X034730Y015437D03*
X026080Y015187D03*
X023830Y012437D03*
X023580Y011687D03*
X024080Y011687D03*
X025480Y011337D03*
X019480Y011337D03*
X018080Y011687D03*
X017580Y011687D03*
X017830Y012437D03*
X018330Y013687D03*
X018830Y013687D03*
X013480Y011337D03*
X012080Y011687D03*
X011580Y011687D03*
X011830Y012437D03*
X012330Y013687D03*
X012830Y013687D03*
X007680Y014437D03*
X007680Y015097D03*
X005980Y012337D03*
X005980Y011537D03*
X007480Y011337D03*
X007630Y011887D03*
X014430Y008887D03*
X013080Y007687D03*
X009830Y006837D03*
X009830Y006387D03*
X009830Y005937D03*
X009830Y005487D03*
X007630Y005137D03*
X006080Y005287D03*
X012980Y004637D03*
X012980Y003787D03*
X018080Y006637D03*
X018080Y007087D03*
X018080Y007537D03*
X018080Y007987D03*
X018580Y007987D03*
X019080Y007987D03*
X019080Y007537D03*
X019080Y007087D03*
X019080Y006637D03*
X018580Y006637D03*
X021080Y006637D03*
X021580Y006637D03*
X022080Y006637D03*
X022080Y007087D03*
X022080Y007537D03*
X022080Y007987D03*
X021580Y007987D03*
X021080Y007987D03*
X021080Y007537D03*
X021080Y007087D03*
X028930Y002287D03*
X030630Y001437D03*
X037030Y002537D03*
X038580Y002937D03*
D55*
X038830Y002687D03*
X037330Y002337D03*
X034630Y002537D03*
X034620Y003277D03*
X035530Y003937D03*
X034430Y004337D03*
X034080Y004187D03*
X035530Y004477D03*
X035830Y004987D03*
X036330Y004987D03*
X037130Y004987D03*
X036580Y005437D03*
X036330Y005787D03*
X035580Y006137D03*
X035505Y007062D03*
X036330Y007037D03*
X036830Y007037D03*
X036330Y007837D03*
X036315Y008227D03*
X036730Y008487D03*
X037080Y008637D03*
X035280Y009587D03*
X033980Y009587D03*
X033880Y009987D03*
X033580Y010187D03*
X033910Y010347D03*
X034980Y010787D03*
X035330Y010787D03*
X035530Y010487D03*
X036730Y010687D03*
X037080Y010687D03*
X037630Y010587D03*
X038080Y011187D03*
X038130Y011687D03*
X037230Y011487D03*
X036003Y011445D03*
X034930Y011287D03*
X034280Y011787D03*
X033930Y011787D03*
X033580Y011787D03*
X034130Y012287D03*
X034380Y012537D03*
X034430Y012887D03*
X034780Y013137D03*
X032630Y012837D03*
X032630Y012437D03*
X031880Y011987D03*
X032180Y011737D03*
X032510Y011907D03*
X030530Y012137D03*
X029230Y011587D03*
X029030Y012237D03*
X030030Y012837D03*
X030430Y013337D03*
X027680Y012937D03*
X027680Y012587D03*
X027580Y012237D03*
X028680Y010937D03*
X029480Y010437D03*
X029880Y010487D03*
X029580Y010087D03*
X029420Y009777D03*
X028980Y009287D03*
X028980Y008687D03*
X029230Y008287D03*
X029230Y007937D03*
X028980Y007187D03*
X029580Y006687D03*
X030330Y006537D03*
X031580Y006687D03*
X031930Y006837D03*
X031680Y007087D03*
X033580Y007887D03*
X033880Y008137D03*
X035030Y008337D03*
X032330Y009587D03*
X032630Y009787D03*
X031130Y009187D03*
X031130Y008837D03*
X031480Y008787D03*
X030530Y009387D03*
X030880Y009487D03*
X027630Y009087D03*
X025280Y008487D03*
X024930Y008287D03*
X024780Y007887D03*
X025680Y007537D03*
X027740Y007667D03*
X027730Y007237D03*
X031280Y005637D03*
X031530Y005887D03*
X032880Y005737D03*
X033230Y005637D03*
X031830Y004187D03*
X031580Y003937D03*
X031330Y003687D03*
X031830Y002187D03*
X038830Y004437D03*
X038630Y005487D03*
X037930Y005887D03*
X037230Y005887D03*
X039280Y012187D03*
X037530Y013077D03*
X038030Y013837D03*
X039180Y014337D03*
X037180Y014637D03*
X037180Y015137D03*
X034730Y016287D03*
X027980Y017637D03*
X027830Y015437D03*
X027580Y014137D03*
X023880Y008587D03*
X023620Y007927D03*
X013930Y005387D03*
X012010Y005387D03*
X011660Y003997D03*
X013560Y003997D03*
X008430Y017387D03*
X008330Y017787D03*
X027680Y020087D03*
D56*
X028168Y020000D02*
X028255Y020087D01*
X031080Y020087D01*
X031168Y020000D01*
X031168Y019587D01*
X031080Y020087D02*
X034080Y020087D01*
X034168Y020000D01*
X034168Y019587D01*
X034080Y020087D02*
X037080Y020087D01*
X037168Y020000D01*
X037168Y019587D01*
X036168Y019587D02*
X035649Y019069D01*
X035420Y018840D01*
X035180Y018840D01*
X034230Y018722D02*
X034230Y018387D01*
X037180Y018387D01*
X037180Y018722D01*
X037180Y018587D01*
X037180Y018387D02*
X039580Y018387D01*
X039645Y018322D01*
X039645Y017387D01*
X039430Y017387D01*
X035380Y017387D01*
X035245Y017253D01*
X035245Y016737D01*
X035915Y016737D02*
X036467Y016737D01*
X036467Y015937D02*
X035915Y015937D01*
X033580Y015437D02*
X033545Y015472D01*
X033180Y015472D01*
X032420Y015590D02*
X033168Y016337D01*
X032420Y015590D02*
X032180Y015590D01*
X031230Y015472D02*
X031230Y015337D01*
X031030Y015137D01*
X028380Y015137D01*
X028230Y015287D01*
X028230Y015472D01*
X029180Y015590D02*
X029420Y015590D01*
X030168Y016337D01*
X030980Y016837D02*
X028168Y016837D01*
X028130Y016837D01*
X027630Y017337D01*
X027630Y019050D01*
X028168Y019587D01*
X028168Y020000D01*
X029420Y018840D02*
X030168Y019587D01*
X030180Y018722D02*
X030545Y018722D01*
X030580Y018687D01*
X031230Y018722D02*
X031230Y018387D01*
X034230Y018387D01*
X033580Y018687D02*
X033545Y018722D01*
X033180Y018722D01*
X032420Y018840D02*
X033168Y019587D01*
X032420Y018840D02*
X032180Y018840D01*
X031230Y018387D02*
X028230Y018387D01*
X028230Y018722D01*
X029180Y018840D02*
X029420Y018840D01*
X029180Y017935D02*
X028348Y017935D01*
X028230Y018053D01*
X029180Y017935D02*
X030062Y017935D01*
X030180Y018053D01*
X031230Y018053D02*
X031230Y017935D01*
X032180Y017935D01*
X033180Y017935D01*
X033180Y018053D01*
X034230Y018053D02*
X034348Y017935D01*
X035180Y017935D01*
X036062Y017935D01*
X036083Y017935D01*
X036062Y017935D02*
X036180Y018053D01*
X036580Y018687D02*
X036545Y018722D01*
X036180Y018722D01*
X037180Y018053D02*
X037180Y017935D01*
X038180Y017935D01*
X039180Y017935D01*
X039180Y018053D01*
X039580Y018687D02*
X039545Y018722D01*
X039180Y018722D01*
X038420Y018840D02*
X039168Y019587D01*
X038420Y018840D02*
X038180Y018840D01*
X031168Y016650D02*
X031168Y016337D01*
X031168Y016650D02*
X030980Y016837D01*
X028168Y016837D02*
X028168Y016337D01*
X030180Y015472D02*
X030545Y015472D01*
X030580Y015437D01*
X030180Y014803D02*
X030180Y014685D01*
X029180Y014685D01*
X028230Y014685D01*
X028230Y014803D01*
X031230Y014803D02*
X031230Y014685D01*
X032180Y014685D01*
X033180Y014685D01*
X033180Y014803D01*
X021080Y014887D02*
X021080Y015887D01*
X015080Y015887D02*
X015080Y014887D01*
X032217Y004936D02*
X032217Y003825D01*
X031780Y003387D01*
X035730Y002503D02*
X035830Y002603D01*
X035730Y002087D02*
X035715Y002072D01*
X035630Y002072D01*
X030630Y001437D02*
X030580Y001387D01*
X030280Y001387D01*
X013897Y003554D02*
X013797Y003554D01*
X012880Y002637D01*
X012380Y002137D02*
X012380Y003204D01*
X012030Y003554D01*
X012380Y002137D02*
X012880Y001637D01*
D57*
X025980Y007087D02*
X026105Y007087D01*
X027415Y006922D02*
X027730Y007237D01*
X027740Y007667D02*
X027475Y007667D01*
X027415Y007607D01*
X027440Y007607D01*
X026105Y008087D02*
X025980Y008087D01*
X027415Y006922D02*
X027415Y006887D01*
X027265Y006167D02*
X027165Y006022D01*
X028680Y005287D02*
X028680Y004437D01*
X028980Y004137D01*
X030880Y004137D01*
X031330Y003687D01*
X031580Y003937D02*
X031230Y004287D01*
X029080Y004287D01*
X028830Y004537D01*
X028830Y005237D01*
X029280Y005687D01*
X029580Y005687D01*
X030330Y006437D01*
X030330Y006537D01*
X029580Y006687D02*
X029580Y005937D01*
X029480Y005837D01*
X029230Y005837D01*
X028680Y005287D01*
X030430Y005537D02*
X030430Y004937D01*
X030446Y004936D01*
X030630Y004937D02*
X030643Y004936D01*
X030630Y004937D02*
X030630Y005537D01*
X031180Y005537D01*
X031280Y005637D01*
X031030Y005687D02*
X031030Y005737D01*
X031180Y005887D01*
X031530Y005887D01*
X031030Y005687D02*
X030580Y005687D01*
X030430Y005537D01*
X031480Y006387D02*
X031230Y006637D01*
X031230Y007937D01*
X031880Y008587D01*
X031880Y009087D01*
X031580Y009387D01*
X031580Y010237D01*
X031233Y010584D01*
X031233Y011038D01*
X031430Y011038D02*
X031430Y010587D01*
X031730Y010287D01*
X031730Y009437D01*
X032030Y009137D01*
X032030Y008537D01*
X031380Y007887D01*
X031380Y006887D01*
X031580Y006687D01*
X031480Y006387D02*
X033080Y006387D01*
X034154Y005313D01*
X036008Y005313D01*
X036330Y004987D02*
X036330Y005787D01*
X037130Y004987D02*
X037130Y002937D01*
X037105Y002912D01*
X037330Y002337D02*
X037330Y002237D01*
X037305Y002212D01*
X038830Y002687D02*
X038830Y004437D01*
X035530Y004477D02*
X035480Y004527D01*
X035480Y004953D01*
X034481Y005625D02*
X034042Y005625D01*
X033130Y006537D01*
X032680Y006537D01*
X032480Y006737D01*
X032480Y009437D01*
X032330Y009587D01*
X032021Y009547D02*
X032021Y010018D01*
X032020Y010017D01*
X032021Y010018D02*
X032021Y011038D01*
X032217Y011038D02*
X032217Y011350D01*
X031880Y011687D01*
X031880Y011987D01*
X032230Y012387D02*
X030930Y012387D01*
X030780Y012537D01*
X030780Y013387D01*
X030580Y013587D01*
X028730Y013587D01*
X027580Y014737D01*
X027580Y017087D01*
X027080Y017587D01*
X027080Y017887D01*
X027080Y016887D02*
X026580Y016387D01*
X026580Y014637D01*
X026830Y014387D01*
X027680Y014387D01*
X028630Y013437D01*
X029880Y013437D01*
X030280Y013037D01*
X030280Y012137D01*
X030052Y011909D01*
X030052Y011038D01*
X030249Y011038D02*
X030249Y010456D01*
X029880Y010087D01*
X029580Y010087D01*
X029420Y009777D02*
X029770Y009777D01*
X029880Y009887D01*
X030480Y009887D01*
X030643Y010050D01*
X030643Y011038D01*
X030839Y011038D02*
X030839Y009928D01*
X031730Y009037D01*
X031730Y008637D01*
X031180Y008087D01*
X029380Y008087D01*
X029230Y007937D01*
X029230Y008287D02*
X031030Y008287D01*
X031480Y008737D01*
X031480Y008787D01*
X031130Y008837D02*
X030930Y009037D01*
X028900Y009037D01*
X028769Y009168D01*
X028379Y009168D01*
X028379Y009365D02*
X028902Y009365D01*
X028980Y009287D01*
X029280Y009387D02*
X029780Y009387D01*
X029930Y009537D01*
X030380Y009537D01*
X030530Y009387D01*
X030730Y009187D01*
X031130Y009187D01*
X030880Y009487D02*
X030630Y009737D01*
X029930Y009737D01*
X029730Y009537D01*
X029330Y009537D01*
X029180Y009687D01*
X029180Y010037D01*
X029065Y010153D01*
X028379Y010153D01*
X028330Y010337D02*
X027880Y010337D01*
X027880Y011987D01*
X027980Y012087D01*
X027980Y012637D01*
X027680Y012937D01*
X027680Y012587D02*
X027830Y012437D01*
X027830Y012137D01*
X027730Y012037D01*
X027730Y009787D01*
X027780Y009737D01*
X028330Y009737D01*
X028379Y009759D01*
X028379Y009956D02*
X028911Y009956D01*
X028980Y009887D01*
X028980Y009687D01*
X029280Y009387D01*
X029392Y010350D02*
X028379Y010350D01*
X028330Y010337D01*
X029392Y010350D02*
X029480Y010437D01*
X029461Y011038D02*
X029461Y011806D01*
X029030Y012237D01*
X029230Y011587D02*
X029265Y011553D01*
X029265Y011038D01*
X029068Y011038D02*
X028781Y011038D01*
X028680Y010937D01*
X027580Y011687D02*
X027580Y012237D01*
X027580Y011687D02*
X027080Y011187D01*
X027080Y010887D01*
X030446Y011038D02*
X030446Y012053D01*
X030530Y012137D01*
X030430Y012237D01*
X030430Y013337D01*
X029655Y013072D02*
X028695Y013072D01*
X027680Y014087D01*
X027630Y014087D01*
X027580Y014137D01*
X030180Y014487D02*
X030180Y014685D01*
X030180Y014487D02*
X030480Y014187D01*
X033330Y014187D01*
X033580Y013937D01*
X033580Y011787D01*
X033730Y012037D02*
X033930Y011837D01*
X033930Y011787D01*
X033730Y012037D02*
X033730Y014237D01*
X033283Y014685D01*
X033180Y014685D01*
X035880Y014337D02*
X036430Y014887D01*
X037380Y014887D01*
X038960Y016467D01*
X039210Y016467D01*
X038845Y015587D02*
X038830Y015587D01*
X038830Y015487D01*
X038780Y015437D01*
X038680Y015437D01*
X038530Y015287D01*
X038530Y014887D01*
X038680Y014737D01*
X039280Y014737D01*
X039430Y014587D01*
X039430Y012337D01*
X039280Y012187D01*
X039230Y012487D02*
X038630Y012487D01*
X038587Y012473D01*
X039230Y012487D02*
X039280Y012537D01*
X039280Y014237D01*
X039180Y014337D01*
X038055Y013862D02*
X038030Y013837D01*
X035880Y014337D02*
X035880Y011887D01*
X035031Y011038D01*
X033792Y011038D01*
X033595Y011038D02*
X033595Y010203D01*
X033580Y010187D01*
X033880Y009987D02*
X033911Y009956D01*
X034481Y009956D01*
X034481Y010153D02*
X034105Y010153D01*
X033910Y010347D01*
X034980Y010787D02*
X034980Y009387D01*
X034761Y009168D01*
X034481Y009168D01*
X034481Y008972D02*
X035064Y008972D01*
X035530Y009437D01*
X035530Y010487D01*
X035280Y010737D02*
X035280Y009587D01*
X034481Y009365D02*
X034202Y009365D01*
X033980Y009587D01*
X032630Y009787D02*
X032630Y006837D01*
X032780Y006687D01*
X033180Y006687D01*
X034045Y005822D01*
X034481Y005822D01*
X033230Y005637D02*
X033005Y005412D01*
X033005Y004936D01*
X032808Y004936D02*
X032808Y005665D01*
X032880Y005737D01*
X033595Y004936D02*
X033595Y004422D01*
X033830Y004187D01*
X034080Y004187D01*
X034330Y004437D02*
X034430Y004337D01*
X034330Y004437D02*
X033830Y004437D01*
X033792Y004475D01*
X033792Y004936D01*
X034870Y003037D02*
X034880Y003037D01*
X034880Y003003D01*
X036430Y006937D02*
X036830Y006937D01*
X036830Y007037D01*
X036430Y006937D02*
X036330Y007037D01*
X036330Y007837D02*
X036730Y008237D01*
X037130Y008237D01*
X037130Y008337D01*
X037330Y008537D01*
X037330Y008737D01*
X037230Y008837D01*
X037230Y010487D01*
X037330Y010587D01*
X037330Y010787D01*
X037230Y010887D01*
X037230Y011487D01*
X038130Y011687D02*
X038211Y011607D01*
X038587Y011607D01*
X038668Y011687D01*
X037872Y010830D02*
X037630Y010587D01*
X037080Y010687D02*
X037080Y008637D01*
X036730Y008487D02*
X036730Y010687D01*
X035330Y010787D02*
X035280Y010737D01*
X034930Y011287D02*
X034680Y011537D01*
X033480Y011537D01*
X033399Y011456D01*
X033399Y011038D01*
X032808Y011038D02*
X032808Y011959D01*
X032580Y012187D01*
X032430Y012187D01*
X032230Y012387D01*
X032510Y011907D02*
X032611Y011806D01*
X032611Y011038D01*
X032414Y011038D02*
X032414Y011503D01*
X032180Y011737D01*
X031627Y011038D02*
X031627Y010590D01*
X031880Y010337D01*
X031880Y009487D01*
X032180Y009187D01*
X032180Y008487D01*
X031680Y007987D01*
X031680Y007087D01*
X031930Y006837D02*
X031930Y008037D01*
X032330Y008437D01*
X032330Y009237D01*
X032021Y009547D01*
X033580Y008237D02*
X033580Y007887D01*
X033880Y008137D02*
X033927Y008184D01*
X034481Y008184D01*
X034480Y008187D01*
X034481Y008381D02*
X034480Y008387D01*
X033730Y008387D01*
X033580Y008237D01*
X034481Y007987D02*
X034830Y007987D01*
X035030Y008187D01*
X035030Y008337D01*
X034280Y011787D02*
X033880Y012187D01*
X033880Y017037D01*
X033480Y017437D01*
X030330Y017437D01*
X030062Y017705D01*
X030062Y017935D01*
X033180Y017935D02*
X033183Y017935D01*
X034030Y017087D01*
X034030Y012387D01*
X034130Y012287D01*
X034380Y012537D02*
X034180Y012737D01*
X034180Y017987D01*
X034230Y018037D01*
X034230Y018053D01*
X034680Y017587D02*
X034330Y017237D01*
X034330Y012987D01*
X034430Y012887D01*
X034680Y017587D02*
X036830Y017587D01*
X037177Y017935D01*
X037180Y017935D01*
X037430Y019087D02*
X035668Y019087D01*
X035649Y019069D01*
X037430Y019087D02*
X037680Y019337D01*
X037680Y020087D01*
X037380Y020387D01*
X010880Y020387D01*
X008330Y017837D01*
X008330Y017787D01*
X008430Y017387D02*
X009380Y017387D01*
X009580Y017587D01*
X009580Y018787D01*
X011030Y020237D01*
X027530Y020237D01*
X027680Y020087D01*
X022980Y018072D02*
X022265Y018072D01*
X022080Y017887D01*
X022595Y017403D02*
X022080Y016887D01*
X022595Y017403D02*
X022980Y017403D01*
X016980Y017403D02*
X016595Y017403D01*
X016080Y016887D01*
X016080Y017887D02*
X016265Y018072D01*
X016980Y018072D01*
D58*
X017580Y008937D02*
X015330Y008937D01*
X014730Y008337D01*
X012980Y008337D01*
X011180Y006537D01*
X010905Y006537D01*
X010905Y005512D01*
X009930Y004537D01*
X009330Y004537D01*
X008980Y004537D01*
X008330Y004937D01*
X008330Y005387D01*
X007780Y005937D01*
X007300Y005937D01*
X007300Y006437D02*
X006553Y006437D01*
X005900Y006437D01*
X005830Y006367D01*
X006553Y006437D02*
X006553Y004964D01*
X008980Y002537D01*
X009330Y002537D01*
X006480Y003637D02*
X005880Y003637D01*
X005080Y004437D01*
X005080Y006687D01*
X006080Y005287D02*
X005830Y005037D01*
X005830Y004808D01*
D59*
X006480Y003637D02*
X006780Y003637D01*
X007230Y003187D01*
X007230Y002037D01*
X007680Y001587D01*
X011730Y001587D01*
X011880Y001737D01*
X011880Y002737D01*
X012980Y003787D02*
X012980Y004637D01*
X012980Y006312D01*
X012755Y006537D01*
X012980Y006312D02*
X013105Y006187D01*
X004239Y001387D02*
X003966Y001823D01*
X004239Y001387D02*
X005545Y001387D01*
X037905Y003387D02*
X038130Y003387D01*
X038580Y002937D01*
X039755Y003387D02*
X039755Y004612D01*
X040630Y005487D01*
X040630Y007387D01*
X040330Y007687D01*
X039580Y007687D01*
X039200Y007307D01*
X039200Y006979D01*
D60*
X042002Y009402D02*
X042042Y009441D01*
X042042Y010396D01*
X042042Y014067D01*
X042042Y014914D01*
X041983Y014973D01*
X014330Y005622D02*
X013931Y005622D01*
X013931Y005388D01*
X013930Y005387D01*
X013931Y005622D02*
X013530Y005622D01*
X012405Y005622D02*
X012012Y005622D01*
X012012Y005405D01*
X012010Y005387D01*
X012012Y005622D02*
X011605Y005622D01*
X011656Y004420D02*
X011656Y004001D01*
X011660Y003997D01*
X011706Y004261D02*
X011706Y004370D01*
X011656Y004420D01*
X013556Y004420D02*
X013556Y004001D01*
X013560Y003997D01*
X013897Y003554D02*
X013930Y003554D01*
X013080Y007687D02*
X013280Y007887D01*
X013810Y007887D01*
D61*
X013810Y006977D02*
X013120Y006977D01*
X012755Y006612D01*
X012755Y006537D01*
X013810Y008797D02*
X014340Y008797D01*
X014430Y008887D01*
X016080Y012887D02*
X019830Y016637D01*
X019830Y017937D01*
X020930Y019037D01*
X020930Y019387D01*
X019930Y019487D02*
X019930Y019037D01*
X019230Y018337D01*
X019230Y017037D01*
X016080Y013887D01*
X016080Y014887D02*
X016230Y014887D01*
X018580Y017237D01*
X018580Y018687D01*
X018930Y019037D01*
X018930Y019387D01*
X017930Y019487D02*
X017930Y017387D01*
X016480Y015937D01*
X016130Y015937D01*
X016080Y015887D01*
X013830Y016637D02*
X010080Y012887D01*
X010080Y013887D02*
X013230Y017037D01*
X013230Y018337D01*
X013930Y019037D01*
X013930Y019487D01*
X012930Y019387D02*
X012930Y019037D01*
X012580Y018687D01*
X012580Y017237D01*
X010230Y014887D01*
X010080Y014887D01*
X010080Y015887D02*
X010130Y015937D01*
X010480Y015937D01*
X011930Y017387D01*
X011930Y019487D01*
X008930Y019387D02*
X008930Y019037D01*
X007830Y017937D01*
X007830Y016687D01*
X004080Y012937D01*
X004080Y012887D01*
X004080Y013887D02*
X007230Y017037D01*
X007230Y018337D01*
X007930Y019037D01*
X007930Y019487D01*
X006930Y019387D02*
X006930Y019037D01*
X006580Y018687D01*
X006580Y017237D01*
X004230Y014887D01*
X004080Y014887D01*
X004080Y015887D02*
X004130Y015937D01*
X004480Y015937D01*
X005930Y017387D01*
X005930Y019487D01*
X013830Y017937D02*
X013830Y016637D01*
X013830Y017937D02*
X014930Y019037D01*
X014930Y019387D01*
X022080Y015887D02*
X022130Y015937D01*
X022480Y015937D01*
X023930Y017387D01*
X023930Y019487D01*
X024930Y019387D02*
X024930Y019037D01*
X024580Y018687D01*
X024580Y017187D01*
X022280Y014887D01*
X022080Y014887D01*
X022080Y013887D02*
X025230Y017037D01*
X025230Y018337D01*
X025930Y019037D01*
X025930Y019487D01*
X026930Y019387D02*
X026930Y019037D01*
X025830Y017937D01*
X025830Y016637D01*
X022080Y012887D01*
X013880Y002737D02*
X013880Y001737D01*
D62*
X013810Y007887D02*
X016250Y007887D01*
D63*
X016230Y010187D02*
X011580Y010187D01*
X010880Y010887D01*
X010830Y010887D01*
X010080Y010887D01*
X016080Y010887D02*
X016080Y010337D01*
X016230Y010187D01*
X021830Y010187D01*
X022080Y010437D01*
X022080Y010887D01*
X004080Y010887D02*
X004080Y006687D01*
D64*
X019530Y004453D02*
X020019Y003964D01*
X020019Y002048D01*
X023019Y002048D02*
X023019Y003964D01*
X022530Y004453D01*
M02*
