G75*
G70*
%OFA0B0*%
%FSLAX24Y24*%
%IPPOS*%
%LPD*%
%AMOC8*
5,1,8,0,0,1.08239X$1,22.5*
%
%ADD10C,0.0100*%
%ADD11C,0.0660*%
%ADD12C,0.1300*%
%ADD13C,0.0886*%
%ADD14C,0.0594*%
%ADD15C,0.0740*%
%ADD16C,0.0000*%
%ADD17C,0.0700*%
%ADD18R,0.0740X0.0740*%
%ADD19R,0.0460X0.0630*%
%ADD20C,0.0669*%
%ADD21R,0.0250X0.0500*%
%ADD22R,0.0515X0.0515*%
%ADD23C,0.0515*%
%ADD24C,0.0825*%
%ADD25C,0.0400*%
%ADD26OC8,0.0630*%
%ADD27C,0.0630*%
%ADD28OC8,0.0520*%
%ADD29C,0.0520*%
%ADD30C,0.2250*%
%ADD31C,0.0420*%
%ADD32C,0.0317*%
%ADD33C,0.0277*%
%ADD34C,0.0240*%
%ADD35C,0.0160*%
%ADD36C,0.0080*%
%ADD37C,0.0120*%
%ADD38C,0.1000*%
D10*
X002785Y001429D02*
X002785Y019835D01*
X002985Y019835D02*
X002992Y019927D01*
X003049Y020102D01*
X003157Y020250D01*
X003305Y020358D01*
X003480Y020415D01*
X003572Y020422D01*
X041663Y020422D01*
X041755Y020415D01*
X041929Y020358D01*
X042078Y020250D01*
X042186Y020102D01*
X042243Y019927D01*
X042250Y019835D01*
X042250Y001429D01*
X042243Y001338D01*
X042186Y001163D01*
X042078Y001014D01*
X041929Y000906D01*
X041755Y000849D01*
X041663Y000842D01*
X023768Y000842D01*
X023780Y000854D01*
X023780Y003855D01*
X023910Y003725D01*
X023910Y003384D01*
X023951Y003284D01*
X024027Y003208D01*
X024527Y002708D01*
X024626Y002667D01*
X036750Y002667D01*
X036722Y002599D01*
X036722Y002476D01*
X036769Y002363D01*
X036830Y002301D01*
X036830Y002270D01*
X036817Y002257D01*
X036148Y002257D01*
X036060Y002169D01*
X036060Y001305D01*
X036148Y001217D01*
X036517Y001217D01*
X036797Y000937D01*
X038363Y000937D01*
X038480Y001054D01*
X038643Y001217D01*
X038683Y001217D01*
X038875Y001296D01*
X039021Y001443D01*
X039060Y001537D01*
X039060Y001534D01*
X039139Y001343D01*
X039285Y001196D01*
X039477Y001117D01*
X039683Y001117D01*
X039875Y001196D01*
X040021Y001343D01*
X040100Y001534D01*
X040100Y001741D01*
X040021Y001932D01*
X039875Y002078D01*
X039683Y002157D01*
X039477Y002157D01*
X039285Y002078D01*
X039139Y001932D01*
X039100Y001837D01*
X039100Y001841D01*
X039021Y002032D01*
X038875Y002178D01*
X038683Y002257D01*
X038477Y002257D01*
X038285Y002178D01*
X038139Y002032D01*
X038060Y001841D01*
X038060Y001837D01*
X038021Y001932D01*
X037875Y002078D01*
X037683Y002157D01*
X037558Y002157D01*
X037575Y002174D01*
X037619Y002280D01*
X037619Y002357D01*
X037759Y002497D01*
X038612Y002497D01*
X038666Y002443D01*
X038773Y002399D01*
X038887Y002399D01*
X038994Y002443D01*
X039075Y002524D01*
X039119Y002630D01*
X039119Y002745D01*
X039075Y002851D01*
X038994Y002932D01*
X038967Y002943D01*
X040250Y004225D01*
X040250Y003958D01*
X040372Y003664D01*
X040597Y003439D01*
X040891Y003317D01*
X041209Y003317D01*
X041503Y003439D01*
X041728Y003664D01*
X041850Y003958D01*
X041850Y004276D01*
X041728Y004570D01*
X041531Y004767D01*
X041784Y004767D01*
X041883Y004808D01*
X042209Y005134D01*
X042250Y005234D01*
X042250Y014341D01*
X042209Y014440D01*
X042133Y014516D01*
X041583Y015066D01*
X041484Y015107D01*
X040832Y015107D01*
X040848Y015123D01*
X040939Y015341D01*
X040939Y015577D01*
X040848Y015795D01*
X040682Y015962D01*
X040464Y016052D01*
X040228Y016052D01*
X040010Y015962D01*
X039843Y015795D01*
X039753Y015577D01*
X039753Y015341D01*
X039785Y015264D01*
X039098Y015951D01*
X039107Y015947D01*
X039313Y015947D01*
X039505Y016026D01*
X039651Y016173D01*
X039730Y016364D01*
X039730Y016571D01*
X039651Y016762D01*
X039505Y016908D01*
X039313Y016987D01*
X039107Y016987D01*
X038915Y016908D01*
X038900Y016893D01*
X038900Y017841D01*
X038859Y017940D01*
X038783Y018016D01*
X038283Y018516D01*
X038184Y018557D01*
X029705Y018557D01*
X029705Y018599D01*
X029617Y018687D01*
X029280Y018687D01*
X029280Y018758D01*
X028648Y019389D01*
X028687Y019484D01*
X028687Y019691D01*
X028608Y019882D01*
X028493Y019997D01*
X029501Y019997D01*
X029694Y019804D01*
X029648Y019691D01*
X029648Y019484D01*
X029727Y019293D01*
X029873Y019146D01*
X030064Y019067D01*
X030271Y019067D01*
X030462Y019146D01*
X030608Y019293D01*
X030668Y019436D01*
X030727Y019293D01*
X030873Y019146D01*
X031064Y019067D01*
X031271Y019067D01*
X031462Y019146D01*
X031608Y019293D01*
X031687Y019484D01*
X031687Y019691D01*
X031608Y019882D01*
X031462Y020028D01*
X031271Y020107D01*
X031064Y020107D01*
X030873Y020028D01*
X030727Y019882D01*
X030668Y019739D01*
X030608Y019882D01*
X030462Y020028D01*
X030271Y020107D01*
X030064Y020107D01*
X029968Y020068D01*
X029659Y020377D01*
X027701Y020377D01*
X027700Y020376D01*
X027623Y020376D01*
X027516Y020332D01*
X027435Y020251D01*
X027391Y020145D01*
X027391Y020030D01*
X027435Y019924D01*
X027516Y019843D01*
X027623Y019799D01*
X027692Y019799D01*
X027648Y019691D01*
X027648Y019484D01*
X027727Y019293D01*
X027873Y019146D01*
X028064Y019067D01*
X028271Y019067D01*
X028365Y019106D01*
X028785Y018687D01*
X028543Y018687D01*
X028455Y018599D01*
X028455Y018587D01*
X026697Y018587D01*
X026580Y018470D01*
X026497Y018387D01*
X026380Y018270D01*
X026380Y015770D01*
X026106Y015496D01*
X026019Y015496D01*
X025905Y015449D01*
X025819Y015362D01*
X025772Y015249D01*
X025772Y015126D01*
X025819Y015013D01*
X025905Y014926D01*
X026019Y014879D01*
X026141Y014879D01*
X026255Y014926D01*
X026341Y015013D01*
X026388Y015126D01*
X026388Y015213D01*
X026718Y015542D01*
X026797Y015463D01*
X026870Y015433D01*
X026870Y015342D01*
X026797Y015311D01*
X026656Y015171D01*
X026580Y014987D01*
X026580Y014788D01*
X026656Y014604D01*
X026673Y014587D01*
X025247Y014587D01*
X025130Y014470D01*
X024780Y014120D01*
X024780Y012920D01*
X024497Y012637D01*
X024066Y012637D01*
X024005Y012699D01*
X023891Y012746D01*
X023769Y012746D01*
X023655Y012699D01*
X023569Y012612D01*
X023522Y012499D01*
X023522Y012376D01*
X023569Y012263D01*
X023655Y012176D01*
X023769Y012129D01*
X023856Y012129D01*
X023880Y012104D01*
X023880Y011923D01*
X023819Y011862D01*
X023772Y011749D01*
X023772Y011626D01*
X023819Y011513D01*
X023905Y011426D01*
X024019Y011379D01*
X024141Y011379D01*
X024255Y011426D01*
X024341Y011513D01*
X024388Y011626D01*
X024388Y011749D01*
X024341Y011862D01*
X024280Y011923D01*
X024280Y012237D01*
X024663Y012237D01*
X025063Y012637D01*
X025180Y012754D01*
X025180Y013954D01*
X025300Y014074D01*
X025300Y013460D01*
X025388Y013372D01*
X025480Y013372D01*
X025480Y013302D01*
X025388Y013302D01*
X025300Y013214D01*
X025300Y012460D01*
X025388Y012372D01*
X025480Y012372D01*
X025480Y012302D01*
X025388Y012302D01*
X025300Y012214D01*
X025300Y011593D01*
X025219Y011512D01*
X025172Y011399D01*
X025172Y011276D01*
X025219Y011163D01*
X025305Y011076D01*
X025419Y011029D01*
X025541Y011029D01*
X025655Y011076D01*
X025741Y011163D01*
X025788Y011276D01*
X025788Y011363D01*
X025798Y011372D01*
X025972Y011372D01*
X025980Y011380D01*
X025988Y011372D01*
X026572Y011372D01*
X026660Y011460D01*
X026660Y011600D01*
X026797Y011463D01*
X026981Y011387D01*
X026797Y011311D01*
X026656Y011171D01*
X026580Y010987D01*
X026580Y010788D01*
X026647Y010627D01*
X022513Y010627D01*
X022580Y010788D01*
X022580Y010987D01*
X022504Y011171D01*
X022363Y011311D01*
X022179Y011387D01*
X021981Y011387D01*
X021797Y011311D01*
X021656Y011171D01*
X021580Y010987D01*
X021504Y011171D01*
X021363Y011311D01*
X021179Y011387D01*
X021363Y011463D01*
X021504Y011604D01*
X021580Y011788D01*
X021580Y011987D01*
X021504Y012171D01*
X021363Y012311D01*
X021179Y012387D01*
X020981Y012387D01*
X020797Y012311D01*
X020660Y012174D01*
X020660Y012214D01*
X020572Y012302D01*
X019988Y012302D01*
X019980Y012294D01*
X019972Y012302D01*
X019880Y012302D01*
X019880Y012372D01*
X019972Y012372D01*
X019980Y012380D01*
X019988Y012372D01*
X020572Y012372D01*
X020660Y012460D01*
X020660Y012600D01*
X020797Y012463D01*
X020981Y012387D01*
X021179Y012387D01*
X021363Y012463D01*
X021504Y012604D01*
X021580Y012788D01*
X021580Y012987D01*
X021504Y013171D01*
X021363Y013311D01*
X021179Y013387D01*
X021363Y013463D01*
X021504Y013604D01*
X021580Y013788D01*
X021580Y013987D01*
X021504Y014171D01*
X021363Y014311D01*
X021179Y014387D01*
X020981Y014387D01*
X020797Y014311D01*
X020660Y014174D01*
X020660Y014214D01*
X020572Y014302D01*
X019988Y014302D01*
X019980Y014294D01*
X019972Y014302D01*
X019388Y014302D01*
X019300Y014214D01*
X019300Y013460D01*
X019388Y013372D01*
X019480Y013372D01*
X019480Y013302D01*
X019388Y013302D01*
X019300Y013214D01*
X019300Y012460D01*
X019388Y012372D01*
X019480Y012372D01*
X019480Y012302D01*
X019388Y012302D01*
X019300Y012214D01*
X019300Y011593D01*
X019219Y011512D01*
X019172Y011399D01*
X019172Y011276D01*
X019219Y011163D01*
X019305Y011076D01*
X019419Y011029D01*
X019541Y011029D01*
X019655Y011076D01*
X019741Y011163D01*
X019788Y011276D01*
X019788Y011363D01*
X019798Y011372D01*
X019972Y011372D01*
X019980Y011380D01*
X019988Y011372D01*
X020572Y011372D01*
X020660Y011460D01*
X020660Y011600D01*
X020797Y011463D01*
X020981Y011387D01*
X021179Y011387D01*
X020981Y011387D01*
X020797Y011311D01*
X020656Y011171D01*
X020580Y010987D01*
X020580Y010788D01*
X020656Y010604D01*
X020793Y010467D01*
X019583Y010467D01*
X019030Y011020D01*
X019030Y013451D01*
X019091Y013513D01*
X019138Y013626D01*
X019138Y013749D01*
X019091Y013862D01*
X019005Y013949D01*
X018891Y013996D01*
X018769Y013996D01*
X018655Y013949D01*
X018580Y013873D01*
X018505Y013949D01*
X018391Y013996D01*
X018269Y013996D01*
X018155Y013949D01*
X018069Y013862D01*
X018022Y013749D01*
X018022Y013626D01*
X018069Y013513D01*
X018155Y013426D01*
X018269Y013379D01*
X018356Y013379D01*
X018380Y013354D01*
X018380Y011769D01*
X018341Y011862D01*
X018280Y011923D01*
X018280Y012270D01*
X018138Y012412D01*
X018138Y012499D01*
X018091Y012612D01*
X018005Y012699D01*
X017891Y012746D01*
X017769Y012746D01*
X017655Y012699D01*
X017569Y012612D01*
X017522Y012499D01*
X017522Y012376D01*
X017569Y012263D01*
X017655Y012176D01*
X017769Y012129D01*
X017856Y012129D01*
X017880Y012104D01*
X017880Y011923D01*
X017819Y011862D01*
X017772Y011749D01*
X017772Y011626D01*
X017819Y011513D01*
X017905Y011426D01*
X018019Y011379D01*
X018141Y011379D01*
X018255Y011426D01*
X018341Y011513D01*
X018380Y011606D01*
X018380Y010854D01*
X018597Y010637D01*
X016518Y010637D01*
X016580Y010788D01*
X016580Y010987D01*
X016504Y011171D01*
X016363Y011311D01*
X016179Y011387D01*
X015981Y011387D01*
X015797Y011311D01*
X015656Y011171D01*
X015580Y010987D01*
X015504Y011171D01*
X015363Y011311D01*
X015179Y011387D01*
X015363Y011463D01*
X015504Y011604D01*
X015580Y011788D01*
X015580Y011987D01*
X015504Y012171D01*
X015363Y012311D01*
X015179Y012387D01*
X014981Y012387D01*
X014797Y012311D01*
X014660Y012174D01*
X014660Y012214D01*
X014572Y012302D01*
X013988Y012302D01*
X013980Y012294D01*
X013972Y012302D01*
X013880Y012302D01*
X013880Y012372D01*
X013972Y012372D01*
X013980Y012380D01*
X013988Y012372D01*
X014572Y012372D01*
X014660Y012460D01*
X014660Y012600D01*
X014797Y012463D01*
X014981Y012387D01*
X015179Y012387D01*
X015363Y012463D01*
X015504Y012604D01*
X015580Y012788D01*
X015580Y012987D01*
X015504Y013171D01*
X015363Y013311D01*
X015179Y013387D01*
X015363Y013463D01*
X015504Y013604D01*
X015580Y013788D01*
X015580Y013987D01*
X015504Y014171D01*
X015363Y014311D01*
X015179Y014387D01*
X014981Y014387D01*
X014797Y014311D01*
X014660Y014174D01*
X014660Y014214D01*
X014572Y014302D01*
X013988Y014302D01*
X013980Y014294D01*
X013972Y014302D01*
X013388Y014302D01*
X013300Y014214D01*
X013300Y013460D01*
X013388Y013372D01*
X013480Y013372D01*
X013480Y013302D01*
X013388Y013302D01*
X013300Y013214D01*
X013300Y012460D01*
X013388Y012372D01*
X013480Y012372D01*
X013480Y012302D01*
X013388Y012302D01*
X013300Y012214D01*
X013300Y011593D01*
X013219Y011512D01*
X013172Y011399D01*
X013172Y011276D01*
X013219Y011163D01*
X013305Y011076D01*
X013419Y011029D01*
X013541Y011029D01*
X013655Y011076D01*
X013741Y011163D01*
X013788Y011276D01*
X013788Y011363D01*
X013798Y011372D01*
X013972Y011372D01*
X013980Y011380D01*
X013988Y011372D01*
X014572Y011372D01*
X014660Y011460D01*
X014660Y011600D01*
X014797Y011463D01*
X014981Y011387D01*
X015179Y011387D01*
X014981Y011387D01*
X014797Y011311D01*
X014656Y011171D01*
X014580Y010987D01*
X014580Y010788D01*
X014656Y010604D01*
X014783Y010477D01*
X013823Y010477D01*
X013030Y011270D01*
X013030Y013451D01*
X013091Y013513D01*
X013138Y013626D01*
X013138Y013749D01*
X013091Y013862D01*
X013005Y013949D01*
X012891Y013996D01*
X012769Y013996D01*
X012655Y013949D01*
X012580Y013873D01*
X012505Y013949D01*
X012391Y013996D01*
X012269Y013996D01*
X012155Y013949D01*
X012069Y013862D01*
X012022Y013749D01*
X012022Y013626D01*
X012069Y013513D01*
X012155Y013426D01*
X012269Y013379D01*
X012356Y013379D01*
X012380Y013354D01*
X012380Y011769D01*
X012341Y011862D01*
X012280Y011923D01*
X012280Y012270D01*
X012138Y012412D01*
X012138Y012499D01*
X012091Y012612D01*
X012005Y012699D01*
X011891Y012746D01*
X011769Y012746D01*
X011655Y012699D01*
X011569Y012612D01*
X011522Y012499D01*
X011522Y012376D01*
X011569Y012263D01*
X011655Y012176D01*
X011769Y012129D01*
X011856Y012129D01*
X011880Y012104D01*
X011880Y011923D01*
X011819Y011862D01*
X011772Y011749D01*
X011772Y011626D01*
X011819Y011513D01*
X011905Y011426D01*
X012019Y011379D01*
X012141Y011379D01*
X012255Y011426D01*
X012341Y011513D01*
X012380Y011606D01*
X012380Y011104D01*
X013347Y010137D01*
X011899Y010137D01*
X011399Y010637D01*
X010518Y010637D01*
X010580Y010788D01*
X010580Y010987D01*
X010504Y011171D01*
X010363Y011311D01*
X010179Y011387D01*
X009981Y011387D01*
X009797Y011311D01*
X009656Y011171D01*
X009580Y010987D01*
X009504Y011171D01*
X009363Y011311D01*
X009179Y011387D01*
X009363Y011463D01*
X009504Y011604D01*
X009580Y011788D01*
X009580Y011987D01*
X009504Y012171D01*
X009363Y012311D01*
X009179Y012387D01*
X009363Y012463D01*
X009504Y012604D01*
X009580Y012788D01*
X009656Y012604D01*
X009797Y012463D01*
X009981Y012387D01*
X010179Y012387D01*
X010363Y012463D01*
X010504Y012604D01*
X010580Y012788D01*
X010580Y012987D01*
X010504Y013171D01*
X010363Y013311D01*
X010179Y013387D01*
X010363Y013463D01*
X010504Y013604D01*
X010580Y013788D01*
X010580Y013987D01*
X010504Y014171D01*
X010363Y014311D01*
X010179Y014387D01*
X010363Y014463D01*
X010504Y014604D01*
X010580Y014788D01*
X010580Y014987D01*
X010504Y015171D01*
X010363Y015311D01*
X010179Y015387D01*
X010363Y015463D01*
X010504Y015604D01*
X010580Y015788D01*
X010580Y015987D01*
X010504Y016171D01*
X010363Y016311D01*
X010179Y016387D01*
X010363Y016463D01*
X010504Y016604D01*
X010580Y016788D01*
X010580Y016987D01*
X010504Y017171D01*
X010363Y017311D01*
X010179Y017387D01*
X009981Y017387D01*
X009797Y017311D01*
X009656Y017171D01*
X009580Y016987D01*
X009580Y016788D01*
X009656Y016604D01*
X009797Y016463D01*
X009981Y016387D01*
X010179Y016387D01*
X009981Y016387D01*
X009797Y016311D01*
X009656Y016171D01*
X009580Y015987D01*
X009580Y015788D01*
X009656Y015604D01*
X009797Y015463D01*
X009981Y015387D01*
X010179Y015387D01*
X009981Y015387D01*
X009797Y015311D01*
X009656Y015171D01*
X009580Y014987D01*
X009580Y014788D01*
X009656Y014604D01*
X009797Y014463D01*
X009981Y014387D01*
X010179Y014387D01*
X009981Y014387D01*
X009797Y014311D01*
X009656Y014171D01*
X009580Y013987D01*
X009580Y013788D01*
X009656Y013604D01*
X009797Y013463D01*
X009981Y013387D01*
X010179Y013387D01*
X009981Y013387D01*
X009797Y013311D01*
X009656Y013171D01*
X009580Y012987D01*
X009580Y012788D01*
X009580Y012987D01*
X009504Y013171D01*
X009363Y013311D01*
X009179Y013387D01*
X009363Y013463D01*
X009504Y013604D01*
X009580Y013788D01*
X009580Y013987D01*
X009504Y014171D01*
X009363Y014311D01*
X009179Y014387D01*
X009363Y014463D01*
X009504Y014604D01*
X009580Y014788D01*
X009580Y014987D01*
X009504Y015171D01*
X009363Y015311D01*
X009290Y015342D01*
X009290Y015433D01*
X009363Y015463D01*
X009504Y015604D01*
X009580Y015788D01*
X009580Y015987D01*
X009504Y016171D01*
X009363Y016311D01*
X009179Y016387D01*
X009363Y016463D01*
X009504Y016604D01*
X009580Y016788D01*
X009580Y016987D01*
X009504Y017171D01*
X009363Y017311D01*
X009179Y017387D01*
X009363Y017463D01*
X009504Y017604D01*
X009580Y017788D01*
X009580Y017987D01*
X009504Y018171D01*
X009363Y018311D01*
X009179Y018387D01*
X008981Y018387D01*
X008797Y018311D01*
X008656Y018171D01*
X008580Y017987D01*
X008580Y017938D01*
X008575Y017951D01*
X008494Y018032D01*
X008387Y018076D01*
X008273Y018076D01*
X008166Y018032D01*
X008085Y017951D01*
X008041Y017845D01*
X008041Y017767D01*
X007740Y017466D01*
X007740Y015406D01*
X007660Y015406D01*
X007660Y015814D01*
X007572Y015902D01*
X006988Y015902D01*
X006980Y015894D01*
X006972Y015902D01*
X006388Y015902D01*
X006300Y015814D01*
X006300Y015060D01*
X006373Y014987D01*
X006300Y014914D01*
X006300Y014160D01*
X006373Y014087D01*
X006300Y014014D01*
X006300Y013577D01*
X004900Y014977D01*
X004900Y015441D01*
X004859Y015540D01*
X004783Y015616D01*
X004580Y015819D01*
X004580Y015987D01*
X004504Y016171D01*
X004363Y016311D01*
X004179Y016387D01*
X003981Y016387D01*
X003797Y016463D01*
X003656Y016604D01*
X003580Y016788D01*
X003580Y016987D01*
X003656Y017171D01*
X003797Y017311D01*
X003981Y017387D01*
X004179Y017387D01*
X004363Y017311D01*
X004504Y017171D01*
X004580Y016987D01*
X004580Y016788D01*
X004504Y016604D01*
X004363Y016463D01*
X004179Y016387D01*
X003981Y016387D01*
X003797Y016311D01*
X003656Y016171D01*
X003580Y015987D01*
X003580Y015788D01*
X003656Y015604D01*
X003797Y015463D01*
X003981Y015387D01*
X003797Y015311D01*
X003656Y015171D01*
X003580Y014987D01*
X003580Y014788D01*
X003656Y014604D01*
X003797Y014463D01*
X003981Y014387D01*
X003797Y014311D01*
X003656Y014171D01*
X003580Y013987D01*
X003580Y013788D01*
X003656Y013604D01*
X003797Y013463D01*
X003981Y013387D01*
X003797Y013311D01*
X003656Y013171D01*
X003580Y012987D01*
X003580Y012788D01*
X003656Y012604D01*
X003797Y012463D01*
X003981Y012387D01*
X004179Y012387D01*
X004363Y012463D01*
X004443Y012543D01*
X004810Y012175D01*
X004810Y008484D01*
X004851Y008384D01*
X004927Y008308D01*
X005177Y008058D01*
X005276Y008017D01*
X005884Y008017D01*
X005983Y008058D01*
X006059Y008134D01*
X006303Y008378D01*
X006314Y008405D01*
X006320Y008400D01*
X006469Y008338D01*
X006632Y008338D01*
X006781Y008400D01*
X006896Y008514D01*
X006958Y008664D01*
X006958Y008826D01*
X006896Y008976D01*
X006820Y009051D01*
X006820Y009391D01*
X006828Y009384D01*
X006977Y009322D01*
X007139Y009322D01*
X007289Y009384D01*
X007404Y009499D01*
X007466Y009648D01*
X007466Y009810D01*
X007404Y009960D01*
X007328Y010036D01*
X007328Y011066D01*
X007419Y011029D01*
X007541Y011029D01*
X007655Y011076D01*
X007740Y011161D01*
X007740Y010359D01*
X007851Y010247D01*
X007962Y010137D01*
X007962Y010137D01*
X007812Y010075D01*
X007697Y009960D01*
X007635Y009810D01*
X007635Y009648D01*
X007697Y009499D01*
X007812Y009384D01*
X007962Y009322D01*
X008124Y009322D01*
X008273Y009384D01*
X008388Y009499D01*
X008440Y009624D01*
X008440Y009409D01*
X008551Y009297D01*
X009096Y008753D01*
X009096Y008664D01*
X009158Y008514D01*
X009272Y008400D01*
X009422Y008338D01*
X009584Y008338D01*
X009734Y008400D01*
X009849Y008514D01*
X009911Y008664D01*
X009911Y008826D01*
X009849Y008976D01*
X009734Y009091D01*
X009584Y009153D01*
X009422Y009153D01*
X009289Y009097D01*
X009064Y009322D01*
X009108Y009322D01*
X009258Y009384D01*
X009372Y009499D01*
X009434Y009648D01*
X009434Y009810D01*
X009398Y009897D01*
X009640Y009897D01*
X009604Y009810D01*
X009604Y009648D01*
X009666Y009499D01*
X009780Y009384D01*
X009930Y009322D01*
X010092Y009322D01*
X010242Y009384D01*
X010296Y009438D01*
X010582Y009153D01*
X010168Y009153D01*
X010080Y009065D01*
X010080Y008426D01*
X010168Y008338D01*
X010807Y008338D01*
X010895Y008426D01*
X010895Y008839D01*
X012130Y007604D01*
X012247Y007487D01*
X012844Y007487D01*
X012905Y007426D01*
X013019Y007379D01*
X013141Y007379D01*
X013255Y007426D01*
X013341Y007513D01*
X013388Y007626D01*
X013388Y007749D01*
X013341Y007862D01*
X013255Y007949D01*
X013141Y007996D01*
X013019Y007996D01*
X012905Y007949D01*
X012844Y007887D01*
X012413Y007887D01*
X010978Y009322D01*
X011076Y009322D01*
X011226Y009384D01*
X011341Y009499D01*
X011387Y009611D01*
X011420Y009579D01*
X011531Y009467D01*
X018431Y009467D01*
X018790Y009109D01*
X018901Y008997D01*
X020802Y008997D01*
X020770Y008919D01*
X020770Y008756D01*
X020832Y008605D01*
X020948Y008490D01*
X021098Y008427D01*
X021157Y008427D01*
X021197Y008387D01*
X017747Y008387D01*
X017630Y008270D01*
X017630Y006354D01*
X017747Y006237D01*
X017913Y006237D01*
X022247Y006237D01*
X022413Y006237D01*
X022530Y006354D01*
X022530Y007737D01*
X023402Y007737D01*
X023456Y007683D01*
X023563Y007639D01*
X023626Y007639D01*
X023927Y007337D01*
X024963Y007337D01*
X025080Y007454D01*
X025230Y007604D01*
X025230Y008199D01*
X025337Y008199D01*
X025444Y008243D01*
X025525Y008324D01*
X025569Y008430D01*
X025569Y008545D01*
X025525Y008651D01*
X025444Y008732D01*
X025337Y008776D01*
X025274Y008776D01*
X025213Y008837D01*
X024031Y008837D01*
X023937Y008876D01*
X023823Y008876D01*
X023716Y008832D01*
X023635Y008751D01*
X023591Y008645D01*
X023591Y008637D01*
X021541Y008637D01*
X021590Y008756D01*
X021590Y008919D01*
X021558Y008997D01*
X027355Y008997D01*
X027385Y008924D01*
X027466Y008843D01*
X027573Y008799D01*
X027687Y008799D01*
X027794Y008843D01*
X027875Y008924D01*
X027919Y009030D01*
X027919Y009145D01*
X027889Y009217D01*
X028590Y009919D01*
X028590Y009409D01*
X028691Y009307D01*
X028691Y009230D01*
X028735Y009124D01*
X028816Y009043D01*
X028923Y008999D01*
X029037Y008999D01*
X029144Y009043D01*
X029225Y009124D01*
X029269Y009230D01*
X029269Y009345D01*
X029225Y009451D01*
X029144Y009532D01*
X029037Y009576D01*
X028970Y009576D01*
X028970Y010609D01*
X029120Y010759D01*
X029120Y011147D01*
X029301Y011147D01*
X029940Y010509D01*
X029940Y010346D01*
X029770Y010516D01*
X029753Y010533D01*
X029725Y010601D01*
X029644Y010682D01*
X029537Y010726D01*
X029423Y010726D01*
X029316Y010682D01*
X029235Y010601D01*
X029191Y010495D01*
X029191Y010380D01*
X029235Y010274D01*
X029313Y010196D01*
X029291Y010145D01*
X029291Y010036D01*
X029256Y010022D01*
X029175Y009941D01*
X029131Y009835D01*
X029131Y009720D01*
X029175Y009614D01*
X029256Y009533D01*
X029350Y009494D01*
X029350Y008799D01*
X029461Y008687D01*
X029650Y008499D01*
X029650Y007427D01*
X029301Y007427D01*
X029190Y007316D01*
X028961Y007087D01*
X027999Y007087D01*
X028659Y007747D01*
X029012Y007747D01*
X029066Y007693D01*
X029173Y007649D01*
X029287Y007649D01*
X029394Y007693D01*
X029475Y007774D01*
X029519Y007880D01*
X029519Y007995D01*
X029475Y008101D01*
X029463Y008112D01*
X029475Y008124D01*
X029519Y008230D01*
X029519Y008345D01*
X029475Y008451D01*
X029394Y008532D01*
X029287Y008576D01*
X029173Y008576D01*
X029066Y008532D01*
X029012Y008477D01*
X028551Y008477D01*
X027945Y007871D01*
X027904Y007912D01*
X027797Y007956D01*
X027683Y007956D01*
X027576Y007912D01*
X027495Y007831D01*
X027451Y007725D01*
X027451Y007610D01*
X027495Y007504D01*
X027542Y007457D01*
X027485Y007401D01*
X027446Y007307D01*
X025941Y007307D01*
X025830Y007196D01*
X025241Y006607D01*
X024361Y006607D01*
X024250Y006496D01*
X023690Y005936D01*
X023690Y005256D01*
X023621Y005187D01*
X014138Y005187D01*
X014175Y005224D01*
X014219Y005330D01*
X014219Y005445D01*
X014175Y005551D01*
X014094Y005632D01*
X013987Y005676D01*
X013873Y005676D01*
X013766Y005632D01*
X013685Y005551D01*
X013641Y005445D01*
X013641Y005330D01*
X013685Y005224D01*
X013740Y005169D01*
X013740Y005047D01*
X013239Y005047D01*
X013159Y005127D01*
X012409Y005127D01*
X012272Y005264D01*
X012299Y005330D01*
X012299Y005445D01*
X012255Y005551D01*
X012174Y005632D01*
X012067Y005676D01*
X011953Y005676D01*
X011846Y005632D01*
X011765Y005551D01*
X011721Y005445D01*
X011721Y005330D01*
X011765Y005224D01*
X011846Y005143D01*
X011863Y005136D01*
X012140Y004859D01*
X012251Y004747D01*
X012692Y004747D01*
X012672Y004699D01*
X012672Y004576D01*
X012719Y004463D01*
X012805Y004376D01*
X012919Y004329D01*
X013041Y004329D01*
X013134Y004367D01*
X014727Y004367D01*
X014630Y004270D01*
X014630Y000854D01*
X014642Y000842D01*
X003572Y000842D01*
X003480Y000849D01*
X003305Y000906D01*
X003157Y001014D01*
X003049Y001163D01*
X002992Y001338D01*
X002985Y001429D01*
X002985Y019835D01*
X002986Y019850D02*
X005410Y019850D01*
X005410Y019919D02*
X005410Y019055D01*
X005498Y018967D01*
X006362Y018967D01*
X006450Y019055D01*
X006450Y019187D01*
X006489Y019093D01*
X006635Y018946D01*
X006827Y018867D01*
X007033Y018867D01*
X007225Y018946D01*
X007371Y019093D01*
X007450Y019284D01*
X007450Y019287D01*
X007489Y019193D01*
X007635Y019046D01*
X007827Y018967D01*
X008033Y018967D01*
X008225Y019046D01*
X008371Y019193D01*
X008410Y019287D01*
X008410Y019284D01*
X008489Y019093D01*
X008635Y018946D01*
X008827Y018867D01*
X009033Y018867D01*
X009225Y018946D01*
X009371Y019093D01*
X009450Y019284D01*
X009450Y019491D01*
X009371Y019682D01*
X009225Y019828D01*
X009033Y019907D01*
X008827Y019907D01*
X008635Y019828D01*
X008489Y019682D01*
X008450Y019587D01*
X008450Y019591D01*
X008371Y019782D01*
X008225Y019928D01*
X008033Y020007D01*
X007827Y020007D01*
X007635Y019928D01*
X007489Y019782D01*
X007410Y019591D01*
X007410Y019587D01*
X007371Y019682D01*
X007225Y019828D01*
X007033Y019907D01*
X006827Y019907D01*
X006635Y019828D01*
X006489Y019682D01*
X006450Y019587D01*
X006450Y019919D01*
X006362Y020007D01*
X005498Y020007D01*
X005410Y019919D01*
X005439Y019948D02*
X002999Y019948D01*
X003031Y020047D02*
X027391Y020047D01*
X027391Y020145D02*
X003080Y020145D01*
X003152Y020244D02*
X027432Y020244D01*
X027541Y020342D02*
X003283Y020342D01*
X003572Y020622D02*
X041663Y020622D01*
X041952Y020342D02*
X029694Y020342D01*
X029792Y020244D02*
X042083Y020244D01*
X042154Y020145D02*
X029891Y020145D01*
X029649Y019850D02*
X028622Y019850D01*
X028663Y019751D02*
X029672Y019751D01*
X029648Y019653D02*
X028687Y019653D01*
X028687Y019554D02*
X029648Y019554D01*
X029659Y019456D02*
X028676Y019456D01*
X028681Y019357D02*
X029700Y019357D01*
X029761Y019259D02*
X028779Y019259D01*
X028878Y019160D02*
X029859Y019160D01*
X030476Y019160D02*
X030859Y019160D01*
X030761Y019259D02*
X030574Y019259D01*
X030635Y019357D02*
X030700Y019357D01*
X030672Y019751D02*
X030663Y019751D01*
X030622Y019850D02*
X030713Y019850D01*
X030793Y019948D02*
X030542Y019948D01*
X030418Y020047D02*
X030917Y020047D01*
X031418Y020047D02*
X032917Y020047D01*
X032873Y020028D02*
X032727Y019882D01*
X032648Y019691D01*
X032648Y019484D01*
X032727Y019293D01*
X032873Y019146D01*
X033064Y019067D01*
X033271Y019067D01*
X033462Y019146D01*
X033608Y019293D01*
X033668Y019436D01*
X033727Y019293D01*
X033873Y019146D01*
X034064Y019067D01*
X034271Y019067D01*
X034462Y019146D01*
X034608Y019293D01*
X034687Y019484D01*
X034687Y019691D01*
X034608Y019882D01*
X034462Y020028D01*
X034271Y020107D01*
X034064Y020107D01*
X033873Y020028D01*
X033727Y019882D01*
X033668Y019739D01*
X033608Y019882D01*
X033462Y020028D01*
X033271Y020107D01*
X033064Y020107D01*
X032873Y020028D01*
X032793Y019948D02*
X031542Y019948D01*
X031622Y019850D02*
X032713Y019850D01*
X032672Y019751D02*
X031663Y019751D01*
X031687Y019653D02*
X032648Y019653D01*
X032648Y019554D02*
X031687Y019554D01*
X031676Y019456D02*
X032659Y019456D01*
X032700Y019357D02*
X031635Y019357D01*
X031574Y019259D02*
X032761Y019259D01*
X032859Y019160D02*
X031476Y019160D01*
X029705Y018569D02*
X039861Y018569D01*
X039843Y018551D02*
X039753Y018333D01*
X039753Y018097D01*
X039843Y017879D01*
X040010Y017713D01*
X040228Y017622D01*
X040464Y017622D01*
X040682Y017713D01*
X040848Y017879D01*
X040939Y018097D01*
X040939Y018333D01*
X040848Y018551D01*
X040682Y018718D01*
X040464Y018808D01*
X040228Y018808D01*
X040010Y018718D01*
X039843Y018551D01*
X039810Y018471D02*
X038329Y018471D01*
X038427Y018372D02*
X039769Y018372D01*
X039753Y018274D02*
X038526Y018274D01*
X038624Y018175D02*
X039753Y018175D01*
X039761Y018077D02*
X038723Y018077D01*
X038821Y017978D02*
X039802Y017978D01*
X039843Y017880D02*
X038884Y017880D01*
X038900Y017781D02*
X039941Y017781D01*
X040082Y017683D02*
X038900Y017683D01*
X038900Y017584D02*
X042250Y017584D01*
X042250Y017486D02*
X038900Y017486D01*
X038900Y017387D02*
X042250Y017387D01*
X042250Y017289D02*
X038900Y017289D01*
X038900Y017190D02*
X042250Y017190D01*
X042250Y017092D02*
X038900Y017092D01*
X038900Y016993D02*
X042250Y016993D01*
X042250Y016895D02*
X039518Y016895D01*
X039617Y016796D02*
X042250Y016796D01*
X042250Y016698D02*
X039677Y016698D01*
X039718Y016599D02*
X042250Y016599D01*
X042250Y016501D02*
X039730Y016501D01*
X039730Y016402D02*
X042250Y016402D01*
X042250Y016304D02*
X041610Y016304D01*
X041583Y016330D02*
X041419Y016398D01*
X041241Y016398D01*
X041077Y016330D01*
X040951Y016205D01*
X040883Y016040D01*
X040883Y015863D01*
X040951Y015698D01*
X041077Y015573D01*
X041241Y015505D01*
X041419Y015505D01*
X041583Y015573D01*
X041709Y015698D01*
X041777Y015863D01*
X041777Y016040D01*
X041709Y016205D01*
X041583Y016330D01*
X041708Y016205D02*
X042250Y016205D01*
X042250Y016107D02*
X041749Y016107D01*
X041777Y016008D02*
X042250Y016008D01*
X042250Y015910D02*
X041777Y015910D01*
X041756Y015811D02*
X042250Y015811D01*
X042250Y015713D02*
X041715Y015713D01*
X041625Y015614D02*
X042250Y015614D01*
X042250Y015516D02*
X041445Y015516D01*
X041215Y015516D02*
X040939Y015516D01*
X040939Y015417D02*
X042250Y015417D01*
X042250Y015319D02*
X040929Y015319D01*
X040888Y015220D02*
X042250Y015220D01*
X042250Y015122D02*
X040846Y015122D01*
X041318Y014567D02*
X040275Y014567D01*
X040317Y014550D01*
X040448Y014419D01*
X040519Y014248D01*
X040519Y014063D01*
X040448Y013892D01*
X040317Y013762D01*
X040146Y013691D01*
X039961Y013691D01*
X039870Y013729D01*
X039870Y011709D01*
X039759Y011597D01*
X037087Y008926D01*
X037137Y008926D01*
X037244Y008882D01*
X037325Y008801D01*
X037369Y008695D01*
X037369Y008580D01*
X037325Y008474D01*
X037244Y008393D01*
X037137Y008349D01*
X037023Y008349D01*
X036991Y008362D01*
X036975Y008324D01*
X036894Y008243D01*
X036787Y008199D01*
X036673Y008199D01*
X036603Y008227D01*
X036603Y008221D01*
X036780Y008045D01*
X036780Y007326D01*
X036887Y007326D01*
X036994Y007282D01*
X037075Y007201D01*
X037119Y007095D01*
X037119Y006980D01*
X037075Y006874D01*
X036994Y006793D01*
X036920Y006762D01*
X036920Y005827D01*
X036942Y005827D01*
X036941Y005830D01*
X036941Y005945D01*
X036985Y006051D01*
X037066Y006132D01*
X037173Y006176D01*
X037287Y006176D01*
X037394Y006132D01*
X037438Y006087D01*
X037722Y006087D01*
X037766Y006132D01*
X037873Y006176D01*
X037987Y006176D01*
X038094Y006132D01*
X038175Y006051D01*
X038219Y005945D01*
X038219Y005830D01*
X038175Y005724D01*
X038094Y005643D01*
X037987Y005599D01*
X037937Y005599D01*
X038810Y004726D01*
X038887Y004726D01*
X038994Y004682D01*
X039075Y004601D01*
X039119Y004495D01*
X039119Y004380D01*
X039075Y004274D01*
X038994Y004193D01*
X038887Y004149D01*
X038773Y004149D01*
X038666Y004193D01*
X038585Y004274D01*
X038541Y004380D01*
X038541Y004457D01*
X037551Y005447D01*
X036869Y005447D01*
X036869Y005380D01*
X036825Y005274D01*
X036744Y005193D01*
X036707Y005177D01*
X036912Y005177D01*
X036966Y005232D01*
X037073Y005276D01*
X037187Y005276D01*
X037294Y005232D01*
X037375Y005151D01*
X037419Y005045D01*
X037419Y004930D01*
X037375Y004824D01*
X037294Y004743D01*
X037187Y004699D01*
X037073Y004699D01*
X036966Y004743D01*
X036912Y004797D01*
X036548Y004797D01*
X036494Y004743D01*
X036387Y004699D01*
X036310Y004699D01*
X036159Y004547D01*
X035203Y004547D01*
X035524Y004226D01*
X035587Y004226D01*
X035694Y004182D01*
X035775Y004101D01*
X035819Y003995D01*
X035819Y003880D01*
X035775Y003774D01*
X035694Y003693D01*
X035587Y003649D01*
X035473Y003649D01*
X035366Y003693D01*
X035285Y003774D01*
X035241Y003880D01*
X035241Y003943D01*
X034797Y004387D01*
X034719Y004387D01*
X034719Y004280D01*
X034675Y004174D01*
X034620Y004119D01*
X034620Y004109D01*
X034009Y003497D01*
X031548Y003497D01*
X031494Y003443D01*
X031387Y003399D01*
X031273Y003399D01*
X031166Y003443D01*
X031085Y003524D01*
X031071Y003559D01*
X030719Y003207D01*
X038426Y003207D01*
X038498Y003237D01*
X040451Y005190D01*
X040527Y005266D01*
X040626Y005307D01*
X041618Y005307D01*
X041710Y005399D01*
X041710Y008386D01*
X041503Y008179D01*
X041209Y008057D01*
X040891Y008057D01*
X040597Y008179D01*
X040372Y008404D01*
X040250Y008698D01*
X040250Y009016D01*
X040372Y009310D01*
X037471Y009310D01*
X037373Y009212D02*
X040331Y009212D01*
X040372Y009310D02*
X040597Y009536D01*
X040891Y009657D01*
X041209Y009657D01*
X041503Y009536D01*
X041710Y009329D01*
X041710Y014175D01*
X041318Y014567D01*
X041355Y014531D02*
X040336Y014531D01*
X040435Y014432D02*
X041453Y014432D01*
X041552Y014334D02*
X040483Y014334D01*
X040519Y014235D02*
X041650Y014235D01*
X041710Y014137D02*
X040519Y014137D01*
X040508Y014038D02*
X041710Y014038D01*
X041710Y013940D02*
X040467Y013940D01*
X040396Y013841D02*
X041710Y013841D01*
X041710Y013743D02*
X040271Y013743D01*
X039870Y013644D02*
X041710Y013644D01*
X041710Y013546D02*
X039870Y013546D01*
X039870Y013447D02*
X041710Y013447D01*
X041710Y013349D02*
X039870Y013349D01*
X039870Y013250D02*
X041710Y013250D01*
X041710Y013152D02*
X039870Y013152D01*
X039870Y013053D02*
X041710Y013053D01*
X041710Y012955D02*
X039870Y012955D01*
X039870Y012856D02*
X041710Y012856D01*
X041710Y012758D02*
X039870Y012758D01*
X039870Y012659D02*
X041710Y012659D01*
X041710Y012561D02*
X039870Y012561D01*
X039870Y012462D02*
X041710Y012462D01*
X041710Y012364D02*
X039870Y012364D01*
X039870Y012265D02*
X041710Y012265D01*
X041710Y012167D02*
X039870Y012167D01*
X039870Y012068D02*
X041710Y012068D01*
X041710Y011970D02*
X039870Y011970D01*
X039870Y011871D02*
X041710Y011871D01*
X041710Y011773D02*
X039870Y011773D01*
X039835Y011674D02*
X041710Y011674D01*
X041710Y011576D02*
X039737Y011576D01*
X039638Y011477D02*
X041710Y011477D01*
X041710Y011379D02*
X039540Y011379D01*
X039441Y011280D02*
X041710Y011280D01*
X041710Y011182D02*
X039343Y011182D01*
X039244Y011083D02*
X041710Y011083D01*
X041710Y010985D02*
X039146Y010985D01*
X039047Y010886D02*
X041710Y010886D01*
X041710Y010788D02*
X038949Y010788D01*
X038850Y010689D02*
X041710Y010689D01*
X041710Y010591D02*
X040339Y010591D01*
X040317Y010613D02*
X040146Y010684D01*
X039961Y010684D01*
X039790Y010613D01*
X039659Y010482D01*
X039589Y010311D01*
X039589Y010126D01*
X039659Y009955D01*
X039790Y009825D01*
X039961Y009754D01*
X040146Y009754D01*
X040317Y009825D01*
X040448Y009955D01*
X040519Y010126D01*
X040519Y010311D01*
X040448Y010482D01*
X040317Y010613D01*
X040438Y010492D02*
X041710Y010492D01*
X041710Y010394D02*
X040485Y010394D01*
X040519Y010295D02*
X041710Y010295D01*
X041710Y010197D02*
X040519Y010197D01*
X040507Y010098D02*
X041710Y010098D01*
X041710Y010000D02*
X040466Y010000D01*
X040393Y009901D02*
X041710Y009901D01*
X041710Y009803D02*
X040264Y009803D01*
X039844Y009803D02*
X037964Y009803D01*
X038062Y009901D02*
X039714Y009901D01*
X039641Y010000D02*
X038161Y010000D01*
X038259Y010098D02*
X039600Y010098D01*
X039589Y010197D02*
X038358Y010197D01*
X038456Y010295D02*
X039589Y010295D01*
X039623Y010394D02*
X038555Y010394D01*
X038653Y010492D02*
X039669Y010492D01*
X039768Y010591D02*
X038752Y010591D01*
X038190Y011066D02*
X037875Y010751D01*
X037794Y010832D01*
X037687Y010876D01*
X037573Y010876D01*
X037466Y010832D01*
X037385Y010751D01*
X037369Y010711D01*
X037369Y010745D01*
X037325Y010851D01*
X037244Y010932D01*
X037137Y010976D01*
X037070Y010976D01*
X037070Y011216D01*
X036989Y011297D01*
X037012Y011297D01*
X037066Y011243D01*
X037173Y011199D01*
X037287Y011199D01*
X037394Y011243D01*
X037475Y011324D01*
X037519Y011430D01*
X037519Y011545D01*
X037475Y011651D01*
X037394Y011732D01*
X037287Y011776D01*
X037173Y011776D01*
X037066Y011732D01*
X037012Y011677D01*
X036809Y011677D01*
X036420Y012066D01*
X036309Y012177D01*
X034709Y012177D01*
X034570Y012316D01*
X034570Y012319D01*
X034625Y012374D01*
X034669Y012480D01*
X034669Y012595D01*
X034633Y012682D01*
X034675Y012724D01*
X034719Y012830D01*
X034719Y012945D01*
X034675Y013051D01*
X034594Y013132D01*
X034487Y013176D01*
X034373Y013176D01*
X034266Y013132D01*
X034185Y013051D01*
X034155Y012977D01*
X034151Y012977D01*
X033251Y012077D01*
X033140Y011966D01*
X033140Y011459D01*
X033251Y011347D01*
X033551Y011347D01*
X034340Y010559D01*
X034340Y010559D01*
X034451Y010447D01*
X034701Y010447D01*
X034740Y010409D01*
X034851Y010297D01*
X035312Y010297D01*
X035366Y010243D01*
X035473Y010199D01*
X035587Y010199D01*
X035694Y010243D01*
X035775Y010324D01*
X035819Y010430D01*
X035819Y010545D01*
X035775Y010651D01*
X035694Y010732D01*
X035619Y010763D01*
X035619Y010845D01*
X035575Y010951D01*
X035494Y011032D01*
X035387Y011076D01*
X035310Y011076D01*
X035289Y011097D01*
X035924Y011097D01*
X035983Y011156D01*
X036060Y011156D01*
X036166Y011200D01*
X036247Y011281D01*
X036253Y011295D01*
X036540Y011009D01*
X036540Y010906D01*
X036485Y010851D01*
X036441Y010745D01*
X036441Y010630D01*
X036485Y010524D01*
X036566Y010443D01*
X036673Y010399D01*
X036787Y010399D01*
X036894Y010443D01*
X036905Y010454D01*
X036916Y010443D01*
X037023Y010399D01*
X037137Y010399D01*
X037197Y010423D01*
X036301Y009527D01*
X035568Y009527D01*
X035569Y009530D01*
X035569Y009645D01*
X035525Y009751D01*
X035444Y009832D01*
X035337Y009876D01*
X035223Y009876D01*
X035116Y009832D01*
X035062Y009777D01*
X034198Y009777D01*
X034144Y009832D01*
X034130Y009837D01*
X034169Y009930D01*
X034169Y010007D01*
X034370Y010209D01*
X034370Y010516D01*
X034259Y010627D01*
X034059Y010827D01*
X033301Y010827D01*
X033190Y010716D01*
X033001Y010527D01*
X030470Y010527D01*
X030470Y010716D01*
X029670Y011516D01*
X029670Y011547D01*
X031962Y011547D01*
X032016Y011493D01*
X032123Y011449D01*
X032237Y011449D01*
X032344Y011493D01*
X032425Y011574D01*
X032445Y011622D01*
X032453Y011619D01*
X032567Y011619D01*
X032674Y011663D01*
X032755Y011744D01*
X032799Y011850D01*
X032799Y011965D01*
X032755Y012071D01*
X032674Y012152D01*
X032567Y012196D01*
X032490Y012196D01*
X032220Y012466D01*
X032109Y012577D01*
X030157Y012577D01*
X030194Y012593D01*
X030238Y012637D01*
X032422Y012637D01*
X032466Y012593D01*
X032573Y012549D01*
X032687Y012549D01*
X032794Y012593D01*
X032875Y012674D01*
X032919Y012780D01*
X032919Y012895D01*
X032918Y012897D01*
X034009Y012897D01*
X034359Y013247D01*
X037709Y013247D01*
X038010Y013549D01*
X038087Y013549D01*
X038194Y013593D01*
X038275Y013674D01*
X038319Y013780D01*
X038319Y013895D01*
X038318Y013897D01*
X039251Y013897D01*
X039490Y013659D01*
X039490Y012386D01*
X039444Y012432D01*
X039337Y012476D01*
X039223Y012476D01*
X039116Y012432D01*
X039035Y012351D01*
X038991Y012245D01*
X038991Y012167D01*
X038540Y011716D01*
X038540Y011546D01*
X038419Y011667D01*
X038419Y011745D01*
X038375Y011851D01*
X038294Y011932D01*
X038187Y011976D01*
X038073Y011976D01*
X037966Y011932D01*
X037885Y011851D01*
X037841Y011745D01*
X037841Y011630D01*
X037885Y011524D01*
X037966Y011443D01*
X038073Y011399D01*
X038150Y011399D01*
X038190Y011359D01*
X038190Y011066D01*
X038190Y011083D02*
X037070Y011083D01*
X037070Y010985D02*
X038109Y010985D01*
X038010Y010886D02*
X037290Y010886D01*
X037351Y010788D02*
X037422Y010788D01*
X037838Y010788D02*
X037912Y010788D01*
X037875Y010751D02*
X037875Y010751D01*
X038190Y011182D02*
X037070Y011182D01*
X037029Y011280D02*
X037006Y011280D01*
X037431Y011280D02*
X038190Y011280D01*
X038170Y011379D02*
X037497Y011379D01*
X037519Y011477D02*
X037932Y011477D01*
X037864Y011576D02*
X037506Y011576D01*
X037452Y011674D02*
X037841Y011674D01*
X037853Y011773D02*
X037296Y011773D01*
X037164Y011773D02*
X036713Y011773D01*
X036615Y011871D02*
X037905Y011871D01*
X038057Y011970D02*
X036516Y011970D01*
X036418Y012068D02*
X038892Y012068D01*
X038794Y011970D02*
X038203Y011970D01*
X038355Y011871D02*
X038695Y011871D01*
X038597Y011773D02*
X038407Y011773D01*
X038419Y011674D02*
X038540Y011674D01*
X038540Y011576D02*
X038510Y011576D01*
X038991Y012167D02*
X036319Y012167D01*
X036269Y011280D02*
X036246Y011280D01*
X036367Y011182D02*
X036122Y011182D01*
X036466Y011083D02*
X035303Y011083D01*
X035541Y010985D02*
X036540Y010985D01*
X036520Y010886D02*
X035602Y010886D01*
X035619Y010788D02*
X036459Y010788D01*
X036441Y010689D02*
X035737Y010689D01*
X035800Y010591D02*
X036458Y010591D01*
X036517Y010492D02*
X035819Y010492D01*
X035804Y010394D02*
X037168Y010394D01*
X037069Y010295D02*
X035746Y010295D01*
X035314Y010295D02*
X034370Y010295D01*
X034370Y010394D02*
X034755Y010394D01*
X034407Y010492D02*
X034370Y010492D01*
X034308Y010591D02*
X034295Y010591D01*
X034210Y010689D02*
X034197Y010689D01*
X034111Y010788D02*
X034098Y010788D01*
X034013Y010886D02*
X030300Y010886D01*
X030398Y010788D02*
X033262Y010788D01*
X033163Y010689D02*
X030470Y010689D01*
X030470Y010591D02*
X033065Y010591D01*
X033816Y011083D02*
X030103Y011083D01*
X030201Y010985D02*
X033914Y010985D01*
X033717Y011182D02*
X030004Y011182D01*
X029906Y011280D02*
X033619Y011280D01*
X033220Y011379D02*
X029807Y011379D01*
X029709Y011477D02*
X032054Y011477D01*
X032306Y011477D02*
X033140Y011477D01*
X033140Y011576D02*
X032426Y011576D01*
X032685Y011674D02*
X033140Y011674D01*
X033140Y011773D02*
X032767Y011773D01*
X032799Y011871D02*
X033140Y011871D01*
X033144Y011970D02*
X032797Y011970D01*
X032756Y012068D02*
X033242Y012068D01*
X033341Y012167D02*
X032639Y012167D01*
X032421Y012265D02*
X033439Y012265D01*
X033538Y012364D02*
X032322Y012364D01*
X032224Y012462D02*
X033636Y012462D01*
X033530Y012437D02*
X034330Y013237D01*
X034680Y013237D01*
X034780Y013137D01*
X034673Y013053D02*
X039490Y013053D01*
X039490Y012955D02*
X034715Y012955D01*
X034719Y012856D02*
X039490Y012856D01*
X039490Y012758D02*
X034689Y012758D01*
X034642Y012659D02*
X039490Y012659D01*
X039490Y012561D02*
X034669Y012561D01*
X034661Y012462D02*
X039189Y012462D01*
X039048Y012364D02*
X034615Y012364D01*
X034621Y012265D02*
X039000Y012265D01*
X039371Y012462D02*
X039490Y012462D01*
X039490Y013152D02*
X034547Y013152D01*
X034313Y013152D02*
X034263Y013152D01*
X034187Y013053D02*
X034164Y013053D01*
X034129Y012955D02*
X034066Y012955D01*
X034030Y012856D02*
X032919Y012856D01*
X032909Y012758D02*
X033932Y012758D01*
X033833Y012659D02*
X032860Y012659D01*
X032716Y012561D02*
X033735Y012561D01*
X033530Y012437D02*
X032630Y012437D01*
X032544Y012561D02*
X032125Y012561D01*
X032630Y012837D02*
X030030Y012837D01*
X029901Y013427D02*
X028951Y013427D01*
X028451Y012927D01*
X027969Y012927D01*
X027969Y012995D01*
X027925Y013101D01*
X027844Y013182D01*
X027737Y013226D01*
X027623Y013226D01*
X027516Y013182D01*
X027504Y013170D01*
X027504Y013171D01*
X027363Y013311D01*
X027179Y013387D01*
X026981Y013387D01*
X026797Y013311D01*
X026660Y013174D01*
X026660Y013214D01*
X026572Y013302D01*
X025988Y013302D01*
X025980Y013294D01*
X025972Y013302D01*
X025880Y013302D01*
X025880Y013372D01*
X025972Y013372D01*
X025980Y013380D01*
X025988Y013372D01*
X026572Y013372D01*
X026660Y013460D01*
X026660Y013600D01*
X026797Y013463D01*
X026981Y013387D01*
X027179Y013387D01*
X027363Y013463D01*
X027504Y013604D01*
X027580Y013788D01*
X027580Y013849D01*
X027637Y013849D01*
X027744Y013893D01*
X027825Y013974D01*
X027869Y014080D01*
X027869Y014195D01*
X027825Y014301D01*
X027744Y014382D01*
X027683Y014407D01*
X027713Y014437D01*
X027830Y014554D01*
X027830Y015149D01*
X027887Y015149D01*
X027994Y015193D01*
X028075Y015274D01*
X028119Y015380D01*
X028119Y015495D01*
X028075Y015601D01*
X027994Y015682D01*
X027887Y015726D01*
X027830Y015726D01*
X027830Y015939D01*
X027873Y015896D01*
X028064Y015817D01*
X028271Y015817D01*
X028462Y015896D01*
X028608Y016043D01*
X028687Y016234D01*
X028687Y016441D01*
X028608Y016632D01*
X028462Y016778D01*
X028271Y016857D01*
X028064Y016857D01*
X027873Y016778D01*
X027830Y016735D01*
X027830Y017387D01*
X027923Y017349D01*
X028037Y017349D01*
X028144Y017393D01*
X028225Y017474D01*
X028269Y017580D01*
X028269Y017695D01*
X028225Y017801D01*
X028144Y017882D01*
X028037Y017926D01*
X027923Y017926D01*
X027816Y017882D01*
X027772Y017837D01*
X027647Y017837D01*
X027567Y017758D01*
X027580Y017788D01*
X027580Y017987D01*
X027504Y018171D01*
X027487Y018187D01*
X028455Y018187D01*
X028455Y017975D01*
X028530Y017900D01*
X028530Y017804D01*
X028630Y017704D01*
X028747Y017587D01*
X029563Y017587D01*
X029813Y017837D01*
X034247Y017837D01*
X034530Y017554D01*
X034530Y016496D01*
X034485Y016451D01*
X034441Y016345D01*
X034441Y016230D01*
X034485Y016124D01*
X034566Y016043D01*
X034673Y015999D01*
X034787Y015999D01*
X034894Y016043D01*
X034975Y016124D01*
X035019Y016230D01*
X035019Y016345D01*
X034975Y016451D01*
X034930Y016496D01*
X034930Y017720D01*
X034813Y017837D01*
X034633Y018017D01*
X038018Y018017D01*
X038360Y017675D01*
X038360Y015984D01*
X038401Y015884D01*
X039601Y014684D01*
X039677Y014608D01*
X039776Y014567D01*
X039832Y014567D01*
X039790Y014550D01*
X039659Y014419D01*
X039589Y014248D01*
X039589Y014097D01*
X039520Y014166D01*
X039450Y014236D01*
X039469Y014280D01*
X039469Y014395D01*
X039425Y014501D01*
X039344Y014582D01*
X039237Y014626D01*
X039123Y014626D01*
X039016Y014582D01*
X038935Y014501D01*
X038905Y014427D01*
X037801Y014427D01*
X037301Y013927D01*
X034051Y013927D01*
X033940Y013816D01*
X033940Y013816D01*
X033701Y013577D01*
X030859Y013577D01*
X030770Y013666D01*
X030659Y013777D01*
X030251Y013777D01*
X029901Y013427D01*
X029921Y013447D02*
X027324Y013447D01*
X027273Y013349D02*
X028873Y013349D01*
X028774Y013250D02*
X027424Y013250D01*
X027445Y013546D02*
X030020Y013546D01*
X030118Y013644D02*
X027520Y013644D01*
X027561Y013743D02*
X030217Y013743D01*
X030693Y013743D02*
X033867Y013743D01*
X033965Y013841D02*
X027580Y013841D01*
X027791Y013940D02*
X037314Y013940D01*
X037412Y014038D02*
X027851Y014038D01*
X027869Y014137D02*
X037511Y014137D01*
X037609Y014235D02*
X027852Y014235D01*
X027792Y014334D02*
X037708Y014334D01*
X037425Y014474D02*
X037469Y014580D01*
X037469Y014695D01*
X037425Y014801D01*
X037380Y014846D01*
X037380Y014929D01*
X037425Y014974D01*
X037469Y015080D01*
X037469Y015195D01*
X037425Y015301D01*
X037344Y015382D01*
X037237Y015426D01*
X037123Y015426D01*
X037016Y015382D01*
X036935Y015301D01*
X036891Y015195D01*
X036891Y015080D01*
X036935Y014974D01*
X036980Y014929D01*
X036980Y014846D01*
X036935Y014801D01*
X036891Y014695D01*
X036891Y014580D01*
X036935Y014474D01*
X037016Y014393D01*
X037123Y014349D01*
X037237Y014349D01*
X037344Y014393D01*
X037425Y014474D01*
X037383Y014432D02*
X038907Y014432D01*
X038965Y014531D02*
X037448Y014531D01*
X037469Y014629D02*
X039656Y014629D01*
X039558Y014728D02*
X037455Y014728D01*
X037400Y014826D02*
X039459Y014826D01*
X039361Y014925D02*
X037380Y014925D01*
X037445Y015023D02*
X039262Y015023D01*
X039164Y015122D02*
X037469Y015122D01*
X037458Y015220D02*
X039065Y015220D01*
X038967Y015319D02*
X037407Y015319D01*
X037259Y015417D02*
X038868Y015417D01*
X038770Y015516D02*
X028110Y015516D01*
X028119Y015417D02*
X037101Y015417D01*
X036953Y015319D02*
X028093Y015319D01*
X028021Y015220D02*
X036902Y015220D01*
X036891Y015122D02*
X027830Y015122D01*
X027830Y015023D02*
X036915Y015023D01*
X036980Y014925D02*
X027830Y014925D01*
X027830Y014826D02*
X036960Y014826D01*
X036905Y014728D02*
X027830Y014728D01*
X027830Y014629D02*
X036891Y014629D01*
X036912Y014531D02*
X027806Y014531D01*
X027708Y014432D02*
X036977Y014432D01*
X037180Y014637D02*
X037180Y015137D01*
X038573Y015713D02*
X027920Y015713D01*
X027830Y015811D02*
X038474Y015811D01*
X038391Y015910D02*
X033475Y015910D01*
X033462Y015896D02*
X033608Y016043D01*
X033687Y016234D01*
X033687Y016441D01*
X033608Y016632D01*
X033462Y016778D01*
X033271Y016857D01*
X033064Y016857D01*
X032873Y016778D01*
X032727Y016632D01*
X032648Y016441D01*
X032648Y016234D01*
X032727Y016043D01*
X032873Y015896D01*
X033064Y015817D01*
X033271Y015817D01*
X033462Y015896D01*
X033574Y016008D02*
X034650Y016008D01*
X034810Y016008D02*
X038360Y016008D01*
X038360Y016107D02*
X034958Y016107D01*
X035008Y016205D02*
X038360Y016205D01*
X038360Y016304D02*
X035019Y016304D01*
X034995Y016402D02*
X038360Y016402D01*
X038360Y016501D02*
X034930Y016501D01*
X034930Y016599D02*
X038360Y016599D01*
X038360Y016698D02*
X034930Y016698D01*
X034930Y016796D02*
X038360Y016796D01*
X038360Y016895D02*
X034930Y016895D01*
X034930Y016993D02*
X038360Y016993D01*
X038360Y017092D02*
X034930Y017092D01*
X034930Y017190D02*
X038360Y017190D01*
X038360Y017289D02*
X034930Y017289D01*
X034930Y017387D02*
X038360Y017387D01*
X038360Y017486D02*
X034930Y017486D01*
X034930Y017584D02*
X038360Y017584D01*
X038353Y017683D02*
X034930Y017683D01*
X034869Y017781D02*
X038254Y017781D01*
X038156Y017880D02*
X034771Y017880D01*
X034672Y017978D02*
X038057Y017978D01*
X037462Y019146D02*
X037271Y019067D01*
X037064Y019067D01*
X036873Y019146D01*
X036727Y019293D01*
X036668Y019436D01*
X036608Y019293D01*
X036462Y019146D01*
X036271Y019067D01*
X036064Y019067D01*
X035873Y019146D01*
X035727Y019293D01*
X035648Y019484D01*
X035648Y019691D01*
X035727Y019882D01*
X035873Y020028D01*
X036064Y020107D01*
X036271Y020107D01*
X036462Y020028D01*
X036608Y019882D01*
X036668Y019739D01*
X036727Y019882D01*
X036873Y020028D01*
X037064Y020107D01*
X037271Y020107D01*
X037462Y020028D01*
X037608Y019882D01*
X037687Y019691D01*
X037687Y019484D01*
X037608Y019293D01*
X037462Y019146D01*
X037476Y019160D02*
X038859Y019160D01*
X038873Y019146D02*
X039064Y019067D01*
X039271Y019067D01*
X039462Y019146D01*
X039608Y019293D01*
X039687Y019484D01*
X039687Y019691D01*
X039608Y019882D01*
X039462Y020028D01*
X039271Y020107D01*
X039064Y020107D01*
X038873Y020028D01*
X038727Y019882D01*
X038648Y019691D01*
X038648Y019484D01*
X038727Y019293D01*
X038873Y019146D01*
X038761Y019259D02*
X037574Y019259D01*
X037635Y019357D02*
X038700Y019357D01*
X038659Y019456D02*
X037676Y019456D01*
X037687Y019554D02*
X038648Y019554D01*
X038648Y019653D02*
X037687Y019653D01*
X037663Y019751D02*
X038672Y019751D01*
X038713Y019850D02*
X037622Y019850D01*
X037542Y019948D02*
X038793Y019948D01*
X038917Y020047D02*
X037418Y020047D01*
X036917Y020047D02*
X036418Y020047D01*
X036542Y019948D02*
X036793Y019948D01*
X036713Y019850D02*
X036622Y019850D01*
X036663Y019751D02*
X036672Y019751D01*
X036700Y019357D02*
X036635Y019357D01*
X036574Y019259D02*
X036761Y019259D01*
X036859Y019160D02*
X036476Y019160D01*
X035859Y019160D02*
X034476Y019160D01*
X034574Y019259D02*
X035761Y019259D01*
X035700Y019357D02*
X034635Y019357D01*
X034676Y019456D02*
X035659Y019456D01*
X035648Y019554D02*
X034687Y019554D01*
X034687Y019653D02*
X035648Y019653D01*
X035672Y019751D02*
X034663Y019751D01*
X034622Y019850D02*
X035713Y019850D01*
X035793Y019948D02*
X034542Y019948D01*
X034418Y020047D02*
X035917Y020047D01*
X033917Y020047D02*
X033418Y020047D01*
X033542Y019948D02*
X033793Y019948D01*
X033713Y019850D02*
X033622Y019850D01*
X033663Y019751D02*
X033672Y019751D01*
X033700Y019357D02*
X033635Y019357D01*
X033574Y019259D02*
X033761Y019259D01*
X033859Y019160D02*
X033476Y019160D01*
X034330Y018037D02*
X034730Y017637D01*
X034730Y016287D01*
X034465Y016402D02*
X033687Y016402D01*
X033687Y016304D02*
X034441Y016304D01*
X034452Y016205D02*
X033676Y016205D01*
X033635Y016107D02*
X034502Y016107D01*
X034530Y016501D02*
X033663Y016501D01*
X033622Y016599D02*
X034530Y016599D01*
X034530Y016698D02*
X033543Y016698D01*
X033419Y016796D02*
X034530Y016796D01*
X034530Y016895D02*
X027830Y016895D01*
X027830Y016993D02*
X034530Y016993D01*
X034530Y017092D02*
X027830Y017092D01*
X027830Y017190D02*
X034530Y017190D01*
X034530Y017289D02*
X027830Y017289D01*
X028130Y017387D02*
X034530Y017387D01*
X034530Y017486D02*
X028230Y017486D01*
X028269Y017584D02*
X034500Y017584D01*
X034402Y017683D02*
X029658Y017683D01*
X029757Y017781D02*
X034303Y017781D01*
X034330Y018037D02*
X029730Y018037D01*
X029480Y017787D01*
X028830Y017787D01*
X028730Y017887D01*
X028730Y018287D01*
X028730Y018387D01*
X026780Y018387D01*
X026580Y018187D01*
X026580Y015687D01*
X026080Y015187D01*
X025801Y015319D02*
X022345Y015319D01*
X022363Y015311D02*
X022179Y015387D01*
X022363Y015463D01*
X022504Y015604D01*
X022580Y015788D01*
X022580Y015987D01*
X022504Y016171D01*
X022363Y016311D01*
X022179Y016387D01*
X022363Y016463D01*
X022504Y016604D01*
X022580Y016788D01*
X022580Y016987D01*
X022504Y017171D01*
X022363Y017311D01*
X022179Y017387D01*
X021981Y017387D01*
X021797Y017311D01*
X021656Y017171D01*
X021580Y016987D01*
X021504Y017171D01*
X021363Y017311D01*
X021179Y017387D01*
X020981Y017387D01*
X020797Y017311D01*
X020656Y017171D01*
X020580Y016987D01*
X020580Y016788D01*
X020656Y016604D01*
X020797Y016463D01*
X020981Y016387D01*
X020797Y016311D01*
X020656Y016171D01*
X020580Y015987D01*
X020580Y015788D01*
X020656Y015604D01*
X020797Y015463D01*
X020981Y015387D01*
X020797Y015311D01*
X020656Y015171D01*
X020580Y014987D01*
X020580Y014788D01*
X020656Y014604D01*
X020797Y014463D01*
X020981Y014387D01*
X021179Y014387D01*
X021363Y014463D01*
X021504Y014604D01*
X021580Y014788D01*
X021580Y014987D01*
X021504Y015171D01*
X021363Y015311D01*
X021179Y015387D01*
X020981Y015387D01*
X021179Y015387D01*
X021363Y015463D01*
X021504Y015604D01*
X021580Y015788D01*
X021580Y015987D01*
X021504Y016171D01*
X021363Y016311D01*
X021179Y016387D01*
X020981Y016387D01*
X021179Y016387D01*
X021363Y016463D01*
X021504Y016604D01*
X021580Y016788D01*
X021580Y016987D01*
X021580Y016788D01*
X021656Y016604D01*
X021797Y016463D01*
X021981Y016387D01*
X022179Y016387D01*
X021981Y016387D01*
X021797Y016311D01*
X021656Y016171D01*
X021580Y015987D01*
X021580Y015788D01*
X021656Y015604D01*
X021797Y015463D01*
X021981Y015387D01*
X022179Y015387D01*
X021981Y015387D01*
X021797Y015311D01*
X021656Y015171D01*
X021580Y014987D01*
X021580Y014788D01*
X021656Y014604D01*
X021797Y014463D01*
X021981Y014387D01*
X022179Y014387D01*
X022363Y014463D01*
X022504Y014604D01*
X022580Y014788D01*
X022580Y014987D01*
X022504Y015171D01*
X022363Y015311D01*
X022454Y015220D02*
X025772Y015220D01*
X025773Y015122D02*
X022524Y015122D01*
X022565Y015023D02*
X025814Y015023D01*
X025908Y014925D02*
X022580Y014925D01*
X022580Y014826D02*
X026580Y014826D01*
X026580Y014925D02*
X026252Y014925D01*
X026346Y015023D02*
X026595Y015023D01*
X026636Y015122D02*
X026387Y015122D01*
X026396Y015220D02*
X026706Y015220D01*
X026815Y015319D02*
X026494Y015319D01*
X026593Y015417D02*
X026870Y015417D01*
X026745Y015516D02*
X026691Y015516D01*
X026322Y015713D02*
X022549Y015713D01*
X022580Y015811D02*
X026380Y015811D01*
X026380Y015910D02*
X022580Y015910D01*
X022571Y016008D02*
X026380Y016008D01*
X026380Y016107D02*
X022530Y016107D01*
X022469Y016205D02*
X026380Y016205D01*
X026380Y016304D02*
X022371Y016304D01*
X022215Y016402D02*
X026380Y016402D01*
X026380Y016501D02*
X022400Y016501D01*
X022499Y016599D02*
X026380Y016599D01*
X026380Y016698D02*
X022543Y016698D01*
X022580Y016796D02*
X026380Y016796D01*
X026380Y016895D02*
X022580Y016895D01*
X022577Y016993D02*
X026380Y016993D01*
X026380Y017092D02*
X022537Y017092D01*
X022484Y017190D02*
X026380Y017190D01*
X026380Y017289D02*
X022386Y017289D01*
X022180Y017387D02*
X026380Y017387D01*
X026380Y017486D02*
X021385Y017486D01*
X021363Y017463D02*
X021504Y017604D01*
X021580Y017788D01*
X021580Y017987D01*
X021504Y018171D01*
X021363Y018311D01*
X021179Y018387D01*
X020981Y018387D01*
X020797Y018311D01*
X020656Y018171D01*
X020580Y017987D01*
X020580Y017788D01*
X020656Y017604D01*
X020797Y017463D01*
X020981Y017387D01*
X021179Y017387D01*
X021363Y017463D01*
X021484Y017584D02*
X026380Y017584D01*
X026380Y017683D02*
X021536Y017683D01*
X021577Y017781D02*
X026380Y017781D01*
X026380Y017880D02*
X021580Y017880D01*
X021580Y017978D02*
X026380Y017978D01*
X026380Y018077D02*
X021543Y018077D01*
X021499Y018175D02*
X026380Y018175D01*
X026383Y018274D02*
X021401Y018274D01*
X021216Y018372D02*
X026482Y018372D01*
X026497Y018387D02*
X026497Y018387D01*
X026580Y018470D02*
X026580Y018470D01*
X026580Y018471D02*
X002985Y018471D01*
X002985Y018569D02*
X026679Y018569D01*
X026827Y018867D02*
X027033Y018867D01*
X027225Y018946D01*
X027371Y019093D01*
X027450Y019284D01*
X027450Y019491D01*
X027371Y019682D01*
X027225Y019828D01*
X027033Y019907D01*
X026827Y019907D01*
X026635Y019828D01*
X026489Y019682D01*
X026450Y019587D01*
X026450Y019591D01*
X026371Y019782D01*
X026225Y019928D01*
X026033Y020007D01*
X025827Y020007D01*
X025635Y019928D01*
X025489Y019782D01*
X025410Y019591D01*
X025410Y019587D01*
X025371Y019682D01*
X025225Y019828D01*
X025033Y019907D01*
X024827Y019907D01*
X024635Y019828D01*
X024489Y019682D01*
X024450Y019587D01*
X024450Y019919D01*
X024362Y020007D01*
X023498Y020007D01*
X023410Y019919D01*
X023410Y019055D01*
X023498Y018967D01*
X024362Y018967D01*
X024450Y019055D01*
X024450Y019187D01*
X024489Y019093D01*
X024635Y018946D01*
X024827Y018867D01*
X025033Y018867D01*
X025225Y018946D01*
X025371Y019093D01*
X025450Y019284D01*
X025450Y019287D01*
X025489Y019193D01*
X025635Y019046D01*
X025827Y018967D01*
X026033Y018967D01*
X026225Y019046D01*
X026371Y019193D01*
X026410Y019287D01*
X026410Y019284D01*
X026489Y019093D01*
X026635Y018946D01*
X026827Y018867D01*
X026619Y018963D02*
X025241Y018963D01*
X025340Y019062D02*
X025620Y019062D01*
X025522Y019160D02*
X025399Y019160D01*
X025440Y019259D02*
X025462Y019259D01*
X024619Y018963D02*
X021241Y018963D01*
X021225Y018946D02*
X021371Y019093D01*
X021450Y019284D01*
X021450Y019491D01*
X021371Y019682D01*
X021225Y019828D01*
X021033Y019907D01*
X020827Y019907D01*
X020635Y019828D01*
X020489Y019682D01*
X020450Y019587D01*
X020450Y019591D01*
X020371Y019782D01*
X020225Y019928D01*
X020033Y020007D01*
X019827Y020007D01*
X019635Y019928D01*
X019489Y019782D01*
X019410Y019591D01*
X019410Y019587D01*
X019371Y019682D01*
X019225Y019828D01*
X019033Y019907D01*
X018827Y019907D01*
X018635Y019828D01*
X018489Y019682D01*
X018450Y019587D01*
X018450Y019919D01*
X018362Y020007D01*
X017498Y020007D01*
X017410Y019919D01*
X017410Y019055D01*
X017498Y018967D01*
X018362Y018967D01*
X018450Y019055D01*
X018450Y019187D01*
X018489Y019093D01*
X018635Y018946D01*
X018827Y018867D01*
X019033Y018867D01*
X019225Y018946D01*
X019371Y019093D01*
X019450Y019284D01*
X019450Y019287D01*
X019489Y019193D01*
X019635Y019046D01*
X019827Y018967D01*
X020033Y018967D01*
X020225Y019046D01*
X020371Y019193D01*
X020410Y019287D01*
X020410Y019284D01*
X020489Y019093D01*
X020635Y018946D01*
X020827Y018867D01*
X021033Y018867D01*
X021225Y018946D01*
X021340Y019062D02*
X023410Y019062D01*
X023410Y019160D02*
X021399Y019160D01*
X021440Y019259D02*
X023410Y019259D01*
X023410Y019357D02*
X021450Y019357D01*
X021450Y019456D02*
X023410Y019456D01*
X023410Y019554D02*
X021424Y019554D01*
X021383Y019653D02*
X023410Y019653D01*
X023410Y019751D02*
X021302Y019751D01*
X021173Y019850D02*
X023410Y019850D01*
X023439Y019948D02*
X020176Y019948D01*
X020303Y019850D02*
X020687Y019850D01*
X020558Y019751D02*
X020384Y019751D01*
X020424Y019653D02*
X020477Y019653D01*
X020420Y019259D02*
X020398Y019259D01*
X020338Y019160D02*
X020461Y019160D01*
X020520Y019062D02*
X020240Y019062D01*
X020619Y018963D02*
X019241Y018963D01*
X019340Y019062D02*
X019620Y019062D01*
X019522Y019160D02*
X019399Y019160D01*
X019440Y019259D02*
X019462Y019259D01*
X018619Y018963D02*
X015241Y018963D01*
X015225Y018946D02*
X015371Y019093D01*
X015450Y019284D01*
X015450Y019491D01*
X015371Y019682D01*
X015225Y019828D01*
X015033Y019907D01*
X014827Y019907D01*
X014635Y019828D01*
X014489Y019682D01*
X014450Y019587D01*
X014450Y019591D01*
X014371Y019782D01*
X014225Y019928D01*
X014033Y020007D01*
X013827Y020007D01*
X013635Y019928D01*
X013489Y019782D01*
X013410Y019591D01*
X013410Y019587D01*
X013371Y019682D01*
X013225Y019828D01*
X013033Y019907D01*
X012827Y019907D01*
X012635Y019828D01*
X012489Y019682D01*
X012450Y019587D01*
X012450Y019919D01*
X012362Y020007D01*
X011498Y020007D01*
X011410Y019919D01*
X011410Y019055D01*
X011498Y018967D01*
X012362Y018967D01*
X012450Y019055D01*
X012450Y019187D01*
X012489Y019093D01*
X012635Y018946D01*
X012827Y018867D01*
X013033Y018867D01*
X013225Y018946D01*
X013371Y019093D01*
X013450Y019284D01*
X013450Y019287D01*
X013489Y019193D01*
X013635Y019046D01*
X013827Y018967D01*
X014033Y018967D01*
X014225Y019046D01*
X014371Y019193D01*
X014410Y019287D01*
X014410Y019284D01*
X014489Y019093D01*
X014635Y018946D01*
X014827Y018867D01*
X015033Y018867D01*
X015225Y018946D01*
X015340Y019062D02*
X017410Y019062D01*
X017410Y019160D02*
X015399Y019160D01*
X015440Y019259D02*
X017410Y019259D01*
X017410Y019357D02*
X015450Y019357D01*
X015450Y019456D02*
X017410Y019456D01*
X017410Y019554D02*
X015424Y019554D01*
X015383Y019653D02*
X017410Y019653D01*
X017410Y019751D02*
X015302Y019751D01*
X015173Y019850D02*
X017410Y019850D01*
X017439Y019948D02*
X014176Y019948D01*
X014303Y019850D02*
X014687Y019850D01*
X014558Y019751D02*
X014384Y019751D01*
X014424Y019653D02*
X014477Y019653D01*
X014420Y019259D02*
X014398Y019259D01*
X014338Y019160D02*
X014461Y019160D01*
X014520Y019062D02*
X014240Y019062D01*
X014619Y018963D02*
X013241Y018963D01*
X013340Y019062D02*
X013620Y019062D01*
X013522Y019160D02*
X013399Y019160D01*
X013440Y019259D02*
X013462Y019259D01*
X012619Y018963D02*
X009241Y018963D01*
X009340Y019062D02*
X011410Y019062D01*
X011410Y019160D02*
X009399Y019160D01*
X009440Y019259D02*
X011410Y019259D01*
X011410Y019357D02*
X009450Y019357D01*
X009450Y019456D02*
X011410Y019456D01*
X011410Y019554D02*
X009424Y019554D01*
X009383Y019653D02*
X011410Y019653D01*
X011410Y019751D02*
X009302Y019751D01*
X009173Y019850D02*
X011410Y019850D01*
X011439Y019948D02*
X008176Y019948D01*
X008303Y019850D02*
X008687Y019850D01*
X008558Y019751D02*
X008384Y019751D01*
X008424Y019653D02*
X008477Y019653D01*
X008420Y019259D02*
X008398Y019259D01*
X008338Y019160D02*
X008461Y019160D01*
X008520Y019062D02*
X008240Y019062D01*
X008619Y018963D02*
X007241Y018963D01*
X007340Y019062D02*
X007620Y019062D01*
X007522Y019160D02*
X007399Y019160D01*
X007440Y019259D02*
X007462Y019259D01*
X007436Y019653D02*
X007383Y019653D01*
X007302Y019751D02*
X007476Y019751D01*
X007557Y019850D02*
X007173Y019850D01*
X006687Y019850D02*
X006450Y019850D01*
X006450Y019751D02*
X006558Y019751D01*
X006477Y019653D02*
X006450Y019653D01*
X006421Y019948D02*
X007684Y019948D01*
X006461Y019160D02*
X006450Y019160D01*
X006450Y019062D02*
X006520Y019062D01*
X006619Y018963D02*
X002985Y018963D01*
X002985Y018865D02*
X028607Y018865D01*
X028509Y018963D02*
X027241Y018963D01*
X027340Y019062D02*
X028410Y019062D01*
X028706Y018766D02*
X002985Y018766D01*
X002985Y018668D02*
X028523Y018668D01*
X029080Y018675D02*
X028168Y019587D01*
X028542Y019948D02*
X029551Y019948D01*
X028976Y019062D02*
X042250Y019062D01*
X042250Y019160D02*
X039476Y019160D01*
X039574Y019259D02*
X042250Y019259D01*
X042250Y019357D02*
X039635Y019357D01*
X039676Y019456D02*
X042250Y019456D01*
X042250Y019554D02*
X039687Y019554D01*
X039687Y019653D02*
X042250Y019653D01*
X042250Y019751D02*
X039663Y019751D01*
X039622Y019850D02*
X042249Y019850D01*
X042236Y019948D02*
X039542Y019948D01*
X039418Y020047D02*
X042204Y020047D01*
X042450Y019835D02*
X042450Y001429D01*
X042250Y001430D02*
X040057Y001430D01*
X040098Y001529D02*
X042250Y001529D01*
X042250Y001627D02*
X040100Y001627D01*
X040100Y001726D02*
X042250Y001726D01*
X042250Y001824D02*
X040065Y001824D01*
X040025Y001923D02*
X042250Y001923D01*
X042250Y002021D02*
X039932Y002021D01*
X039775Y002120D02*
X042250Y002120D01*
X042250Y002218D02*
X038778Y002218D01*
X038933Y002120D02*
X039385Y002120D01*
X039228Y002021D02*
X039025Y002021D01*
X039066Y001923D02*
X039135Y001923D01*
X038580Y001737D02*
X038580Y001437D01*
X038280Y001137D01*
X036880Y001137D01*
X036580Y001437D01*
X036580Y001737D01*
X037030Y002187D01*
X037030Y002537D01*
X036815Y002317D02*
X029238Y002317D01*
X029238Y002349D02*
X029191Y002462D01*
X029105Y002549D01*
X028991Y002596D01*
X028869Y002596D01*
X028755Y002549D01*
X028694Y002487D01*
X026847Y002487D01*
X026730Y002370D01*
X026643Y002283D01*
X026583Y002307D01*
X026377Y002307D01*
X026185Y002228D01*
X026039Y002082D01*
X025960Y001891D01*
X025960Y001684D01*
X026039Y001493D01*
X026185Y001346D01*
X026377Y001267D01*
X026583Y001267D01*
X026775Y001346D01*
X026921Y001493D01*
X026980Y001636D01*
X027039Y001493D01*
X027185Y001346D01*
X027377Y001267D01*
X027583Y001267D01*
X027775Y001346D01*
X027921Y001493D01*
X027980Y001636D01*
X028039Y001493D01*
X028185Y001346D01*
X028377Y001267D01*
X028583Y001267D01*
X028775Y001346D01*
X028921Y001493D01*
X028980Y001636D01*
X029039Y001493D01*
X029185Y001346D01*
X029377Y001267D01*
X029583Y001267D01*
X029775Y001346D01*
X029921Y001493D01*
X030000Y001684D01*
X030000Y001891D01*
X029921Y002082D01*
X029775Y002228D01*
X029583Y002307D01*
X029377Y002307D01*
X029238Y002250D01*
X029238Y002349D01*
X029211Y002415D02*
X036747Y002415D01*
X036722Y002514D02*
X029140Y002514D01*
X028930Y002287D02*
X026930Y002287D01*
X026480Y001837D01*
X026480Y001787D01*
X026014Y002021D02*
X023780Y002021D01*
X023780Y001923D02*
X025973Y001923D01*
X025960Y001824D02*
X023780Y001824D01*
X023780Y001726D02*
X025960Y001726D01*
X025984Y001627D02*
X023780Y001627D01*
X023780Y001529D02*
X026024Y001529D01*
X026102Y001430D02*
X023780Y001430D01*
X023780Y001332D02*
X026222Y001332D01*
X026738Y001332D02*
X027222Y001332D01*
X027102Y001430D02*
X026858Y001430D01*
X026936Y001529D02*
X027024Y001529D01*
X026984Y001627D02*
X026976Y001627D01*
X027738Y001332D02*
X028222Y001332D01*
X028102Y001430D02*
X027858Y001430D01*
X027936Y001529D02*
X028024Y001529D01*
X027984Y001627D02*
X027976Y001627D01*
X028738Y001332D02*
X029222Y001332D01*
X029102Y001430D02*
X028858Y001430D01*
X028936Y001529D02*
X029024Y001529D01*
X028984Y001627D02*
X028976Y001627D01*
X029738Y001332D02*
X036060Y001332D01*
X036060Y001430D02*
X029858Y001430D01*
X029936Y001529D02*
X036060Y001529D01*
X036060Y001627D02*
X029976Y001627D01*
X030000Y001726D02*
X036060Y001726D01*
X036060Y001824D02*
X030000Y001824D01*
X029987Y001923D02*
X036060Y001923D01*
X036060Y002021D02*
X029946Y002021D01*
X029883Y002120D02*
X036060Y002120D01*
X036109Y002218D02*
X029785Y002218D01*
X028720Y002514D02*
X023780Y002514D01*
X023780Y002612D02*
X036727Y002612D01*
X037619Y002317D02*
X042250Y002317D01*
X042250Y002415D02*
X038927Y002415D01*
X039065Y002514D02*
X042250Y002514D01*
X042250Y002612D02*
X039111Y002612D01*
X039119Y002711D02*
X042250Y002711D01*
X042250Y002809D02*
X039092Y002809D01*
X039018Y002908D02*
X042250Y002908D01*
X042250Y003006D02*
X039031Y003006D01*
X039129Y003105D02*
X042250Y003105D01*
X042250Y003203D02*
X039228Y003203D01*
X039326Y003302D02*
X042250Y003302D01*
X042250Y003400D02*
X041409Y003400D01*
X041563Y003499D02*
X042250Y003499D01*
X042250Y003597D02*
X041661Y003597D01*
X041741Y003696D02*
X042250Y003696D01*
X042250Y003794D02*
X041782Y003794D01*
X041823Y003893D02*
X042250Y003893D01*
X042250Y003991D02*
X041850Y003991D01*
X041850Y004090D02*
X042250Y004090D01*
X042250Y004188D02*
X041850Y004188D01*
X041846Y004287D02*
X042250Y004287D01*
X042250Y004385D02*
X041805Y004385D01*
X041764Y004484D02*
X042250Y004484D01*
X042250Y004582D02*
X041717Y004582D01*
X041618Y004681D02*
X042250Y004681D01*
X042250Y004779D02*
X041812Y004779D01*
X041952Y004878D02*
X042250Y004878D01*
X042250Y004976D02*
X042051Y004976D01*
X042149Y005075D02*
X042250Y005075D01*
X042250Y005173D02*
X042225Y005173D01*
X042250Y005272D02*
X042250Y005272D01*
X042250Y005370D02*
X042250Y005370D01*
X042250Y005469D02*
X042250Y005469D01*
X042250Y005567D02*
X042250Y005567D01*
X042250Y005666D02*
X042250Y005666D01*
X042250Y005764D02*
X042250Y005764D01*
X042250Y005863D02*
X042250Y005863D01*
X042250Y005961D02*
X042250Y005961D01*
X042250Y006060D02*
X042250Y006060D01*
X042250Y006158D02*
X042250Y006158D01*
X042250Y006257D02*
X042250Y006257D01*
X042250Y006355D02*
X042250Y006355D01*
X042250Y006454D02*
X042250Y006454D01*
X042250Y006552D02*
X042250Y006552D01*
X042250Y006651D02*
X042250Y006651D01*
X042250Y006749D02*
X042250Y006749D01*
X042250Y006848D02*
X042250Y006848D01*
X042250Y006946D02*
X042250Y006946D01*
X042250Y007045D02*
X042250Y007045D01*
X042250Y007143D02*
X042250Y007143D01*
X042250Y007242D02*
X042250Y007242D01*
X042250Y007340D02*
X042250Y007340D01*
X042250Y007439D02*
X042250Y007439D01*
X042250Y007537D02*
X042250Y007537D01*
X042250Y007636D02*
X042250Y007636D01*
X042250Y007734D02*
X042250Y007734D01*
X042250Y007833D02*
X042250Y007833D01*
X042250Y007931D02*
X042250Y007931D01*
X042250Y008030D02*
X042250Y008030D01*
X042250Y008128D02*
X042250Y008128D01*
X042250Y008227D02*
X042250Y008227D01*
X042250Y008325D02*
X042250Y008325D01*
X042250Y008424D02*
X042250Y008424D01*
X042250Y008522D02*
X042250Y008522D01*
X042250Y008621D02*
X042250Y008621D01*
X042250Y008719D02*
X042250Y008719D01*
X042250Y008818D02*
X042250Y008818D01*
X042250Y008916D02*
X042250Y008916D01*
X042250Y009015D02*
X042250Y009015D01*
X042250Y009113D02*
X042250Y009113D01*
X042250Y009212D02*
X042250Y009212D01*
X042250Y009310D02*
X042250Y009310D01*
X042250Y009409D02*
X042250Y009409D01*
X042250Y009507D02*
X042250Y009507D01*
X042250Y009606D02*
X042250Y009606D01*
X042250Y009704D02*
X042250Y009704D01*
X042250Y009803D02*
X042250Y009803D01*
X042250Y009901D02*
X042250Y009901D01*
X042250Y010000D02*
X042250Y010000D01*
X042250Y010098D02*
X042250Y010098D01*
X042250Y010197D02*
X042250Y010197D01*
X042250Y010295D02*
X042250Y010295D01*
X042250Y010394D02*
X042250Y010394D01*
X042250Y010492D02*
X042250Y010492D01*
X042250Y010591D02*
X042250Y010591D01*
X042250Y010689D02*
X042250Y010689D01*
X042250Y010788D02*
X042250Y010788D01*
X042250Y010886D02*
X042250Y010886D01*
X042250Y010985D02*
X042250Y010985D01*
X042250Y011083D02*
X042250Y011083D01*
X042250Y011182D02*
X042250Y011182D01*
X042250Y011280D02*
X042250Y011280D01*
X042250Y011379D02*
X042250Y011379D01*
X042250Y011477D02*
X042250Y011477D01*
X042250Y011576D02*
X042250Y011576D01*
X042250Y011674D02*
X042250Y011674D01*
X042250Y011773D02*
X042250Y011773D01*
X042250Y011871D02*
X042250Y011871D01*
X042250Y011970D02*
X042250Y011970D01*
X042250Y012068D02*
X042250Y012068D01*
X042250Y012167D02*
X042250Y012167D01*
X042250Y012265D02*
X042250Y012265D01*
X042250Y012364D02*
X042250Y012364D01*
X042250Y012462D02*
X042250Y012462D01*
X042250Y012561D02*
X042250Y012561D01*
X042250Y012659D02*
X042250Y012659D01*
X042250Y012758D02*
X042250Y012758D01*
X042250Y012856D02*
X042250Y012856D01*
X042250Y012955D02*
X042250Y012955D01*
X042250Y013053D02*
X042250Y013053D01*
X042250Y013152D02*
X042250Y013152D01*
X042250Y013250D02*
X042250Y013250D01*
X042250Y013349D02*
X042250Y013349D01*
X042250Y013447D02*
X042250Y013447D01*
X042250Y013546D02*
X042250Y013546D01*
X042250Y013644D02*
X042250Y013644D01*
X042250Y013743D02*
X042250Y013743D01*
X042250Y013841D02*
X042250Y013841D01*
X042250Y013940D02*
X042250Y013940D01*
X042250Y014038D02*
X042250Y014038D01*
X042250Y014137D02*
X042250Y014137D01*
X042250Y014235D02*
X042250Y014235D01*
X042250Y014334D02*
X042250Y014334D01*
X042250Y014432D02*
X042212Y014432D01*
X042250Y014531D02*
X042119Y014531D01*
X042020Y014629D02*
X042250Y014629D01*
X042250Y014728D02*
X041922Y014728D01*
X041823Y014826D02*
X042250Y014826D01*
X042250Y014925D02*
X041725Y014925D01*
X041626Y015023D02*
X042250Y015023D01*
X041035Y015614D02*
X040923Y015614D01*
X040945Y015713D02*
X040883Y015713D01*
X040904Y015811D02*
X040833Y015811D01*
X040883Y015910D02*
X040734Y015910D01*
X040883Y016008D02*
X040570Y016008D01*
X040911Y016107D02*
X039585Y016107D01*
X039664Y016205D02*
X040952Y016205D01*
X041050Y016304D02*
X039705Y016304D01*
X039460Y016008D02*
X040121Y016008D01*
X039957Y015910D02*
X039140Y015910D01*
X039238Y015811D02*
X039859Y015811D01*
X039809Y015713D02*
X039337Y015713D01*
X039435Y015614D02*
X039768Y015614D01*
X039753Y015516D02*
X039534Y015516D01*
X039632Y015417D02*
X039753Y015417D01*
X039762Y015319D02*
X039731Y015319D01*
X038671Y015614D02*
X028062Y015614D01*
X027830Y015437D02*
X027630Y015637D01*
X027630Y017537D01*
X027730Y017637D01*
X027980Y017637D01*
X028233Y017781D02*
X028553Y017781D01*
X028530Y017880D02*
X028146Y017880D01*
X028269Y017683D02*
X028652Y017683D01*
X028455Y017978D02*
X027580Y017978D01*
X027580Y017880D02*
X027814Y017880D01*
X027591Y017781D02*
X027577Y017781D01*
X027543Y018077D02*
X028455Y018077D01*
X028455Y018175D02*
X027499Y018175D01*
X028680Y018287D02*
X028730Y018287D01*
X029080Y018287D02*
X029080Y018675D01*
X029173Y018865D02*
X042250Y018865D01*
X042250Y018963D02*
X029075Y018963D01*
X029272Y018766D02*
X040126Y018766D01*
X039960Y018668D02*
X029637Y018668D01*
X027859Y019160D02*
X027399Y019160D01*
X027440Y019259D02*
X027761Y019259D01*
X027700Y019357D02*
X027450Y019357D01*
X027450Y019456D02*
X027659Y019456D01*
X027648Y019554D02*
X027424Y019554D01*
X027383Y019653D02*
X027648Y019653D01*
X027672Y019751D02*
X027302Y019751D01*
X027173Y019850D02*
X027509Y019850D01*
X027425Y019948D02*
X026176Y019948D01*
X026303Y019850D02*
X026687Y019850D01*
X026558Y019751D02*
X026384Y019751D01*
X026424Y019653D02*
X026477Y019653D01*
X026420Y019259D02*
X026398Y019259D01*
X026338Y019160D02*
X026461Y019160D01*
X026520Y019062D02*
X026240Y019062D01*
X025436Y019653D02*
X025383Y019653D01*
X025302Y019751D02*
X025476Y019751D01*
X025557Y019850D02*
X025173Y019850D01*
X024687Y019850D02*
X024450Y019850D01*
X024450Y019751D02*
X024558Y019751D01*
X024477Y019653D02*
X024450Y019653D01*
X024421Y019948D02*
X025684Y019948D01*
X024461Y019160D02*
X024450Y019160D01*
X024450Y019062D02*
X024520Y019062D01*
X020944Y018372D02*
X015216Y018372D01*
X015179Y018387D02*
X014981Y018387D01*
X014797Y018311D01*
X014656Y018171D01*
X014580Y017987D01*
X014580Y017788D01*
X014656Y017604D01*
X014797Y017463D01*
X014981Y017387D01*
X014797Y017311D01*
X014656Y017171D01*
X014580Y016987D01*
X014580Y016788D01*
X014656Y016604D01*
X014797Y016463D01*
X014981Y016387D01*
X014797Y016311D01*
X014656Y016171D01*
X014580Y015987D01*
X014580Y015788D01*
X014656Y015604D01*
X014797Y015463D01*
X014981Y015387D01*
X014797Y015311D01*
X014656Y015171D01*
X014580Y014987D01*
X014580Y014788D01*
X014656Y014604D01*
X014797Y014463D01*
X014981Y014387D01*
X015179Y014387D01*
X015363Y014463D01*
X015504Y014604D01*
X015580Y014788D01*
X015580Y014987D01*
X015504Y015171D01*
X015363Y015311D01*
X015179Y015387D01*
X014981Y015387D01*
X015179Y015387D01*
X015363Y015463D01*
X015504Y015604D01*
X015580Y015788D01*
X015580Y015987D01*
X015504Y016171D01*
X015363Y016311D01*
X015179Y016387D01*
X014981Y016387D01*
X015179Y016387D01*
X015363Y016463D01*
X015504Y016604D01*
X015580Y016788D01*
X015580Y016987D01*
X015504Y017171D01*
X015363Y017311D01*
X015179Y017387D01*
X014981Y017387D01*
X015179Y017387D01*
X015363Y017463D01*
X015504Y017604D01*
X015580Y017788D01*
X015580Y017987D01*
X015504Y018171D01*
X015363Y018311D01*
X015179Y018387D01*
X014944Y018372D02*
X009216Y018372D01*
X009401Y018274D02*
X014759Y018274D01*
X014661Y018175D02*
X009499Y018175D01*
X009543Y018077D02*
X014617Y018077D01*
X014580Y017978D02*
X009580Y017978D01*
X009580Y017880D02*
X014580Y017880D01*
X014583Y017781D02*
X009577Y017781D01*
X009536Y017683D02*
X014624Y017683D01*
X014676Y017584D02*
X009484Y017584D01*
X009385Y017486D02*
X014775Y017486D01*
X014774Y017289D02*
X010386Y017289D01*
X010484Y017190D02*
X014676Y017190D01*
X014623Y017092D02*
X010537Y017092D01*
X010577Y016993D02*
X014583Y016993D01*
X014580Y016895D02*
X010580Y016895D01*
X010580Y016796D02*
X014580Y016796D01*
X014617Y016698D02*
X010543Y016698D01*
X010499Y016599D02*
X014661Y016599D01*
X014760Y016501D02*
X010400Y016501D01*
X010371Y016304D02*
X014789Y016304D01*
X014691Y016205D02*
X010469Y016205D01*
X010530Y016107D02*
X014630Y016107D01*
X014589Y016008D02*
X010571Y016008D01*
X010580Y015910D02*
X014580Y015910D01*
X014580Y015811D02*
X010580Y015811D01*
X010549Y015713D02*
X014611Y015713D01*
X014652Y015614D02*
X010508Y015614D01*
X010415Y015516D02*
X014745Y015516D01*
X014909Y015417D02*
X010251Y015417D01*
X010345Y015319D02*
X014815Y015319D01*
X014706Y015220D02*
X010454Y015220D01*
X010524Y015122D02*
X014636Y015122D01*
X014595Y015023D02*
X010565Y015023D01*
X010580Y014925D02*
X014580Y014925D01*
X014580Y014826D02*
X010580Y014826D01*
X010555Y014728D02*
X014605Y014728D01*
X014646Y014629D02*
X010514Y014629D01*
X010430Y014531D02*
X014730Y014531D01*
X014872Y014432D02*
X010288Y014432D01*
X010309Y014334D02*
X014851Y014334D01*
X014721Y014235D02*
X014639Y014235D01*
X015030Y013837D02*
X015080Y013887D01*
X015030Y013837D02*
X014280Y013837D01*
X014285Y013837D02*
X014285Y013842D01*
X014285Y013837D02*
X013680Y013837D01*
X013680Y012837D01*
X014285Y012837D01*
X014285Y012842D01*
X014280Y012837D02*
X015030Y012837D01*
X015080Y012887D01*
X015553Y013053D02*
X015607Y013053D01*
X015580Y012987D02*
X015656Y013171D01*
X015797Y013311D01*
X015981Y013387D01*
X016179Y013387D01*
X016363Y013463D01*
X016504Y013604D01*
X016580Y013788D01*
X016580Y013987D01*
X016504Y014171D01*
X016363Y014311D01*
X016179Y014387D01*
X016363Y014463D01*
X016504Y014604D01*
X016580Y014788D01*
X016580Y014987D01*
X016504Y015171D01*
X016363Y015311D01*
X016179Y015387D01*
X016363Y015463D01*
X016504Y015604D01*
X016580Y015788D01*
X016580Y015987D01*
X016504Y016171D01*
X016363Y016311D01*
X016179Y016387D01*
X016363Y016463D01*
X016504Y016604D01*
X016580Y016788D01*
X016580Y016987D01*
X016504Y017171D01*
X016363Y017311D01*
X016179Y017387D01*
X015981Y017387D01*
X015797Y017311D01*
X015656Y017171D01*
X015580Y016987D01*
X015580Y016788D01*
X015656Y016604D01*
X015797Y016463D01*
X015981Y016387D01*
X016179Y016387D01*
X015981Y016387D01*
X015797Y016311D01*
X015656Y016171D01*
X015580Y015987D01*
X015580Y015788D01*
X015656Y015604D01*
X015797Y015463D01*
X015981Y015387D01*
X016179Y015387D01*
X015981Y015387D01*
X015797Y015311D01*
X015656Y015171D01*
X015580Y014987D01*
X015580Y014788D01*
X015656Y014604D01*
X015797Y014463D01*
X015981Y014387D01*
X016179Y014387D01*
X015981Y014387D01*
X015797Y014311D01*
X015656Y014171D01*
X015580Y013987D01*
X015580Y013788D01*
X015656Y013604D01*
X015797Y013463D01*
X015981Y013387D01*
X016179Y013387D01*
X016363Y013311D01*
X016504Y013171D01*
X016580Y012987D01*
X016580Y012788D01*
X016504Y012604D01*
X016363Y012463D01*
X016179Y012387D01*
X015981Y012387D01*
X015797Y012463D01*
X015656Y012604D01*
X015580Y012788D01*
X015580Y012987D01*
X015580Y012955D02*
X015580Y012955D01*
X015580Y012856D02*
X015580Y012856D01*
X015567Y012758D02*
X015593Y012758D01*
X015633Y012659D02*
X015527Y012659D01*
X015460Y012561D02*
X015700Y012561D01*
X015800Y012462D02*
X015360Y012462D01*
X015237Y012364D02*
X017527Y012364D01*
X017522Y012462D02*
X016360Y012462D01*
X016460Y012561D02*
X017547Y012561D01*
X017616Y012659D02*
X016527Y012659D01*
X016567Y012758D02*
X018380Y012758D01*
X018380Y012856D02*
X016580Y012856D01*
X016580Y012955D02*
X018380Y012955D01*
X018380Y013053D02*
X016553Y013053D01*
X016512Y013152D02*
X018380Y013152D01*
X018380Y013250D02*
X016424Y013250D01*
X016273Y013349D02*
X018380Y013349D01*
X018580Y013437D02*
X018580Y010937D01*
X019400Y010117D01*
X019490Y010277D02*
X018830Y010937D01*
X018830Y013687D01*
X019105Y013546D02*
X019300Y013546D01*
X019300Y013644D02*
X019138Y013644D01*
X019138Y013743D02*
X019300Y013743D01*
X019300Y013841D02*
X019100Y013841D01*
X019014Y013940D02*
X019300Y013940D01*
X019300Y014038D02*
X016559Y014038D01*
X016580Y013940D02*
X018146Y013940D01*
X018060Y013841D02*
X016580Y013841D01*
X016561Y013743D02*
X018022Y013743D01*
X018022Y013644D02*
X016520Y013644D01*
X016445Y013546D02*
X018055Y013546D01*
X018134Y013447D02*
X016324Y013447D01*
X015887Y013349D02*
X015273Y013349D01*
X015179Y013387D02*
X014981Y013387D01*
X014797Y013463D01*
X014660Y013600D01*
X014660Y013460D01*
X014572Y013372D01*
X013988Y013372D01*
X013980Y013380D01*
X013972Y013372D01*
X013880Y013372D01*
X013880Y013302D01*
X013972Y013302D01*
X013980Y013294D01*
X013988Y013302D01*
X014572Y013302D01*
X014660Y013214D01*
X014660Y013174D01*
X014797Y013311D01*
X014981Y013387D01*
X015179Y013387D01*
X015324Y013447D02*
X015836Y013447D01*
X015715Y013546D02*
X015445Y013546D01*
X015520Y013644D02*
X015640Y013644D01*
X015599Y013743D02*
X015561Y013743D01*
X015580Y013841D02*
X015580Y013841D01*
X015580Y013940D02*
X015580Y013940D01*
X015559Y014038D02*
X015601Y014038D01*
X015642Y014137D02*
X015518Y014137D01*
X015439Y014235D02*
X015721Y014235D01*
X015851Y014334D02*
X015309Y014334D01*
X015288Y014432D02*
X015872Y014432D01*
X015730Y014531D02*
X015430Y014531D01*
X015514Y014629D02*
X015646Y014629D01*
X015605Y014728D02*
X015555Y014728D01*
X015580Y014826D02*
X015580Y014826D01*
X015580Y014925D02*
X015580Y014925D01*
X015565Y015023D02*
X015595Y015023D01*
X015636Y015122D02*
X015524Y015122D01*
X015454Y015220D02*
X015706Y015220D01*
X015815Y015319D02*
X015345Y015319D01*
X015251Y015417D02*
X015909Y015417D01*
X015745Y015516D02*
X015415Y015516D01*
X015508Y015614D02*
X015652Y015614D01*
X015611Y015713D02*
X015549Y015713D01*
X015580Y015811D02*
X015580Y015811D01*
X015580Y015910D02*
X015580Y015910D01*
X015571Y016008D02*
X015589Y016008D01*
X015630Y016107D02*
X015530Y016107D01*
X015469Y016205D02*
X015691Y016205D01*
X015789Y016304D02*
X015371Y016304D01*
X015215Y016402D02*
X015945Y016402D01*
X015760Y016501D02*
X015400Y016501D01*
X015499Y016599D02*
X015661Y016599D01*
X015617Y016698D02*
X015543Y016698D01*
X015580Y016796D02*
X015580Y016796D01*
X015580Y016895D02*
X015580Y016895D01*
X015577Y016993D02*
X015583Y016993D01*
X015623Y017092D02*
X015537Y017092D01*
X015484Y017190D02*
X015676Y017190D01*
X015774Y017289D02*
X015386Y017289D01*
X015385Y017486D02*
X020775Y017486D01*
X020676Y017584D02*
X015484Y017584D01*
X015536Y017683D02*
X020624Y017683D01*
X020583Y017781D02*
X015577Y017781D01*
X015580Y017880D02*
X020580Y017880D01*
X020580Y017978D02*
X015580Y017978D01*
X015543Y018077D02*
X020617Y018077D01*
X020661Y018175D02*
X015499Y018175D01*
X015401Y018274D02*
X020759Y018274D01*
X020980Y017387D02*
X016180Y017387D01*
X015980Y017387D02*
X015180Y017387D01*
X014980Y017387D02*
X010180Y017387D01*
X009980Y017387D02*
X009180Y017387D01*
X009179Y017387D02*
X009149Y017387D01*
X009149Y017387D01*
X009179Y017387D01*
X009386Y017289D02*
X009774Y017289D01*
X009676Y017190D02*
X009484Y017190D01*
X009537Y017092D02*
X009623Y017092D01*
X009583Y016993D02*
X009577Y016993D01*
X009580Y016895D02*
X009580Y016895D01*
X009580Y016796D02*
X009580Y016796D01*
X009543Y016698D02*
X009617Y016698D01*
X009661Y016599D02*
X009499Y016599D01*
X009400Y016501D02*
X009760Y016501D01*
X009789Y016304D02*
X009371Y016304D01*
X009469Y016205D02*
X009691Y016205D01*
X009630Y016107D02*
X009530Y016107D01*
X009571Y016008D02*
X009589Y016008D01*
X009580Y015910D02*
X009580Y015910D01*
X009580Y015811D02*
X009580Y015811D01*
X009549Y015713D02*
X009611Y015713D01*
X009652Y015614D02*
X009508Y015614D01*
X009415Y015516D02*
X009745Y015516D01*
X009909Y015417D02*
X009290Y015417D01*
X009345Y015319D02*
X009815Y015319D01*
X009706Y015220D02*
X009454Y015220D01*
X009524Y015122D02*
X009636Y015122D01*
X009595Y015023D02*
X009565Y015023D01*
X009580Y014925D02*
X009580Y014925D01*
X009580Y014826D02*
X009580Y014826D01*
X009555Y014728D02*
X009605Y014728D01*
X009646Y014629D02*
X009514Y014629D01*
X009430Y014531D02*
X009730Y014531D01*
X009872Y014432D02*
X009288Y014432D01*
X009309Y014334D02*
X009851Y014334D01*
X009721Y014235D02*
X009439Y014235D01*
X009518Y014137D02*
X009642Y014137D01*
X009601Y014038D02*
X009559Y014038D01*
X009580Y013940D02*
X009580Y013940D01*
X009580Y013841D02*
X009580Y013841D01*
X009561Y013743D02*
X009599Y013743D01*
X009640Y013644D02*
X009520Y013644D01*
X009445Y013546D02*
X009715Y013546D01*
X009836Y013447D02*
X009324Y013447D01*
X009273Y013349D02*
X009887Y013349D01*
X009736Y013250D02*
X009424Y013250D01*
X009512Y013152D02*
X009648Y013152D01*
X009607Y013053D02*
X009553Y013053D01*
X009580Y012955D02*
X009580Y012955D01*
X009580Y012856D02*
X009580Y012856D01*
X009567Y012758D02*
X009593Y012758D01*
X009633Y012659D02*
X009527Y012659D01*
X009460Y012561D02*
X009700Y012561D01*
X009800Y012462D02*
X009360Y012462D01*
X009237Y012364D02*
X011527Y012364D01*
X011522Y012462D02*
X010360Y012462D01*
X010460Y012561D02*
X011547Y012561D01*
X011616Y012659D02*
X010527Y012659D01*
X010567Y012758D02*
X012380Y012758D01*
X012380Y012856D02*
X010580Y012856D01*
X010580Y012955D02*
X012380Y012955D01*
X012380Y013053D02*
X010553Y013053D01*
X010512Y013152D02*
X012380Y013152D01*
X012380Y013250D02*
X010424Y013250D01*
X010273Y013349D02*
X012380Y013349D01*
X012580Y013437D02*
X012580Y011187D01*
X013650Y010117D01*
X018670Y010117D01*
X019170Y009617D01*
X019240Y009777D02*
X018740Y010277D01*
X013740Y010277D01*
X012830Y011187D01*
X012830Y013687D01*
X013105Y013546D02*
X013300Y013546D01*
X013300Y013644D02*
X013138Y013644D01*
X013138Y013743D02*
X013300Y013743D01*
X013300Y013841D02*
X013100Y013841D01*
X013014Y013940D02*
X013300Y013940D01*
X013300Y014038D02*
X010559Y014038D01*
X010580Y013940D02*
X012146Y013940D01*
X012060Y013841D02*
X010580Y013841D01*
X010561Y013743D02*
X012022Y013743D01*
X012022Y013644D02*
X010520Y013644D01*
X010445Y013546D02*
X012055Y013546D01*
X012134Y013447D02*
X010324Y013447D01*
X009179Y013387D02*
X008981Y013387D01*
X008797Y013463D01*
X008770Y013490D01*
X008770Y013284D01*
X008797Y013311D01*
X008981Y013387D01*
X009179Y013387D01*
X008887Y013349D02*
X008770Y013349D01*
X008770Y013447D02*
X008836Y013447D01*
X007630Y012737D02*
X007630Y011887D01*
X007330Y011487D02*
X007480Y011337D01*
X007330Y011487D02*
X007330Y012687D01*
X006680Y013337D01*
X006680Y013637D01*
X007285Y013637D01*
X007285Y013642D01*
X007280Y013637D02*
X007280Y013087D01*
X007630Y012737D01*
X008770Y012490D02*
X008770Y012284D01*
X008797Y012311D01*
X008981Y012387D01*
X009179Y012387D01*
X008981Y012387D01*
X008797Y012463D01*
X008770Y012490D01*
X008770Y012462D02*
X008800Y012462D01*
X008770Y012364D02*
X008923Y012364D01*
X009409Y012265D02*
X011568Y012265D01*
X011678Y012167D02*
X009506Y012167D01*
X009546Y012068D02*
X011880Y012068D01*
X011880Y011970D02*
X009580Y011970D01*
X009580Y011871D02*
X011828Y011871D01*
X011781Y011773D02*
X009574Y011773D01*
X009533Y011674D02*
X011772Y011674D01*
X011792Y011576D02*
X009475Y011576D01*
X009377Y011477D02*
X011854Y011477D01*
X012080Y011687D02*
X012080Y012187D01*
X011830Y012437D01*
X012113Y012561D02*
X012380Y012561D01*
X012380Y012659D02*
X012044Y012659D01*
X012138Y012462D02*
X012380Y012462D01*
X012380Y012364D02*
X012187Y012364D01*
X012280Y012265D02*
X012380Y012265D01*
X012380Y012167D02*
X012280Y012167D01*
X012280Y012068D02*
X012380Y012068D01*
X012380Y011970D02*
X012280Y011970D01*
X012332Y011871D02*
X012380Y011871D01*
X012379Y011773D02*
X012380Y011773D01*
X012368Y011576D02*
X012380Y011576D01*
X012380Y011477D02*
X012306Y011477D01*
X012380Y011379D02*
X010201Y011379D01*
X010394Y011280D02*
X012380Y011280D01*
X012380Y011182D02*
X010493Y011182D01*
X010540Y011083D02*
X012401Y011083D01*
X012500Y010985D02*
X010580Y010985D01*
X010580Y010886D02*
X012598Y010886D01*
X012697Y010788D02*
X010580Y010788D01*
X010539Y010689D02*
X012795Y010689D01*
X012894Y010591D02*
X011445Y010591D01*
X011544Y010492D02*
X012992Y010492D01*
X013091Y010394D02*
X011642Y010394D01*
X011741Y010295D02*
X013189Y010295D01*
X013288Y010197D02*
X011839Y010197D01*
X011393Y009606D02*
X011385Y009606D01*
X011344Y009507D02*
X011492Y009507D01*
X011251Y009409D02*
X018490Y009409D01*
X018589Y009310D02*
X017865Y009310D01*
X017843Y009332D02*
X017672Y009402D01*
X017488Y009402D01*
X017317Y009332D01*
X017186Y009201D01*
X017115Y009030D01*
X017115Y008845D01*
X017186Y008674D01*
X017317Y008543D01*
X017488Y008472D01*
X017672Y008472D01*
X017843Y008543D01*
X017974Y008674D01*
X018045Y008845D01*
X018045Y009030D01*
X017974Y009201D01*
X017843Y009332D01*
X017963Y009212D02*
X018687Y009212D01*
X018786Y009113D02*
X018011Y009113D01*
X018045Y009015D02*
X018884Y009015D01*
X018045Y008916D02*
X020770Y008916D01*
X020770Y008818D02*
X018034Y008818D01*
X017993Y008719D02*
X020785Y008719D01*
X020826Y008621D02*
X017921Y008621D01*
X017793Y008522D02*
X020915Y008522D01*
X021161Y008424D02*
X011877Y008424D01*
X011778Y008522D02*
X017367Y008522D01*
X017239Y008621D02*
X011680Y008621D01*
X011581Y008719D02*
X017167Y008719D01*
X017126Y008818D02*
X011483Y008818D01*
X011384Y008916D02*
X017115Y008916D01*
X017115Y009015D02*
X011286Y009015D01*
X011187Y009113D02*
X017149Y009113D01*
X017197Y009212D02*
X011089Y009212D01*
X010990Y009310D02*
X017295Y009310D01*
X018830Y010437D02*
X019330Y009937D01*
X019558Y010492D02*
X020768Y010492D01*
X020670Y010591D02*
X019460Y010591D01*
X019361Y010689D02*
X020621Y010689D01*
X020580Y010788D02*
X019263Y010788D01*
X019164Y010886D02*
X020580Y010886D01*
X020580Y010985D02*
X019066Y010985D01*
X019030Y011083D02*
X019298Y011083D01*
X019211Y011182D02*
X019030Y011182D01*
X019030Y011280D02*
X019172Y011280D01*
X019172Y011379D02*
X019030Y011379D01*
X019030Y011477D02*
X019204Y011477D01*
X019282Y011576D02*
X019030Y011576D01*
X019030Y011674D02*
X019300Y011674D01*
X019300Y011773D02*
X019030Y011773D01*
X019030Y011871D02*
X019300Y011871D01*
X019300Y011970D02*
X019030Y011970D01*
X019030Y012068D02*
X019300Y012068D01*
X019300Y012167D02*
X019030Y012167D01*
X019030Y012265D02*
X019351Y012265D01*
X019480Y012364D02*
X019030Y012364D01*
X019030Y012462D02*
X019300Y012462D01*
X019300Y012561D02*
X019030Y012561D01*
X019030Y012659D02*
X019300Y012659D01*
X019300Y012758D02*
X019030Y012758D01*
X019030Y012856D02*
X019300Y012856D01*
X019300Y012955D02*
X019030Y012955D01*
X019030Y013053D02*
X019300Y013053D01*
X019300Y013152D02*
X019030Y013152D01*
X019030Y013250D02*
X019336Y013250D01*
X019480Y013349D02*
X019030Y013349D01*
X019030Y013447D02*
X019313Y013447D01*
X019880Y013372D02*
X019972Y013372D01*
X019980Y013380D01*
X019988Y013372D01*
X020572Y013372D01*
X020660Y013460D01*
X020660Y013600D01*
X020797Y013463D01*
X020981Y013387D01*
X021179Y013387D01*
X020981Y013387D01*
X020797Y013311D01*
X020660Y013174D01*
X020660Y013214D01*
X020572Y013302D01*
X019988Y013302D01*
X019980Y013294D01*
X019972Y013302D01*
X019880Y013302D01*
X019880Y013372D01*
X019880Y013349D02*
X020887Y013349D01*
X020836Y013447D02*
X020647Y013447D01*
X020660Y013546D02*
X020715Y013546D01*
X020736Y013250D02*
X020624Y013250D01*
X021273Y013349D02*
X021887Y013349D01*
X021797Y013311D02*
X021981Y013387D01*
X022179Y013387D01*
X022363Y013463D01*
X022504Y013604D01*
X022580Y013788D01*
X022580Y013987D01*
X022504Y014171D01*
X022363Y014311D01*
X022179Y014387D01*
X021981Y014387D01*
X021797Y014311D01*
X021656Y014171D01*
X021580Y013987D01*
X021580Y013788D01*
X021656Y013604D01*
X021797Y013463D01*
X021981Y013387D01*
X022179Y013387D01*
X022363Y013311D01*
X022504Y013171D01*
X022580Y012987D01*
X022580Y012788D01*
X022504Y012604D01*
X022363Y012463D01*
X022179Y012387D01*
X021981Y012387D01*
X021797Y012463D01*
X021656Y012604D01*
X021580Y012788D01*
X021580Y012987D01*
X021656Y013171D01*
X021797Y013311D01*
X021736Y013250D02*
X021424Y013250D01*
X021512Y013152D02*
X021648Y013152D01*
X021607Y013053D02*
X021553Y013053D01*
X021580Y012955D02*
X021580Y012955D01*
X021580Y012856D02*
X021580Y012856D01*
X021567Y012758D02*
X021593Y012758D01*
X021633Y012659D02*
X021527Y012659D01*
X021460Y012561D02*
X021700Y012561D01*
X021800Y012462D02*
X021360Y012462D01*
X021237Y012364D02*
X023527Y012364D01*
X023522Y012462D02*
X022360Y012462D01*
X022460Y012561D02*
X023547Y012561D01*
X023616Y012659D02*
X022527Y012659D01*
X022567Y012758D02*
X024617Y012758D01*
X024716Y012856D02*
X022580Y012856D01*
X022580Y012955D02*
X024780Y012955D01*
X024780Y013053D02*
X022553Y013053D01*
X022512Y013152D02*
X024780Y013152D01*
X024780Y013250D02*
X022424Y013250D01*
X022273Y013349D02*
X024780Y013349D01*
X024780Y013447D02*
X022324Y013447D01*
X022445Y013546D02*
X024780Y013546D01*
X024780Y013644D02*
X022520Y013644D01*
X022561Y013743D02*
X024780Y013743D01*
X024780Y013841D02*
X022580Y013841D01*
X022580Y013940D02*
X024780Y013940D01*
X024780Y014038D02*
X022559Y014038D01*
X022518Y014137D02*
X024796Y014137D01*
X024895Y014235D02*
X022439Y014235D01*
X022309Y014334D02*
X024993Y014334D01*
X025092Y014432D02*
X022288Y014432D01*
X022430Y014531D02*
X025190Y014531D01*
X025330Y014387D02*
X027380Y014387D01*
X027630Y014637D01*
X027630Y015237D01*
X027830Y015437D01*
X027830Y015910D02*
X027860Y015910D01*
X028475Y015910D02*
X029860Y015910D01*
X029873Y015896D02*
X030064Y015817D01*
X030271Y015817D01*
X030462Y015896D01*
X030608Y016043D01*
X030668Y016186D01*
X030727Y016043D01*
X030873Y015896D01*
X031064Y015817D01*
X031271Y015817D01*
X031462Y015896D01*
X031608Y016043D01*
X031687Y016234D01*
X031687Y016441D01*
X031608Y016632D01*
X031462Y016778D01*
X031271Y016857D01*
X031064Y016857D01*
X030873Y016778D01*
X030727Y016632D01*
X030668Y016489D01*
X030608Y016632D01*
X030462Y016778D01*
X030271Y016857D01*
X030064Y016857D01*
X029873Y016778D01*
X029727Y016632D01*
X029648Y016441D01*
X029648Y016234D01*
X029727Y016043D01*
X029873Y015896D01*
X029761Y016008D02*
X028574Y016008D01*
X028635Y016107D02*
X029700Y016107D01*
X029659Y016205D02*
X028676Y016205D01*
X028687Y016304D02*
X029648Y016304D01*
X029648Y016402D02*
X028687Y016402D01*
X028663Y016501D02*
X029672Y016501D01*
X029713Y016599D02*
X028622Y016599D01*
X028543Y016698D02*
X029792Y016698D01*
X029916Y016796D02*
X028419Y016796D01*
X027916Y016796D02*
X027830Y016796D01*
X026224Y015614D02*
X022508Y015614D01*
X022415Y015516D02*
X026125Y015516D01*
X025874Y015417D02*
X022251Y015417D01*
X021909Y015417D02*
X021251Y015417D01*
X021345Y015319D02*
X021815Y015319D01*
X021706Y015220D02*
X021454Y015220D01*
X021524Y015122D02*
X021636Y015122D01*
X021595Y015023D02*
X021565Y015023D01*
X021580Y014925D02*
X021580Y014925D01*
X021580Y014826D02*
X021580Y014826D01*
X021555Y014728D02*
X021605Y014728D01*
X021646Y014629D02*
X021514Y014629D01*
X021430Y014531D02*
X021730Y014531D01*
X021872Y014432D02*
X021288Y014432D01*
X021309Y014334D02*
X021851Y014334D01*
X021721Y014235D02*
X021439Y014235D01*
X021518Y014137D02*
X021642Y014137D01*
X021601Y014038D02*
X021559Y014038D01*
X021580Y013940D02*
X021580Y013940D01*
X021580Y013841D02*
X021580Y013841D01*
X021561Y013743D02*
X021599Y013743D01*
X021640Y013644D02*
X021520Y013644D01*
X021445Y013546D02*
X021715Y013546D01*
X021836Y013447D02*
X021324Y013447D01*
X021030Y013837D02*
X020280Y013837D01*
X020285Y013837D02*
X020285Y013842D01*
X020285Y013837D02*
X019680Y013837D01*
X019680Y012837D01*
X020285Y012837D01*
X020285Y012842D01*
X020280Y012837D02*
X021030Y012837D01*
X021080Y012887D01*
X020700Y012561D02*
X020660Y012561D01*
X020660Y012462D02*
X020800Y012462D01*
X020923Y012364D02*
X019880Y012364D01*
X019680Y012837D02*
X019680Y011837D01*
X020285Y011837D01*
X020285Y011842D01*
X020280Y011837D02*
X021030Y011837D01*
X021080Y011887D01*
X021546Y012068D02*
X023880Y012068D01*
X023880Y011970D02*
X021580Y011970D01*
X021580Y011871D02*
X023828Y011871D01*
X023781Y011773D02*
X021574Y011773D01*
X021533Y011674D02*
X023772Y011674D01*
X023792Y011576D02*
X021475Y011576D01*
X021377Y011477D02*
X023854Y011477D01*
X024080Y011687D02*
X024080Y012187D01*
X023830Y012437D01*
X024580Y012437D01*
X024980Y012837D01*
X024980Y014037D01*
X025330Y014387D01*
X025300Y014038D02*
X025264Y014038D01*
X025300Y013940D02*
X025180Y013940D01*
X025180Y013841D02*
X025300Y013841D01*
X025300Y013743D02*
X025180Y013743D01*
X025180Y013644D02*
X025300Y013644D01*
X025300Y013546D02*
X025180Y013546D01*
X025180Y013447D02*
X025313Y013447D01*
X025180Y013349D02*
X025480Y013349D01*
X025336Y013250D02*
X025180Y013250D01*
X025180Y013152D02*
X025300Y013152D01*
X025300Y013053D02*
X025180Y013053D01*
X025180Y012955D02*
X025300Y012955D01*
X025300Y012856D02*
X025180Y012856D01*
X025180Y012758D02*
X025300Y012758D01*
X025300Y012659D02*
X025085Y012659D01*
X024986Y012561D02*
X025300Y012561D01*
X025300Y012462D02*
X024888Y012462D01*
X024789Y012364D02*
X025480Y012364D01*
X025351Y012265D02*
X024691Y012265D01*
X024280Y012167D02*
X025300Y012167D01*
X025300Y012068D02*
X024280Y012068D01*
X024280Y011970D02*
X025300Y011970D01*
X025300Y011871D02*
X024332Y011871D01*
X024379Y011773D02*
X025300Y011773D01*
X025300Y011674D02*
X024388Y011674D01*
X024368Y011576D02*
X025282Y011576D01*
X025204Y011477D02*
X024306Y011477D01*
X023580Y011687D02*
X023380Y011887D01*
X022080Y011887D01*
X021506Y012167D02*
X023678Y012167D01*
X023568Y012265D02*
X021409Y012265D01*
X020751Y012265D02*
X020609Y012265D01*
X019680Y011837D02*
X019680Y011537D01*
X019480Y011337D01*
X019749Y011182D02*
X020667Y011182D01*
X020620Y011083D02*
X019662Y011083D01*
X019788Y011280D02*
X020766Y011280D01*
X020783Y011477D02*
X020660Y011477D01*
X020660Y011576D02*
X020685Y011576D01*
X020578Y011379D02*
X020959Y011379D01*
X021201Y011379D02*
X021959Y011379D01*
X021766Y011280D02*
X021394Y011280D01*
X021493Y011182D02*
X021667Y011182D01*
X021620Y011083D02*
X021540Y011083D01*
X021580Y010987D02*
X021580Y010788D01*
X021513Y010627D01*
X021647Y010627D01*
X021580Y010788D01*
X021580Y010987D01*
X021580Y010985D02*
X021580Y010985D01*
X021580Y010886D02*
X021580Y010886D01*
X021580Y010788D02*
X021580Y010788D01*
X021539Y010689D02*
X021621Y010689D01*
X021330Y010437D02*
X021080Y010687D01*
X021080Y010887D01*
X019982Y011379D02*
X019978Y011379D01*
X018545Y010689D02*
X016539Y010689D01*
X016580Y010788D02*
X018447Y010788D01*
X018380Y010886D02*
X016580Y010886D01*
X016580Y010985D02*
X018380Y010985D01*
X018380Y011083D02*
X016540Y011083D01*
X016493Y011182D02*
X018380Y011182D01*
X018380Y011280D02*
X016394Y011280D01*
X016201Y011379D02*
X018380Y011379D01*
X018380Y011477D02*
X018306Y011477D01*
X018368Y011576D02*
X018380Y011576D01*
X018379Y011773D02*
X018380Y011773D01*
X018380Y011871D02*
X018332Y011871D01*
X018380Y011970D02*
X018280Y011970D01*
X018280Y012068D02*
X018380Y012068D01*
X018380Y012167D02*
X018280Y012167D01*
X018280Y012265D02*
X018380Y012265D01*
X018380Y012364D02*
X018187Y012364D01*
X018138Y012462D02*
X018380Y012462D01*
X018380Y012561D02*
X018113Y012561D01*
X018044Y012659D02*
X018380Y012659D01*
X018080Y012187D02*
X017830Y012437D01*
X017568Y012265D02*
X015409Y012265D01*
X015506Y012167D02*
X017678Y012167D01*
X017880Y012068D02*
X015546Y012068D01*
X015580Y011970D02*
X017880Y011970D01*
X017828Y011871D02*
X015580Y011871D01*
X015574Y011773D02*
X017781Y011773D01*
X017772Y011674D02*
X015533Y011674D01*
X015475Y011576D02*
X017792Y011576D01*
X017854Y011477D02*
X015377Y011477D01*
X015394Y011280D02*
X015766Y011280D01*
X015667Y011182D02*
X015493Y011182D01*
X015540Y011083D02*
X015620Y011083D01*
X015580Y010987D02*
X015580Y010788D01*
X015580Y010987D01*
X015580Y010985D02*
X015580Y010985D01*
X015580Y010886D02*
X015580Y010886D01*
X015580Y010788D02*
X015518Y010637D01*
X015642Y010637D01*
X015580Y010788D01*
X015580Y010788D01*
X015539Y010689D02*
X015621Y010689D01*
X015330Y010437D02*
X018830Y010437D01*
X018080Y011687D02*
X018080Y012187D01*
X017580Y011687D02*
X017380Y011887D01*
X016080Y011887D01*
X015959Y011379D02*
X015201Y011379D01*
X014959Y011379D02*
X014578Y011379D01*
X014660Y011477D02*
X014783Y011477D01*
X014685Y011576D02*
X014660Y011576D01*
X015030Y011837D02*
X014280Y011837D01*
X014285Y011837D02*
X014285Y011842D01*
X014285Y011837D02*
X013680Y011837D01*
X013680Y011537D01*
X013480Y011337D01*
X013204Y011477D02*
X013030Y011477D01*
X013030Y011379D02*
X013172Y011379D01*
X013172Y011280D02*
X013030Y011280D01*
X013119Y011182D02*
X013211Y011182D01*
X013217Y011083D02*
X013298Y011083D01*
X013316Y010985D02*
X014580Y010985D01*
X014580Y010886D02*
X013414Y010886D01*
X013513Y010788D02*
X014580Y010788D01*
X014621Y010689D02*
X013611Y010689D01*
X013710Y010591D02*
X014670Y010591D01*
X014768Y010492D02*
X013808Y010492D01*
X013662Y011083D02*
X014620Y011083D01*
X014667Y011182D02*
X013749Y011182D01*
X013788Y011280D02*
X014766Y011280D01*
X013982Y011379D02*
X013978Y011379D01*
X013680Y011837D02*
X013680Y012837D01*
X013300Y012856D02*
X013030Y012856D01*
X013030Y012758D02*
X013300Y012758D01*
X013300Y012659D02*
X013030Y012659D01*
X013030Y012561D02*
X013300Y012561D01*
X013300Y012462D02*
X013030Y012462D01*
X013030Y012364D02*
X013480Y012364D01*
X013351Y012265D02*
X013030Y012265D01*
X013030Y012167D02*
X013300Y012167D01*
X013300Y012068D02*
X013030Y012068D01*
X013030Y011970D02*
X013300Y011970D01*
X013300Y011871D02*
X013030Y011871D01*
X013030Y011773D02*
X013300Y011773D01*
X013300Y011674D02*
X013030Y011674D01*
X013030Y011576D02*
X013282Y011576D01*
X013880Y012364D02*
X014923Y012364D01*
X014800Y012462D02*
X014660Y012462D01*
X014660Y012561D02*
X014700Y012561D01*
X014751Y012265D02*
X014609Y012265D01*
X015030Y011837D02*
X015080Y011887D01*
X015080Y010887D02*
X015080Y010687D01*
X015330Y010437D01*
X011580Y011687D02*
X011380Y011887D01*
X010080Y011887D01*
X009959Y011379D02*
X009201Y011379D01*
X009179Y011387D02*
X008981Y011387D01*
X008797Y011463D01*
X008770Y011490D01*
X008770Y011284D01*
X008797Y011311D01*
X008981Y011387D01*
X009179Y011387D01*
X008959Y011379D02*
X008770Y011379D01*
X008770Y011477D02*
X008783Y011477D01*
X009394Y011280D02*
X009766Y011280D01*
X009667Y011182D02*
X009493Y011182D01*
X009540Y011083D02*
X009620Y011083D01*
X009580Y010987D02*
X009580Y010788D01*
X009580Y010987D01*
X009580Y010985D02*
X009580Y010985D01*
X009580Y010886D02*
X009580Y010886D01*
X009580Y010788D02*
X009518Y010637D01*
X009642Y010637D01*
X009580Y010788D01*
X009580Y010788D01*
X009539Y010689D02*
X009621Y010689D01*
X007902Y010197D02*
X007328Y010197D01*
X007328Y010295D02*
X007804Y010295D01*
X007740Y010394D02*
X007328Y010394D01*
X007328Y010492D02*
X007740Y010492D01*
X007740Y010591D02*
X007328Y010591D01*
X007328Y010689D02*
X007740Y010689D01*
X007740Y010788D02*
X007328Y010788D01*
X007328Y010886D02*
X007740Y010886D01*
X007740Y010985D02*
X007328Y010985D01*
X007662Y011083D02*
X007740Y011083D01*
X006280Y011083D02*
X005836Y011083D01*
X005836Y010985D02*
X006280Y010985D01*
X006280Y010886D02*
X005836Y010886D01*
X005836Y010788D02*
X006280Y010788D01*
X006280Y010689D02*
X005836Y010689D01*
X005836Y010591D02*
X006280Y010591D01*
X006280Y010492D02*
X005836Y010492D01*
X005836Y010394D02*
X006280Y010394D01*
X006280Y010295D02*
X005836Y010295D01*
X005836Y010197D02*
X006280Y010197D01*
X006280Y010098D02*
X006249Y010098D01*
X006280Y010085D02*
X006155Y010137D01*
X005993Y010137D01*
X005843Y010075D01*
X005836Y010068D01*
X005836Y012455D01*
X005795Y012554D01*
X004575Y013775D01*
X004580Y013788D01*
X004580Y013987D01*
X004567Y014019D01*
X006280Y012305D01*
X006280Y010085D01*
X005899Y010098D02*
X005836Y010098D01*
X004810Y010098D02*
X002985Y010098D01*
X002985Y010000D02*
X004810Y010000D01*
X004810Y009901D02*
X002985Y009901D01*
X002985Y009803D02*
X004810Y009803D01*
X004810Y009704D02*
X002985Y009704D01*
X002985Y009606D02*
X004810Y009606D01*
X004810Y009507D02*
X002985Y009507D01*
X002985Y009409D02*
X004810Y009409D01*
X004810Y009310D02*
X002985Y009310D01*
X002985Y009212D02*
X004810Y009212D01*
X004810Y009113D02*
X002985Y009113D01*
X002985Y009015D02*
X004810Y009015D01*
X004810Y008916D02*
X002985Y008916D01*
X002985Y008818D02*
X004810Y008818D01*
X004810Y008719D02*
X002985Y008719D01*
X002985Y008621D02*
X004810Y008621D01*
X004810Y008522D02*
X002985Y008522D01*
X002985Y008424D02*
X004835Y008424D01*
X004910Y008325D02*
X002985Y008325D01*
X002985Y008227D02*
X005009Y008227D01*
X005107Y008128D02*
X002985Y008128D01*
X002985Y008030D02*
X005247Y008030D01*
X005913Y008030D02*
X011705Y008030D01*
X011606Y008128D02*
X006053Y008128D01*
X006151Y008227D02*
X011508Y008227D01*
X011409Y008325D02*
X006250Y008325D01*
X006805Y008424D02*
X007280Y008424D01*
X007304Y008400D02*
X007189Y008514D01*
X007127Y008664D01*
X007127Y008826D01*
X007189Y008976D01*
X007304Y009091D01*
X007454Y009153D01*
X007616Y009153D01*
X007766Y009091D01*
X007880Y008976D01*
X007942Y008826D01*
X007942Y008664D01*
X007880Y008514D01*
X007766Y008400D01*
X007616Y008338D01*
X007454Y008338D01*
X007304Y008400D01*
X007186Y008522D02*
X006899Y008522D01*
X006940Y008621D02*
X007145Y008621D01*
X007127Y008719D02*
X006958Y008719D01*
X006958Y008818D02*
X007127Y008818D01*
X007164Y008916D02*
X006921Y008916D01*
X006857Y009015D02*
X007228Y009015D01*
X007358Y009113D02*
X006820Y009113D01*
X006820Y009212D02*
X008637Y009212D01*
X008539Y009310D02*
X006820Y009310D01*
X007314Y009409D02*
X007787Y009409D01*
X007694Y009507D02*
X007407Y009507D01*
X007448Y009606D02*
X007653Y009606D01*
X007635Y009704D02*
X007466Y009704D01*
X007466Y009803D02*
X007635Y009803D01*
X007673Y009901D02*
X007428Y009901D01*
X007364Y010000D02*
X007736Y010000D01*
X007868Y010098D02*
X007328Y010098D01*
X008432Y009606D02*
X008440Y009606D01*
X008440Y009507D02*
X008392Y009507D01*
X008440Y009409D02*
X008298Y009409D01*
X008736Y009113D02*
X007711Y009113D01*
X007842Y009015D02*
X008834Y009015D01*
X008933Y008916D02*
X007905Y008916D01*
X007942Y008818D02*
X009031Y008818D01*
X009096Y008719D02*
X007942Y008719D01*
X007924Y008621D02*
X009114Y008621D01*
X009155Y008522D02*
X007883Y008522D01*
X007789Y008424D02*
X009249Y008424D01*
X009758Y008424D02*
X010082Y008424D01*
X010080Y008522D02*
X009852Y008522D01*
X009893Y008621D02*
X010080Y008621D01*
X010080Y008719D02*
X009911Y008719D01*
X009911Y008818D02*
X010080Y008818D01*
X010080Y008916D02*
X009874Y008916D01*
X009810Y009015D02*
X010080Y009015D01*
X010128Y009113D02*
X009680Y009113D01*
X009756Y009409D02*
X009282Y009409D01*
X009376Y009507D02*
X009662Y009507D01*
X009621Y009606D02*
X009417Y009606D01*
X009434Y009704D02*
X009604Y009704D01*
X009604Y009803D02*
X009434Y009803D01*
X010011Y009729D02*
X010288Y009729D01*
X012330Y007687D01*
X013080Y007687D01*
X013354Y007833D02*
X017630Y007833D01*
X017630Y007931D02*
X013272Y007931D01*
X013388Y007734D02*
X017630Y007734D01*
X017630Y007636D02*
X013388Y007636D01*
X013352Y007537D02*
X017630Y007537D01*
X017630Y007439D02*
X013267Y007439D01*
X012893Y007439D02*
X002985Y007439D01*
X002985Y007537D02*
X012197Y007537D01*
X012099Y007636D02*
X002985Y007636D01*
X002985Y007734D02*
X012000Y007734D01*
X011902Y007833D02*
X002985Y007833D01*
X002985Y007931D02*
X011803Y007931D01*
X012172Y008128D02*
X017630Y008128D01*
X017630Y008030D02*
X012271Y008030D01*
X012369Y007931D02*
X012888Y007931D01*
X012074Y008227D02*
X017630Y008227D01*
X017685Y008325D02*
X011975Y008325D01*
X011311Y008424D02*
X010893Y008424D01*
X010895Y008522D02*
X011212Y008522D01*
X011114Y008621D02*
X010895Y008621D01*
X010895Y008719D02*
X011015Y008719D01*
X010917Y008818D02*
X010895Y008818D01*
X010523Y009212D02*
X009174Y009212D01*
X009076Y009310D02*
X010424Y009310D01*
X010326Y009409D02*
X010266Y009409D01*
X009327Y009113D02*
X009273Y009113D01*
X004810Y010197D02*
X002985Y010197D01*
X002985Y010295D02*
X004810Y010295D01*
X004810Y010394D02*
X004195Y010394D01*
X004179Y010387D02*
X004363Y010463D01*
X004504Y010604D01*
X004580Y010788D01*
X004580Y010987D01*
X004504Y011171D01*
X004363Y011311D01*
X004179Y011387D01*
X003981Y011387D01*
X003797Y011311D01*
X003656Y011171D01*
X003580Y010987D01*
X003580Y010788D01*
X003656Y010604D01*
X003797Y010463D01*
X003981Y010387D01*
X004179Y010387D01*
X003965Y010394D02*
X002985Y010394D01*
X002985Y010492D02*
X003768Y010492D01*
X003670Y010591D02*
X002985Y010591D01*
X002985Y010689D02*
X003621Y010689D01*
X003580Y010788D02*
X002985Y010788D01*
X002985Y010886D02*
X003580Y010886D01*
X003580Y010985D02*
X002985Y010985D01*
X002985Y011083D02*
X003620Y011083D01*
X003667Y011182D02*
X002985Y011182D01*
X002985Y011280D02*
X003766Y011280D01*
X003959Y011379D02*
X002985Y011379D01*
X002985Y011477D02*
X004810Y011477D01*
X004810Y011379D02*
X004201Y011379D01*
X004394Y011280D02*
X004810Y011280D01*
X004810Y011182D02*
X004493Y011182D01*
X004540Y011083D02*
X004810Y011083D01*
X004810Y010985D02*
X004580Y010985D01*
X004580Y010886D02*
X004810Y010886D01*
X004810Y010788D02*
X004580Y010788D01*
X004539Y010689D02*
X004810Y010689D01*
X004810Y010591D02*
X004490Y010591D01*
X004392Y010492D02*
X004810Y010492D01*
X005836Y011182D02*
X006280Y011182D01*
X006280Y011280D02*
X005836Y011280D01*
X005836Y011379D02*
X006280Y011379D01*
X006280Y011477D02*
X005836Y011477D01*
X005836Y011576D02*
X006280Y011576D01*
X006280Y011674D02*
X005836Y011674D01*
X005836Y011773D02*
X006280Y011773D01*
X006280Y011871D02*
X005836Y011871D01*
X005836Y011970D02*
X006280Y011970D01*
X006280Y012068D02*
X005836Y012068D01*
X005836Y012167D02*
X006280Y012167D01*
X006280Y012265D02*
X005836Y012265D01*
X005836Y012364D02*
X006222Y012364D01*
X006123Y012462D02*
X005833Y012462D01*
X005789Y012561D02*
X006025Y012561D01*
X005926Y012659D02*
X005690Y012659D01*
X005592Y012758D02*
X005828Y012758D01*
X005729Y012856D02*
X005493Y012856D01*
X005395Y012955D02*
X005631Y012955D01*
X005532Y013053D02*
X005296Y013053D01*
X005198Y013152D02*
X005434Y013152D01*
X005335Y013250D02*
X005099Y013250D01*
X005001Y013349D02*
X005237Y013349D01*
X005138Y013447D02*
X004902Y013447D01*
X004804Y013546D02*
X005040Y013546D01*
X004941Y013644D02*
X004705Y013644D01*
X004607Y013743D02*
X004843Y013743D01*
X004744Y013841D02*
X004580Y013841D01*
X004580Y013940D02*
X004646Y013940D01*
X004211Y014374D02*
X004179Y014387D01*
X003981Y014387D01*
X004179Y014387D01*
X004193Y014393D01*
X004211Y014374D01*
X003872Y014432D02*
X002985Y014432D01*
X002985Y014334D02*
X003851Y014334D01*
X003721Y014235D02*
X002985Y014235D01*
X002985Y014137D02*
X003642Y014137D01*
X003601Y014038D02*
X002985Y014038D01*
X002985Y013940D02*
X003580Y013940D01*
X003580Y013841D02*
X002985Y013841D01*
X002985Y013743D02*
X003599Y013743D01*
X003640Y013644D02*
X002985Y013644D01*
X002985Y013546D02*
X003715Y013546D01*
X003836Y013447D02*
X002985Y013447D01*
X002985Y013349D02*
X003887Y013349D01*
X003981Y013387D02*
X004179Y013387D01*
X003981Y013387D01*
X004179Y013387D02*
X004211Y013374D01*
X004193Y013393D01*
X004179Y013387D01*
X003736Y013250D02*
X002985Y013250D01*
X002985Y013152D02*
X003648Y013152D01*
X003607Y013053D02*
X002985Y013053D01*
X002985Y012955D02*
X003580Y012955D01*
X003580Y012856D02*
X002985Y012856D01*
X002985Y012758D02*
X003593Y012758D01*
X003633Y012659D02*
X002985Y012659D01*
X002985Y012561D02*
X003700Y012561D01*
X003800Y012462D02*
X002985Y012462D01*
X002985Y012364D02*
X004622Y012364D01*
X004523Y012462D02*
X004360Y012462D01*
X004720Y012265D02*
X002985Y012265D01*
X002985Y012167D02*
X004810Y012167D01*
X004810Y012068D02*
X002985Y012068D01*
X002985Y011970D02*
X004810Y011970D01*
X004810Y011871D02*
X002985Y011871D01*
X002985Y011773D02*
X004810Y011773D01*
X004810Y011674D02*
X002985Y011674D01*
X002985Y011576D02*
X004810Y011576D01*
X005980Y011537D02*
X005980Y012337D01*
X006233Y013644D02*
X006300Y013644D01*
X006300Y013743D02*
X006135Y013743D01*
X006036Y013841D02*
X006300Y013841D01*
X006300Y013940D02*
X005938Y013940D01*
X005839Y014038D02*
X006324Y014038D01*
X006324Y014137D02*
X005741Y014137D01*
X005642Y014235D02*
X006300Y014235D01*
X006300Y014334D02*
X005544Y014334D01*
X005445Y014432D02*
X006300Y014432D01*
X006300Y014531D02*
X005347Y014531D01*
X005248Y014629D02*
X006300Y014629D01*
X006300Y014728D02*
X005150Y014728D01*
X005051Y014826D02*
X006300Y014826D01*
X006310Y014925D02*
X004953Y014925D01*
X004900Y015023D02*
X006337Y015023D01*
X006300Y015122D02*
X004900Y015122D01*
X004900Y015220D02*
X006300Y015220D01*
X006300Y015319D02*
X004900Y015319D01*
X004900Y015417D02*
X006300Y015417D01*
X006300Y015516D02*
X004869Y015516D01*
X004785Y015614D02*
X006300Y015614D01*
X006300Y015713D02*
X004687Y015713D01*
X004588Y015811D02*
X006300Y015811D01*
X006680Y015437D02*
X007285Y015437D01*
X007285Y015442D01*
X007280Y015437D02*
X007390Y015387D01*
X007680Y015097D01*
X007660Y015417D02*
X007740Y015417D01*
X007740Y015516D02*
X007660Y015516D01*
X007660Y015614D02*
X007740Y015614D01*
X007740Y015713D02*
X007660Y015713D01*
X007660Y015811D02*
X007740Y015811D01*
X007740Y015910D02*
X004580Y015910D01*
X004571Y016008D02*
X007740Y016008D01*
X007740Y016107D02*
X004530Y016107D01*
X004469Y016205D02*
X007740Y016205D01*
X007740Y016304D02*
X004371Y016304D01*
X004215Y016402D02*
X007740Y016402D01*
X007740Y016501D02*
X004400Y016501D01*
X004499Y016599D02*
X007740Y016599D01*
X007740Y016698D02*
X004543Y016698D01*
X004580Y016796D02*
X007740Y016796D01*
X007740Y016895D02*
X004580Y016895D01*
X004577Y016993D02*
X007740Y016993D01*
X007740Y017092D02*
X004537Y017092D01*
X004484Y017190D02*
X007740Y017190D01*
X007740Y017289D02*
X004386Y017289D01*
X004180Y017387D02*
X007740Y017387D01*
X007760Y017486D02*
X002985Y017486D01*
X002985Y017584D02*
X007858Y017584D01*
X007957Y017683D02*
X002985Y017683D01*
X002985Y017781D02*
X008041Y017781D01*
X008056Y017880D02*
X002985Y017880D01*
X002985Y017978D02*
X008112Y017978D01*
X008548Y017978D02*
X008580Y017978D01*
X008617Y018077D02*
X002985Y018077D01*
X002985Y018175D02*
X008661Y018175D01*
X008759Y018274D02*
X002985Y018274D01*
X002985Y018372D02*
X008944Y018372D01*
X012450Y019062D02*
X012520Y019062D01*
X012461Y019160D02*
X012450Y019160D01*
X012450Y019653D02*
X012477Y019653D01*
X012450Y019751D02*
X012558Y019751D01*
X012450Y019850D02*
X012687Y019850D01*
X012421Y019948D02*
X013684Y019948D01*
X013557Y019850D02*
X013173Y019850D01*
X013302Y019751D02*
X013476Y019751D01*
X013436Y019653D02*
X013383Y019653D01*
X016386Y017289D02*
X020774Y017289D01*
X020676Y017190D02*
X016484Y017190D01*
X016537Y017092D02*
X020623Y017092D01*
X020583Y016993D02*
X016577Y016993D01*
X016580Y016895D02*
X020580Y016895D01*
X020580Y016796D02*
X016580Y016796D01*
X016543Y016698D02*
X020617Y016698D01*
X020661Y016599D02*
X016499Y016599D01*
X016400Y016501D02*
X020760Y016501D01*
X020789Y016304D02*
X016371Y016304D01*
X016469Y016205D02*
X020691Y016205D01*
X020630Y016107D02*
X016530Y016107D01*
X016571Y016008D02*
X020589Y016008D01*
X020580Y015910D02*
X016580Y015910D01*
X016580Y015811D02*
X020580Y015811D01*
X020611Y015713D02*
X016549Y015713D01*
X016508Y015614D02*
X020652Y015614D01*
X020745Y015516D02*
X016415Y015516D01*
X016251Y015417D02*
X020909Y015417D01*
X020815Y015319D02*
X016345Y015319D01*
X016454Y015220D02*
X020706Y015220D01*
X020636Y015122D02*
X016524Y015122D01*
X016565Y015023D02*
X020595Y015023D01*
X020580Y014925D02*
X016580Y014925D01*
X016580Y014826D02*
X020580Y014826D01*
X020605Y014728D02*
X016555Y014728D01*
X016514Y014629D02*
X020646Y014629D01*
X020730Y014531D02*
X016430Y014531D01*
X016288Y014432D02*
X020872Y014432D01*
X020851Y014334D02*
X016309Y014334D01*
X016439Y014235D02*
X019321Y014235D01*
X019300Y014137D02*
X016518Y014137D01*
X015736Y013250D02*
X015424Y013250D01*
X015512Y013152D02*
X015648Y013152D01*
X014887Y013349D02*
X013880Y013349D01*
X013480Y013349D02*
X013030Y013349D01*
X013030Y013447D02*
X013313Y013447D01*
X013336Y013250D02*
X013030Y013250D01*
X013030Y013152D02*
X013300Y013152D01*
X013300Y013053D02*
X013030Y013053D01*
X013030Y012955D02*
X013300Y012955D01*
X012580Y013437D02*
X012330Y013687D01*
X012514Y013940D02*
X012646Y013940D01*
X013300Y014137D02*
X010518Y014137D01*
X010439Y014235D02*
X013321Y014235D01*
X014660Y013546D02*
X014715Y013546D01*
X014647Y013447D02*
X014836Y013447D01*
X014736Y013250D02*
X014624Y013250D01*
X018330Y013687D02*
X018580Y013437D01*
X018514Y013940D02*
X018646Y013940D01*
X020639Y014235D02*
X020721Y014235D01*
X021080Y013887D02*
X021030Y013837D01*
X022514Y014629D02*
X026646Y014629D01*
X026605Y014728D02*
X022555Y014728D01*
X021745Y015516D02*
X021415Y015516D01*
X021508Y015614D02*
X021652Y015614D01*
X021611Y015713D02*
X021549Y015713D01*
X021580Y015811D02*
X021580Y015811D01*
X021580Y015910D02*
X021580Y015910D01*
X021571Y016008D02*
X021589Y016008D01*
X021630Y016107D02*
X021530Y016107D01*
X021469Y016205D02*
X021691Y016205D01*
X021789Y016304D02*
X021371Y016304D01*
X021215Y016402D02*
X021945Y016402D01*
X021760Y016501D02*
X021400Y016501D01*
X021499Y016599D02*
X021661Y016599D01*
X021617Y016698D02*
X021543Y016698D01*
X021580Y016796D02*
X021580Y016796D01*
X021580Y016895D02*
X021580Y016895D01*
X021577Y016993D02*
X021583Y016993D01*
X021623Y017092D02*
X021537Y017092D01*
X021484Y017190D02*
X021676Y017190D01*
X021774Y017289D02*
X021386Y017289D01*
X021180Y017387D02*
X021980Y017387D01*
X020945Y016402D02*
X016215Y016402D01*
X014945Y016402D02*
X010215Y016402D01*
X009945Y016402D02*
X009215Y016402D01*
X009179Y016387D02*
X008981Y016387D01*
X008797Y016463D01*
X008770Y016490D01*
X008770Y016284D01*
X008797Y016311D01*
X008981Y016387D01*
X009179Y016387D01*
X008945Y016402D02*
X008770Y016402D01*
X008770Y016304D02*
X008789Y016304D01*
X006680Y015437D02*
X006680Y014537D01*
X007285Y014537D01*
X007285Y014542D01*
X007280Y014537D02*
X007580Y014537D01*
X007680Y014437D01*
X006680Y014537D02*
X006680Y013637D01*
X008770Y014284D02*
X008770Y014490D01*
X008797Y014463D01*
X008981Y014387D01*
X009179Y014387D01*
X008981Y014387D01*
X008797Y014311D01*
X008770Y014284D01*
X008770Y014334D02*
X008851Y014334D01*
X008872Y014432D02*
X008770Y014432D01*
X004297Y015339D02*
X004179Y015387D01*
X003981Y015387D01*
X004179Y015387D01*
X004228Y015407D01*
X004297Y015339D01*
X003909Y015417D02*
X002985Y015417D01*
X002985Y015319D02*
X003815Y015319D01*
X003706Y015220D02*
X002985Y015220D01*
X002985Y015122D02*
X003636Y015122D01*
X003595Y015023D02*
X002985Y015023D01*
X002985Y014925D02*
X003580Y014925D01*
X003580Y014826D02*
X002985Y014826D01*
X002985Y014728D02*
X003605Y014728D01*
X003646Y014629D02*
X002985Y014629D01*
X002985Y014531D02*
X003730Y014531D01*
X003745Y015516D02*
X002985Y015516D01*
X002985Y015614D02*
X003652Y015614D01*
X003611Y015713D02*
X002985Y015713D01*
X002985Y015811D02*
X003580Y015811D01*
X003580Y015910D02*
X002985Y015910D01*
X002985Y016008D02*
X003589Y016008D01*
X003630Y016107D02*
X002985Y016107D01*
X002985Y016205D02*
X003691Y016205D01*
X003789Y016304D02*
X002985Y016304D01*
X002985Y016402D02*
X003945Y016402D01*
X003760Y016501D02*
X002985Y016501D01*
X002985Y016599D02*
X003661Y016599D01*
X003617Y016698D02*
X002985Y016698D01*
X002985Y016796D02*
X003580Y016796D01*
X003580Y016895D02*
X002985Y016895D01*
X002985Y016993D02*
X003583Y016993D01*
X003623Y017092D02*
X002985Y017092D01*
X002985Y017190D02*
X003676Y017190D01*
X003774Y017289D02*
X002985Y017289D01*
X002985Y017387D02*
X003980Y017387D01*
X004080Y017887D02*
X004180Y017987D01*
X003966Y019540D01*
X003572Y020622D02*
X003518Y020620D01*
X003465Y020615D01*
X003412Y020606D01*
X003360Y020593D01*
X003308Y020577D01*
X003258Y020557D01*
X003210Y020534D01*
X003163Y020507D01*
X003118Y020478D01*
X003075Y020445D01*
X003035Y020410D01*
X002997Y020372D01*
X002962Y020332D01*
X002929Y020289D01*
X002900Y020244D01*
X002873Y020197D01*
X002850Y020149D01*
X002830Y020099D01*
X002814Y020047D01*
X002801Y019995D01*
X002792Y019942D01*
X002787Y019889D01*
X002785Y019835D01*
X002985Y019751D02*
X005410Y019751D01*
X005410Y019653D02*
X002985Y019653D01*
X002985Y019554D02*
X005410Y019554D01*
X005410Y019456D02*
X002985Y019456D01*
X002985Y019357D02*
X005410Y019357D01*
X005410Y019259D02*
X002985Y019259D01*
X002985Y019160D02*
X005410Y019160D01*
X005410Y019062D02*
X002985Y019062D01*
X018421Y019948D02*
X019684Y019948D01*
X019557Y019850D02*
X019173Y019850D01*
X019302Y019751D02*
X019476Y019751D01*
X019436Y019653D02*
X019383Y019653D01*
X018687Y019850D02*
X018450Y019850D01*
X018450Y019751D02*
X018558Y019751D01*
X018477Y019653D02*
X018450Y019653D01*
X018450Y019160D02*
X018461Y019160D01*
X018450Y019062D02*
X018520Y019062D01*
X027030Y013837D02*
X027080Y013887D01*
X027030Y013837D02*
X026280Y013837D01*
X026285Y013837D02*
X026285Y013842D01*
X026285Y013837D02*
X025680Y013837D01*
X025680Y012837D01*
X026285Y012837D01*
X026285Y012842D01*
X026280Y012837D02*
X027030Y012837D01*
X027080Y012887D01*
X026887Y013349D02*
X025880Y013349D01*
X025680Y012837D02*
X025680Y011837D01*
X026285Y011837D01*
X026285Y011842D01*
X026280Y011837D02*
X027030Y011837D01*
X027080Y011887D01*
X026685Y011576D02*
X026660Y011576D01*
X026660Y011477D02*
X026783Y011477D01*
X026766Y011280D02*
X025788Y011280D01*
X025749Y011182D02*
X026667Y011182D01*
X026620Y011083D02*
X025662Y011083D01*
X025480Y011337D02*
X025680Y011537D01*
X025680Y011837D01*
X025978Y011379D02*
X025982Y011379D01*
X025211Y011182D02*
X022493Y011182D01*
X022540Y011083D02*
X025298Y011083D01*
X025172Y011280D02*
X022394Y011280D01*
X022201Y011379D02*
X025172Y011379D01*
X026578Y011379D02*
X026959Y011379D01*
X026981Y011387D02*
X027179Y011387D01*
X027363Y011311D01*
X027390Y011284D01*
X027390Y011490D01*
X027363Y011463D01*
X027179Y011387D01*
X026981Y011387D01*
X027201Y011379D02*
X027390Y011379D01*
X027377Y011477D02*
X027390Y011477D01*
X026580Y010985D02*
X022580Y010985D01*
X022580Y010886D02*
X026580Y010886D01*
X026580Y010788D02*
X022580Y010788D01*
X022539Y010689D02*
X026621Y010689D01*
X028375Y009704D02*
X028590Y009704D01*
X028590Y009606D02*
X028277Y009606D01*
X028178Y009507D02*
X028590Y009507D01*
X028590Y009409D02*
X028080Y009409D01*
X027981Y009310D02*
X028689Y009310D01*
X028699Y009212D02*
X027891Y009212D01*
X027919Y009113D02*
X028746Y009113D01*
X028884Y009015D02*
X027912Y009015D01*
X027867Y008916D02*
X029350Y008916D01*
X029350Y008818D02*
X027733Y008818D01*
X027527Y008818D02*
X025233Y008818D01*
X025280Y008887D02*
X025680Y008487D01*
X025680Y007537D01*
X025876Y007242D02*
X022530Y007242D01*
X022530Y007340D02*
X023924Y007340D01*
X023826Y007439D02*
X022530Y007439D01*
X022530Y007537D02*
X023727Y007537D01*
X023629Y007636D02*
X022530Y007636D01*
X022530Y007734D02*
X023405Y007734D01*
X023610Y007937D02*
X023620Y007927D01*
X024010Y007537D01*
X024880Y007537D01*
X025030Y007687D01*
X025030Y008187D01*
X024930Y008287D01*
X025230Y008128D02*
X028202Y008128D01*
X028104Y008030D02*
X025230Y008030D01*
X025230Y007931D02*
X027622Y007931D01*
X027497Y007833D02*
X025230Y007833D01*
X025230Y007734D02*
X027455Y007734D01*
X027451Y007636D02*
X025230Y007636D01*
X025163Y007537D02*
X027481Y007537D01*
X027523Y007439D02*
X025064Y007439D01*
X024966Y007340D02*
X027460Y007340D01*
X028054Y007143D02*
X029017Y007143D01*
X029116Y007242D02*
X028153Y007242D01*
X028251Y007340D02*
X029214Y007340D01*
X029650Y007439D02*
X028350Y007439D01*
X028448Y007537D02*
X029650Y007537D01*
X029650Y007636D02*
X028547Y007636D01*
X028645Y007734D02*
X029025Y007734D01*
X029435Y007734D02*
X029650Y007734D01*
X029650Y007833D02*
X029499Y007833D01*
X029519Y007931D02*
X029650Y007931D01*
X029650Y008030D02*
X029504Y008030D01*
X029477Y008128D02*
X029650Y008128D01*
X029650Y008227D02*
X029517Y008227D01*
X029519Y008325D02*
X029650Y008325D01*
X029650Y008424D02*
X029486Y008424D01*
X029404Y008522D02*
X029627Y008522D01*
X029528Y008621D02*
X025537Y008621D01*
X025569Y008522D02*
X029056Y008522D01*
X028980Y008687D02*
X029280Y008987D01*
X029280Y009487D01*
X029180Y009587D01*
X029180Y010537D01*
X029330Y010687D01*
X029680Y010687D01*
X029880Y010487D01*
X029940Y010492D02*
X029794Y010492D01*
X029858Y010591D02*
X029729Y010591D01*
X029760Y010689D02*
X029627Y010689D01*
X029661Y010788D02*
X029120Y010788D01*
X029120Y010886D02*
X029563Y010886D01*
X029464Y010985D02*
X029120Y010985D01*
X029120Y011083D02*
X029366Y011083D01*
X029333Y010689D02*
X029050Y010689D01*
X028970Y010591D02*
X029231Y010591D01*
X029191Y010492D02*
X028970Y010492D01*
X028970Y010394D02*
X029191Y010394D01*
X029226Y010295D02*
X028970Y010295D01*
X028970Y010197D02*
X029312Y010197D01*
X029291Y010098D02*
X028970Y010098D01*
X028970Y010000D02*
X029234Y010000D01*
X029159Y009901D02*
X028970Y009901D01*
X028970Y009803D02*
X029131Y009803D01*
X029138Y009704D02*
X028970Y009704D01*
X028970Y009606D02*
X029183Y009606D01*
X029169Y009507D02*
X029318Y009507D01*
X029350Y009409D02*
X029242Y009409D01*
X029269Y009310D02*
X029350Y009310D01*
X029350Y009212D02*
X029261Y009212D01*
X029214Y009113D02*
X029350Y009113D01*
X029350Y009015D02*
X029076Y009015D01*
X029430Y008719D02*
X025457Y008719D01*
X025280Y008887D02*
X022030Y008887D01*
X021980Y008837D01*
X021590Y008818D02*
X023702Y008818D01*
X023622Y008719D02*
X021575Y008719D01*
X021590Y008916D02*
X027393Y008916D01*
X028301Y008227D02*
X025405Y008227D01*
X025525Y008325D02*
X028399Y008325D01*
X028498Y008424D02*
X025566Y008424D01*
X025280Y008487D02*
X025130Y008637D01*
X023930Y008637D01*
X023880Y008587D01*
X023630Y008437D02*
X024180Y007887D01*
X024780Y007887D01*
X023610Y007937D02*
X022130Y007937D01*
X022080Y007987D01*
X022330Y008030D02*
X017830Y008030D01*
X017830Y008128D02*
X022330Y008128D01*
X022330Y008187D02*
X022330Y006437D01*
X017830Y006437D01*
X017830Y008187D01*
X022330Y008187D01*
X022330Y007931D02*
X017830Y007931D01*
X017830Y007833D02*
X022330Y007833D01*
X022330Y007734D02*
X017830Y007734D01*
X017830Y007636D02*
X022330Y007636D01*
X022330Y007537D02*
X017830Y007537D01*
X017830Y007439D02*
X022330Y007439D01*
X022330Y007340D02*
X017830Y007340D01*
X017830Y007242D02*
X022330Y007242D01*
X022330Y007143D02*
X017830Y007143D01*
X017830Y007045D02*
X022330Y007045D01*
X022330Y006946D02*
X017830Y006946D01*
X017830Y006848D02*
X022330Y006848D01*
X022330Y006749D02*
X017830Y006749D01*
X017830Y006651D02*
X022330Y006651D01*
X022330Y006552D02*
X017830Y006552D01*
X017830Y006454D02*
X022330Y006454D01*
X022530Y006454D02*
X024208Y006454D01*
X024306Y006552D02*
X022530Y006552D01*
X022530Y006651D02*
X025285Y006651D01*
X025383Y006749D02*
X022530Y006749D01*
X022530Y006848D02*
X025482Y006848D01*
X025580Y006946D02*
X022530Y006946D01*
X022530Y007045D02*
X025679Y007045D01*
X025777Y007143D02*
X022530Y007143D01*
X022530Y006355D02*
X024109Y006355D01*
X024011Y006257D02*
X022432Y006257D01*
X023715Y005961D02*
X002985Y005961D01*
X002985Y005863D02*
X023690Y005863D01*
X023690Y005764D02*
X002985Y005764D01*
X002985Y005666D02*
X011927Y005666D01*
X012093Y005666D02*
X013847Y005666D01*
X014013Y005666D02*
X023690Y005666D01*
X023690Y005567D02*
X014159Y005567D01*
X014209Y005469D02*
X023690Y005469D01*
X023690Y005370D02*
X014219Y005370D01*
X014195Y005272D02*
X023690Y005272D01*
X024670Y005125D02*
X024670Y004866D01*
X024752Y004784D01*
X024760Y004787D01*
X024900Y004787D01*
X024980Y004754D01*
X024980Y005104D01*
X024969Y005116D01*
X024900Y005087D01*
X024760Y005087D01*
X024670Y005125D01*
X024670Y005075D02*
X024980Y005075D01*
X024980Y004976D02*
X024670Y004976D01*
X024670Y004878D02*
X024980Y004878D01*
X024980Y004779D02*
X024920Y004779D01*
X025180Y005187D02*
X025180Y003037D01*
X025080Y002937D01*
X024525Y002711D02*
X023780Y002711D01*
X023780Y002809D02*
X024426Y002809D01*
X024328Y002908D02*
X023780Y002908D01*
X023780Y003006D02*
X024229Y003006D01*
X024131Y003105D02*
X023780Y003105D01*
X023780Y003203D02*
X024032Y003203D01*
X023944Y003302D02*
X023780Y003302D01*
X023780Y003400D02*
X023910Y003400D01*
X023910Y003499D02*
X023780Y003499D01*
X023780Y003597D02*
X023910Y003597D01*
X023910Y003696D02*
X023780Y003696D01*
X023780Y003794D02*
X023841Y003794D01*
X023930Y003737D02*
X023930Y003087D01*
X025280Y001737D01*
X025430Y001737D01*
X025430Y001437D01*
X025730Y001137D01*
X030330Y001137D01*
X030630Y001437D01*
X031830Y002187D02*
X034280Y002187D01*
X034630Y002537D01*
X034010Y003499D02*
X038759Y003499D01*
X038858Y003597D02*
X034108Y003597D01*
X034207Y003696D02*
X035363Y003696D01*
X035277Y003794D02*
X034305Y003794D01*
X034404Y003893D02*
X035241Y003893D01*
X035193Y003991D02*
X034502Y003991D01*
X034601Y004090D02*
X035095Y004090D01*
X034996Y004188D02*
X034681Y004188D01*
X034719Y004287D02*
X034898Y004287D01*
X034799Y004385D02*
X034719Y004385D01*
X034880Y004587D02*
X032230Y004587D01*
X031830Y004187D01*
X031391Y003400D02*
X038661Y003400D01*
X038562Y003302D02*
X030813Y003302D01*
X030911Y003400D02*
X031269Y003400D01*
X031110Y003499D02*
X031010Y003499D01*
X030430Y003437D02*
X027180Y003437D01*
X026680Y003937D01*
X026680Y003437D02*
X026930Y003187D01*
X030430Y003187D01*
X030230Y004937D02*
X027180Y004937D01*
X026680Y004437D01*
X026680Y004937D02*
X026930Y005187D01*
X030230Y005187D01*
X032789Y006327D02*
X033959Y007497D01*
X035751Y007497D01*
X036074Y007174D01*
X036041Y007095D01*
X036041Y006980D01*
X036085Y006874D01*
X036166Y006793D01*
X036273Y006749D01*
X036380Y006749D01*
X036380Y006337D01*
X035788Y006337D01*
X035744Y006382D01*
X035637Y006426D01*
X035523Y006426D01*
X035416Y006382D01*
X035335Y006301D01*
X035291Y006195D01*
X035291Y006080D01*
X035335Y005974D01*
X035416Y005893D01*
X035523Y005849D01*
X035637Y005849D01*
X035744Y005893D01*
X035788Y005937D01*
X036080Y005937D01*
X036041Y005845D01*
X036041Y005730D01*
X036085Y005624D01*
X036166Y005543D01*
X036273Y005499D01*
X036293Y005499D01*
X036291Y005495D01*
X036291Y005380D01*
X036334Y005276D01*
X036273Y005276D01*
X036166Y005232D01*
X036085Y005151D01*
X036041Y005045D01*
X036041Y004967D01*
X036001Y004927D01*
X034609Y004927D01*
X033209Y006327D01*
X032789Y006327D01*
X032816Y006355D02*
X035389Y006355D01*
X035317Y006257D02*
X033279Y006257D01*
X033378Y006158D02*
X035291Y006158D01*
X035300Y006060D02*
X033476Y006060D01*
X033575Y005961D02*
X035348Y005961D01*
X035489Y005863D02*
X033673Y005863D01*
X033772Y005764D02*
X036041Y005764D01*
X036049Y005863D02*
X035671Y005863D01*
X036068Y005666D02*
X033870Y005666D01*
X033969Y005567D02*
X036142Y005567D01*
X036291Y005469D02*
X034067Y005469D01*
X034166Y005370D02*
X036295Y005370D01*
X036262Y005272D02*
X034264Y005272D01*
X034363Y005173D02*
X036107Y005173D01*
X036054Y005075D02*
X034461Y005075D01*
X034560Y004976D02*
X036041Y004976D01*
X036292Y004681D02*
X038318Y004681D01*
X038220Y004779D02*
X037330Y004779D01*
X037397Y004878D02*
X038121Y004878D01*
X038023Y004976D02*
X037419Y004976D01*
X037406Y005075D02*
X037924Y005075D01*
X037826Y005173D02*
X037353Y005173D01*
X037198Y005272D02*
X037727Y005272D01*
X037629Y005370D02*
X036865Y005370D01*
X036823Y005272D02*
X037062Y005272D01*
X036580Y005437D02*
X036580Y006137D01*
X035580Y006137D01*
X035771Y006355D02*
X036380Y006355D01*
X036380Y006454D02*
X032915Y006454D01*
X033013Y006552D02*
X036380Y006552D01*
X036380Y006651D02*
X033112Y006651D01*
X033210Y006749D02*
X036271Y006749D01*
X036111Y006848D02*
X033309Y006848D01*
X033407Y006946D02*
X036055Y006946D01*
X036041Y007045D02*
X033506Y007045D01*
X033604Y007143D02*
X036061Y007143D01*
X036007Y007242D02*
X033703Y007242D01*
X033801Y007340D02*
X035909Y007340D01*
X035810Y007439D02*
X033900Y007439D01*
X035480Y007037D02*
X035505Y007062D01*
X036780Y007340D02*
X038882Y007340D01*
X038928Y007386D02*
X038793Y007251D01*
X038720Y007075D01*
X038720Y006884D01*
X038793Y006708D01*
X038928Y006572D01*
X039105Y006499D01*
X039295Y006499D01*
X039472Y006572D01*
X039607Y006708D01*
X039680Y006884D01*
X039680Y007075D01*
X039607Y007251D01*
X039472Y007386D01*
X039295Y007459D01*
X039105Y007459D01*
X038928Y007386D01*
X039054Y007439D02*
X036780Y007439D01*
X036780Y007537D02*
X041710Y007537D01*
X041710Y007439D02*
X039346Y007439D01*
X039518Y007340D02*
X041710Y007340D01*
X041710Y007242D02*
X039611Y007242D01*
X039652Y007143D02*
X041710Y007143D01*
X041710Y007045D02*
X039680Y007045D01*
X039680Y006946D02*
X041710Y006946D01*
X041710Y006848D02*
X039665Y006848D01*
X039624Y006749D02*
X041710Y006749D01*
X041710Y006651D02*
X039550Y006651D01*
X039422Y006552D02*
X041710Y006552D01*
X041710Y006454D02*
X040128Y006454D01*
X040075Y006475D02*
X039885Y006475D01*
X039708Y006402D01*
X039590Y006284D01*
X039472Y006402D01*
X039295Y006475D01*
X039105Y006475D01*
X038928Y006402D01*
X038793Y006267D01*
X038720Y006091D01*
X038720Y005900D01*
X038793Y005723D01*
X038928Y005588D01*
X039105Y005515D01*
X039295Y005515D01*
X039472Y005588D01*
X039590Y005706D01*
X039708Y005588D01*
X039885Y005515D01*
X040075Y005515D01*
X040252Y005588D01*
X040387Y005723D01*
X040460Y005900D01*
X040460Y006091D01*
X040387Y006267D01*
X040252Y006402D01*
X040075Y006475D01*
X039832Y006454D02*
X039348Y006454D01*
X039519Y006355D02*
X039661Y006355D01*
X039052Y006454D02*
X036920Y006454D01*
X036920Y006552D02*
X038978Y006552D01*
X038850Y006651D02*
X036920Y006651D01*
X036920Y006749D02*
X038776Y006749D01*
X038735Y006848D02*
X037049Y006848D01*
X037105Y006946D02*
X038720Y006946D01*
X038720Y007045D02*
X037119Y007045D01*
X037099Y007143D02*
X038748Y007143D01*
X038789Y007242D02*
X037034Y007242D01*
X036780Y007636D02*
X041710Y007636D01*
X041710Y007734D02*
X036780Y007734D01*
X036780Y007833D02*
X041710Y007833D01*
X041710Y007931D02*
X036780Y007931D01*
X036780Y008030D02*
X041710Y008030D01*
X041710Y008128D02*
X041380Y008128D01*
X041551Y008227D02*
X041710Y008227D01*
X041710Y008325D02*
X041649Y008325D01*
X040720Y008128D02*
X036697Y008128D01*
X036605Y008227D02*
X036603Y008227D01*
X036855Y008227D02*
X040549Y008227D01*
X040451Y008325D02*
X036975Y008325D01*
X037275Y008424D02*
X040364Y008424D01*
X040323Y008522D02*
X037345Y008522D01*
X037369Y008621D02*
X040282Y008621D01*
X040250Y008719D02*
X037359Y008719D01*
X037308Y008818D02*
X040250Y008818D01*
X040250Y008916D02*
X037162Y008916D01*
X037176Y009015D02*
X040250Y009015D01*
X040290Y009113D02*
X037274Y009113D01*
X037570Y009409D02*
X040470Y009409D01*
X040568Y009507D02*
X037668Y009507D01*
X037767Y009606D02*
X040766Y009606D01*
X041334Y009606D02*
X041710Y009606D01*
X041710Y009704D02*
X037865Y009704D01*
X036971Y010197D02*
X034358Y010197D01*
X034259Y010098D02*
X036872Y010098D01*
X036774Y010000D02*
X034169Y010000D01*
X034157Y009901D02*
X036675Y009901D01*
X036577Y009803D02*
X035473Y009803D01*
X035544Y009704D02*
X036478Y009704D01*
X036380Y009606D02*
X035569Y009606D01*
X035087Y009803D02*
X034173Y009803D01*
X036315Y008227D02*
X036580Y007962D01*
X036580Y006137D01*
X036920Y006158D02*
X037129Y006158D01*
X036994Y006060D02*
X036920Y006060D01*
X036920Y005961D02*
X036948Y005961D01*
X036941Y005863D02*
X036920Y005863D01*
X037230Y005887D02*
X037930Y005887D01*
X038191Y005764D02*
X038776Y005764D01*
X038735Y005863D02*
X038219Y005863D01*
X038212Y005961D02*
X038720Y005961D01*
X038720Y006060D02*
X038166Y006060D01*
X038031Y006158D02*
X038748Y006158D01*
X038789Y006257D02*
X036920Y006257D01*
X036920Y006355D02*
X038881Y006355D01*
X037829Y006158D02*
X037331Y006158D01*
X037969Y005567D02*
X038979Y005567D01*
X038851Y005666D02*
X038117Y005666D01*
X038067Y005469D02*
X041710Y005469D01*
X041710Y005567D02*
X040201Y005567D01*
X040329Y005666D02*
X041710Y005666D01*
X041710Y005764D02*
X040404Y005764D01*
X040445Y005863D02*
X041710Y005863D01*
X041710Y005961D02*
X040460Y005961D01*
X040460Y006060D02*
X041710Y006060D01*
X041710Y006158D02*
X040432Y006158D01*
X040391Y006257D02*
X041710Y006257D01*
X041710Y006355D02*
X040299Y006355D01*
X039759Y005567D02*
X039421Y005567D01*
X039549Y005666D02*
X039631Y005666D01*
X040335Y005075D02*
X038461Y005075D01*
X038363Y005173D02*
X040434Y005173D01*
X040540Y005272D02*
X038264Y005272D01*
X038166Y005370D02*
X041681Y005370D01*
X040237Y004976D02*
X038560Y004976D01*
X038658Y004878D02*
X040138Y004878D01*
X040040Y004779D02*
X038757Y004779D01*
X038995Y004681D02*
X039941Y004681D01*
X039843Y004582D02*
X039083Y004582D01*
X039119Y004484D02*
X039744Y004484D01*
X039646Y004385D02*
X039119Y004385D01*
X039080Y004287D02*
X039547Y004287D01*
X039449Y004188D02*
X038983Y004188D01*
X038677Y004188D02*
X035679Y004188D01*
X035779Y004090D02*
X039350Y004090D01*
X039252Y003991D02*
X035819Y003991D01*
X035819Y003893D02*
X039153Y003893D01*
X039055Y003794D02*
X035783Y003794D01*
X035697Y003696D02*
X038956Y003696D01*
X039425Y003400D02*
X040691Y003400D01*
X040537Y003499D02*
X039523Y003499D01*
X039622Y003597D02*
X040439Y003597D01*
X040359Y003696D02*
X039720Y003696D01*
X039819Y003794D02*
X040318Y003794D01*
X040277Y003893D02*
X039917Y003893D01*
X040016Y003991D02*
X040250Y003991D01*
X040250Y004090D02*
X040114Y004090D01*
X040213Y004188D02*
X040250Y004188D01*
X038580Y004287D02*
X035464Y004287D01*
X035365Y004385D02*
X038541Y004385D01*
X038515Y004484D02*
X035267Y004484D01*
X034880Y004587D02*
X035530Y003937D01*
X036193Y004582D02*
X038417Y004582D01*
X036930Y004779D02*
X036530Y004779D01*
X037676Y002415D02*
X038733Y002415D01*
X038382Y002218D02*
X037593Y002218D01*
X037775Y002120D02*
X038227Y002120D01*
X038135Y002021D02*
X037932Y002021D01*
X038025Y001923D02*
X038094Y001923D01*
X039056Y001529D02*
X039062Y001529D01*
X039103Y001430D02*
X039008Y001430D01*
X038910Y001332D02*
X039150Y001332D01*
X039249Y001233D02*
X038721Y001233D01*
X038560Y001135D02*
X039435Y001135D01*
X039725Y001135D02*
X042166Y001135D01*
X042209Y001233D02*
X039911Y001233D01*
X040010Y001332D02*
X042241Y001332D01*
X042450Y001429D02*
X042448Y001375D01*
X042443Y001322D01*
X042434Y001269D01*
X042421Y001217D01*
X042405Y001165D01*
X042385Y001115D01*
X042362Y001067D01*
X042335Y001020D01*
X042306Y000975D01*
X042273Y000932D01*
X042238Y000892D01*
X042200Y000854D01*
X042160Y000819D01*
X042117Y000786D01*
X042072Y000757D01*
X042025Y000730D01*
X041977Y000707D01*
X041927Y000687D01*
X041875Y000671D01*
X041823Y000658D01*
X041770Y000649D01*
X041717Y000644D01*
X041663Y000642D01*
X003572Y000642D01*
X003262Y000938D02*
X014630Y000938D01*
X014630Y001036D02*
X003141Y001036D01*
X003069Y001135D02*
X012735Y001135D01*
X012777Y001117D02*
X012983Y001117D01*
X013175Y001196D01*
X013321Y001343D01*
X013400Y001534D01*
X013400Y001537D01*
X013439Y001443D01*
X013585Y001296D01*
X013777Y001217D01*
X013983Y001217D01*
X014175Y001296D01*
X014321Y001443D01*
X014400Y001634D01*
X014400Y001841D01*
X014321Y002032D01*
X014175Y002178D01*
X014032Y002237D01*
X014175Y002296D01*
X014321Y002443D01*
X014400Y002634D01*
X014400Y002841D01*
X014321Y003032D01*
X014175Y003178D01*
X013983Y003257D01*
X013892Y003257D01*
X013280Y003869D01*
X013241Y003962D01*
X013155Y004049D01*
X013041Y004096D01*
X012919Y004096D01*
X012805Y004049D01*
X012719Y003962D01*
X012672Y003849D01*
X012672Y003726D01*
X012719Y003613D01*
X012805Y003526D01*
X012898Y003487D01*
X013414Y002971D01*
X013360Y002841D01*
X013360Y002837D01*
X013321Y002932D01*
X013175Y003078D01*
X012983Y003157D01*
X012777Y003157D01*
X012585Y003078D01*
X012439Y002932D01*
X012400Y002837D01*
X012400Y002841D01*
X012321Y003032D01*
X012175Y003178D01*
X011983Y003257D01*
X011777Y003257D01*
X011585Y003178D01*
X011439Y003032D01*
X011360Y002841D01*
X011360Y002634D01*
X011439Y002443D01*
X011585Y002296D01*
X011728Y002237D01*
X011585Y002178D01*
X011439Y002032D01*
X011360Y001841D01*
X011360Y001634D01*
X011439Y001443D01*
X011585Y001296D01*
X011777Y001217D01*
X011983Y001217D01*
X012175Y001296D01*
X012321Y001443D01*
X012360Y001537D01*
X012360Y001534D01*
X012439Y001343D01*
X012585Y001196D01*
X012777Y001117D01*
X013025Y001135D02*
X014630Y001135D01*
X014630Y001233D02*
X014021Y001233D01*
X014210Y001332D02*
X014630Y001332D01*
X014630Y001430D02*
X014308Y001430D01*
X014356Y001529D02*
X014630Y001529D01*
X014630Y001627D02*
X014397Y001627D01*
X014400Y001726D02*
X014630Y001726D01*
X014630Y001824D02*
X014400Y001824D01*
X014366Y001923D02*
X014630Y001923D01*
X014630Y002021D02*
X014325Y002021D01*
X014233Y002120D02*
X014630Y002120D01*
X014630Y002218D02*
X014078Y002218D01*
X014195Y002317D02*
X014630Y002317D01*
X014630Y002415D02*
X014293Y002415D01*
X014350Y002514D02*
X014630Y002514D01*
X014630Y002612D02*
X014391Y002612D01*
X014400Y002711D02*
X014630Y002711D01*
X014630Y002809D02*
X014400Y002809D01*
X014372Y002908D02*
X014630Y002908D01*
X014630Y003006D02*
X014332Y003006D01*
X014248Y003105D02*
X014630Y003105D01*
X014630Y003203D02*
X014114Y003203D01*
X013848Y003302D02*
X014630Y003302D01*
X014630Y003400D02*
X013749Y003400D01*
X013651Y003499D02*
X014630Y003499D01*
X014630Y003597D02*
X013552Y003597D01*
X013454Y003696D02*
X014630Y003696D01*
X014630Y003794D02*
X013355Y003794D01*
X013270Y003893D02*
X014630Y003893D01*
X014630Y003991D02*
X013212Y003991D01*
X013056Y004090D02*
X014630Y004090D01*
X014630Y004188D02*
X002985Y004188D01*
X002985Y004090D02*
X006357Y004090D01*
X006388Y004102D02*
X006217Y004032D01*
X006086Y003901D01*
X006015Y003730D01*
X006015Y003545D01*
X006086Y003374D01*
X006217Y003243D01*
X006388Y003172D01*
X006572Y003172D01*
X006743Y003243D01*
X006874Y003374D01*
X006945Y003545D01*
X006945Y003730D01*
X006874Y003901D01*
X006743Y004032D01*
X006572Y004102D01*
X006388Y004102D01*
X006603Y004090D02*
X012904Y004090D01*
X012748Y003991D02*
X006784Y003991D01*
X006878Y003893D02*
X012690Y003893D01*
X012672Y003794D02*
X006918Y003794D01*
X006945Y003696D02*
X012684Y003696D01*
X012734Y003597D02*
X006945Y003597D01*
X006926Y003499D02*
X012871Y003499D01*
X012985Y003400D02*
X006885Y003400D01*
X006802Y003302D02*
X013084Y003302D01*
X013182Y003203D02*
X012114Y003203D01*
X012248Y003105D02*
X012649Y003105D01*
X012513Y003006D02*
X012332Y003006D01*
X012372Y002908D02*
X012429Y002908D01*
X013111Y003105D02*
X013281Y003105D01*
X013247Y003006D02*
X013379Y003006D01*
X013388Y002908D02*
X013331Y002908D01*
X014830Y002908D02*
X023580Y002908D01*
X023580Y003006D02*
X014830Y003006D01*
X014830Y003105D02*
X023580Y003105D01*
X023580Y003203D02*
X014830Y003203D01*
X014830Y003302D02*
X023580Y003302D01*
X023580Y003400D02*
X014830Y003400D01*
X014830Y003499D02*
X023580Y003499D01*
X023580Y003597D02*
X014830Y003597D01*
X014830Y003696D02*
X023580Y003696D01*
X023580Y003794D02*
X014830Y003794D01*
X014830Y003893D02*
X023548Y003893D01*
X023580Y003861D02*
X023580Y000937D01*
X014830Y000937D01*
X014830Y004187D01*
X023254Y004187D01*
X023580Y003861D01*
X023450Y003991D02*
X014830Y003991D01*
X014830Y004090D02*
X023351Y004090D01*
X023300Y004367D02*
X023930Y003737D01*
X023300Y004367D02*
X014660Y004367D01*
X014294Y004001D01*
X013564Y004001D01*
X013560Y003997D01*
X012796Y004385D02*
X002985Y004385D01*
X002985Y004287D02*
X014646Y004287D01*
X013740Y005075D02*
X013211Y005075D01*
X013665Y005272D02*
X012275Y005272D01*
X012299Y005370D02*
X013641Y005370D01*
X013651Y005469D02*
X012289Y005469D01*
X012239Y005567D02*
X013701Y005567D01*
X013736Y005173D02*
X012363Y005173D01*
X012121Y004878D02*
X002985Y004878D01*
X002985Y004976D02*
X012023Y004976D01*
X011924Y005075D02*
X002985Y005075D01*
X002985Y005173D02*
X011816Y005173D01*
X011745Y005272D02*
X002985Y005272D01*
X002985Y005370D02*
X011721Y005370D01*
X011731Y005469D02*
X002985Y005469D01*
X002985Y005567D02*
X011781Y005567D01*
X012220Y004779D02*
X002985Y004779D01*
X002985Y004681D02*
X012672Y004681D01*
X012672Y004582D02*
X002985Y004582D01*
X002985Y004484D02*
X012710Y004484D01*
X011646Y003203D02*
X006647Y003203D01*
X006313Y003203D02*
X002985Y003203D01*
X002985Y003105D02*
X011512Y003105D01*
X011428Y003006D02*
X002985Y003006D01*
X002985Y002908D02*
X011388Y002908D01*
X011360Y002809D02*
X002985Y002809D01*
X002985Y002711D02*
X011360Y002711D01*
X011369Y002612D02*
X002985Y002612D01*
X002985Y002514D02*
X011410Y002514D01*
X011467Y002415D02*
X002985Y002415D01*
X002985Y002317D02*
X011565Y002317D01*
X011682Y002218D02*
X002985Y002218D01*
X002985Y002120D02*
X011527Y002120D01*
X011435Y002021D02*
X002985Y002021D01*
X002985Y001923D02*
X011394Y001923D01*
X011360Y001824D02*
X002985Y001824D01*
X002985Y001726D02*
X011360Y001726D01*
X011363Y001627D02*
X002985Y001627D01*
X002985Y001529D02*
X011404Y001529D01*
X011452Y001430D02*
X002985Y001430D01*
X002994Y001332D02*
X011550Y001332D01*
X011739Y001233D02*
X003026Y001233D01*
X002785Y001429D02*
X002787Y001375D01*
X002792Y001322D01*
X002801Y001269D01*
X002814Y001217D01*
X002830Y001165D01*
X002850Y001115D01*
X002873Y001067D01*
X002900Y001020D01*
X002929Y000975D01*
X002962Y000932D01*
X002997Y000892D01*
X003035Y000854D01*
X003075Y000819D01*
X003118Y000786D01*
X003163Y000757D01*
X003210Y000730D01*
X003258Y000707D01*
X003308Y000687D01*
X003360Y000671D01*
X003412Y000658D01*
X003465Y000649D01*
X003518Y000644D01*
X003572Y000642D01*
X002985Y003302D02*
X006158Y003302D01*
X006075Y003400D02*
X002985Y003400D01*
X002985Y003499D02*
X006034Y003499D01*
X006015Y003597D02*
X002985Y003597D01*
X002985Y003696D02*
X006015Y003696D01*
X006042Y003794D02*
X002985Y003794D01*
X002985Y003893D02*
X006082Y003893D01*
X006176Y003991D02*
X002985Y003991D01*
X004080Y004687D02*
X004680Y005287D01*
X006080Y005287D01*
X007480Y005287D01*
X007630Y005137D01*
X007980Y005487D01*
X009830Y005487D01*
X005055Y006575D02*
X004969Y006369D01*
X004811Y006210D01*
X004604Y006125D01*
X003556Y006125D01*
X003349Y006210D01*
X003191Y006369D01*
X003105Y006575D01*
X003105Y006799D01*
X003191Y007006D01*
X003349Y007164D01*
X003556Y007250D01*
X004604Y007250D01*
X004811Y007164D01*
X004969Y007006D01*
X005055Y006799D01*
X005055Y006575D01*
X005045Y006552D02*
X017630Y006552D01*
X017630Y006454D02*
X005005Y006454D01*
X004956Y006355D02*
X017630Y006355D01*
X017728Y006257D02*
X004857Y006257D01*
X004685Y006158D02*
X023912Y006158D01*
X023814Y006060D02*
X002985Y006060D01*
X002985Y006158D02*
X003475Y006158D01*
X003303Y006257D02*
X002985Y006257D01*
X002985Y006355D02*
X003204Y006355D01*
X003155Y006454D02*
X002985Y006454D01*
X002985Y006552D02*
X003115Y006552D01*
X003105Y006651D02*
X002985Y006651D01*
X002985Y006749D02*
X003105Y006749D01*
X003125Y006848D02*
X002985Y006848D01*
X002985Y006946D02*
X003166Y006946D01*
X003229Y007045D02*
X002985Y007045D01*
X002985Y007143D02*
X003328Y007143D01*
X003536Y007242D02*
X002985Y007242D01*
X002985Y007340D02*
X017630Y007340D01*
X017630Y007242D02*
X004624Y007242D01*
X004832Y007143D02*
X017630Y007143D01*
X017630Y007045D02*
X004931Y007045D01*
X004994Y006946D02*
X017630Y006946D01*
X017630Y006848D02*
X005035Y006848D01*
X005055Y006749D02*
X017630Y006749D01*
X017630Y006651D02*
X005055Y006651D01*
X014830Y002809D02*
X023580Y002809D01*
X023580Y002711D02*
X014830Y002711D01*
X014830Y002612D02*
X023580Y002612D01*
X023580Y002514D02*
X014830Y002514D01*
X014830Y002415D02*
X016771Y002415D01*
X016773Y002416D02*
X016651Y002294D01*
X016584Y002134D01*
X016584Y001961D01*
X016651Y001802D01*
X016773Y001679D01*
X016933Y001613D01*
X017105Y001613D01*
X017265Y001679D01*
X017387Y001802D01*
X017454Y001961D01*
X017454Y002134D01*
X017387Y002294D01*
X017265Y002416D01*
X017105Y002483D01*
X016933Y002483D01*
X016773Y002416D01*
X016673Y002317D02*
X014830Y002317D01*
X014830Y002218D02*
X016619Y002218D01*
X016584Y002120D02*
X014830Y002120D01*
X014830Y002021D02*
X016584Y002021D01*
X016600Y001923D02*
X014830Y001923D01*
X014830Y001824D02*
X016641Y001824D01*
X016727Y001726D02*
X014830Y001726D01*
X014830Y001627D02*
X016899Y001627D01*
X017139Y001627D02*
X019899Y001627D01*
X019933Y001613D02*
X020105Y001613D01*
X020265Y001679D01*
X020387Y001802D01*
X020454Y001961D01*
X020454Y002134D01*
X020387Y002294D01*
X020265Y002416D01*
X020105Y002483D01*
X019933Y002483D01*
X019773Y002416D01*
X019651Y002294D01*
X019584Y002134D01*
X019584Y001961D01*
X019651Y001802D01*
X019773Y001679D01*
X019933Y001613D01*
X020139Y001627D02*
X022899Y001627D01*
X022933Y001613D02*
X023105Y001613D01*
X023265Y001679D01*
X023387Y001802D01*
X023454Y001961D01*
X023454Y002134D01*
X023387Y002294D01*
X023265Y002416D01*
X023105Y002483D01*
X022933Y002483D01*
X022773Y002416D01*
X022651Y002294D01*
X022584Y002134D01*
X022584Y001961D01*
X022651Y001802D01*
X022773Y001679D01*
X022933Y001613D01*
X023139Y001627D02*
X023580Y001627D01*
X023580Y001529D02*
X014830Y001529D01*
X014830Y001430D02*
X023580Y001430D01*
X023580Y001332D02*
X014830Y001332D01*
X014830Y001233D02*
X023580Y001233D01*
X023580Y001135D02*
X014830Y001135D01*
X014830Y001036D02*
X023580Y001036D01*
X023580Y000938D02*
X014830Y000938D01*
X013739Y001233D02*
X013211Y001233D01*
X013310Y001332D02*
X013550Y001332D01*
X013452Y001430D02*
X013357Y001430D01*
X013398Y001529D02*
X013404Y001529D01*
X012549Y001233D02*
X012021Y001233D01*
X012210Y001332D02*
X012450Y001332D01*
X012403Y001430D02*
X012308Y001430D01*
X012356Y001529D02*
X012362Y001529D01*
X017311Y001726D02*
X019727Y001726D01*
X019641Y001824D02*
X017397Y001824D01*
X017437Y001923D02*
X019600Y001923D01*
X019584Y002021D02*
X017454Y002021D01*
X017454Y002120D02*
X019584Y002120D01*
X019619Y002218D02*
X017419Y002218D01*
X017365Y002317D02*
X019673Y002317D01*
X019771Y002415D02*
X017267Y002415D01*
X020267Y002415D02*
X022771Y002415D01*
X022673Y002317D02*
X020365Y002317D01*
X020419Y002218D02*
X022619Y002218D01*
X022584Y002120D02*
X020454Y002120D01*
X020454Y002021D02*
X022584Y002021D01*
X022600Y001923D02*
X020437Y001923D01*
X020397Y001824D02*
X022641Y001824D01*
X022727Y001726D02*
X020311Y001726D01*
X023311Y001726D02*
X023580Y001726D01*
X023580Y001824D02*
X023397Y001824D01*
X023437Y001923D02*
X023580Y001923D01*
X023580Y002021D02*
X023454Y002021D01*
X023454Y002120D02*
X023580Y002120D01*
X023580Y002218D02*
X023419Y002218D01*
X023365Y002317D02*
X023580Y002317D01*
X023580Y002415D02*
X023267Y002415D01*
X023780Y002415D02*
X026775Y002415D01*
X026676Y002317D02*
X023780Y002317D01*
X023780Y002218D02*
X026175Y002218D01*
X026077Y002120D02*
X023780Y002120D01*
X025430Y001737D02*
X025480Y001787D01*
X023780Y001233D02*
X036132Y001233D01*
X036600Y001135D02*
X023780Y001135D01*
X023780Y001036D02*
X036698Y001036D01*
X036797Y000938D02*
X023780Y000938D01*
X025180Y005187D02*
X024930Y005437D01*
X024830Y005437D01*
X027858Y007931D02*
X028005Y007931D01*
X028474Y009803D02*
X028590Y009803D01*
X028590Y009901D02*
X028572Y009901D01*
X029892Y010394D02*
X029940Y010394D01*
X028479Y012955D02*
X027969Y012955D01*
X027945Y013053D02*
X028577Y013053D01*
X028676Y013152D02*
X027874Y013152D01*
X026836Y013447D02*
X026647Y013447D01*
X026660Y013546D02*
X026715Y013546D01*
X026736Y013250D02*
X026624Y013250D01*
X024519Y012659D02*
X024044Y012659D01*
X030792Y013644D02*
X033768Y013644D01*
X033580Y015437D02*
X034730Y015437D01*
X032860Y015910D02*
X031475Y015910D01*
X031574Y016008D02*
X032761Y016008D01*
X032700Y016107D02*
X031635Y016107D01*
X031676Y016205D02*
X032659Y016205D01*
X032648Y016304D02*
X031687Y016304D01*
X031687Y016402D02*
X032648Y016402D01*
X032672Y016501D02*
X031663Y016501D01*
X031622Y016599D02*
X032713Y016599D01*
X032792Y016698D02*
X031543Y016698D01*
X031419Y016796D02*
X032916Y016796D01*
X030916Y016796D02*
X030419Y016796D01*
X030543Y016698D02*
X030792Y016698D01*
X030713Y016599D02*
X030622Y016599D01*
X030663Y016501D02*
X030672Y016501D01*
X030700Y016107D02*
X030635Y016107D01*
X030574Y016008D02*
X030761Y016008D01*
X030860Y015910D02*
X030475Y015910D01*
X037711Y013250D02*
X039490Y013250D01*
X039490Y013349D02*
X037810Y013349D01*
X037908Y013447D02*
X039490Y013447D01*
X039490Y013546D02*
X038007Y013546D01*
X038245Y013644D02*
X039490Y013644D01*
X039406Y013743D02*
X038303Y013743D01*
X038319Y013841D02*
X039308Y013841D01*
X039549Y014137D02*
X039589Y014137D01*
X039589Y014235D02*
X039451Y014235D01*
X039469Y014334D02*
X039624Y014334D01*
X039672Y014432D02*
X039453Y014432D01*
X039395Y014531D02*
X039771Y014531D01*
X040350Y016467D02*
X041330Y017447D01*
X041330Y017723D01*
X041380Y017773D01*
X041367Y019540D01*
X041663Y020622D02*
X041717Y020620D01*
X041770Y020615D01*
X041823Y020606D01*
X041875Y020593D01*
X041927Y020577D01*
X041977Y020557D01*
X042025Y020534D01*
X042072Y020507D01*
X042117Y020478D01*
X042160Y020445D01*
X042200Y020410D01*
X042238Y020372D01*
X042273Y020332D01*
X042306Y020289D01*
X042335Y020244D01*
X042362Y020197D01*
X042385Y020149D01*
X042405Y020099D01*
X042421Y020047D01*
X042434Y019995D01*
X042443Y019942D01*
X042448Y019889D01*
X042450Y019835D01*
X042250Y018766D02*
X040565Y018766D01*
X040732Y018668D02*
X042250Y018668D01*
X042250Y018569D02*
X040830Y018569D01*
X040882Y018471D02*
X042250Y018471D01*
X042250Y018372D02*
X040923Y018372D01*
X040939Y018274D02*
X042250Y018274D01*
X042250Y018175D02*
X040939Y018175D01*
X040930Y018077D02*
X042250Y018077D01*
X042250Y017978D02*
X040889Y017978D01*
X040848Y017880D02*
X042250Y017880D01*
X042250Y017781D02*
X040750Y017781D01*
X040609Y017683D02*
X042250Y017683D01*
X038902Y016895D02*
X038900Y016895D01*
X041532Y009507D02*
X041710Y009507D01*
X041710Y009409D02*
X041630Y009409D01*
X023630Y008437D02*
X021430Y008437D01*
X021180Y008687D01*
X021180Y008837D01*
X038363Y000938D02*
X041973Y000938D01*
X042094Y001036D02*
X038462Y001036D01*
D11*
X039200Y005995D03*
X039980Y005995D03*
X039980Y006979D03*
X039200Y006979D03*
D12*
X041050Y008857D03*
X041050Y004117D03*
D13*
X040346Y015459D03*
X040346Y018215D03*
D14*
X041330Y017723D03*
X041330Y015951D03*
D15*
X040350Y016467D03*
X039210Y016467D03*
X033168Y016337D03*
X032168Y016237D03*
X031168Y016337D03*
X030168Y016337D03*
X029168Y016237D03*
X028168Y016337D03*
X026930Y019387D03*
X025930Y019487D03*
X024930Y019387D03*
X028168Y019587D03*
X029168Y019487D03*
X030168Y019587D03*
X031168Y019587D03*
X032168Y019487D03*
X033168Y019587D03*
X034168Y019587D03*
X035168Y019487D03*
X036168Y019587D03*
X037168Y019587D03*
X038168Y019487D03*
X039168Y019587D03*
X020930Y019387D03*
X019930Y019487D03*
X018930Y019387D03*
X014930Y019387D03*
X013930Y019487D03*
X012930Y019387D03*
X008930Y019387D03*
X007930Y019487D03*
X006930Y019387D03*
X011880Y002737D03*
X012880Y002637D03*
X013880Y002737D03*
X013880Y001737D03*
X012880Y001637D03*
X011880Y001737D03*
X025480Y001787D03*
X026480Y001787D03*
X027480Y001787D03*
X028480Y001787D03*
X029480Y001787D03*
X037580Y001637D03*
X038580Y001737D03*
X039580Y001637D03*
D16*
X039739Y010219D02*
X039741Y010254D01*
X039747Y010289D01*
X039757Y010323D01*
X039770Y010356D01*
X039787Y010387D01*
X039808Y010415D01*
X039831Y010442D01*
X039858Y010465D01*
X039886Y010486D01*
X039917Y010503D01*
X039950Y010516D01*
X039984Y010526D01*
X040019Y010532D01*
X040054Y010534D01*
X040089Y010532D01*
X040124Y010526D01*
X040158Y010516D01*
X040191Y010503D01*
X040222Y010486D01*
X040250Y010465D01*
X040277Y010442D01*
X040300Y010415D01*
X040321Y010387D01*
X040338Y010356D01*
X040351Y010323D01*
X040361Y010289D01*
X040367Y010254D01*
X040369Y010219D01*
X040367Y010184D01*
X040361Y010149D01*
X040351Y010115D01*
X040338Y010082D01*
X040321Y010051D01*
X040300Y010023D01*
X040277Y009996D01*
X040250Y009973D01*
X040222Y009952D01*
X040191Y009935D01*
X040158Y009922D01*
X040124Y009912D01*
X040089Y009906D01*
X040054Y009904D01*
X040019Y009906D01*
X039984Y009912D01*
X039950Y009922D01*
X039917Y009935D01*
X039886Y009952D01*
X039858Y009973D01*
X039831Y009996D01*
X039808Y010023D01*
X039787Y010051D01*
X039770Y010082D01*
X039757Y010115D01*
X039747Y010149D01*
X039741Y010184D01*
X039739Y010219D01*
X039739Y014156D02*
X039741Y014191D01*
X039747Y014226D01*
X039757Y014260D01*
X039770Y014293D01*
X039787Y014324D01*
X039808Y014352D01*
X039831Y014379D01*
X039858Y014402D01*
X039886Y014423D01*
X039917Y014440D01*
X039950Y014453D01*
X039984Y014463D01*
X040019Y014469D01*
X040054Y014471D01*
X040089Y014469D01*
X040124Y014463D01*
X040158Y014453D01*
X040191Y014440D01*
X040222Y014423D01*
X040250Y014402D01*
X040277Y014379D01*
X040300Y014352D01*
X040321Y014324D01*
X040338Y014293D01*
X040351Y014260D01*
X040361Y014226D01*
X040367Y014191D01*
X040369Y014156D01*
X040367Y014121D01*
X040361Y014086D01*
X040351Y014052D01*
X040338Y014019D01*
X040321Y013988D01*
X040300Y013960D01*
X040277Y013933D01*
X040250Y013910D01*
X040222Y013889D01*
X040191Y013872D01*
X040158Y013859D01*
X040124Y013849D01*
X040089Y013843D01*
X040054Y013841D01*
X040019Y013843D01*
X039984Y013849D01*
X039950Y013859D01*
X039917Y013872D01*
X039886Y013889D01*
X039858Y013910D01*
X039831Y013933D01*
X039808Y013960D01*
X039787Y013988D01*
X039770Y014019D01*
X039757Y014052D01*
X039747Y014086D01*
X039741Y014121D01*
X039739Y014156D01*
D17*
X027080Y013887D03*
X027080Y014887D03*
X027080Y015887D03*
X027080Y016887D03*
X027080Y017887D03*
X022080Y017887D03*
X021080Y017887D03*
X021080Y016887D03*
X022080Y016887D03*
X022080Y015887D03*
X021080Y015887D03*
X021080Y014887D03*
X022080Y014887D03*
X022080Y013887D03*
X021080Y013887D03*
X021080Y012887D03*
X022080Y012887D03*
X022080Y011887D03*
X021080Y011887D03*
X021080Y010887D03*
X022080Y010887D03*
X027080Y010887D03*
X027080Y011887D03*
X027080Y012887D03*
X016080Y012887D03*
X015080Y012887D03*
X015080Y011887D03*
X016080Y011887D03*
X016080Y010887D03*
X015080Y010887D03*
X010080Y010887D03*
X009080Y010887D03*
X009080Y011887D03*
X010080Y011887D03*
X010080Y012887D03*
X009080Y012887D03*
X009080Y013887D03*
X010080Y013887D03*
X010080Y014887D03*
X009080Y014887D03*
X009080Y015887D03*
X010080Y015887D03*
X010080Y016887D03*
X009080Y016887D03*
X009080Y017887D03*
X010080Y017887D03*
X015080Y017887D03*
X016080Y017887D03*
X016080Y016887D03*
X015080Y016887D03*
X015080Y015887D03*
X016080Y015887D03*
X016080Y014887D03*
X015080Y014887D03*
X015080Y013887D03*
X016080Y013887D03*
X004080Y013887D03*
X004080Y014887D03*
X004080Y015887D03*
X004080Y016887D03*
X004080Y017887D03*
X004080Y012887D03*
X004080Y011887D03*
X004080Y010887D03*
D18*
X005930Y019487D03*
X011930Y019487D03*
X017930Y019487D03*
X023930Y019487D03*
X036580Y001737D03*
D19*
X026280Y011837D03*
X025680Y011837D03*
X025680Y012837D03*
X026280Y012837D03*
X026280Y013837D03*
X025680Y013837D03*
X020280Y013837D03*
X019680Y013837D03*
X019680Y012837D03*
X020280Y012837D03*
X020280Y011837D03*
X019680Y011837D03*
X014280Y011837D03*
X013680Y011837D03*
X013680Y012837D03*
X014280Y012837D03*
X014280Y013837D03*
X013680Y013837D03*
X007280Y013637D03*
X006680Y013637D03*
X006680Y014537D03*
X007280Y014537D03*
X007280Y015437D03*
X006680Y015437D03*
D20*
X015641Y002048D03*
X017019Y002048D03*
X018641Y002048D03*
X020019Y002048D03*
X021641Y002048D03*
X023019Y002048D03*
D21*
X028730Y018287D03*
X029080Y018287D03*
X029430Y018287D03*
D22*
X010487Y008745D03*
D23*
X009503Y008745D03*
X008519Y008745D03*
X007535Y008745D03*
X006550Y008745D03*
X005566Y008745D03*
X006074Y009729D03*
X007058Y009729D03*
X008043Y009729D03*
X009027Y009729D03*
X010011Y009729D03*
X010995Y009729D03*
D24*
X004493Y006687D02*
X003668Y006687D01*
X003668Y004687D02*
X004493Y004687D01*
D25*
X024830Y004437D03*
X025530Y004437D03*
X025530Y004937D03*
X024830Y004937D03*
X024830Y005437D03*
X025530Y005437D03*
X026680Y005437D03*
X026680Y004937D03*
X026680Y004437D03*
X026680Y003937D03*
X026680Y003437D03*
X025530Y003437D03*
X024830Y003437D03*
X024830Y003937D03*
X025530Y003937D03*
D26*
X018580Y008937D03*
X006480Y002637D03*
D27*
X006480Y003637D03*
X017580Y008937D03*
D28*
X021980Y008837D03*
D29*
X021180Y008837D03*
D30*
X003966Y001823D03*
X041367Y001823D03*
X041367Y019540D03*
X003966Y019540D03*
D31*
X004330Y018587D02*
X010080Y018587D01*
X016080Y018587D01*
X022080Y018587D01*
X022080Y017887D01*
X016080Y017887D02*
X016080Y018587D01*
X010080Y018587D02*
X010080Y017887D01*
X004330Y018587D02*
X004080Y018337D01*
X004080Y017887D01*
X003780Y017887D01*
X003455Y017562D01*
X003455Y011887D01*
X004080Y011887D01*
X004080Y004687D02*
X003455Y004562D01*
X003455Y002467D01*
X003966Y001823D01*
D32*
X007630Y005137D03*
X006080Y005287D03*
X009830Y005487D03*
X009830Y005937D03*
X009830Y006387D03*
X009830Y006837D03*
X013080Y007687D03*
X014430Y008887D03*
X018080Y007987D03*
X018080Y007537D03*
X018080Y007087D03*
X018080Y006637D03*
X018580Y006637D03*
X019080Y006637D03*
X019080Y007087D03*
X019080Y007537D03*
X019080Y007987D03*
X018580Y007987D03*
X021080Y007987D03*
X021580Y007987D03*
X022080Y007987D03*
X022080Y007537D03*
X022080Y007087D03*
X022080Y006637D03*
X021580Y006637D03*
X021080Y006637D03*
X021080Y007087D03*
X021080Y007537D03*
X019480Y011337D03*
X018080Y011687D03*
X017580Y011687D03*
X017830Y012437D03*
X018330Y013687D03*
X018830Y013687D03*
X023580Y011687D03*
X024080Y011687D03*
X025480Y011337D03*
X023830Y012437D03*
X026080Y015187D03*
X030580Y015437D03*
X033580Y015437D03*
X034730Y015437D03*
X033580Y018687D03*
X036580Y018687D03*
X039580Y018687D03*
X030580Y018687D03*
X013480Y011337D03*
X012080Y011687D03*
X011580Y011687D03*
X011830Y012437D03*
X012330Y013687D03*
X012830Y013687D03*
X007680Y014437D03*
X007680Y015097D03*
X005980Y012337D03*
X005980Y011537D03*
X007480Y011337D03*
X007630Y011887D03*
X012980Y004637D03*
X012980Y003787D03*
X028930Y002287D03*
X030630Y001437D03*
X037030Y002537D03*
X038580Y002937D03*
D33*
X038830Y002687D03*
X037330Y002337D03*
X034630Y002537D03*
X034620Y003277D03*
X035530Y003937D03*
X034430Y004337D03*
X034080Y004187D03*
X035530Y004477D03*
X035830Y004987D03*
X036330Y004987D03*
X037130Y004987D03*
X036580Y005437D03*
X036330Y005787D03*
X035580Y006137D03*
X035505Y007062D03*
X036330Y007037D03*
X036830Y007037D03*
X036330Y007837D03*
X036315Y008227D03*
X036730Y008487D03*
X037080Y008637D03*
X035280Y009587D03*
X033980Y009587D03*
X033880Y009987D03*
X033580Y010187D03*
X033910Y010347D03*
X034980Y010787D03*
X035330Y010787D03*
X035530Y010487D03*
X036730Y010687D03*
X037080Y010687D03*
X037630Y010587D03*
X038080Y011187D03*
X038130Y011687D03*
X037230Y011487D03*
X036003Y011445D03*
X034930Y011287D03*
X034280Y011787D03*
X033930Y011787D03*
X033580Y011787D03*
X034130Y012287D03*
X034380Y012537D03*
X034430Y012887D03*
X034780Y013137D03*
X032630Y012837D03*
X032630Y012437D03*
X031880Y011987D03*
X032180Y011737D03*
X032510Y011907D03*
X030530Y012137D03*
X029230Y011587D03*
X029030Y012237D03*
X030030Y012837D03*
X030430Y013337D03*
X027680Y012937D03*
X027680Y012587D03*
X027580Y012237D03*
X028680Y010937D03*
X029480Y010437D03*
X029880Y010487D03*
X029580Y010087D03*
X029420Y009777D03*
X028980Y009287D03*
X028980Y008687D03*
X029230Y008287D03*
X029230Y007937D03*
X028980Y007187D03*
X029580Y006687D03*
X030330Y006537D03*
X031580Y006687D03*
X031930Y006837D03*
X031680Y007087D03*
X033580Y007887D03*
X033880Y008137D03*
X035030Y008337D03*
X032330Y009587D03*
X032630Y009787D03*
X031130Y009187D03*
X031130Y008837D03*
X031480Y008787D03*
X030530Y009387D03*
X030880Y009487D03*
X027630Y009087D03*
X025280Y008487D03*
X024930Y008287D03*
X024780Y007887D03*
X025680Y007537D03*
X027740Y007667D03*
X027730Y007237D03*
X031280Y005637D03*
X031530Y005887D03*
X032880Y005737D03*
X033230Y005637D03*
X031830Y004187D03*
X031580Y003937D03*
X031330Y003687D03*
X031830Y002187D03*
X038830Y004437D03*
X038630Y005487D03*
X037930Y005887D03*
X037230Y005887D03*
X039280Y012187D03*
X037530Y013077D03*
X038030Y013837D03*
X039180Y014337D03*
X037180Y014637D03*
X037180Y015137D03*
X034730Y016287D03*
X027980Y017637D03*
X027830Y015437D03*
X027580Y014137D03*
X023880Y008587D03*
X023620Y007927D03*
X013930Y005387D03*
X012010Y005387D03*
X011660Y003997D03*
X013560Y003997D03*
X008430Y017387D03*
X008330Y017787D03*
X027680Y020087D03*
D34*
X029430Y018287D02*
X038130Y018287D01*
X038630Y017787D01*
X038630Y016037D01*
X039830Y014837D01*
X041430Y014837D01*
X041980Y014287D01*
X041980Y005287D01*
X041730Y005037D01*
X040680Y005037D01*
X038580Y002937D01*
X025080Y002937D01*
X024680Y002937D01*
X024180Y003437D01*
X024180Y003837D01*
X023380Y004637D01*
X012980Y004637D01*
X012980Y003787D02*
X013880Y002887D01*
X013880Y002737D01*
X006480Y002637D02*
X004780Y002637D01*
X003966Y001823D01*
X005330Y008287D02*
X005080Y008537D01*
X005080Y012287D01*
X004480Y012887D01*
X004080Y012887D01*
X004080Y013887D02*
X005566Y012401D01*
X005566Y008745D01*
X005330Y008287D02*
X005830Y008287D01*
X006074Y008531D01*
X006074Y009729D01*
X007058Y009729D02*
X007058Y012437D01*
X004630Y014866D01*
X004630Y015387D01*
X004130Y015887D01*
X004080Y015887D01*
X004080Y014887D02*
X006550Y012417D01*
X006550Y008745D01*
D35*
X009830Y005487D02*
X011320Y003997D01*
X011660Y003997D01*
X011750Y004087D01*
X013480Y004087D01*
X013560Y004007D01*
X013560Y003997D01*
D36*
X013160Y004857D02*
X023800Y004857D01*
X024020Y005077D01*
X024020Y005787D01*
X024500Y006267D01*
X025380Y006267D01*
X026080Y006967D01*
X027400Y006967D01*
X027610Y006757D01*
X029100Y006757D01*
X029430Y007087D01*
X029830Y007087D01*
X029980Y007237D01*
X029980Y008637D01*
X029680Y008937D01*
X029680Y009987D01*
X029580Y010087D01*
X029830Y010187D02*
X029580Y010437D01*
X029480Y010437D01*
X029830Y010187D02*
X029830Y008987D01*
X030130Y008687D01*
X030130Y007137D01*
X029930Y006937D01*
X029480Y006937D01*
X029330Y006787D01*
X029330Y006687D01*
X029260Y006617D01*
X027550Y006617D01*
X027340Y006827D01*
X026150Y006827D01*
X025440Y006117D01*
X024560Y006117D01*
X024160Y005717D01*
X024160Y004177D01*
X024830Y003507D01*
X024830Y003437D01*
X025530Y003437D02*
X026330Y004237D01*
X026330Y005587D01*
X026530Y005787D01*
X026830Y005787D01*
X027030Y005587D01*
X030130Y005587D01*
X030880Y006337D01*
X030880Y009487D01*
X030930Y009437D01*
X031230Y009437D01*
X031330Y009337D01*
X036380Y009337D01*
X037630Y010587D01*
X037080Y010687D02*
X036880Y010887D01*
X036880Y011137D01*
X036180Y011837D01*
X034580Y011837D01*
X034130Y012287D01*
X034380Y012237D02*
X034630Y011987D01*
X036230Y011987D01*
X036730Y011487D01*
X037230Y011487D01*
X036730Y011087D02*
X036730Y010687D01*
X036730Y011087D02*
X036130Y011687D01*
X034380Y011687D01*
X034280Y011787D01*
X033930Y011787D02*
X033930Y011637D01*
X034530Y011037D01*
X035080Y011037D01*
X035330Y010787D01*
X034980Y010787D02*
X034580Y010787D01*
X033580Y011787D01*
X033330Y011887D02*
X033330Y011537D01*
X033630Y011537D01*
X034530Y010637D01*
X034780Y010637D01*
X034930Y010487D01*
X035530Y010487D01*
X034180Y010437D02*
X034180Y010287D01*
X033880Y009987D01*
X033580Y010187D02*
X033430Y010037D01*
X030330Y010037D01*
X029980Y009687D01*
X029980Y009087D01*
X030280Y008787D01*
X030280Y007037D01*
X029930Y006687D01*
X029930Y006537D01*
X029730Y006337D01*
X027430Y006337D01*
X027230Y006537D01*
X026280Y006537D01*
X025580Y005837D01*
X024790Y005837D01*
X024480Y005527D01*
X024480Y004787D01*
X024830Y004437D01*
X024710Y003937D02*
X024320Y004327D01*
X024320Y005657D01*
X024640Y005977D01*
X025500Y005977D01*
X026200Y006677D01*
X027290Y006677D01*
X027490Y006477D01*
X029370Y006477D01*
X029580Y006687D01*
X030080Y006637D02*
X030080Y006487D01*
X029780Y006187D01*
X027330Y006187D01*
X027130Y006387D01*
X026330Y006387D01*
X025530Y005587D01*
X025530Y005437D01*
X025880Y005187D02*
X025880Y005737D01*
X026390Y006247D01*
X027020Y006247D01*
X027230Y006037D01*
X029930Y006037D01*
X030330Y006437D01*
X030330Y006537D01*
X030580Y006437D02*
X030580Y008937D01*
X030280Y009237D01*
X030280Y009587D01*
X030430Y009737D01*
X032180Y009737D01*
X032330Y009587D01*
X032530Y009887D02*
X032630Y009787D01*
X032530Y009887D02*
X030380Y009887D01*
X030130Y009637D01*
X030130Y009137D01*
X030430Y008837D01*
X030430Y006987D01*
X030080Y006637D01*
X030580Y006437D02*
X030030Y005887D01*
X027130Y005887D01*
X026930Y006087D01*
X026430Y006087D01*
X026030Y005687D01*
X026030Y004937D01*
X025530Y004437D01*
X025530Y003937D02*
X026180Y004587D01*
X026180Y005637D01*
X026480Y005937D01*
X026880Y005937D01*
X027080Y005737D01*
X030080Y005737D01*
X030730Y006387D01*
X030730Y009187D01*
X030530Y009387D01*
X031130Y009187D02*
X036580Y009187D01*
X038380Y010987D01*
X038380Y011437D01*
X038130Y011687D01*
X038730Y011637D02*
X039280Y012187D01*
X039680Y011787D02*
X039680Y013737D01*
X039330Y014087D01*
X037930Y014087D01*
X037430Y013587D01*
X034180Y013587D01*
X033830Y013237D01*
X030530Y013237D01*
X030430Y013337D01*
X030330Y013587D02*
X029980Y013237D01*
X029030Y013237D01*
X028530Y012737D01*
X027880Y012737D01*
X027680Y012937D01*
X027680Y012587D02*
X028580Y012587D01*
X029080Y013087D01*
X033930Y013087D01*
X034280Y013437D01*
X037630Y013437D01*
X038030Y013837D01*
X037880Y014237D02*
X037380Y013737D01*
X034130Y013737D01*
X033780Y013387D01*
X030780Y013387D01*
X030580Y013587D01*
X030330Y013587D01*
X029180Y012637D02*
X028880Y012637D01*
X028480Y012237D01*
X027580Y012237D01*
X027730Y012537D02*
X027680Y012587D01*
X027980Y012087D02*
X028530Y012087D01*
X028930Y012487D01*
X029130Y012487D01*
X029730Y011887D01*
X031780Y011887D01*
X031880Y011987D01*
X032030Y012387D02*
X029430Y012387D01*
X029180Y012637D01*
X029030Y012237D02*
X028730Y011937D01*
X028030Y011937D01*
X027720Y011627D01*
X027720Y010577D01*
X027420Y010277D01*
X019490Y010277D01*
X019400Y010117D02*
X027510Y010117D01*
X027870Y010477D01*
X027870Y011527D01*
X028130Y011787D01*
X028780Y011787D01*
X028980Y011987D01*
X029380Y011987D01*
X029630Y011737D01*
X032180Y011737D01*
X032510Y011907D02*
X032030Y012387D01*
X033330Y011887D02*
X034230Y012787D01*
X034330Y012787D01*
X034430Y012887D01*
X034380Y012537D02*
X034380Y012237D01*
X035845Y011287D02*
X036003Y011445D01*
X035845Y011287D02*
X034930Y011287D01*
X034180Y010437D02*
X033980Y010637D01*
X033380Y010637D01*
X033080Y010337D01*
X030330Y010337D01*
X030280Y010387D01*
X030280Y010637D01*
X029480Y011437D01*
X029480Y011687D01*
X029330Y011837D01*
X029080Y011837D01*
X028880Y011637D01*
X028230Y011637D01*
X028010Y011417D01*
X028010Y010407D01*
X027540Y009937D01*
X019330Y009937D01*
X019240Y009777D02*
X027580Y009777D01*
X028150Y010347D01*
X028150Y011257D01*
X028380Y011487D01*
X029180Y011487D01*
X029230Y011537D01*
X029230Y011587D01*
X029380Y011337D02*
X028480Y011337D01*
X028290Y011147D01*
X028290Y010287D01*
X027620Y009617D01*
X019170Y009617D01*
X019100Y009467D02*
X027670Y009467D01*
X028440Y010237D01*
X028440Y011047D01*
X028580Y011187D01*
X028830Y011187D01*
X028930Y011087D01*
X028930Y010837D01*
X028780Y010687D01*
X028780Y009487D01*
X028980Y009287D01*
X029420Y009777D02*
X029540Y009657D01*
X029540Y008877D01*
X029840Y008577D01*
X029840Y007297D01*
X029780Y007237D01*
X029380Y007237D01*
X029040Y006897D01*
X027680Y006897D01*
X027460Y007117D01*
X026020Y007117D01*
X025320Y006417D01*
X024440Y006417D01*
X023880Y005857D01*
X023880Y005177D01*
X023700Y004997D01*
X014000Y004997D01*
X013930Y005067D01*
X013930Y005387D01*
X013160Y004857D02*
X013080Y004937D01*
X012330Y004937D01*
X012010Y005257D01*
X012010Y005387D01*
X009503Y008745D02*
X009372Y008745D01*
X008630Y009487D01*
X008630Y009737D01*
X007930Y010437D01*
X007930Y017387D01*
X008330Y017787D01*
X008430Y017387D02*
X008130Y017087D01*
X008130Y010487D01*
X008888Y009729D01*
X009027Y009729D01*
X008830Y010087D02*
X011180Y010087D01*
X011610Y009657D01*
X018510Y009657D01*
X018980Y009187D01*
X027540Y009187D01*
X027630Y009097D01*
X027630Y009087D01*
X027730Y009327D02*
X028580Y010177D01*
X028580Y010837D01*
X028680Y010937D01*
X029380Y011337D02*
X030130Y010587D01*
X030130Y010337D01*
X030280Y010187D01*
X033130Y010187D01*
X033430Y010487D01*
X033770Y010487D01*
X033910Y010347D01*
X033980Y009587D02*
X035280Y009587D01*
X036680Y009037D02*
X038730Y011087D01*
X038730Y011637D01*
X039680Y011787D02*
X036780Y008887D01*
X031580Y008887D01*
X031480Y008787D01*
X031330Y009037D02*
X036680Y009037D01*
X036980Y008737D02*
X034130Y008737D01*
X033880Y008487D01*
X033880Y008137D01*
X033630Y007837D02*
X033580Y007887D01*
X033630Y007837D02*
X036330Y007837D01*
X035830Y007687D02*
X033880Y007687D01*
X032080Y005887D01*
X031530Y005887D01*
X031080Y006287D02*
X031080Y006537D01*
X031630Y007087D01*
X031680Y007087D01*
X031930Y006837D02*
X031930Y006637D01*
X030230Y004937D01*
X030230Y005187D02*
X031580Y006537D01*
X031580Y006687D01*
X031080Y006287D02*
X030230Y005437D01*
X026680Y005437D01*
X025880Y005187D02*
X025630Y004937D01*
X025530Y004937D01*
X024830Y003937D02*
X024710Y003937D01*
X030430Y003437D02*
X032430Y005437D01*
X032430Y005837D01*
X032580Y005987D01*
X033080Y005987D01*
X033230Y005837D01*
X033230Y005637D01*
X032880Y005637D02*
X032880Y005737D01*
X032880Y005637D02*
X030430Y003187D01*
X031330Y003687D02*
X033930Y003687D01*
X034430Y004187D01*
X034430Y004337D01*
X034080Y004187D02*
X033830Y003937D01*
X031580Y003937D01*
X033130Y006137D02*
X034530Y004737D01*
X036080Y004737D01*
X036330Y004987D01*
X037130Y004987D01*
X036730Y005637D02*
X037630Y005637D01*
X038830Y004437D01*
X036730Y005637D02*
X036730Y006937D01*
X036830Y007037D01*
X036330Y007037D02*
X036330Y007187D01*
X035830Y007687D01*
X035030Y008337D02*
X035180Y008487D01*
X036730Y008487D01*
X036980Y008737D02*
X037080Y008637D01*
X033130Y006137D02*
X032530Y006137D01*
X032030Y005637D01*
X031280Y005637D01*
X028580Y007937D02*
X027880Y007237D01*
X027730Y007237D01*
X027740Y007667D02*
X028010Y007667D01*
X028630Y008287D01*
X029230Y008287D01*
X029230Y007937D02*
X028580Y007937D01*
X031130Y008837D02*
X031330Y009037D01*
X027730Y009327D02*
X019040Y009327D01*
X018560Y009807D01*
X011710Y009807D01*
X011230Y010287D01*
X008940Y010287D01*
X008580Y010647D01*
X008580Y016687D01*
X008780Y016887D01*
X009080Y016887D01*
X009080Y017587D02*
X008330Y016837D01*
X008330Y010587D01*
X008830Y010087D01*
X009320Y010447D02*
X011320Y010447D01*
X011820Y009947D01*
X018620Y009947D01*
X019100Y009467D01*
X021330Y010437D02*
X027330Y010437D01*
X027580Y010687D01*
X027580Y011687D01*
X027980Y012087D01*
X027580Y014137D02*
X027580Y014187D01*
X027380Y014387D01*
X037880Y014237D02*
X039080Y014237D01*
X039180Y014337D01*
X030180Y019587D02*
X030168Y019587D01*
X030180Y019587D02*
X029580Y020187D01*
X027780Y020187D01*
X027680Y020087D01*
X009080Y017887D02*
X009080Y017587D01*
X009080Y010887D02*
X009080Y010687D01*
X009320Y010447D01*
X037330Y002337D02*
X037680Y002687D01*
X038830Y002687D01*
D37*
X027080Y014887D02*
X027080Y015887D01*
X029080Y018287D02*
X029430Y018287D01*
X009080Y015887D02*
X009080Y014887D01*
D38*
X015641Y003437D02*
X015641Y002048D01*
X015641Y003437D02*
X018580Y003437D01*
X021641Y003437D01*
X021641Y002048D01*
X018641Y002048D02*
X018641Y002626D01*
X018580Y003437D01*
M02*
