G75*
G70*
%OFA0B0*%
%FSLAX24Y24*%
%IPPOS*%
%LPD*%
%AMOC8*
5,1,8,0,0,1.08239X$1,22.5*
%
%ADD10C,0.0100*%
%ADD11C,0.0070*%
%ADD12C,0.0020*%
%ADD13C,0.0050*%
%ADD14C,0.0040*%
%ADD15C,0.0060*%
%ADD16C,0.0000*%
D10*
X002785Y001429D02*
X002785Y019835D01*
X002787Y019889D01*
X002792Y019942D01*
X002801Y019995D01*
X002814Y020047D01*
X002830Y020099D01*
X002850Y020149D01*
X002873Y020197D01*
X002900Y020244D01*
X002929Y020289D01*
X002962Y020332D01*
X002997Y020372D01*
X003035Y020410D01*
X003075Y020445D01*
X003118Y020478D01*
X003163Y020507D01*
X003210Y020534D01*
X003258Y020557D01*
X003308Y020577D01*
X003360Y020593D01*
X003412Y020606D01*
X003465Y020615D01*
X003518Y020620D01*
X003572Y020622D01*
X041663Y020622D01*
X041717Y020620D01*
X041770Y020615D01*
X041823Y020606D01*
X041875Y020593D01*
X041927Y020577D01*
X041977Y020557D01*
X042025Y020534D01*
X042072Y020507D01*
X042117Y020478D01*
X042160Y020445D01*
X042200Y020410D01*
X042238Y020372D01*
X042273Y020332D01*
X042306Y020289D01*
X042335Y020244D01*
X042362Y020197D01*
X042385Y020149D01*
X042405Y020099D01*
X042421Y020047D01*
X042434Y019995D01*
X042443Y019942D01*
X042448Y019889D01*
X042450Y019835D01*
X042450Y001429D01*
X042448Y001375D01*
X042443Y001322D01*
X042434Y001269D01*
X042421Y001217D01*
X042405Y001165D01*
X042385Y001115D01*
X042362Y001067D01*
X042335Y001020D01*
X042306Y000975D01*
X042273Y000932D01*
X042238Y000892D01*
X042200Y000854D01*
X042160Y000819D01*
X042117Y000786D01*
X042072Y000757D01*
X042025Y000730D01*
X041977Y000707D01*
X041927Y000687D01*
X041875Y000671D01*
X041823Y000658D01*
X041770Y000649D01*
X041717Y000644D01*
X041663Y000642D01*
X003572Y000642D01*
X003518Y000644D01*
X003465Y000649D01*
X003412Y000658D01*
X003360Y000671D01*
X003308Y000687D01*
X003258Y000707D01*
X003210Y000730D01*
X003163Y000757D01*
X003118Y000786D01*
X003075Y000819D01*
X003035Y000854D01*
X002997Y000892D01*
X002962Y000932D01*
X002929Y000975D01*
X002900Y001020D01*
X002873Y001067D01*
X002850Y001115D01*
X002830Y001165D01*
X002814Y001217D01*
X002801Y001269D01*
X002792Y001322D01*
X002787Y001375D01*
X002785Y001429D01*
D11*
X017262Y005441D02*
X017526Y005441D01*
X017394Y005441D02*
X017394Y005968D01*
X017526Y005968D01*
X017394Y006232D02*
X017394Y006364D01*
X017922Y005968D02*
X017791Y005836D01*
X017791Y005441D01*
X018318Y005441D02*
X018318Y005968D01*
X017922Y005968D01*
X018714Y005968D02*
X018714Y005441D01*
X018846Y005441D02*
X018582Y005441D01*
X019110Y005441D02*
X019110Y006232D01*
X019374Y005968D01*
X019637Y006232D01*
X019637Y005441D01*
X020694Y005573D02*
X020826Y005441D01*
X021221Y005441D01*
X021221Y006232D01*
X020826Y006232D01*
X020694Y006100D01*
X020694Y005573D01*
X021486Y005573D02*
X021618Y005441D01*
X021881Y005441D01*
X022013Y005573D01*
X022278Y005441D02*
X022541Y005705D01*
X022410Y005705D02*
X022805Y005705D01*
X023070Y005573D02*
X023070Y006100D01*
X023202Y006232D01*
X023465Y006232D01*
X023597Y006100D01*
X023597Y005573D01*
X023465Y005441D01*
X023202Y005441D01*
X023070Y005573D01*
X022805Y005441D02*
X022805Y006232D01*
X022410Y006232D01*
X022278Y006100D01*
X022278Y005836D01*
X022410Y005705D01*
X022013Y006100D02*
X021881Y006232D01*
X021618Y006232D01*
X021486Y006100D01*
X021486Y005968D01*
X021618Y005836D01*
X021486Y005705D01*
X021486Y005573D01*
X021618Y005836D02*
X021750Y005836D01*
X023862Y005573D02*
X023993Y005441D01*
X024257Y005441D01*
X024389Y005573D01*
X024389Y006100D01*
X024257Y006232D01*
X023993Y006232D01*
X023862Y006100D01*
X018846Y005968D02*
X018714Y005968D01*
X018714Y006232D02*
X018714Y006364D01*
X028329Y013982D02*
X028329Y014412D01*
X028616Y014412D02*
X028329Y013982D01*
X028616Y013982D02*
X028616Y014412D01*
X028779Y014412D02*
X028923Y014412D01*
X028851Y014412D02*
X028851Y013982D01*
X028923Y013982D02*
X028779Y013982D01*
X029096Y013982D02*
X029096Y014412D01*
X029240Y014269D01*
X029383Y014412D01*
X029383Y013982D01*
X029557Y014197D02*
X029844Y014197D01*
X030017Y014340D02*
X030304Y014054D01*
X030304Y013982D01*
X030017Y013982D01*
X030017Y014340D02*
X030017Y014412D01*
X030304Y014412D01*
X031167Y014393D02*
X031453Y013963D01*
X031627Y013963D02*
X031627Y014250D01*
X031770Y014393D01*
X031914Y014250D01*
X031914Y013963D01*
X032087Y013963D02*
X032087Y014393D01*
X032231Y014250D01*
X032374Y014393D01*
X032374Y013963D01*
X032548Y014178D02*
X032835Y014178D01*
X033008Y014322D02*
X033295Y014035D01*
X033295Y013963D01*
X033008Y013963D01*
X033008Y014322D02*
X033008Y014393D01*
X033295Y014393D01*
X031914Y014178D02*
X031627Y014178D01*
X031453Y014393D02*
X031167Y013963D01*
X031167Y017313D02*
X031453Y017743D01*
X031627Y017600D02*
X031627Y017313D01*
X031453Y017313D02*
X031167Y017743D01*
X031627Y017600D02*
X031770Y017743D01*
X031914Y017600D01*
X031914Y017313D01*
X032087Y017313D02*
X032087Y017743D01*
X032231Y017600D01*
X032374Y017743D01*
X032374Y017313D01*
X032548Y017528D02*
X032835Y017528D01*
X033008Y017313D02*
X033295Y017743D01*
X033008Y017743D02*
X033295Y017313D01*
X034270Y017313D02*
X034270Y017743D01*
X034557Y017743D02*
X034270Y017313D01*
X034557Y017313D02*
X034557Y017743D01*
X034720Y017743D02*
X034864Y017743D01*
X034792Y017743D02*
X034792Y017313D01*
X034864Y017313D02*
X034720Y017313D01*
X035037Y017313D02*
X035037Y017743D01*
X035181Y017600D01*
X035324Y017743D01*
X035324Y017313D01*
X035498Y017528D02*
X035785Y017528D01*
X035958Y017672D02*
X036102Y017528D01*
X036102Y017313D01*
X036102Y017528D02*
X036245Y017672D01*
X036245Y017743D01*
X035958Y017743D02*
X035958Y017672D01*
X037167Y017743D02*
X037453Y017313D01*
X037627Y017313D02*
X037627Y017600D01*
X037770Y017743D01*
X037914Y017600D01*
X037914Y017313D01*
X038087Y017313D02*
X038087Y017743D01*
X038231Y017600D01*
X038374Y017743D01*
X038374Y017313D01*
X038548Y017528D02*
X038835Y017528D01*
X039008Y017672D02*
X039008Y017743D01*
X039008Y017672D02*
X039152Y017528D01*
X039152Y017313D01*
X039152Y017528D02*
X039295Y017672D01*
X039295Y017743D01*
X037914Y017528D02*
X037627Y017528D01*
X037453Y017743D02*
X037167Y017313D01*
X041656Y017202D02*
X041877Y017202D01*
X041987Y017092D01*
X041877Y016982D01*
X041656Y016982D01*
X041656Y016834D02*
X041656Y016613D01*
X041987Y016613D01*
X041932Y016465D02*
X041821Y016465D01*
X041766Y016410D01*
X041766Y016245D01*
X041656Y016245D02*
X041987Y016245D01*
X041987Y016410D01*
X041932Y016465D01*
X041821Y016982D02*
X041821Y017202D01*
X041932Y017350D02*
X041821Y017460D01*
X041656Y017460D01*
X041821Y017460D02*
X041932Y017570D01*
X041987Y017570D01*
X041987Y017350D02*
X041932Y017350D01*
X031914Y017528D02*
X031627Y017528D01*
X030295Y017313D02*
X030008Y017743D01*
X029835Y017528D02*
X029548Y017528D01*
X029374Y017313D02*
X029374Y017743D01*
X029231Y017600D01*
X029087Y017743D01*
X029087Y017313D01*
X028914Y017313D02*
X028770Y017313D01*
X028842Y017313D02*
X028842Y017743D01*
X028914Y017743D02*
X028770Y017743D01*
X028607Y017743D02*
X028320Y017313D01*
X028320Y017743D01*
X028607Y017743D02*
X028607Y017313D01*
X030008Y017313D02*
X030295Y017743D01*
D12*
X030033Y018285D02*
X030070Y018321D01*
X030033Y018285D02*
X029960Y018285D01*
X029923Y018321D01*
X029923Y018395D01*
X029960Y018432D01*
X029997Y018432D01*
X030070Y018395D01*
X030070Y018505D01*
X029923Y018505D01*
X029849Y018432D02*
X029776Y018285D01*
X029702Y018432D01*
X029684Y018722D02*
X029611Y018796D01*
X029611Y018942D01*
X029537Y018832D02*
X029390Y018832D01*
X029316Y018832D02*
X029242Y018832D01*
X029316Y018722D02*
X029169Y018722D01*
X029095Y018722D02*
X029095Y018869D01*
X028984Y018869D01*
X028948Y018832D01*
X028948Y018722D01*
X028874Y018759D02*
X028874Y018832D01*
X028837Y018869D01*
X028727Y018869D01*
X028727Y018942D02*
X028727Y018722D01*
X028837Y018722D01*
X028874Y018759D01*
X028653Y018722D02*
X028542Y018722D01*
X028506Y018759D01*
X028542Y018796D01*
X028616Y018796D01*
X028653Y018832D01*
X028616Y018869D01*
X028506Y018869D01*
X028432Y018869D02*
X028358Y018869D01*
X028395Y018906D02*
X028395Y018759D01*
X028358Y018722D01*
X028284Y018759D02*
X028248Y018722D01*
X028174Y018722D01*
X028137Y018759D01*
X028137Y018832D01*
X028174Y018869D01*
X028248Y018869D01*
X028284Y018832D01*
X028284Y018759D01*
X028063Y018722D02*
X027953Y018722D01*
X027916Y018759D01*
X027916Y018832D01*
X027953Y018869D01*
X028063Y018869D01*
X028063Y018649D01*
X028114Y018505D02*
X028224Y018395D01*
X028077Y018395D01*
X028003Y018432D02*
X027930Y018285D01*
X027856Y018432D01*
X028114Y018505D02*
X028114Y018285D01*
X028298Y018285D02*
X028445Y018285D01*
X028298Y018432D01*
X028298Y018468D01*
X028335Y018505D01*
X028408Y018505D01*
X028445Y018468D01*
X029316Y018722D02*
X029316Y018942D01*
X029169Y018942D01*
X029684Y018722D02*
X029758Y018796D01*
X029758Y018942D01*
D13*
X023743Y002962D02*
X023509Y002962D01*
X022993Y003013D02*
X022759Y003013D01*
X022624Y003013D02*
X022624Y002662D01*
X022391Y002662D01*
X022507Y002837D02*
X022624Y002837D01*
X022624Y003013D02*
X022391Y003013D01*
X022256Y003013D02*
X022022Y003013D01*
X022139Y003013D02*
X022139Y002662D01*
X021888Y002662D02*
X021654Y002896D01*
X021654Y002954D01*
X021712Y003013D01*
X021829Y003013D01*
X021888Y002954D01*
X021493Y002962D02*
X021259Y002962D01*
X021376Y002846D02*
X021376Y003079D01*
X021654Y002662D02*
X021888Y002662D01*
X022876Y002837D02*
X022993Y002837D01*
X022993Y002662D02*
X022993Y003013D01*
X020743Y002962D02*
X020509Y002962D01*
X019993Y003013D02*
X019759Y003013D01*
X019624Y003013D02*
X019624Y002662D01*
X019391Y002662D01*
X019507Y002837D02*
X019624Y002837D01*
X019624Y003013D02*
X019391Y003013D01*
X019256Y003013D02*
X019022Y003013D01*
X019139Y003013D02*
X019139Y002662D01*
X018888Y002662D02*
X018654Y002662D01*
X018771Y002662D02*
X018771Y003013D01*
X018888Y002896D01*
X018493Y002962D02*
X018259Y002962D01*
X018376Y002846D02*
X018376Y003079D01*
X017793Y002912D02*
X017559Y002912D01*
X017443Y002887D02*
X017326Y002887D01*
X017443Y002712D02*
X017443Y003063D01*
X017209Y003063D01*
X017074Y003063D02*
X017074Y002712D01*
X016841Y002712D01*
X016957Y002887D02*
X017074Y002887D01*
X017074Y003063D02*
X016841Y003063D01*
X016706Y003063D02*
X016472Y003063D01*
X016589Y003063D02*
X016589Y002712D01*
X015969Y002712D02*
X015852Y002712D01*
X015911Y002712D02*
X015911Y003063D01*
X015969Y003063D02*
X015852Y003063D01*
X015724Y003063D02*
X015490Y002712D01*
X015490Y003063D01*
X015724Y003063D02*
X015724Y002712D01*
X015293Y002912D02*
X015059Y002912D01*
X015176Y002796D02*
X015176Y003029D01*
X019876Y002837D02*
X019993Y002837D01*
X019993Y002662D02*
X019993Y003013D01*
D14*
X017073Y005673D02*
X017073Y005827D01*
X016919Y005980D01*
X016766Y005980D02*
X016535Y005980D01*
X016459Y005903D01*
X016459Y005750D01*
X016535Y005673D01*
X016766Y005673D01*
X016766Y005520D02*
X016766Y005980D01*
X016305Y005750D02*
X016305Y005597D01*
X016228Y005520D01*
X016075Y005520D01*
X015998Y005597D01*
X015998Y005750D01*
X016075Y005827D01*
X016228Y005827D01*
X016305Y005750D01*
X015845Y005827D02*
X015845Y005597D01*
X015768Y005520D01*
X015691Y005597D01*
X015615Y005520D01*
X015538Y005597D01*
X015538Y005827D01*
X015384Y005750D02*
X015308Y005827D01*
X015154Y005827D01*
X015077Y005750D01*
X015077Y005673D01*
X015384Y005673D01*
X015384Y005597D02*
X015384Y005750D01*
X015384Y005597D02*
X015308Y005520D01*
X015154Y005520D01*
X014924Y005520D02*
X014924Y005827D01*
X014771Y005827D02*
X014924Y005673D01*
X014771Y005827D02*
X014694Y005827D01*
X014540Y005750D02*
X014464Y005827D01*
X014310Y005827D01*
X014233Y005750D01*
X014233Y005673D01*
X014540Y005673D01*
X014540Y005597D02*
X014540Y005750D01*
X014540Y005597D02*
X014464Y005520D01*
X014310Y005520D01*
X014080Y005597D02*
X014080Y005750D01*
X014003Y005827D01*
X013773Y005827D01*
X013773Y005980D02*
X013773Y005520D01*
X014003Y005520D01*
X014080Y005597D01*
X013159Y005520D02*
X013159Y005980D01*
X013159Y005827D02*
X012929Y005827D01*
X012852Y005750D01*
X012852Y005597D01*
X012929Y005520D01*
X013159Y005520D01*
X012699Y005597D02*
X012699Y005827D01*
X012699Y005597D02*
X012622Y005520D01*
X012392Y005520D01*
X012392Y005443D02*
X012469Y005366D01*
X012545Y005366D01*
X012392Y005443D02*
X012392Y005827D01*
X011778Y005827D02*
X011778Y005903D01*
X011701Y005980D01*
X011548Y005980D01*
X011471Y005903D01*
X011548Y005750D02*
X011471Y005673D01*
X011471Y005597D01*
X011548Y005520D01*
X011701Y005520D01*
X011778Y005597D01*
X011701Y005750D02*
X011548Y005750D01*
X011701Y005750D02*
X011778Y005827D01*
X011318Y005827D02*
X011318Y005520D01*
X011164Y005520D02*
X011164Y005750D01*
X011087Y005827D01*
X011011Y005750D01*
X011011Y005520D01*
X010857Y005597D02*
X010780Y005520D01*
X010627Y005520D01*
X010550Y005597D01*
X010550Y005750D01*
X010627Y005827D01*
X010780Y005827D01*
X010857Y005750D01*
X010857Y005597D01*
X011164Y005750D02*
X011241Y005827D01*
X011318Y005827D01*
X010397Y005750D02*
X010397Y005597D01*
X010320Y005520D01*
X010167Y005520D01*
X010090Y005597D01*
X010090Y005750D01*
X010167Y005827D01*
X010320Y005827D01*
X010397Y005750D01*
X009936Y005827D02*
X009783Y005827D01*
X009860Y005903D02*
X009860Y005597D01*
X009783Y005520D01*
X009629Y005520D02*
X009629Y005980D01*
X009553Y005827D02*
X009399Y005827D01*
X009323Y005750D01*
X009323Y005520D01*
X009169Y005520D02*
X009016Y005520D01*
X009092Y005520D02*
X009092Y005827D01*
X009169Y005827D01*
X009092Y005980D02*
X009092Y006057D01*
X008785Y005827D02*
X008632Y005827D01*
X008555Y005750D01*
X008555Y005673D01*
X008862Y005673D01*
X008862Y005597D02*
X008862Y005750D01*
X008785Y005827D01*
X008862Y005597D02*
X008785Y005520D01*
X008632Y005520D01*
X008402Y005520D02*
X008248Y005673D01*
X008248Y005827D01*
X008402Y005980D01*
X009553Y005827D02*
X009629Y005750D01*
X016919Y005520D02*
X017073Y005673D01*
D15*
X016824Y005277D02*
X016504Y005277D01*
X016397Y005170D01*
X016397Y004956D01*
X016504Y004850D01*
X016824Y004850D01*
X016610Y004850D02*
X016397Y004636D01*
X016502Y004477D02*
X016502Y003836D01*
X016181Y003836D01*
X016075Y003943D01*
X016075Y004156D01*
X016181Y004263D01*
X016502Y004263D01*
X015857Y004263D02*
X015857Y003943D01*
X015750Y003836D01*
X015430Y003836D01*
X015430Y003729D02*
X015537Y003623D01*
X015644Y003623D01*
X015430Y003729D02*
X015430Y004263D01*
X015321Y004423D02*
X015215Y004423D01*
X015108Y004529D01*
X015108Y005063D01*
X015535Y005063D02*
X015535Y004743D01*
X015428Y004636D01*
X015108Y004636D01*
X014568Y004370D02*
X014461Y004477D01*
X014248Y004477D01*
X014141Y004370D01*
X013924Y004156D02*
X013924Y003943D01*
X013817Y003836D01*
X013603Y003836D01*
X013496Y003943D01*
X013496Y004156D01*
X013603Y004263D01*
X013817Y004263D01*
X013924Y004156D01*
X014141Y003943D02*
X014248Y003836D01*
X014461Y003836D01*
X014568Y003943D01*
X014568Y004370D01*
X014246Y004636D02*
X014246Y005277D01*
X014246Y004850D02*
X013819Y005277D01*
X013601Y005277D02*
X013601Y004636D01*
X013819Y004636D02*
X014139Y004956D01*
X013601Y004956D02*
X013494Y005063D01*
X013281Y005063D01*
X013174Y004956D01*
X013174Y004636D01*
X013279Y004477D02*
X013279Y003836D01*
X013279Y004156D02*
X013172Y004263D01*
X012959Y004263D01*
X012852Y004156D01*
X012852Y003836D01*
X012634Y003943D02*
X012634Y004156D01*
X012528Y004263D01*
X012314Y004263D01*
X012207Y004156D01*
X012207Y004050D01*
X012634Y004050D01*
X012634Y003943D02*
X012528Y003836D01*
X012314Y003836D01*
X011990Y003836D02*
X011670Y003836D01*
X011563Y003943D01*
X011670Y004050D01*
X011883Y004050D01*
X011990Y004156D01*
X011883Y004263D01*
X011563Y004263D01*
X011345Y004263D02*
X011239Y004263D01*
X011239Y003836D01*
X011345Y003836D02*
X011132Y003836D01*
X010916Y003943D02*
X010809Y003836D01*
X010595Y003836D01*
X010489Y003943D01*
X010489Y004156D01*
X010595Y004263D01*
X010809Y004263D01*
X010916Y004156D01*
X010916Y003943D01*
X010271Y003836D02*
X010271Y004263D01*
X009951Y004263D01*
X009844Y004156D01*
X009844Y003836D01*
X009627Y003943D02*
X009520Y003836D01*
X009306Y003836D01*
X009200Y003943D01*
X009200Y004050D01*
X009306Y004156D01*
X009413Y004156D01*
X009306Y004156D02*
X009200Y004263D01*
X009200Y004370D01*
X009306Y004477D01*
X009520Y004477D01*
X009627Y004370D01*
X008982Y004477D02*
X008662Y004477D01*
X008555Y004370D01*
X008555Y003943D01*
X008662Y003836D01*
X008982Y003836D01*
X008982Y004477D01*
X008984Y004636D02*
X008877Y004743D01*
X008984Y004850D01*
X009198Y004850D01*
X009304Y004956D01*
X009198Y005063D01*
X008877Y005063D01*
X008660Y004850D02*
X008339Y005063D01*
X008123Y005063D02*
X008123Y004743D01*
X008016Y004636D01*
X007696Y004636D01*
X007696Y004529D02*
X007802Y004423D01*
X007909Y004423D01*
X007696Y004529D02*
X007696Y005063D01*
X008339Y004636D02*
X008660Y004850D01*
X008660Y004636D02*
X008660Y005277D01*
X009522Y005063D02*
X009735Y004636D01*
X009949Y005063D01*
X010166Y004956D02*
X010273Y005063D01*
X010487Y005063D01*
X010593Y004956D01*
X010593Y004743D01*
X010487Y004636D01*
X010273Y004636D01*
X010166Y004743D01*
X010166Y004956D01*
X009304Y004636D02*
X008984Y004636D01*
X010811Y004636D02*
X011131Y004636D01*
X011238Y004743D01*
X011238Y004956D01*
X011131Y005063D01*
X010811Y005063D01*
X010811Y005277D02*
X010811Y004636D01*
X011239Y004583D02*
X011239Y004477D01*
X011455Y004743D02*
X011455Y004956D01*
X011562Y005063D01*
X011776Y005063D01*
X011882Y004956D01*
X011882Y004743D01*
X011776Y004636D01*
X011562Y004636D01*
X011455Y004743D01*
X012099Y004636D02*
X012312Y004636D01*
X012205Y004636D02*
X012205Y005277D01*
X012312Y005277D01*
X012530Y004956D02*
X012636Y005063D01*
X012850Y005063D01*
X012957Y004956D01*
X012957Y004743D01*
X012850Y004636D01*
X012636Y004636D01*
X012530Y004743D01*
X012530Y004956D01*
X015752Y004956D02*
X015752Y004636D01*
X016073Y004636D01*
X016179Y004743D01*
X016073Y004850D01*
X015752Y004850D01*
X015752Y004956D02*
X015859Y005063D01*
X016073Y005063D01*
X016824Y005277D02*
X016824Y004636D01*
X017364Y004477D02*
X017364Y003836D01*
X017684Y003836D01*
X017791Y003943D01*
X017791Y004156D01*
X017684Y004263D01*
X017364Y004263D01*
X017686Y004529D02*
X017793Y004423D01*
X017900Y004423D01*
X018006Y004636D02*
X017686Y004636D01*
X017686Y004529D02*
X017686Y005063D01*
X018113Y005063D02*
X018113Y004743D01*
X018006Y004636D01*
X018331Y004743D02*
X018331Y004956D01*
X018437Y005063D01*
X018758Y005063D01*
X018758Y005277D02*
X018758Y004636D01*
X018437Y004636D01*
X018331Y004743D01*
X018329Y004263D02*
X018115Y004263D01*
X018008Y004156D01*
X018008Y004050D01*
X018435Y004050D01*
X018435Y004156D02*
X018329Y004263D01*
X018435Y004156D02*
X018435Y003943D01*
X018329Y003836D01*
X018115Y003836D01*
X018759Y004263D02*
X018973Y004050D01*
X018973Y004263D02*
X018973Y003836D01*
X019190Y003836D02*
X019190Y004263D01*
X019617Y004263D02*
X019617Y003943D01*
X019510Y003836D01*
X019190Y003836D01*
X019833Y003836D02*
X019940Y003943D01*
X019940Y004370D01*
X020047Y004263D02*
X019833Y004263D01*
X020264Y004263D02*
X020585Y004263D01*
X020691Y004156D01*
X020691Y003943D01*
X020585Y003836D01*
X020264Y003836D01*
X020909Y003836D02*
X021229Y003836D01*
X021336Y003943D01*
X021229Y004050D01*
X020909Y004050D01*
X020909Y004156D02*
X020909Y003836D01*
X020909Y004156D02*
X021016Y004263D01*
X021229Y004263D01*
X021552Y004156D02*
X021766Y004156D01*
X021659Y004370D02*
X021659Y003836D01*
X021983Y003836D02*
X021983Y004263D01*
X021767Y004423D02*
X021660Y004423D01*
X021553Y004529D01*
X021553Y005063D01*
X021874Y005063D01*
X021980Y004956D01*
X021980Y004743D01*
X021874Y004636D01*
X021553Y004636D01*
X021552Y004477D02*
X021659Y004370D01*
X021336Y004636D02*
X021336Y005063D01*
X021016Y005063D01*
X020909Y004956D01*
X020909Y004636D01*
X020691Y004743D02*
X020691Y004956D01*
X020585Y005063D01*
X020371Y005063D01*
X020264Y004956D01*
X020264Y004850D01*
X020691Y004850D01*
X020691Y004743D02*
X020585Y004636D01*
X020371Y004636D01*
X020047Y004743D02*
X020047Y004956D01*
X019940Y005063D01*
X019620Y005063D01*
X019620Y005277D02*
X019620Y004636D01*
X019940Y004636D01*
X020047Y004743D01*
X018759Y004263D02*
X018652Y004263D01*
X021983Y003836D02*
X022303Y003836D01*
X022410Y003943D01*
X022410Y004263D01*
X022628Y004156D02*
X022734Y004263D01*
X023055Y004263D01*
X023055Y003836D01*
X023272Y003836D02*
X023272Y004156D01*
X023379Y004263D01*
X023592Y004263D01*
X023592Y004050D02*
X023272Y004050D01*
X023272Y003836D02*
X023592Y003836D01*
X023699Y003943D01*
X023592Y004050D01*
X023917Y003836D02*
X023917Y004477D01*
X024130Y004263D01*
X024344Y004477D01*
X024344Y003836D01*
X024344Y004636D02*
X024023Y004636D01*
X023917Y004743D01*
X023917Y005170D01*
X024023Y005277D01*
X024344Y005277D01*
X024344Y004636D01*
X023699Y004743D02*
X023699Y004956D01*
X023592Y005063D01*
X023379Y005063D01*
X023272Y004956D01*
X023272Y004850D01*
X023699Y004850D01*
X023699Y004743D02*
X023592Y004636D01*
X023379Y004636D01*
X023055Y004636D02*
X022734Y004636D01*
X022628Y004743D01*
X022734Y004850D01*
X022948Y004850D01*
X023055Y004956D01*
X022948Y005063D01*
X022628Y005063D01*
X022410Y005063D02*
X022303Y005063D01*
X022303Y004636D01*
X022197Y004636D02*
X022410Y004636D01*
X022628Y004156D02*
X022628Y003836D01*
X022303Y005277D02*
X022303Y005383D01*
X020530Y011437D02*
X019430Y011437D01*
X019413Y011439D01*
X019396Y011443D01*
X019380Y011450D01*
X019366Y011460D01*
X019353Y011473D01*
X019343Y011487D01*
X019336Y011503D01*
X019332Y011520D01*
X019330Y011537D01*
X019330Y012137D01*
X019332Y012154D01*
X019336Y012171D01*
X019343Y012187D01*
X019353Y012201D01*
X019366Y012214D01*
X019380Y012224D01*
X019396Y012231D01*
X019413Y012235D01*
X019430Y012237D01*
X020530Y012237D01*
X020547Y012235D01*
X020564Y012231D01*
X020580Y012224D01*
X020594Y012214D01*
X020607Y012201D01*
X020617Y012187D01*
X020624Y012171D01*
X020628Y012154D01*
X020630Y012137D01*
X020630Y011537D01*
X020628Y011520D01*
X020624Y011503D01*
X020617Y011487D01*
X020607Y011473D01*
X020594Y011460D01*
X020580Y011450D01*
X020564Y011443D01*
X020547Y011439D01*
X020530Y011437D01*
X020530Y012437D02*
X019430Y012437D01*
X019413Y012439D01*
X019396Y012443D01*
X019380Y012450D01*
X019366Y012460D01*
X019353Y012473D01*
X019343Y012487D01*
X019336Y012503D01*
X019332Y012520D01*
X019330Y012537D01*
X019330Y013137D01*
X019332Y013154D01*
X019336Y013171D01*
X019343Y013187D01*
X019353Y013201D01*
X019366Y013214D01*
X019380Y013224D01*
X019396Y013231D01*
X019413Y013235D01*
X019430Y013237D01*
X020530Y013237D01*
X020547Y013235D01*
X020564Y013231D01*
X020580Y013224D01*
X020594Y013214D01*
X020607Y013201D01*
X020617Y013187D01*
X020624Y013171D01*
X020628Y013154D01*
X020630Y013137D01*
X020630Y012537D01*
X020628Y012520D01*
X020624Y012503D01*
X020617Y012487D01*
X020607Y012473D01*
X020594Y012460D01*
X020580Y012450D01*
X020564Y012443D01*
X020547Y012439D01*
X020530Y012437D01*
X020530Y013437D02*
X019430Y013437D01*
X019413Y013439D01*
X019396Y013443D01*
X019380Y013450D01*
X019366Y013460D01*
X019353Y013473D01*
X019343Y013487D01*
X019336Y013503D01*
X019332Y013520D01*
X019330Y013537D01*
X019330Y014137D01*
X019332Y014154D01*
X019336Y014171D01*
X019343Y014187D01*
X019353Y014201D01*
X019366Y014214D01*
X019380Y014224D01*
X019396Y014231D01*
X019413Y014235D01*
X019430Y014237D01*
X020530Y014237D01*
X020547Y014235D01*
X020564Y014231D01*
X020580Y014224D01*
X020594Y014214D01*
X020607Y014201D01*
X020617Y014187D01*
X020624Y014171D01*
X020628Y014154D01*
X020630Y014137D01*
X020630Y013537D01*
X020628Y013520D01*
X020624Y013503D01*
X020617Y013487D01*
X020607Y013473D01*
X020594Y013460D01*
X020580Y013450D01*
X020564Y013443D01*
X020547Y013439D01*
X020530Y013437D01*
X025330Y013537D02*
X025330Y014137D01*
X025332Y014154D01*
X025336Y014171D01*
X025343Y014187D01*
X025353Y014201D01*
X025366Y014214D01*
X025380Y014224D01*
X025396Y014231D01*
X025413Y014235D01*
X025430Y014237D01*
X026530Y014237D01*
X026547Y014235D01*
X026564Y014231D01*
X026580Y014224D01*
X026594Y014214D01*
X026607Y014201D01*
X026617Y014187D01*
X026624Y014171D01*
X026628Y014154D01*
X026630Y014137D01*
X026630Y013537D01*
X026628Y013520D01*
X026624Y013503D01*
X026617Y013487D01*
X026607Y013473D01*
X026594Y013460D01*
X026580Y013450D01*
X026564Y013443D01*
X026547Y013439D01*
X026530Y013437D01*
X025430Y013437D01*
X025413Y013439D01*
X025396Y013443D01*
X025380Y013450D01*
X025366Y013460D01*
X025353Y013473D01*
X025343Y013487D01*
X025336Y013503D01*
X025332Y013520D01*
X025330Y013537D01*
X025430Y013237D02*
X026530Y013237D01*
X026547Y013235D01*
X026564Y013231D01*
X026580Y013224D01*
X026594Y013214D01*
X026607Y013201D01*
X026617Y013187D01*
X026624Y013171D01*
X026628Y013154D01*
X026630Y013137D01*
X026630Y012537D01*
X026628Y012520D01*
X026624Y012503D01*
X026617Y012487D01*
X026607Y012473D01*
X026594Y012460D01*
X026580Y012450D01*
X026564Y012443D01*
X026547Y012439D01*
X026530Y012437D01*
X025430Y012437D01*
X025413Y012439D01*
X025396Y012443D01*
X025380Y012450D01*
X025366Y012460D01*
X025353Y012473D01*
X025343Y012487D01*
X025336Y012503D01*
X025332Y012520D01*
X025330Y012537D01*
X025330Y013137D01*
X025332Y013154D01*
X025336Y013171D01*
X025343Y013187D01*
X025353Y013201D01*
X025366Y013214D01*
X025380Y013224D01*
X025396Y013231D01*
X025413Y013235D01*
X025430Y013237D01*
X025430Y012237D02*
X026530Y012237D01*
X026547Y012235D01*
X026564Y012231D01*
X026580Y012224D01*
X026594Y012214D01*
X026607Y012201D01*
X026617Y012187D01*
X026624Y012171D01*
X026628Y012154D01*
X026630Y012137D01*
X026630Y011537D01*
X026628Y011520D01*
X026624Y011503D01*
X026617Y011487D01*
X026607Y011473D01*
X026594Y011460D01*
X026580Y011450D01*
X026564Y011443D01*
X026547Y011439D01*
X026530Y011437D01*
X025430Y011437D01*
X025413Y011439D01*
X025396Y011443D01*
X025380Y011450D01*
X025366Y011460D01*
X025353Y011473D01*
X025343Y011487D01*
X025336Y011503D01*
X025332Y011520D01*
X025330Y011537D01*
X025330Y012137D01*
X025332Y012154D01*
X025336Y012171D01*
X025343Y012187D01*
X025353Y012201D01*
X025366Y012214D01*
X025380Y012224D01*
X025396Y012231D01*
X025413Y012235D01*
X025430Y012237D01*
X014630Y012137D02*
X014630Y011537D01*
X014628Y011520D01*
X014624Y011503D01*
X014617Y011487D01*
X014607Y011473D01*
X014594Y011460D01*
X014580Y011450D01*
X014564Y011443D01*
X014547Y011439D01*
X014530Y011437D01*
X013430Y011437D01*
X013413Y011439D01*
X013396Y011443D01*
X013380Y011450D01*
X013366Y011460D01*
X013353Y011473D01*
X013343Y011487D01*
X013336Y011503D01*
X013332Y011520D01*
X013330Y011537D01*
X013330Y012137D01*
X013332Y012154D01*
X013336Y012171D01*
X013343Y012187D01*
X013353Y012201D01*
X013366Y012214D01*
X013380Y012224D01*
X013396Y012231D01*
X013413Y012235D01*
X013430Y012237D01*
X014530Y012237D01*
X014547Y012235D01*
X014564Y012231D01*
X014580Y012224D01*
X014594Y012214D01*
X014607Y012201D01*
X014617Y012187D01*
X014624Y012171D01*
X014628Y012154D01*
X014630Y012137D01*
X014530Y012437D02*
X013430Y012437D01*
X013413Y012439D01*
X013396Y012443D01*
X013380Y012450D01*
X013366Y012460D01*
X013353Y012473D01*
X013343Y012487D01*
X013336Y012503D01*
X013332Y012520D01*
X013330Y012537D01*
X013330Y013137D01*
X013332Y013154D01*
X013336Y013171D01*
X013343Y013187D01*
X013353Y013201D01*
X013366Y013214D01*
X013380Y013224D01*
X013396Y013231D01*
X013413Y013235D01*
X013430Y013237D01*
X014530Y013237D01*
X014547Y013235D01*
X014564Y013231D01*
X014580Y013224D01*
X014594Y013214D01*
X014607Y013201D01*
X014617Y013187D01*
X014624Y013171D01*
X014628Y013154D01*
X014630Y013137D01*
X014630Y012537D01*
X014628Y012520D01*
X014624Y012503D01*
X014617Y012487D01*
X014607Y012473D01*
X014594Y012460D01*
X014580Y012450D01*
X014564Y012443D01*
X014547Y012439D01*
X014530Y012437D01*
X014530Y013437D02*
X013430Y013437D01*
X013413Y013439D01*
X013396Y013443D01*
X013380Y013450D01*
X013366Y013460D01*
X013353Y013473D01*
X013343Y013487D01*
X013336Y013503D01*
X013332Y013520D01*
X013330Y013537D01*
X013330Y014137D01*
X013332Y014154D01*
X013336Y014171D01*
X013343Y014187D01*
X013353Y014201D01*
X013366Y014214D01*
X013380Y014224D01*
X013396Y014231D01*
X013413Y014235D01*
X013430Y014237D01*
X014530Y014237D01*
X014547Y014235D01*
X014564Y014231D01*
X014580Y014224D01*
X014594Y014214D01*
X014607Y014201D01*
X014617Y014187D01*
X014624Y014171D01*
X014628Y014154D01*
X014630Y014137D01*
X014630Y013537D01*
X014628Y013520D01*
X014624Y013503D01*
X014617Y013487D01*
X014607Y013473D01*
X014594Y013460D01*
X014580Y013450D01*
X014564Y013443D01*
X014547Y013439D01*
X014530Y013437D01*
X007630Y013337D02*
X007630Y013937D01*
X007628Y013954D01*
X007624Y013971D01*
X007617Y013987D01*
X007607Y014001D01*
X007594Y014014D01*
X007580Y014024D01*
X007564Y014031D01*
X007547Y014035D01*
X007530Y014037D01*
X006430Y014037D01*
X006413Y014035D01*
X006396Y014031D01*
X006380Y014024D01*
X006366Y014014D01*
X006353Y014001D01*
X006343Y013987D01*
X006336Y013971D01*
X006332Y013954D01*
X006330Y013937D01*
X006330Y013337D01*
X006332Y013320D01*
X006336Y013303D01*
X006343Y013287D01*
X006353Y013273D01*
X006366Y013260D01*
X006380Y013250D01*
X006396Y013243D01*
X006413Y013239D01*
X006430Y013237D01*
X007530Y013237D01*
X007547Y013239D01*
X007564Y013243D01*
X007580Y013250D01*
X007594Y013260D01*
X007607Y013273D01*
X007617Y013287D01*
X007624Y013303D01*
X007628Y013320D01*
X007630Y013337D01*
X007530Y014137D02*
X006430Y014137D01*
X006413Y014139D01*
X006396Y014143D01*
X006380Y014150D01*
X006366Y014160D01*
X006353Y014173D01*
X006343Y014187D01*
X006336Y014203D01*
X006332Y014220D01*
X006330Y014237D01*
X006330Y014837D01*
X006332Y014854D01*
X006336Y014871D01*
X006343Y014887D01*
X006353Y014901D01*
X006366Y014914D01*
X006380Y014924D01*
X006396Y014931D01*
X006413Y014935D01*
X006430Y014937D01*
X007530Y014937D01*
X007547Y014935D01*
X007564Y014931D01*
X007580Y014924D01*
X007594Y014914D01*
X007607Y014901D01*
X007617Y014887D01*
X007624Y014871D01*
X007628Y014854D01*
X007630Y014837D01*
X007630Y014237D01*
X007628Y014220D01*
X007624Y014203D01*
X007617Y014187D01*
X007607Y014173D01*
X007594Y014160D01*
X007580Y014150D01*
X007564Y014143D01*
X007547Y014139D01*
X007530Y014137D01*
X007530Y015037D02*
X006430Y015037D01*
X006413Y015039D01*
X006396Y015043D01*
X006380Y015050D01*
X006366Y015060D01*
X006353Y015073D01*
X006343Y015087D01*
X006336Y015103D01*
X006332Y015120D01*
X006330Y015137D01*
X006330Y015737D01*
X006332Y015754D01*
X006336Y015771D01*
X006343Y015787D01*
X006353Y015801D01*
X006366Y015814D01*
X006380Y015824D01*
X006396Y015831D01*
X006413Y015835D01*
X006430Y015837D01*
X007530Y015837D01*
X007547Y015835D01*
X007564Y015831D01*
X007580Y015824D01*
X007594Y015814D01*
X007607Y015801D01*
X007617Y015787D01*
X007624Y015771D01*
X007628Y015754D01*
X007630Y015737D01*
X007630Y015137D01*
X007628Y015120D01*
X007624Y015103D01*
X007617Y015087D01*
X007607Y015073D01*
X007594Y015060D01*
X007580Y015050D01*
X007564Y015043D01*
X007547Y015039D01*
X007530Y015037D01*
X028480Y017987D02*
X028480Y018587D01*
X028482Y018604D01*
X028486Y018621D01*
X028493Y018637D01*
X028503Y018651D01*
X028516Y018664D01*
X028530Y018674D01*
X028546Y018681D01*
X028563Y018685D01*
X028580Y018687D01*
X029580Y018687D01*
X029597Y018685D01*
X029614Y018681D01*
X029630Y018674D01*
X029644Y018664D01*
X029657Y018651D01*
X029667Y018637D01*
X029674Y018621D01*
X029678Y018604D01*
X029680Y018587D01*
X029680Y017987D01*
X029678Y017970D01*
X029674Y017953D01*
X029667Y017937D01*
X029657Y017923D01*
X029644Y017910D01*
X029630Y017900D01*
X029614Y017893D01*
X029597Y017889D01*
X029580Y017887D01*
X028580Y017887D01*
X028563Y017889D01*
X028546Y017893D01*
X028530Y017900D01*
X028516Y017910D01*
X028503Y017923D01*
X028493Y017937D01*
X028486Y017953D01*
X028482Y017970D01*
X028480Y017987D01*
D16*
X039739Y014156D02*
X039741Y014191D01*
X039747Y014226D01*
X039757Y014260D01*
X039770Y014293D01*
X039787Y014324D01*
X039808Y014352D01*
X039831Y014379D01*
X039858Y014402D01*
X039886Y014423D01*
X039917Y014440D01*
X039950Y014453D01*
X039984Y014463D01*
X040019Y014469D01*
X040054Y014471D01*
X040089Y014469D01*
X040124Y014463D01*
X040158Y014453D01*
X040191Y014440D01*
X040222Y014423D01*
X040250Y014402D01*
X040277Y014379D01*
X040300Y014352D01*
X040321Y014324D01*
X040338Y014293D01*
X040351Y014260D01*
X040361Y014226D01*
X040367Y014191D01*
X040369Y014156D01*
X040367Y014121D01*
X040361Y014086D01*
X040351Y014052D01*
X040338Y014019D01*
X040321Y013988D01*
X040300Y013960D01*
X040277Y013933D01*
X040250Y013910D01*
X040222Y013889D01*
X040191Y013872D01*
X040158Y013859D01*
X040124Y013849D01*
X040089Y013843D01*
X040054Y013841D01*
X040019Y013843D01*
X039984Y013849D01*
X039950Y013859D01*
X039917Y013872D01*
X039886Y013889D01*
X039858Y013910D01*
X039831Y013933D01*
X039808Y013960D01*
X039787Y013988D01*
X039770Y014019D01*
X039757Y014052D01*
X039747Y014086D01*
X039741Y014121D01*
X039739Y014156D01*
X039739Y010219D02*
X039741Y010254D01*
X039747Y010289D01*
X039757Y010323D01*
X039770Y010356D01*
X039787Y010387D01*
X039808Y010415D01*
X039831Y010442D01*
X039858Y010465D01*
X039886Y010486D01*
X039917Y010503D01*
X039950Y010516D01*
X039984Y010526D01*
X040019Y010532D01*
X040054Y010534D01*
X040089Y010532D01*
X040124Y010526D01*
X040158Y010516D01*
X040191Y010503D01*
X040222Y010486D01*
X040250Y010465D01*
X040277Y010442D01*
X040300Y010415D01*
X040321Y010387D01*
X040338Y010356D01*
X040351Y010323D01*
X040361Y010289D01*
X040367Y010254D01*
X040369Y010219D01*
X040367Y010184D01*
X040361Y010149D01*
X040351Y010115D01*
X040338Y010082D01*
X040321Y010051D01*
X040300Y010023D01*
X040277Y009996D01*
X040250Y009973D01*
X040222Y009952D01*
X040191Y009935D01*
X040158Y009922D01*
X040124Y009912D01*
X040089Y009906D01*
X040054Y009904D01*
X040019Y009906D01*
X039984Y009912D01*
X039950Y009922D01*
X039917Y009935D01*
X039886Y009952D01*
X039858Y009973D01*
X039831Y009996D01*
X039808Y010023D01*
X039787Y010051D01*
X039770Y010082D01*
X039757Y010115D01*
X039747Y010149D01*
X039741Y010184D01*
X039739Y010219D01*
M02*
